%TF.GenerationSoftware,KiCad,Pcbnew,9.0.3*%
%TF.CreationDate,2025-12-22T17:44:04-03:00*%
%TF.ProjectId,V3,56332e6b-6963-4616-945f-706362585858,rev?*%
%TF.SameCoordinates,Original*%
%TF.FileFunction,Copper,L3,Inr*%
%TF.FilePolarity,Positive*%
%FSLAX46Y46*%
G04 Gerber Fmt 4.6, Leading zero omitted, Abs format (unit mm)*
G04 Created by KiCad (PCBNEW 9.0.3) date 2025-12-22 17:44:04*
%MOMM*%
%LPD*%
G01*
G04 APERTURE LIST*
G04 Aperture macros list*
%AMRoundRect*
0 Rectangle with rounded corners*
0 $1 Rounding radius*
0 $2 $3 $4 $5 $6 $7 $8 $9 X,Y pos of 4 corners*
0 Add a 4 corners polygon primitive as box body*
4,1,4,$2,$3,$4,$5,$6,$7,$8,$9,$2,$3,0*
0 Add four circle primitives for the rounded corners*
1,1,$1+$1,$2,$3*
1,1,$1+$1,$4,$5*
1,1,$1+$1,$6,$7*
1,1,$1+$1,$8,$9*
0 Add four rect primitives between the rounded corners*
20,1,$1+$1,$2,$3,$4,$5,0*
20,1,$1+$1,$4,$5,$6,$7,0*
20,1,$1+$1,$6,$7,$8,$9,0*
20,1,$1+$1,$8,$9,$2,$3,0*%
G04 Aperture macros list end*
%TA.AperFunction,ComponentPad*%
%ADD10C,0.700000*%
%TD*%
%TA.AperFunction,ComponentPad*%
%ADD11O,2.400000X0.900000*%
%TD*%
%TA.AperFunction,ComponentPad*%
%ADD12O,1.700000X0.900000*%
%TD*%
%TA.AperFunction,ComponentPad*%
%ADD13R,1.700000X1.700000*%
%TD*%
%TA.AperFunction,ComponentPad*%
%ADD14C,1.700000*%
%TD*%
%TA.AperFunction,ComponentPad*%
%ADD15RoundRect,0.250000X0.750000X-0.600000X0.750000X0.600000X-0.750000X0.600000X-0.750000X-0.600000X0*%
%TD*%
%TA.AperFunction,ComponentPad*%
%ADD16O,2.000000X1.700000*%
%TD*%
%TA.AperFunction,ViaPad*%
%ADD17C,0.600000*%
%TD*%
%TA.AperFunction,ViaPad*%
%ADD18C,0.800000*%
%TD*%
G04 APERTURE END LIST*
D10*
%TO.N,GND*%
%TO.C,J1*%
X41775000Y-92775000D03*
%TO.N,VDD_5V*%
X41775000Y-93625000D03*
%TO.N,Net-(J1-CC1)*%
X41775000Y-94475000D03*
%TO.N,Net-(J1-D+-PadA6)*%
X41775000Y-95325000D03*
%TO.N,Net-(J1-D--PadA7)*%
X41775000Y-96175000D03*
%TO.N,unconnected-(J1-SBU1-PadA8)*%
X41775000Y-97025000D03*
%TO.N,VDD_5V*%
X41775000Y-97875000D03*
%TO.N,GND*%
X41775000Y-98725000D03*
X40425000Y-98725000D03*
%TO.N,VDD_5V*%
X40425000Y-97875000D03*
%TO.N,Net-(J1-CC2)*%
X40425000Y-97025000D03*
%TO.N,Net-(J1-D+-PadA6)*%
X40425000Y-96175000D03*
%TO.N,Net-(J1-D--PadA7)*%
X40425000Y-95325000D03*
%TO.N,unconnected-(J1-SBU2-PadB8)*%
X40425000Y-94475000D03*
%TO.N,VDD_5V*%
X40425000Y-93625000D03*
%TO.N,GND*%
X40425000Y-92775000D03*
D11*
X40795000Y-91425000D03*
D12*
X37415000Y-91425000D03*
D11*
X40795000Y-100075000D03*
D12*
X37415000Y-100075000D03*
%TD*%
D13*
%TO.N,VDD_3V3*%
%TO.C,AJ-SR04M1*%
X101690000Y-102000000D03*
D14*
%TO.N,Net-(AJ-SR04M1-GND)*%
X104230000Y-102000000D03*
%TO.N,TRIG_Sensor*%
X106770000Y-102000000D03*
%TO.N,ECHO_Sensor*%
X109310000Y-102000000D03*
%TD*%
D15*
%TO.N,VBAT*%
%TO.C,BT1*%
X64717500Y-102000000D03*
D16*
%TO.N,GND*%
X64717500Y-99500000D03*
%TD*%
D17*
%TO.N,USER_KEY*%
X53500000Y-79250000D03*
X75750000Y-93750000D03*
%TO.N,RTS*%
X67000000Y-77750000D03*
X64250000Y-80750000D03*
%TO.N,CHIP_PU*%
X70500000Y-76250000D03*
X75000000Y-93250000D03*
D18*
%TO.N,VDD_3V3*%
X69850000Y-82750000D03*
X87050000Y-103730000D03*
D17*
X45500000Y-74587500D03*
X65087500Y-67500000D03*
X77000000Y-60500000D03*
D18*
X68500000Y-87250000D03*
X72500000Y-90500000D03*
D17*
X77250000Y-66912500D03*
D18*
X82750000Y-92800000D03*
X107500000Y-87750000D03*
X79510000Y-110800000D03*
X83000000Y-86500000D03*
X76500000Y-110750000D03*
%TO.N,GND*%
X56250000Y-83750000D03*
X40250000Y-68250000D03*
D17*
X68500000Y-85350000D03*
X64150000Y-91750000D03*
D18*
X41250000Y-63000000D03*
D17*
X75000000Y-76250000D03*
X77750000Y-87500000D03*
X72000000Y-98500000D03*
D18*
X38000000Y-63750000D03*
D17*
X60250000Y-66000000D03*
X75500000Y-85250000D03*
D18*
X114750000Y-97250000D03*
X57500000Y-96500000D03*
X43500000Y-60750000D03*
X116500000Y-95500000D03*
D17*
X66175000Y-87675000D03*
X49162500Y-94500000D03*
D18*
X39000000Y-62750000D03*
X60750000Y-104500000D03*
X40000000Y-61750000D03*
D17*
X75500000Y-87500000D03*
D18*
X113000000Y-97250000D03*
X67250000Y-110250000D03*
X70750000Y-99500000D03*
D17*
X70000000Y-80500000D03*
X77750000Y-85250000D03*
D18*
X110000000Y-95500000D03*
X82000000Y-105500000D03*
X40250000Y-65250000D03*
X79000000Y-101250000D03*
X83000000Y-99500000D03*
X111500000Y-95500000D03*
X45000000Y-101500000D03*
X116500000Y-97250000D03*
X47362500Y-91850000D03*
X118250000Y-95500000D03*
X42500000Y-62750000D03*
X114750000Y-95500000D03*
X111500000Y-97250000D03*
X41000000Y-61000000D03*
X77250000Y-104250000D03*
X87250000Y-94250000D03*
X81500000Y-111250000D03*
X106750000Y-97500000D03*
X108500000Y-97500000D03*
X40500000Y-64000000D03*
X40250000Y-66500000D03*
X118250000Y-97250000D03*
X89000000Y-105750000D03*
D17*
X40162500Y-83587500D03*
D18*
X42250000Y-60750000D03*
X61630000Y-84130000D03*
X113000000Y-95500000D03*
X110000000Y-97250000D03*
X43500000Y-62750000D03*
X105000000Y-109250000D03*
X38000000Y-65000000D03*
X89000000Y-100000000D03*
X38000000Y-66500000D03*
D17*
%TO.N,VDD_5V*%
X56662500Y-99587500D03*
X81500000Y-109750000D03*
X48500000Y-99587500D03*
X76250000Y-105500000D03*
%TO.N,PPS_GPS*%
X72375000Y-64875000D03*
X71912500Y-80500000D03*
%TO.N,Net-(U3-U0TXD)*%
X66250000Y-85075000D03*
X71000000Y-84750000D03*
%TO.N,AntOff_GPS*%
X80750000Y-58250000D03*
X45281899Y-63940100D03*
%TO.N,RX{slash}TXdone_LoRa*%
X107525000Y-85750000D03*
X86875000Y-85625000D03*
%TO.N,CADdetect_LoRa*%
X107525000Y-81750000D03*
X86750000Y-83000000D03*
%TO.N,Reset_GPS*%
X81750000Y-59500000D03*
X57250000Y-59500000D03*
%TO.N,RXtimeout_LoRa*%
X86501955Y-84096574D03*
X107525000Y-83750000D03*
%TO.N,Wake_GPS*%
X84500000Y-64750000D03*
X57750000Y-64500000D03*
D18*
%TO.N,VBatt*%
X98560000Y-68000000D03*
X57500000Y-63250000D03*
%TD*%
%TA.AperFunction,Conductor*%
%TO.N,VDD_3V3*%
G36*
X123942539Y-55520185D02*
G01*
X123988294Y-55572989D01*
X123999500Y-55624500D01*
X123999500Y-114875500D01*
X123979815Y-114942539D01*
X123927011Y-114988294D01*
X123875500Y-114999500D01*
X34374500Y-114999500D01*
X34307461Y-114979815D01*
X34261706Y-114927011D01*
X34250500Y-114875500D01*
X34250500Y-111859568D01*
X34749500Y-111859568D01*
X34749500Y-112140431D01*
X34780942Y-112419494D01*
X34780945Y-112419512D01*
X34843439Y-112693317D01*
X34843443Y-112693329D01*
X34936200Y-112958411D01*
X35058053Y-113211442D01*
X35058055Y-113211445D01*
X35207477Y-113449248D01*
X35382584Y-113668825D01*
X35581175Y-113867416D01*
X35800752Y-114042523D01*
X36038555Y-114191945D01*
X36291592Y-114313801D01*
X36490680Y-114383465D01*
X36556670Y-114406556D01*
X36556682Y-114406560D01*
X36830491Y-114469055D01*
X36830497Y-114469055D01*
X36830505Y-114469057D01*
X37016547Y-114490018D01*
X37109569Y-114500499D01*
X37109572Y-114500500D01*
X37109575Y-114500500D01*
X37390428Y-114500500D01*
X37390429Y-114500499D01*
X37533055Y-114484429D01*
X37669494Y-114469057D01*
X37669499Y-114469056D01*
X37669509Y-114469055D01*
X37943318Y-114406560D01*
X38208408Y-114313801D01*
X38461445Y-114191945D01*
X38699248Y-114042523D01*
X38918825Y-113867416D01*
X39117416Y-113668825D01*
X39292523Y-113449248D01*
X39441945Y-113211445D01*
X39563801Y-112958408D01*
X39656560Y-112693318D01*
X39719055Y-112419509D01*
X39750500Y-112140425D01*
X39750500Y-111859575D01*
X39719055Y-111580491D01*
X39656560Y-111306682D01*
X39605690Y-111161304D01*
X80599500Y-111161304D01*
X80599500Y-111338695D01*
X80634103Y-111512658D01*
X80634106Y-111512667D01*
X80701983Y-111676540D01*
X80701990Y-111676553D01*
X80800535Y-111824034D01*
X80800538Y-111824038D01*
X80925961Y-111949461D01*
X80925965Y-111949464D01*
X81073446Y-112048009D01*
X81073459Y-112048016D01*
X81196363Y-112098923D01*
X81237334Y-112115894D01*
X81237336Y-112115894D01*
X81237341Y-112115896D01*
X81411304Y-112150499D01*
X81411307Y-112150500D01*
X81411309Y-112150500D01*
X81588693Y-112150500D01*
X81588694Y-112150499D01*
X81646682Y-112138964D01*
X81762658Y-112115896D01*
X81762661Y-112115894D01*
X81762666Y-112115894D01*
X81926547Y-112048013D01*
X82074035Y-111949464D01*
X82163931Y-111859568D01*
X118499500Y-111859568D01*
X118499500Y-112140431D01*
X118530942Y-112419494D01*
X118530945Y-112419512D01*
X118593439Y-112693317D01*
X118593443Y-112693329D01*
X118686200Y-112958411D01*
X118808053Y-113211442D01*
X118808055Y-113211445D01*
X118957477Y-113449248D01*
X119132584Y-113668825D01*
X119331175Y-113867416D01*
X119550752Y-114042523D01*
X119788555Y-114191945D01*
X120041592Y-114313801D01*
X120240680Y-114383465D01*
X120306670Y-114406556D01*
X120306682Y-114406560D01*
X120580491Y-114469055D01*
X120580497Y-114469055D01*
X120580505Y-114469057D01*
X120766547Y-114490018D01*
X120859569Y-114500499D01*
X120859572Y-114500500D01*
X120859575Y-114500500D01*
X121140428Y-114500500D01*
X121140429Y-114500499D01*
X121283055Y-114484429D01*
X121419494Y-114469057D01*
X121419499Y-114469056D01*
X121419509Y-114469055D01*
X121693318Y-114406560D01*
X121958408Y-114313801D01*
X122211445Y-114191945D01*
X122449248Y-114042523D01*
X122668825Y-113867416D01*
X122867416Y-113668825D01*
X123042523Y-113449248D01*
X123191945Y-113211445D01*
X123313801Y-112958408D01*
X123406560Y-112693318D01*
X123469055Y-112419509D01*
X123500500Y-112140425D01*
X123500500Y-111859575D01*
X123469055Y-111580491D01*
X123406560Y-111306682D01*
X123313801Y-111041592D01*
X123191945Y-110788555D01*
X123042523Y-110550752D01*
X122867416Y-110331175D01*
X122668825Y-110132584D01*
X122664555Y-110129179D01*
X122486687Y-109987334D01*
X122449248Y-109957477D01*
X122244534Y-109828846D01*
X122211442Y-109808053D01*
X121958411Y-109686200D01*
X121693329Y-109593443D01*
X121693317Y-109593439D01*
X121419512Y-109530945D01*
X121419494Y-109530942D01*
X121140431Y-109499500D01*
X121140425Y-109499500D01*
X120859575Y-109499500D01*
X120859568Y-109499500D01*
X120580505Y-109530942D01*
X120580487Y-109530945D01*
X120306682Y-109593439D01*
X120306670Y-109593443D01*
X120041588Y-109686200D01*
X119788557Y-109808053D01*
X119550753Y-109957476D01*
X119331175Y-110132583D01*
X119132583Y-110331175D01*
X118957476Y-110550753D01*
X118808053Y-110788557D01*
X118686200Y-111041588D01*
X118593443Y-111306670D01*
X118593439Y-111306682D01*
X118530945Y-111580487D01*
X118530942Y-111580505D01*
X118499500Y-111859568D01*
X82163931Y-111859568D01*
X82199464Y-111824035D01*
X82199563Y-111823886D01*
X82224075Y-111787204D01*
X82298009Y-111676553D01*
X82298009Y-111676552D01*
X82298013Y-111676547D01*
X82365894Y-111512666D01*
X82400500Y-111338691D01*
X82400500Y-111161309D01*
X82400500Y-111161306D01*
X82400499Y-111161304D01*
X82365896Y-110987341D01*
X82365893Y-110987332D01*
X82298016Y-110823459D01*
X82298009Y-110823446D01*
X82199464Y-110675965D01*
X82199461Y-110675961D01*
X82074037Y-110550537D01*
X82054302Y-110537351D01*
X82009496Y-110483739D01*
X82000789Y-110414414D01*
X82030943Y-110351386D01*
X82035492Y-110346585D01*
X82121789Y-110260289D01*
X82209394Y-110129179D01*
X82269737Y-109983497D01*
X82300500Y-109828842D01*
X82300500Y-109671158D01*
X82300500Y-109671155D01*
X82300499Y-109671153D01*
X82285041Y-109593440D01*
X82269737Y-109516503D01*
X82214896Y-109384103D01*
X82209397Y-109370827D01*
X82209390Y-109370814D01*
X82121789Y-109239711D01*
X82121786Y-109239707D01*
X82043383Y-109161304D01*
X104099500Y-109161304D01*
X104099500Y-109338695D01*
X104134103Y-109512658D01*
X104134106Y-109512667D01*
X104201983Y-109676540D01*
X104201990Y-109676553D01*
X104300535Y-109824034D01*
X104300538Y-109824038D01*
X104425961Y-109949461D01*
X104425965Y-109949464D01*
X104573446Y-110048009D01*
X104573459Y-110048016D01*
X104696363Y-110098923D01*
X104737334Y-110115894D01*
X104737336Y-110115894D01*
X104737341Y-110115896D01*
X104911304Y-110150499D01*
X104911307Y-110150500D01*
X104911309Y-110150500D01*
X105088693Y-110150500D01*
X105088694Y-110150499D01*
X105146682Y-110138964D01*
X105262658Y-110115896D01*
X105262661Y-110115894D01*
X105262666Y-110115894D01*
X105426547Y-110048013D01*
X105574035Y-109949464D01*
X105699464Y-109824035D01*
X105798013Y-109676547D01*
X105865894Y-109512666D01*
X105900500Y-109338691D01*
X105900500Y-109161309D01*
X105900500Y-109161306D01*
X105900499Y-109161304D01*
X105865896Y-108987341D01*
X105865893Y-108987332D01*
X105862965Y-108980264D01*
X105848923Y-108946363D01*
X105798016Y-108823459D01*
X105798009Y-108823446D01*
X105699464Y-108675965D01*
X105699461Y-108675961D01*
X105574038Y-108550538D01*
X105574034Y-108550535D01*
X105426553Y-108451990D01*
X105426540Y-108451983D01*
X105262667Y-108384106D01*
X105262658Y-108384103D01*
X105088694Y-108349500D01*
X105088691Y-108349500D01*
X104911309Y-108349500D01*
X104911306Y-108349500D01*
X104737341Y-108384103D01*
X104737332Y-108384106D01*
X104573459Y-108451983D01*
X104573446Y-108451990D01*
X104425965Y-108550535D01*
X104425961Y-108550538D01*
X104300538Y-108675961D01*
X104300535Y-108675965D01*
X104201990Y-108823446D01*
X104201983Y-108823459D01*
X104134106Y-108987332D01*
X104134103Y-108987341D01*
X104099500Y-109161304D01*
X82043383Y-109161304D01*
X82010292Y-109128213D01*
X82010288Y-109128210D01*
X81879185Y-109040609D01*
X81879172Y-109040602D01*
X81733501Y-108980264D01*
X81733489Y-108980261D01*
X81578845Y-108949500D01*
X81578842Y-108949500D01*
X81421158Y-108949500D01*
X81421155Y-108949500D01*
X81266510Y-108980261D01*
X81266498Y-108980264D01*
X81120827Y-109040602D01*
X81120814Y-109040609D01*
X80989711Y-109128210D01*
X80989707Y-109128213D01*
X80878213Y-109239707D01*
X80878210Y-109239711D01*
X80790609Y-109370814D01*
X80790602Y-109370827D01*
X80730264Y-109516498D01*
X80730261Y-109516510D01*
X80699500Y-109671153D01*
X80699500Y-109828846D01*
X80730261Y-109983489D01*
X80730264Y-109983501D01*
X80790602Y-110129172D01*
X80790609Y-110129185D01*
X80878210Y-110260288D01*
X80878213Y-110260292D01*
X80964488Y-110346567D01*
X80997973Y-110407890D01*
X80992989Y-110477582D01*
X80951117Y-110533515D01*
X80945699Y-110537349D01*
X80925967Y-110550533D01*
X80925961Y-110550538D01*
X80800538Y-110675961D01*
X80800535Y-110675965D01*
X80701990Y-110823446D01*
X80701983Y-110823459D01*
X80634106Y-110987332D01*
X80634103Y-110987341D01*
X80599500Y-111161304D01*
X39605690Y-111161304D01*
X39563801Y-111041592D01*
X39441945Y-110788555D01*
X39292523Y-110550752D01*
X39117416Y-110331175D01*
X38947545Y-110161304D01*
X66349500Y-110161304D01*
X66349500Y-110338695D01*
X66384103Y-110512658D01*
X66384106Y-110512667D01*
X66451983Y-110676540D01*
X66451990Y-110676553D01*
X66550535Y-110824034D01*
X66550538Y-110824038D01*
X66675961Y-110949461D01*
X66675965Y-110949464D01*
X66823446Y-111048009D01*
X66823459Y-111048016D01*
X66946363Y-111098923D01*
X66987334Y-111115894D01*
X66987336Y-111115894D01*
X66987341Y-111115896D01*
X67161304Y-111150499D01*
X67161307Y-111150500D01*
X67161309Y-111150500D01*
X67338693Y-111150500D01*
X67338694Y-111150499D01*
X67396682Y-111138964D01*
X67512658Y-111115896D01*
X67512661Y-111115894D01*
X67512666Y-111115894D01*
X67676547Y-111048013D01*
X67824035Y-110949464D01*
X67949464Y-110824035D01*
X68048013Y-110676547D01*
X68115894Y-110512666D01*
X68129810Y-110442709D01*
X68148933Y-110346567D01*
X68150500Y-110338691D01*
X68150500Y-110161309D01*
X68150500Y-110161306D01*
X68150499Y-110161304D01*
X68115896Y-109987341D01*
X68115893Y-109987332D01*
X68103526Y-109957476D01*
X68050246Y-109828844D01*
X68048016Y-109823459D01*
X68048009Y-109823446D01*
X67949464Y-109675965D01*
X67949461Y-109675961D01*
X67824038Y-109550538D01*
X67824034Y-109550535D01*
X67676553Y-109451990D01*
X67676540Y-109451983D01*
X67512667Y-109384106D01*
X67512658Y-109384103D01*
X67338694Y-109349500D01*
X67338691Y-109349500D01*
X67161309Y-109349500D01*
X67161306Y-109349500D01*
X66987341Y-109384103D01*
X66987332Y-109384106D01*
X66823459Y-109451983D01*
X66823446Y-109451990D01*
X66675965Y-109550535D01*
X66675961Y-109550538D01*
X66550538Y-109675961D01*
X66550535Y-109675965D01*
X66451990Y-109823446D01*
X66451983Y-109823459D01*
X66384106Y-109987332D01*
X66384103Y-109987341D01*
X66349500Y-110161304D01*
X38947545Y-110161304D01*
X38918825Y-110132584D01*
X38914555Y-110129179D01*
X38736687Y-109987334D01*
X38699248Y-109957477D01*
X38494534Y-109828846D01*
X38461442Y-109808053D01*
X38208411Y-109686200D01*
X37943329Y-109593443D01*
X37943317Y-109593439D01*
X37669512Y-109530945D01*
X37669494Y-109530942D01*
X37390431Y-109499500D01*
X37390425Y-109499500D01*
X37109575Y-109499500D01*
X37109568Y-109499500D01*
X36830505Y-109530942D01*
X36830487Y-109530945D01*
X36556682Y-109593439D01*
X36556670Y-109593443D01*
X36291588Y-109686200D01*
X36038557Y-109808053D01*
X35800753Y-109957476D01*
X35581175Y-110132583D01*
X35382583Y-110331175D01*
X35207476Y-110550753D01*
X35058053Y-110788557D01*
X34936200Y-111041588D01*
X34843443Y-111306670D01*
X34843439Y-111306682D01*
X34780945Y-111580487D01*
X34780942Y-111580505D01*
X34749500Y-111859568D01*
X34250500Y-111859568D01*
X34250500Y-105421153D01*
X75449500Y-105421153D01*
X75449500Y-105578846D01*
X75480261Y-105733489D01*
X75480264Y-105733501D01*
X75540602Y-105879172D01*
X75540609Y-105879185D01*
X75628210Y-106010288D01*
X75628213Y-106010292D01*
X75739707Y-106121786D01*
X75739711Y-106121789D01*
X75870814Y-106209390D01*
X75870827Y-106209397D01*
X76016498Y-106269735D01*
X76016503Y-106269737D01*
X76158635Y-106298009D01*
X76171153Y-106300499D01*
X76171156Y-106300500D01*
X76171158Y-106300500D01*
X76328844Y-106300500D01*
X76328845Y-106300499D01*
X76483497Y-106269737D01*
X76629179Y-106209394D01*
X76760289Y-106121789D01*
X76871789Y-106010289D01*
X76959394Y-105879179D01*
X77019737Y-105733497D01*
X77050500Y-105578842D01*
X77050500Y-105421158D01*
X77048540Y-105411304D01*
X81099500Y-105411304D01*
X81099500Y-105588695D01*
X81134103Y-105762658D01*
X81134106Y-105762667D01*
X81201983Y-105926540D01*
X81201990Y-105926553D01*
X81300535Y-106074034D01*
X81300538Y-106074038D01*
X81425961Y-106199461D01*
X81425965Y-106199464D01*
X81573446Y-106298009D01*
X81573459Y-106298016D01*
X81696363Y-106348923D01*
X81737334Y-106365894D01*
X81737336Y-106365894D01*
X81737341Y-106365896D01*
X81911304Y-106400499D01*
X81911307Y-106400500D01*
X81911309Y-106400500D01*
X82088693Y-106400500D01*
X82088694Y-106400499D01*
X82146682Y-106388964D01*
X82262658Y-106365896D01*
X82262661Y-106365894D01*
X82262666Y-106365894D01*
X82426547Y-106298013D01*
X82574035Y-106199464D01*
X82699464Y-106074035D01*
X82798013Y-105926547D01*
X82865894Y-105762666D01*
X82874440Y-105719697D01*
X82886056Y-105661304D01*
X88099500Y-105661304D01*
X88099500Y-105838695D01*
X88134103Y-106012658D01*
X88134106Y-106012667D01*
X88201983Y-106176540D01*
X88201990Y-106176553D01*
X88300535Y-106324034D01*
X88300538Y-106324038D01*
X88425961Y-106449461D01*
X88425965Y-106449464D01*
X88573446Y-106548009D01*
X88573459Y-106548016D01*
X88696363Y-106598923D01*
X88737334Y-106615894D01*
X88737336Y-106615894D01*
X88737341Y-106615896D01*
X88911304Y-106650499D01*
X88911307Y-106650500D01*
X88911309Y-106650500D01*
X89088693Y-106650500D01*
X89088694Y-106650499D01*
X89146682Y-106638964D01*
X89262658Y-106615896D01*
X89262661Y-106615894D01*
X89262666Y-106615894D01*
X89426547Y-106548013D01*
X89574035Y-106449464D01*
X89699464Y-106324035D01*
X89798013Y-106176547D01*
X89865894Y-106012666D01*
X89866367Y-106010292D01*
X89900499Y-105838695D01*
X89900500Y-105838693D01*
X89900500Y-105661306D01*
X89900499Y-105661304D01*
X89865896Y-105487341D01*
X89865893Y-105487332D01*
X89798016Y-105323459D01*
X89798009Y-105323446D01*
X89699464Y-105175965D01*
X89699461Y-105175961D01*
X89574038Y-105050538D01*
X89574034Y-105050535D01*
X89426553Y-104951990D01*
X89426540Y-104951983D01*
X89262667Y-104884106D01*
X89262658Y-104884103D01*
X89088694Y-104849500D01*
X89088691Y-104849500D01*
X88911309Y-104849500D01*
X88911306Y-104849500D01*
X88737341Y-104884103D01*
X88737332Y-104884106D01*
X88573459Y-104951983D01*
X88573446Y-104951990D01*
X88425965Y-105050535D01*
X88425961Y-105050538D01*
X88300538Y-105175961D01*
X88300535Y-105175965D01*
X88201990Y-105323446D01*
X88201983Y-105323459D01*
X88134106Y-105487332D01*
X88134103Y-105487341D01*
X88099500Y-105661304D01*
X82886056Y-105661304D01*
X82892080Y-105631025D01*
X82892080Y-105631024D01*
X82900499Y-105588695D01*
X82900500Y-105588693D01*
X82900500Y-105411306D01*
X82900499Y-105411304D01*
X82865896Y-105237341D01*
X82865893Y-105237332D01*
X82798016Y-105073459D01*
X82798009Y-105073446D01*
X82699464Y-104925965D01*
X82699461Y-104925961D01*
X82574038Y-104800538D01*
X82574034Y-104800535D01*
X82426553Y-104701990D01*
X82426540Y-104701983D01*
X82262667Y-104634106D01*
X82262658Y-104634103D01*
X82088694Y-104599500D01*
X82088691Y-104599500D01*
X81911309Y-104599500D01*
X81911306Y-104599500D01*
X81737341Y-104634103D01*
X81737332Y-104634106D01*
X81573459Y-104701983D01*
X81573446Y-104701990D01*
X81425965Y-104800535D01*
X81425961Y-104800538D01*
X81300538Y-104925961D01*
X81300535Y-104925965D01*
X81201990Y-105073446D01*
X81201983Y-105073459D01*
X81134106Y-105237332D01*
X81134103Y-105237341D01*
X81099500Y-105411304D01*
X77048540Y-105411304D01*
X77025950Y-105297737D01*
X77029133Y-105262819D01*
X77032218Y-105228350D01*
X77032284Y-105228264D01*
X77032294Y-105228157D01*
X77053873Y-105200472D01*
X77075081Y-105173173D01*
X77075181Y-105173137D01*
X77075249Y-105173051D01*
X77108399Y-105161418D01*
X77140971Y-105149928D01*
X77141136Y-105149931D01*
X77141178Y-105149917D01*
X77141250Y-105149934D01*
X77159771Y-105150348D01*
X77161305Y-105150499D01*
X77161309Y-105150500D01*
X77161313Y-105150500D01*
X77338693Y-105150500D01*
X77338694Y-105150499D01*
X77396682Y-105138964D01*
X77512658Y-105115896D01*
X77512661Y-105115894D01*
X77512666Y-105115894D01*
X77676547Y-105048013D01*
X77824035Y-104949464D01*
X77949464Y-104824035D01*
X78048013Y-104676547D01*
X78115894Y-104512666D01*
X78150500Y-104338691D01*
X78150500Y-104161309D01*
X78150500Y-104161306D01*
X78150499Y-104161304D01*
X78115896Y-103987341D01*
X78115893Y-103987332D01*
X78048016Y-103823459D01*
X78048009Y-103823446D01*
X77949464Y-103675965D01*
X77949461Y-103675961D01*
X77824038Y-103550538D01*
X77824034Y-103550535D01*
X77676553Y-103451990D01*
X77676540Y-103451983D01*
X77512667Y-103384106D01*
X77512658Y-103384103D01*
X77338694Y-103349500D01*
X77338691Y-103349500D01*
X77161309Y-103349500D01*
X77161306Y-103349500D01*
X76987341Y-103384103D01*
X76987332Y-103384106D01*
X76823459Y-103451983D01*
X76823446Y-103451990D01*
X76675965Y-103550535D01*
X76675961Y-103550538D01*
X76550538Y-103675961D01*
X76550535Y-103675965D01*
X76451990Y-103823446D01*
X76451983Y-103823459D01*
X76384106Y-103987332D01*
X76384103Y-103987341D01*
X76349500Y-104161304D01*
X76349500Y-104338695D01*
X76384103Y-104512658D01*
X76384106Y-104512667D01*
X76390478Y-104528050D01*
X76397945Y-104597520D01*
X76366669Y-104659998D01*
X76306579Y-104695649D01*
X76275916Y-104699500D01*
X76171155Y-104699500D01*
X76016510Y-104730261D01*
X76016498Y-104730264D01*
X75870827Y-104790602D01*
X75870814Y-104790609D01*
X75739711Y-104878210D01*
X75739707Y-104878213D01*
X75628213Y-104989707D01*
X75628210Y-104989711D01*
X75540609Y-105120814D01*
X75540602Y-105120827D01*
X75480264Y-105266498D01*
X75480261Y-105266510D01*
X75449500Y-105421153D01*
X34250500Y-105421153D01*
X34250500Y-104411304D01*
X59849500Y-104411304D01*
X59849500Y-104588695D01*
X59884103Y-104762658D01*
X59884106Y-104762667D01*
X59951983Y-104926540D01*
X59951990Y-104926553D01*
X60050535Y-105074034D01*
X60050538Y-105074038D01*
X60175961Y-105199461D01*
X60175965Y-105199464D01*
X60323446Y-105298009D01*
X60323459Y-105298016D01*
X60446363Y-105348923D01*
X60487334Y-105365894D01*
X60487336Y-105365894D01*
X60487341Y-105365896D01*
X60661304Y-105400499D01*
X60661307Y-105400500D01*
X60661309Y-105400500D01*
X60838693Y-105400500D01*
X60838694Y-105400499D01*
X60896682Y-105388964D01*
X61012658Y-105365896D01*
X61012661Y-105365894D01*
X61012666Y-105365894D01*
X61095374Y-105331635D01*
X61170532Y-105300505D01*
X61176540Y-105298016D01*
X61176540Y-105298015D01*
X61176547Y-105298013D01*
X61324035Y-105199464D01*
X61449464Y-105074035D01*
X61548013Y-104926547D01*
X61615894Y-104762666D01*
X61621841Y-104732772D01*
X61650499Y-104588695D01*
X61650500Y-104588693D01*
X61650500Y-104411306D01*
X61650499Y-104411304D01*
X61615896Y-104237341D01*
X61615893Y-104237332D01*
X61548016Y-104073459D01*
X61548009Y-104073446D01*
X61449464Y-103925965D01*
X61449461Y-103925961D01*
X61324038Y-103800538D01*
X61324034Y-103800535D01*
X61176553Y-103701990D01*
X61176540Y-103701983D01*
X61012667Y-103634106D01*
X61012658Y-103634103D01*
X60838694Y-103599500D01*
X60838691Y-103599500D01*
X60661309Y-103599500D01*
X60661306Y-103599500D01*
X60487341Y-103634103D01*
X60487332Y-103634106D01*
X60323459Y-103701983D01*
X60323446Y-103701990D01*
X60175965Y-103800535D01*
X60175961Y-103800538D01*
X60050538Y-103925961D01*
X60050535Y-103925965D01*
X59951990Y-104073446D01*
X59951983Y-104073459D01*
X59884106Y-104237332D01*
X59884103Y-104237341D01*
X59849500Y-104411304D01*
X34250500Y-104411304D01*
X34250500Y-101411304D01*
X44099500Y-101411304D01*
X44099500Y-101588695D01*
X44134103Y-101762658D01*
X44134106Y-101762667D01*
X44201983Y-101926540D01*
X44201990Y-101926553D01*
X44300535Y-102074034D01*
X44300538Y-102074038D01*
X44425961Y-102199461D01*
X44425965Y-102199464D01*
X44573446Y-102298009D01*
X44573459Y-102298016D01*
X44696363Y-102348923D01*
X44737334Y-102365894D01*
X44737336Y-102365894D01*
X44737341Y-102365896D01*
X44911304Y-102400499D01*
X44911307Y-102400500D01*
X44911309Y-102400500D01*
X45088693Y-102400500D01*
X45088694Y-102400499D01*
X45146682Y-102388964D01*
X45262658Y-102365896D01*
X45262661Y-102365894D01*
X45262666Y-102365894D01*
X45426547Y-102298013D01*
X45574035Y-102199464D01*
X45699464Y-102074035D01*
X45798013Y-101926547D01*
X45865894Y-101762666D01*
X45868414Y-101750000D01*
X45900499Y-101588695D01*
X45900500Y-101588693D01*
X45900500Y-101411306D01*
X45900499Y-101411304D01*
X45865896Y-101237341D01*
X45865893Y-101237332D01*
X45798016Y-101073459D01*
X45798009Y-101073446D01*
X45699464Y-100925965D01*
X45699461Y-100925961D01*
X45574038Y-100800538D01*
X45574034Y-100800535D01*
X45426553Y-100701990D01*
X45426540Y-100701983D01*
X45262667Y-100634106D01*
X45262658Y-100634103D01*
X45088694Y-100599500D01*
X45088691Y-100599500D01*
X44911309Y-100599500D01*
X44911306Y-100599500D01*
X44737341Y-100634103D01*
X44737332Y-100634106D01*
X44573459Y-100701983D01*
X44573446Y-100701990D01*
X44425965Y-100800535D01*
X44425961Y-100800538D01*
X44300538Y-100925961D01*
X44300535Y-100925965D01*
X44201990Y-101073446D01*
X44201983Y-101073459D01*
X44134106Y-101237332D01*
X44134103Y-101237341D01*
X44099500Y-101411304D01*
X34250500Y-101411304D01*
X34250500Y-99981379D01*
X36064500Y-99981379D01*
X36064500Y-100168620D01*
X36101025Y-100352243D01*
X36101027Y-100352251D01*
X36172676Y-100525228D01*
X36172681Y-100525237D01*
X36276697Y-100680907D01*
X36276700Y-100680911D01*
X36409088Y-100813299D01*
X36409092Y-100813302D01*
X36564762Y-100917318D01*
X36564768Y-100917321D01*
X36564769Y-100917322D01*
X36737749Y-100988973D01*
X36921379Y-101025499D01*
X36921383Y-101025500D01*
X36921384Y-101025500D01*
X37908617Y-101025500D01*
X37908618Y-101025499D01*
X38092251Y-100988973D01*
X38265231Y-100917322D01*
X38420908Y-100813302D01*
X38553302Y-100680908D01*
X38657322Y-100525231D01*
X38728973Y-100352251D01*
X38765500Y-100168616D01*
X38765500Y-99981384D01*
X38728973Y-99797749D01*
X38657322Y-99624769D01*
X38657321Y-99624768D01*
X38657318Y-99624762D01*
X38553302Y-99469092D01*
X38553299Y-99469088D01*
X38420911Y-99336700D01*
X38420907Y-99336697D01*
X38265237Y-99232681D01*
X38265228Y-99232676D01*
X38092251Y-99161027D01*
X38092243Y-99161025D01*
X37908620Y-99124500D01*
X37908616Y-99124500D01*
X36921384Y-99124500D01*
X36921379Y-99124500D01*
X36737756Y-99161025D01*
X36737748Y-99161027D01*
X36564771Y-99232676D01*
X36564762Y-99232681D01*
X36409092Y-99336697D01*
X36409088Y-99336700D01*
X36276700Y-99469088D01*
X36276697Y-99469092D01*
X36172681Y-99624762D01*
X36172676Y-99624771D01*
X36101027Y-99797748D01*
X36101025Y-99797756D01*
X36064500Y-99981379D01*
X34250500Y-99981379D01*
X34250500Y-91331379D01*
X36064500Y-91331379D01*
X36064500Y-91518620D01*
X36101025Y-91702243D01*
X36101027Y-91702251D01*
X36172676Y-91875228D01*
X36172681Y-91875237D01*
X36276697Y-92030907D01*
X36276700Y-92030911D01*
X36409088Y-92163299D01*
X36409092Y-92163302D01*
X36564762Y-92267318D01*
X36564771Y-92267323D01*
X36603956Y-92283554D01*
X36737749Y-92338973D01*
X36904477Y-92372137D01*
X36921379Y-92375499D01*
X36921383Y-92375500D01*
X36921384Y-92375500D01*
X37908617Y-92375500D01*
X37908618Y-92375499D01*
X38092251Y-92338973D01*
X38265231Y-92267322D01*
X38420908Y-92163302D01*
X38553302Y-92030908D01*
X38657322Y-91875231D01*
X38728973Y-91702251D01*
X38765500Y-91518616D01*
X38765500Y-91331384D01*
X38765499Y-91331379D01*
X39094500Y-91331379D01*
X39094500Y-91518620D01*
X39131025Y-91702243D01*
X39131027Y-91702251D01*
X39202676Y-91875228D01*
X39202681Y-91875237D01*
X39306697Y-92030907D01*
X39306700Y-92030911D01*
X39439088Y-92163299D01*
X39439092Y-92163302D01*
X39599834Y-92270707D01*
X39599025Y-92271916D01*
X39643694Y-92315789D01*
X39659159Y-92383926D01*
X39649961Y-92423643D01*
X39607185Y-92526913D01*
X39607182Y-92526925D01*
X39574500Y-92691228D01*
X39574500Y-92858771D01*
X39607182Y-93023074D01*
X39607185Y-93023086D01*
X39660810Y-93152548D01*
X39668279Y-93222017D01*
X39660810Y-93247452D01*
X39607185Y-93376913D01*
X39607182Y-93376925D01*
X39574500Y-93541228D01*
X39574500Y-93708771D01*
X39607182Y-93873074D01*
X39607185Y-93873086D01*
X39660810Y-94002548D01*
X39668279Y-94072017D01*
X39660810Y-94097452D01*
X39607185Y-94226913D01*
X39607182Y-94226925D01*
X39574500Y-94391228D01*
X39574500Y-94558771D01*
X39607182Y-94723074D01*
X39607185Y-94723086D01*
X39660810Y-94852548D01*
X39668279Y-94922017D01*
X39660810Y-94947452D01*
X39607185Y-95076913D01*
X39607182Y-95076925D01*
X39574500Y-95241228D01*
X39574500Y-95408771D01*
X39607182Y-95573074D01*
X39607185Y-95573086D01*
X39660810Y-95702548D01*
X39668279Y-95772017D01*
X39660810Y-95797452D01*
X39607185Y-95926913D01*
X39607182Y-95926925D01*
X39574500Y-96091228D01*
X39574500Y-96258771D01*
X39607182Y-96423074D01*
X39607185Y-96423086D01*
X39660810Y-96552548D01*
X39668279Y-96622017D01*
X39660810Y-96647452D01*
X39607185Y-96776913D01*
X39607182Y-96776925D01*
X39574500Y-96941228D01*
X39574500Y-97108771D01*
X39607182Y-97273074D01*
X39607185Y-97273086D01*
X39660810Y-97402548D01*
X39668279Y-97472017D01*
X39660810Y-97497452D01*
X39607185Y-97626913D01*
X39607182Y-97626925D01*
X39574500Y-97791228D01*
X39574500Y-97958771D01*
X39607182Y-98123074D01*
X39607185Y-98123086D01*
X39660810Y-98252548D01*
X39668279Y-98322017D01*
X39660810Y-98347452D01*
X39607185Y-98476913D01*
X39607182Y-98476925D01*
X39574500Y-98641228D01*
X39574500Y-98808771D01*
X39607182Y-98973074D01*
X39607184Y-98973082D01*
X39649961Y-99076355D01*
X39657430Y-99145825D01*
X39626155Y-99208304D01*
X39599512Y-99228812D01*
X39599834Y-99229293D01*
X39439092Y-99336697D01*
X39439088Y-99336700D01*
X39306700Y-99469088D01*
X39306697Y-99469092D01*
X39202681Y-99624762D01*
X39202676Y-99624771D01*
X39131027Y-99797748D01*
X39131025Y-99797756D01*
X39094500Y-99981379D01*
X39094500Y-100168620D01*
X39131025Y-100352243D01*
X39131027Y-100352251D01*
X39202676Y-100525228D01*
X39202681Y-100525237D01*
X39306697Y-100680907D01*
X39306700Y-100680911D01*
X39439088Y-100813299D01*
X39439092Y-100813302D01*
X39594762Y-100917318D01*
X39594768Y-100917321D01*
X39594769Y-100917322D01*
X39767749Y-100988973D01*
X39951379Y-101025499D01*
X39951383Y-101025500D01*
X39951384Y-101025500D01*
X41638617Y-101025500D01*
X41638618Y-101025499D01*
X41822251Y-100988973D01*
X41995231Y-100917322D01*
X42150908Y-100813302D01*
X42283302Y-100680908D01*
X42387322Y-100525231D01*
X42458973Y-100352251D01*
X42495500Y-100168616D01*
X42495500Y-99981384D01*
X42458973Y-99797749D01*
X42387322Y-99624769D01*
X42387321Y-99624767D01*
X42387315Y-99624757D01*
X42351704Y-99571461D01*
X42351701Y-99571458D01*
X42319970Y-99523970D01*
X42315174Y-99508653D01*
X47699500Y-99508653D01*
X47699500Y-99666346D01*
X47730261Y-99820989D01*
X47730264Y-99821001D01*
X47790602Y-99966672D01*
X47790609Y-99966685D01*
X47878210Y-100097788D01*
X47878213Y-100097792D01*
X47989707Y-100209286D01*
X47989711Y-100209289D01*
X48120814Y-100296890D01*
X48120827Y-100296897D01*
X48266498Y-100357235D01*
X48266503Y-100357237D01*
X48379854Y-100379784D01*
X48421153Y-100387999D01*
X48421156Y-100388000D01*
X48421158Y-100388000D01*
X48578844Y-100388000D01*
X48578845Y-100387999D01*
X48733497Y-100357237D01*
X48876470Y-100298016D01*
X48879172Y-100296897D01*
X48879172Y-100296896D01*
X48879179Y-100296894D01*
X49010289Y-100209289D01*
X49121789Y-100097789D01*
X49209394Y-99966679D01*
X49269737Y-99820997D01*
X49300500Y-99666342D01*
X49300500Y-99508658D01*
X49300500Y-99508655D01*
X49300499Y-99508653D01*
X55862000Y-99508653D01*
X55862000Y-99666346D01*
X55892761Y-99820989D01*
X55892764Y-99821001D01*
X55953102Y-99966672D01*
X55953109Y-99966685D01*
X56040710Y-100097788D01*
X56040713Y-100097792D01*
X56152207Y-100209286D01*
X56152211Y-100209289D01*
X56283314Y-100296890D01*
X56283327Y-100296897D01*
X56428998Y-100357235D01*
X56429003Y-100357237D01*
X56542354Y-100379784D01*
X56583653Y-100387999D01*
X56583656Y-100388000D01*
X56583658Y-100388000D01*
X56741344Y-100388000D01*
X56741345Y-100387999D01*
X56895997Y-100357237D01*
X57038970Y-100298016D01*
X57041672Y-100296897D01*
X57041672Y-100296896D01*
X57041679Y-100296894D01*
X57172789Y-100209289D01*
X57284289Y-100097789D01*
X57371894Y-99966679D01*
X57432237Y-99820997D01*
X57463000Y-99666342D01*
X57463000Y-99508658D01*
X57463000Y-99508655D01*
X57443979Y-99413033D01*
X57443979Y-99413032D01*
X57440136Y-99393713D01*
X63217000Y-99393713D01*
X63217000Y-99606286D01*
X63247324Y-99797749D01*
X63250254Y-99816243D01*
X63303911Y-99981383D01*
X63315944Y-100018414D01*
X63412451Y-100207820D01*
X63537390Y-100379786D01*
X63676205Y-100518601D01*
X63709690Y-100579924D01*
X63704706Y-100649616D01*
X63662834Y-100705549D01*
X63653621Y-100711821D01*
X63498842Y-100807289D01*
X63374789Y-100931342D01*
X63282687Y-101080663D01*
X63282685Y-101080668D01*
X63254849Y-101164670D01*
X63227501Y-101247203D01*
X63227501Y-101247204D01*
X63227500Y-101247204D01*
X63217000Y-101349983D01*
X63217000Y-102650001D01*
X63217001Y-102650018D01*
X63227500Y-102752796D01*
X63227501Y-102752799D01*
X63269581Y-102879786D01*
X63282686Y-102919334D01*
X63374788Y-103068656D01*
X63498844Y-103192712D01*
X63648166Y-103284814D01*
X63814703Y-103339999D01*
X63917491Y-103350500D01*
X65517508Y-103350499D01*
X65620297Y-103339999D01*
X65786834Y-103284814D01*
X65936156Y-103192712D01*
X66060212Y-103068656D01*
X66152314Y-102919334D01*
X66207499Y-102752797D01*
X66218000Y-102650009D01*
X66217999Y-101349992D01*
X66207499Y-101247203D01*
X66204228Y-101237332D01*
X66189943Y-101194221D01*
X66179035Y-101161304D01*
X78099500Y-101161304D01*
X78099500Y-101338695D01*
X78134103Y-101512658D01*
X78134106Y-101512667D01*
X78201983Y-101676540D01*
X78201990Y-101676553D01*
X78300535Y-101824034D01*
X78300538Y-101824038D01*
X78425961Y-101949461D01*
X78425965Y-101949464D01*
X78573446Y-102048009D01*
X78573459Y-102048016D01*
X78660520Y-102084077D01*
X78737334Y-102115894D01*
X78737336Y-102115894D01*
X78737341Y-102115896D01*
X78911304Y-102150499D01*
X78911307Y-102150500D01*
X78911309Y-102150500D01*
X79088693Y-102150500D01*
X79088694Y-102150499D01*
X79146682Y-102138964D01*
X79262658Y-102115896D01*
X79262661Y-102115894D01*
X79262666Y-102115894D01*
X79339480Y-102084077D01*
X79426541Y-102048016D01*
X79426544Y-102048014D01*
X79426547Y-102048013D01*
X79574035Y-101949464D01*
X79699464Y-101824035D01*
X79798013Y-101676547D01*
X79865894Y-101512666D01*
X79868414Y-101500000D01*
X79898254Y-101349981D01*
X79900500Y-101338691D01*
X79900500Y-101161309D01*
X79900500Y-101161306D01*
X79900499Y-101161304D01*
X79892889Y-101123042D01*
X79888734Y-101102155D01*
X100340000Y-101102155D01*
X100340000Y-101750000D01*
X101256988Y-101750000D01*
X101224075Y-101807007D01*
X101190000Y-101934174D01*
X101190000Y-102065826D01*
X101224075Y-102192993D01*
X101256988Y-102250000D01*
X100340000Y-102250000D01*
X100340000Y-102897844D01*
X100346401Y-102957372D01*
X100346403Y-102957379D01*
X100396645Y-103092086D01*
X100396649Y-103092093D01*
X100482809Y-103207187D01*
X100482812Y-103207190D01*
X100597906Y-103293350D01*
X100597913Y-103293354D01*
X100732620Y-103343596D01*
X100732627Y-103343598D01*
X100792155Y-103349999D01*
X100792172Y-103350000D01*
X101440000Y-103350000D01*
X101440000Y-102433012D01*
X101497007Y-102465925D01*
X101624174Y-102500000D01*
X101755826Y-102500000D01*
X101882993Y-102465925D01*
X101940000Y-102433012D01*
X101940000Y-103350000D01*
X102587828Y-103350000D01*
X102587844Y-103349999D01*
X102647372Y-103343598D01*
X102647379Y-103343596D01*
X102782086Y-103293354D01*
X102782093Y-103293350D01*
X102897187Y-103207190D01*
X102897190Y-103207187D01*
X102983350Y-103092093D01*
X102983354Y-103092086D01*
X103032422Y-102960529D01*
X103074293Y-102904595D01*
X103139757Y-102880178D01*
X103208030Y-102895030D01*
X103236285Y-102916181D01*
X103350213Y-103030109D01*
X103522179Y-103155048D01*
X103522181Y-103155049D01*
X103522184Y-103155051D01*
X103711588Y-103251557D01*
X103913757Y-103317246D01*
X104123713Y-103350500D01*
X104123714Y-103350500D01*
X104336286Y-103350500D01*
X104336287Y-103350500D01*
X104546243Y-103317246D01*
X104748412Y-103251557D01*
X104937816Y-103155051D01*
X105024471Y-103092093D01*
X105109786Y-103030109D01*
X105109788Y-103030106D01*
X105109792Y-103030104D01*
X105260104Y-102879792D01*
X105260106Y-102879788D01*
X105260109Y-102879786D01*
X105385048Y-102707820D01*
X105385047Y-102707820D01*
X105385051Y-102707816D01*
X105389514Y-102699054D01*
X105437488Y-102648259D01*
X105505308Y-102631463D01*
X105571444Y-102653999D01*
X105610486Y-102699056D01*
X105614951Y-102707820D01*
X105739890Y-102879786D01*
X105890213Y-103030109D01*
X106062179Y-103155048D01*
X106062181Y-103155049D01*
X106062184Y-103155051D01*
X106251588Y-103251557D01*
X106453757Y-103317246D01*
X106663713Y-103350500D01*
X106663714Y-103350500D01*
X106876286Y-103350500D01*
X106876287Y-103350500D01*
X107086243Y-103317246D01*
X107288412Y-103251557D01*
X107477816Y-103155051D01*
X107564471Y-103092093D01*
X107649786Y-103030109D01*
X107649788Y-103030106D01*
X107649792Y-103030104D01*
X107800104Y-102879792D01*
X107800106Y-102879788D01*
X107800109Y-102879786D01*
X107925048Y-102707820D01*
X107925047Y-102707820D01*
X107925051Y-102707816D01*
X107929514Y-102699054D01*
X107977488Y-102648259D01*
X108045308Y-102631463D01*
X108111444Y-102653999D01*
X108150486Y-102699056D01*
X108154951Y-102707820D01*
X108279890Y-102879786D01*
X108430213Y-103030109D01*
X108602179Y-103155048D01*
X108602181Y-103155049D01*
X108602184Y-103155051D01*
X108791588Y-103251557D01*
X108993757Y-103317246D01*
X109203713Y-103350500D01*
X109203714Y-103350500D01*
X109416286Y-103350500D01*
X109416287Y-103350500D01*
X109626243Y-103317246D01*
X109828412Y-103251557D01*
X110017816Y-103155051D01*
X110104471Y-103092093D01*
X110189786Y-103030109D01*
X110189788Y-103030106D01*
X110189792Y-103030104D01*
X110340104Y-102879792D01*
X110340106Y-102879788D01*
X110340109Y-102879786D01*
X110465048Y-102707820D01*
X110465047Y-102707820D01*
X110465051Y-102707816D01*
X110561557Y-102518412D01*
X110627246Y-102316243D01*
X110660500Y-102106287D01*
X110660500Y-101893713D01*
X110627246Y-101683757D01*
X110561557Y-101481588D01*
X110465051Y-101292184D01*
X110465049Y-101292181D01*
X110465048Y-101292179D01*
X110340109Y-101120213D01*
X110189786Y-100969890D01*
X110017820Y-100844951D01*
X109828414Y-100748444D01*
X109828413Y-100748443D01*
X109828412Y-100748443D01*
X109626243Y-100682754D01*
X109626241Y-100682753D01*
X109626240Y-100682753D01*
X109464957Y-100657208D01*
X109416287Y-100649500D01*
X109203713Y-100649500D01*
X109155042Y-100657208D01*
X108993760Y-100682753D01*
X108791585Y-100748444D01*
X108602179Y-100844951D01*
X108430213Y-100969890D01*
X108279890Y-101120213D01*
X108154949Y-101292182D01*
X108150484Y-101300946D01*
X108102509Y-101351742D01*
X108034688Y-101368536D01*
X107968553Y-101345998D01*
X107929516Y-101300946D01*
X107925050Y-101292182D01*
X107800109Y-101120213D01*
X107649786Y-100969890D01*
X107477820Y-100844951D01*
X107288414Y-100748444D01*
X107288413Y-100748443D01*
X107288412Y-100748443D01*
X107086243Y-100682754D01*
X107086241Y-100682753D01*
X107086240Y-100682753D01*
X106924957Y-100657208D01*
X106876287Y-100649500D01*
X106663713Y-100649500D01*
X106615042Y-100657208D01*
X106453760Y-100682753D01*
X106251585Y-100748444D01*
X106062179Y-100844951D01*
X105890213Y-100969890D01*
X105739890Y-101120213D01*
X105614949Y-101292182D01*
X105610484Y-101300946D01*
X105562509Y-101351742D01*
X105494688Y-101368536D01*
X105428553Y-101345998D01*
X105389516Y-101300946D01*
X105385050Y-101292182D01*
X105260109Y-101120213D01*
X105109786Y-100969890D01*
X104937820Y-100844951D01*
X104748414Y-100748444D01*
X104748413Y-100748443D01*
X104748412Y-100748443D01*
X104546243Y-100682754D01*
X104546241Y-100682753D01*
X104546240Y-100682753D01*
X104384957Y-100657208D01*
X104336287Y-100649500D01*
X104123713Y-100649500D01*
X104075042Y-100657208D01*
X103913760Y-100682753D01*
X103711585Y-100748444D01*
X103522179Y-100844951D01*
X103350215Y-100969889D01*
X103236285Y-101083819D01*
X103174962Y-101117303D01*
X103105270Y-101112319D01*
X103049337Y-101070447D01*
X103032422Y-101039470D01*
X102983354Y-100907913D01*
X102983350Y-100907906D01*
X102897190Y-100792812D01*
X102897187Y-100792809D01*
X102782093Y-100706649D01*
X102782086Y-100706645D01*
X102647379Y-100656403D01*
X102647372Y-100656401D01*
X102587844Y-100650000D01*
X101940000Y-100650000D01*
X101940000Y-101566988D01*
X101882993Y-101534075D01*
X101755826Y-101500000D01*
X101624174Y-101500000D01*
X101497007Y-101534075D01*
X101440000Y-101566988D01*
X101440000Y-100650000D01*
X100792155Y-100650000D01*
X100732627Y-100656401D01*
X100732620Y-100656403D01*
X100597913Y-100706645D01*
X100597906Y-100706649D01*
X100482812Y-100792809D01*
X100482809Y-100792812D01*
X100396649Y-100907906D01*
X100396645Y-100907913D01*
X100346403Y-101042620D01*
X100346401Y-101042627D01*
X100340000Y-101102155D01*
X79888734Y-101102155D01*
X79865895Y-100987340D01*
X79865894Y-100987334D01*
X79836895Y-100917323D01*
X79798016Y-100823459D01*
X79798009Y-100823446D01*
X79699464Y-100675965D01*
X79699461Y-100675961D01*
X79574038Y-100550538D01*
X79574034Y-100550535D01*
X79426553Y-100451990D01*
X79426540Y-100451983D01*
X79262667Y-100384106D01*
X79262658Y-100384103D01*
X79088694Y-100349500D01*
X79088691Y-100349500D01*
X78911309Y-100349500D01*
X78911306Y-100349500D01*
X78737341Y-100384103D01*
X78737332Y-100384106D01*
X78573459Y-100451983D01*
X78573446Y-100451990D01*
X78425965Y-100550535D01*
X78425961Y-100550538D01*
X78300538Y-100675961D01*
X78300535Y-100675965D01*
X78201990Y-100823446D01*
X78201983Y-100823459D01*
X78134106Y-100987332D01*
X78134103Y-100987341D01*
X78099500Y-101161304D01*
X66179035Y-101161304D01*
X66166356Y-101123042D01*
X66152314Y-101080666D01*
X66060212Y-100931344D01*
X65936156Y-100807288D01*
X65786834Y-100715186D01*
X65786833Y-100715185D01*
X65781378Y-100711821D01*
X65734654Y-100659873D01*
X65723431Y-100590910D01*
X65751275Y-100526828D01*
X65758772Y-100518623D01*
X65897604Y-100379792D01*
X65907702Y-100365894D01*
X66022548Y-100207820D01*
X66022547Y-100207820D01*
X66022551Y-100207816D01*
X66119057Y-100018412D01*
X66184746Y-99816243D01*
X66218000Y-99606287D01*
X66218000Y-99411304D01*
X69849500Y-99411304D01*
X69849500Y-99588695D01*
X69884103Y-99762658D01*
X69884106Y-99762667D01*
X69951983Y-99926540D01*
X69951990Y-99926553D01*
X70050535Y-100074034D01*
X70050538Y-100074038D01*
X70175961Y-100199461D01*
X70175965Y-100199464D01*
X70323446Y-100298009D01*
X70323459Y-100298016D01*
X70446363Y-100348923D01*
X70487334Y-100365894D01*
X70487336Y-100365894D01*
X70487341Y-100365896D01*
X70661304Y-100400499D01*
X70661307Y-100400500D01*
X70661309Y-100400500D01*
X70838693Y-100400500D01*
X70838694Y-100400499D01*
X70921124Y-100384103D01*
X71012658Y-100365896D01*
X71012661Y-100365894D01*
X71012666Y-100365894D01*
X71176547Y-100298013D01*
X71324035Y-100199464D01*
X71449464Y-100074035D01*
X71548013Y-99926547D01*
X71615894Y-99762666D01*
X71620932Y-99737341D01*
X71650499Y-99588695D01*
X71650500Y-99588693D01*
X71650500Y-99411313D01*
X71650499Y-99411304D01*
X82099500Y-99411304D01*
X82099500Y-99588695D01*
X82134103Y-99762658D01*
X82134106Y-99762667D01*
X82201983Y-99926540D01*
X82201990Y-99926553D01*
X82300535Y-100074034D01*
X82300538Y-100074038D01*
X82425961Y-100199461D01*
X82425965Y-100199464D01*
X82573446Y-100298009D01*
X82573459Y-100298016D01*
X82696363Y-100348923D01*
X82737334Y-100365894D01*
X82737336Y-100365894D01*
X82737341Y-100365896D01*
X82911304Y-100400499D01*
X82911307Y-100400500D01*
X82911309Y-100400500D01*
X83088693Y-100400500D01*
X83088694Y-100400499D01*
X83171124Y-100384103D01*
X83262658Y-100365896D01*
X83262661Y-100365894D01*
X83262666Y-100365894D01*
X83426547Y-100298013D01*
X83574035Y-100199464D01*
X83699464Y-100074035D01*
X83798013Y-99926547D01*
X83804327Y-99911304D01*
X88099500Y-99911304D01*
X88099500Y-100088695D01*
X88134103Y-100262658D01*
X88134106Y-100262667D01*
X88201983Y-100426540D01*
X88201990Y-100426553D01*
X88300535Y-100574034D01*
X88300538Y-100574038D01*
X88425961Y-100699461D01*
X88425965Y-100699464D01*
X88573446Y-100798009D01*
X88573459Y-100798016D01*
X88696363Y-100848923D01*
X88737334Y-100865894D01*
X88737336Y-100865894D01*
X88737341Y-100865896D01*
X88911304Y-100900499D01*
X88911307Y-100900500D01*
X88911309Y-100900500D01*
X89088693Y-100900500D01*
X89088694Y-100900499D01*
X89146682Y-100888964D01*
X89262658Y-100865896D01*
X89262661Y-100865894D01*
X89262666Y-100865894D01*
X89426547Y-100798013D01*
X89574035Y-100699464D01*
X89699464Y-100574035D01*
X89798013Y-100426547D01*
X89865894Y-100262666D01*
X89876512Y-100209289D01*
X89900499Y-100088695D01*
X89900500Y-100088693D01*
X89900500Y-99911306D01*
X89900499Y-99911304D01*
X89865896Y-99737341D01*
X89865893Y-99737332D01*
X89798016Y-99573459D01*
X89798009Y-99573446D01*
X89699464Y-99425965D01*
X89699461Y-99425961D01*
X89574038Y-99300538D01*
X89574034Y-99300535D01*
X89426553Y-99201990D01*
X89426540Y-99201983D01*
X89262667Y-99134106D01*
X89262658Y-99134103D01*
X89088694Y-99099500D01*
X89088691Y-99099500D01*
X88911309Y-99099500D01*
X88911306Y-99099500D01*
X88737341Y-99134103D01*
X88737332Y-99134106D01*
X88573459Y-99201983D01*
X88573446Y-99201990D01*
X88425965Y-99300535D01*
X88425961Y-99300538D01*
X88300538Y-99425961D01*
X88300535Y-99425965D01*
X88201990Y-99573446D01*
X88201983Y-99573459D01*
X88134106Y-99737332D01*
X88134103Y-99737341D01*
X88099500Y-99911304D01*
X83804327Y-99911304D01*
X83865894Y-99762666D01*
X83870932Y-99737341D01*
X83900499Y-99588695D01*
X83900500Y-99588693D01*
X83900500Y-99411306D01*
X83900499Y-99411304D01*
X83865896Y-99237341D01*
X83865893Y-99237332D01*
X83863964Y-99232676D01*
X83819157Y-99124500D01*
X83798016Y-99073459D01*
X83798009Y-99073446D01*
X83699464Y-98925965D01*
X83699461Y-98925961D01*
X83574038Y-98800538D01*
X83574034Y-98800535D01*
X83426553Y-98701990D01*
X83426540Y-98701983D01*
X83262667Y-98634106D01*
X83262658Y-98634103D01*
X83088694Y-98599500D01*
X83088691Y-98599500D01*
X82911309Y-98599500D01*
X82911306Y-98599500D01*
X82737341Y-98634103D01*
X82737332Y-98634106D01*
X82573459Y-98701983D01*
X82573446Y-98701990D01*
X82425965Y-98800535D01*
X82425961Y-98800538D01*
X82300538Y-98925961D01*
X82300535Y-98925965D01*
X82201990Y-99073446D01*
X82201983Y-99073459D01*
X82134106Y-99237332D01*
X82134103Y-99237341D01*
X82099500Y-99411304D01*
X71650499Y-99411304D01*
X71650348Y-99409771D01*
X71650500Y-99408969D01*
X71650500Y-99405217D01*
X71651211Y-99405217D01*
X71663362Y-99341124D01*
X71711423Y-99290410D01*
X71779272Y-99273731D01*
X71797941Y-99275991D01*
X71921153Y-99300499D01*
X71921156Y-99300500D01*
X71921158Y-99300500D01*
X72078844Y-99300500D01*
X72163805Y-99283600D01*
X72163805Y-99283599D01*
X72233497Y-99269737D01*
X72379179Y-99209394D01*
X72510289Y-99121789D01*
X72621789Y-99010289D01*
X72709394Y-98879179D01*
X72709839Y-98878106D01*
X72745430Y-98792179D01*
X72769737Y-98733497D01*
X72800500Y-98578842D01*
X72800500Y-98421158D01*
X72800500Y-98421155D01*
X72800499Y-98421153D01*
X72796391Y-98400499D01*
X72769737Y-98266503D01*
X72741968Y-98199461D01*
X72709397Y-98120827D01*
X72709390Y-98120814D01*
X72621789Y-97989711D01*
X72621786Y-97989707D01*
X72510292Y-97878213D01*
X72510288Y-97878210D01*
X72379185Y-97790609D01*
X72379172Y-97790602D01*
X72233501Y-97730264D01*
X72233489Y-97730261D01*
X72078845Y-97699500D01*
X72078842Y-97699500D01*
X71921158Y-97699500D01*
X71921155Y-97699500D01*
X71766510Y-97730261D01*
X71766498Y-97730264D01*
X71620827Y-97790602D01*
X71620814Y-97790609D01*
X71489711Y-97878210D01*
X71489707Y-97878213D01*
X71378213Y-97989707D01*
X71378210Y-97989711D01*
X71290609Y-98120814D01*
X71290602Y-98120827D01*
X71230264Y-98266498D01*
X71230261Y-98266510D01*
X71199500Y-98421153D01*
X71199500Y-98525916D01*
X71179815Y-98592955D01*
X71127011Y-98638710D01*
X71057853Y-98648654D01*
X71028050Y-98640478D01*
X71012667Y-98634106D01*
X71012658Y-98634103D01*
X70838694Y-98599500D01*
X70838691Y-98599500D01*
X70661309Y-98599500D01*
X70661306Y-98599500D01*
X70487341Y-98634103D01*
X70487332Y-98634106D01*
X70323459Y-98701983D01*
X70323446Y-98701990D01*
X70175965Y-98800535D01*
X70175961Y-98800538D01*
X70050538Y-98925961D01*
X70050535Y-98925965D01*
X69951990Y-99073446D01*
X69951983Y-99073459D01*
X69884106Y-99237332D01*
X69884103Y-99237341D01*
X69849500Y-99411304D01*
X66218000Y-99411304D01*
X66218000Y-99393713D01*
X66184746Y-99183757D01*
X66119057Y-98981588D01*
X66022551Y-98792184D01*
X66022549Y-98792181D01*
X66022548Y-98792179D01*
X65897609Y-98620213D01*
X65747286Y-98469890D01*
X65575320Y-98344951D01*
X65385914Y-98248444D01*
X65385913Y-98248443D01*
X65385912Y-98248443D01*
X65183743Y-98182754D01*
X65183741Y-98182753D01*
X65183740Y-98182753D01*
X65022457Y-98157208D01*
X64973787Y-98149500D01*
X64461213Y-98149500D01*
X64412542Y-98157208D01*
X64251260Y-98182753D01*
X64049085Y-98248444D01*
X63859679Y-98344951D01*
X63687713Y-98469890D01*
X63537390Y-98620213D01*
X63412451Y-98792179D01*
X63315944Y-98981585D01*
X63250253Y-99183760D01*
X63217000Y-99393713D01*
X57440136Y-99393713D01*
X57432238Y-99354010D01*
X57432237Y-99354003D01*
X57410091Y-99300538D01*
X57371897Y-99208327D01*
X57371890Y-99208314D01*
X57284289Y-99077211D01*
X57284286Y-99077207D01*
X57172792Y-98965713D01*
X57172788Y-98965710D01*
X57041685Y-98878109D01*
X57041672Y-98878102D01*
X56896001Y-98817764D01*
X56895989Y-98817761D01*
X56741345Y-98787000D01*
X56741342Y-98787000D01*
X56583658Y-98787000D01*
X56583655Y-98787000D01*
X56429010Y-98817761D01*
X56428998Y-98817764D01*
X56283327Y-98878102D01*
X56283314Y-98878109D01*
X56152211Y-98965710D01*
X56152207Y-98965713D01*
X56040713Y-99077207D01*
X56040710Y-99077211D01*
X55953109Y-99208314D01*
X55953102Y-99208327D01*
X55892764Y-99353998D01*
X55892761Y-99354010D01*
X55862000Y-99508653D01*
X49300499Y-99508653D01*
X49292629Y-99469088D01*
X49269737Y-99354003D01*
X49247591Y-99300538D01*
X49209397Y-99208327D01*
X49209390Y-99208314D01*
X49121789Y-99077211D01*
X49121786Y-99077207D01*
X49010292Y-98965713D01*
X49010288Y-98965710D01*
X48879185Y-98878109D01*
X48879172Y-98878102D01*
X48733501Y-98817764D01*
X48733489Y-98817761D01*
X48578845Y-98787000D01*
X48578842Y-98787000D01*
X48421158Y-98787000D01*
X48421155Y-98787000D01*
X48266510Y-98817761D01*
X48266498Y-98817764D01*
X48120827Y-98878102D01*
X48120814Y-98878109D01*
X47989711Y-98965710D01*
X47989707Y-98965713D01*
X47878213Y-99077207D01*
X47878210Y-99077211D01*
X47790609Y-99208314D01*
X47790602Y-99208327D01*
X47730264Y-99353998D01*
X47730261Y-99354010D01*
X47699500Y-99508653D01*
X42315174Y-99508653D01*
X42299092Y-99457292D01*
X42317576Y-99389912D01*
X42335387Y-99367400D01*
X42435626Y-99267162D01*
X42528703Y-99127863D01*
X42592816Y-98973082D01*
X42625500Y-98808767D01*
X42625500Y-98641233D01*
X42592816Y-98476918D01*
X42539188Y-98347451D01*
X42531720Y-98277984D01*
X42539189Y-98252547D01*
X42561178Y-98199461D01*
X42592816Y-98123082D01*
X42625500Y-97958767D01*
X42625500Y-97791233D01*
X42592816Y-97626918D01*
X42539188Y-97497451D01*
X42531720Y-97427984D01*
X42536618Y-97411304D01*
X105849500Y-97411304D01*
X105849500Y-97588695D01*
X105884103Y-97762658D01*
X105884106Y-97762667D01*
X105951983Y-97926540D01*
X105951990Y-97926553D01*
X106050535Y-98074034D01*
X106050538Y-98074038D01*
X106175961Y-98199461D01*
X106175965Y-98199464D01*
X106323446Y-98298009D01*
X106323459Y-98298016D01*
X106442811Y-98347452D01*
X106487334Y-98365894D01*
X106487336Y-98365894D01*
X106487341Y-98365896D01*
X106661304Y-98400499D01*
X106661307Y-98400500D01*
X106661309Y-98400500D01*
X106838693Y-98400500D01*
X106838694Y-98400499D01*
X106896682Y-98388964D01*
X107012658Y-98365896D01*
X107012661Y-98365894D01*
X107012666Y-98365894D01*
X107176547Y-98298013D01*
X107324035Y-98199464D01*
X107449464Y-98074035D01*
X107521898Y-97965631D01*
X107575510Y-97920826D01*
X107644835Y-97912119D01*
X107707863Y-97942274D01*
X107728102Y-97965631D01*
X107800535Y-98074034D01*
X107800538Y-98074038D01*
X107925961Y-98199461D01*
X107925965Y-98199464D01*
X108073446Y-98298009D01*
X108073459Y-98298016D01*
X108192811Y-98347452D01*
X108237334Y-98365894D01*
X108237336Y-98365894D01*
X108237341Y-98365896D01*
X108411304Y-98400499D01*
X108411307Y-98400500D01*
X108411309Y-98400500D01*
X108588693Y-98400500D01*
X108588694Y-98400499D01*
X108646682Y-98388964D01*
X108762658Y-98365896D01*
X108762661Y-98365894D01*
X108762666Y-98365894D01*
X108926547Y-98298013D01*
X109074035Y-98199464D01*
X109199464Y-98074035D01*
X109258029Y-97986387D01*
X109311641Y-97941581D01*
X109380966Y-97932874D01*
X109430022Y-97952175D01*
X109573453Y-98048013D01*
X109573455Y-98048014D01*
X109573459Y-98048016D01*
X109696363Y-98098923D01*
X109737334Y-98115894D01*
X109737336Y-98115894D01*
X109737341Y-98115896D01*
X109911304Y-98150499D01*
X109911307Y-98150500D01*
X109911309Y-98150500D01*
X110088693Y-98150500D01*
X110088694Y-98150499D01*
X110146682Y-98138964D01*
X110262658Y-98115896D01*
X110262661Y-98115894D01*
X110262666Y-98115894D01*
X110426547Y-98048013D01*
X110574035Y-97949464D01*
X110611380Y-97912119D01*
X110662319Y-97861181D01*
X110723642Y-97827696D01*
X110793334Y-97832680D01*
X110837681Y-97861181D01*
X110925961Y-97949461D01*
X110925965Y-97949464D01*
X111073446Y-98048009D01*
X111073459Y-98048016D01*
X111196363Y-98098923D01*
X111237334Y-98115894D01*
X111237336Y-98115894D01*
X111237341Y-98115896D01*
X111411304Y-98150499D01*
X111411307Y-98150500D01*
X111411309Y-98150500D01*
X111588693Y-98150500D01*
X111588694Y-98150499D01*
X111646682Y-98138964D01*
X111762658Y-98115896D01*
X111762661Y-98115894D01*
X111762666Y-98115894D01*
X111926547Y-98048013D01*
X112074035Y-97949464D01*
X112111380Y-97912119D01*
X112162319Y-97861181D01*
X112223642Y-97827696D01*
X112293334Y-97832680D01*
X112337681Y-97861181D01*
X112425961Y-97949461D01*
X112425965Y-97949464D01*
X112573446Y-98048009D01*
X112573459Y-98048016D01*
X112696363Y-98098923D01*
X112737334Y-98115894D01*
X112737336Y-98115894D01*
X112737341Y-98115896D01*
X112911304Y-98150499D01*
X112911307Y-98150500D01*
X112911309Y-98150500D01*
X113088693Y-98150500D01*
X113088694Y-98150499D01*
X113146682Y-98138964D01*
X113262658Y-98115896D01*
X113262661Y-98115894D01*
X113262666Y-98115894D01*
X113426547Y-98048013D01*
X113574035Y-97949464D01*
X113699464Y-97824035D01*
X113762122Y-97730261D01*
X113771898Y-97715631D01*
X113825510Y-97670826D01*
X113894835Y-97662119D01*
X113957863Y-97692274D01*
X113978102Y-97715631D01*
X114050535Y-97824034D01*
X114050538Y-97824038D01*
X114175961Y-97949461D01*
X114175965Y-97949464D01*
X114323446Y-98048009D01*
X114323459Y-98048016D01*
X114446363Y-98098923D01*
X114487334Y-98115894D01*
X114487336Y-98115894D01*
X114487341Y-98115896D01*
X114661304Y-98150499D01*
X114661307Y-98150500D01*
X114661309Y-98150500D01*
X114838693Y-98150500D01*
X114838694Y-98150499D01*
X114896682Y-98138964D01*
X115012658Y-98115896D01*
X115012661Y-98115894D01*
X115012666Y-98115894D01*
X115176547Y-98048013D01*
X115324035Y-97949464D01*
X115449464Y-97824035D01*
X115512122Y-97730261D01*
X115521898Y-97715631D01*
X115575510Y-97670826D01*
X115644835Y-97662119D01*
X115707863Y-97692274D01*
X115728102Y-97715631D01*
X115800535Y-97824034D01*
X115800538Y-97824038D01*
X115925961Y-97949461D01*
X115925965Y-97949464D01*
X116073446Y-98048009D01*
X116073459Y-98048016D01*
X116196363Y-98098923D01*
X116237334Y-98115894D01*
X116237336Y-98115894D01*
X116237341Y-98115896D01*
X116411304Y-98150499D01*
X116411307Y-98150500D01*
X116411309Y-98150500D01*
X116588693Y-98150500D01*
X116588694Y-98150499D01*
X116646682Y-98138964D01*
X116762658Y-98115896D01*
X116762661Y-98115894D01*
X116762666Y-98115894D01*
X116926547Y-98048013D01*
X117074035Y-97949464D01*
X117199464Y-97824035D01*
X117262122Y-97730261D01*
X117271898Y-97715631D01*
X117325510Y-97670826D01*
X117394835Y-97662119D01*
X117457863Y-97692274D01*
X117478102Y-97715631D01*
X117550535Y-97824034D01*
X117550538Y-97824038D01*
X117675961Y-97949461D01*
X117675965Y-97949464D01*
X117823446Y-98048009D01*
X117823459Y-98048016D01*
X117946363Y-98098923D01*
X117987334Y-98115894D01*
X117987336Y-98115894D01*
X117987341Y-98115896D01*
X118161304Y-98150499D01*
X118161307Y-98150500D01*
X118161309Y-98150500D01*
X118338693Y-98150500D01*
X118338694Y-98150499D01*
X118396682Y-98138964D01*
X118512658Y-98115896D01*
X118512661Y-98115894D01*
X118512666Y-98115894D01*
X118676547Y-98048013D01*
X118824035Y-97949464D01*
X118949464Y-97824035D01*
X119048013Y-97676547D01*
X119115894Y-97512666D01*
X119118921Y-97497452D01*
X119138964Y-97396682D01*
X119150500Y-97338691D01*
X119150500Y-97225000D01*
X120735000Y-97225000D01*
X122825000Y-97225000D01*
X122825000Y-95325000D01*
X120735000Y-95325000D01*
X120735000Y-97225000D01*
X119150500Y-97225000D01*
X119150500Y-97161309D01*
X119150500Y-97161306D01*
X119150499Y-97161304D01*
X119115896Y-96987341D01*
X119115893Y-96987332D01*
X119048016Y-96823459D01*
X119048009Y-96823446D01*
X118949464Y-96675965D01*
X118949461Y-96675961D01*
X118824038Y-96550538D01*
X118824034Y-96550535D01*
X118715631Y-96478102D01*
X118670826Y-96424490D01*
X118662119Y-96355165D01*
X118692274Y-96292137D01*
X118715631Y-96271898D01*
X118767362Y-96237332D01*
X118824035Y-96199464D01*
X118949464Y-96074035D01*
X119048013Y-95926547D01*
X119115894Y-95762666D01*
X119118414Y-95750000D01*
X119150499Y-95588695D01*
X119150500Y-95588693D01*
X119150500Y-95411306D01*
X119150499Y-95411304D01*
X119127928Y-95297829D01*
X119118444Y-95250158D01*
X119115894Y-95237334D01*
X119079926Y-95150499D01*
X119048016Y-95073459D01*
X119048009Y-95073446D01*
X118949464Y-94925965D01*
X118949461Y-94925961D01*
X118824038Y-94800538D01*
X118824034Y-94800535D01*
X118676553Y-94701990D01*
X118676540Y-94701983D01*
X118512667Y-94634106D01*
X118512658Y-94634103D01*
X118338694Y-94599500D01*
X118338691Y-94599500D01*
X118161309Y-94599500D01*
X118161306Y-94599500D01*
X117987341Y-94634103D01*
X117987332Y-94634106D01*
X117823459Y-94701983D01*
X117823446Y-94701990D01*
X117675965Y-94800535D01*
X117675961Y-94800538D01*
X117550538Y-94925961D01*
X117550535Y-94925965D01*
X117478102Y-95034368D01*
X117424489Y-95079173D01*
X117355164Y-95087880D01*
X117292137Y-95057725D01*
X117271898Y-95034368D01*
X117199464Y-94925965D01*
X117199461Y-94925961D01*
X117074038Y-94800538D01*
X117074034Y-94800535D01*
X116926553Y-94701990D01*
X116926540Y-94701983D01*
X116762667Y-94634106D01*
X116762658Y-94634103D01*
X116588694Y-94599500D01*
X116588691Y-94599500D01*
X116411309Y-94599500D01*
X116411306Y-94599500D01*
X116237341Y-94634103D01*
X116237332Y-94634106D01*
X116073459Y-94701983D01*
X116073446Y-94701990D01*
X115925965Y-94800535D01*
X115925961Y-94800538D01*
X115800538Y-94925961D01*
X115800535Y-94925965D01*
X115728102Y-95034368D01*
X115674489Y-95079173D01*
X115605164Y-95087880D01*
X115542137Y-95057725D01*
X115521898Y-95034368D01*
X115449464Y-94925965D01*
X115449461Y-94925961D01*
X115324038Y-94800538D01*
X115324034Y-94800535D01*
X115176553Y-94701990D01*
X115176540Y-94701983D01*
X115012667Y-94634106D01*
X115012658Y-94634103D01*
X114838694Y-94599500D01*
X114838691Y-94599500D01*
X114661309Y-94599500D01*
X114661306Y-94599500D01*
X114487341Y-94634103D01*
X114487332Y-94634106D01*
X114323459Y-94701983D01*
X114323446Y-94701990D01*
X114175965Y-94800535D01*
X114175961Y-94800538D01*
X114050538Y-94925961D01*
X114050535Y-94925965D01*
X113978102Y-95034368D01*
X113924489Y-95079173D01*
X113855164Y-95087880D01*
X113792137Y-95057725D01*
X113771898Y-95034368D01*
X113699464Y-94925965D01*
X113699461Y-94925961D01*
X113574038Y-94800538D01*
X113574034Y-94800535D01*
X113426553Y-94701990D01*
X113426540Y-94701983D01*
X113262667Y-94634106D01*
X113262658Y-94634103D01*
X113088694Y-94599500D01*
X113088691Y-94599500D01*
X112911309Y-94599500D01*
X112911306Y-94599500D01*
X112737341Y-94634103D01*
X112737332Y-94634106D01*
X112573459Y-94701983D01*
X112573446Y-94701990D01*
X112425965Y-94800535D01*
X112425961Y-94800538D01*
X112337681Y-94888819D01*
X112276358Y-94922304D01*
X112206666Y-94917320D01*
X112162319Y-94888819D01*
X112074038Y-94800538D01*
X112074034Y-94800535D01*
X111926553Y-94701990D01*
X111926540Y-94701983D01*
X111762667Y-94634106D01*
X111762658Y-94634103D01*
X111588694Y-94599500D01*
X111588691Y-94599500D01*
X111411309Y-94599500D01*
X111411306Y-94599500D01*
X111237341Y-94634103D01*
X111237332Y-94634106D01*
X111073459Y-94701983D01*
X111073446Y-94701990D01*
X110925965Y-94800535D01*
X110925961Y-94800538D01*
X110837681Y-94888819D01*
X110776358Y-94922304D01*
X110706666Y-94917320D01*
X110662319Y-94888819D01*
X110574038Y-94800538D01*
X110574034Y-94800535D01*
X110426553Y-94701990D01*
X110426540Y-94701983D01*
X110262667Y-94634106D01*
X110262658Y-94634103D01*
X110088694Y-94599500D01*
X110088691Y-94599500D01*
X109911309Y-94599500D01*
X109911306Y-94599500D01*
X109737341Y-94634103D01*
X109737332Y-94634106D01*
X109573459Y-94701983D01*
X109573446Y-94701990D01*
X109425965Y-94800535D01*
X109425961Y-94800538D01*
X109300538Y-94925961D01*
X109300535Y-94925965D01*
X109201990Y-95073446D01*
X109201983Y-95073459D01*
X109134106Y-95237332D01*
X109134103Y-95237341D01*
X109099500Y-95411304D01*
X109099500Y-95588695D01*
X109134103Y-95762658D01*
X109134106Y-95762667D01*
X109201983Y-95926540D01*
X109201990Y-95926553D01*
X109300535Y-96074034D01*
X109300538Y-96074038D01*
X109425961Y-96199461D01*
X109425965Y-96199464D01*
X109534368Y-96271898D01*
X109579173Y-96325511D01*
X109587880Y-96394836D01*
X109557725Y-96457863D01*
X109534368Y-96478102D01*
X109425965Y-96550535D01*
X109425961Y-96550538D01*
X109300538Y-96675961D01*
X109241970Y-96763614D01*
X109188357Y-96808418D01*
X109119032Y-96817125D01*
X109069977Y-96797824D01*
X108926553Y-96701990D01*
X108926540Y-96701983D01*
X108762667Y-96634106D01*
X108762658Y-96634103D01*
X108588694Y-96599500D01*
X108588691Y-96599500D01*
X108411309Y-96599500D01*
X108411306Y-96599500D01*
X108237341Y-96634103D01*
X108237332Y-96634106D01*
X108073459Y-96701983D01*
X108073446Y-96701990D01*
X107925965Y-96800535D01*
X107925961Y-96800538D01*
X107800538Y-96925961D01*
X107800535Y-96925965D01*
X107728102Y-97034368D01*
X107674489Y-97079173D01*
X107605164Y-97087880D01*
X107542137Y-97057725D01*
X107521898Y-97034368D01*
X107449464Y-96925965D01*
X107449461Y-96925961D01*
X107324038Y-96800538D01*
X107324034Y-96800535D01*
X107176553Y-96701990D01*
X107176540Y-96701983D01*
X107012667Y-96634106D01*
X107012658Y-96634103D01*
X106838694Y-96599500D01*
X106838691Y-96599500D01*
X106661309Y-96599500D01*
X106661306Y-96599500D01*
X106487341Y-96634103D01*
X106487332Y-96634106D01*
X106323459Y-96701983D01*
X106323446Y-96701990D01*
X106175965Y-96800535D01*
X106175961Y-96800538D01*
X106050538Y-96925961D01*
X106050535Y-96925965D01*
X105951990Y-97073446D01*
X105951983Y-97073459D01*
X105884106Y-97237332D01*
X105884103Y-97237341D01*
X105849500Y-97411304D01*
X42536618Y-97411304D01*
X42539189Y-97402547D01*
X42540037Y-97400500D01*
X42592816Y-97273082D01*
X42625500Y-97108767D01*
X42625500Y-96941233D01*
X42592816Y-96776918D01*
X42539188Y-96647451D01*
X42536240Y-96620026D01*
X42529938Y-96593175D01*
X42532257Y-96582986D01*
X42531720Y-96577984D01*
X42536876Y-96558569D01*
X42537950Y-96555537D01*
X42592816Y-96423082D01*
X42595159Y-96411304D01*
X56599500Y-96411304D01*
X56599500Y-96588695D01*
X56634103Y-96762658D01*
X56634106Y-96762667D01*
X56701983Y-96926540D01*
X56701990Y-96926553D01*
X56800535Y-97074034D01*
X56800538Y-97074038D01*
X56925961Y-97199461D01*
X56925965Y-97199464D01*
X57073446Y-97298009D01*
X57073459Y-97298016D01*
X57171659Y-97338691D01*
X57237334Y-97365894D01*
X57237336Y-97365894D01*
X57237341Y-97365896D01*
X57411304Y-97400499D01*
X57411307Y-97400500D01*
X57411309Y-97400500D01*
X57588693Y-97400500D01*
X57588694Y-97400499D01*
X57646682Y-97388964D01*
X57762658Y-97365896D01*
X57762661Y-97365894D01*
X57762666Y-97365894D01*
X57926547Y-97298013D01*
X58074035Y-97199464D01*
X58199464Y-97074035D01*
X58298013Y-96926547D01*
X58365894Y-96762666D01*
X58400500Y-96588691D01*
X58400500Y-96411309D01*
X58400500Y-96411306D01*
X58400499Y-96411304D01*
X58365896Y-96237341D01*
X58365893Y-96237332D01*
X58298016Y-96073459D01*
X58298009Y-96073446D01*
X58199464Y-95925965D01*
X58199461Y-95925961D01*
X58074038Y-95800538D01*
X58074034Y-95800535D01*
X57926553Y-95701990D01*
X57926540Y-95701983D01*
X57762667Y-95634106D01*
X57762658Y-95634103D01*
X57588694Y-95599500D01*
X57588691Y-95599500D01*
X57411309Y-95599500D01*
X57411306Y-95599500D01*
X57237341Y-95634103D01*
X57237332Y-95634106D01*
X57073459Y-95701983D01*
X57073446Y-95701990D01*
X56925965Y-95800535D01*
X56925961Y-95800538D01*
X56800538Y-95925961D01*
X56800535Y-95925965D01*
X56701990Y-96073446D01*
X56701983Y-96073459D01*
X56634106Y-96237332D01*
X56634103Y-96237341D01*
X56599500Y-96411304D01*
X42595159Y-96411304D01*
X42625500Y-96258767D01*
X42625500Y-96091233D01*
X42592816Y-95926918D01*
X42539188Y-95797451D01*
X42531720Y-95727984D01*
X42539189Y-95702547D01*
X42539423Y-95701983D01*
X42592816Y-95573082D01*
X42625500Y-95408767D01*
X42625500Y-95241233D01*
X42592816Y-95076918D01*
X42539188Y-94947451D01*
X42531720Y-94877984D01*
X42539189Y-94852547D01*
X42550999Y-94824035D01*
X42592816Y-94723082D01*
X42625500Y-94558767D01*
X42625500Y-94421153D01*
X48362000Y-94421153D01*
X48362000Y-94578846D01*
X48392761Y-94733489D01*
X48392764Y-94733501D01*
X48453102Y-94879172D01*
X48453109Y-94879185D01*
X48540710Y-95010288D01*
X48540713Y-95010292D01*
X48652207Y-95121786D01*
X48652211Y-95121789D01*
X48783314Y-95209390D01*
X48783327Y-95209397D01*
X48928998Y-95269735D01*
X48929003Y-95269737D01*
X49070230Y-95297829D01*
X49083653Y-95300499D01*
X49083656Y-95300500D01*
X49083658Y-95300500D01*
X49241344Y-95300500D01*
X49241345Y-95300499D01*
X49395997Y-95269737D01*
X49541679Y-95209394D01*
X49672789Y-95121789D01*
X49784289Y-95010289D01*
X49871894Y-94879179D01*
X49932237Y-94733497D01*
X49963000Y-94578842D01*
X49963000Y-94421158D01*
X49963000Y-94421155D01*
X49962999Y-94421153D01*
X49932237Y-94266503D01*
X49929663Y-94260288D01*
X49871897Y-94120827D01*
X49871890Y-94120814D01*
X49784289Y-93989711D01*
X49784286Y-93989707D01*
X49672792Y-93878213D01*
X49672788Y-93878210D01*
X49541685Y-93790609D01*
X49541672Y-93790602D01*
X49396001Y-93730264D01*
X49395989Y-93730261D01*
X49241345Y-93699500D01*
X49241342Y-93699500D01*
X49083658Y-93699500D01*
X49083655Y-93699500D01*
X48929010Y-93730261D01*
X48928998Y-93730264D01*
X48783327Y-93790602D01*
X48783314Y-93790609D01*
X48652211Y-93878210D01*
X48652207Y-93878213D01*
X48540713Y-93989707D01*
X48540710Y-93989711D01*
X48453109Y-94120814D01*
X48453102Y-94120827D01*
X48392764Y-94266498D01*
X48392761Y-94266510D01*
X48362000Y-94421153D01*
X42625500Y-94421153D01*
X42625500Y-94391233D01*
X42592816Y-94226918D01*
X42539188Y-94097451D01*
X42531720Y-94027984D01*
X42539189Y-94002547D01*
X42544506Y-93989711D01*
X42592816Y-93873082D01*
X42625500Y-93708767D01*
X42625500Y-93541233D01*
X42592816Y-93376918D01*
X42539188Y-93247451D01*
X42535909Y-93216946D01*
X42530460Y-93186745D01*
X42532009Y-93180675D01*
X42531720Y-93177984D01*
X42533726Y-93171153D01*
X74199500Y-93171153D01*
X74199500Y-93328846D01*
X74230261Y-93483489D01*
X74230264Y-93483501D01*
X74290602Y-93629172D01*
X74290609Y-93629185D01*
X74378210Y-93760288D01*
X74378213Y-93760292D01*
X74489707Y-93871786D01*
X74489711Y-93871789D01*
X74620814Y-93959390D01*
X74620827Y-93959397D01*
X74766498Y-94019735D01*
X74766503Y-94019737D01*
X74918644Y-94050000D01*
X74921153Y-94050499D01*
X74921156Y-94050500D01*
X74921158Y-94050500D01*
X74925162Y-94050500D01*
X74927183Y-94051093D01*
X74927218Y-94051097D01*
X74927217Y-94051103D01*
X74992201Y-94070185D01*
X75037956Y-94122989D01*
X75039715Y-94127029D01*
X75040606Y-94129179D01*
X75040607Y-94129180D01*
X75040609Y-94129185D01*
X75128210Y-94260288D01*
X75128213Y-94260292D01*
X75239707Y-94371786D01*
X75239711Y-94371789D01*
X75370814Y-94459390D01*
X75370827Y-94459397D01*
X75499432Y-94512666D01*
X75516503Y-94519737D01*
X75671153Y-94550499D01*
X75671156Y-94550500D01*
X75671158Y-94550500D01*
X75828844Y-94550500D01*
X75828845Y-94550499D01*
X75983497Y-94519737D01*
X76129179Y-94459394D01*
X76260289Y-94371789D01*
X76371789Y-94260289D01*
X76437929Y-94161304D01*
X86349500Y-94161304D01*
X86349500Y-94338695D01*
X86384103Y-94512658D01*
X86384106Y-94512667D01*
X86451983Y-94676540D01*
X86451990Y-94676553D01*
X86550535Y-94824034D01*
X86550538Y-94824038D01*
X86675961Y-94949461D01*
X86675965Y-94949464D01*
X86823446Y-95048009D01*
X86823459Y-95048016D01*
X86919701Y-95087880D01*
X86987334Y-95115894D01*
X86987336Y-95115894D01*
X86987341Y-95115896D01*
X87161304Y-95150499D01*
X87161307Y-95150500D01*
X87161309Y-95150500D01*
X87338693Y-95150500D01*
X87338694Y-95150499D01*
X87396682Y-95138964D01*
X87512658Y-95115896D01*
X87512661Y-95115894D01*
X87512666Y-95115894D01*
X87676547Y-95048013D01*
X87824035Y-94949464D01*
X87949464Y-94824035D01*
X88048013Y-94676547D01*
X88115894Y-94512666D01*
X88126492Y-94459390D01*
X88150499Y-94338695D01*
X88150500Y-94338693D01*
X88150500Y-94161306D01*
X88150499Y-94161304D01*
X88115896Y-93987341D01*
X88115893Y-93987332D01*
X88048016Y-93823459D01*
X88048009Y-93823446D01*
X87949464Y-93675965D01*
X87949461Y-93675961D01*
X87824038Y-93550538D01*
X87824034Y-93550535D01*
X87676553Y-93451990D01*
X87676540Y-93451983D01*
X87512667Y-93384106D01*
X87512658Y-93384103D01*
X87338694Y-93349500D01*
X87338691Y-93349500D01*
X87161309Y-93349500D01*
X87161306Y-93349500D01*
X86987341Y-93384103D01*
X86987332Y-93384106D01*
X86823459Y-93451983D01*
X86823446Y-93451990D01*
X86675965Y-93550535D01*
X86675961Y-93550538D01*
X86550538Y-93675961D01*
X86550535Y-93675965D01*
X86451990Y-93823446D01*
X86451983Y-93823459D01*
X86384106Y-93987332D01*
X86384103Y-93987341D01*
X86349500Y-94161304D01*
X76437929Y-94161304D01*
X76459394Y-94129179D01*
X76519737Y-93983497D01*
X76550500Y-93828842D01*
X76550500Y-93671158D01*
X76550500Y-93671155D01*
X76550499Y-93671153D01*
X76526507Y-93550538D01*
X76519737Y-93516503D01*
X76464896Y-93384103D01*
X76459397Y-93370827D01*
X76459390Y-93370814D01*
X76371789Y-93239711D01*
X76371786Y-93239707D01*
X76260292Y-93128213D01*
X76260288Y-93128210D01*
X76129185Y-93040609D01*
X76129172Y-93040602D01*
X75983501Y-92980264D01*
X75983489Y-92980261D01*
X75828845Y-92949500D01*
X75828842Y-92949500D01*
X75824838Y-92949500D01*
X75822816Y-92948906D01*
X75822782Y-92948903D01*
X75822782Y-92948896D01*
X75757799Y-92929815D01*
X75712044Y-92877011D01*
X75710275Y-92872949D01*
X75709394Y-92870821D01*
X75709391Y-92870816D01*
X75709390Y-92870814D01*
X75621789Y-92739711D01*
X75621786Y-92739707D01*
X75510292Y-92628213D01*
X75510288Y-92628210D01*
X75379185Y-92540609D01*
X75379172Y-92540602D01*
X75233501Y-92480264D01*
X75233489Y-92480261D01*
X75078845Y-92449500D01*
X75078842Y-92449500D01*
X74921158Y-92449500D01*
X74921155Y-92449500D01*
X74766510Y-92480261D01*
X74766498Y-92480264D01*
X74620827Y-92540602D01*
X74620814Y-92540609D01*
X74489711Y-92628210D01*
X74489707Y-92628213D01*
X74378213Y-92739707D01*
X74378210Y-92739711D01*
X74290609Y-92870814D01*
X74290602Y-92870827D01*
X74230264Y-93016498D01*
X74230261Y-93016510D01*
X74199500Y-93171153D01*
X42533726Y-93171153D01*
X42539189Y-93152548D01*
X42540364Y-93149710D01*
X42592816Y-93023082D01*
X42625500Y-92858767D01*
X42625500Y-92691233D01*
X42592816Y-92526918D01*
X42528703Y-92372137D01*
X42464827Y-92276540D01*
X42435626Y-92232837D01*
X42335391Y-92132602D01*
X42301906Y-92071279D01*
X42306890Y-92001587D01*
X42319970Y-91976030D01*
X42387322Y-91875231D01*
X42434512Y-91761304D01*
X46462000Y-91761304D01*
X46462000Y-91938695D01*
X46496603Y-92112658D01*
X46496606Y-92112667D01*
X46564483Y-92276540D01*
X46564490Y-92276553D01*
X46663035Y-92424034D01*
X46663038Y-92424038D01*
X46788461Y-92549461D01*
X46788465Y-92549464D01*
X46935946Y-92648009D01*
X46935959Y-92648016D01*
X47040284Y-92691228D01*
X47099834Y-92715894D01*
X47099836Y-92715894D01*
X47099841Y-92715896D01*
X47273804Y-92750499D01*
X47273807Y-92750500D01*
X47273809Y-92750500D01*
X47451193Y-92750500D01*
X47451194Y-92750499D01*
X47509182Y-92738964D01*
X47625158Y-92715896D01*
X47625161Y-92715894D01*
X47625166Y-92715894D01*
X47789047Y-92648013D01*
X47936535Y-92549464D01*
X48061964Y-92424035D01*
X48160513Y-92276547D01*
X48228394Y-92112666D01*
X48236627Y-92071279D01*
X48262999Y-91938695D01*
X48263000Y-91938693D01*
X48263000Y-91761306D01*
X48248668Y-91689258D01*
X48248668Y-91689257D01*
X48245067Y-91671153D01*
X63349500Y-91671153D01*
X63349500Y-91828846D01*
X63380261Y-91983489D01*
X63380264Y-91983501D01*
X63440602Y-92129172D01*
X63440609Y-92129185D01*
X63528210Y-92260288D01*
X63528213Y-92260292D01*
X63639707Y-92371786D01*
X63639711Y-92371789D01*
X63770814Y-92459390D01*
X63770827Y-92459397D01*
X63916498Y-92519735D01*
X63916503Y-92519737D01*
X64065935Y-92549461D01*
X64071153Y-92550499D01*
X64071156Y-92550500D01*
X64071158Y-92550500D01*
X64228844Y-92550500D01*
X64228845Y-92550499D01*
X64383497Y-92519737D01*
X64529179Y-92459394D01*
X64660289Y-92371789D01*
X64771789Y-92260289D01*
X64859394Y-92129179D01*
X64919737Y-91983497D01*
X64950500Y-91828842D01*
X64950500Y-91671158D01*
X64950500Y-91671155D01*
X64950499Y-91671153D01*
X64919737Y-91516503D01*
X64919735Y-91516498D01*
X64859397Y-91370827D01*
X64859390Y-91370814D01*
X64771789Y-91239711D01*
X64771786Y-91239707D01*
X64660292Y-91128213D01*
X64660288Y-91128210D01*
X64529185Y-91040609D01*
X64529172Y-91040602D01*
X64383501Y-90980264D01*
X64383489Y-90980261D01*
X64228845Y-90949500D01*
X64228842Y-90949500D01*
X64071158Y-90949500D01*
X64071155Y-90949500D01*
X63916510Y-90980261D01*
X63916498Y-90980264D01*
X63770827Y-91040602D01*
X63770814Y-91040609D01*
X63639711Y-91128210D01*
X63639707Y-91128213D01*
X63528213Y-91239707D01*
X63528210Y-91239711D01*
X63440609Y-91370814D01*
X63440602Y-91370827D01*
X63380264Y-91516498D01*
X63380261Y-91516510D01*
X63349500Y-91671153D01*
X48245067Y-91671153D01*
X48228396Y-91587341D01*
X48228393Y-91587332D01*
X48160516Y-91423459D01*
X48160509Y-91423446D01*
X48061964Y-91275965D01*
X48061961Y-91275961D01*
X47936538Y-91150538D01*
X47936534Y-91150535D01*
X47789053Y-91051990D01*
X47789040Y-91051983D01*
X47625167Y-90984106D01*
X47625158Y-90984103D01*
X47451194Y-90949500D01*
X47451191Y-90949500D01*
X47273809Y-90949500D01*
X47273806Y-90949500D01*
X47099841Y-90984103D01*
X47099832Y-90984106D01*
X46935959Y-91051983D01*
X46935946Y-91051990D01*
X46788465Y-91150535D01*
X46788461Y-91150538D01*
X46663038Y-91275961D01*
X46663035Y-91275965D01*
X46564490Y-91423446D01*
X46564483Y-91423459D01*
X46496606Y-91587332D01*
X46496603Y-91587341D01*
X46462000Y-91761304D01*
X42434512Y-91761304D01*
X42458973Y-91702251D01*
X42495500Y-91518616D01*
X42495500Y-91331384D01*
X42458973Y-91147749D01*
X42387322Y-90974769D01*
X42387321Y-90974768D01*
X42387318Y-90974762D01*
X42283302Y-90819092D01*
X42283299Y-90819088D01*
X42150911Y-90686700D01*
X42150907Y-90686697D01*
X41995237Y-90582681D01*
X41995228Y-90582676D01*
X41822251Y-90511027D01*
X41822243Y-90511025D01*
X41638620Y-90474500D01*
X41638616Y-90474500D01*
X39951384Y-90474500D01*
X39951379Y-90474500D01*
X39767756Y-90511025D01*
X39767748Y-90511027D01*
X39594771Y-90582676D01*
X39594762Y-90582681D01*
X39439092Y-90686697D01*
X39439088Y-90686700D01*
X39306700Y-90819088D01*
X39306697Y-90819092D01*
X39202681Y-90974762D01*
X39202676Y-90974771D01*
X39131027Y-91147748D01*
X39131025Y-91147756D01*
X39094500Y-91331379D01*
X38765499Y-91331379D01*
X38728973Y-91147749D01*
X38657322Y-90974769D01*
X38657321Y-90974768D01*
X38657318Y-90974762D01*
X38553302Y-90819092D01*
X38553299Y-90819088D01*
X38420911Y-90686700D01*
X38420907Y-90686697D01*
X38265237Y-90582681D01*
X38265228Y-90582676D01*
X38092251Y-90511027D01*
X38092243Y-90511025D01*
X37908620Y-90474500D01*
X37908616Y-90474500D01*
X36921384Y-90474500D01*
X36921379Y-90474500D01*
X36737756Y-90511025D01*
X36737748Y-90511027D01*
X36564771Y-90582676D01*
X36564762Y-90582681D01*
X36409092Y-90686697D01*
X36409088Y-90686700D01*
X36276700Y-90819088D01*
X36276697Y-90819092D01*
X36172681Y-90974762D01*
X36172676Y-90974771D01*
X36101027Y-91147748D01*
X36101025Y-91147756D01*
X36064500Y-91331379D01*
X34250500Y-91331379D01*
X34250500Y-87596153D01*
X65374500Y-87596153D01*
X65374500Y-87753846D01*
X65405261Y-87908489D01*
X65405264Y-87908501D01*
X65465602Y-88054172D01*
X65465609Y-88054185D01*
X65553210Y-88185288D01*
X65553213Y-88185292D01*
X65664707Y-88296786D01*
X65664711Y-88296789D01*
X65795814Y-88384390D01*
X65795827Y-88384397D01*
X65941498Y-88444735D01*
X65941503Y-88444737D01*
X66096153Y-88475499D01*
X66096156Y-88475500D01*
X66096158Y-88475500D01*
X66253844Y-88475500D01*
X66253845Y-88475499D01*
X66408497Y-88444737D01*
X66554179Y-88384394D01*
X66685289Y-88296789D01*
X66796789Y-88185289D01*
X66884394Y-88054179D01*
X66944737Y-87908497D01*
X66975500Y-87753842D01*
X66975500Y-87596158D01*
X66975500Y-87596155D01*
X66975499Y-87596153D01*
X66944739Y-87441512D01*
X66944738Y-87441509D01*
X66944737Y-87441503D01*
X66936308Y-87421153D01*
X74699500Y-87421153D01*
X74699500Y-87578846D01*
X74730261Y-87733489D01*
X74730264Y-87733501D01*
X74790602Y-87879172D01*
X74790609Y-87879185D01*
X74878210Y-88010288D01*
X74878213Y-88010292D01*
X74989707Y-88121786D01*
X74989711Y-88121789D01*
X75120814Y-88209390D01*
X75120827Y-88209397D01*
X75266498Y-88269735D01*
X75266503Y-88269737D01*
X75402487Y-88296786D01*
X75421153Y-88300499D01*
X75421156Y-88300500D01*
X75421158Y-88300500D01*
X75578844Y-88300500D01*
X75578845Y-88300499D01*
X75733497Y-88269737D01*
X75879179Y-88209394D01*
X76010289Y-88121789D01*
X76121789Y-88010289D01*
X76209394Y-87879179D01*
X76269737Y-87733497D01*
X76300500Y-87578842D01*
X76300500Y-87421158D01*
X76300500Y-87421155D01*
X76300499Y-87421153D01*
X76949500Y-87421153D01*
X76949500Y-87578846D01*
X76980261Y-87733489D01*
X76980264Y-87733501D01*
X77040602Y-87879172D01*
X77040609Y-87879185D01*
X77128210Y-88010288D01*
X77128213Y-88010292D01*
X77239707Y-88121786D01*
X77239711Y-88121789D01*
X77370814Y-88209390D01*
X77370827Y-88209397D01*
X77516498Y-88269735D01*
X77516503Y-88269737D01*
X77652487Y-88296786D01*
X77671153Y-88300499D01*
X77671156Y-88300500D01*
X77671158Y-88300500D01*
X77828844Y-88300500D01*
X77828845Y-88300499D01*
X77983497Y-88269737D01*
X78129179Y-88209394D01*
X78260289Y-88121789D01*
X78371789Y-88010289D01*
X78459394Y-87879179D01*
X78519737Y-87733497D01*
X78550500Y-87578842D01*
X78550500Y-87421158D01*
X78550500Y-87421155D01*
X78550499Y-87421153D01*
X78525570Y-87295827D01*
X78519737Y-87266503D01*
X78477572Y-87164707D01*
X78459397Y-87120827D01*
X78459390Y-87120814D01*
X78371789Y-86989711D01*
X78371786Y-86989707D01*
X78260292Y-86878213D01*
X78260288Y-86878210D01*
X78129185Y-86790609D01*
X78129172Y-86790602D01*
X77983501Y-86730264D01*
X77983489Y-86730261D01*
X77828845Y-86699500D01*
X77828842Y-86699500D01*
X77671158Y-86699500D01*
X77671155Y-86699500D01*
X77516510Y-86730261D01*
X77516498Y-86730264D01*
X77370827Y-86790602D01*
X77370814Y-86790609D01*
X77239711Y-86878210D01*
X77239707Y-86878213D01*
X77128213Y-86989707D01*
X77128210Y-86989711D01*
X77040609Y-87120814D01*
X77040602Y-87120827D01*
X76980264Y-87266498D01*
X76980261Y-87266510D01*
X76949500Y-87421153D01*
X76300499Y-87421153D01*
X76275570Y-87295827D01*
X76269737Y-87266503D01*
X76227572Y-87164707D01*
X76209397Y-87120827D01*
X76209390Y-87120814D01*
X76121789Y-86989711D01*
X76121786Y-86989707D01*
X76010292Y-86878213D01*
X76010288Y-86878210D01*
X75879185Y-86790609D01*
X75879172Y-86790602D01*
X75733501Y-86730264D01*
X75733489Y-86730261D01*
X75578845Y-86699500D01*
X75578842Y-86699500D01*
X75421158Y-86699500D01*
X75421155Y-86699500D01*
X75266510Y-86730261D01*
X75266498Y-86730264D01*
X75120827Y-86790602D01*
X75120814Y-86790609D01*
X74989711Y-86878210D01*
X74989707Y-86878213D01*
X74878213Y-86989707D01*
X74878210Y-86989711D01*
X74790609Y-87120814D01*
X74790602Y-87120827D01*
X74730264Y-87266498D01*
X74730261Y-87266510D01*
X74699500Y-87421153D01*
X66936308Y-87421153D01*
X66884397Y-87295827D01*
X66884390Y-87295814D01*
X66796789Y-87164711D01*
X66796786Y-87164707D01*
X66685292Y-87053213D01*
X66685288Y-87053210D01*
X66554185Y-86965609D01*
X66554172Y-86965602D01*
X66408501Y-86905264D01*
X66408489Y-86905261D01*
X66253845Y-86874500D01*
X66253842Y-86874500D01*
X66096158Y-86874500D01*
X66096155Y-86874500D01*
X65941510Y-86905261D01*
X65941498Y-86905264D01*
X65795827Y-86965602D01*
X65795814Y-86965609D01*
X65664711Y-87053210D01*
X65664707Y-87053213D01*
X65553213Y-87164707D01*
X65553210Y-87164711D01*
X65465609Y-87295814D01*
X65465602Y-87295827D01*
X65405264Y-87441498D01*
X65405261Y-87441510D01*
X65374500Y-87596153D01*
X34250500Y-87596153D01*
X34250500Y-83508653D01*
X39362000Y-83508653D01*
X39362000Y-83666346D01*
X39392761Y-83820989D01*
X39392764Y-83821001D01*
X39453102Y-83966672D01*
X39453109Y-83966685D01*
X39540710Y-84097788D01*
X39540713Y-84097792D01*
X39652207Y-84209286D01*
X39652211Y-84209289D01*
X39783314Y-84296890D01*
X39783327Y-84296897D01*
X39928998Y-84357235D01*
X39929003Y-84357237D01*
X40083653Y-84387999D01*
X40083656Y-84388000D01*
X40083658Y-84388000D01*
X40241344Y-84388000D01*
X40241345Y-84387999D01*
X40395997Y-84357237D01*
X40541679Y-84296894D01*
X40672789Y-84209289D01*
X40784289Y-84097789D01*
X40871894Y-83966679D01*
X40932237Y-83820997D01*
X40963000Y-83666342D01*
X40963000Y-83661304D01*
X55349500Y-83661304D01*
X55349500Y-83838695D01*
X55384103Y-84012658D01*
X55384106Y-84012667D01*
X55451983Y-84176540D01*
X55451990Y-84176553D01*
X55550535Y-84324034D01*
X55550538Y-84324038D01*
X55675961Y-84449461D01*
X55675965Y-84449464D01*
X55823446Y-84548009D01*
X55823459Y-84548016D01*
X55946363Y-84598923D01*
X55987334Y-84615894D01*
X55987336Y-84615894D01*
X55987341Y-84615896D01*
X56161304Y-84650499D01*
X56161307Y-84650500D01*
X56161309Y-84650500D01*
X56338693Y-84650500D01*
X56338694Y-84650499D01*
X56396682Y-84638964D01*
X56512658Y-84615896D01*
X56512661Y-84615894D01*
X56512666Y-84615894D01*
X56676547Y-84548013D01*
X56824035Y-84449464D01*
X56949464Y-84324035D01*
X57048013Y-84176547D01*
X57048482Y-84175416D01*
X57080635Y-84097789D01*
X57104032Y-84041304D01*
X60729500Y-84041304D01*
X60729500Y-84218695D01*
X60764103Y-84392658D01*
X60764106Y-84392667D01*
X60831983Y-84556540D01*
X60831990Y-84556553D01*
X60930535Y-84704034D01*
X60930538Y-84704038D01*
X61055961Y-84829461D01*
X61055965Y-84829464D01*
X61203446Y-84928009D01*
X61203459Y-84928016D01*
X61326363Y-84978923D01*
X61367334Y-84995894D01*
X61367336Y-84995894D01*
X61367341Y-84995896D01*
X61541304Y-85030499D01*
X61541307Y-85030500D01*
X61541309Y-85030500D01*
X61718693Y-85030500D01*
X61718694Y-85030499D01*
X61789058Y-85016503D01*
X61891366Y-84996153D01*
X65449500Y-84996153D01*
X65449500Y-85153846D01*
X65480261Y-85308489D01*
X65480264Y-85308501D01*
X65540602Y-85454172D01*
X65540609Y-85454185D01*
X65628210Y-85585288D01*
X65628213Y-85585292D01*
X65739707Y-85696786D01*
X65739711Y-85696789D01*
X65870814Y-85784390D01*
X65870827Y-85784397D01*
X65978138Y-85828846D01*
X66016503Y-85844737D01*
X66152487Y-85871786D01*
X66171153Y-85875499D01*
X66171156Y-85875500D01*
X66171158Y-85875500D01*
X66328844Y-85875500D01*
X66328845Y-85875499D01*
X66483497Y-85844737D01*
X66629179Y-85784394D01*
X66760289Y-85696789D01*
X66871789Y-85585289D01*
X66959394Y-85454179D01*
X67019737Y-85308497D01*
X67022212Y-85296050D01*
X67027165Y-85271153D01*
X67699500Y-85271153D01*
X67699500Y-85428846D01*
X67730261Y-85583489D01*
X67730264Y-85583501D01*
X67790602Y-85729172D01*
X67790609Y-85729185D01*
X67878210Y-85860288D01*
X67878213Y-85860292D01*
X67989707Y-85971786D01*
X67989711Y-85971789D01*
X68120814Y-86059390D01*
X68120827Y-86059397D01*
X68266498Y-86119735D01*
X68266503Y-86119737D01*
X68421153Y-86150499D01*
X68421156Y-86150500D01*
X68421158Y-86150500D01*
X68578844Y-86150500D01*
X68578845Y-86150499D01*
X68733497Y-86119737D01*
X68879179Y-86059394D01*
X69010289Y-85971789D01*
X69121789Y-85860289D01*
X69209394Y-85729179D01*
X69269737Y-85583497D01*
X69300500Y-85428842D01*
X69300500Y-85271158D01*
X69300500Y-85271155D01*
X69300499Y-85271153D01*
X69294244Y-85239707D01*
X69269737Y-85116503D01*
X69268993Y-85114706D01*
X69209397Y-84970827D01*
X69209390Y-84970814D01*
X69121789Y-84839711D01*
X69121786Y-84839707D01*
X69010292Y-84728213D01*
X69010288Y-84728210D01*
X68924897Y-84671153D01*
X70199500Y-84671153D01*
X70199500Y-84828846D01*
X70230261Y-84983489D01*
X70230264Y-84983501D01*
X70290602Y-85129172D01*
X70290609Y-85129185D01*
X70378210Y-85260288D01*
X70378213Y-85260292D01*
X70489707Y-85371786D01*
X70489711Y-85371789D01*
X70620814Y-85459390D01*
X70620827Y-85459397D01*
X70758683Y-85516498D01*
X70766503Y-85519737D01*
X70921153Y-85550499D01*
X70921156Y-85550500D01*
X70921158Y-85550500D01*
X71078844Y-85550500D01*
X71078845Y-85550499D01*
X71233497Y-85519737D01*
X71379179Y-85459394D01*
X71510289Y-85371789D01*
X71621789Y-85260289D01*
X71681348Y-85171153D01*
X74699500Y-85171153D01*
X74699500Y-85328846D01*
X74730261Y-85483489D01*
X74730264Y-85483501D01*
X74790602Y-85629172D01*
X74790609Y-85629185D01*
X74878210Y-85760288D01*
X74878213Y-85760292D01*
X74989707Y-85871786D01*
X74989711Y-85871789D01*
X75120814Y-85959390D01*
X75120827Y-85959397D01*
X75266498Y-86019735D01*
X75266503Y-86019737D01*
X75421153Y-86050499D01*
X75421156Y-86050500D01*
X75421158Y-86050500D01*
X75578844Y-86050500D01*
X75578845Y-86050499D01*
X75733497Y-86019737D01*
X75879179Y-85959394D01*
X76010289Y-85871789D01*
X76121789Y-85760289D01*
X76209394Y-85629179D01*
X76269737Y-85483497D01*
X76300500Y-85328842D01*
X76300500Y-85171158D01*
X76300500Y-85171155D01*
X76300499Y-85171153D01*
X76949500Y-85171153D01*
X76949500Y-85328846D01*
X76980261Y-85483489D01*
X76980264Y-85483501D01*
X77040602Y-85629172D01*
X77040609Y-85629185D01*
X77128210Y-85760288D01*
X77128213Y-85760292D01*
X77239707Y-85871786D01*
X77239711Y-85871789D01*
X77370814Y-85959390D01*
X77370827Y-85959397D01*
X77516498Y-86019735D01*
X77516503Y-86019737D01*
X77671153Y-86050499D01*
X77671156Y-86050500D01*
X77671158Y-86050500D01*
X77828844Y-86050500D01*
X77828845Y-86050499D01*
X77983497Y-86019737D01*
X78129179Y-85959394D01*
X78260289Y-85871789D01*
X78371789Y-85760289D01*
X78459394Y-85629179D01*
X78519737Y-85483497D01*
X78550500Y-85328842D01*
X78550500Y-85171158D01*
X78550500Y-85171155D01*
X78550499Y-85171153D01*
X78524531Y-85040606D01*
X78519737Y-85016503D01*
X78511308Y-84996153D01*
X78459397Y-84870827D01*
X78459390Y-84870814D01*
X78371789Y-84739711D01*
X78371786Y-84739707D01*
X78260292Y-84628213D01*
X78260288Y-84628210D01*
X78129185Y-84540609D01*
X78129172Y-84540602D01*
X77983501Y-84480264D01*
X77983489Y-84480261D01*
X77828845Y-84449500D01*
X77828842Y-84449500D01*
X77671158Y-84449500D01*
X77671155Y-84449500D01*
X77516510Y-84480261D01*
X77516498Y-84480264D01*
X77370827Y-84540602D01*
X77370814Y-84540609D01*
X77239711Y-84628210D01*
X77239707Y-84628213D01*
X77128213Y-84739707D01*
X77128210Y-84739711D01*
X77040609Y-84870814D01*
X77040602Y-84870827D01*
X76980264Y-85016498D01*
X76980261Y-85016510D01*
X76949500Y-85171153D01*
X76300499Y-85171153D01*
X76274531Y-85040606D01*
X76269737Y-85016503D01*
X76261308Y-84996153D01*
X76209397Y-84870827D01*
X76209390Y-84870814D01*
X76121789Y-84739711D01*
X76121786Y-84739707D01*
X76010292Y-84628213D01*
X76010288Y-84628210D01*
X75879185Y-84540609D01*
X75879172Y-84540602D01*
X75733501Y-84480264D01*
X75733489Y-84480261D01*
X75578845Y-84449500D01*
X75578842Y-84449500D01*
X75421158Y-84449500D01*
X75421155Y-84449500D01*
X75266510Y-84480261D01*
X75266498Y-84480264D01*
X75120827Y-84540602D01*
X75120814Y-84540609D01*
X74989711Y-84628210D01*
X74989707Y-84628213D01*
X74878213Y-84739707D01*
X74878210Y-84739711D01*
X74790609Y-84870814D01*
X74790602Y-84870827D01*
X74730264Y-85016498D01*
X74730261Y-85016510D01*
X74699500Y-85171153D01*
X71681348Y-85171153D01*
X71709394Y-85129179D01*
X71769737Y-84983497D01*
X71800500Y-84828842D01*
X71800500Y-84671158D01*
X71800500Y-84671155D01*
X71800499Y-84671153D01*
X71791957Y-84628210D01*
X71769737Y-84516503D01*
X71769735Y-84516498D01*
X71709397Y-84370827D01*
X71709390Y-84370814D01*
X71621789Y-84239711D01*
X71621786Y-84239707D01*
X71510292Y-84128213D01*
X71510288Y-84128210D01*
X71490132Y-84114742D01*
X71379185Y-84040609D01*
X71379172Y-84040602D01*
X71323946Y-84017727D01*
X85701455Y-84017727D01*
X85701455Y-84175420D01*
X85732216Y-84330063D01*
X85732219Y-84330075D01*
X85792557Y-84475746D01*
X85792564Y-84475759D01*
X85880165Y-84606862D01*
X85880168Y-84606866D01*
X85991662Y-84718360D01*
X85991666Y-84718363D01*
X86122769Y-84805964D01*
X86122781Y-84805971D01*
X86223534Y-84847703D01*
X86261868Y-84863581D01*
X86316272Y-84907421D01*
X86338337Y-84973715D01*
X86321058Y-85041415D01*
X86302098Y-85065822D01*
X86253214Y-85114706D01*
X86253210Y-85114711D01*
X86165609Y-85245814D01*
X86165602Y-85245827D01*
X86105264Y-85391498D01*
X86105261Y-85391510D01*
X86074500Y-85546153D01*
X86074500Y-85703846D01*
X86105261Y-85858489D01*
X86105264Y-85858501D01*
X86165602Y-86004172D01*
X86165609Y-86004185D01*
X86253210Y-86135288D01*
X86253213Y-86135292D01*
X86364707Y-86246786D01*
X86364711Y-86246789D01*
X86495814Y-86334390D01*
X86495827Y-86334397D01*
X86586101Y-86371789D01*
X86641503Y-86394737D01*
X86796153Y-86425499D01*
X86796156Y-86425500D01*
X86796158Y-86425500D01*
X86953844Y-86425500D01*
X86953845Y-86425499D01*
X87108497Y-86394737D01*
X87254179Y-86334394D01*
X87385289Y-86246789D01*
X87496789Y-86135289D01*
X87584394Y-86004179D01*
X87644737Y-85858497D01*
X87675500Y-85703842D01*
X87675500Y-85671153D01*
X106724500Y-85671153D01*
X106724500Y-85828846D01*
X106755261Y-85983489D01*
X106755264Y-85983501D01*
X106815602Y-86129172D01*
X106815609Y-86129185D01*
X106903210Y-86260288D01*
X106903213Y-86260292D01*
X107014707Y-86371786D01*
X107014711Y-86371789D01*
X107145814Y-86459390D01*
X107145827Y-86459397D01*
X107291498Y-86519735D01*
X107291503Y-86519737D01*
X107446153Y-86550499D01*
X107446156Y-86550500D01*
X107446158Y-86550500D01*
X107603844Y-86550500D01*
X107603845Y-86550499D01*
X107758497Y-86519737D01*
X107904179Y-86459394D01*
X108035289Y-86371789D01*
X108146789Y-86260289D01*
X108234394Y-86129179D01*
X108294737Y-85983497D01*
X108325500Y-85828842D01*
X108325500Y-85671158D01*
X108325500Y-85671155D01*
X108325499Y-85671153D01*
X108301499Y-85550499D01*
X108294737Y-85516503D01*
X108234794Y-85371786D01*
X108234397Y-85370827D01*
X108234390Y-85370814D01*
X108146789Y-85239711D01*
X108146786Y-85239707D01*
X108035292Y-85128213D01*
X108035288Y-85128210D01*
X107904185Y-85040609D01*
X107904172Y-85040602D01*
X107758501Y-84980264D01*
X107758489Y-84980261D01*
X107603845Y-84949500D01*
X107603842Y-84949500D01*
X107446158Y-84949500D01*
X107446155Y-84949500D01*
X107291510Y-84980261D01*
X107291498Y-84980264D01*
X107145827Y-85040602D01*
X107145814Y-85040609D01*
X107014711Y-85128210D01*
X107014707Y-85128213D01*
X106903213Y-85239707D01*
X106903210Y-85239711D01*
X106815609Y-85370814D01*
X106815602Y-85370827D01*
X106755264Y-85516498D01*
X106755261Y-85516510D01*
X106724500Y-85671153D01*
X87675500Y-85671153D01*
X87675500Y-85546158D01*
X87675500Y-85546155D01*
X87675499Y-85546153D01*
X87670245Y-85519738D01*
X87644737Y-85391503D01*
X87636170Y-85370821D01*
X87584397Y-85245827D01*
X87584390Y-85245814D01*
X87496789Y-85114711D01*
X87496786Y-85114707D01*
X87385292Y-85003213D01*
X87385288Y-85003210D01*
X87254185Y-84915609D01*
X87254172Y-84915602D01*
X87115086Y-84857992D01*
X87060682Y-84814151D01*
X87038617Y-84747857D01*
X87055896Y-84680158D01*
X87074858Y-84655749D01*
X87123741Y-84606866D01*
X87123744Y-84606863D01*
X87211349Y-84475753D01*
X87271692Y-84330071D01*
X87302455Y-84175416D01*
X87302455Y-84017732D01*
X87302455Y-84017729D01*
X87302454Y-84017727D01*
X87271692Y-83863077D01*
X87229386Y-83760942D01*
X87227249Y-83741066D01*
X87220264Y-83722336D01*
X87223591Y-83707039D01*
X87221918Y-83691474D01*
X87230866Y-83673597D01*
X87231398Y-83671153D01*
X106724500Y-83671153D01*
X106724500Y-83828846D01*
X106755261Y-83983489D01*
X106755264Y-83983501D01*
X106815602Y-84129172D01*
X106815609Y-84129185D01*
X106903210Y-84260288D01*
X106903213Y-84260292D01*
X107014707Y-84371786D01*
X107014711Y-84371789D01*
X107145814Y-84459390D01*
X107145827Y-84459397D01*
X107283683Y-84516498D01*
X107291503Y-84519737D01*
X107433635Y-84548009D01*
X107446153Y-84550499D01*
X107446156Y-84550500D01*
X107446158Y-84550500D01*
X107603844Y-84550500D01*
X107603845Y-84550499D01*
X107758497Y-84519737D01*
X107904179Y-84459394D01*
X108035289Y-84371789D01*
X108146789Y-84260289D01*
X108234394Y-84129179D01*
X108294737Y-83983497D01*
X108325500Y-83828842D01*
X108325500Y-83671158D01*
X108325500Y-83671155D01*
X108325499Y-83671153D01*
X108315680Y-83621789D01*
X108294737Y-83516503D01*
X108291486Y-83508655D01*
X108234397Y-83370827D01*
X108234390Y-83370814D01*
X108146789Y-83239711D01*
X108146786Y-83239707D01*
X108035292Y-83128213D01*
X108035288Y-83128210D01*
X107904185Y-83040609D01*
X107904172Y-83040602D01*
X107758501Y-82980264D01*
X107758489Y-82980261D01*
X107603845Y-82949500D01*
X107603842Y-82949500D01*
X107446158Y-82949500D01*
X107446155Y-82949500D01*
X107291510Y-82980261D01*
X107291498Y-82980264D01*
X107145827Y-83040602D01*
X107145814Y-83040609D01*
X107014711Y-83128210D01*
X107014707Y-83128213D01*
X106903213Y-83239707D01*
X106903210Y-83239711D01*
X106815609Y-83370814D01*
X106815602Y-83370827D01*
X106755264Y-83516498D01*
X106755261Y-83516510D01*
X106724500Y-83671153D01*
X87231398Y-83671153D01*
X87235116Y-83654063D01*
X87251800Y-83631775D01*
X87253193Y-83628995D01*
X87256268Y-83625809D01*
X87260285Y-83621791D01*
X87260289Y-83621789D01*
X87371789Y-83510289D01*
X87459394Y-83379179D01*
X87462854Y-83370827D01*
X87507058Y-83264106D01*
X87519737Y-83233497D01*
X87550500Y-83078842D01*
X87550500Y-82921158D01*
X87550500Y-82921155D01*
X87550499Y-82921153D01*
X87541936Y-82878106D01*
X87519737Y-82766503D01*
X87519735Y-82766498D01*
X87459397Y-82620827D01*
X87459390Y-82620814D01*
X87371789Y-82489711D01*
X87371786Y-82489707D01*
X87260292Y-82378213D01*
X87260288Y-82378210D01*
X87129185Y-82290609D01*
X87129172Y-82290602D01*
X86983501Y-82230264D01*
X86983489Y-82230261D01*
X86828845Y-82199500D01*
X86828842Y-82199500D01*
X86671158Y-82199500D01*
X86671155Y-82199500D01*
X86516510Y-82230261D01*
X86516498Y-82230264D01*
X86370827Y-82290602D01*
X86370814Y-82290609D01*
X86239711Y-82378210D01*
X86239707Y-82378213D01*
X86128213Y-82489707D01*
X86128210Y-82489711D01*
X86040609Y-82620814D01*
X86040602Y-82620827D01*
X85980264Y-82766498D01*
X85980261Y-82766510D01*
X85949500Y-82921153D01*
X85949500Y-83078846D01*
X85980261Y-83233489D01*
X85980263Y-83233497D01*
X86022567Y-83335628D01*
X86030036Y-83405098D01*
X85998761Y-83467577D01*
X85995688Y-83470762D01*
X85880165Y-83586285D01*
X85792564Y-83717388D01*
X85792557Y-83717401D01*
X85732219Y-83863072D01*
X85732216Y-83863084D01*
X85701455Y-84017727D01*
X71323946Y-84017727D01*
X71233501Y-83980264D01*
X71233489Y-83980261D01*
X71078845Y-83949500D01*
X71078842Y-83949500D01*
X70921158Y-83949500D01*
X70921155Y-83949500D01*
X70766510Y-83980261D01*
X70766498Y-83980264D01*
X70620827Y-84040602D01*
X70620814Y-84040609D01*
X70489711Y-84128210D01*
X70489707Y-84128213D01*
X70378213Y-84239707D01*
X70378210Y-84239711D01*
X70290609Y-84370814D01*
X70290602Y-84370827D01*
X70230264Y-84516498D01*
X70230261Y-84516510D01*
X70199500Y-84671153D01*
X68924897Y-84671153D01*
X68879185Y-84640609D01*
X68879172Y-84640602D01*
X68733501Y-84580264D01*
X68733489Y-84580261D01*
X68578845Y-84549500D01*
X68578842Y-84549500D01*
X68421158Y-84549500D01*
X68421155Y-84549500D01*
X68266510Y-84580261D01*
X68266498Y-84580264D01*
X68120827Y-84640602D01*
X68120814Y-84640609D01*
X67989711Y-84728210D01*
X67989707Y-84728213D01*
X67878213Y-84839707D01*
X67878210Y-84839711D01*
X67790609Y-84970814D01*
X67790602Y-84970827D01*
X67730264Y-85116498D01*
X67730261Y-85116510D01*
X67699500Y-85271153D01*
X67027165Y-85271153D01*
X67033189Y-85240874D01*
X67033189Y-85240873D01*
X67050499Y-85153846D01*
X67050500Y-85153844D01*
X67050500Y-84996155D01*
X67050499Y-84996153D01*
X67041219Y-84949500D01*
X67019737Y-84841503D01*
X67005018Y-84805968D01*
X66959397Y-84695827D01*
X66959390Y-84695814D01*
X66871789Y-84564711D01*
X66871786Y-84564707D01*
X66760292Y-84453213D01*
X66760288Y-84453210D01*
X66629185Y-84365609D01*
X66629172Y-84365602D01*
X66483501Y-84305264D01*
X66483489Y-84305261D01*
X66328845Y-84274500D01*
X66328842Y-84274500D01*
X66171158Y-84274500D01*
X66171155Y-84274500D01*
X66016510Y-84305261D01*
X66016498Y-84305264D01*
X65870827Y-84365602D01*
X65870814Y-84365609D01*
X65739711Y-84453210D01*
X65739707Y-84453213D01*
X65628213Y-84564707D01*
X65628210Y-84564711D01*
X65540609Y-84695814D01*
X65540602Y-84695827D01*
X65480264Y-84841498D01*
X65480261Y-84841510D01*
X65449500Y-84996153D01*
X61891366Y-84996153D01*
X61892658Y-84995896D01*
X61892661Y-84995894D01*
X61892666Y-84995894D01*
X62056547Y-84928013D01*
X62075111Y-84915609D01*
X62117982Y-84886964D01*
X62165739Y-84855052D01*
X62204035Y-84829464D01*
X62329464Y-84704035D01*
X62428013Y-84556547D01*
X62495894Y-84392666D01*
X62496823Y-84388000D01*
X62530499Y-84218695D01*
X62530500Y-84218693D01*
X62530500Y-84041306D01*
X62530499Y-84041304D01*
X62495896Y-83867341D01*
X62495893Y-83867332D01*
X62494133Y-83863084D01*
X62476701Y-83820997D01*
X62428016Y-83703459D01*
X62428009Y-83703446D01*
X62329464Y-83555965D01*
X62329461Y-83555961D01*
X62204038Y-83430538D01*
X62204034Y-83430535D01*
X62056553Y-83331990D01*
X62056540Y-83331983D01*
X61892667Y-83264106D01*
X61892658Y-83264103D01*
X61718694Y-83229500D01*
X61718691Y-83229500D01*
X61541309Y-83229500D01*
X61541306Y-83229500D01*
X61367341Y-83264103D01*
X61367332Y-83264106D01*
X61203459Y-83331983D01*
X61203446Y-83331990D01*
X61055965Y-83430535D01*
X61055961Y-83430538D01*
X60930538Y-83555961D01*
X60930535Y-83555965D01*
X60831990Y-83703446D01*
X60831983Y-83703459D01*
X60764106Y-83867332D01*
X60764103Y-83867341D01*
X60729500Y-84041304D01*
X57104032Y-84041304D01*
X57115894Y-84012666D01*
X57150500Y-83838691D01*
X57150500Y-83661309D01*
X57150500Y-83661306D01*
X57150499Y-83661304D01*
X57115896Y-83487341D01*
X57115893Y-83487332D01*
X57048016Y-83323459D01*
X57048009Y-83323446D01*
X56949464Y-83175965D01*
X56949461Y-83175961D01*
X56824038Y-83050538D01*
X56824034Y-83050535D01*
X56676553Y-82951990D01*
X56676540Y-82951983D01*
X56512667Y-82884106D01*
X56512658Y-82884103D01*
X56338694Y-82849500D01*
X56338691Y-82849500D01*
X56161309Y-82849500D01*
X56161306Y-82849500D01*
X55987341Y-82884103D01*
X55987332Y-82884106D01*
X55823459Y-82951983D01*
X55823446Y-82951990D01*
X55675965Y-83050535D01*
X55675961Y-83050538D01*
X55550538Y-83175961D01*
X55550535Y-83175965D01*
X55451990Y-83323446D01*
X55451983Y-83323459D01*
X55384106Y-83487332D01*
X55384103Y-83487341D01*
X55349500Y-83661304D01*
X40963000Y-83661304D01*
X40963000Y-83508658D01*
X40963000Y-83508655D01*
X40962999Y-83508653D01*
X40937243Y-83379172D01*
X40932237Y-83354003D01*
X40923116Y-83331983D01*
X40871897Y-83208327D01*
X40871890Y-83208314D01*
X40784289Y-83077211D01*
X40784286Y-83077207D01*
X40672792Y-82965713D01*
X40672788Y-82965710D01*
X40541685Y-82878109D01*
X40541672Y-82878102D01*
X40396001Y-82817764D01*
X40395989Y-82817761D01*
X40241345Y-82787000D01*
X40241342Y-82787000D01*
X40083658Y-82787000D01*
X40083655Y-82787000D01*
X39929010Y-82817761D01*
X39928998Y-82817764D01*
X39783327Y-82878102D01*
X39783314Y-82878109D01*
X39652211Y-82965710D01*
X39652207Y-82965713D01*
X39540713Y-83077207D01*
X39540710Y-83077211D01*
X39453109Y-83208314D01*
X39453102Y-83208327D01*
X39392764Y-83353998D01*
X39392761Y-83354010D01*
X39362000Y-83508653D01*
X34250500Y-83508653D01*
X34250500Y-81671153D01*
X106724500Y-81671153D01*
X106724500Y-81828846D01*
X106755261Y-81983489D01*
X106755264Y-81983501D01*
X106815602Y-82129172D01*
X106815609Y-82129185D01*
X106903210Y-82260288D01*
X106903213Y-82260292D01*
X107014707Y-82371786D01*
X107014711Y-82371789D01*
X107145814Y-82459390D01*
X107145827Y-82459397D01*
X107219013Y-82489711D01*
X107291503Y-82519737D01*
X107446153Y-82550499D01*
X107446156Y-82550500D01*
X107446158Y-82550500D01*
X107603844Y-82550500D01*
X107603845Y-82550499D01*
X107758497Y-82519737D01*
X107904179Y-82459394D01*
X108035289Y-82371789D01*
X108146789Y-82260289D01*
X108234394Y-82129179D01*
X108294737Y-81983497D01*
X108325500Y-81828842D01*
X108325500Y-81671158D01*
X108325500Y-81671155D01*
X108325499Y-81671153D01*
X108294738Y-81516510D01*
X108294737Y-81516503D01*
X108234794Y-81371786D01*
X108234397Y-81370827D01*
X108234390Y-81370814D01*
X108146789Y-81239711D01*
X108146786Y-81239707D01*
X108035292Y-81128213D01*
X108035288Y-81128210D01*
X107904185Y-81040609D01*
X107904172Y-81040602D01*
X107758501Y-80980264D01*
X107758489Y-80980261D01*
X107603845Y-80949500D01*
X107603842Y-80949500D01*
X107446158Y-80949500D01*
X107446155Y-80949500D01*
X107291510Y-80980261D01*
X107291498Y-80980264D01*
X107145827Y-81040602D01*
X107145814Y-81040609D01*
X107014711Y-81128210D01*
X107014707Y-81128213D01*
X106903213Y-81239707D01*
X106903210Y-81239711D01*
X106815609Y-81370814D01*
X106815602Y-81370827D01*
X106755264Y-81516498D01*
X106755261Y-81516510D01*
X106724500Y-81671153D01*
X34250500Y-81671153D01*
X34250500Y-80671153D01*
X63449500Y-80671153D01*
X63449500Y-80828846D01*
X63480261Y-80983489D01*
X63480264Y-80983501D01*
X63540602Y-81129172D01*
X63540609Y-81129185D01*
X63628210Y-81260288D01*
X63628213Y-81260292D01*
X63739707Y-81371786D01*
X63739711Y-81371789D01*
X63870814Y-81459390D01*
X63870827Y-81459397D01*
X64008683Y-81516498D01*
X64016503Y-81519737D01*
X64171153Y-81550499D01*
X64171156Y-81550500D01*
X64171158Y-81550500D01*
X64328844Y-81550500D01*
X64328845Y-81550499D01*
X64339179Y-81548443D01*
X64364287Y-81543450D01*
X64364292Y-81543449D01*
X64449800Y-81526439D01*
X64483497Y-81519737D01*
X64629179Y-81459394D01*
X64760289Y-81371789D01*
X64871789Y-81260289D01*
X64959394Y-81129179D01*
X65019737Y-80983497D01*
X65050500Y-80828842D01*
X65050500Y-80671158D01*
X65050500Y-80671155D01*
X65050499Y-80671153D01*
X65019738Y-80516510D01*
X65019737Y-80516503D01*
X64980242Y-80421153D01*
X69199500Y-80421153D01*
X69199500Y-80578846D01*
X69230261Y-80733489D01*
X69230264Y-80733501D01*
X69290602Y-80879172D01*
X69290609Y-80879185D01*
X69378210Y-81010288D01*
X69378213Y-81010292D01*
X69489707Y-81121786D01*
X69489711Y-81121789D01*
X69620814Y-81209390D01*
X69620827Y-81209397D01*
X69766498Y-81269735D01*
X69766503Y-81269737D01*
X69921153Y-81300499D01*
X69921156Y-81300500D01*
X69921158Y-81300500D01*
X70078844Y-81300500D01*
X70078845Y-81300499D01*
X70233497Y-81269737D01*
X70379179Y-81209394D01*
X70510289Y-81121789D01*
X70621789Y-81010289D01*
X70709394Y-80879179D01*
X70769737Y-80733497D01*
X70800500Y-80578842D01*
X70800500Y-80421158D01*
X70800500Y-80421155D01*
X70800499Y-80421153D01*
X71112000Y-80421153D01*
X71112000Y-80578846D01*
X71142761Y-80733489D01*
X71142764Y-80733501D01*
X71203102Y-80879172D01*
X71203109Y-80879185D01*
X71290710Y-81010288D01*
X71290713Y-81010292D01*
X71402207Y-81121786D01*
X71402211Y-81121789D01*
X71533314Y-81209390D01*
X71533327Y-81209397D01*
X71678998Y-81269735D01*
X71679003Y-81269737D01*
X71833653Y-81300499D01*
X71833656Y-81300500D01*
X71833658Y-81300500D01*
X71991344Y-81300500D01*
X71991345Y-81300499D01*
X72145997Y-81269737D01*
X72291679Y-81209394D01*
X72422789Y-81121789D01*
X72534289Y-81010289D01*
X72621894Y-80879179D01*
X72682237Y-80733497D01*
X72713000Y-80578842D01*
X72713000Y-80421158D01*
X72713000Y-80421155D01*
X72712999Y-80421153D01*
X72682238Y-80266510D01*
X72682237Y-80266503D01*
X72682235Y-80266498D01*
X72621897Y-80120827D01*
X72621890Y-80120814D01*
X72534289Y-79989711D01*
X72534286Y-79989707D01*
X72422792Y-79878213D01*
X72422788Y-79878210D01*
X72291685Y-79790609D01*
X72291672Y-79790602D01*
X72146001Y-79730264D01*
X72145989Y-79730261D01*
X71991345Y-79699500D01*
X71991342Y-79699500D01*
X71833658Y-79699500D01*
X71833655Y-79699500D01*
X71679010Y-79730261D01*
X71678998Y-79730264D01*
X71533327Y-79790602D01*
X71533314Y-79790609D01*
X71402211Y-79878210D01*
X71402207Y-79878213D01*
X71290713Y-79989707D01*
X71290710Y-79989711D01*
X71203109Y-80120814D01*
X71203102Y-80120827D01*
X71142764Y-80266498D01*
X71142761Y-80266510D01*
X71112000Y-80421153D01*
X70800499Y-80421153D01*
X70769738Y-80266510D01*
X70769737Y-80266503D01*
X70769735Y-80266498D01*
X70709397Y-80120827D01*
X70709390Y-80120814D01*
X70621789Y-79989711D01*
X70621786Y-79989707D01*
X70510292Y-79878213D01*
X70510288Y-79878210D01*
X70379185Y-79790609D01*
X70379172Y-79790602D01*
X70233501Y-79730264D01*
X70233489Y-79730261D01*
X70078845Y-79699500D01*
X70078842Y-79699500D01*
X69921158Y-79699500D01*
X69921155Y-79699500D01*
X69766510Y-79730261D01*
X69766498Y-79730264D01*
X69620827Y-79790602D01*
X69620814Y-79790609D01*
X69489711Y-79878210D01*
X69489707Y-79878213D01*
X69378213Y-79989707D01*
X69378210Y-79989711D01*
X69290609Y-80120814D01*
X69290602Y-80120827D01*
X69230264Y-80266498D01*
X69230261Y-80266510D01*
X69199500Y-80421153D01*
X64980242Y-80421153D01*
X64979933Y-80420408D01*
X64959397Y-80370827D01*
X64959390Y-80370814D01*
X64871789Y-80239711D01*
X64871786Y-80239707D01*
X64760292Y-80128213D01*
X64760288Y-80128210D01*
X64629185Y-80040609D01*
X64629172Y-80040602D01*
X64483501Y-79980264D01*
X64483489Y-79980261D01*
X64328845Y-79949500D01*
X64328842Y-79949500D01*
X64171158Y-79949500D01*
X64171155Y-79949500D01*
X64016510Y-79980261D01*
X64016498Y-79980264D01*
X63870827Y-80040602D01*
X63870814Y-80040609D01*
X63739711Y-80128210D01*
X63739707Y-80128213D01*
X63628213Y-80239707D01*
X63628210Y-80239711D01*
X63540609Y-80370814D01*
X63540602Y-80370827D01*
X63480264Y-80516498D01*
X63480261Y-80516510D01*
X63449500Y-80671153D01*
X34250500Y-80671153D01*
X34250500Y-79171153D01*
X52699500Y-79171153D01*
X52699500Y-79328846D01*
X52730261Y-79483489D01*
X52730264Y-79483501D01*
X52790602Y-79629172D01*
X52790609Y-79629185D01*
X52878210Y-79760288D01*
X52878213Y-79760292D01*
X52989707Y-79871786D01*
X52989711Y-79871789D01*
X53120814Y-79959390D01*
X53120827Y-79959397D01*
X53194013Y-79989711D01*
X53266503Y-80019737D01*
X53421153Y-80050499D01*
X53421156Y-80050500D01*
X53421158Y-80050500D01*
X53578844Y-80050500D01*
X53578845Y-80050499D01*
X53733497Y-80019737D01*
X53879179Y-79959394D01*
X54010289Y-79871789D01*
X54121789Y-79760289D01*
X54209394Y-79629179D01*
X54269737Y-79483497D01*
X54300500Y-79328842D01*
X54300500Y-79171158D01*
X54300500Y-79171155D01*
X54300499Y-79171153D01*
X54269738Y-79016510D01*
X54269737Y-79016503D01*
X54269735Y-79016498D01*
X54209397Y-78870827D01*
X54209390Y-78870814D01*
X54121789Y-78739711D01*
X54121786Y-78739707D01*
X54010292Y-78628213D01*
X54010288Y-78628210D01*
X53879185Y-78540609D01*
X53879172Y-78540602D01*
X53733501Y-78480264D01*
X53733489Y-78480261D01*
X53578845Y-78449500D01*
X53578842Y-78449500D01*
X53421158Y-78449500D01*
X53421155Y-78449500D01*
X53266510Y-78480261D01*
X53266498Y-78480264D01*
X53120827Y-78540602D01*
X53120814Y-78540609D01*
X52989711Y-78628210D01*
X52989707Y-78628213D01*
X52878213Y-78739707D01*
X52878210Y-78739711D01*
X52790609Y-78870814D01*
X52790602Y-78870827D01*
X52730264Y-79016498D01*
X52730261Y-79016510D01*
X52699500Y-79171153D01*
X34250500Y-79171153D01*
X34250500Y-77671153D01*
X66199500Y-77671153D01*
X66199500Y-77828846D01*
X66230261Y-77983489D01*
X66230264Y-77983501D01*
X66290602Y-78129172D01*
X66290609Y-78129185D01*
X66378210Y-78260288D01*
X66378213Y-78260292D01*
X66489707Y-78371786D01*
X66489711Y-78371789D01*
X66620814Y-78459390D01*
X66620827Y-78459397D01*
X66766498Y-78519735D01*
X66766503Y-78519737D01*
X66921153Y-78550499D01*
X66921156Y-78550500D01*
X66921158Y-78550500D01*
X67078844Y-78550500D01*
X67078845Y-78550499D01*
X67233497Y-78519737D01*
X67379179Y-78459394D01*
X67510289Y-78371789D01*
X67621789Y-78260289D01*
X67709394Y-78129179D01*
X67769737Y-77983497D01*
X67800500Y-77828842D01*
X67800500Y-77671158D01*
X67800500Y-77671155D01*
X67800499Y-77671153D01*
X67769738Y-77516510D01*
X67769737Y-77516503D01*
X67769735Y-77516498D01*
X67709397Y-77370827D01*
X67709390Y-77370814D01*
X67621789Y-77239711D01*
X67621786Y-77239707D01*
X67510292Y-77128213D01*
X67510288Y-77128210D01*
X67379185Y-77040609D01*
X67379172Y-77040602D01*
X67233501Y-76980264D01*
X67233489Y-76980261D01*
X67078845Y-76949500D01*
X67078842Y-76949500D01*
X66921158Y-76949500D01*
X66921155Y-76949500D01*
X66766510Y-76980261D01*
X66766498Y-76980264D01*
X66620827Y-77040602D01*
X66620814Y-77040609D01*
X66489711Y-77128210D01*
X66489707Y-77128213D01*
X66378213Y-77239707D01*
X66378210Y-77239711D01*
X66290609Y-77370814D01*
X66290602Y-77370827D01*
X66230264Y-77516498D01*
X66230261Y-77516510D01*
X66199500Y-77671153D01*
X34250500Y-77671153D01*
X34250500Y-76171153D01*
X69699500Y-76171153D01*
X69699500Y-76328846D01*
X69730261Y-76483489D01*
X69730264Y-76483501D01*
X69790602Y-76629172D01*
X69790609Y-76629185D01*
X69878210Y-76760288D01*
X69878213Y-76760292D01*
X69989707Y-76871786D01*
X69989711Y-76871789D01*
X70120814Y-76959390D01*
X70120827Y-76959397D01*
X70266498Y-77019735D01*
X70266503Y-77019737D01*
X70421153Y-77050499D01*
X70421156Y-77050500D01*
X70421158Y-77050500D01*
X70578844Y-77050500D01*
X70578845Y-77050499D01*
X70733497Y-77019737D01*
X70879179Y-76959394D01*
X71010289Y-76871789D01*
X71121789Y-76760289D01*
X71209394Y-76629179D01*
X71269737Y-76483497D01*
X71300500Y-76328842D01*
X71300500Y-76171158D01*
X71300500Y-76171155D01*
X71300499Y-76171153D01*
X74199500Y-76171153D01*
X74199500Y-76328846D01*
X74230261Y-76483489D01*
X74230264Y-76483501D01*
X74290602Y-76629172D01*
X74290609Y-76629185D01*
X74378210Y-76760288D01*
X74378213Y-76760292D01*
X74489707Y-76871786D01*
X74489711Y-76871789D01*
X74620814Y-76959390D01*
X74620827Y-76959397D01*
X74766498Y-77019735D01*
X74766503Y-77019737D01*
X74921153Y-77050499D01*
X74921156Y-77050500D01*
X74921158Y-77050500D01*
X75078844Y-77050500D01*
X75078845Y-77050499D01*
X75233497Y-77019737D01*
X75379179Y-76959394D01*
X75510289Y-76871789D01*
X75621789Y-76760289D01*
X75709394Y-76629179D01*
X75769737Y-76483497D01*
X75800500Y-76328842D01*
X75800500Y-76171158D01*
X75800500Y-76171155D01*
X75800499Y-76171153D01*
X75769738Y-76016510D01*
X75769737Y-76016503D01*
X75769735Y-76016498D01*
X75709397Y-75870827D01*
X75709390Y-75870814D01*
X75621789Y-75739711D01*
X75621786Y-75739707D01*
X75510292Y-75628213D01*
X75510288Y-75628210D01*
X75379185Y-75540609D01*
X75379172Y-75540602D01*
X75233501Y-75480264D01*
X75233489Y-75480261D01*
X75078845Y-75449500D01*
X75078842Y-75449500D01*
X74921158Y-75449500D01*
X74921155Y-75449500D01*
X74766510Y-75480261D01*
X74766498Y-75480264D01*
X74620827Y-75540602D01*
X74620814Y-75540609D01*
X74489711Y-75628210D01*
X74489707Y-75628213D01*
X74378213Y-75739707D01*
X74378210Y-75739711D01*
X74290609Y-75870814D01*
X74290602Y-75870827D01*
X74230264Y-76016498D01*
X74230261Y-76016510D01*
X74199500Y-76171153D01*
X71300499Y-76171153D01*
X71269738Y-76016510D01*
X71269737Y-76016503D01*
X71269735Y-76016498D01*
X71209397Y-75870827D01*
X71209390Y-75870814D01*
X71121789Y-75739711D01*
X71121786Y-75739707D01*
X71010292Y-75628213D01*
X71010288Y-75628210D01*
X70879185Y-75540609D01*
X70879172Y-75540602D01*
X70733501Y-75480264D01*
X70733489Y-75480261D01*
X70578845Y-75449500D01*
X70578842Y-75449500D01*
X70421158Y-75449500D01*
X70421155Y-75449500D01*
X70266510Y-75480261D01*
X70266498Y-75480264D01*
X70120827Y-75540602D01*
X70120814Y-75540609D01*
X69989711Y-75628210D01*
X69989707Y-75628213D01*
X69878213Y-75739707D01*
X69878210Y-75739711D01*
X69790609Y-75870814D01*
X69790602Y-75870827D01*
X69730264Y-76016498D01*
X69730261Y-76016510D01*
X69699500Y-76171153D01*
X34250500Y-76171153D01*
X34250500Y-70950000D01*
X36425000Y-70950000D01*
X38515000Y-70950000D01*
X38515000Y-69050000D01*
X36425000Y-69050000D01*
X36425000Y-70950000D01*
X34250500Y-70950000D01*
X34250500Y-63661304D01*
X37099500Y-63661304D01*
X37099500Y-63838695D01*
X37134103Y-64012658D01*
X37134106Y-64012667D01*
X37201983Y-64176540D01*
X37201990Y-64176553D01*
X37288557Y-64306109D01*
X37309435Y-64372787D01*
X37290950Y-64440167D01*
X37288557Y-64443891D01*
X37201990Y-64573446D01*
X37201983Y-64573459D01*
X37134106Y-64737332D01*
X37134103Y-64737341D01*
X37099500Y-64911304D01*
X37099500Y-65088695D01*
X37134103Y-65262658D01*
X37134106Y-65262667D01*
X37201983Y-65426540D01*
X37201990Y-65426553D01*
X37300535Y-65574034D01*
X37300538Y-65574038D01*
X37388819Y-65662319D01*
X37422304Y-65723642D01*
X37417320Y-65793334D01*
X37388819Y-65837681D01*
X37300538Y-65925961D01*
X37300535Y-65925965D01*
X37201990Y-66073446D01*
X37201983Y-66073459D01*
X37134106Y-66237332D01*
X37134103Y-66237341D01*
X37099500Y-66411304D01*
X37099500Y-66588695D01*
X37134103Y-66762658D01*
X37134106Y-66762667D01*
X37201983Y-66926540D01*
X37201990Y-66926553D01*
X37300535Y-67074034D01*
X37300538Y-67074038D01*
X37425961Y-67199461D01*
X37425965Y-67199464D01*
X37573446Y-67298009D01*
X37573459Y-67298016D01*
X37662553Y-67334919D01*
X37737334Y-67365894D01*
X37737336Y-67365894D01*
X37737341Y-67365896D01*
X37911304Y-67400499D01*
X37911307Y-67400500D01*
X37911309Y-67400500D01*
X38088693Y-67400500D01*
X38088694Y-67400499D01*
X38171109Y-67384106D01*
X38262658Y-67365896D01*
X38262661Y-67365894D01*
X38262666Y-67365894D01*
X38426547Y-67298013D01*
X38574035Y-67199464D01*
X38699464Y-67074035D01*
X38798013Y-66926547D01*
X38865894Y-66762666D01*
X38876492Y-66709390D01*
X38900499Y-66588695D01*
X38900500Y-66588693D01*
X38900500Y-66411306D01*
X38900499Y-66411304D01*
X38865896Y-66237341D01*
X38865893Y-66237332D01*
X38798016Y-66073459D01*
X38798009Y-66073446D01*
X38699464Y-65925965D01*
X38699461Y-65925961D01*
X38611181Y-65837681D01*
X38577696Y-65776358D01*
X38582680Y-65706666D01*
X38611181Y-65662319D01*
X38699461Y-65574038D01*
X38699464Y-65574035D01*
X38798013Y-65426547D01*
X38865894Y-65262666D01*
X38866367Y-65260292D01*
X38893917Y-65121786D01*
X38900500Y-65088691D01*
X38900500Y-64911309D01*
X38900500Y-64911306D01*
X38900499Y-64911304D01*
X38865896Y-64737341D01*
X38865893Y-64737332D01*
X38864302Y-64733492D01*
X38848604Y-64695592D01*
X38798016Y-64573459D01*
X38798014Y-64573455D01*
X38798013Y-64573453D01*
X38711442Y-64443891D01*
X38690564Y-64377214D01*
X38709048Y-64309834D01*
X38711442Y-64306109D01*
X38755808Y-64239711D01*
X38798013Y-64176547D01*
X38865894Y-64012666D01*
X38872340Y-63980263D01*
X38900499Y-63838695D01*
X38900500Y-63838693D01*
X38900500Y-63774500D01*
X38920185Y-63707461D01*
X38972989Y-63661706D01*
X39024500Y-63650500D01*
X39088693Y-63650500D01*
X39088694Y-63650499D01*
X39194466Y-63629460D01*
X39262658Y-63615896D01*
X39262661Y-63615894D01*
X39262666Y-63615894D01*
X39419273Y-63551026D01*
X39426540Y-63548016D01*
X39426540Y-63548015D01*
X39426547Y-63548013D01*
X39426552Y-63548009D01*
X39426555Y-63548008D01*
X39482080Y-63510907D01*
X39548757Y-63490028D01*
X39616138Y-63508512D01*
X39662828Y-63560490D01*
X39674005Y-63629460D01*
X39665534Y-63661459D01*
X39634105Y-63737337D01*
X39634103Y-63737341D01*
X39599500Y-63911304D01*
X39599500Y-64088695D01*
X39634103Y-64262658D01*
X39634105Y-64262662D01*
X39634106Y-64262666D01*
X39657553Y-64319272D01*
X39698974Y-64419275D01*
X39706442Y-64488744D01*
X39675166Y-64551223D01*
X39672093Y-64554407D01*
X39550538Y-64675961D01*
X39550535Y-64675965D01*
X39451990Y-64823446D01*
X39451983Y-64823459D01*
X39384106Y-64987332D01*
X39384103Y-64987341D01*
X39349500Y-65161304D01*
X39349500Y-65338695D01*
X39384103Y-65512658D01*
X39384106Y-65512667D01*
X39451983Y-65676540D01*
X39451990Y-65676553D01*
X39538557Y-65806109D01*
X39559435Y-65872787D01*
X39540950Y-65940167D01*
X39538557Y-65943891D01*
X39451990Y-66073446D01*
X39451983Y-66073459D01*
X39384106Y-66237332D01*
X39384103Y-66237341D01*
X39349500Y-66411304D01*
X39349500Y-66588695D01*
X39384103Y-66762658D01*
X39384106Y-66762667D01*
X39451983Y-66926540D01*
X39451990Y-66926553D01*
X39550535Y-67074034D01*
X39550538Y-67074038D01*
X39675961Y-67199461D01*
X39675965Y-67199464D01*
X39784368Y-67271898D01*
X39829173Y-67325511D01*
X39837880Y-67394836D01*
X39807725Y-67457863D01*
X39784368Y-67478102D01*
X39675965Y-67550535D01*
X39675961Y-67550538D01*
X39550538Y-67675961D01*
X39550535Y-67675965D01*
X39451990Y-67823446D01*
X39451983Y-67823459D01*
X39384106Y-67987332D01*
X39384103Y-67987341D01*
X39349500Y-68161304D01*
X39349500Y-68338695D01*
X39384103Y-68512658D01*
X39384106Y-68512667D01*
X39451983Y-68676540D01*
X39451990Y-68676553D01*
X39550535Y-68824034D01*
X39550538Y-68824038D01*
X39675961Y-68949461D01*
X39675965Y-68949464D01*
X39823446Y-69048009D01*
X39823459Y-69048016D01*
X39946363Y-69098923D01*
X39987334Y-69115894D01*
X39987336Y-69115894D01*
X39987341Y-69115896D01*
X40161304Y-69150499D01*
X40161307Y-69150500D01*
X40161309Y-69150500D01*
X40338693Y-69150500D01*
X40338694Y-69150499D01*
X40396682Y-69138964D01*
X40512658Y-69115896D01*
X40512661Y-69115894D01*
X40512666Y-69115894D01*
X40676547Y-69048013D01*
X40824035Y-68949464D01*
X40949464Y-68824035D01*
X41048013Y-68676547D01*
X41115894Y-68512666D01*
X41150500Y-68338691D01*
X41150500Y-68161309D01*
X41150500Y-68161306D01*
X41150499Y-68161304D01*
X41115896Y-67987341D01*
X41115894Y-67987336D01*
X41115894Y-67987334D01*
X41084402Y-67911304D01*
X97659500Y-67911304D01*
X97659500Y-68088695D01*
X97694103Y-68262658D01*
X97694106Y-68262667D01*
X97761983Y-68426540D01*
X97761990Y-68426553D01*
X97860535Y-68574034D01*
X97860538Y-68574038D01*
X97985961Y-68699461D01*
X97985965Y-68699464D01*
X98133446Y-68798009D01*
X98133459Y-68798016D01*
X98256363Y-68848923D01*
X98297334Y-68865894D01*
X98297336Y-68865894D01*
X98297341Y-68865896D01*
X98471304Y-68900499D01*
X98471307Y-68900500D01*
X98471309Y-68900500D01*
X98648693Y-68900500D01*
X98648694Y-68900499D01*
X98706682Y-68888964D01*
X98822658Y-68865896D01*
X98822661Y-68865894D01*
X98822666Y-68865894D01*
X98986547Y-68798013D01*
X99134035Y-68699464D01*
X99259464Y-68574035D01*
X99358013Y-68426547D01*
X99425894Y-68262666D01*
X99434597Y-68218917D01*
X99460499Y-68088695D01*
X99460500Y-68088693D01*
X99460500Y-67911306D01*
X99460499Y-67911304D01*
X101859500Y-67911304D01*
X101859500Y-68088695D01*
X101894103Y-68262658D01*
X101894106Y-68262667D01*
X101961983Y-68426540D01*
X101961990Y-68426553D01*
X102060535Y-68574034D01*
X102060538Y-68574038D01*
X102185961Y-68699461D01*
X102185965Y-68699464D01*
X102333446Y-68798009D01*
X102333459Y-68798016D01*
X102456363Y-68848923D01*
X102497334Y-68865894D01*
X102497336Y-68865894D01*
X102497341Y-68865896D01*
X102671304Y-68900499D01*
X102671307Y-68900500D01*
X102671309Y-68900500D01*
X102848693Y-68900500D01*
X102848694Y-68900499D01*
X102906682Y-68888964D01*
X103022658Y-68865896D01*
X103022661Y-68865894D01*
X103022666Y-68865894D01*
X103186547Y-68798013D01*
X103334035Y-68699464D01*
X103459464Y-68574035D01*
X103558013Y-68426547D01*
X103625894Y-68262666D01*
X103634597Y-68218917D01*
X103660499Y-68088695D01*
X103660500Y-68088693D01*
X103660500Y-68073920D01*
X109499499Y-68073920D01*
X109528340Y-68218907D01*
X109528343Y-68218917D01*
X109584912Y-68355488D01*
X109584919Y-68355501D01*
X109667048Y-68478415D01*
X109667051Y-68478419D01*
X109771580Y-68582948D01*
X109771584Y-68582951D01*
X109894498Y-68665080D01*
X109894511Y-68665087D01*
X110031082Y-68721656D01*
X110031087Y-68721658D01*
X110031091Y-68721658D01*
X110031092Y-68721659D01*
X110176079Y-68750500D01*
X110176082Y-68750500D01*
X110323920Y-68750500D01*
X110421462Y-68731096D01*
X110468913Y-68721658D01*
X110605495Y-68665084D01*
X110728416Y-68582951D01*
X110832951Y-68478416D01*
X110915084Y-68355495D01*
X110971658Y-68218913D01*
X110997561Y-68088693D01*
X111000500Y-68073920D01*
X111000500Y-67926079D01*
X110971659Y-67781092D01*
X110971658Y-67781091D01*
X110971658Y-67781087D01*
X110953534Y-67737332D01*
X110915087Y-67644511D01*
X110915080Y-67644498D01*
X110832951Y-67521584D01*
X110832948Y-67521580D01*
X110728419Y-67417051D01*
X110728415Y-67417048D01*
X110605501Y-67334919D01*
X110605488Y-67334912D01*
X110468917Y-67278343D01*
X110468907Y-67278340D01*
X110323920Y-67249500D01*
X110323918Y-67249500D01*
X110176082Y-67249500D01*
X110176080Y-67249500D01*
X110031092Y-67278340D01*
X110031082Y-67278343D01*
X109894511Y-67334912D01*
X109894498Y-67334919D01*
X109771584Y-67417048D01*
X109771580Y-67417051D01*
X109667051Y-67521580D01*
X109667048Y-67521584D01*
X109584919Y-67644498D01*
X109584912Y-67644511D01*
X109528343Y-67781082D01*
X109528340Y-67781092D01*
X109499500Y-67926079D01*
X109499500Y-67926082D01*
X109499500Y-68073918D01*
X109499500Y-68073920D01*
X109499499Y-68073920D01*
X103660500Y-68073920D01*
X103660500Y-67911306D01*
X103660499Y-67911304D01*
X103625896Y-67737341D01*
X103625893Y-67737332D01*
X103558016Y-67573459D01*
X103558009Y-67573446D01*
X103459464Y-67425965D01*
X103459461Y-67425961D01*
X103334038Y-67300538D01*
X103334034Y-67300535D01*
X103186553Y-67201990D01*
X103186540Y-67201983D01*
X103022667Y-67134106D01*
X103022658Y-67134103D01*
X102848694Y-67099500D01*
X102848691Y-67099500D01*
X102671309Y-67099500D01*
X102671306Y-67099500D01*
X102497341Y-67134103D01*
X102497332Y-67134106D01*
X102333459Y-67201983D01*
X102333446Y-67201990D01*
X102185965Y-67300535D01*
X102185961Y-67300538D01*
X102060538Y-67425961D01*
X102060535Y-67425965D01*
X101961990Y-67573446D01*
X101961983Y-67573459D01*
X101894106Y-67737332D01*
X101894103Y-67737341D01*
X101859500Y-67911304D01*
X99460499Y-67911304D01*
X99425896Y-67737341D01*
X99425893Y-67737332D01*
X99358016Y-67573459D01*
X99358009Y-67573446D01*
X99259464Y-67425965D01*
X99259461Y-67425961D01*
X99134038Y-67300538D01*
X99134034Y-67300535D01*
X98986553Y-67201990D01*
X98986540Y-67201983D01*
X98822667Y-67134106D01*
X98822658Y-67134103D01*
X98648694Y-67099500D01*
X98648691Y-67099500D01*
X98471309Y-67099500D01*
X98471306Y-67099500D01*
X98297341Y-67134103D01*
X98297332Y-67134106D01*
X98133459Y-67201983D01*
X98133446Y-67201990D01*
X97985965Y-67300535D01*
X97985961Y-67300538D01*
X97860538Y-67425961D01*
X97860535Y-67425965D01*
X97761990Y-67573446D01*
X97761983Y-67573459D01*
X97694106Y-67737332D01*
X97694103Y-67737341D01*
X97659500Y-67911304D01*
X41084402Y-67911304D01*
X41048013Y-67823453D01*
X41048011Y-67823450D01*
X41048009Y-67823446D01*
X40949464Y-67675965D01*
X40949461Y-67675961D01*
X40824038Y-67550538D01*
X40824034Y-67550535D01*
X40715631Y-67478102D01*
X40670826Y-67424490D01*
X40662119Y-67355165D01*
X40692274Y-67292137D01*
X40715631Y-67271898D01*
X40749151Y-67249500D01*
X40824035Y-67199464D01*
X40949464Y-67074035D01*
X41048013Y-66926547D01*
X41115894Y-66762666D01*
X41126492Y-66709390D01*
X41150499Y-66588695D01*
X41150500Y-66588693D01*
X41150500Y-66411306D01*
X41150499Y-66411304D01*
X41115896Y-66237341D01*
X41115893Y-66237332D01*
X41048016Y-66073459D01*
X41048009Y-66073446D01*
X40988214Y-65983957D01*
X40988214Y-65983956D01*
X40961443Y-65943892D01*
X40954323Y-65921153D01*
X59449500Y-65921153D01*
X59449500Y-66078846D01*
X59480261Y-66233489D01*
X59480264Y-66233501D01*
X59540602Y-66379172D01*
X59540609Y-66379185D01*
X59628210Y-66510288D01*
X59628213Y-66510292D01*
X59739707Y-66621786D01*
X59739711Y-66621789D01*
X59870814Y-66709390D01*
X59870827Y-66709397D01*
X59999432Y-66762666D01*
X60016503Y-66769737D01*
X60171153Y-66800499D01*
X60171156Y-66800500D01*
X60171158Y-66800500D01*
X60328844Y-66800500D01*
X60328845Y-66800499D01*
X60483497Y-66769737D01*
X60629179Y-66709394D01*
X60760289Y-66621789D01*
X60871789Y-66510289D01*
X60959394Y-66379179D01*
X61019737Y-66233497D01*
X61050500Y-66078842D01*
X61050500Y-65921158D01*
X61050500Y-65921155D01*
X61050499Y-65921153D01*
X61041759Y-65877215D01*
X61019737Y-65766503D01*
X60982479Y-65676553D01*
X60959397Y-65620827D01*
X60959390Y-65620814D01*
X60871789Y-65489711D01*
X60871786Y-65489707D01*
X60760292Y-65378213D01*
X60760288Y-65378210D01*
X60629185Y-65290609D01*
X60629172Y-65290602D01*
X60483501Y-65230264D01*
X60483489Y-65230261D01*
X60328845Y-65199500D01*
X60328842Y-65199500D01*
X60171158Y-65199500D01*
X60171155Y-65199500D01*
X60016510Y-65230261D01*
X60016498Y-65230264D01*
X59870827Y-65290602D01*
X59870814Y-65290609D01*
X59739711Y-65378210D01*
X59739707Y-65378213D01*
X59628213Y-65489707D01*
X59628210Y-65489711D01*
X59540609Y-65620814D01*
X59540602Y-65620827D01*
X59480264Y-65766498D01*
X59480261Y-65766510D01*
X59449500Y-65921153D01*
X40954323Y-65921153D01*
X40940564Y-65877215D01*
X40959048Y-65809835D01*
X40961442Y-65806109D01*
X41032700Y-65699464D01*
X41048013Y-65676547D01*
X41115894Y-65512666D01*
X41119053Y-65496789D01*
X41141231Y-65385288D01*
X41150500Y-65338691D01*
X41150500Y-65161309D01*
X41150500Y-65161306D01*
X41150499Y-65161304D01*
X41115896Y-64987341D01*
X41115893Y-64987332D01*
X41051026Y-64830726D01*
X41043557Y-64761257D01*
X41074833Y-64698778D01*
X41077878Y-64695620D01*
X41199464Y-64574035D01*
X41298013Y-64426547D01*
X41365894Y-64262666D01*
X41367775Y-64253213D01*
X41390170Y-64140622D01*
X41400500Y-64088691D01*
X41400500Y-63989969D01*
X41420185Y-63922930D01*
X41472989Y-63877175D01*
X41500304Y-63868352D01*
X41512666Y-63865894D01*
X41523870Y-63861253D01*
X44481399Y-63861253D01*
X44481399Y-64018946D01*
X44512160Y-64173589D01*
X44512163Y-64173601D01*
X44572501Y-64319272D01*
X44572508Y-64319285D01*
X44660109Y-64450388D01*
X44660112Y-64450392D01*
X44771606Y-64561886D01*
X44771610Y-64561889D01*
X44902713Y-64649490D01*
X44902726Y-64649497D01*
X45014011Y-64695592D01*
X45048402Y-64709837D01*
X45186628Y-64737332D01*
X45203052Y-64740599D01*
X45203055Y-64740600D01*
X45203057Y-64740600D01*
X45360743Y-64740600D01*
X45360744Y-64740599D01*
X45515396Y-64709837D01*
X45661078Y-64649494D01*
X45792188Y-64561889D01*
X45903688Y-64450389D01*
X45991293Y-64319279D01*
X46051636Y-64173597D01*
X46082399Y-64018942D01*
X46082399Y-63861258D01*
X46082399Y-63861255D01*
X46082398Y-63861253D01*
X46077911Y-63838695D01*
X46051636Y-63706603D01*
X46039189Y-63676553D01*
X45991296Y-63560927D01*
X45991289Y-63560914D01*
X45903688Y-63429811D01*
X45903685Y-63429807D01*
X45792191Y-63318313D01*
X45792187Y-63318310D01*
X45702405Y-63258319D01*
X45702403Y-63258317D01*
X45661089Y-63230712D01*
X45661071Y-63230702D01*
X45515400Y-63170364D01*
X45515388Y-63170361D01*
X45469856Y-63161304D01*
X56599500Y-63161304D01*
X56599500Y-63338695D01*
X56634103Y-63512658D01*
X56634106Y-63512667D01*
X56701983Y-63676540D01*
X56701990Y-63676553D01*
X56800535Y-63824034D01*
X56800538Y-63824038D01*
X56925961Y-63949461D01*
X56925969Y-63949467D01*
X56986732Y-63990068D01*
X57031538Y-64043680D01*
X57040245Y-64113005D01*
X57032403Y-64140622D01*
X56980264Y-64266498D01*
X56980261Y-64266510D01*
X56949500Y-64421153D01*
X56949500Y-64578846D01*
X56980261Y-64733489D01*
X56980264Y-64733501D01*
X57040602Y-64879172D01*
X57040609Y-64879185D01*
X57128210Y-65010288D01*
X57128213Y-65010292D01*
X57239707Y-65121786D01*
X57239711Y-65121789D01*
X57370814Y-65209390D01*
X57370827Y-65209397D01*
X57499432Y-65262666D01*
X57516503Y-65269737D01*
X57671153Y-65300499D01*
X57671156Y-65300500D01*
X57671158Y-65300500D01*
X57828844Y-65300500D01*
X57828845Y-65300499D01*
X57983497Y-65269737D01*
X58129179Y-65209394D01*
X58260289Y-65121789D01*
X58371789Y-65010289D01*
X58459394Y-64879179D01*
X58479464Y-64830726D01*
X58493784Y-64796153D01*
X71574500Y-64796153D01*
X71574500Y-64953846D01*
X71605261Y-65108489D01*
X71605264Y-65108501D01*
X71665602Y-65254172D01*
X71665609Y-65254185D01*
X71753210Y-65385288D01*
X71753213Y-65385292D01*
X71864707Y-65496786D01*
X71864711Y-65496789D01*
X71995814Y-65584390D01*
X71995827Y-65584397D01*
X72141498Y-65644735D01*
X72141503Y-65644737D01*
X72296153Y-65675499D01*
X72296156Y-65675500D01*
X72296158Y-65675500D01*
X72453844Y-65675500D01*
X72453845Y-65675499D01*
X72608497Y-65644737D01*
X72754179Y-65584394D01*
X72885289Y-65496789D01*
X72996789Y-65385289D01*
X73084394Y-65254179D01*
X73144737Y-65108497D01*
X73175500Y-64953842D01*
X73175500Y-64796158D01*
X73175500Y-64796155D01*
X73154236Y-64689258D01*
X73150635Y-64671153D01*
X83699500Y-64671153D01*
X83699500Y-64828846D01*
X83730261Y-64983489D01*
X83730264Y-64983501D01*
X83790602Y-65129172D01*
X83790609Y-65129185D01*
X83878210Y-65260288D01*
X83878213Y-65260292D01*
X83989707Y-65371786D01*
X83989711Y-65371789D01*
X84120814Y-65459390D01*
X84120827Y-65459397D01*
X84249432Y-65512666D01*
X84266503Y-65519737D01*
X84421153Y-65550499D01*
X84421156Y-65550500D01*
X84421158Y-65550500D01*
X84578844Y-65550500D01*
X84578845Y-65550499D01*
X84733497Y-65519737D01*
X84879179Y-65459394D01*
X85010289Y-65371789D01*
X85121789Y-65260289D01*
X85209394Y-65129179D01*
X85269737Y-64983497D01*
X85300500Y-64828842D01*
X85300500Y-64671158D01*
X85300500Y-64671155D01*
X85300499Y-64671153D01*
X85281181Y-64574035D01*
X85269737Y-64516503D01*
X85261170Y-64495821D01*
X85209397Y-64370827D01*
X85209390Y-64370814D01*
X85121789Y-64239711D01*
X85121786Y-64239707D01*
X85010292Y-64128213D01*
X85010288Y-64128210D01*
X84879185Y-64040609D01*
X84879172Y-64040602D01*
X84733501Y-63980264D01*
X84733489Y-63980261D01*
X84578845Y-63949500D01*
X84578842Y-63949500D01*
X84421158Y-63949500D01*
X84421155Y-63949500D01*
X84266510Y-63980261D01*
X84266498Y-63980264D01*
X84120827Y-64040602D01*
X84120814Y-64040609D01*
X83989711Y-64128210D01*
X83989707Y-64128213D01*
X83878213Y-64239707D01*
X83878210Y-64239711D01*
X83790609Y-64370814D01*
X83790602Y-64370827D01*
X83730264Y-64516498D01*
X83730261Y-64516510D01*
X83699500Y-64671153D01*
X73150635Y-64671153D01*
X73144737Y-64641503D01*
X73116791Y-64574035D01*
X73084397Y-64495827D01*
X73084390Y-64495814D01*
X72996789Y-64364711D01*
X72996786Y-64364707D01*
X72885292Y-64253213D01*
X72885288Y-64253210D01*
X72754185Y-64165609D01*
X72754172Y-64165602D01*
X72608501Y-64105264D01*
X72608489Y-64105261D01*
X72453845Y-64074500D01*
X72453842Y-64074500D01*
X72296158Y-64074500D01*
X72296155Y-64074500D01*
X72141510Y-64105261D01*
X72141498Y-64105264D01*
X71995827Y-64165602D01*
X71995814Y-64165609D01*
X71864711Y-64253210D01*
X71864707Y-64253213D01*
X71753213Y-64364707D01*
X71753210Y-64364711D01*
X71665609Y-64495814D01*
X71665602Y-64495827D01*
X71605264Y-64641498D01*
X71605261Y-64641510D01*
X71574500Y-64796153D01*
X58493784Y-64796153D01*
X58515958Y-64742621D01*
X58515958Y-64742619D01*
X58519737Y-64733497D01*
X58550500Y-64578842D01*
X58550500Y-64421158D01*
X58550500Y-64421155D01*
X58550499Y-64421153D01*
X58541759Y-64377214D01*
X58519737Y-64266503D01*
X58514231Y-64253210D01*
X58459397Y-64120827D01*
X58459390Y-64120814D01*
X58371789Y-63989711D01*
X58371786Y-63989707D01*
X58274086Y-63892007D01*
X58240601Y-63830684D01*
X58245585Y-63760992D01*
X58258662Y-63735438D01*
X58298013Y-63676547D01*
X58365894Y-63512666D01*
X58366721Y-63508512D01*
X58400499Y-63338695D01*
X58400500Y-63338693D01*
X58400500Y-63161306D01*
X58400499Y-63161304D01*
X58365896Y-62987341D01*
X58365893Y-62987332D01*
X58298016Y-62823459D01*
X58298009Y-62823446D01*
X58199464Y-62675965D01*
X58199461Y-62675961D01*
X58074038Y-62550538D01*
X58074034Y-62550535D01*
X57926553Y-62451990D01*
X57926540Y-62451983D01*
X57762667Y-62384106D01*
X57762658Y-62384103D01*
X57588694Y-62349500D01*
X57588691Y-62349500D01*
X57411309Y-62349500D01*
X57411306Y-62349500D01*
X57237341Y-62384103D01*
X57237332Y-62384106D01*
X57073459Y-62451983D01*
X57073446Y-62451990D01*
X56925965Y-62550535D01*
X56925961Y-62550538D01*
X56800538Y-62675961D01*
X56800535Y-62675965D01*
X56701990Y-62823446D01*
X56701983Y-62823459D01*
X56634106Y-62987332D01*
X56634103Y-62987341D01*
X56599500Y-63161304D01*
X45469856Y-63161304D01*
X45360744Y-63139600D01*
X45360741Y-63139600D01*
X45203057Y-63139600D01*
X45203054Y-63139600D01*
X45048409Y-63170361D01*
X45048397Y-63170364D01*
X44902726Y-63230702D01*
X44902713Y-63230709D01*
X44771610Y-63318310D01*
X44771606Y-63318313D01*
X44660112Y-63429807D01*
X44660109Y-63429811D01*
X44572508Y-63560914D01*
X44572501Y-63560927D01*
X44512163Y-63706598D01*
X44512160Y-63706610D01*
X44481399Y-63861253D01*
X41523870Y-63861253D01*
X41676547Y-63798013D01*
X41676553Y-63798009D01*
X41745315Y-63752064D01*
X41796362Y-63717954D01*
X41824035Y-63699464D01*
X41945594Y-63577904D01*
X42006915Y-63544421D01*
X42076607Y-63549405D01*
X42080726Y-63551026D01*
X42194603Y-63598194D01*
X42237334Y-63615894D01*
X42237336Y-63615894D01*
X42237341Y-63615896D01*
X42411304Y-63650499D01*
X42411307Y-63650500D01*
X42411309Y-63650500D01*
X42588693Y-63650500D01*
X42588694Y-63650499D01*
X42694466Y-63629460D01*
X42762658Y-63615896D01*
X42762661Y-63615894D01*
X42762666Y-63615894D01*
X42926547Y-63548013D01*
X42931107Y-63544965D01*
X42997783Y-63524086D01*
X43065163Y-63542569D01*
X43068867Y-63544948D01*
X43073453Y-63548013D01*
X43073455Y-63548014D01*
X43073457Y-63548015D01*
X43104630Y-63560927D01*
X43237334Y-63615894D01*
X43237336Y-63615894D01*
X43237341Y-63615896D01*
X43411304Y-63650499D01*
X43411307Y-63650500D01*
X43411309Y-63650500D01*
X43588693Y-63650500D01*
X43588694Y-63650499D01*
X43694466Y-63629460D01*
X43762658Y-63615896D01*
X43762661Y-63615894D01*
X43762666Y-63615894D01*
X43919273Y-63551026D01*
X43926540Y-63548016D01*
X43926540Y-63548015D01*
X43926547Y-63548013D01*
X44074035Y-63449464D01*
X44199464Y-63324035D01*
X44298013Y-63176547D01*
X44300575Y-63170363D01*
X44316611Y-63131647D01*
X44365894Y-63012666D01*
X44366419Y-63010030D01*
X44400499Y-62838695D01*
X44400500Y-62838693D01*
X44400500Y-62661306D01*
X44400499Y-62661304D01*
X44365896Y-62487341D01*
X44365893Y-62487332D01*
X44298016Y-62323459D01*
X44298009Y-62323446D01*
X44199464Y-62175965D01*
X44199461Y-62175961D01*
X44074038Y-62050538D01*
X44074034Y-62050535D01*
X43926553Y-61951990D01*
X43926540Y-61951983D01*
X43762667Y-61884106D01*
X43762658Y-61884103D01*
X43699882Y-61871617D01*
X43637971Y-61839232D01*
X43603397Y-61778517D01*
X43607136Y-61708747D01*
X43648003Y-61652075D01*
X43699882Y-61628383D01*
X43762658Y-61615896D01*
X43762661Y-61615894D01*
X43762666Y-61615894D01*
X43919273Y-61551026D01*
X43926540Y-61548016D01*
X43926540Y-61548015D01*
X43926547Y-61548013D01*
X44074035Y-61449464D01*
X44199464Y-61324035D01*
X44298013Y-61176547D01*
X44365894Y-61012666D01*
X44400500Y-60838691D01*
X44400500Y-60661309D01*
X44400500Y-60661306D01*
X44400499Y-60661304D01*
X44365896Y-60487341D01*
X44365893Y-60487332D01*
X44298016Y-60323459D01*
X44298009Y-60323446D01*
X44199464Y-60175965D01*
X44199461Y-60175961D01*
X44074038Y-60050538D01*
X44074034Y-60050535D01*
X43926553Y-59951990D01*
X43926540Y-59951983D01*
X43762667Y-59884106D01*
X43762658Y-59884103D01*
X43588694Y-59849500D01*
X43588691Y-59849500D01*
X43411309Y-59849500D01*
X43411306Y-59849500D01*
X43237341Y-59884103D01*
X43237332Y-59884106D01*
X43073459Y-59951983D01*
X43073446Y-59951990D01*
X42943891Y-60038557D01*
X42877213Y-60059435D01*
X42809833Y-60040950D01*
X42806109Y-60038557D01*
X42676553Y-59951990D01*
X42676540Y-59951983D01*
X42512667Y-59884106D01*
X42512658Y-59884103D01*
X42338694Y-59849500D01*
X42338691Y-59849500D01*
X42161309Y-59849500D01*
X42161306Y-59849500D01*
X41987341Y-59884103D01*
X41987332Y-59884106D01*
X41823459Y-59951983D01*
X41823446Y-59951990D01*
X41675965Y-60050535D01*
X41675961Y-60050538D01*
X41554407Y-60172093D01*
X41493084Y-60205578D01*
X41423392Y-60200594D01*
X41419275Y-60198974D01*
X41329970Y-60161984D01*
X41262666Y-60134106D01*
X41262662Y-60134105D01*
X41262658Y-60134103D01*
X41088694Y-60099500D01*
X41088691Y-60099500D01*
X40911309Y-60099500D01*
X40911306Y-60099500D01*
X40737341Y-60134103D01*
X40737332Y-60134106D01*
X40573459Y-60201983D01*
X40573446Y-60201990D01*
X40425965Y-60300535D01*
X40425961Y-60300538D01*
X40300538Y-60425961D01*
X40300535Y-60425965D01*
X40201990Y-60573446D01*
X40201983Y-60573459D01*
X40134107Y-60737329D01*
X40134105Y-60737335D01*
X40131647Y-60749695D01*
X40099260Y-60811605D01*
X40038543Y-60846177D01*
X40010030Y-60849500D01*
X39911306Y-60849500D01*
X39737341Y-60884103D01*
X39737332Y-60884106D01*
X39573459Y-60951983D01*
X39573446Y-60951990D01*
X39425965Y-61050535D01*
X39425961Y-61050538D01*
X39300538Y-61175961D01*
X39300535Y-61175965D01*
X39201990Y-61323446D01*
X39201983Y-61323459D01*
X39134106Y-61487332D01*
X39134103Y-61487341D01*
X39099500Y-61661304D01*
X39099500Y-61725500D01*
X39079815Y-61792539D01*
X39027011Y-61838294D01*
X38975500Y-61849500D01*
X38911306Y-61849500D01*
X38737341Y-61884103D01*
X38737332Y-61884106D01*
X38573459Y-61951983D01*
X38573446Y-61951990D01*
X38425965Y-62050535D01*
X38425961Y-62050538D01*
X38300538Y-62175961D01*
X38300535Y-62175965D01*
X38201990Y-62323446D01*
X38201983Y-62323459D01*
X38134106Y-62487332D01*
X38134103Y-62487341D01*
X38099500Y-62661304D01*
X38099500Y-62725500D01*
X38079815Y-62792539D01*
X38027011Y-62838294D01*
X37975500Y-62849500D01*
X37911306Y-62849500D01*
X37737341Y-62884103D01*
X37737332Y-62884106D01*
X37573459Y-62951983D01*
X37573446Y-62951990D01*
X37425965Y-63050535D01*
X37425961Y-63050538D01*
X37300538Y-63175961D01*
X37300535Y-63175965D01*
X37201990Y-63323446D01*
X37201983Y-63323459D01*
X37134106Y-63487332D01*
X37134103Y-63487341D01*
X37099500Y-63661304D01*
X34250500Y-63661304D01*
X34250500Y-58109568D01*
X34999500Y-58109568D01*
X34999500Y-58390431D01*
X35030942Y-58669494D01*
X35030945Y-58669512D01*
X35093439Y-58943317D01*
X35093443Y-58943329D01*
X35186200Y-59208411D01*
X35308053Y-59461442D01*
X35308055Y-59461445D01*
X35457477Y-59699248D01*
X35632584Y-59918825D01*
X35831175Y-60117416D01*
X36050752Y-60292523D01*
X36288555Y-60441945D01*
X36541592Y-60563801D01*
X36740680Y-60633465D01*
X36806670Y-60656556D01*
X36806682Y-60656560D01*
X37080491Y-60719055D01*
X37080497Y-60719055D01*
X37080505Y-60719057D01*
X37266547Y-60740018D01*
X37359569Y-60750499D01*
X37359572Y-60750500D01*
X37359575Y-60750500D01*
X37640428Y-60750500D01*
X37640429Y-60750499D01*
X37783055Y-60734429D01*
X37919494Y-60719057D01*
X37919499Y-60719056D01*
X37919509Y-60719055D01*
X38193318Y-60656560D01*
X38458408Y-60563801D01*
X38711445Y-60441945D01*
X38949248Y-60292523D01*
X39168825Y-60117416D01*
X39367416Y-59918825D01*
X39542523Y-59699248D01*
X39691945Y-59461445D01*
X39711349Y-59421153D01*
X56449500Y-59421153D01*
X56449500Y-59578846D01*
X56480261Y-59733489D01*
X56480264Y-59733501D01*
X56540602Y-59879172D01*
X56540609Y-59879185D01*
X56628210Y-60010288D01*
X56628213Y-60010292D01*
X56739707Y-60121786D01*
X56739711Y-60121789D01*
X56870814Y-60209390D01*
X56870827Y-60209397D01*
X57016498Y-60269735D01*
X57016503Y-60269737D01*
X57171153Y-60300499D01*
X57171156Y-60300500D01*
X57171158Y-60300500D01*
X57328844Y-60300500D01*
X57328845Y-60300499D01*
X57483497Y-60269737D01*
X57629179Y-60209394D01*
X57760289Y-60121789D01*
X57871789Y-60010289D01*
X57959394Y-59879179D01*
X58019737Y-59733497D01*
X58050500Y-59578842D01*
X58050500Y-59421158D01*
X58050500Y-59421155D01*
X58050499Y-59421153D01*
X58019738Y-59266510D01*
X58019737Y-59266503D01*
X58019735Y-59266498D01*
X57959397Y-59120827D01*
X57959390Y-59120814D01*
X57871789Y-58989711D01*
X57871786Y-58989707D01*
X57760292Y-58878213D01*
X57760288Y-58878210D01*
X57629185Y-58790609D01*
X57629172Y-58790602D01*
X57483501Y-58730264D01*
X57483489Y-58730261D01*
X57328845Y-58699500D01*
X57328842Y-58699500D01*
X57171158Y-58699500D01*
X57171155Y-58699500D01*
X57016510Y-58730261D01*
X57016498Y-58730264D01*
X56870827Y-58790602D01*
X56870814Y-58790609D01*
X56739711Y-58878210D01*
X56739707Y-58878213D01*
X56628213Y-58989707D01*
X56628210Y-58989711D01*
X56540609Y-59120814D01*
X56540602Y-59120827D01*
X56480264Y-59266498D01*
X56480261Y-59266510D01*
X56449500Y-59421153D01*
X39711349Y-59421153D01*
X39785827Y-59266498D01*
X39813796Y-59208419D01*
X39813797Y-59208416D01*
X39813801Y-59208408D01*
X39906560Y-58943318D01*
X39969055Y-58669509D01*
X39973599Y-58629185D01*
X40000499Y-58390431D01*
X40000500Y-58390427D01*
X40000500Y-58171153D01*
X79949500Y-58171153D01*
X79949500Y-58328846D01*
X79980261Y-58483489D01*
X79980264Y-58483501D01*
X80040602Y-58629172D01*
X80040609Y-58629185D01*
X80128210Y-58760288D01*
X80128213Y-58760292D01*
X80239707Y-58871786D01*
X80239711Y-58871789D01*
X80370814Y-58959390D01*
X80370827Y-58959397D01*
X80444013Y-58989711D01*
X80516503Y-59019737D01*
X80636168Y-59043540D01*
X80671153Y-59050499D01*
X80671156Y-59050500D01*
X80671158Y-59050500D01*
X80828843Y-59050500D01*
X80845939Y-59047099D01*
X80863831Y-59043540D01*
X80933423Y-59049767D01*
X80988601Y-59092629D01*
X81011846Y-59158518D01*
X81002586Y-59212607D01*
X80980264Y-59266499D01*
X80980261Y-59266510D01*
X80949500Y-59421153D01*
X80949500Y-59578846D01*
X80980261Y-59733489D01*
X80980264Y-59733501D01*
X81040602Y-59879172D01*
X81040609Y-59879185D01*
X81128210Y-60010288D01*
X81128213Y-60010292D01*
X81239707Y-60121786D01*
X81239711Y-60121789D01*
X81370814Y-60209390D01*
X81370827Y-60209397D01*
X81516498Y-60269735D01*
X81516503Y-60269737D01*
X81671153Y-60300499D01*
X81671156Y-60300500D01*
X81671158Y-60300500D01*
X81828844Y-60300500D01*
X81828845Y-60300499D01*
X81983497Y-60269737D01*
X82129179Y-60209394D01*
X82260289Y-60121789D01*
X82371789Y-60010289D01*
X82459394Y-59879179D01*
X82519737Y-59733497D01*
X82550500Y-59578842D01*
X82550500Y-59421158D01*
X82550500Y-59421155D01*
X82550499Y-59421153D01*
X82519738Y-59266510D01*
X82519737Y-59266503D01*
X82519735Y-59266498D01*
X82459397Y-59120827D01*
X82459390Y-59120814D01*
X82371789Y-58989711D01*
X82371786Y-58989707D01*
X82260292Y-58878213D01*
X82260288Y-58878210D01*
X82129185Y-58790609D01*
X82129172Y-58790602D01*
X81983501Y-58730264D01*
X81983489Y-58730261D01*
X81828845Y-58699500D01*
X81828842Y-58699500D01*
X81671158Y-58699500D01*
X81671157Y-58699500D01*
X81636164Y-58706460D01*
X81566573Y-58700231D01*
X81511396Y-58657367D01*
X81488153Y-58591477D01*
X81497414Y-58537389D01*
X81519737Y-58483497D01*
X81550500Y-58328842D01*
X81550500Y-58171158D01*
X81550500Y-58171155D01*
X81550499Y-58171153D01*
X81542371Y-58130287D01*
X81538250Y-58109568D01*
X118499500Y-58109568D01*
X118499500Y-58390431D01*
X118530942Y-58669494D01*
X118530945Y-58669512D01*
X118593439Y-58943317D01*
X118593443Y-58943329D01*
X118686200Y-59208411D01*
X118808053Y-59461442D01*
X118808055Y-59461445D01*
X118957477Y-59699248D01*
X119132584Y-59918825D01*
X119331175Y-60117416D01*
X119550752Y-60292523D01*
X119788555Y-60441945D01*
X120041592Y-60563801D01*
X120240680Y-60633465D01*
X120306670Y-60656556D01*
X120306682Y-60656560D01*
X120580491Y-60719055D01*
X120580497Y-60719055D01*
X120580505Y-60719057D01*
X120766547Y-60740018D01*
X120859569Y-60750499D01*
X120859572Y-60750500D01*
X120859575Y-60750500D01*
X121140428Y-60750500D01*
X121140429Y-60750499D01*
X121283055Y-60734429D01*
X121419494Y-60719057D01*
X121419499Y-60719056D01*
X121419509Y-60719055D01*
X121693318Y-60656560D01*
X121958408Y-60563801D01*
X122211445Y-60441945D01*
X122449248Y-60292523D01*
X122668825Y-60117416D01*
X122867416Y-59918825D01*
X123042523Y-59699248D01*
X123191945Y-59461445D01*
X123313801Y-59208408D01*
X123406560Y-58943318D01*
X123469055Y-58669509D01*
X123473599Y-58629185D01*
X123500499Y-58390431D01*
X123500500Y-58390427D01*
X123500500Y-58109572D01*
X123500499Y-58109568D01*
X123469057Y-57830505D01*
X123469054Y-57830487D01*
X123406560Y-57556682D01*
X123406556Y-57556670D01*
X123379819Y-57480261D01*
X123313801Y-57291592D01*
X123191945Y-57038555D01*
X123042523Y-56800752D01*
X122867416Y-56581175D01*
X122668825Y-56382584D01*
X122449248Y-56207477D01*
X122211445Y-56058055D01*
X122211442Y-56058053D01*
X121958411Y-55936200D01*
X121693329Y-55843443D01*
X121693317Y-55843439D01*
X121419512Y-55780945D01*
X121419494Y-55780942D01*
X121140431Y-55749500D01*
X121140425Y-55749500D01*
X120859575Y-55749500D01*
X120859568Y-55749500D01*
X120580505Y-55780942D01*
X120580487Y-55780945D01*
X120306682Y-55843439D01*
X120306670Y-55843443D01*
X120041588Y-55936200D01*
X119788557Y-56058053D01*
X119550753Y-56207476D01*
X119331175Y-56382583D01*
X119132583Y-56581175D01*
X118957476Y-56800753D01*
X118808053Y-57038557D01*
X118686200Y-57291588D01*
X118593443Y-57556670D01*
X118593439Y-57556682D01*
X118530945Y-57830487D01*
X118530942Y-57830505D01*
X118499500Y-58109568D01*
X81538250Y-58109568D01*
X81519738Y-58016508D01*
X81519737Y-58016507D01*
X81519737Y-58016503D01*
X81519735Y-58016498D01*
X81459397Y-57870827D01*
X81459390Y-57870814D01*
X81371789Y-57739711D01*
X81371786Y-57739707D01*
X81260292Y-57628213D01*
X81260288Y-57628210D01*
X81129185Y-57540609D01*
X81129172Y-57540602D01*
X80983501Y-57480264D01*
X80983489Y-57480261D01*
X80828845Y-57449500D01*
X80828842Y-57449500D01*
X80671158Y-57449500D01*
X80671155Y-57449500D01*
X80516510Y-57480261D01*
X80516498Y-57480264D01*
X80370827Y-57540602D01*
X80370814Y-57540609D01*
X80239711Y-57628210D01*
X80239707Y-57628213D01*
X80128213Y-57739707D01*
X80128210Y-57739711D01*
X80040609Y-57870814D01*
X80040602Y-57870827D01*
X79980264Y-58016498D01*
X79980261Y-58016510D01*
X79949500Y-58171153D01*
X40000500Y-58171153D01*
X40000500Y-58109572D01*
X40000499Y-58109568D01*
X39969057Y-57830505D01*
X39969054Y-57830487D01*
X39906560Y-57556682D01*
X39906556Y-57556670D01*
X39879819Y-57480261D01*
X39813801Y-57291592D01*
X39691945Y-57038555D01*
X39542523Y-56800752D01*
X39367416Y-56581175D01*
X39168825Y-56382584D01*
X38949248Y-56207477D01*
X38711445Y-56058055D01*
X38711442Y-56058053D01*
X38458411Y-55936200D01*
X38193329Y-55843443D01*
X38193317Y-55843439D01*
X37919512Y-55780945D01*
X37919494Y-55780942D01*
X37640431Y-55749500D01*
X37640425Y-55749500D01*
X37359575Y-55749500D01*
X37359568Y-55749500D01*
X37080505Y-55780942D01*
X37080487Y-55780945D01*
X36806682Y-55843439D01*
X36806670Y-55843443D01*
X36541588Y-55936200D01*
X36288557Y-56058053D01*
X36050753Y-56207476D01*
X35831175Y-56382583D01*
X35632583Y-56581175D01*
X35457476Y-56800753D01*
X35308053Y-57038557D01*
X35186200Y-57291588D01*
X35093443Y-57556670D01*
X35093439Y-57556682D01*
X35030945Y-57830487D01*
X35030942Y-57830505D01*
X34999500Y-58109568D01*
X34250500Y-58109568D01*
X34250500Y-55624500D01*
X34270185Y-55557461D01*
X34322989Y-55511706D01*
X34374500Y-55500500D01*
X123875500Y-55500500D01*
X123942539Y-55520185D01*
G37*
%TD.AperFunction*%
%TD*%
M02*
