%TF.GenerationSoftware,KiCad,Pcbnew,9.0.3*%
%TF.CreationDate,2025-12-22T17:44:04-03:00*%
%TF.ProjectId,V3,56332e6b-6963-4616-945f-706362585858,rev?*%
%TF.SameCoordinates,Original*%
%TF.FileFunction,Copper,L4,Bot*%
%TF.FilePolarity,Positive*%
%FSLAX46Y46*%
G04 Gerber Fmt 4.6, Leading zero omitted, Abs format (unit mm)*
G04 Created by KiCad (PCBNEW 9.0.3) date 2025-12-22 17:44:04*
%MOMM*%
%LPD*%
G01*
G04 APERTURE LIST*
G04 Aperture macros list*
%AMRoundRect*
0 Rectangle with rounded corners*
0 $1 Rounding radius*
0 $2 $3 $4 $5 $6 $7 $8 $9 X,Y pos of 4 corners*
0 Add a 4 corners polygon primitive as box body*
4,1,4,$2,$3,$4,$5,$6,$7,$8,$9,$2,$3,0*
0 Add four circle primitives for the rounded corners*
1,1,$1+$1,$2,$3*
1,1,$1+$1,$4,$5*
1,1,$1+$1,$6,$7*
1,1,$1+$1,$8,$9*
0 Add four rect primitives between the rounded corners*
20,1,$1+$1,$2,$3,$4,$5,0*
20,1,$1+$1,$4,$5,$6,$7,0*
20,1,$1+$1,$6,$7,$8,$9,0*
20,1,$1+$1,$8,$9,$2,$3,0*%
G04 Aperture macros list end*
%TA.AperFunction,ComponentPad*%
%ADD10C,0.700000*%
%TD*%
%TA.AperFunction,ComponentPad*%
%ADD11O,2.400000X0.900000*%
%TD*%
%TA.AperFunction,ComponentPad*%
%ADD12O,1.700000X0.900000*%
%TD*%
%TA.AperFunction,ComponentPad*%
%ADD13R,1.700000X1.700000*%
%TD*%
%TA.AperFunction,ComponentPad*%
%ADD14C,1.700000*%
%TD*%
%TA.AperFunction,ComponentPad*%
%ADD15RoundRect,0.250000X0.750000X-0.600000X0.750000X0.600000X-0.750000X0.600000X-0.750000X-0.600000X0*%
%TD*%
%TA.AperFunction,ComponentPad*%
%ADD16O,2.000000X1.700000*%
%TD*%
%TA.AperFunction,ViaPad*%
%ADD17C,0.600000*%
%TD*%
%TA.AperFunction,ViaPad*%
%ADD18C,0.800000*%
%TD*%
%TA.AperFunction,Conductor*%
%ADD19C,0.200000*%
%TD*%
%TA.AperFunction,Conductor*%
%ADD20C,0.400000*%
%TD*%
G04 APERTURE END LIST*
D10*
%TO.P,J1,A1,GND*%
%TO.N,GND*%
X41775000Y-92775000D03*
%TO.P,J1,A4,VBUS*%
%TO.N,VDD_5V*%
X41775000Y-93625000D03*
%TO.P,J1,A5,CC1*%
%TO.N,Net-(J1-CC1)*%
X41775000Y-94475000D03*
%TO.P,J1,A6,D+*%
%TO.N,Net-(J1-D+-PadA6)*%
X41775000Y-95325000D03*
%TO.P,J1,A7,D-*%
%TO.N,Net-(J1-D--PadA7)*%
X41775000Y-96175000D03*
%TO.P,J1,A8,SBU1*%
%TO.N,unconnected-(J1-SBU1-PadA8)*%
X41775000Y-97025000D03*
%TO.P,J1,A9,VBUS*%
%TO.N,VDD_5V*%
X41775000Y-97875000D03*
%TO.P,J1,A12,GND*%
%TO.N,GND*%
X41775000Y-98725000D03*
%TO.P,J1,B1,GND*%
X40425000Y-98725000D03*
%TO.P,J1,B4,VBUS*%
%TO.N,VDD_5V*%
X40425000Y-97875000D03*
%TO.P,J1,B5,CC2*%
%TO.N,Net-(J1-CC2)*%
X40425000Y-97025000D03*
%TO.P,J1,B6,D+*%
%TO.N,Net-(J1-D+-PadA6)*%
X40425000Y-96175000D03*
%TO.P,J1,B7,D-*%
%TO.N,Net-(J1-D--PadA7)*%
X40425000Y-95325000D03*
%TO.P,J1,B8,SBU2*%
%TO.N,unconnected-(J1-SBU2-PadB8)*%
X40425000Y-94475000D03*
%TO.P,J1,B9,VBUS*%
%TO.N,VDD_5V*%
X40425000Y-93625000D03*
%TO.P,J1,B12,GND*%
%TO.N,GND*%
X40425000Y-92775000D03*
D11*
%TO.P,J1,S1,SHIELD*%
X40795000Y-91425000D03*
D12*
X37415000Y-91425000D03*
D11*
X40795000Y-100075000D03*
D12*
X37415000Y-100075000D03*
%TD*%
D13*
%TO.P,AJ-SR04M1,1,5V*%
%TO.N,VDD_3V3*%
X101690000Y-102000000D03*
D14*
%TO.P,AJ-SR04M1,2,GND*%
%TO.N,Net-(AJ-SR04M1-GND)*%
X104230000Y-102000000D03*
%TO.P,AJ-SR04M1,3,TRIG*%
%TO.N,TRIG_Sensor*%
X106770000Y-102000000D03*
%TO.P,AJ-SR04M1,4,ECHO*%
%TO.N,ECHO_Sensor*%
X109310000Y-102000000D03*
%TD*%
D15*
%TO.P,BT1,1,+*%
%TO.N,VBAT*%
X64717500Y-102000000D03*
D16*
%TO.P,BT1,2,-*%
%TO.N,GND*%
X64717500Y-99500000D03*
%TD*%
D17*
%TO.N,USER_KEY*%
X53500000Y-79250000D03*
X75750000Y-93750000D03*
%TO.N,RTS*%
X67000000Y-77750000D03*
X64250000Y-80750000D03*
%TO.N,CHIP_PU*%
X70500000Y-76250000D03*
X75000000Y-93250000D03*
D18*
%TO.N,VDD_3V3*%
X69850000Y-82750000D03*
X87050000Y-103730000D03*
D17*
X45500000Y-74587500D03*
X65087500Y-67500000D03*
X77000000Y-60500000D03*
D18*
X68500000Y-87250000D03*
X72500000Y-90500000D03*
D17*
X77250000Y-66912500D03*
D18*
X82750000Y-92800000D03*
X107500000Y-87750000D03*
X79510000Y-110800000D03*
X83000000Y-86500000D03*
X76500000Y-110750000D03*
%TO.N,GND*%
X56250000Y-83750000D03*
X40250000Y-68250000D03*
D17*
X68500000Y-85350000D03*
X64150000Y-91750000D03*
D18*
X41250000Y-63000000D03*
D17*
X75000000Y-76250000D03*
X77750000Y-87500000D03*
X72000000Y-98500000D03*
D18*
X38000000Y-63750000D03*
D17*
X60250000Y-66000000D03*
X75500000Y-85250000D03*
D18*
X114750000Y-97250000D03*
X57500000Y-96500000D03*
X43500000Y-60750000D03*
X116500000Y-95500000D03*
D17*
X66175000Y-87675000D03*
X49162500Y-94500000D03*
D18*
X39000000Y-62750000D03*
X60750000Y-104500000D03*
X40000000Y-61750000D03*
D17*
X75500000Y-87500000D03*
D18*
X113000000Y-97250000D03*
X67250000Y-110250000D03*
X70750000Y-99500000D03*
D17*
X70000000Y-80500000D03*
X77750000Y-85250000D03*
D18*
X110000000Y-95500000D03*
X82000000Y-105500000D03*
X40250000Y-65250000D03*
X79000000Y-101250000D03*
X83000000Y-99500000D03*
X111500000Y-95500000D03*
X45000000Y-101500000D03*
X116500000Y-97250000D03*
X47362500Y-91850000D03*
X118250000Y-95500000D03*
X42500000Y-62750000D03*
X114750000Y-95500000D03*
X111500000Y-97250000D03*
X41000000Y-61000000D03*
X77250000Y-104250000D03*
X87250000Y-94250000D03*
X81500000Y-111250000D03*
X106750000Y-97500000D03*
X108500000Y-97500000D03*
X40500000Y-64000000D03*
X40250000Y-66500000D03*
X118250000Y-97250000D03*
X89000000Y-105750000D03*
D17*
X40162500Y-83587500D03*
D18*
X42250000Y-60750000D03*
X61630000Y-84130000D03*
X113000000Y-95500000D03*
X110000000Y-97250000D03*
X43500000Y-62750000D03*
X105000000Y-109250000D03*
X38000000Y-65000000D03*
X89000000Y-100000000D03*
X38000000Y-66500000D03*
D17*
%TO.N,VDD_5V*%
X56662500Y-99587500D03*
X81500000Y-109750000D03*
X48500000Y-99587500D03*
X76250000Y-105500000D03*
%TO.N,PPS_GPS*%
X72375000Y-64875000D03*
X71912500Y-80500000D03*
%TO.N,Net-(U3-U0TXD)*%
X66250000Y-85075000D03*
X71000000Y-84750000D03*
%TO.N,AntOff_GPS*%
X80750000Y-58250000D03*
X45281899Y-63940100D03*
%TO.N,RX{slash}TXdone_LoRa*%
X107525000Y-85750000D03*
X86875000Y-85625000D03*
%TO.N,CADdetect_LoRa*%
X107525000Y-81750000D03*
X86750000Y-83000000D03*
%TO.N,Reset_GPS*%
X81750000Y-59500000D03*
X57250000Y-59500000D03*
%TO.N,RXtimeout_LoRa*%
X86501955Y-84096574D03*
X107525000Y-83750000D03*
%TO.N,Wake_GPS*%
X84500000Y-64750000D03*
X57750000Y-64500000D03*
D18*
%TO.N,VBatt*%
X98560000Y-68000000D03*
X57500000Y-63250000D03*
%TD*%
D19*
%TO.N,USER_KEY*%
X62125682Y-84625682D02*
X61920364Y-84831000D01*
X61920364Y-84831000D02*
X61339636Y-84831000D01*
X71499000Y-93999000D02*
X62125682Y-84625682D01*
X60929000Y-83839636D02*
X61134318Y-83634318D01*
X56750000Y-79250000D02*
X53500000Y-79250000D01*
X61339636Y-84831000D02*
X60929000Y-84420364D01*
X60929000Y-84420364D02*
X60929000Y-83839636D01*
X75501000Y-93999000D02*
X71499000Y-93999000D01*
X75750000Y-93750000D02*
X75501000Y-93999000D01*
X61134318Y-83634318D02*
X56750000Y-79250000D01*
%TO.N,RTS*%
X65250000Y-80750000D02*
X67000000Y-79000000D01*
X67000000Y-79000000D02*
X67000000Y-77750000D01*
X64250000Y-80750000D02*
X65250000Y-80750000D01*
%TO.N,CHIP_PU*%
X65000000Y-83000000D02*
X70500000Y-77500000D01*
X72750000Y-93250000D02*
X65000000Y-85500000D01*
X70500000Y-77500000D02*
X70500000Y-76250000D01*
X75000000Y-93250000D02*
X72750000Y-93250000D01*
X65000000Y-85500000D02*
X65000000Y-83000000D01*
D20*
%TO.N,VDD_3V3*%
X68500000Y-87250000D02*
X69250000Y-87250000D01*
X69250000Y-87250000D02*
X72500000Y-90500000D01*
%TO.N,VDD_5V*%
X78000000Y-109750000D02*
X81500000Y-109750000D01*
X76750000Y-108500000D02*
X78000000Y-109750000D01*
X69500000Y-103250000D02*
X71250000Y-105000000D01*
X59162500Y-99587500D02*
X60750000Y-98000000D01*
X66250000Y-98000000D02*
X69500000Y-101250000D01*
X56662500Y-99587500D02*
X48500000Y-99587500D01*
X69500000Y-101250000D02*
X69500000Y-101500000D01*
X76250000Y-105500000D02*
X76750000Y-106000000D01*
X69500000Y-101500000D02*
X69500000Y-103250000D01*
X56662500Y-99587500D02*
X59162500Y-99587500D01*
X71250000Y-105000000D02*
X71750000Y-105500000D01*
X76750000Y-106000000D02*
X76750000Y-108500000D01*
X71750000Y-105500000D02*
X76250000Y-105500000D01*
X60750000Y-98000000D02*
X66250000Y-98000000D01*
D19*
%TO.N,PPS_GPS*%
X71250000Y-66500000D02*
X72500000Y-65250000D01*
X72500000Y-65000000D02*
X72375000Y-64875000D01*
X71250000Y-79837500D02*
X71250000Y-66500000D01*
X71912500Y-80500000D02*
X71250000Y-79837500D01*
X72500000Y-65250000D02*
X72500000Y-65000000D01*
%TO.N,Net-(J1-D+-PadA6)*%
X41704346Y-95325000D02*
X41775000Y-95325000D01*
X40425000Y-96175000D02*
X40854346Y-96175000D01*
X40854346Y-96175000D02*
X41704346Y-95325000D01*
%TO.N,Net-(U3-U0TXD)*%
X70662500Y-84662500D02*
X70750000Y-84750000D01*
X70750000Y-84750000D02*
X71000000Y-84750000D01*
X66662500Y-84662500D02*
X70662500Y-84662500D01*
X66250000Y-85075000D02*
X66662500Y-84662500D01*
%TO.N,AntOff_GPS*%
X50971999Y-58250000D02*
X45281899Y-63940100D01*
X80750000Y-58250000D02*
X50971999Y-58250000D01*
%TO.N,RX{slash}TXdone_LoRa*%
X86875000Y-85625000D02*
X88099000Y-84401000D01*
X99750000Y-81750000D02*
X103750000Y-85750000D01*
X88099000Y-84401000D02*
X88599000Y-84401000D01*
X88599000Y-84401000D02*
X91250000Y-81750000D01*
X91250000Y-81750000D02*
X99750000Y-81750000D01*
X103750000Y-85750000D02*
X107525000Y-85750000D01*
%TO.N,CADdetect_LoRa*%
X105775000Y-80000000D02*
X107525000Y-81750000D01*
X86750000Y-83000000D02*
X87750000Y-83000000D01*
X90750000Y-80000000D02*
X105775000Y-80000000D01*
X87750000Y-83000000D02*
X90750000Y-80000000D01*
%TO.N,Reset_GPS*%
X81750000Y-59500000D02*
X57250000Y-59500000D01*
%TO.N,RXtimeout_LoRa*%
X88616097Y-83401000D02*
X91017097Y-81000000D01*
X105000000Y-83750000D02*
X107525000Y-83750000D01*
X91017097Y-81000000D02*
X102250000Y-81000000D01*
X102250000Y-81000000D02*
X105000000Y-83750000D01*
X86598529Y-84000000D02*
X88000000Y-84000000D01*
X86501955Y-84096574D02*
X86598529Y-84000000D01*
X88000000Y-84000000D02*
X88599000Y-83401000D01*
X88599000Y-83401000D02*
X88616097Y-83401000D01*
%TO.N,Wake_GPS*%
X58750000Y-63500000D02*
X57750000Y-64500000D01*
X83250000Y-63500000D02*
X58750000Y-63500000D01*
X84500000Y-64750000D02*
X83250000Y-63500000D01*
D20*
%TO.N,VBatt*%
X98560000Y-68000000D02*
X93060000Y-62500000D01*
X93060000Y-62500000D02*
X58250000Y-62500000D01*
X58250000Y-62500000D02*
X57500000Y-63250000D01*
%TD*%
%TA.AperFunction,Conductor*%
%TO.N,GND*%
G36*
X123942539Y-55520185D02*
G01*
X123988294Y-55572989D01*
X123999500Y-55624500D01*
X123999500Y-114875500D01*
X123979815Y-114942539D01*
X123927011Y-114988294D01*
X123875500Y-114999500D01*
X34374500Y-114999500D01*
X34307461Y-114979815D01*
X34261706Y-114927011D01*
X34250500Y-114875500D01*
X34250500Y-111859568D01*
X34749500Y-111859568D01*
X34749500Y-112140431D01*
X34780942Y-112419494D01*
X34780945Y-112419512D01*
X34843439Y-112693317D01*
X34843443Y-112693329D01*
X34936200Y-112958411D01*
X35058053Y-113211442D01*
X35058055Y-113211445D01*
X35207477Y-113449248D01*
X35382584Y-113668825D01*
X35581175Y-113867416D01*
X35800752Y-114042523D01*
X36038555Y-114191945D01*
X36291592Y-114313801D01*
X36490680Y-114383465D01*
X36556670Y-114406556D01*
X36556682Y-114406560D01*
X36830491Y-114469055D01*
X36830497Y-114469055D01*
X36830505Y-114469057D01*
X37016547Y-114490018D01*
X37109569Y-114500499D01*
X37109572Y-114500500D01*
X37109575Y-114500500D01*
X37390428Y-114500500D01*
X37390429Y-114500499D01*
X37533055Y-114484429D01*
X37669494Y-114469057D01*
X37669499Y-114469056D01*
X37669509Y-114469055D01*
X37943318Y-114406560D01*
X38208408Y-114313801D01*
X38461445Y-114191945D01*
X38699248Y-114042523D01*
X38918825Y-113867416D01*
X39117416Y-113668825D01*
X39292523Y-113449248D01*
X39441945Y-113211445D01*
X39563801Y-112958408D01*
X39656560Y-112693318D01*
X39719055Y-112419509D01*
X39750500Y-112140425D01*
X39750500Y-111859575D01*
X39750499Y-111859568D01*
X118499500Y-111859568D01*
X118499500Y-112140431D01*
X118530942Y-112419494D01*
X118530945Y-112419512D01*
X118593439Y-112693317D01*
X118593443Y-112693329D01*
X118686200Y-112958411D01*
X118808053Y-113211442D01*
X118808055Y-113211445D01*
X118957477Y-113449248D01*
X119132584Y-113668825D01*
X119331175Y-113867416D01*
X119550752Y-114042523D01*
X119788555Y-114191945D01*
X120041592Y-114313801D01*
X120240680Y-114383465D01*
X120306670Y-114406556D01*
X120306682Y-114406560D01*
X120580491Y-114469055D01*
X120580497Y-114469055D01*
X120580505Y-114469057D01*
X120766547Y-114490018D01*
X120859569Y-114500499D01*
X120859572Y-114500500D01*
X120859575Y-114500500D01*
X121140428Y-114500500D01*
X121140429Y-114500499D01*
X121283055Y-114484429D01*
X121419494Y-114469057D01*
X121419499Y-114469056D01*
X121419509Y-114469055D01*
X121693318Y-114406560D01*
X121958408Y-114313801D01*
X122211445Y-114191945D01*
X122449248Y-114042523D01*
X122668825Y-113867416D01*
X122867416Y-113668825D01*
X123042523Y-113449248D01*
X123191945Y-113211445D01*
X123313801Y-112958408D01*
X123406560Y-112693318D01*
X123469055Y-112419509D01*
X123500500Y-112140425D01*
X123500500Y-111859575D01*
X123478678Y-111665894D01*
X123469057Y-111580505D01*
X123469054Y-111580487D01*
X123406560Y-111306682D01*
X123406556Y-111306670D01*
X123378517Y-111226540D01*
X123313801Y-111041592D01*
X123191945Y-110788555D01*
X123042523Y-110550752D01*
X122867416Y-110331175D01*
X122668825Y-110132584D01*
X122664555Y-110129179D01*
X122613060Y-110088113D01*
X122449248Y-109957477D01*
X122244534Y-109828846D01*
X122211442Y-109808053D01*
X121958411Y-109686200D01*
X121693329Y-109593443D01*
X121693317Y-109593439D01*
X121419512Y-109530945D01*
X121419494Y-109530942D01*
X121140431Y-109499500D01*
X121140425Y-109499500D01*
X120859575Y-109499500D01*
X120859568Y-109499500D01*
X120580505Y-109530942D01*
X120580487Y-109530945D01*
X120306682Y-109593439D01*
X120306670Y-109593443D01*
X120041588Y-109686200D01*
X119788557Y-109808053D01*
X119550753Y-109957476D01*
X119331175Y-110132583D01*
X119132583Y-110331175D01*
X118957476Y-110550753D01*
X118808053Y-110788557D01*
X118686200Y-111041588D01*
X118593443Y-111306670D01*
X118593439Y-111306682D01*
X118530945Y-111580487D01*
X118530942Y-111580505D01*
X118499500Y-111859568D01*
X39750499Y-111859568D01*
X39728678Y-111665894D01*
X39719057Y-111580505D01*
X39719054Y-111580487D01*
X39656560Y-111306682D01*
X39656556Y-111306670D01*
X39628517Y-111226540D01*
X39563801Y-111041592D01*
X39441945Y-110788555D01*
X39292523Y-110550752D01*
X39117416Y-110331175D01*
X38918825Y-110132584D01*
X38914555Y-110129179D01*
X38863060Y-110088113D01*
X38699248Y-109957477D01*
X38494534Y-109828846D01*
X38461442Y-109808053D01*
X38208411Y-109686200D01*
X37943329Y-109593443D01*
X37943317Y-109593439D01*
X37669512Y-109530945D01*
X37669494Y-109530942D01*
X37390431Y-109499500D01*
X37390425Y-109499500D01*
X37109575Y-109499500D01*
X37109568Y-109499500D01*
X36830505Y-109530942D01*
X36830487Y-109530945D01*
X36556682Y-109593439D01*
X36556670Y-109593443D01*
X36291588Y-109686200D01*
X36038557Y-109808053D01*
X35800753Y-109957476D01*
X35581175Y-110132583D01*
X35382583Y-110331175D01*
X35207476Y-110550753D01*
X35058053Y-110788557D01*
X34936200Y-111041588D01*
X34843443Y-111306670D01*
X34843439Y-111306682D01*
X34780945Y-111580487D01*
X34780942Y-111580505D01*
X34749500Y-111859568D01*
X34250500Y-111859568D01*
X34250500Y-99824999D01*
X36096115Y-99824999D01*
X36096116Y-99825000D01*
X36848012Y-99825000D01*
X36830795Y-99834940D01*
X36774940Y-99890795D01*
X36735444Y-99959204D01*
X36715000Y-100035504D01*
X36715000Y-100114496D01*
X36735444Y-100190796D01*
X36774940Y-100259205D01*
X36830795Y-100315060D01*
X36848012Y-100325000D01*
X36096116Y-100325000D01*
X36101506Y-100352100D01*
X36101507Y-100352103D01*
X36173119Y-100524991D01*
X36173124Y-100525000D01*
X36277086Y-100680589D01*
X36277089Y-100680593D01*
X36409406Y-100812910D01*
X36409410Y-100812913D01*
X36564999Y-100916875D01*
X36565008Y-100916880D01*
X36737894Y-100988491D01*
X36737902Y-100988493D01*
X36921428Y-101024999D01*
X36921431Y-101025000D01*
X37165000Y-101025000D01*
X37165000Y-100375000D01*
X37665000Y-100375000D01*
X37665000Y-101025000D01*
X37908569Y-101025000D01*
X37908571Y-101024999D01*
X38092097Y-100988493D01*
X38092105Y-100988491D01*
X38264991Y-100916880D01*
X38265000Y-100916875D01*
X38420589Y-100812913D01*
X38420593Y-100812910D01*
X38552910Y-100680593D01*
X38552913Y-100680589D01*
X38656875Y-100525000D01*
X38656880Y-100524991D01*
X38728492Y-100352103D01*
X38728493Y-100352100D01*
X38733884Y-100325000D01*
X37981988Y-100325000D01*
X37999205Y-100315060D01*
X38055060Y-100259205D01*
X38094556Y-100190796D01*
X38115000Y-100114496D01*
X38115000Y-100035504D01*
X38094556Y-99959204D01*
X38055060Y-99890795D01*
X37999205Y-99834940D01*
X37981988Y-99825000D01*
X38733884Y-99825000D01*
X38733884Y-99824999D01*
X38728493Y-99797899D01*
X38728492Y-99797896D01*
X38656880Y-99625008D01*
X38656875Y-99624999D01*
X38552913Y-99469410D01*
X38552910Y-99469406D01*
X38420593Y-99337089D01*
X38420589Y-99337086D01*
X38265000Y-99233124D01*
X38264991Y-99233119D01*
X38092105Y-99161508D01*
X38092097Y-99161506D01*
X37908570Y-99125000D01*
X37665000Y-99125000D01*
X37665000Y-99775000D01*
X37165000Y-99775000D01*
X37165000Y-99125000D01*
X36921430Y-99125000D01*
X36737902Y-99161506D01*
X36737894Y-99161508D01*
X36565008Y-99233119D01*
X36564999Y-99233124D01*
X36409410Y-99337086D01*
X36409406Y-99337089D01*
X36277089Y-99469406D01*
X36277086Y-99469410D01*
X36173124Y-99624999D01*
X36173119Y-99625008D01*
X36101507Y-99797896D01*
X36101506Y-99797899D01*
X36096115Y-99824999D01*
X34250500Y-99824999D01*
X34250500Y-91174999D01*
X36096115Y-91174999D01*
X36096116Y-91175000D01*
X36848012Y-91175000D01*
X36830795Y-91184940D01*
X36774940Y-91240795D01*
X36735444Y-91309204D01*
X36715000Y-91385504D01*
X36715000Y-91464496D01*
X36735444Y-91540796D01*
X36774940Y-91609205D01*
X36830795Y-91665060D01*
X36848012Y-91675000D01*
X36096116Y-91675000D01*
X36101506Y-91702100D01*
X36101507Y-91702103D01*
X36173119Y-91874991D01*
X36173124Y-91875000D01*
X36277086Y-92030589D01*
X36277089Y-92030593D01*
X36409406Y-92162910D01*
X36409410Y-92162913D01*
X36564999Y-92266875D01*
X36565008Y-92266880D01*
X36737894Y-92338491D01*
X36737902Y-92338493D01*
X36921428Y-92374999D01*
X36921431Y-92375000D01*
X37165000Y-92375000D01*
X37165000Y-91725000D01*
X37665000Y-91725000D01*
X37665000Y-92375000D01*
X37908569Y-92375000D01*
X37908571Y-92374999D01*
X38092097Y-92338493D01*
X38092105Y-92338491D01*
X38264991Y-92266880D01*
X38265000Y-92266875D01*
X38420589Y-92162913D01*
X38420593Y-92162910D01*
X38552910Y-92030593D01*
X38552913Y-92030589D01*
X38656875Y-91875000D01*
X38656880Y-91874991D01*
X38728492Y-91702103D01*
X38728493Y-91702100D01*
X38733884Y-91675000D01*
X37981988Y-91675000D01*
X37999205Y-91665060D01*
X38055060Y-91609205D01*
X38094556Y-91540796D01*
X38115000Y-91464496D01*
X38115000Y-91385504D01*
X38094556Y-91309204D01*
X38055060Y-91240795D01*
X37999205Y-91184940D01*
X37981988Y-91175000D01*
X38733884Y-91175000D01*
X38733884Y-91174999D01*
X39126115Y-91174999D01*
X39126116Y-91175000D01*
X39878012Y-91175000D01*
X39860795Y-91184940D01*
X39804940Y-91240795D01*
X39765444Y-91309204D01*
X39745000Y-91385504D01*
X39745000Y-91464496D01*
X39765444Y-91540796D01*
X39804940Y-91609205D01*
X39860795Y-91665060D01*
X39878012Y-91675000D01*
X39126116Y-91675000D01*
X39131506Y-91702100D01*
X39131507Y-91702103D01*
X39203119Y-91874991D01*
X39203124Y-91875000D01*
X39307086Y-92030589D01*
X39307089Y-92030593D01*
X39439406Y-92162910D01*
X39439410Y-92162913D01*
X39600071Y-92270264D01*
X39599333Y-92271367D01*
X39644324Y-92315546D01*
X39659796Y-92383681D01*
X39650598Y-92423413D01*
X39607666Y-92527059D01*
X39607663Y-92527071D01*
X39575000Y-92691277D01*
X39575000Y-92858722D01*
X39607663Y-93022928D01*
X39607665Y-93022936D01*
X39661081Y-93151893D01*
X39668550Y-93221363D01*
X39661081Y-93246799D01*
X39607184Y-93376917D01*
X39607182Y-93376925D01*
X39574500Y-93541228D01*
X39574500Y-93708771D01*
X39607182Y-93873074D01*
X39607185Y-93873086D01*
X39660810Y-94002548D01*
X39668279Y-94072017D01*
X39660810Y-94097452D01*
X39607185Y-94226913D01*
X39607182Y-94226925D01*
X39574500Y-94391228D01*
X39574500Y-94558771D01*
X39607182Y-94723074D01*
X39607185Y-94723086D01*
X39660810Y-94852548D01*
X39668279Y-94922017D01*
X39660810Y-94947452D01*
X39607185Y-95076913D01*
X39607182Y-95076925D01*
X39574500Y-95241228D01*
X39574500Y-95408771D01*
X39607182Y-95573074D01*
X39607185Y-95573086D01*
X39660810Y-95702548D01*
X39668279Y-95772017D01*
X39660810Y-95797452D01*
X39607185Y-95926913D01*
X39607182Y-95926925D01*
X39574500Y-96091228D01*
X39574500Y-96258771D01*
X39607182Y-96423074D01*
X39607185Y-96423086D01*
X39660810Y-96552548D01*
X39668279Y-96622017D01*
X39660810Y-96647452D01*
X39607185Y-96776913D01*
X39607182Y-96776925D01*
X39574500Y-96941228D01*
X39574500Y-97108771D01*
X39607182Y-97273074D01*
X39607185Y-97273086D01*
X39660810Y-97402548D01*
X39668279Y-97472017D01*
X39660810Y-97497452D01*
X39607185Y-97626913D01*
X39607182Y-97626925D01*
X39574500Y-97791228D01*
X39574500Y-97958771D01*
X39607182Y-98123074D01*
X39607184Y-98123082D01*
X39661081Y-98253201D01*
X39668550Y-98322671D01*
X39661081Y-98348107D01*
X39607665Y-98477063D01*
X39607663Y-98477071D01*
X39575000Y-98641277D01*
X39575000Y-98808722D01*
X39607663Y-98972928D01*
X39607666Y-98972940D01*
X39650597Y-99076586D01*
X39658066Y-99146056D01*
X39626790Y-99208535D01*
X39599790Y-99229316D01*
X39600071Y-99229736D01*
X39439410Y-99337086D01*
X39439406Y-99337089D01*
X39307089Y-99469406D01*
X39307086Y-99469410D01*
X39203124Y-99624999D01*
X39203119Y-99625008D01*
X39131507Y-99797896D01*
X39131506Y-99797899D01*
X39126115Y-99824999D01*
X39126116Y-99825000D01*
X39878012Y-99825000D01*
X39860795Y-99834940D01*
X39804940Y-99890795D01*
X39765444Y-99959204D01*
X39745000Y-100035504D01*
X39745000Y-100114496D01*
X39765444Y-100190796D01*
X39804940Y-100259205D01*
X39860795Y-100315060D01*
X39878012Y-100325000D01*
X39126116Y-100325000D01*
X39131506Y-100352100D01*
X39131507Y-100352103D01*
X39203119Y-100524991D01*
X39203124Y-100525000D01*
X39307086Y-100680589D01*
X39307089Y-100680593D01*
X39439406Y-100812910D01*
X39439410Y-100812913D01*
X39594999Y-100916875D01*
X39595008Y-100916880D01*
X39767894Y-100988491D01*
X39767902Y-100988493D01*
X39951428Y-101024999D01*
X39951431Y-101025000D01*
X40545000Y-101025000D01*
X40545000Y-100375000D01*
X41045000Y-100375000D01*
X41045000Y-101025000D01*
X41638569Y-101025000D01*
X41638571Y-101024999D01*
X41822097Y-100988493D01*
X41822105Y-100988491D01*
X41994991Y-100916880D01*
X41995000Y-100916875D01*
X42150589Y-100812913D01*
X42150593Y-100812910D01*
X42282910Y-100680593D01*
X42282913Y-100680589D01*
X42386875Y-100525000D01*
X42386880Y-100524991D01*
X42458492Y-100352103D01*
X42458493Y-100352100D01*
X42463884Y-100325000D01*
X41711988Y-100325000D01*
X41729205Y-100315060D01*
X41785060Y-100259205D01*
X41824556Y-100190796D01*
X41845000Y-100114496D01*
X41845000Y-100035504D01*
X41824556Y-99959204D01*
X41785060Y-99890795D01*
X41729205Y-99834940D01*
X41711988Y-99825000D01*
X42463884Y-99825000D01*
X42463884Y-99824999D01*
X42458493Y-99797899D01*
X42458492Y-99797896D01*
X42386880Y-99625008D01*
X42386875Y-99624999D01*
X42369157Y-99598483D01*
X42236322Y-99531172D01*
X42227129Y-99522528D01*
X42215429Y-99517804D01*
X42205151Y-99508653D01*
X47699500Y-99508653D01*
X47699500Y-99666346D01*
X47730261Y-99820989D01*
X47730264Y-99821001D01*
X47790602Y-99966672D01*
X47790609Y-99966685D01*
X47878210Y-100097788D01*
X47878213Y-100097792D01*
X47989707Y-100209286D01*
X47989711Y-100209289D01*
X48120814Y-100296890D01*
X48120827Y-100296897D01*
X48188675Y-100325000D01*
X48266503Y-100357237D01*
X48378215Y-100379458D01*
X48421153Y-100387999D01*
X48421156Y-100388000D01*
X48421158Y-100388000D01*
X48578844Y-100388000D01*
X48578845Y-100387999D01*
X48733497Y-100357237D01*
X48835322Y-100315060D01*
X48877864Y-100297439D01*
X48925316Y-100288000D01*
X56237184Y-100288000D01*
X56284636Y-100297439D01*
X56351175Y-100325000D01*
X56429003Y-100357237D01*
X56540715Y-100379458D01*
X56583653Y-100387999D01*
X56583656Y-100388000D01*
X56583658Y-100388000D01*
X56741344Y-100388000D01*
X56741345Y-100387999D01*
X56895997Y-100357237D01*
X56997822Y-100315060D01*
X57040364Y-100297439D01*
X57087816Y-100288000D01*
X59231496Y-100288000D01*
X59322540Y-100269889D01*
X59366828Y-100261080D01*
X59430569Y-100234677D01*
X59494307Y-100208277D01*
X59494308Y-100208276D01*
X59494311Y-100208275D01*
X59609043Y-100131614D01*
X61003838Y-98736819D01*
X61065161Y-98703334D01*
X61091519Y-98700500D01*
X63257376Y-98700500D01*
X63324415Y-98720185D01*
X63370170Y-98772989D01*
X63380114Y-98842147D01*
X63367861Y-98880795D01*
X63316404Y-98981782D01*
X63250742Y-99183870D01*
X63250742Y-99183873D01*
X63240269Y-99250000D01*
X64284488Y-99250000D01*
X64251575Y-99307007D01*
X64217500Y-99434174D01*
X64217500Y-99565826D01*
X64251575Y-99692993D01*
X64284488Y-99750000D01*
X63240269Y-99750000D01*
X63250742Y-99816126D01*
X63250742Y-99816129D01*
X63316404Y-100018217D01*
X63412879Y-100207557D01*
X63537772Y-100379459D01*
X63537776Y-100379464D01*
X63676643Y-100518331D01*
X63710128Y-100579654D01*
X63705144Y-100649346D01*
X63663272Y-100705279D01*
X63654059Y-100711551D01*
X63498842Y-100807289D01*
X63374789Y-100931342D01*
X63282687Y-101080663D01*
X63282685Y-101080668D01*
X63275574Y-101102128D01*
X63227501Y-101247203D01*
X63227501Y-101247204D01*
X63227500Y-101247204D01*
X63217000Y-101349983D01*
X63217000Y-102650001D01*
X63217001Y-102650018D01*
X63227500Y-102752796D01*
X63227501Y-102752799D01*
X63282685Y-102919331D01*
X63282687Y-102919336D01*
X63306216Y-102957483D01*
X63374788Y-103068656D01*
X63498844Y-103192712D01*
X63648166Y-103284814D01*
X63814703Y-103339999D01*
X63917491Y-103350500D01*
X65517508Y-103350499D01*
X65620297Y-103339999D01*
X65786834Y-103284814D01*
X65936156Y-103192712D01*
X66060212Y-103068656D01*
X66152314Y-102919334D01*
X66207499Y-102752797D01*
X66218000Y-102650009D01*
X66217999Y-101349992D01*
X66207499Y-101247203D01*
X66152314Y-101080666D01*
X66060212Y-100931344D01*
X65936156Y-100807288D01*
X65786834Y-100715186D01*
X65786832Y-100715185D01*
X65780940Y-100711551D01*
X65734216Y-100659603D01*
X65722993Y-100590641D01*
X65750837Y-100526558D01*
X65758356Y-100518330D01*
X65897228Y-100379458D01*
X66022120Y-100207557D01*
X66118595Y-100018217D01*
X66184257Y-99816129D01*
X66184257Y-99816126D01*
X66194731Y-99750000D01*
X65150512Y-99750000D01*
X65183425Y-99692993D01*
X65217500Y-99565826D01*
X65217500Y-99434174D01*
X65183425Y-99307007D01*
X65150512Y-99250000D01*
X66194732Y-99250000D01*
X66195786Y-99248765D01*
X66204178Y-99183821D01*
X66249174Y-99130369D01*
X66315925Y-99109729D01*
X66383239Y-99128453D01*
X66405378Y-99146035D01*
X68763181Y-101503838D01*
X68796666Y-101565161D01*
X68799500Y-101591519D01*
X68799500Y-103181006D01*
X68799500Y-103318994D01*
X68799500Y-103318996D01*
X68799499Y-103318996D01*
X68826418Y-103454322D01*
X68826421Y-103454332D01*
X68879222Y-103581807D01*
X68955887Y-103696545D01*
X68955888Y-103696546D01*
X70705886Y-105446543D01*
X71303453Y-106044111D01*
X71303454Y-106044112D01*
X71418192Y-106120777D01*
X71545667Y-106173578D01*
X71545672Y-106173580D01*
X71545676Y-106173580D01*
X71545677Y-106173581D01*
X71681003Y-106200500D01*
X71681006Y-106200500D01*
X71681007Y-106200500D01*
X75824684Y-106200500D01*
X75832860Y-106202126D01*
X75837939Y-106201210D01*
X75872136Y-106209939D01*
X75972952Y-106251698D01*
X76027356Y-106295539D01*
X76049421Y-106361833D01*
X76049500Y-106366259D01*
X76049500Y-108431006D01*
X76049500Y-108568994D01*
X76049500Y-108568996D01*
X76049499Y-108568996D01*
X76076418Y-108704322D01*
X76076421Y-108704332D01*
X76129222Y-108831807D01*
X76205887Y-108946545D01*
X76971898Y-109712556D01*
X77005383Y-109773879D01*
X77000399Y-109843571D01*
X76958527Y-109899504D01*
X76893063Y-109923921D01*
X76836767Y-109914799D01*
X76762666Y-109884106D01*
X76762659Y-109884104D01*
X76762658Y-109884104D01*
X76762658Y-109884103D01*
X76588694Y-109849500D01*
X76588691Y-109849500D01*
X76411309Y-109849500D01*
X76411306Y-109849500D01*
X76237341Y-109884103D01*
X76237332Y-109884106D01*
X76073459Y-109951983D01*
X76073446Y-109951990D01*
X75925965Y-110050535D01*
X75925961Y-110050538D01*
X75800538Y-110175961D01*
X75800535Y-110175965D01*
X75701990Y-110323446D01*
X75701983Y-110323459D01*
X75634106Y-110487332D01*
X75634103Y-110487341D01*
X75599500Y-110661304D01*
X75599500Y-110838695D01*
X75634103Y-111012658D01*
X75634106Y-111012667D01*
X75701983Y-111176540D01*
X75701990Y-111176553D01*
X75800535Y-111324034D01*
X75800538Y-111324038D01*
X75925961Y-111449461D01*
X75925965Y-111449464D01*
X76073446Y-111548009D01*
X76073459Y-111548016D01*
X76151896Y-111580505D01*
X76237334Y-111615894D01*
X76237336Y-111615894D01*
X76237341Y-111615896D01*
X76411304Y-111650499D01*
X76411307Y-111650500D01*
X76411309Y-111650500D01*
X76588693Y-111650500D01*
X76588694Y-111650499D01*
X76646682Y-111638964D01*
X76762658Y-111615896D01*
X76762661Y-111615894D01*
X76762666Y-111615894D01*
X76926547Y-111548013D01*
X77074035Y-111449464D01*
X77199464Y-111324035D01*
X77298013Y-111176547D01*
X77365894Y-111012666D01*
X77400500Y-110838691D01*
X77400500Y-110661309D01*
X77400500Y-110661306D01*
X77400499Y-110661304D01*
X77365896Y-110487341D01*
X77365893Y-110487332D01*
X77339486Y-110423580D01*
X77335200Y-110413233D01*
X77327732Y-110343765D01*
X77359007Y-110281286D01*
X77419097Y-110245634D01*
X77488922Y-110248128D01*
X77537443Y-110278101D01*
X77553454Y-110294112D01*
X77668192Y-110370777D01*
X77770694Y-110413234D01*
X77795672Y-110423580D01*
X77795676Y-110423580D01*
X77795677Y-110423581D01*
X77931003Y-110450500D01*
X77931006Y-110450500D01*
X77931007Y-110450500D01*
X78510284Y-110450500D01*
X78577323Y-110470185D01*
X78623078Y-110522989D01*
X78633022Y-110592147D01*
X78631901Y-110598692D01*
X78609500Y-110711306D01*
X78609500Y-110888695D01*
X78644103Y-111062658D01*
X78644106Y-111062667D01*
X78711983Y-111226540D01*
X78711990Y-111226553D01*
X78810535Y-111374034D01*
X78810538Y-111374038D01*
X78935961Y-111499461D01*
X78935965Y-111499464D01*
X79083446Y-111598009D01*
X79083459Y-111598016D01*
X79206363Y-111648923D01*
X79247334Y-111665894D01*
X79247336Y-111665894D01*
X79247341Y-111665896D01*
X79421304Y-111700499D01*
X79421307Y-111700500D01*
X79421309Y-111700500D01*
X79598693Y-111700500D01*
X79598694Y-111700499D01*
X79656682Y-111688964D01*
X79772658Y-111665896D01*
X79772661Y-111665894D01*
X79772666Y-111665894D01*
X79936547Y-111598013D01*
X80084035Y-111499464D01*
X80209464Y-111374035D01*
X80308013Y-111226547D01*
X80375894Y-111062666D01*
X80385840Y-111012667D01*
X80410499Y-110888695D01*
X80410500Y-110888693D01*
X80410500Y-110711306D01*
X80388099Y-110598692D01*
X80394326Y-110529100D01*
X80437189Y-110473923D01*
X80503078Y-110450678D01*
X80509716Y-110450500D01*
X81074684Y-110450500D01*
X81122136Y-110459939D01*
X81231219Y-110505122D01*
X81266503Y-110519737D01*
X81421153Y-110550499D01*
X81421156Y-110550500D01*
X81421158Y-110550500D01*
X81578844Y-110550500D01*
X81578845Y-110550499D01*
X81733497Y-110519737D01*
X81879179Y-110459394D01*
X82010289Y-110371789D01*
X82121789Y-110260289D01*
X82209394Y-110129179D01*
X82269737Y-109983497D01*
X82300500Y-109828842D01*
X82300500Y-109671158D01*
X82300500Y-109671155D01*
X82300499Y-109671153D01*
X82285041Y-109593440D01*
X82269737Y-109516503D01*
X82262694Y-109499500D01*
X82209397Y-109370827D01*
X82209390Y-109370814D01*
X82121789Y-109239711D01*
X82121786Y-109239707D01*
X82010292Y-109128213D01*
X82010288Y-109128210D01*
X81879185Y-109040609D01*
X81879172Y-109040602D01*
X81733501Y-108980264D01*
X81733489Y-108980261D01*
X81578845Y-108949500D01*
X81578842Y-108949500D01*
X81421158Y-108949500D01*
X81421155Y-108949500D01*
X81266510Y-108980261D01*
X81266498Y-108980264D01*
X81122136Y-109040061D01*
X81074684Y-109049500D01*
X78341519Y-109049500D01*
X78274480Y-109029815D01*
X78253838Y-109013181D01*
X77486819Y-108246162D01*
X77453334Y-108184839D01*
X77450500Y-108158481D01*
X77450500Y-105931004D01*
X77423581Y-105795677D01*
X77423580Y-105795676D01*
X77423580Y-105795672D01*
X77423578Y-105795667D01*
X77370778Y-105668195D01*
X77370774Y-105668188D01*
X77339094Y-105620775D01*
X77294114Y-105553457D01*
X77294112Y-105553454D01*
X77294109Y-105553451D01*
X77046071Y-105305414D01*
X77019191Y-105265185D01*
X76959397Y-105120827D01*
X76959390Y-105120814D01*
X76871789Y-104989711D01*
X76871786Y-104989707D01*
X76760292Y-104878213D01*
X76760288Y-104878210D01*
X76629185Y-104790609D01*
X76629172Y-104790602D01*
X76483501Y-104730264D01*
X76483489Y-104730261D01*
X76328845Y-104699500D01*
X76328842Y-104699500D01*
X76171158Y-104699500D01*
X76171155Y-104699500D01*
X76016510Y-104730261D01*
X76016498Y-104730264D01*
X75872136Y-104790061D01*
X75824684Y-104799500D01*
X72091519Y-104799500D01*
X72024480Y-104779815D01*
X72003838Y-104763181D01*
X70881961Y-103641304D01*
X86149500Y-103641304D01*
X86149500Y-103818695D01*
X86184103Y-103992658D01*
X86184106Y-103992667D01*
X86251983Y-104156540D01*
X86251990Y-104156553D01*
X86350535Y-104304034D01*
X86350538Y-104304038D01*
X86475961Y-104429461D01*
X86475965Y-104429464D01*
X86623446Y-104528009D01*
X86623459Y-104528016D01*
X86746363Y-104578923D01*
X86787334Y-104595894D01*
X86787336Y-104595894D01*
X86787341Y-104595896D01*
X86961304Y-104630499D01*
X86961307Y-104630500D01*
X86961309Y-104630500D01*
X87138693Y-104630500D01*
X87138694Y-104630499D01*
X87196682Y-104618964D01*
X87312658Y-104595896D01*
X87312661Y-104595894D01*
X87312666Y-104595894D01*
X87476547Y-104528013D01*
X87624035Y-104429464D01*
X87749464Y-104304035D01*
X87848013Y-104156547D01*
X87915894Y-103992666D01*
X87950500Y-103818691D01*
X87950500Y-103641309D01*
X87950500Y-103641306D01*
X87950499Y-103641304D01*
X87915896Y-103467341D01*
X87915893Y-103467332D01*
X87848016Y-103303459D01*
X87848009Y-103303446D01*
X87749464Y-103155965D01*
X87749461Y-103155961D01*
X87624038Y-103030538D01*
X87624034Y-103030535D01*
X87476553Y-102931990D01*
X87476540Y-102931983D01*
X87312667Y-102864106D01*
X87312658Y-102864103D01*
X87138694Y-102829500D01*
X87138691Y-102829500D01*
X86961309Y-102829500D01*
X86961306Y-102829500D01*
X86787341Y-102864103D01*
X86787332Y-102864106D01*
X86623459Y-102931983D01*
X86623446Y-102931990D01*
X86475965Y-103030535D01*
X86475961Y-103030538D01*
X86350538Y-103155961D01*
X86350535Y-103155965D01*
X86251990Y-103303446D01*
X86251983Y-103303459D01*
X86184106Y-103467332D01*
X86184103Y-103467341D01*
X86149500Y-103641304D01*
X70881961Y-103641304D01*
X70236819Y-102996162D01*
X70203334Y-102934839D01*
X70200500Y-102908481D01*
X70200500Y-101181002D01*
X70197952Y-101168199D01*
X70197951Y-101168198D01*
X70197950Y-101168189D01*
X70184811Y-101102135D01*
X100339500Y-101102135D01*
X100339500Y-102897870D01*
X100339501Y-102897876D01*
X100345908Y-102957483D01*
X100396202Y-103092328D01*
X100396206Y-103092335D01*
X100482452Y-103207544D01*
X100482455Y-103207547D01*
X100597664Y-103293793D01*
X100597671Y-103293797D01*
X100732517Y-103344091D01*
X100732516Y-103344091D01*
X100739444Y-103344835D01*
X100792127Y-103350500D01*
X102587872Y-103350499D01*
X102647483Y-103344091D01*
X102782331Y-103293796D01*
X102897546Y-103207546D01*
X102983796Y-103092331D01*
X103032810Y-102960916D01*
X103074681Y-102904984D01*
X103140145Y-102880566D01*
X103208418Y-102895417D01*
X103236673Y-102916569D01*
X103350213Y-103030109D01*
X103522179Y-103155048D01*
X103522181Y-103155049D01*
X103522184Y-103155051D01*
X103711588Y-103251557D01*
X103913757Y-103317246D01*
X104123713Y-103350500D01*
X104123714Y-103350500D01*
X104336286Y-103350500D01*
X104336287Y-103350500D01*
X104546243Y-103317246D01*
X104748412Y-103251557D01*
X104937816Y-103155051D01*
X105024138Y-103092335D01*
X105109786Y-103030109D01*
X105109788Y-103030106D01*
X105109792Y-103030104D01*
X105260104Y-102879792D01*
X105260106Y-102879788D01*
X105260109Y-102879786D01*
X105385048Y-102707820D01*
X105385047Y-102707820D01*
X105385051Y-102707816D01*
X105389514Y-102699054D01*
X105437488Y-102648259D01*
X105505308Y-102631463D01*
X105571444Y-102653999D01*
X105610486Y-102699056D01*
X105614951Y-102707820D01*
X105739890Y-102879786D01*
X105890213Y-103030109D01*
X106062179Y-103155048D01*
X106062181Y-103155049D01*
X106062184Y-103155051D01*
X106251588Y-103251557D01*
X106453757Y-103317246D01*
X106663713Y-103350500D01*
X106663714Y-103350500D01*
X106876286Y-103350500D01*
X106876287Y-103350500D01*
X107086243Y-103317246D01*
X107288412Y-103251557D01*
X107477816Y-103155051D01*
X107564138Y-103092335D01*
X107649786Y-103030109D01*
X107649788Y-103030106D01*
X107649792Y-103030104D01*
X107800104Y-102879792D01*
X107800106Y-102879788D01*
X107800109Y-102879786D01*
X107925048Y-102707820D01*
X107925047Y-102707820D01*
X107925051Y-102707816D01*
X107929514Y-102699054D01*
X107977488Y-102648259D01*
X108045308Y-102631463D01*
X108111444Y-102653999D01*
X108150486Y-102699056D01*
X108154951Y-102707820D01*
X108279890Y-102879786D01*
X108430213Y-103030109D01*
X108602179Y-103155048D01*
X108602181Y-103155049D01*
X108602184Y-103155051D01*
X108791588Y-103251557D01*
X108993757Y-103317246D01*
X109203713Y-103350500D01*
X109203714Y-103350500D01*
X109416286Y-103350500D01*
X109416287Y-103350500D01*
X109626243Y-103317246D01*
X109828412Y-103251557D01*
X110017816Y-103155051D01*
X110104138Y-103092335D01*
X110189786Y-103030109D01*
X110189788Y-103030106D01*
X110189792Y-103030104D01*
X110340104Y-102879792D01*
X110340106Y-102879788D01*
X110340109Y-102879786D01*
X110465048Y-102707820D01*
X110465047Y-102707820D01*
X110465051Y-102707816D01*
X110561557Y-102518412D01*
X110627246Y-102316243D01*
X110660500Y-102106287D01*
X110660500Y-101893713D01*
X110627246Y-101683757D01*
X110561557Y-101481588D01*
X110465051Y-101292184D01*
X110465049Y-101292181D01*
X110465048Y-101292179D01*
X110340109Y-101120213D01*
X110189786Y-100969890D01*
X110017820Y-100844951D01*
X109828414Y-100748444D01*
X109828413Y-100748443D01*
X109828412Y-100748443D01*
X109626243Y-100682754D01*
X109626241Y-100682753D01*
X109626240Y-100682753D01*
X109464957Y-100657208D01*
X109416287Y-100649500D01*
X109203713Y-100649500D01*
X109155042Y-100657208D01*
X108993760Y-100682753D01*
X108791585Y-100748444D01*
X108602179Y-100844951D01*
X108430213Y-100969890D01*
X108279890Y-101120213D01*
X108154949Y-101292182D01*
X108150484Y-101300946D01*
X108102509Y-101351742D01*
X108034688Y-101368536D01*
X107968553Y-101345998D01*
X107929516Y-101300946D01*
X107925050Y-101292182D01*
X107800109Y-101120213D01*
X107649786Y-100969890D01*
X107477820Y-100844951D01*
X107288414Y-100748444D01*
X107288413Y-100748443D01*
X107288412Y-100748443D01*
X107086243Y-100682754D01*
X107086241Y-100682753D01*
X107086240Y-100682753D01*
X106924957Y-100657208D01*
X106876287Y-100649500D01*
X106663713Y-100649500D01*
X106615042Y-100657208D01*
X106453760Y-100682753D01*
X106251585Y-100748444D01*
X106062179Y-100844951D01*
X105890213Y-100969890D01*
X105739890Y-101120213D01*
X105614949Y-101292182D01*
X105610484Y-101300946D01*
X105562509Y-101351742D01*
X105494688Y-101368536D01*
X105428553Y-101345998D01*
X105389516Y-101300946D01*
X105385050Y-101292182D01*
X105260109Y-101120213D01*
X105109786Y-100969890D01*
X104937820Y-100844951D01*
X104748414Y-100748444D01*
X104748413Y-100748443D01*
X104748412Y-100748443D01*
X104546243Y-100682754D01*
X104546241Y-100682753D01*
X104546240Y-100682753D01*
X104384957Y-100657208D01*
X104336287Y-100649500D01*
X104123713Y-100649500D01*
X104075042Y-100657208D01*
X103913760Y-100682753D01*
X103711585Y-100748444D01*
X103522179Y-100844951D01*
X103350215Y-100969889D01*
X103236673Y-101083431D01*
X103175350Y-101116915D01*
X103105658Y-101111931D01*
X103049725Y-101070059D01*
X103032810Y-101039082D01*
X102983797Y-100907671D01*
X102983793Y-100907664D01*
X102897547Y-100792455D01*
X102897544Y-100792452D01*
X102782335Y-100706206D01*
X102782328Y-100706202D01*
X102647482Y-100655908D01*
X102647483Y-100655908D01*
X102587883Y-100649501D01*
X102587881Y-100649500D01*
X102587873Y-100649500D01*
X102587864Y-100649500D01*
X100792129Y-100649500D01*
X100792123Y-100649501D01*
X100732516Y-100655908D01*
X100597671Y-100706202D01*
X100597664Y-100706206D01*
X100482455Y-100792452D01*
X100482452Y-100792455D01*
X100396206Y-100907664D01*
X100396202Y-100907671D01*
X100345908Y-101042517D01*
X100339501Y-101102116D01*
X100339500Y-101102135D01*
X70184811Y-101102135D01*
X70173580Y-101045672D01*
X70170850Y-101039082D01*
X70120777Y-100918192D01*
X70044112Y-100803454D01*
X66696545Y-97455887D01*
X66581807Y-97379222D01*
X66454332Y-97326421D01*
X66454322Y-97326418D01*
X66318996Y-97299500D01*
X66318994Y-97299500D01*
X66318993Y-97299500D01*
X60818994Y-97299500D01*
X60681006Y-97299500D01*
X60681004Y-97299500D01*
X60545677Y-97326418D01*
X60545667Y-97326421D01*
X60418192Y-97379222D01*
X60303454Y-97455887D01*
X60303453Y-97455888D01*
X58908662Y-98850681D01*
X58847339Y-98884166D01*
X58820981Y-98887000D01*
X57087816Y-98887000D01*
X57040364Y-98877561D01*
X56896001Y-98817764D01*
X56895989Y-98817761D01*
X56741345Y-98787000D01*
X56741342Y-98787000D01*
X56583658Y-98787000D01*
X56583655Y-98787000D01*
X56429010Y-98817761D01*
X56428998Y-98817764D01*
X56284636Y-98877561D01*
X56237184Y-98887000D01*
X48925316Y-98887000D01*
X48877864Y-98877561D01*
X48733501Y-98817764D01*
X48733489Y-98817761D01*
X48578845Y-98787000D01*
X48578842Y-98787000D01*
X48421158Y-98787000D01*
X48421155Y-98787000D01*
X48266510Y-98817761D01*
X48266498Y-98817764D01*
X48120827Y-98878102D01*
X48120814Y-98878109D01*
X47989711Y-98965710D01*
X47989707Y-98965713D01*
X47878213Y-99077207D01*
X47878210Y-99077211D01*
X47790609Y-99208314D01*
X47790602Y-99208327D01*
X47730264Y-99353998D01*
X47730261Y-99354010D01*
X47699500Y-99508653D01*
X42205151Y-99508653D01*
X42204690Y-99508243D01*
X41775000Y-99078553D01*
X41346493Y-99507060D01*
X41285170Y-99540545D01*
X41215478Y-99535561D01*
X41171131Y-99507060D01*
X41100000Y-99435929D01*
X41028868Y-99507061D01*
X40967545Y-99540545D01*
X40897853Y-99535561D01*
X40853506Y-99507060D01*
X40335904Y-98989457D01*
X40331565Y-98981511D01*
X40324317Y-98976085D01*
X40315082Y-98951325D01*
X40302419Y-98928134D01*
X40303064Y-98919103D01*
X40299901Y-98910621D01*
X40304881Y-98887724D01*
X40311709Y-98894552D01*
X40385218Y-98925000D01*
X40464782Y-98925000D01*
X40538291Y-98894552D01*
X40594552Y-98838291D01*
X40625000Y-98764782D01*
X40625000Y-98702380D01*
X40669204Y-98693587D01*
X40738795Y-98699814D01*
X40781076Y-98727523D01*
X41100000Y-99046446D01*
X41100001Y-99046446D01*
X41418923Y-98727523D01*
X41480246Y-98694038D01*
X41530794Y-98693587D01*
X41575000Y-98702380D01*
X41575000Y-98764782D01*
X41605448Y-98838291D01*
X41661709Y-98894552D01*
X41735218Y-98925000D01*
X41814782Y-98925000D01*
X41888291Y-98894552D01*
X41944552Y-98838291D01*
X41975000Y-98764782D01*
X41975000Y-98702380D01*
X42019205Y-98693587D01*
X42088796Y-98699814D01*
X42131077Y-98727523D01*
X42529114Y-99125561D01*
X42592334Y-98972936D01*
X42592336Y-98972928D01*
X42624999Y-98808722D01*
X42625000Y-98808720D01*
X42625000Y-98641279D01*
X42624999Y-98641277D01*
X42592336Y-98477071D01*
X42592334Y-98477063D01*
X42538918Y-98348105D01*
X42531449Y-98278636D01*
X42538913Y-98253211D01*
X42592816Y-98123082D01*
X42625500Y-97958767D01*
X42625500Y-97791233D01*
X42592816Y-97626918D01*
X42539188Y-97497451D01*
X42531720Y-97427984D01*
X42539189Y-97402547D01*
X42592816Y-97273082D01*
X42602380Y-97225000D01*
X120735000Y-97225000D01*
X122825000Y-97225000D01*
X122825000Y-95325000D01*
X120735000Y-95325000D01*
X120735000Y-97225000D01*
X42602380Y-97225000D01*
X42625500Y-97108767D01*
X42625500Y-96941233D01*
X42592816Y-96776918D01*
X42539188Y-96647451D01*
X42531720Y-96577984D01*
X42539189Y-96552547D01*
X42592816Y-96423082D01*
X42625500Y-96258767D01*
X42625500Y-96091233D01*
X42592816Y-95926918D01*
X42539188Y-95797451D01*
X42531720Y-95727984D01*
X42539189Y-95702547D01*
X42592816Y-95573082D01*
X42625500Y-95408767D01*
X42625500Y-95241233D01*
X42592816Y-95076918D01*
X42539188Y-94947451D01*
X42531720Y-94877984D01*
X42539189Y-94852547D01*
X42592816Y-94723082D01*
X42625500Y-94558767D01*
X42625500Y-94391233D01*
X42592816Y-94226918D01*
X42539188Y-94097451D01*
X42531720Y-94027984D01*
X42539189Y-94002547D01*
X42592816Y-93873082D01*
X42625500Y-93708767D01*
X42625500Y-93541233D01*
X42592816Y-93376918D01*
X42538917Y-93246797D01*
X42531449Y-93177330D01*
X42538918Y-93151892D01*
X42592335Y-93022932D01*
X42592336Y-93022928D01*
X42624999Y-92858722D01*
X42625000Y-92858720D01*
X42625000Y-92691279D01*
X42624999Y-92691277D01*
X42592336Y-92527071D01*
X42592334Y-92527063D01*
X42529114Y-92374437D01*
X42131076Y-92772476D01*
X42069753Y-92805961D01*
X42019204Y-92806412D01*
X41975000Y-92797619D01*
X41975000Y-92735218D01*
X41944552Y-92661709D01*
X41888291Y-92605448D01*
X41814782Y-92575000D01*
X41735218Y-92575000D01*
X41661709Y-92605448D01*
X41605448Y-92661709D01*
X41575000Y-92735218D01*
X41575000Y-92797618D01*
X41530794Y-92806412D01*
X41461202Y-92800185D01*
X41418922Y-92772476D01*
X41100001Y-92453553D01*
X41100000Y-92453553D01*
X40781076Y-92772476D01*
X40776314Y-92775075D01*
X40773319Y-92779601D01*
X40745972Y-92791643D01*
X40719753Y-92805961D01*
X40713020Y-92806155D01*
X40709375Y-92807761D01*
X40685380Y-92806955D01*
X40674084Y-92807282D01*
X40671628Y-92806894D01*
X40625000Y-92797619D01*
X40625000Y-92735218D01*
X40594552Y-92661709D01*
X40538291Y-92605448D01*
X40464782Y-92575000D01*
X40385218Y-92575000D01*
X40311709Y-92605448D01*
X40303177Y-92613979D01*
X40307403Y-92554889D01*
X40335904Y-92510542D01*
X40853506Y-91992939D01*
X40914829Y-91959454D01*
X40984520Y-91964438D01*
X41028868Y-91992938D01*
X41100000Y-92064069D01*
X41171131Y-91992939D01*
X41232454Y-91959454D01*
X41302146Y-91964438D01*
X41346493Y-91992939D01*
X41774999Y-92421445D01*
X42204690Y-91991755D01*
X42266013Y-91958270D01*
X42280218Y-91956033D01*
X42336428Y-91950497D01*
X42386880Y-91874991D01*
X42458492Y-91702103D01*
X42458493Y-91702100D01*
X42463884Y-91675000D01*
X41711988Y-91675000D01*
X41729205Y-91665060D01*
X41785060Y-91609205D01*
X41824556Y-91540796D01*
X41845000Y-91464496D01*
X41845000Y-91385504D01*
X41824556Y-91309204D01*
X41785060Y-91240795D01*
X41729205Y-91184940D01*
X41711988Y-91175000D01*
X42463884Y-91175000D01*
X42463884Y-91174999D01*
X42458493Y-91147899D01*
X42458492Y-91147896D01*
X42386880Y-90975008D01*
X42386875Y-90974999D01*
X42282913Y-90819410D01*
X42282910Y-90819406D01*
X42150593Y-90687089D01*
X42150589Y-90687086D01*
X41995000Y-90583124D01*
X41994991Y-90583119D01*
X41822105Y-90511508D01*
X41822097Y-90511506D01*
X41638570Y-90475000D01*
X41045000Y-90475000D01*
X41045000Y-91125000D01*
X40545000Y-91125000D01*
X40545000Y-90475000D01*
X39951430Y-90475000D01*
X39767902Y-90511506D01*
X39767894Y-90511508D01*
X39595008Y-90583119D01*
X39594999Y-90583124D01*
X39439410Y-90687086D01*
X39439406Y-90687089D01*
X39307089Y-90819406D01*
X39307086Y-90819410D01*
X39203124Y-90974999D01*
X39203119Y-90975008D01*
X39131507Y-91147896D01*
X39131506Y-91147899D01*
X39126115Y-91174999D01*
X38733884Y-91174999D01*
X38728493Y-91147899D01*
X38728492Y-91147896D01*
X38656880Y-90975008D01*
X38656875Y-90974999D01*
X38552913Y-90819410D01*
X38552910Y-90819406D01*
X38420593Y-90687089D01*
X38420589Y-90687086D01*
X38265000Y-90583124D01*
X38264991Y-90583119D01*
X38092105Y-90511508D01*
X38092097Y-90511506D01*
X37908570Y-90475000D01*
X37665000Y-90475000D01*
X37665000Y-91125000D01*
X37165000Y-91125000D01*
X37165000Y-90475000D01*
X36921430Y-90475000D01*
X36737902Y-90511506D01*
X36737894Y-90511508D01*
X36565008Y-90583119D01*
X36564999Y-90583124D01*
X36409410Y-90687086D01*
X36409406Y-90687089D01*
X36277089Y-90819406D01*
X36277086Y-90819410D01*
X36173124Y-90974999D01*
X36173119Y-90975008D01*
X36101507Y-91147896D01*
X36101506Y-91147899D01*
X36096115Y-91174999D01*
X34250500Y-91174999D01*
X34250500Y-79171153D01*
X52699500Y-79171153D01*
X52699500Y-79328846D01*
X52730261Y-79483489D01*
X52730264Y-79483501D01*
X52790602Y-79629172D01*
X52790609Y-79629185D01*
X52878210Y-79760288D01*
X52878213Y-79760292D01*
X52989707Y-79871786D01*
X52989711Y-79871789D01*
X53120814Y-79959390D01*
X53120827Y-79959397D01*
X53194013Y-79989711D01*
X53266503Y-80019737D01*
X53421153Y-80050499D01*
X53421156Y-80050500D01*
X53421158Y-80050500D01*
X53578844Y-80050500D01*
X53578845Y-80050499D01*
X53733497Y-80019737D01*
X53879179Y-79959394D01*
X53879185Y-79959390D01*
X54010875Y-79871398D01*
X54077553Y-79850520D01*
X54079766Y-79850500D01*
X56449903Y-79850500D01*
X56516942Y-79870185D01*
X56537584Y-79886819D01*
X60295383Y-83644618D01*
X60328868Y-83705941D01*
X60331686Y-83734320D01*
X60331436Y-83749615D01*
X60328499Y-83760579D01*
X60328499Y-83918693D01*
X60328500Y-83918696D01*
X60328500Y-83929734D01*
X60328500Y-84333694D01*
X60328499Y-84333712D01*
X60328499Y-84499418D01*
X60328498Y-84499418D01*
X60342186Y-84550500D01*
X60357288Y-84606863D01*
X60369424Y-84652152D01*
X60371731Y-84656146D01*
X60371739Y-84656160D01*
X60448477Y-84789076D01*
X60448481Y-84789081D01*
X60567349Y-84907949D01*
X60567355Y-84907954D01*
X60854775Y-85195374D01*
X60854785Y-85195385D01*
X60859115Y-85199715D01*
X60859116Y-85199716D01*
X60970920Y-85311520D01*
X61038436Y-85350500D01*
X61107851Y-85390577D01*
X61260579Y-85431501D01*
X61260582Y-85431501D01*
X61426289Y-85431501D01*
X61426305Y-85431500D01*
X61841303Y-85431500D01*
X61841307Y-85431501D01*
X61999421Y-85431501D01*
X62010372Y-85428566D01*
X62025653Y-85428314D01*
X62045181Y-85433699D01*
X62065434Y-85434178D01*
X62080740Y-85443505D01*
X62093008Y-85446889D01*
X62101082Y-85455902D01*
X62115381Y-85464616D01*
X71014139Y-94363374D01*
X71014149Y-94363385D01*
X71018479Y-94367715D01*
X71018480Y-94367716D01*
X71130284Y-94479520D01*
X71130286Y-94479521D01*
X71130290Y-94479524D01*
X71199944Y-94519738D01*
X71267216Y-94558577D01*
X71379019Y-94588534D01*
X71419942Y-94599500D01*
X71419943Y-94599500D01*
X75414331Y-94599500D01*
X75414347Y-94599501D01*
X75421943Y-94599501D01*
X75580054Y-94599501D01*
X75580057Y-94599501D01*
X75732785Y-94558577D01*
X75732786Y-94558575D01*
X75740635Y-94556473D01*
X75740953Y-94557660D01*
X75776949Y-94550500D01*
X75828844Y-94550500D01*
X75828845Y-94550499D01*
X75983497Y-94519737D01*
X76129179Y-94459394D01*
X76260289Y-94371789D01*
X76371789Y-94260289D01*
X76459394Y-94129179D01*
X76519737Y-93983497D01*
X76550500Y-93828842D01*
X76550500Y-93671158D01*
X76550500Y-93671155D01*
X76550499Y-93671153D01*
X76535950Y-93598013D01*
X76519737Y-93516503D01*
X76470859Y-93398500D01*
X76459397Y-93370827D01*
X76459390Y-93370814D01*
X76371789Y-93239711D01*
X76371786Y-93239707D01*
X76260292Y-93128213D01*
X76260288Y-93128210D01*
X76129185Y-93040609D01*
X76129172Y-93040602D01*
X75983501Y-92980264D01*
X75983489Y-92980261D01*
X75828845Y-92949500D01*
X75828842Y-92949500D01*
X75824838Y-92949500D01*
X75822816Y-92948906D01*
X75822782Y-92948903D01*
X75822782Y-92948896D01*
X75757799Y-92929815D01*
X75720389Y-92892331D01*
X75714475Y-92883089D01*
X75709394Y-92870821D01*
X75644110Y-92773116D01*
X75644091Y-92773087D01*
X75621789Y-92739711D01*
X75621786Y-92739707D01*
X75593383Y-92711304D01*
X81849500Y-92711304D01*
X81849500Y-92888695D01*
X81884103Y-93062658D01*
X81884106Y-93062667D01*
X81951983Y-93226540D01*
X81951990Y-93226553D01*
X82050535Y-93374034D01*
X82050538Y-93374038D01*
X82175961Y-93499461D01*
X82175965Y-93499464D01*
X82323446Y-93598009D01*
X82323459Y-93598016D01*
X82446363Y-93648923D01*
X82487334Y-93665894D01*
X82487336Y-93665894D01*
X82487341Y-93665896D01*
X82661304Y-93700499D01*
X82661307Y-93700500D01*
X82661309Y-93700500D01*
X82838693Y-93700500D01*
X82838694Y-93700499D01*
X82896682Y-93688964D01*
X83012658Y-93665896D01*
X83012661Y-93665894D01*
X83012666Y-93665894D01*
X83176547Y-93598013D01*
X83324035Y-93499464D01*
X83449464Y-93374035D01*
X83548013Y-93226547D01*
X83615894Y-93062666D01*
X83620282Y-93040609D01*
X83650499Y-92888695D01*
X83650500Y-92888693D01*
X83650500Y-92711306D01*
X83650499Y-92711304D01*
X83615896Y-92537341D01*
X83615893Y-92537332D01*
X83604796Y-92510542D01*
X83581191Y-92453553D01*
X83548016Y-92373459D01*
X83548009Y-92373446D01*
X83449464Y-92225965D01*
X83449461Y-92225961D01*
X83324038Y-92100538D01*
X83324034Y-92100535D01*
X83176553Y-92001990D01*
X83176540Y-92001983D01*
X83012667Y-91934106D01*
X83012658Y-91934103D01*
X82838694Y-91899500D01*
X82838691Y-91899500D01*
X82661309Y-91899500D01*
X82661306Y-91899500D01*
X82487341Y-91934103D01*
X82487332Y-91934106D01*
X82323459Y-92001983D01*
X82323446Y-92001990D01*
X82175965Y-92100535D01*
X82175961Y-92100538D01*
X82050538Y-92225961D01*
X82050535Y-92225965D01*
X81951990Y-92373446D01*
X81951983Y-92373459D01*
X81884106Y-92537332D01*
X81884103Y-92537341D01*
X81849500Y-92711304D01*
X75593383Y-92711304D01*
X75510292Y-92628213D01*
X75510288Y-92628210D01*
X75379185Y-92540609D01*
X75379172Y-92540602D01*
X75233501Y-92480264D01*
X75233489Y-92480261D01*
X75078845Y-92449500D01*
X75078842Y-92449500D01*
X74921158Y-92449500D01*
X74921155Y-92449500D01*
X74766510Y-92480261D01*
X74766498Y-92480264D01*
X74620827Y-92540602D01*
X74620814Y-92540609D01*
X74489125Y-92628602D01*
X74422447Y-92649480D01*
X74420234Y-92649500D01*
X73050097Y-92649500D01*
X72983058Y-92629815D01*
X72962416Y-92613181D01*
X68678533Y-88329298D01*
X68645048Y-88267975D01*
X68650032Y-88198283D01*
X68691904Y-88142350D01*
X68721377Y-88126007D01*
X68731434Y-88122106D01*
X68762666Y-88115894D01*
X68926547Y-88048013D01*
X68932174Y-88044252D01*
X68944303Y-88039549D01*
X68971938Y-88037211D01*
X68999092Y-88031559D01*
X69006267Y-88034308D01*
X69013924Y-88033661D01*
X69038436Y-88046636D01*
X69064336Y-88056561D01*
X69075302Y-88066150D01*
X69075676Y-88066348D01*
X69075818Y-88066601D01*
X69076821Y-88067478D01*
X71573266Y-90563923D01*
X71606751Y-90625246D01*
X71607202Y-90627413D01*
X71634103Y-90762658D01*
X71634106Y-90762667D01*
X71701983Y-90926540D01*
X71701990Y-90926553D01*
X71800535Y-91074034D01*
X71800538Y-91074038D01*
X71925961Y-91199461D01*
X71925965Y-91199464D01*
X72073446Y-91298009D01*
X72073459Y-91298016D01*
X72196363Y-91348923D01*
X72237334Y-91365894D01*
X72237336Y-91365894D01*
X72237341Y-91365896D01*
X72411304Y-91400499D01*
X72411307Y-91400500D01*
X72411309Y-91400500D01*
X72588693Y-91400500D01*
X72588694Y-91400499D01*
X72664081Y-91385504D01*
X72762658Y-91365896D01*
X72762661Y-91365894D01*
X72762666Y-91365894D01*
X72926547Y-91298013D01*
X73074035Y-91199464D01*
X73199464Y-91074035D01*
X73298013Y-90926547D01*
X73365894Y-90762666D01*
X73400500Y-90588691D01*
X73400500Y-90411309D01*
X73400500Y-90411306D01*
X73400499Y-90411304D01*
X73365896Y-90237341D01*
X73365893Y-90237332D01*
X73298016Y-90073459D01*
X73298009Y-90073446D01*
X73199464Y-89925965D01*
X73199461Y-89925961D01*
X73074038Y-89800538D01*
X73074034Y-89800535D01*
X72926553Y-89701990D01*
X72926540Y-89701983D01*
X72762667Y-89634106D01*
X72762658Y-89634103D01*
X72627413Y-89607202D01*
X72565502Y-89574817D01*
X72563923Y-89573266D01*
X70733556Y-87742898D01*
X70651962Y-87661304D01*
X106599500Y-87661304D01*
X106599500Y-87838695D01*
X106634103Y-88012658D01*
X106634106Y-88012667D01*
X106701983Y-88176540D01*
X106701990Y-88176553D01*
X106800535Y-88324034D01*
X106800538Y-88324038D01*
X106925961Y-88449461D01*
X106925965Y-88449464D01*
X107073446Y-88548009D01*
X107073459Y-88548016D01*
X107196363Y-88598923D01*
X107237334Y-88615894D01*
X107237336Y-88615894D01*
X107237341Y-88615896D01*
X107411304Y-88650499D01*
X107411307Y-88650500D01*
X107411309Y-88650500D01*
X107588693Y-88650500D01*
X107588694Y-88650499D01*
X107646682Y-88638964D01*
X107762658Y-88615896D01*
X107762661Y-88615894D01*
X107762666Y-88615894D01*
X107926547Y-88548013D01*
X108074035Y-88449464D01*
X108199464Y-88324035D01*
X108298013Y-88176547D01*
X108365894Y-88012666D01*
X108400500Y-87838691D01*
X108400500Y-87661309D01*
X108400500Y-87661306D01*
X108400499Y-87661304D01*
X108365896Y-87487341D01*
X108365893Y-87487332D01*
X108298016Y-87323459D01*
X108298009Y-87323446D01*
X108199464Y-87175965D01*
X108199461Y-87175961D01*
X108074038Y-87050538D01*
X108074034Y-87050535D01*
X107926553Y-86951990D01*
X107926540Y-86951983D01*
X107762667Y-86884106D01*
X107762658Y-86884103D01*
X107588694Y-86849500D01*
X107588691Y-86849500D01*
X107411309Y-86849500D01*
X107411306Y-86849500D01*
X107237341Y-86884103D01*
X107237332Y-86884106D01*
X107073459Y-86951983D01*
X107073446Y-86951990D01*
X106925965Y-87050535D01*
X106925961Y-87050538D01*
X106800538Y-87175961D01*
X106800535Y-87175965D01*
X106701990Y-87323446D01*
X106701983Y-87323459D01*
X106634106Y-87487332D01*
X106634103Y-87487341D01*
X106599500Y-87661304D01*
X70651962Y-87661304D01*
X69696545Y-86705887D01*
X69581807Y-86629222D01*
X69454332Y-86576421D01*
X69454322Y-86576418D01*
X69318996Y-86549500D01*
X69318994Y-86549500D01*
X69318993Y-86549500D01*
X69110100Y-86549500D01*
X69091954Y-86544171D01*
X69073046Y-86543834D01*
X69044827Y-86530333D01*
X69043061Y-86529815D01*
X69041259Y-86528635D01*
X69010851Y-86508317D01*
X68926550Y-86451988D01*
X68926547Y-86451987D01*
X68828329Y-86411304D01*
X82099500Y-86411304D01*
X82099500Y-86588695D01*
X82134103Y-86762658D01*
X82134106Y-86762667D01*
X82201983Y-86926540D01*
X82201990Y-86926553D01*
X82300535Y-87074034D01*
X82300538Y-87074038D01*
X82425961Y-87199461D01*
X82425965Y-87199464D01*
X82573446Y-87298009D01*
X82573459Y-87298016D01*
X82696363Y-87348923D01*
X82737334Y-87365894D01*
X82737336Y-87365894D01*
X82737341Y-87365896D01*
X82911304Y-87400499D01*
X82911307Y-87400500D01*
X82911309Y-87400500D01*
X83088693Y-87400500D01*
X83088694Y-87400499D01*
X83146682Y-87388964D01*
X83262658Y-87365896D01*
X83262661Y-87365894D01*
X83262666Y-87365894D01*
X83426547Y-87298013D01*
X83574035Y-87199464D01*
X83699464Y-87074035D01*
X83798013Y-86926547D01*
X83865894Y-86762666D01*
X83877189Y-86705886D01*
X83900499Y-86588695D01*
X83900500Y-86588693D01*
X83900500Y-86411306D01*
X83900499Y-86411304D01*
X83865896Y-86237341D01*
X83865893Y-86237332D01*
X83863071Y-86230520D01*
X83848923Y-86196363D01*
X83798016Y-86073459D01*
X83798009Y-86073446D01*
X83699464Y-85925965D01*
X83699461Y-85925961D01*
X83574038Y-85800538D01*
X83574034Y-85800535D01*
X83426553Y-85701990D01*
X83426540Y-85701983D01*
X83262667Y-85634106D01*
X83262658Y-85634103D01*
X83088694Y-85599500D01*
X83088691Y-85599500D01*
X82911309Y-85599500D01*
X82911306Y-85599500D01*
X82737341Y-85634103D01*
X82737332Y-85634106D01*
X82573459Y-85701983D01*
X82573446Y-85701990D01*
X82425965Y-85800535D01*
X82425961Y-85800538D01*
X82300538Y-85925961D01*
X82300535Y-85925965D01*
X82201990Y-86073446D01*
X82201983Y-86073459D01*
X82134106Y-86237332D01*
X82134103Y-86237341D01*
X82099500Y-86411304D01*
X68828329Y-86411304D01*
X68762667Y-86384106D01*
X68762658Y-86384103D01*
X68588694Y-86349500D01*
X68588691Y-86349500D01*
X68411309Y-86349500D01*
X68411306Y-86349500D01*
X68237341Y-86384103D01*
X68237332Y-86384106D01*
X68073459Y-86451983D01*
X68073446Y-86451990D01*
X67925965Y-86550535D01*
X67925961Y-86550538D01*
X67800538Y-86675961D01*
X67800535Y-86675965D01*
X67701990Y-86823446D01*
X67701983Y-86823459D01*
X67634106Y-86987332D01*
X67634105Y-86987337D01*
X67629999Y-87007979D01*
X67597613Y-87069889D01*
X67536896Y-87104462D01*
X67467127Y-87100721D01*
X67420701Y-87071466D01*
X66406047Y-86056812D01*
X66372562Y-85995489D01*
X66377546Y-85925797D01*
X66419418Y-85869864D01*
X66469537Y-85847513D01*
X66483497Y-85844737D01*
X66629179Y-85784394D01*
X66760289Y-85696789D01*
X66871789Y-85585289D01*
X66959394Y-85454179D01*
X66967877Y-85433699D01*
X67006876Y-85339548D01*
X67050717Y-85285144D01*
X67117011Y-85263079D01*
X67121437Y-85263000D01*
X70329560Y-85263000D01*
X70396599Y-85282685D01*
X70417236Y-85299314D01*
X70457470Y-85339548D01*
X70489712Y-85371790D01*
X70620814Y-85459390D01*
X70620827Y-85459397D01*
X70758683Y-85516498D01*
X70766503Y-85519737D01*
X70921153Y-85550499D01*
X70921156Y-85550500D01*
X70921158Y-85550500D01*
X71078844Y-85550500D01*
X71078845Y-85550499D01*
X71233497Y-85519737D01*
X71379179Y-85459394D01*
X71510289Y-85371789D01*
X71621789Y-85260289D01*
X71709394Y-85129179D01*
X71769737Y-84983497D01*
X71800500Y-84828842D01*
X71800500Y-84671158D01*
X71800500Y-84671155D01*
X71800499Y-84671153D01*
X71787711Y-84606863D01*
X71769737Y-84516503D01*
X71769735Y-84516498D01*
X71709397Y-84370827D01*
X71709390Y-84370814D01*
X71621789Y-84239711D01*
X71621786Y-84239707D01*
X71510292Y-84128213D01*
X71510288Y-84128210D01*
X71490132Y-84114742D01*
X71379185Y-84040609D01*
X71379172Y-84040602D01*
X71323946Y-84017727D01*
X85701455Y-84017727D01*
X85701455Y-84175420D01*
X85732216Y-84330063D01*
X85732219Y-84330075D01*
X85792557Y-84475746D01*
X85792564Y-84475759D01*
X85880165Y-84606862D01*
X85880168Y-84606866D01*
X85991662Y-84718360D01*
X85991666Y-84718363D01*
X86122769Y-84805964D01*
X86122781Y-84805971D01*
X86223534Y-84847703D01*
X86261868Y-84863581D01*
X86316272Y-84907421D01*
X86338337Y-84973715D01*
X86321058Y-85041415D01*
X86302098Y-85065822D01*
X86253214Y-85114706D01*
X86253210Y-85114711D01*
X86165609Y-85245814D01*
X86165602Y-85245827D01*
X86105264Y-85391498D01*
X86105261Y-85391510D01*
X86074500Y-85546153D01*
X86074500Y-85703846D01*
X86105261Y-85858489D01*
X86105264Y-85858501D01*
X86165602Y-86004172D01*
X86165609Y-86004185D01*
X86253210Y-86135288D01*
X86253213Y-86135292D01*
X86364707Y-86246786D01*
X86364711Y-86246789D01*
X86495814Y-86334390D01*
X86495827Y-86334397D01*
X86586101Y-86371789D01*
X86641503Y-86394737D01*
X86724816Y-86411309D01*
X86796153Y-86425499D01*
X86796156Y-86425500D01*
X86796158Y-86425500D01*
X86953844Y-86425500D01*
X86953845Y-86425499D01*
X87108497Y-86394737D01*
X87254179Y-86334394D01*
X87385289Y-86246789D01*
X87496789Y-86135289D01*
X87584394Y-86004179D01*
X87587994Y-85995489D01*
X87616861Y-85925797D01*
X87644737Y-85858497D01*
X87664113Y-85761085D01*
X87675638Y-85703150D01*
X87708023Y-85641239D01*
X87709518Y-85639716D01*
X88311416Y-85037819D01*
X88338343Y-85023115D01*
X88364162Y-85006523D01*
X88370362Y-85005631D01*
X88372739Y-85004334D01*
X88399097Y-85001500D01*
X88512331Y-85001500D01*
X88512347Y-85001501D01*
X88519943Y-85001501D01*
X88678054Y-85001501D01*
X88678057Y-85001501D01*
X88830785Y-84960577D01*
X88880904Y-84931639D01*
X88967716Y-84881520D01*
X89079520Y-84769716D01*
X89079520Y-84769714D01*
X89089728Y-84759507D01*
X89089729Y-84759504D01*
X91462416Y-82386819D01*
X91523739Y-82353334D01*
X91550097Y-82350500D01*
X99449903Y-82350500D01*
X99516942Y-82370185D01*
X99537584Y-82386819D01*
X103265139Y-86114374D01*
X103265149Y-86114385D01*
X103269479Y-86118715D01*
X103269480Y-86118716D01*
X103381284Y-86230520D01*
X103432845Y-86260288D01*
X103468095Y-86280639D01*
X103468097Y-86280641D01*
X103518213Y-86309576D01*
X103518215Y-86309577D01*
X103670942Y-86350500D01*
X103670943Y-86350500D01*
X106945234Y-86350500D01*
X107012273Y-86370185D01*
X107014125Y-86371398D01*
X107145814Y-86459390D01*
X107145827Y-86459397D01*
X107263932Y-86508317D01*
X107291503Y-86519737D01*
X107441131Y-86549500D01*
X107446153Y-86550499D01*
X107446156Y-86550500D01*
X107446158Y-86550500D01*
X107603844Y-86550500D01*
X107603845Y-86550499D01*
X107758497Y-86519737D01*
X107904179Y-86459394D01*
X108035289Y-86371789D01*
X108146789Y-86260289D01*
X108234394Y-86129179D01*
X108294737Y-85983497D01*
X108325500Y-85828842D01*
X108325500Y-85671158D01*
X108325500Y-85671155D01*
X108325499Y-85671153D01*
X108301499Y-85550499D01*
X108294737Y-85516503D01*
X108271080Y-85459390D01*
X108234397Y-85370827D01*
X108234390Y-85370814D01*
X108146789Y-85239711D01*
X108146786Y-85239707D01*
X108035292Y-85128213D01*
X108035288Y-85128210D01*
X107904185Y-85040609D01*
X107904172Y-85040602D01*
X107758501Y-84980264D01*
X107758489Y-84980261D01*
X107603845Y-84949500D01*
X107603842Y-84949500D01*
X107446158Y-84949500D01*
X107446155Y-84949500D01*
X107291510Y-84980261D01*
X107291498Y-84980264D01*
X107145827Y-85040602D01*
X107145814Y-85040609D01*
X107014125Y-85128602D01*
X106947447Y-85149480D01*
X106945234Y-85149500D01*
X104050097Y-85149500D01*
X103983058Y-85129815D01*
X103962416Y-85113181D01*
X100661416Y-81812181D01*
X100627931Y-81750858D01*
X100632915Y-81681166D01*
X100674787Y-81625233D01*
X100740251Y-81600816D01*
X100749097Y-81600500D01*
X101949903Y-81600500D01*
X102016942Y-81620185D01*
X102037584Y-81636819D01*
X104515139Y-84114374D01*
X104515149Y-84114385D01*
X104519479Y-84118715D01*
X104519480Y-84118716D01*
X104631284Y-84230520D01*
X104707223Y-84274362D01*
X104718095Y-84280639D01*
X104718097Y-84280641D01*
X104760743Y-84305263D01*
X104768215Y-84309577D01*
X104920942Y-84350500D01*
X104920943Y-84350500D01*
X106945234Y-84350500D01*
X107012273Y-84370185D01*
X107014125Y-84371398D01*
X107145814Y-84459390D01*
X107145827Y-84459397D01*
X107242448Y-84499418D01*
X107291503Y-84519737D01*
X107446153Y-84550499D01*
X107446156Y-84550500D01*
X107446158Y-84550500D01*
X107603844Y-84550500D01*
X107603845Y-84550499D01*
X107758497Y-84519737D01*
X107904179Y-84459394D01*
X108035289Y-84371789D01*
X108146789Y-84260289D01*
X108234394Y-84129179D01*
X108294737Y-83983497D01*
X108325500Y-83828842D01*
X108325500Y-83671158D01*
X108325500Y-83671155D01*
X108325499Y-83671153D01*
X108320221Y-83644618D01*
X108294737Y-83516503D01*
X108275791Y-83470762D01*
X108234397Y-83370827D01*
X108234390Y-83370814D01*
X108146789Y-83239711D01*
X108146786Y-83239707D01*
X108035292Y-83128213D01*
X108035288Y-83128210D01*
X107904185Y-83040609D01*
X107904172Y-83040602D01*
X107758501Y-82980264D01*
X107758489Y-82980261D01*
X107603845Y-82949500D01*
X107603842Y-82949500D01*
X107446158Y-82949500D01*
X107446155Y-82949500D01*
X107291510Y-82980261D01*
X107291498Y-82980264D01*
X107145827Y-83040602D01*
X107145814Y-83040609D01*
X107014125Y-83128602D01*
X106947447Y-83149480D01*
X106945234Y-83149500D01*
X105300097Y-83149500D01*
X105233058Y-83129815D01*
X105212416Y-83113181D01*
X102911416Y-80812181D01*
X102877931Y-80750858D01*
X102882915Y-80681166D01*
X102924787Y-80625233D01*
X102990251Y-80600816D01*
X102999097Y-80600500D01*
X105474903Y-80600500D01*
X105541942Y-80620185D01*
X105562584Y-80636819D01*
X106690425Y-81764660D01*
X106723910Y-81825983D01*
X106724361Y-81828149D01*
X106755261Y-81983491D01*
X106755264Y-81983501D01*
X106815602Y-82129172D01*
X106815609Y-82129185D01*
X106903210Y-82260288D01*
X106903213Y-82260292D01*
X107014707Y-82371786D01*
X107014711Y-82371789D01*
X107145814Y-82459390D01*
X107145827Y-82459397D01*
X107291498Y-82519735D01*
X107291503Y-82519737D01*
X107446153Y-82550499D01*
X107446156Y-82550500D01*
X107446158Y-82550500D01*
X107603844Y-82550500D01*
X107603845Y-82550499D01*
X107758497Y-82519737D01*
X107904179Y-82459394D01*
X108035289Y-82371789D01*
X108146789Y-82260289D01*
X108234394Y-82129179D01*
X108294737Y-81983497D01*
X108325500Y-81828842D01*
X108325500Y-81671158D01*
X108325500Y-81671155D01*
X108325499Y-81671153D01*
X108294737Y-81516503D01*
X108281533Y-81484625D01*
X108234397Y-81370827D01*
X108234390Y-81370814D01*
X108146789Y-81239711D01*
X108146786Y-81239707D01*
X108035292Y-81128213D01*
X108035288Y-81128210D01*
X107904185Y-81040609D01*
X107904172Y-81040602D01*
X107758501Y-80980264D01*
X107758491Y-80980261D01*
X107603151Y-80949362D01*
X107541241Y-80916977D01*
X107539662Y-80915426D01*
X106262590Y-79638355D01*
X106262588Y-79638352D01*
X106143717Y-79519481D01*
X106143716Y-79519480D01*
X106055907Y-79468784D01*
X106006785Y-79440423D01*
X105854057Y-79399499D01*
X105695943Y-79399499D01*
X105688347Y-79399499D01*
X105688331Y-79399500D01*
X90836670Y-79399500D01*
X90836654Y-79399499D01*
X90829058Y-79399499D01*
X90670943Y-79399499D01*
X90608858Y-79416135D01*
X90518214Y-79440423D01*
X90518209Y-79440426D01*
X90381290Y-79519475D01*
X90381282Y-79519481D01*
X87537584Y-82363181D01*
X87510656Y-82377884D01*
X87484838Y-82394477D01*
X87478637Y-82395368D01*
X87476261Y-82396666D01*
X87449903Y-82399500D01*
X87329766Y-82399500D01*
X87262727Y-82379815D01*
X87260875Y-82378602D01*
X87129185Y-82290609D01*
X87129172Y-82290602D01*
X86983501Y-82230264D01*
X86983489Y-82230261D01*
X86828845Y-82199500D01*
X86828842Y-82199500D01*
X86671158Y-82199500D01*
X86671155Y-82199500D01*
X86516510Y-82230261D01*
X86516498Y-82230264D01*
X86370827Y-82290602D01*
X86370814Y-82290609D01*
X86239711Y-82378210D01*
X86239707Y-82378213D01*
X86128213Y-82489707D01*
X86128210Y-82489711D01*
X86040609Y-82620814D01*
X86040602Y-82620827D01*
X85980264Y-82766498D01*
X85980261Y-82766510D01*
X85949500Y-82921153D01*
X85949500Y-83078846D01*
X85980261Y-83233489D01*
X85980263Y-83233497D01*
X86017764Y-83324034D01*
X86022567Y-83335628D01*
X86030036Y-83405098D01*
X85998761Y-83467577D01*
X85995688Y-83470762D01*
X85880165Y-83586285D01*
X85792564Y-83717388D01*
X85792557Y-83717401D01*
X85732219Y-83863072D01*
X85732216Y-83863084D01*
X85701455Y-84017727D01*
X71323946Y-84017727D01*
X71233501Y-83980264D01*
X71233489Y-83980261D01*
X71078845Y-83949500D01*
X71078842Y-83949500D01*
X70921158Y-83949500D01*
X70921155Y-83949500D01*
X70766510Y-83980261D01*
X70766498Y-83980264D01*
X70620828Y-84040602D01*
X70620812Y-84040611D01*
X70620081Y-84041100D01*
X70619639Y-84041238D01*
X70615447Y-84043479D01*
X70615022Y-84042684D01*
X70553405Y-84061980D01*
X70551188Y-84062000D01*
X66583443Y-84062000D01*
X66430714Y-84102923D01*
X66415654Y-84111618D01*
X66415648Y-84111621D01*
X66410080Y-84114837D01*
X66293784Y-84181980D01*
X66228390Y-84247373D01*
X66220436Y-84253140D01*
X66196399Y-84261687D01*
X66174013Y-84273911D01*
X66171848Y-84274362D01*
X66016508Y-84305261D01*
X66016498Y-84305264D01*
X65870827Y-84365602D01*
X65870809Y-84365612D01*
X65793390Y-84417342D01*
X65726713Y-84438220D01*
X65659333Y-84419735D01*
X65612643Y-84367756D01*
X65600500Y-84314240D01*
X65600500Y-83300097D01*
X65620185Y-83233058D01*
X65636819Y-83212416D01*
X66187931Y-82661304D01*
X68949500Y-82661304D01*
X68949500Y-82838695D01*
X68984103Y-83012658D01*
X68984106Y-83012667D01*
X69051983Y-83176540D01*
X69051990Y-83176553D01*
X69150535Y-83324034D01*
X69150538Y-83324038D01*
X69275961Y-83449461D01*
X69275965Y-83449464D01*
X69423446Y-83548009D01*
X69423459Y-83548016D01*
X69546363Y-83598923D01*
X69587334Y-83615894D01*
X69587336Y-83615894D01*
X69587341Y-83615896D01*
X69761304Y-83650499D01*
X69761307Y-83650500D01*
X69761309Y-83650500D01*
X69938693Y-83650500D01*
X69938694Y-83650499D01*
X69996682Y-83638964D01*
X70112658Y-83615896D01*
X70112661Y-83615894D01*
X70112666Y-83615894D01*
X70276547Y-83548013D01*
X70424035Y-83449464D01*
X70549464Y-83324035D01*
X70648013Y-83176547D01*
X70715894Y-83012666D01*
X70722340Y-82980263D01*
X70750499Y-82838695D01*
X70750500Y-82838693D01*
X70750500Y-82661306D01*
X70750499Y-82661304D01*
X70715896Y-82487341D01*
X70715893Y-82487332D01*
X70648016Y-82323459D01*
X70648009Y-82323446D01*
X70549464Y-82175965D01*
X70549461Y-82175961D01*
X70424038Y-82050538D01*
X70424034Y-82050535D01*
X70276553Y-81951990D01*
X70276540Y-81951983D01*
X70112667Y-81884106D01*
X70112658Y-81884103D01*
X69938694Y-81849500D01*
X69938691Y-81849500D01*
X69761309Y-81849500D01*
X69761306Y-81849500D01*
X69587341Y-81884103D01*
X69587332Y-81884106D01*
X69423459Y-81951983D01*
X69423446Y-81951990D01*
X69275965Y-82050535D01*
X69275961Y-82050538D01*
X69150538Y-82175961D01*
X69150535Y-82175965D01*
X69051990Y-82323446D01*
X69051983Y-82323459D01*
X68984106Y-82487332D01*
X68984103Y-82487341D01*
X68949500Y-82661304D01*
X66187931Y-82661304D01*
X70437819Y-78411416D01*
X70499142Y-78377931D01*
X70568834Y-78382915D01*
X70624767Y-78424787D01*
X70649184Y-78490251D01*
X70649500Y-78499097D01*
X70649500Y-79750830D01*
X70649499Y-79750848D01*
X70649499Y-79916554D01*
X70649498Y-79916554D01*
X70677146Y-80019738D01*
X70690423Y-80069285D01*
X70707868Y-80099500D01*
X70769479Y-80206214D01*
X70769481Y-80206217D01*
X70888349Y-80325085D01*
X70888355Y-80325090D01*
X71077925Y-80514660D01*
X71111410Y-80575983D01*
X71111861Y-80578149D01*
X71142761Y-80733491D01*
X71142764Y-80733501D01*
X71203102Y-80879172D01*
X71203109Y-80879185D01*
X71290710Y-81010288D01*
X71290713Y-81010292D01*
X71402207Y-81121786D01*
X71402211Y-81121789D01*
X71533314Y-81209390D01*
X71533327Y-81209397D01*
X71678998Y-81269735D01*
X71679003Y-81269737D01*
X71833653Y-81300499D01*
X71833656Y-81300500D01*
X71833658Y-81300500D01*
X71991344Y-81300500D01*
X71991345Y-81300499D01*
X72145997Y-81269737D01*
X72291679Y-81209394D01*
X72422789Y-81121789D01*
X72534289Y-81010289D01*
X72621894Y-80879179D01*
X72682237Y-80733497D01*
X72713000Y-80578842D01*
X72713000Y-80421158D01*
X72713000Y-80421155D01*
X72712999Y-80421153D01*
X72693890Y-80325085D01*
X72682237Y-80266503D01*
X72682235Y-80266498D01*
X72621897Y-80120827D01*
X72621890Y-80120814D01*
X72534289Y-79989711D01*
X72534286Y-79989707D01*
X72422792Y-79878213D01*
X72422788Y-79878210D01*
X72291685Y-79790609D01*
X72291672Y-79790602D01*
X72146001Y-79730264D01*
X72145991Y-79730261D01*
X71990649Y-79699361D01*
X71973892Y-79690595D01*
X71955414Y-79686576D01*
X71930377Y-79667833D01*
X71928738Y-79666976D01*
X71927160Y-79665425D01*
X71886819Y-79625084D01*
X71853334Y-79563761D01*
X71850500Y-79537403D01*
X71850500Y-66833653D01*
X76449500Y-66833653D01*
X76449500Y-66991346D01*
X76480261Y-67145989D01*
X76480264Y-67146001D01*
X76540602Y-67291672D01*
X76540609Y-67291685D01*
X76628210Y-67422788D01*
X76628213Y-67422792D01*
X76739707Y-67534286D01*
X76739711Y-67534289D01*
X76870814Y-67621890D01*
X76870827Y-67621897D01*
X77016498Y-67682235D01*
X77016503Y-67682237D01*
X77171153Y-67712999D01*
X77171156Y-67713000D01*
X77171158Y-67713000D01*
X77328844Y-67713000D01*
X77328845Y-67712999D01*
X77483497Y-67682237D01*
X77629179Y-67621894D01*
X77760289Y-67534289D01*
X77871789Y-67422789D01*
X77959394Y-67291679D01*
X78019737Y-67145997D01*
X78050500Y-66991342D01*
X78050500Y-66833658D01*
X78050500Y-66833655D01*
X78050499Y-66833653D01*
X78041936Y-66790606D01*
X78019737Y-66679003D01*
X78019735Y-66678998D01*
X77959397Y-66533327D01*
X77959390Y-66533314D01*
X77871789Y-66402211D01*
X77871786Y-66402207D01*
X77760292Y-66290713D01*
X77760288Y-66290710D01*
X77629181Y-66203107D01*
X77629172Y-66203102D01*
X77483501Y-66142764D01*
X77483489Y-66142761D01*
X77328845Y-66112000D01*
X77328842Y-66112000D01*
X77171158Y-66112000D01*
X77171155Y-66112000D01*
X77016510Y-66142761D01*
X77016498Y-66142764D01*
X76870827Y-66203102D01*
X76870819Y-66203107D01*
X76739711Y-66290710D01*
X76739707Y-66290713D01*
X76628213Y-66402207D01*
X76628210Y-66402211D01*
X76540609Y-66533314D01*
X76540602Y-66533327D01*
X76480264Y-66678998D01*
X76480261Y-66679010D01*
X76449500Y-66833653D01*
X71850500Y-66833653D01*
X71850500Y-66800096D01*
X71870185Y-66733057D01*
X71886814Y-66712419D01*
X72858506Y-65740727D01*
X72858511Y-65740724D01*
X72868714Y-65730520D01*
X72868716Y-65730520D01*
X72980520Y-65618716D01*
X72984293Y-65612180D01*
X73050913Y-65496792D01*
X73050914Y-65496789D01*
X73059577Y-65481785D01*
X73100501Y-65329057D01*
X73100501Y-65239957D01*
X73109940Y-65192504D01*
X73121671Y-65164182D01*
X73144737Y-65108497D01*
X73175500Y-64953842D01*
X73175500Y-64796158D01*
X73175500Y-64796155D01*
X73175499Y-64796153D01*
X73164449Y-64740600D01*
X73144737Y-64641503D01*
X73092959Y-64516498D01*
X73084397Y-64495827D01*
X73084390Y-64495814D01*
X72996789Y-64364711D01*
X72996786Y-64364707D01*
X72944260Y-64312181D01*
X72910775Y-64250858D01*
X72915759Y-64181166D01*
X72957631Y-64125233D01*
X73023095Y-64100816D01*
X73031941Y-64100500D01*
X82949903Y-64100500D01*
X83016942Y-64120185D01*
X83037584Y-64136819D01*
X83665425Y-64764660D01*
X83698910Y-64825983D01*
X83699361Y-64828149D01*
X83730261Y-64983491D01*
X83730264Y-64983501D01*
X83790602Y-65129172D01*
X83790609Y-65129185D01*
X83878210Y-65260288D01*
X83878213Y-65260292D01*
X83989707Y-65371786D01*
X83989711Y-65371789D01*
X84120814Y-65459390D01*
X84120827Y-65459397D01*
X84211101Y-65496789D01*
X84266503Y-65519737D01*
X84421153Y-65550499D01*
X84421156Y-65550500D01*
X84421158Y-65550500D01*
X84578844Y-65550500D01*
X84578845Y-65550499D01*
X84733497Y-65519737D01*
X84879179Y-65459394D01*
X85010289Y-65371789D01*
X85121789Y-65260289D01*
X85209394Y-65129179D01*
X85269737Y-64983497D01*
X85300500Y-64828842D01*
X85300500Y-64671158D01*
X85300500Y-64671155D01*
X85300499Y-64671153D01*
X85269738Y-64516510D01*
X85269737Y-64516503D01*
X85261170Y-64495821D01*
X85209397Y-64370827D01*
X85209390Y-64370814D01*
X85121789Y-64239711D01*
X85121786Y-64239707D01*
X85010292Y-64128213D01*
X85010288Y-64128210D01*
X84879185Y-64040609D01*
X84879172Y-64040602D01*
X84733501Y-63980264D01*
X84733491Y-63980261D01*
X84578149Y-63949361D01*
X84516238Y-63916976D01*
X84514660Y-63915425D01*
X84011416Y-63412181D01*
X83977931Y-63350858D01*
X83982915Y-63281166D01*
X84024787Y-63225233D01*
X84090251Y-63200816D01*
X84099097Y-63200500D01*
X92718481Y-63200500D01*
X92785520Y-63220185D01*
X92806162Y-63236819D01*
X97633266Y-68063923D01*
X97666751Y-68125246D01*
X97667202Y-68127413D01*
X97694103Y-68262658D01*
X97694106Y-68262667D01*
X97761983Y-68426540D01*
X97761990Y-68426553D01*
X97860535Y-68574034D01*
X97860538Y-68574038D01*
X97985961Y-68699461D01*
X97985965Y-68699464D01*
X98133446Y-68798009D01*
X98133459Y-68798016D01*
X98256363Y-68848923D01*
X98297334Y-68865894D01*
X98297336Y-68865894D01*
X98297341Y-68865896D01*
X98471304Y-68900499D01*
X98471307Y-68900500D01*
X98471309Y-68900500D01*
X98648693Y-68900500D01*
X98648694Y-68900499D01*
X98706682Y-68888964D01*
X98822658Y-68865896D01*
X98822661Y-68865894D01*
X98822666Y-68865894D01*
X98986547Y-68798013D01*
X99134035Y-68699464D01*
X99259464Y-68574035D01*
X99358013Y-68426547D01*
X99425894Y-68262666D01*
X99434597Y-68218917D01*
X99460499Y-68088695D01*
X99460500Y-68088693D01*
X99460500Y-67911306D01*
X99460499Y-67911304D01*
X101859500Y-67911304D01*
X101859500Y-68088695D01*
X101894103Y-68262658D01*
X101894106Y-68262667D01*
X101961983Y-68426540D01*
X101961990Y-68426553D01*
X102060535Y-68574034D01*
X102060538Y-68574038D01*
X102185961Y-68699461D01*
X102185965Y-68699464D01*
X102333446Y-68798009D01*
X102333459Y-68798016D01*
X102456363Y-68848923D01*
X102497334Y-68865894D01*
X102497336Y-68865894D01*
X102497341Y-68865896D01*
X102671304Y-68900499D01*
X102671307Y-68900500D01*
X102671309Y-68900500D01*
X102848693Y-68900500D01*
X102848694Y-68900499D01*
X102906682Y-68888964D01*
X103022658Y-68865896D01*
X103022661Y-68865894D01*
X103022666Y-68865894D01*
X103186547Y-68798013D01*
X103334035Y-68699464D01*
X103459464Y-68574035D01*
X103558013Y-68426547D01*
X103625894Y-68262666D01*
X103634597Y-68218917D01*
X103660499Y-68088695D01*
X103660500Y-68088693D01*
X103660500Y-68073920D01*
X109499499Y-68073920D01*
X109528340Y-68218907D01*
X109528343Y-68218917D01*
X109584912Y-68355488D01*
X109584919Y-68355501D01*
X109667048Y-68478415D01*
X109667051Y-68478419D01*
X109771580Y-68582948D01*
X109771584Y-68582951D01*
X109894498Y-68665080D01*
X109894511Y-68665087D01*
X110031082Y-68721656D01*
X110031087Y-68721658D01*
X110031091Y-68721658D01*
X110031092Y-68721659D01*
X110176079Y-68750500D01*
X110176082Y-68750500D01*
X110323920Y-68750500D01*
X110421462Y-68731096D01*
X110468913Y-68721658D01*
X110605495Y-68665084D01*
X110728416Y-68582951D01*
X110832951Y-68478416D01*
X110915084Y-68355495D01*
X110971658Y-68218913D01*
X110990978Y-68121786D01*
X111000500Y-68073920D01*
X111000500Y-67926079D01*
X110971659Y-67781092D01*
X110971658Y-67781091D01*
X110971658Y-67781087D01*
X110951946Y-67733497D01*
X110915087Y-67644511D01*
X110915080Y-67644498D01*
X110832951Y-67521584D01*
X110832948Y-67521580D01*
X110728419Y-67417051D01*
X110728415Y-67417048D01*
X110605501Y-67334919D01*
X110605488Y-67334912D01*
X110468917Y-67278343D01*
X110468907Y-67278340D01*
X110323920Y-67249500D01*
X110323918Y-67249500D01*
X110176082Y-67249500D01*
X110176080Y-67249500D01*
X110031092Y-67278340D01*
X110031082Y-67278343D01*
X109894511Y-67334912D01*
X109894498Y-67334919D01*
X109771584Y-67417048D01*
X109771580Y-67417051D01*
X109667051Y-67521580D01*
X109667048Y-67521584D01*
X109584919Y-67644498D01*
X109584912Y-67644511D01*
X109528343Y-67781082D01*
X109528340Y-67781092D01*
X109499500Y-67926079D01*
X109499500Y-67926082D01*
X109499500Y-68073918D01*
X109499500Y-68073920D01*
X109499499Y-68073920D01*
X103660500Y-68073920D01*
X103660500Y-67911306D01*
X103660499Y-67911304D01*
X103625896Y-67737341D01*
X103625893Y-67737332D01*
X103558016Y-67573459D01*
X103558009Y-67573446D01*
X103459464Y-67425965D01*
X103459461Y-67425961D01*
X103334038Y-67300538D01*
X103334034Y-67300535D01*
X103186553Y-67201990D01*
X103186540Y-67201983D01*
X103022667Y-67134106D01*
X103022658Y-67134103D01*
X102848694Y-67099500D01*
X102848691Y-67099500D01*
X102671309Y-67099500D01*
X102671306Y-67099500D01*
X102497341Y-67134103D01*
X102497332Y-67134106D01*
X102333459Y-67201983D01*
X102333446Y-67201990D01*
X102185965Y-67300535D01*
X102185961Y-67300538D01*
X102060538Y-67425961D01*
X102060535Y-67425965D01*
X101961990Y-67573446D01*
X101961983Y-67573459D01*
X101894106Y-67737332D01*
X101894103Y-67737341D01*
X101859500Y-67911304D01*
X99460499Y-67911304D01*
X99425896Y-67737341D01*
X99425893Y-67737332D01*
X99358016Y-67573459D01*
X99358009Y-67573446D01*
X99259464Y-67425965D01*
X99259461Y-67425961D01*
X99134038Y-67300538D01*
X99134034Y-67300535D01*
X98986553Y-67201990D01*
X98986540Y-67201983D01*
X98822667Y-67134106D01*
X98822658Y-67134103D01*
X98687413Y-67107202D01*
X98625502Y-67074817D01*
X98623923Y-67073266D01*
X93506546Y-61955888D01*
X93506545Y-61955887D01*
X93391807Y-61879222D01*
X93264332Y-61826421D01*
X93264322Y-61826418D01*
X93128996Y-61799500D01*
X93128994Y-61799500D01*
X93128993Y-61799500D01*
X58181007Y-61799500D01*
X58181003Y-61799500D01*
X58072590Y-61821065D01*
X58072589Y-61821065D01*
X58045681Y-61826418D01*
X58045671Y-61826420D01*
X57918190Y-61879224D01*
X57803454Y-61955887D01*
X57436075Y-62323266D01*
X57374752Y-62356751D01*
X57372586Y-62357202D01*
X57237340Y-62384104D01*
X57237332Y-62384106D01*
X57073459Y-62451983D01*
X57073446Y-62451990D01*
X56925965Y-62550535D01*
X56925961Y-62550538D01*
X56800538Y-62675961D01*
X56800535Y-62675965D01*
X56701990Y-62823446D01*
X56701983Y-62823459D01*
X56634106Y-62987332D01*
X56634103Y-62987341D01*
X56599500Y-63161304D01*
X56599500Y-63338695D01*
X56634103Y-63512658D01*
X56634106Y-63512667D01*
X56701983Y-63676540D01*
X56701990Y-63676553D01*
X56800535Y-63824034D01*
X56800538Y-63824038D01*
X56925961Y-63949461D01*
X56925969Y-63949467D01*
X56986732Y-63990068D01*
X57031538Y-64043680D01*
X57040245Y-64113005D01*
X57032403Y-64140622D01*
X56980264Y-64266498D01*
X56980261Y-64266510D01*
X56949500Y-64421153D01*
X56949500Y-64578846D01*
X56980261Y-64733489D01*
X56980264Y-64733501D01*
X57040602Y-64879172D01*
X57040609Y-64879185D01*
X57128210Y-65010288D01*
X57128213Y-65010292D01*
X57239707Y-65121786D01*
X57239711Y-65121789D01*
X57370814Y-65209390D01*
X57370827Y-65209397D01*
X57516498Y-65269735D01*
X57516503Y-65269737D01*
X57649189Y-65296130D01*
X57671153Y-65300499D01*
X57671156Y-65300500D01*
X57671158Y-65300500D01*
X57828844Y-65300500D01*
X57828845Y-65300499D01*
X57983497Y-65269737D01*
X58129179Y-65209394D01*
X58260289Y-65121789D01*
X58371789Y-65010289D01*
X58459394Y-64879179D01*
X58519737Y-64733497D01*
X58539113Y-64636085D01*
X58550638Y-64578150D01*
X58583023Y-64516239D01*
X58584514Y-64514720D01*
X58962417Y-64136819D01*
X59023740Y-64103334D01*
X59050098Y-64100500D01*
X71718059Y-64100500D01*
X71785098Y-64120185D01*
X71830853Y-64172989D01*
X71840797Y-64242147D01*
X71811772Y-64305703D01*
X71805740Y-64312181D01*
X71753213Y-64364707D01*
X71753210Y-64364711D01*
X71665609Y-64495814D01*
X71665602Y-64495827D01*
X71605264Y-64641498D01*
X71605261Y-64641510D01*
X71574500Y-64796153D01*
X71574500Y-64953846D01*
X71605261Y-65108489D01*
X71605264Y-65108501D01*
X71628328Y-65164182D01*
X71635797Y-65233651D01*
X71604522Y-65296130D01*
X71601448Y-65299315D01*
X70881286Y-66019478D01*
X70769481Y-66131282D01*
X70769479Y-66131285D01*
X70762852Y-66142764D01*
X70728014Y-66203106D01*
X70690423Y-66268215D01*
X70649499Y-66420943D01*
X70649499Y-66420945D01*
X70649499Y-66589046D01*
X70649500Y-66589059D01*
X70649500Y-75325500D01*
X70629815Y-75392539D01*
X70577011Y-75438294D01*
X70525500Y-75449500D01*
X70421155Y-75449500D01*
X70266510Y-75480261D01*
X70266498Y-75480264D01*
X70120827Y-75540602D01*
X70120814Y-75540609D01*
X69989711Y-75628210D01*
X69989707Y-75628213D01*
X69878213Y-75739707D01*
X69878210Y-75739711D01*
X69790609Y-75870814D01*
X69790602Y-75870827D01*
X69730264Y-76016498D01*
X69730261Y-76016510D01*
X69699500Y-76171153D01*
X69699500Y-76328846D01*
X69730261Y-76483489D01*
X69730264Y-76483501D01*
X69790602Y-76629172D01*
X69790609Y-76629185D01*
X69878602Y-76760874D01*
X69899480Y-76827551D01*
X69899500Y-76829765D01*
X69899500Y-77199902D01*
X69879815Y-77266941D01*
X69863181Y-77287583D01*
X67734628Y-79416135D01*
X67673305Y-79449620D01*
X67603613Y-79444636D01*
X67547680Y-79402764D01*
X67523263Y-79337300D01*
X67538115Y-79269027D01*
X67539523Y-79266517D01*
X67559577Y-79231784D01*
X67600501Y-79079057D01*
X67600501Y-78920942D01*
X67600501Y-78913347D01*
X67600500Y-78913329D01*
X67600500Y-78329765D01*
X67620185Y-78262726D01*
X67621398Y-78260874D01*
X67709390Y-78129185D01*
X67709390Y-78129184D01*
X67709394Y-78129179D01*
X67769737Y-77983497D01*
X67800500Y-77828842D01*
X67800500Y-77671158D01*
X67800500Y-77671155D01*
X67800499Y-77671153D01*
X67769738Y-77516510D01*
X67769737Y-77516503D01*
X67769735Y-77516498D01*
X67709397Y-77370827D01*
X67709390Y-77370814D01*
X67621789Y-77239711D01*
X67621786Y-77239707D01*
X67510292Y-77128213D01*
X67510288Y-77128210D01*
X67379185Y-77040609D01*
X67379172Y-77040602D01*
X67233501Y-76980264D01*
X67233489Y-76980261D01*
X67078845Y-76949500D01*
X67078842Y-76949500D01*
X66921158Y-76949500D01*
X66921155Y-76949500D01*
X66766510Y-76980261D01*
X66766498Y-76980264D01*
X66620827Y-77040602D01*
X66620814Y-77040609D01*
X66489711Y-77128210D01*
X66489707Y-77128213D01*
X66378213Y-77239707D01*
X66378210Y-77239711D01*
X66290609Y-77370814D01*
X66290602Y-77370827D01*
X66230264Y-77516498D01*
X66230261Y-77516510D01*
X66199500Y-77671153D01*
X66199500Y-77828846D01*
X66230261Y-77983489D01*
X66230264Y-77983501D01*
X66290602Y-78129172D01*
X66290609Y-78129185D01*
X66378602Y-78260874D01*
X66399480Y-78327551D01*
X66399500Y-78329765D01*
X66399500Y-78699902D01*
X66379815Y-78766941D01*
X66363181Y-78787583D01*
X65037584Y-80113181D01*
X65010656Y-80127884D01*
X64984838Y-80144477D01*
X64978637Y-80145368D01*
X64976261Y-80146666D01*
X64949903Y-80149500D01*
X64829766Y-80149500D01*
X64762727Y-80129815D01*
X64760875Y-80128602D01*
X64629185Y-80040609D01*
X64629172Y-80040602D01*
X64483501Y-79980264D01*
X64483489Y-79980261D01*
X64328845Y-79949500D01*
X64328842Y-79949500D01*
X64171158Y-79949500D01*
X64171155Y-79949500D01*
X64016510Y-79980261D01*
X64016498Y-79980264D01*
X63870827Y-80040602D01*
X63870814Y-80040609D01*
X63739711Y-80128210D01*
X63739707Y-80128213D01*
X63628213Y-80239707D01*
X63628210Y-80239711D01*
X63540609Y-80370814D01*
X63540602Y-80370827D01*
X63480264Y-80516498D01*
X63480261Y-80516510D01*
X63449500Y-80671153D01*
X63449500Y-80828846D01*
X63480261Y-80983489D01*
X63480264Y-80983501D01*
X63540602Y-81129172D01*
X63540609Y-81129185D01*
X63628210Y-81260288D01*
X63628213Y-81260292D01*
X63739707Y-81371786D01*
X63739711Y-81371789D01*
X63870814Y-81459390D01*
X63870827Y-81459397D01*
X63931734Y-81484625D01*
X64016503Y-81519737D01*
X64171153Y-81550499D01*
X64171156Y-81550500D01*
X64171158Y-81550500D01*
X64328844Y-81550500D01*
X64328845Y-81550499D01*
X64483497Y-81519737D01*
X64629179Y-81459394D01*
X64687530Y-81420405D01*
X64760875Y-81371398D01*
X64827553Y-81350520D01*
X64829766Y-81350500D01*
X65163331Y-81350500D01*
X65163347Y-81350501D01*
X65170943Y-81350501D01*
X65329054Y-81350501D01*
X65329057Y-81350501D01*
X65481785Y-81309577D01*
X65516455Y-81289559D01*
X65584351Y-81273084D01*
X65650379Y-81295933D01*
X65693572Y-81350852D01*
X65700217Y-81420405D01*
X65668204Y-81482509D01*
X65666138Y-81484625D01*
X64631286Y-82519478D01*
X64519481Y-82631282D01*
X64519479Y-82631285D01*
X64469361Y-82718094D01*
X64469359Y-82718096D01*
X64440425Y-82768209D01*
X64440424Y-82768210D01*
X64440423Y-82768215D01*
X64399499Y-82920943D01*
X64399499Y-82920945D01*
X64399499Y-83089046D01*
X64399500Y-83089059D01*
X64399500Y-85413330D01*
X64399499Y-85413348D01*
X64399499Y-85579054D01*
X64399498Y-85579054D01*
X64401169Y-85585289D01*
X64440423Y-85731785D01*
X64440424Y-85731787D01*
X64440423Y-85731787D01*
X64460441Y-85766457D01*
X64476915Y-85834357D01*
X64454063Y-85900384D01*
X64399143Y-85943575D01*
X64329589Y-85950217D01*
X64267486Y-85918202D01*
X64265374Y-85916139D01*
X62613272Y-84264037D01*
X62613270Y-84264034D01*
X62494400Y-84145164D01*
X62494398Y-84145162D01*
X62357467Y-84066105D01*
X62204740Y-84025181D01*
X62204739Y-84025181D01*
X62046625Y-84025181D01*
X61939269Y-84053947D01*
X61893892Y-84066106D01*
X61893891Y-84066107D01*
X61843787Y-84095035D01*
X61843778Y-84095041D01*
X61843777Y-84095042D01*
X61832517Y-84101543D01*
X61821457Y-84107928D01*
X61753556Y-84124397D01*
X61687530Y-84101543D01*
X61644342Y-84046620D01*
X61637703Y-83977066D01*
X61652073Y-83938540D01*
X61663530Y-83918696D01*
X61670381Y-83906830D01*
X61693895Y-83866103D01*
X61734819Y-83713375D01*
X61734819Y-83555261D01*
X61725231Y-83519480D01*
X61693895Y-83402533D01*
X61614838Y-83265602D01*
X61503034Y-83153798D01*
X61503033Y-83153797D01*
X61498703Y-83149467D01*
X61498692Y-83149457D01*
X57237590Y-78888355D01*
X57237588Y-78888352D01*
X57118717Y-78769481D01*
X57118716Y-78769480D01*
X57031904Y-78719360D01*
X57031904Y-78719359D01*
X57031900Y-78719358D01*
X56981785Y-78690423D01*
X56829057Y-78649499D01*
X56670943Y-78649499D01*
X56663347Y-78649499D01*
X56663331Y-78649500D01*
X54079766Y-78649500D01*
X54012727Y-78629815D01*
X54010875Y-78628602D01*
X53879185Y-78540609D01*
X53879172Y-78540602D01*
X53733501Y-78480264D01*
X53733489Y-78480261D01*
X53578845Y-78449500D01*
X53578842Y-78449500D01*
X53421158Y-78449500D01*
X53421155Y-78449500D01*
X53266510Y-78480261D01*
X53266498Y-78480264D01*
X53120827Y-78540602D01*
X53120814Y-78540609D01*
X52989711Y-78628210D01*
X52989707Y-78628213D01*
X52878213Y-78739707D01*
X52878210Y-78739711D01*
X52790609Y-78870814D01*
X52790602Y-78870827D01*
X52730264Y-79016498D01*
X52730261Y-79016510D01*
X52699500Y-79171153D01*
X34250500Y-79171153D01*
X34250500Y-74508653D01*
X44699500Y-74508653D01*
X44699500Y-74666346D01*
X44730261Y-74820989D01*
X44730264Y-74821001D01*
X44790602Y-74966672D01*
X44790609Y-74966685D01*
X44878210Y-75097788D01*
X44878213Y-75097792D01*
X44989707Y-75209286D01*
X44989711Y-75209289D01*
X45120814Y-75296890D01*
X45120827Y-75296897D01*
X45266498Y-75357235D01*
X45266503Y-75357237D01*
X45421153Y-75387999D01*
X45421156Y-75388000D01*
X45421158Y-75388000D01*
X45578844Y-75388000D01*
X45578845Y-75387999D01*
X45733497Y-75357237D01*
X45879179Y-75296894D01*
X46010289Y-75209289D01*
X46121789Y-75097789D01*
X46209394Y-74966679D01*
X46269737Y-74820997D01*
X46300500Y-74666342D01*
X46300500Y-74508658D01*
X46300500Y-74508655D01*
X46300499Y-74508653D01*
X46269738Y-74354010D01*
X46269737Y-74354003D01*
X46269735Y-74353998D01*
X46209397Y-74208327D01*
X46209390Y-74208314D01*
X46121789Y-74077211D01*
X46121786Y-74077207D01*
X46010292Y-73965713D01*
X46010288Y-73965710D01*
X45879185Y-73878109D01*
X45879172Y-73878102D01*
X45733501Y-73817764D01*
X45733489Y-73817761D01*
X45578845Y-73787000D01*
X45578842Y-73787000D01*
X45421158Y-73787000D01*
X45421155Y-73787000D01*
X45266510Y-73817761D01*
X45266498Y-73817764D01*
X45120827Y-73878102D01*
X45120814Y-73878109D01*
X44989711Y-73965710D01*
X44989707Y-73965713D01*
X44878213Y-74077207D01*
X44878210Y-74077211D01*
X44790609Y-74208314D01*
X44790602Y-74208327D01*
X44730264Y-74353998D01*
X44730261Y-74354010D01*
X44699500Y-74508653D01*
X34250500Y-74508653D01*
X34250500Y-70950000D01*
X36425000Y-70950000D01*
X38515000Y-70950000D01*
X38515000Y-69050000D01*
X36425000Y-69050000D01*
X36425000Y-70950000D01*
X34250500Y-70950000D01*
X34250500Y-67421153D01*
X64287000Y-67421153D01*
X64287000Y-67578846D01*
X64317761Y-67733489D01*
X64317764Y-67733501D01*
X64378102Y-67879172D01*
X64378109Y-67879185D01*
X64465710Y-68010288D01*
X64465713Y-68010292D01*
X64577207Y-68121786D01*
X64577211Y-68121789D01*
X64708314Y-68209390D01*
X64708327Y-68209397D01*
X64836932Y-68262666D01*
X64854003Y-68269737D01*
X65008653Y-68300499D01*
X65008656Y-68300500D01*
X65008658Y-68300500D01*
X65166344Y-68300500D01*
X65166345Y-68300499D01*
X65320997Y-68269737D01*
X65466679Y-68209394D01*
X65597789Y-68121789D01*
X65709289Y-68010289D01*
X65796894Y-67879179D01*
X65857237Y-67733497D01*
X65888000Y-67578842D01*
X65888000Y-67421158D01*
X65888000Y-67421155D01*
X65887999Y-67421153D01*
X65864007Y-67300538D01*
X65857237Y-67266503D01*
X65807324Y-67146001D01*
X65796897Y-67120827D01*
X65796890Y-67120814D01*
X65709289Y-66989711D01*
X65709286Y-66989707D01*
X65597792Y-66878213D01*
X65597788Y-66878210D01*
X65466685Y-66790609D01*
X65466672Y-66790602D01*
X65321001Y-66730264D01*
X65320989Y-66730261D01*
X65166345Y-66699500D01*
X65166342Y-66699500D01*
X65008658Y-66699500D01*
X65008655Y-66699500D01*
X64854010Y-66730261D01*
X64853998Y-66730264D01*
X64708327Y-66790602D01*
X64708314Y-66790609D01*
X64577211Y-66878210D01*
X64577207Y-66878213D01*
X64465713Y-66989707D01*
X64465710Y-66989711D01*
X64378109Y-67120814D01*
X64378102Y-67120827D01*
X64317764Y-67266498D01*
X64317761Y-67266510D01*
X64287000Y-67421153D01*
X34250500Y-67421153D01*
X34250500Y-63861253D01*
X44481399Y-63861253D01*
X44481399Y-64018946D01*
X44512160Y-64173589D01*
X44512163Y-64173601D01*
X44572501Y-64319272D01*
X44572508Y-64319285D01*
X44660109Y-64450388D01*
X44660112Y-64450392D01*
X44771606Y-64561886D01*
X44771610Y-64561889D01*
X44902713Y-64649490D01*
X44902726Y-64649497D01*
X45048397Y-64709835D01*
X45048402Y-64709837D01*
X45203052Y-64740599D01*
X45203055Y-64740600D01*
X45203057Y-64740600D01*
X45360743Y-64740600D01*
X45360744Y-64740599D01*
X45515396Y-64709837D01*
X45661078Y-64649494D01*
X45792188Y-64561889D01*
X45903688Y-64450389D01*
X45991293Y-64319279D01*
X46051636Y-64173597D01*
X46075597Y-64053139D01*
X46082537Y-64018250D01*
X46114922Y-63956339D01*
X46116417Y-63954816D01*
X51184416Y-58886819D01*
X51245739Y-58853334D01*
X51272097Y-58850500D01*
X56489241Y-58850500D01*
X56556280Y-58870185D01*
X56602035Y-58922989D01*
X56611979Y-58992147D01*
X56592343Y-59043391D01*
X56540609Y-59120815D01*
X56540602Y-59120827D01*
X56480264Y-59266498D01*
X56480261Y-59266510D01*
X56449500Y-59421153D01*
X56449500Y-59578846D01*
X56480261Y-59733489D01*
X56480264Y-59733501D01*
X56540602Y-59879172D01*
X56540609Y-59879185D01*
X56628210Y-60010288D01*
X56628213Y-60010292D01*
X56739707Y-60121786D01*
X56739711Y-60121789D01*
X56870814Y-60209390D01*
X56870827Y-60209397D01*
X57008695Y-60266503D01*
X57016503Y-60269737D01*
X57171153Y-60300499D01*
X57171156Y-60300500D01*
X57171158Y-60300500D01*
X57328844Y-60300500D01*
X57328845Y-60300499D01*
X57483497Y-60269737D01*
X57629179Y-60209394D01*
X57732852Y-60140122D01*
X57760875Y-60121398D01*
X57827553Y-60100520D01*
X57829766Y-60100500D01*
X76113445Y-60100500D01*
X76180484Y-60120185D01*
X76226239Y-60172989D01*
X76236183Y-60242147D01*
X76231159Y-60260411D01*
X76232031Y-60260676D01*
X76230261Y-60266510D01*
X76199500Y-60421153D01*
X76199500Y-60578846D01*
X76230261Y-60733489D01*
X76230264Y-60733501D01*
X76290602Y-60879172D01*
X76290609Y-60879185D01*
X76378210Y-61010288D01*
X76378213Y-61010292D01*
X76489707Y-61121786D01*
X76489711Y-61121789D01*
X76620814Y-61209390D01*
X76620827Y-61209397D01*
X76766498Y-61269735D01*
X76766503Y-61269737D01*
X76921153Y-61300499D01*
X76921156Y-61300500D01*
X76921158Y-61300500D01*
X77078844Y-61300500D01*
X77078845Y-61300499D01*
X77233497Y-61269737D01*
X77379179Y-61209394D01*
X77510289Y-61121789D01*
X77621789Y-61010289D01*
X77709394Y-60879179D01*
X77769737Y-60733497D01*
X77800500Y-60578842D01*
X77800500Y-60421158D01*
X77800500Y-60421155D01*
X77800499Y-60421153D01*
X77776499Y-60300499D01*
X77769737Y-60266503D01*
X77769732Y-60266492D01*
X77767969Y-60260676D01*
X77770720Y-60259841D01*
X77764497Y-60202641D01*
X77795691Y-60140122D01*
X77855734Y-60104392D01*
X77886555Y-60100500D01*
X81170234Y-60100500D01*
X81237273Y-60120185D01*
X81239125Y-60121398D01*
X81370814Y-60209390D01*
X81370827Y-60209397D01*
X81508695Y-60266503D01*
X81516503Y-60269737D01*
X81671153Y-60300499D01*
X81671156Y-60300500D01*
X81671158Y-60300500D01*
X81828844Y-60300500D01*
X81828845Y-60300499D01*
X81983497Y-60269737D01*
X82129179Y-60209394D01*
X82260289Y-60121789D01*
X82371789Y-60010289D01*
X82459394Y-59879179D01*
X82519737Y-59733497D01*
X82550500Y-59578842D01*
X82550500Y-59421158D01*
X82550500Y-59421155D01*
X82550499Y-59421153D01*
X82519738Y-59266510D01*
X82519737Y-59266503D01*
X82519735Y-59266498D01*
X82459397Y-59120827D01*
X82459390Y-59120814D01*
X82371789Y-58989711D01*
X82371786Y-58989707D01*
X82260292Y-58878213D01*
X82260288Y-58878210D01*
X82129185Y-58790609D01*
X82129172Y-58790602D01*
X81983501Y-58730264D01*
X81983489Y-58730261D01*
X81828845Y-58699500D01*
X81828842Y-58699500D01*
X81671158Y-58699500D01*
X81671157Y-58699500D01*
X81636164Y-58706460D01*
X81566573Y-58700231D01*
X81511396Y-58657367D01*
X81488153Y-58591477D01*
X81497414Y-58537389D01*
X81519737Y-58483497D01*
X81550500Y-58328842D01*
X81550500Y-58171158D01*
X81550500Y-58171155D01*
X81550499Y-58171153D01*
X81542371Y-58130287D01*
X81538250Y-58109568D01*
X118499500Y-58109568D01*
X118499500Y-58390431D01*
X118530942Y-58669494D01*
X118530945Y-58669512D01*
X118593439Y-58943317D01*
X118593443Y-58943329D01*
X118686200Y-59208411D01*
X118808053Y-59461442D01*
X118808055Y-59461445D01*
X118957477Y-59699248D01*
X119132584Y-59918825D01*
X119331175Y-60117416D01*
X119550752Y-60292523D01*
X119788555Y-60441945D01*
X120041592Y-60563801D01*
X120240680Y-60633465D01*
X120306670Y-60656556D01*
X120306682Y-60656560D01*
X120580491Y-60719055D01*
X120580497Y-60719055D01*
X120580505Y-60719057D01*
X120766547Y-60740018D01*
X120859569Y-60750499D01*
X120859572Y-60750500D01*
X120859575Y-60750500D01*
X121140428Y-60750500D01*
X121140429Y-60750499D01*
X121291403Y-60733489D01*
X121419494Y-60719057D01*
X121419499Y-60719056D01*
X121419509Y-60719055D01*
X121693318Y-60656560D01*
X121958408Y-60563801D01*
X122211445Y-60441945D01*
X122449248Y-60292523D01*
X122668825Y-60117416D01*
X122867416Y-59918825D01*
X123042523Y-59699248D01*
X123191945Y-59461445D01*
X123313801Y-59208408D01*
X123406560Y-58943318D01*
X123469055Y-58669509D01*
X123500500Y-58390425D01*
X123500500Y-58109575D01*
X123473599Y-57870821D01*
X123469057Y-57830505D01*
X123469054Y-57830487D01*
X123455128Y-57769475D01*
X123406560Y-57556682D01*
X123400933Y-57540602D01*
X123379819Y-57480261D01*
X123313801Y-57291592D01*
X123191945Y-57038555D01*
X123042523Y-56800752D01*
X122867416Y-56581175D01*
X122668825Y-56382584D01*
X122449248Y-56207477D01*
X122211445Y-56058055D01*
X122211442Y-56058053D01*
X121958411Y-55936200D01*
X121693329Y-55843443D01*
X121693317Y-55843439D01*
X121419512Y-55780945D01*
X121419494Y-55780942D01*
X121140431Y-55749500D01*
X121140425Y-55749500D01*
X120859575Y-55749500D01*
X120859568Y-55749500D01*
X120580505Y-55780942D01*
X120580487Y-55780945D01*
X120306682Y-55843439D01*
X120306670Y-55843443D01*
X120041588Y-55936200D01*
X119788557Y-56058053D01*
X119550753Y-56207476D01*
X119331175Y-56382583D01*
X119132583Y-56581175D01*
X118957476Y-56800753D01*
X118808053Y-57038557D01*
X118686200Y-57291588D01*
X118593443Y-57556670D01*
X118593439Y-57556682D01*
X118530945Y-57830487D01*
X118530942Y-57830505D01*
X118499500Y-58109568D01*
X81538250Y-58109568D01*
X81519738Y-58016508D01*
X81519737Y-58016507D01*
X81519737Y-58016503D01*
X81519735Y-58016498D01*
X81459397Y-57870827D01*
X81459390Y-57870814D01*
X81371789Y-57739711D01*
X81371786Y-57739707D01*
X81260292Y-57628213D01*
X81260288Y-57628210D01*
X81129185Y-57540609D01*
X81129172Y-57540602D01*
X80983501Y-57480264D01*
X80983489Y-57480261D01*
X80828845Y-57449500D01*
X80828842Y-57449500D01*
X80671158Y-57449500D01*
X80671155Y-57449500D01*
X80516510Y-57480261D01*
X80516498Y-57480264D01*
X80370827Y-57540602D01*
X80370814Y-57540609D01*
X80239125Y-57628602D01*
X80172447Y-57649480D01*
X80170234Y-57649500D01*
X51058669Y-57649500D01*
X51058653Y-57649499D01*
X51051057Y-57649499D01*
X50892942Y-57649499D01*
X50816578Y-57669961D01*
X50740213Y-57690423D01*
X50740208Y-57690426D01*
X50603289Y-57769475D01*
X50603281Y-57769481D01*
X45267238Y-63105525D01*
X45205915Y-63139010D01*
X45203749Y-63139461D01*
X45048407Y-63170361D01*
X45048397Y-63170364D01*
X44902726Y-63230702D01*
X44902713Y-63230709D01*
X44771610Y-63318310D01*
X44771606Y-63318313D01*
X44660112Y-63429807D01*
X44660109Y-63429811D01*
X44572508Y-63560914D01*
X44572501Y-63560927D01*
X44512163Y-63706598D01*
X44512160Y-63706610D01*
X44481399Y-63861253D01*
X34250500Y-63861253D01*
X34250500Y-58109568D01*
X34999500Y-58109568D01*
X34999500Y-58390431D01*
X35030942Y-58669494D01*
X35030945Y-58669512D01*
X35093439Y-58943317D01*
X35093443Y-58943329D01*
X35186200Y-59208411D01*
X35308053Y-59461442D01*
X35308055Y-59461445D01*
X35457477Y-59699248D01*
X35632584Y-59918825D01*
X35831175Y-60117416D01*
X36050752Y-60292523D01*
X36288555Y-60441945D01*
X36541592Y-60563801D01*
X36740680Y-60633465D01*
X36806670Y-60656556D01*
X36806682Y-60656560D01*
X37080491Y-60719055D01*
X37080497Y-60719055D01*
X37080505Y-60719057D01*
X37266547Y-60740018D01*
X37359569Y-60750499D01*
X37359572Y-60750500D01*
X37359575Y-60750500D01*
X37640428Y-60750500D01*
X37640429Y-60750499D01*
X37791403Y-60733489D01*
X37919494Y-60719057D01*
X37919499Y-60719056D01*
X37919509Y-60719055D01*
X38193318Y-60656560D01*
X38458408Y-60563801D01*
X38711445Y-60441945D01*
X38949248Y-60292523D01*
X39168825Y-60117416D01*
X39367416Y-59918825D01*
X39542523Y-59699248D01*
X39691945Y-59461445D01*
X39813801Y-59208408D01*
X39906560Y-58943318D01*
X39969055Y-58669509D01*
X40000500Y-58390425D01*
X40000500Y-58109575D01*
X39973599Y-57870821D01*
X39969057Y-57830505D01*
X39969054Y-57830487D01*
X39955128Y-57769475D01*
X39906560Y-57556682D01*
X39900933Y-57540602D01*
X39879819Y-57480261D01*
X39813801Y-57291592D01*
X39691945Y-57038555D01*
X39542523Y-56800752D01*
X39367416Y-56581175D01*
X39168825Y-56382584D01*
X38949248Y-56207477D01*
X38711445Y-56058055D01*
X38711442Y-56058053D01*
X38458411Y-55936200D01*
X38193329Y-55843443D01*
X38193317Y-55843439D01*
X37919512Y-55780945D01*
X37919494Y-55780942D01*
X37640431Y-55749500D01*
X37640425Y-55749500D01*
X37359575Y-55749500D01*
X37359568Y-55749500D01*
X37080505Y-55780942D01*
X37080487Y-55780945D01*
X36806682Y-55843439D01*
X36806670Y-55843443D01*
X36541588Y-55936200D01*
X36288557Y-56058053D01*
X36050753Y-56207476D01*
X35831175Y-56382583D01*
X35632583Y-56581175D01*
X35457476Y-56800753D01*
X35308053Y-57038557D01*
X35186200Y-57291588D01*
X35093443Y-57556670D01*
X35093439Y-57556682D01*
X35030945Y-57830487D01*
X35030942Y-57830505D01*
X34999500Y-58109568D01*
X34250500Y-58109568D01*
X34250500Y-55624500D01*
X34270185Y-55557461D01*
X34322989Y-55511706D01*
X34374500Y-55500500D01*
X123875500Y-55500500D01*
X123942539Y-55520185D01*
G37*
%TD.AperFunction*%
%TD*%
M02*
