%TF.GenerationSoftware,KiCad,Pcbnew,9.0.3*%
%TF.CreationDate,2025-12-22T17:44:04-03:00*%
%TF.ProjectId,V3,56332e6b-6963-4616-945f-706362585858,rev?*%
%TF.SameCoordinates,Original*%
%TF.FileFunction,Legend,Top*%
%TF.FilePolarity,Positive*%
%FSLAX46Y46*%
G04 Gerber Fmt 4.6, Leading zero omitted, Abs format (unit mm)*
G04 Created by KiCad (PCBNEW 9.0.3) date 2025-12-22 17:44:04*
%MOMM*%
%LPD*%
G01*
G04 APERTURE LIST*
%ADD10C,0.150000*%
%ADD11C,0.100000*%
%ADD12C,0.120000*%
%ADD13C,0.127000*%
%ADD14C,0.152400*%
G04 APERTURE END LIST*
D10*
X74857142Y-57679580D02*
X74809523Y-57727200D01*
X74809523Y-57727200D02*
X74666666Y-57774819D01*
X74666666Y-57774819D02*
X74571428Y-57774819D01*
X74571428Y-57774819D02*
X74428571Y-57727200D01*
X74428571Y-57727200D02*
X74333333Y-57631961D01*
X74333333Y-57631961D02*
X74285714Y-57536723D01*
X74285714Y-57536723D02*
X74238095Y-57346247D01*
X74238095Y-57346247D02*
X74238095Y-57203390D01*
X74238095Y-57203390D02*
X74285714Y-57012914D01*
X74285714Y-57012914D02*
X74333333Y-56917676D01*
X74333333Y-56917676D02*
X74428571Y-56822438D01*
X74428571Y-56822438D02*
X74571428Y-56774819D01*
X74571428Y-56774819D02*
X74666666Y-56774819D01*
X74666666Y-56774819D02*
X74809523Y-56822438D01*
X74809523Y-56822438D02*
X74857142Y-56870057D01*
X75238095Y-56870057D02*
X75285714Y-56822438D01*
X75285714Y-56822438D02*
X75380952Y-56774819D01*
X75380952Y-56774819D02*
X75619047Y-56774819D01*
X75619047Y-56774819D02*
X75714285Y-56822438D01*
X75714285Y-56822438D02*
X75761904Y-56870057D01*
X75761904Y-56870057D02*
X75809523Y-56965295D01*
X75809523Y-56965295D02*
X75809523Y-57060533D01*
X75809523Y-57060533D02*
X75761904Y-57203390D01*
X75761904Y-57203390D02*
X75190476Y-57774819D01*
X75190476Y-57774819D02*
X75809523Y-57774819D01*
X76142857Y-56774819D02*
X76809523Y-56774819D01*
X76809523Y-56774819D02*
X76380952Y-57774819D01*
X74109580Y-96392857D02*
X74157200Y-96440476D01*
X74157200Y-96440476D02*
X74204819Y-96583333D01*
X74204819Y-96583333D02*
X74204819Y-96678571D01*
X74204819Y-96678571D02*
X74157200Y-96821428D01*
X74157200Y-96821428D02*
X74061961Y-96916666D01*
X74061961Y-96916666D02*
X73966723Y-96964285D01*
X73966723Y-96964285D02*
X73776247Y-97011904D01*
X73776247Y-97011904D02*
X73633390Y-97011904D01*
X73633390Y-97011904D02*
X73442914Y-96964285D01*
X73442914Y-96964285D02*
X73347676Y-96916666D01*
X73347676Y-96916666D02*
X73252438Y-96821428D01*
X73252438Y-96821428D02*
X73204819Y-96678571D01*
X73204819Y-96678571D02*
X73204819Y-96583333D01*
X73204819Y-96583333D02*
X73252438Y-96440476D01*
X73252438Y-96440476D02*
X73300057Y-96392857D01*
X73300057Y-96011904D02*
X73252438Y-95964285D01*
X73252438Y-95964285D02*
X73204819Y-95869047D01*
X73204819Y-95869047D02*
X73204819Y-95630952D01*
X73204819Y-95630952D02*
X73252438Y-95535714D01*
X73252438Y-95535714D02*
X73300057Y-95488095D01*
X73300057Y-95488095D02*
X73395295Y-95440476D01*
X73395295Y-95440476D02*
X73490533Y-95440476D01*
X73490533Y-95440476D02*
X73633390Y-95488095D01*
X73633390Y-95488095D02*
X74204819Y-96059523D01*
X74204819Y-96059523D02*
X74204819Y-95440476D01*
X73204819Y-94821428D02*
X73204819Y-94726190D01*
X73204819Y-94726190D02*
X73252438Y-94630952D01*
X73252438Y-94630952D02*
X73300057Y-94583333D01*
X73300057Y-94583333D02*
X73395295Y-94535714D01*
X73395295Y-94535714D02*
X73585771Y-94488095D01*
X73585771Y-94488095D02*
X73823866Y-94488095D01*
X73823866Y-94488095D02*
X74014342Y-94535714D01*
X74014342Y-94535714D02*
X74109580Y-94583333D01*
X74109580Y-94583333D02*
X74157200Y-94630952D01*
X74157200Y-94630952D02*
X74204819Y-94726190D01*
X74204819Y-94726190D02*
X74204819Y-94821428D01*
X74204819Y-94821428D02*
X74157200Y-94916666D01*
X74157200Y-94916666D02*
X74109580Y-94964285D01*
X74109580Y-94964285D02*
X74014342Y-95011904D01*
X74014342Y-95011904D02*
X73823866Y-95059523D01*
X73823866Y-95059523D02*
X73585771Y-95059523D01*
X73585771Y-95059523D02*
X73395295Y-95011904D01*
X73395295Y-95011904D02*
X73300057Y-94964285D01*
X73300057Y-94964285D02*
X73252438Y-94916666D01*
X73252438Y-94916666D02*
X73204819Y-94821428D01*
X43954819Y-100916666D02*
X43478628Y-101249999D01*
X43954819Y-101488094D02*
X42954819Y-101488094D01*
X42954819Y-101488094D02*
X42954819Y-101107142D01*
X42954819Y-101107142D02*
X43002438Y-101011904D01*
X43002438Y-101011904D02*
X43050057Y-100964285D01*
X43050057Y-100964285D02*
X43145295Y-100916666D01*
X43145295Y-100916666D02*
X43288152Y-100916666D01*
X43288152Y-100916666D02*
X43383390Y-100964285D01*
X43383390Y-100964285D02*
X43431009Y-101011904D01*
X43431009Y-101011904D02*
X43478628Y-101107142D01*
X43478628Y-101107142D02*
X43478628Y-101488094D01*
X43288152Y-100059523D02*
X43954819Y-100059523D01*
X42907200Y-100297618D02*
X43621485Y-100535713D01*
X43621485Y-100535713D02*
X43621485Y-99916666D01*
X69904761Y-58300057D02*
X69809523Y-58252438D01*
X69809523Y-58252438D02*
X69714285Y-58157200D01*
X69714285Y-58157200D02*
X69571428Y-58014342D01*
X69571428Y-58014342D02*
X69476190Y-57966723D01*
X69476190Y-57966723D02*
X69380952Y-57966723D01*
X69428571Y-58204819D02*
X69333333Y-58157200D01*
X69333333Y-58157200D02*
X69238095Y-58061961D01*
X69238095Y-58061961D02*
X69190476Y-57871485D01*
X69190476Y-57871485D02*
X69190476Y-57538152D01*
X69190476Y-57538152D02*
X69238095Y-57347676D01*
X69238095Y-57347676D02*
X69333333Y-57252438D01*
X69333333Y-57252438D02*
X69428571Y-57204819D01*
X69428571Y-57204819D02*
X69619047Y-57204819D01*
X69619047Y-57204819D02*
X69714285Y-57252438D01*
X69714285Y-57252438D02*
X69809523Y-57347676D01*
X69809523Y-57347676D02*
X69857142Y-57538152D01*
X69857142Y-57538152D02*
X69857142Y-57871485D01*
X69857142Y-57871485D02*
X69809523Y-58061961D01*
X69809523Y-58061961D02*
X69714285Y-58157200D01*
X69714285Y-58157200D02*
X69619047Y-58204819D01*
X69619047Y-58204819D02*
X69428571Y-58204819D01*
X70238095Y-57300057D02*
X70285714Y-57252438D01*
X70285714Y-57252438D02*
X70380952Y-57204819D01*
X70380952Y-57204819D02*
X70619047Y-57204819D01*
X70619047Y-57204819D02*
X70714285Y-57252438D01*
X70714285Y-57252438D02*
X70761904Y-57300057D01*
X70761904Y-57300057D02*
X70809523Y-57395295D01*
X70809523Y-57395295D02*
X70809523Y-57490533D01*
X70809523Y-57490533D02*
X70761904Y-57633390D01*
X70761904Y-57633390D02*
X70190476Y-58204819D01*
X70190476Y-58204819D02*
X70809523Y-58204819D01*
X47607142Y-96604819D02*
X47273809Y-96128628D01*
X47035714Y-96604819D02*
X47035714Y-95604819D01*
X47035714Y-95604819D02*
X47416666Y-95604819D01*
X47416666Y-95604819D02*
X47511904Y-95652438D01*
X47511904Y-95652438D02*
X47559523Y-95700057D01*
X47559523Y-95700057D02*
X47607142Y-95795295D01*
X47607142Y-95795295D02*
X47607142Y-95938152D01*
X47607142Y-95938152D02*
X47559523Y-96033390D01*
X47559523Y-96033390D02*
X47511904Y-96081009D01*
X47511904Y-96081009D02*
X47416666Y-96128628D01*
X47416666Y-96128628D02*
X47035714Y-96128628D01*
X47988095Y-95700057D02*
X48035714Y-95652438D01*
X48035714Y-95652438D02*
X48130952Y-95604819D01*
X48130952Y-95604819D02*
X48369047Y-95604819D01*
X48369047Y-95604819D02*
X48464285Y-95652438D01*
X48464285Y-95652438D02*
X48511904Y-95700057D01*
X48511904Y-95700057D02*
X48559523Y-95795295D01*
X48559523Y-95795295D02*
X48559523Y-95890533D01*
X48559523Y-95890533D02*
X48511904Y-96033390D01*
X48511904Y-96033390D02*
X47940476Y-96604819D01*
X47940476Y-96604819D02*
X48559523Y-96604819D01*
X49416666Y-95604819D02*
X49226190Y-95604819D01*
X49226190Y-95604819D02*
X49130952Y-95652438D01*
X49130952Y-95652438D02*
X49083333Y-95700057D01*
X49083333Y-95700057D02*
X48988095Y-95842914D01*
X48988095Y-95842914D02*
X48940476Y-96033390D01*
X48940476Y-96033390D02*
X48940476Y-96414342D01*
X48940476Y-96414342D02*
X48988095Y-96509580D01*
X48988095Y-96509580D02*
X49035714Y-96557200D01*
X49035714Y-96557200D02*
X49130952Y-96604819D01*
X49130952Y-96604819D02*
X49321428Y-96604819D01*
X49321428Y-96604819D02*
X49416666Y-96557200D01*
X49416666Y-96557200D02*
X49464285Y-96509580D01*
X49464285Y-96509580D02*
X49511904Y-96414342D01*
X49511904Y-96414342D02*
X49511904Y-96176247D01*
X49511904Y-96176247D02*
X49464285Y-96081009D01*
X49464285Y-96081009D02*
X49416666Y-96033390D01*
X49416666Y-96033390D02*
X49321428Y-95985771D01*
X49321428Y-95985771D02*
X49130952Y-95985771D01*
X49130952Y-95985771D02*
X49035714Y-96033390D01*
X49035714Y-96033390D02*
X48988095Y-96081009D01*
X48988095Y-96081009D02*
X48940476Y-96176247D01*
X44104819Y-68892857D02*
X43628628Y-69226190D01*
X44104819Y-69464285D02*
X43104819Y-69464285D01*
X43104819Y-69464285D02*
X43104819Y-69083333D01*
X43104819Y-69083333D02*
X43152438Y-68988095D01*
X43152438Y-68988095D02*
X43200057Y-68940476D01*
X43200057Y-68940476D02*
X43295295Y-68892857D01*
X43295295Y-68892857D02*
X43438152Y-68892857D01*
X43438152Y-68892857D02*
X43533390Y-68940476D01*
X43533390Y-68940476D02*
X43581009Y-68988095D01*
X43581009Y-68988095D02*
X43628628Y-69083333D01*
X43628628Y-69083333D02*
X43628628Y-69464285D01*
X43200057Y-68511904D02*
X43152438Y-68464285D01*
X43152438Y-68464285D02*
X43104819Y-68369047D01*
X43104819Y-68369047D02*
X43104819Y-68130952D01*
X43104819Y-68130952D02*
X43152438Y-68035714D01*
X43152438Y-68035714D02*
X43200057Y-67988095D01*
X43200057Y-67988095D02*
X43295295Y-67940476D01*
X43295295Y-67940476D02*
X43390533Y-67940476D01*
X43390533Y-67940476D02*
X43533390Y-67988095D01*
X43533390Y-67988095D02*
X44104819Y-68559523D01*
X44104819Y-68559523D02*
X44104819Y-67940476D01*
X43104819Y-67035714D02*
X43104819Y-67511904D01*
X43104819Y-67511904D02*
X43581009Y-67559523D01*
X43581009Y-67559523D02*
X43533390Y-67511904D01*
X43533390Y-67511904D02*
X43485771Y-67416666D01*
X43485771Y-67416666D02*
X43485771Y-67178571D01*
X43485771Y-67178571D02*
X43533390Y-67083333D01*
X43533390Y-67083333D02*
X43581009Y-67035714D01*
X43581009Y-67035714D02*
X43676247Y-66988095D01*
X43676247Y-66988095D02*
X43914342Y-66988095D01*
X43914342Y-66988095D02*
X44009580Y-67035714D01*
X44009580Y-67035714D02*
X44057200Y-67083333D01*
X44057200Y-67083333D02*
X44104819Y-67178571D01*
X44104819Y-67178571D02*
X44104819Y-67416666D01*
X44104819Y-67416666D02*
X44057200Y-67511904D01*
X44057200Y-67511904D02*
X44009580Y-67559523D01*
X44261905Y-93504819D02*
X44261905Y-92504819D01*
X44261905Y-92504819D02*
X44500000Y-92504819D01*
X44500000Y-92504819D02*
X44642857Y-92552438D01*
X44642857Y-92552438D02*
X44738095Y-92647676D01*
X44738095Y-92647676D02*
X44785714Y-92742914D01*
X44785714Y-92742914D02*
X44833333Y-92933390D01*
X44833333Y-92933390D02*
X44833333Y-93076247D01*
X44833333Y-93076247D02*
X44785714Y-93266723D01*
X44785714Y-93266723D02*
X44738095Y-93361961D01*
X44738095Y-93361961D02*
X44642857Y-93457200D01*
X44642857Y-93457200D02*
X44500000Y-93504819D01*
X44500000Y-93504819D02*
X44261905Y-93504819D01*
X45785714Y-93504819D02*
X45214286Y-93504819D01*
X45500000Y-93504819D02*
X45500000Y-92504819D01*
X45500000Y-92504819D02*
X45404762Y-92647676D01*
X45404762Y-92647676D02*
X45309524Y-92742914D01*
X45309524Y-92742914D02*
X45214286Y-92790533D01*
X42267319Y-85142857D02*
X41791128Y-85476190D01*
X42267319Y-85714285D02*
X41267319Y-85714285D01*
X41267319Y-85714285D02*
X41267319Y-85333333D01*
X41267319Y-85333333D02*
X41314938Y-85238095D01*
X41314938Y-85238095D02*
X41362557Y-85190476D01*
X41362557Y-85190476D02*
X41457795Y-85142857D01*
X41457795Y-85142857D02*
X41600652Y-85142857D01*
X41600652Y-85142857D02*
X41695890Y-85190476D01*
X41695890Y-85190476D02*
X41743509Y-85238095D01*
X41743509Y-85238095D02*
X41791128Y-85333333D01*
X41791128Y-85333333D02*
X41791128Y-85714285D01*
X41362557Y-84761904D02*
X41314938Y-84714285D01*
X41314938Y-84714285D02*
X41267319Y-84619047D01*
X41267319Y-84619047D02*
X41267319Y-84380952D01*
X41267319Y-84380952D02*
X41314938Y-84285714D01*
X41314938Y-84285714D02*
X41362557Y-84238095D01*
X41362557Y-84238095D02*
X41457795Y-84190476D01*
X41457795Y-84190476D02*
X41553033Y-84190476D01*
X41553033Y-84190476D02*
X41695890Y-84238095D01*
X41695890Y-84238095D02*
X42267319Y-84809523D01*
X42267319Y-84809523D02*
X42267319Y-84190476D01*
X41267319Y-83857142D02*
X41267319Y-83190476D01*
X41267319Y-83190476D02*
X42267319Y-83619047D01*
X84789580Y-94392857D02*
X84837200Y-94440476D01*
X84837200Y-94440476D02*
X84884819Y-94583333D01*
X84884819Y-94583333D02*
X84884819Y-94678571D01*
X84884819Y-94678571D02*
X84837200Y-94821428D01*
X84837200Y-94821428D02*
X84741961Y-94916666D01*
X84741961Y-94916666D02*
X84646723Y-94964285D01*
X84646723Y-94964285D02*
X84456247Y-95011904D01*
X84456247Y-95011904D02*
X84313390Y-95011904D01*
X84313390Y-95011904D02*
X84122914Y-94964285D01*
X84122914Y-94964285D02*
X84027676Y-94916666D01*
X84027676Y-94916666D02*
X83932438Y-94821428D01*
X83932438Y-94821428D02*
X83884819Y-94678571D01*
X83884819Y-94678571D02*
X83884819Y-94583333D01*
X83884819Y-94583333D02*
X83932438Y-94440476D01*
X83932438Y-94440476D02*
X83980057Y-94392857D01*
X84884819Y-93440476D02*
X84884819Y-94011904D01*
X84884819Y-93726190D02*
X83884819Y-93726190D01*
X83884819Y-93726190D02*
X84027676Y-93821428D01*
X84027676Y-93821428D02*
X84122914Y-93916666D01*
X84122914Y-93916666D02*
X84170533Y-94011904D01*
X84884819Y-92964285D02*
X84884819Y-92773809D01*
X84884819Y-92773809D02*
X84837200Y-92678571D01*
X84837200Y-92678571D02*
X84789580Y-92630952D01*
X84789580Y-92630952D02*
X84646723Y-92535714D01*
X84646723Y-92535714D02*
X84456247Y-92488095D01*
X84456247Y-92488095D02*
X84075295Y-92488095D01*
X84075295Y-92488095D02*
X83980057Y-92535714D01*
X83980057Y-92535714D02*
X83932438Y-92583333D01*
X83932438Y-92583333D02*
X83884819Y-92678571D01*
X83884819Y-92678571D02*
X83884819Y-92869047D01*
X83884819Y-92869047D02*
X83932438Y-92964285D01*
X83932438Y-92964285D02*
X83980057Y-93011904D01*
X83980057Y-93011904D02*
X84075295Y-93059523D01*
X84075295Y-93059523D02*
X84313390Y-93059523D01*
X84313390Y-93059523D02*
X84408628Y-93011904D01*
X84408628Y-93011904D02*
X84456247Y-92964285D01*
X84456247Y-92964285D02*
X84503866Y-92869047D01*
X84503866Y-92869047D02*
X84503866Y-92678571D01*
X84503866Y-92678571D02*
X84456247Y-92583333D01*
X84456247Y-92583333D02*
X84408628Y-92535714D01*
X84408628Y-92535714D02*
X84313390Y-92488095D01*
X87307142Y-102179580D02*
X87259523Y-102227200D01*
X87259523Y-102227200D02*
X87116666Y-102274819D01*
X87116666Y-102274819D02*
X87021428Y-102274819D01*
X87021428Y-102274819D02*
X86878571Y-102227200D01*
X86878571Y-102227200D02*
X86783333Y-102131961D01*
X86783333Y-102131961D02*
X86735714Y-102036723D01*
X86735714Y-102036723D02*
X86688095Y-101846247D01*
X86688095Y-101846247D02*
X86688095Y-101703390D01*
X86688095Y-101703390D02*
X86735714Y-101512914D01*
X86735714Y-101512914D02*
X86783333Y-101417676D01*
X86783333Y-101417676D02*
X86878571Y-101322438D01*
X86878571Y-101322438D02*
X87021428Y-101274819D01*
X87021428Y-101274819D02*
X87116666Y-101274819D01*
X87116666Y-101274819D02*
X87259523Y-101322438D01*
X87259523Y-101322438D02*
X87307142Y-101370057D01*
X87688095Y-101370057D02*
X87735714Y-101322438D01*
X87735714Y-101322438D02*
X87830952Y-101274819D01*
X87830952Y-101274819D02*
X88069047Y-101274819D01*
X88069047Y-101274819D02*
X88164285Y-101322438D01*
X88164285Y-101322438D02*
X88211904Y-101370057D01*
X88211904Y-101370057D02*
X88259523Y-101465295D01*
X88259523Y-101465295D02*
X88259523Y-101560533D01*
X88259523Y-101560533D02*
X88211904Y-101703390D01*
X88211904Y-101703390D02*
X87640476Y-102274819D01*
X87640476Y-102274819D02*
X88259523Y-102274819D01*
X88592857Y-101274819D02*
X89211904Y-101274819D01*
X89211904Y-101274819D02*
X88878571Y-101655771D01*
X88878571Y-101655771D02*
X89021428Y-101655771D01*
X89021428Y-101655771D02*
X89116666Y-101703390D01*
X89116666Y-101703390D02*
X89164285Y-101751009D01*
X89164285Y-101751009D02*
X89211904Y-101846247D01*
X89211904Y-101846247D02*
X89211904Y-102084342D01*
X89211904Y-102084342D02*
X89164285Y-102179580D01*
X89164285Y-102179580D02*
X89116666Y-102227200D01*
X89116666Y-102227200D02*
X89021428Y-102274819D01*
X89021428Y-102274819D02*
X88735714Y-102274819D01*
X88735714Y-102274819D02*
X88640476Y-102227200D01*
X88640476Y-102227200D02*
X88592857Y-102179580D01*
X84602083Y-113340830D02*
X84554464Y-113388450D01*
X84554464Y-113388450D02*
X84411607Y-113436069D01*
X84411607Y-113436069D02*
X84316369Y-113436069D01*
X84316369Y-113436069D02*
X84173512Y-113388450D01*
X84173512Y-113388450D02*
X84078274Y-113293211D01*
X84078274Y-113293211D02*
X84030655Y-113197973D01*
X84030655Y-113197973D02*
X83983036Y-113007497D01*
X83983036Y-113007497D02*
X83983036Y-112864640D01*
X83983036Y-112864640D02*
X84030655Y-112674164D01*
X84030655Y-112674164D02*
X84078274Y-112578926D01*
X84078274Y-112578926D02*
X84173512Y-112483688D01*
X84173512Y-112483688D02*
X84316369Y-112436069D01*
X84316369Y-112436069D02*
X84411607Y-112436069D01*
X84411607Y-112436069D02*
X84554464Y-112483688D01*
X84554464Y-112483688D02*
X84602083Y-112531307D01*
X85078274Y-113436069D02*
X85268750Y-113436069D01*
X85268750Y-113436069D02*
X85363988Y-113388450D01*
X85363988Y-113388450D02*
X85411607Y-113340830D01*
X85411607Y-113340830D02*
X85506845Y-113197973D01*
X85506845Y-113197973D02*
X85554464Y-113007497D01*
X85554464Y-113007497D02*
X85554464Y-112626545D01*
X85554464Y-112626545D02*
X85506845Y-112531307D01*
X85506845Y-112531307D02*
X85459226Y-112483688D01*
X85459226Y-112483688D02*
X85363988Y-112436069D01*
X85363988Y-112436069D02*
X85173512Y-112436069D01*
X85173512Y-112436069D02*
X85078274Y-112483688D01*
X85078274Y-112483688D02*
X85030655Y-112531307D01*
X85030655Y-112531307D02*
X84983036Y-112626545D01*
X84983036Y-112626545D02*
X84983036Y-112864640D01*
X84983036Y-112864640D02*
X85030655Y-112959878D01*
X85030655Y-112959878D02*
X85078274Y-113007497D01*
X85078274Y-113007497D02*
X85173512Y-113055116D01*
X85173512Y-113055116D02*
X85363988Y-113055116D01*
X85363988Y-113055116D02*
X85459226Y-113007497D01*
X85459226Y-113007497D02*
X85506845Y-112959878D01*
X85506845Y-112959878D02*
X85554464Y-112864640D01*
X80624580Y-96892857D02*
X80672200Y-96940476D01*
X80672200Y-96940476D02*
X80719819Y-97083333D01*
X80719819Y-97083333D02*
X80719819Y-97178571D01*
X80719819Y-97178571D02*
X80672200Y-97321428D01*
X80672200Y-97321428D02*
X80576961Y-97416666D01*
X80576961Y-97416666D02*
X80481723Y-97464285D01*
X80481723Y-97464285D02*
X80291247Y-97511904D01*
X80291247Y-97511904D02*
X80148390Y-97511904D01*
X80148390Y-97511904D02*
X79957914Y-97464285D01*
X79957914Y-97464285D02*
X79862676Y-97416666D01*
X79862676Y-97416666D02*
X79767438Y-97321428D01*
X79767438Y-97321428D02*
X79719819Y-97178571D01*
X79719819Y-97178571D02*
X79719819Y-97083333D01*
X79719819Y-97083333D02*
X79767438Y-96940476D01*
X79767438Y-96940476D02*
X79815057Y-96892857D01*
X80719819Y-95940476D02*
X80719819Y-96511904D01*
X80719819Y-96226190D02*
X79719819Y-96226190D01*
X79719819Y-96226190D02*
X79862676Y-96321428D01*
X79862676Y-96321428D02*
X79957914Y-96416666D01*
X79957914Y-96416666D02*
X80005533Y-96511904D01*
X79719819Y-95035714D02*
X79719819Y-95511904D01*
X79719819Y-95511904D02*
X80196009Y-95559523D01*
X80196009Y-95559523D02*
X80148390Y-95511904D01*
X80148390Y-95511904D02*
X80100771Y-95416666D01*
X80100771Y-95416666D02*
X80100771Y-95178571D01*
X80100771Y-95178571D02*
X80148390Y-95083333D01*
X80148390Y-95083333D02*
X80196009Y-95035714D01*
X80196009Y-95035714D02*
X80291247Y-94988095D01*
X80291247Y-94988095D02*
X80529342Y-94988095D01*
X80529342Y-94988095D02*
X80624580Y-95035714D01*
X80624580Y-95035714D02*
X80672200Y-95083333D01*
X80672200Y-95083333D02*
X80719819Y-95178571D01*
X80719819Y-95178571D02*
X80719819Y-95416666D01*
X80719819Y-95416666D02*
X80672200Y-95511904D01*
X80672200Y-95511904D02*
X80624580Y-95559523D01*
X88054819Y-97166666D02*
X87578628Y-97499999D01*
X88054819Y-97738094D02*
X87054819Y-97738094D01*
X87054819Y-97738094D02*
X87054819Y-97357142D01*
X87054819Y-97357142D02*
X87102438Y-97261904D01*
X87102438Y-97261904D02*
X87150057Y-97214285D01*
X87150057Y-97214285D02*
X87245295Y-97166666D01*
X87245295Y-97166666D02*
X87388152Y-97166666D01*
X87388152Y-97166666D02*
X87483390Y-97214285D01*
X87483390Y-97214285D02*
X87531009Y-97261904D01*
X87531009Y-97261904D02*
X87578628Y-97357142D01*
X87578628Y-97357142D02*
X87578628Y-97738094D01*
X87054819Y-96309523D02*
X87054819Y-96499999D01*
X87054819Y-96499999D02*
X87102438Y-96595237D01*
X87102438Y-96595237D02*
X87150057Y-96642856D01*
X87150057Y-96642856D02*
X87292914Y-96738094D01*
X87292914Y-96738094D02*
X87483390Y-96785713D01*
X87483390Y-96785713D02*
X87864342Y-96785713D01*
X87864342Y-96785713D02*
X87959580Y-96738094D01*
X87959580Y-96738094D02*
X88007200Y-96690475D01*
X88007200Y-96690475D02*
X88054819Y-96595237D01*
X88054819Y-96595237D02*
X88054819Y-96404761D01*
X88054819Y-96404761D02*
X88007200Y-96309523D01*
X88007200Y-96309523D02*
X87959580Y-96261904D01*
X87959580Y-96261904D02*
X87864342Y-96214285D01*
X87864342Y-96214285D02*
X87626247Y-96214285D01*
X87626247Y-96214285D02*
X87531009Y-96261904D01*
X87531009Y-96261904D02*
X87483390Y-96309523D01*
X87483390Y-96309523D02*
X87435771Y-96404761D01*
X87435771Y-96404761D02*
X87435771Y-96595237D01*
X87435771Y-96595237D02*
X87483390Y-96690475D01*
X87483390Y-96690475D02*
X87531009Y-96738094D01*
X87531009Y-96738094D02*
X87626247Y-96785713D01*
X60789580Y-92416666D02*
X60837200Y-92464285D01*
X60837200Y-92464285D02*
X60884819Y-92607142D01*
X60884819Y-92607142D02*
X60884819Y-92702380D01*
X60884819Y-92702380D02*
X60837200Y-92845237D01*
X60837200Y-92845237D02*
X60741961Y-92940475D01*
X60741961Y-92940475D02*
X60646723Y-92988094D01*
X60646723Y-92988094D02*
X60456247Y-93035713D01*
X60456247Y-93035713D02*
X60313390Y-93035713D01*
X60313390Y-93035713D02*
X60122914Y-92988094D01*
X60122914Y-92988094D02*
X60027676Y-92940475D01*
X60027676Y-92940475D02*
X59932438Y-92845237D01*
X59932438Y-92845237D02*
X59884819Y-92702380D01*
X59884819Y-92702380D02*
X59884819Y-92607142D01*
X59884819Y-92607142D02*
X59932438Y-92464285D01*
X59932438Y-92464285D02*
X59980057Y-92416666D01*
X60218152Y-91559523D02*
X60884819Y-91559523D01*
X59837200Y-91797618D02*
X60551485Y-92035713D01*
X60551485Y-92035713D02*
X60551485Y-91416666D01*
X65609580Y-71166666D02*
X65657200Y-71214285D01*
X65657200Y-71214285D02*
X65704819Y-71357142D01*
X65704819Y-71357142D02*
X65704819Y-71452380D01*
X65704819Y-71452380D02*
X65657200Y-71595237D01*
X65657200Y-71595237D02*
X65561961Y-71690475D01*
X65561961Y-71690475D02*
X65466723Y-71738094D01*
X65466723Y-71738094D02*
X65276247Y-71785713D01*
X65276247Y-71785713D02*
X65133390Y-71785713D01*
X65133390Y-71785713D02*
X64942914Y-71738094D01*
X64942914Y-71738094D02*
X64847676Y-71690475D01*
X64847676Y-71690475D02*
X64752438Y-71595237D01*
X64752438Y-71595237D02*
X64704819Y-71452380D01*
X64704819Y-71452380D02*
X64704819Y-71357142D01*
X64704819Y-71357142D02*
X64752438Y-71214285D01*
X64752438Y-71214285D02*
X64800057Y-71166666D01*
X64800057Y-70785713D02*
X64752438Y-70738094D01*
X64752438Y-70738094D02*
X64704819Y-70642856D01*
X64704819Y-70642856D02*
X64704819Y-70404761D01*
X64704819Y-70404761D02*
X64752438Y-70309523D01*
X64752438Y-70309523D02*
X64800057Y-70261904D01*
X64800057Y-70261904D02*
X64895295Y-70214285D01*
X64895295Y-70214285D02*
X64990533Y-70214285D01*
X64990533Y-70214285D02*
X65133390Y-70261904D01*
X65133390Y-70261904D02*
X65704819Y-70833332D01*
X65704819Y-70833332D02*
X65704819Y-70214285D01*
X64204819Y-76511904D02*
X65014342Y-76511904D01*
X65014342Y-76511904D02*
X65109580Y-76464285D01*
X65109580Y-76464285D02*
X65157200Y-76416666D01*
X65157200Y-76416666D02*
X65204819Y-76321428D01*
X65204819Y-76321428D02*
X65204819Y-76130952D01*
X65204819Y-76130952D02*
X65157200Y-76035714D01*
X65157200Y-76035714D02*
X65109580Y-75988095D01*
X65109580Y-75988095D02*
X65014342Y-75940476D01*
X65014342Y-75940476D02*
X64204819Y-75940476D01*
X64633390Y-75321428D02*
X64585771Y-75416666D01*
X64585771Y-75416666D02*
X64538152Y-75464285D01*
X64538152Y-75464285D02*
X64442914Y-75511904D01*
X64442914Y-75511904D02*
X64395295Y-75511904D01*
X64395295Y-75511904D02*
X64300057Y-75464285D01*
X64300057Y-75464285D02*
X64252438Y-75416666D01*
X64252438Y-75416666D02*
X64204819Y-75321428D01*
X64204819Y-75321428D02*
X64204819Y-75130952D01*
X64204819Y-75130952D02*
X64252438Y-75035714D01*
X64252438Y-75035714D02*
X64300057Y-74988095D01*
X64300057Y-74988095D02*
X64395295Y-74940476D01*
X64395295Y-74940476D02*
X64442914Y-74940476D01*
X64442914Y-74940476D02*
X64538152Y-74988095D01*
X64538152Y-74988095D02*
X64585771Y-75035714D01*
X64585771Y-75035714D02*
X64633390Y-75130952D01*
X64633390Y-75130952D02*
X64633390Y-75321428D01*
X64633390Y-75321428D02*
X64681009Y-75416666D01*
X64681009Y-75416666D02*
X64728628Y-75464285D01*
X64728628Y-75464285D02*
X64823866Y-75511904D01*
X64823866Y-75511904D02*
X65014342Y-75511904D01*
X65014342Y-75511904D02*
X65109580Y-75464285D01*
X65109580Y-75464285D02*
X65157200Y-75416666D01*
X65157200Y-75416666D02*
X65204819Y-75321428D01*
X65204819Y-75321428D02*
X65204819Y-75130952D01*
X65204819Y-75130952D02*
X65157200Y-75035714D01*
X65157200Y-75035714D02*
X65109580Y-74988095D01*
X65109580Y-74988095D02*
X65014342Y-74940476D01*
X65014342Y-74940476D02*
X64823866Y-74940476D01*
X64823866Y-74940476D02*
X64728628Y-74988095D01*
X64728628Y-74988095D02*
X64681009Y-75035714D01*
X64681009Y-75035714D02*
X64633390Y-75130952D01*
X73107142Y-79109580D02*
X73059523Y-79157200D01*
X73059523Y-79157200D02*
X72916666Y-79204819D01*
X72916666Y-79204819D02*
X72821428Y-79204819D01*
X72821428Y-79204819D02*
X72678571Y-79157200D01*
X72678571Y-79157200D02*
X72583333Y-79061961D01*
X72583333Y-79061961D02*
X72535714Y-78966723D01*
X72535714Y-78966723D02*
X72488095Y-78776247D01*
X72488095Y-78776247D02*
X72488095Y-78633390D01*
X72488095Y-78633390D02*
X72535714Y-78442914D01*
X72535714Y-78442914D02*
X72583333Y-78347676D01*
X72583333Y-78347676D02*
X72678571Y-78252438D01*
X72678571Y-78252438D02*
X72821428Y-78204819D01*
X72821428Y-78204819D02*
X72916666Y-78204819D01*
X72916666Y-78204819D02*
X73059523Y-78252438D01*
X73059523Y-78252438D02*
X73107142Y-78300057D01*
X73488095Y-78300057D02*
X73535714Y-78252438D01*
X73535714Y-78252438D02*
X73630952Y-78204819D01*
X73630952Y-78204819D02*
X73869047Y-78204819D01*
X73869047Y-78204819D02*
X73964285Y-78252438D01*
X73964285Y-78252438D02*
X74011904Y-78300057D01*
X74011904Y-78300057D02*
X74059523Y-78395295D01*
X74059523Y-78395295D02*
X74059523Y-78490533D01*
X74059523Y-78490533D02*
X74011904Y-78633390D01*
X74011904Y-78633390D02*
X73440476Y-79204819D01*
X73440476Y-79204819D02*
X74059523Y-79204819D01*
X74964285Y-78204819D02*
X74488095Y-78204819D01*
X74488095Y-78204819D02*
X74440476Y-78681009D01*
X74440476Y-78681009D02*
X74488095Y-78633390D01*
X74488095Y-78633390D02*
X74583333Y-78585771D01*
X74583333Y-78585771D02*
X74821428Y-78585771D01*
X74821428Y-78585771D02*
X74916666Y-78633390D01*
X74916666Y-78633390D02*
X74964285Y-78681009D01*
X74964285Y-78681009D02*
X75011904Y-78776247D01*
X75011904Y-78776247D02*
X75011904Y-79014342D01*
X75011904Y-79014342D02*
X74964285Y-79109580D01*
X74964285Y-79109580D02*
X74916666Y-79157200D01*
X74916666Y-79157200D02*
X74821428Y-79204819D01*
X74821428Y-79204819D02*
X74583333Y-79204819D01*
X74583333Y-79204819D02*
X74488095Y-79157200D01*
X74488095Y-79157200D02*
X74440476Y-79109580D01*
X68609580Y-83142857D02*
X68657200Y-83190476D01*
X68657200Y-83190476D02*
X68704819Y-83333333D01*
X68704819Y-83333333D02*
X68704819Y-83428571D01*
X68704819Y-83428571D02*
X68657200Y-83571428D01*
X68657200Y-83571428D02*
X68561961Y-83666666D01*
X68561961Y-83666666D02*
X68466723Y-83714285D01*
X68466723Y-83714285D02*
X68276247Y-83761904D01*
X68276247Y-83761904D02*
X68133390Y-83761904D01*
X68133390Y-83761904D02*
X67942914Y-83714285D01*
X67942914Y-83714285D02*
X67847676Y-83666666D01*
X67847676Y-83666666D02*
X67752438Y-83571428D01*
X67752438Y-83571428D02*
X67704819Y-83428571D01*
X67704819Y-83428571D02*
X67704819Y-83333333D01*
X67704819Y-83333333D02*
X67752438Y-83190476D01*
X67752438Y-83190476D02*
X67800057Y-83142857D01*
X68704819Y-82190476D02*
X68704819Y-82761904D01*
X68704819Y-82476190D02*
X67704819Y-82476190D01*
X67704819Y-82476190D02*
X67847676Y-82571428D01*
X67847676Y-82571428D02*
X67942914Y-82666666D01*
X67942914Y-82666666D02*
X67990533Y-82761904D01*
X67704819Y-81333333D02*
X67704819Y-81523809D01*
X67704819Y-81523809D02*
X67752438Y-81619047D01*
X67752438Y-81619047D02*
X67800057Y-81666666D01*
X67800057Y-81666666D02*
X67942914Y-81761904D01*
X67942914Y-81761904D02*
X68133390Y-81809523D01*
X68133390Y-81809523D02*
X68514342Y-81809523D01*
X68514342Y-81809523D02*
X68609580Y-81761904D01*
X68609580Y-81761904D02*
X68657200Y-81714285D01*
X68657200Y-81714285D02*
X68704819Y-81619047D01*
X68704819Y-81619047D02*
X68704819Y-81428571D01*
X68704819Y-81428571D02*
X68657200Y-81333333D01*
X68657200Y-81333333D02*
X68609580Y-81285714D01*
X68609580Y-81285714D02*
X68514342Y-81238095D01*
X68514342Y-81238095D02*
X68276247Y-81238095D01*
X68276247Y-81238095D02*
X68181009Y-81285714D01*
X68181009Y-81285714D02*
X68133390Y-81333333D01*
X68133390Y-81333333D02*
X68085771Y-81428571D01*
X68085771Y-81428571D02*
X68085771Y-81619047D01*
X68085771Y-81619047D02*
X68133390Y-81714285D01*
X68133390Y-81714285D02*
X68181009Y-81761904D01*
X68181009Y-81761904D02*
X68276247Y-81809523D01*
X81039580Y-62142857D02*
X81087200Y-62190476D01*
X81087200Y-62190476D02*
X81134819Y-62333333D01*
X81134819Y-62333333D02*
X81134819Y-62428571D01*
X81134819Y-62428571D02*
X81087200Y-62571428D01*
X81087200Y-62571428D02*
X80991961Y-62666666D01*
X80991961Y-62666666D02*
X80896723Y-62714285D01*
X80896723Y-62714285D02*
X80706247Y-62761904D01*
X80706247Y-62761904D02*
X80563390Y-62761904D01*
X80563390Y-62761904D02*
X80372914Y-62714285D01*
X80372914Y-62714285D02*
X80277676Y-62666666D01*
X80277676Y-62666666D02*
X80182438Y-62571428D01*
X80182438Y-62571428D02*
X80134819Y-62428571D01*
X80134819Y-62428571D02*
X80134819Y-62333333D01*
X80134819Y-62333333D02*
X80182438Y-62190476D01*
X80182438Y-62190476D02*
X80230057Y-62142857D01*
X80230057Y-61761904D02*
X80182438Y-61714285D01*
X80182438Y-61714285D02*
X80134819Y-61619047D01*
X80134819Y-61619047D02*
X80134819Y-61380952D01*
X80134819Y-61380952D02*
X80182438Y-61285714D01*
X80182438Y-61285714D02*
X80230057Y-61238095D01*
X80230057Y-61238095D02*
X80325295Y-61190476D01*
X80325295Y-61190476D02*
X80420533Y-61190476D01*
X80420533Y-61190476D02*
X80563390Y-61238095D01*
X80563390Y-61238095D02*
X81134819Y-61809523D01*
X81134819Y-61809523D02*
X81134819Y-61190476D01*
X80230057Y-60809523D02*
X80182438Y-60761904D01*
X80182438Y-60761904D02*
X80134819Y-60666666D01*
X80134819Y-60666666D02*
X80134819Y-60428571D01*
X80134819Y-60428571D02*
X80182438Y-60333333D01*
X80182438Y-60333333D02*
X80230057Y-60285714D01*
X80230057Y-60285714D02*
X80325295Y-60238095D01*
X80325295Y-60238095D02*
X80420533Y-60238095D01*
X80420533Y-60238095D02*
X80563390Y-60285714D01*
X80563390Y-60285714D02*
X81134819Y-60857142D01*
X81134819Y-60857142D02*
X81134819Y-60238095D01*
X96023809Y-78728628D02*
X96023809Y-79204819D01*
X95690476Y-78204819D02*
X96023809Y-78728628D01*
X96023809Y-78728628D02*
X96357142Y-78204819D01*
X96642857Y-78300057D02*
X96690476Y-78252438D01*
X96690476Y-78252438D02*
X96785714Y-78204819D01*
X96785714Y-78204819D02*
X97023809Y-78204819D01*
X97023809Y-78204819D02*
X97119047Y-78252438D01*
X97119047Y-78252438D02*
X97166666Y-78300057D01*
X97166666Y-78300057D02*
X97214285Y-78395295D01*
X97214285Y-78395295D02*
X97214285Y-78490533D01*
X97214285Y-78490533D02*
X97166666Y-78633390D01*
X97166666Y-78633390D02*
X96595238Y-79204819D01*
X96595238Y-79204819D02*
X97214285Y-79204819D01*
X87375892Y-106186069D02*
X87042559Y-105709878D01*
X86804464Y-106186069D02*
X86804464Y-105186069D01*
X86804464Y-105186069D02*
X87185416Y-105186069D01*
X87185416Y-105186069D02*
X87280654Y-105233688D01*
X87280654Y-105233688D02*
X87328273Y-105281307D01*
X87328273Y-105281307D02*
X87375892Y-105376545D01*
X87375892Y-105376545D02*
X87375892Y-105519402D01*
X87375892Y-105519402D02*
X87328273Y-105614640D01*
X87328273Y-105614640D02*
X87280654Y-105662259D01*
X87280654Y-105662259D02*
X87185416Y-105709878D01*
X87185416Y-105709878D02*
X86804464Y-105709878D01*
X87756845Y-105281307D02*
X87804464Y-105233688D01*
X87804464Y-105233688D02*
X87899702Y-105186069D01*
X87899702Y-105186069D02*
X88137797Y-105186069D01*
X88137797Y-105186069D02*
X88233035Y-105233688D01*
X88233035Y-105233688D02*
X88280654Y-105281307D01*
X88280654Y-105281307D02*
X88328273Y-105376545D01*
X88328273Y-105376545D02*
X88328273Y-105471783D01*
X88328273Y-105471783D02*
X88280654Y-105614640D01*
X88280654Y-105614640D02*
X87709226Y-106186069D01*
X87709226Y-106186069D02*
X88328273Y-106186069D01*
X89185416Y-105519402D02*
X89185416Y-106186069D01*
X88947321Y-105138450D02*
X88709226Y-105852735D01*
X88709226Y-105852735D02*
X89328273Y-105852735D01*
X67454819Y-93416666D02*
X67454819Y-93892856D01*
X67454819Y-93892856D02*
X66454819Y-93892856D01*
X66550057Y-93130951D02*
X66502438Y-93083332D01*
X66502438Y-93083332D02*
X66454819Y-92988094D01*
X66454819Y-92988094D02*
X66454819Y-92749999D01*
X66454819Y-92749999D02*
X66502438Y-92654761D01*
X66502438Y-92654761D02*
X66550057Y-92607142D01*
X66550057Y-92607142D02*
X66645295Y-92559523D01*
X66645295Y-92559523D02*
X66740533Y-92559523D01*
X66740533Y-92559523D02*
X66883390Y-92607142D01*
X66883390Y-92607142D02*
X67454819Y-93178570D01*
X67454819Y-93178570D02*
X67454819Y-92559523D01*
X79454819Y-66642857D02*
X78978628Y-66976190D01*
X79454819Y-67214285D02*
X78454819Y-67214285D01*
X78454819Y-67214285D02*
X78454819Y-66833333D01*
X78454819Y-66833333D02*
X78502438Y-66738095D01*
X78502438Y-66738095D02*
X78550057Y-66690476D01*
X78550057Y-66690476D02*
X78645295Y-66642857D01*
X78645295Y-66642857D02*
X78788152Y-66642857D01*
X78788152Y-66642857D02*
X78883390Y-66690476D01*
X78883390Y-66690476D02*
X78931009Y-66738095D01*
X78931009Y-66738095D02*
X78978628Y-66833333D01*
X78978628Y-66833333D02*
X78978628Y-67214285D01*
X79454819Y-65690476D02*
X79454819Y-66261904D01*
X79454819Y-65976190D02*
X78454819Y-65976190D01*
X78454819Y-65976190D02*
X78597676Y-66071428D01*
X78597676Y-66071428D02*
X78692914Y-66166666D01*
X78692914Y-66166666D02*
X78740533Y-66261904D01*
X78550057Y-65309523D02*
X78502438Y-65261904D01*
X78502438Y-65261904D02*
X78454819Y-65166666D01*
X78454819Y-65166666D02*
X78454819Y-64928571D01*
X78454819Y-64928571D02*
X78502438Y-64833333D01*
X78502438Y-64833333D02*
X78550057Y-64785714D01*
X78550057Y-64785714D02*
X78645295Y-64738095D01*
X78645295Y-64738095D02*
X78740533Y-64738095D01*
X78740533Y-64738095D02*
X78883390Y-64785714D01*
X78883390Y-64785714D02*
X79454819Y-65357142D01*
X79454819Y-65357142D02*
X79454819Y-64738095D01*
D11*
X105714285Y-70433609D02*
X105857142Y-70481228D01*
X105857142Y-70481228D02*
X105904761Y-70528847D01*
X105904761Y-70528847D02*
X105952380Y-70624085D01*
X105952380Y-70624085D02*
X105952380Y-70766942D01*
X105952380Y-70766942D02*
X105904761Y-70862180D01*
X105904761Y-70862180D02*
X105857142Y-70909800D01*
X105857142Y-70909800D02*
X105761904Y-70957419D01*
X105761904Y-70957419D02*
X105380952Y-70957419D01*
X105380952Y-70957419D02*
X105380952Y-69957419D01*
X105380952Y-69957419D02*
X105714285Y-69957419D01*
X105714285Y-69957419D02*
X105809523Y-70005038D01*
X105809523Y-70005038D02*
X105857142Y-70052657D01*
X105857142Y-70052657D02*
X105904761Y-70147895D01*
X105904761Y-70147895D02*
X105904761Y-70243133D01*
X105904761Y-70243133D02*
X105857142Y-70338371D01*
X105857142Y-70338371D02*
X105809523Y-70385990D01*
X105809523Y-70385990D02*
X105714285Y-70433609D01*
X105714285Y-70433609D02*
X105380952Y-70433609D01*
X106238095Y-69957419D02*
X106809523Y-69957419D01*
X106523809Y-70957419D02*
X106523809Y-69957419D01*
X107095238Y-70052657D02*
X107142857Y-70005038D01*
X107142857Y-70005038D02*
X107238095Y-69957419D01*
X107238095Y-69957419D02*
X107476190Y-69957419D01*
X107476190Y-69957419D02*
X107571428Y-70005038D01*
X107571428Y-70005038D02*
X107619047Y-70052657D01*
X107619047Y-70052657D02*
X107666666Y-70147895D01*
X107666666Y-70147895D02*
X107666666Y-70243133D01*
X107666666Y-70243133D02*
X107619047Y-70385990D01*
X107619047Y-70385990D02*
X107047619Y-70957419D01*
X107047619Y-70957419D02*
X107666666Y-70957419D01*
D10*
X48186667Y-85957200D02*
X48329524Y-86004819D01*
X48329524Y-86004819D02*
X48567619Y-86004819D01*
X48567619Y-86004819D02*
X48662857Y-85957200D01*
X48662857Y-85957200D02*
X48710476Y-85909580D01*
X48710476Y-85909580D02*
X48758095Y-85814342D01*
X48758095Y-85814342D02*
X48758095Y-85719104D01*
X48758095Y-85719104D02*
X48710476Y-85623866D01*
X48710476Y-85623866D02*
X48662857Y-85576247D01*
X48662857Y-85576247D02*
X48567619Y-85528628D01*
X48567619Y-85528628D02*
X48377143Y-85481009D01*
X48377143Y-85481009D02*
X48281905Y-85433390D01*
X48281905Y-85433390D02*
X48234286Y-85385771D01*
X48234286Y-85385771D02*
X48186667Y-85290533D01*
X48186667Y-85290533D02*
X48186667Y-85195295D01*
X48186667Y-85195295D02*
X48234286Y-85100057D01*
X48234286Y-85100057D02*
X48281905Y-85052438D01*
X48281905Y-85052438D02*
X48377143Y-85004819D01*
X48377143Y-85004819D02*
X48615238Y-85004819D01*
X48615238Y-85004819D02*
X48758095Y-85052438D01*
X49091429Y-85004819D02*
X49329524Y-86004819D01*
X49329524Y-86004819D02*
X49520000Y-85290533D01*
X49520000Y-85290533D02*
X49710476Y-86004819D01*
X49710476Y-86004819D02*
X49948572Y-85004819D01*
X50281905Y-85100057D02*
X50329524Y-85052438D01*
X50329524Y-85052438D02*
X50424762Y-85004819D01*
X50424762Y-85004819D02*
X50662857Y-85004819D01*
X50662857Y-85004819D02*
X50758095Y-85052438D01*
X50758095Y-85052438D02*
X50805714Y-85100057D01*
X50805714Y-85100057D02*
X50853333Y-85195295D01*
X50853333Y-85195295D02*
X50853333Y-85290533D01*
X50853333Y-85290533D02*
X50805714Y-85433390D01*
X50805714Y-85433390D02*
X50234286Y-86004819D01*
X50234286Y-86004819D02*
X50853333Y-86004819D01*
X89738095Y-99256819D02*
X90309523Y-99256819D01*
X90023809Y-100256819D02*
X90023809Y-99256819D01*
X90642857Y-100256819D02*
X90642857Y-99256819D01*
X90642857Y-99256819D02*
X91023809Y-99256819D01*
X91023809Y-99256819D02*
X91119047Y-99304438D01*
X91119047Y-99304438D02*
X91166666Y-99352057D01*
X91166666Y-99352057D02*
X91214285Y-99447295D01*
X91214285Y-99447295D02*
X91214285Y-99590152D01*
X91214285Y-99590152D02*
X91166666Y-99685390D01*
X91166666Y-99685390D02*
X91119047Y-99733009D01*
X91119047Y-99733009D02*
X91023809Y-99780628D01*
X91023809Y-99780628D02*
X90642857Y-99780628D01*
X91690476Y-100256819D02*
X91880952Y-100256819D01*
X91880952Y-100256819D02*
X91976190Y-100209200D01*
X91976190Y-100209200D02*
X92023809Y-100161580D01*
X92023809Y-100161580D02*
X92119047Y-100018723D01*
X92119047Y-100018723D02*
X92166666Y-99828247D01*
X92166666Y-99828247D02*
X92166666Y-99447295D01*
X92166666Y-99447295D02*
X92119047Y-99352057D01*
X92119047Y-99352057D02*
X92071428Y-99304438D01*
X92071428Y-99304438D02*
X91976190Y-99256819D01*
X91976190Y-99256819D02*
X91785714Y-99256819D01*
X91785714Y-99256819D02*
X91690476Y-99304438D01*
X91690476Y-99304438D02*
X91642857Y-99352057D01*
X91642857Y-99352057D02*
X91595238Y-99447295D01*
X91595238Y-99447295D02*
X91595238Y-99685390D01*
X91595238Y-99685390D02*
X91642857Y-99780628D01*
X91642857Y-99780628D02*
X91690476Y-99828247D01*
X91690476Y-99828247D02*
X91785714Y-99875866D01*
X91785714Y-99875866D02*
X91976190Y-99875866D01*
X91976190Y-99875866D02*
X92071428Y-99828247D01*
X92071428Y-99828247D02*
X92119047Y-99780628D01*
X92119047Y-99780628D02*
X92166666Y-99685390D01*
X90679580Y-76142857D02*
X90727200Y-76190476D01*
X90727200Y-76190476D02*
X90774819Y-76333333D01*
X90774819Y-76333333D02*
X90774819Y-76428571D01*
X90774819Y-76428571D02*
X90727200Y-76571428D01*
X90727200Y-76571428D02*
X90631961Y-76666666D01*
X90631961Y-76666666D02*
X90536723Y-76714285D01*
X90536723Y-76714285D02*
X90346247Y-76761904D01*
X90346247Y-76761904D02*
X90203390Y-76761904D01*
X90203390Y-76761904D02*
X90012914Y-76714285D01*
X90012914Y-76714285D02*
X89917676Y-76666666D01*
X89917676Y-76666666D02*
X89822438Y-76571428D01*
X89822438Y-76571428D02*
X89774819Y-76428571D01*
X89774819Y-76428571D02*
X89774819Y-76333333D01*
X89774819Y-76333333D02*
X89822438Y-76190476D01*
X89822438Y-76190476D02*
X89870057Y-76142857D01*
X90774819Y-75190476D02*
X90774819Y-75761904D01*
X90774819Y-75476190D02*
X89774819Y-75476190D01*
X89774819Y-75476190D02*
X89917676Y-75571428D01*
X89917676Y-75571428D02*
X90012914Y-75666666D01*
X90012914Y-75666666D02*
X90060533Y-75761904D01*
X89870057Y-74809523D02*
X89822438Y-74761904D01*
X89822438Y-74761904D02*
X89774819Y-74666666D01*
X89774819Y-74666666D02*
X89774819Y-74428571D01*
X89774819Y-74428571D02*
X89822438Y-74333333D01*
X89822438Y-74333333D02*
X89870057Y-74285714D01*
X89870057Y-74285714D02*
X89965295Y-74238095D01*
X89965295Y-74238095D02*
X90060533Y-74238095D01*
X90060533Y-74238095D02*
X90203390Y-74285714D01*
X90203390Y-74285714D02*
X90774819Y-74857142D01*
X90774819Y-74857142D02*
X90774819Y-74238095D01*
X69954819Y-106666666D02*
X69478628Y-106999999D01*
X69954819Y-107238094D02*
X68954819Y-107238094D01*
X68954819Y-107238094D02*
X68954819Y-106857142D01*
X68954819Y-106857142D02*
X69002438Y-106761904D01*
X69002438Y-106761904D02*
X69050057Y-106714285D01*
X69050057Y-106714285D02*
X69145295Y-106666666D01*
X69145295Y-106666666D02*
X69288152Y-106666666D01*
X69288152Y-106666666D02*
X69383390Y-106714285D01*
X69383390Y-106714285D02*
X69431009Y-106761904D01*
X69431009Y-106761904D02*
X69478628Y-106857142D01*
X69478628Y-106857142D02*
X69478628Y-107238094D01*
X69383390Y-106095237D02*
X69335771Y-106190475D01*
X69335771Y-106190475D02*
X69288152Y-106238094D01*
X69288152Y-106238094D02*
X69192914Y-106285713D01*
X69192914Y-106285713D02*
X69145295Y-106285713D01*
X69145295Y-106285713D02*
X69050057Y-106238094D01*
X69050057Y-106238094D02*
X69002438Y-106190475D01*
X69002438Y-106190475D02*
X68954819Y-106095237D01*
X68954819Y-106095237D02*
X68954819Y-105904761D01*
X68954819Y-105904761D02*
X69002438Y-105809523D01*
X69002438Y-105809523D02*
X69050057Y-105761904D01*
X69050057Y-105761904D02*
X69145295Y-105714285D01*
X69145295Y-105714285D02*
X69192914Y-105714285D01*
X69192914Y-105714285D02*
X69288152Y-105761904D01*
X69288152Y-105761904D02*
X69335771Y-105809523D01*
X69335771Y-105809523D02*
X69383390Y-105904761D01*
X69383390Y-105904761D02*
X69383390Y-106095237D01*
X69383390Y-106095237D02*
X69431009Y-106190475D01*
X69431009Y-106190475D02*
X69478628Y-106238094D01*
X69478628Y-106238094D02*
X69573866Y-106285713D01*
X69573866Y-106285713D02*
X69764342Y-106285713D01*
X69764342Y-106285713D02*
X69859580Y-106238094D01*
X69859580Y-106238094D02*
X69907200Y-106190475D01*
X69907200Y-106190475D02*
X69954819Y-106095237D01*
X69954819Y-106095237D02*
X69954819Y-105904761D01*
X69954819Y-105904761D02*
X69907200Y-105809523D01*
X69907200Y-105809523D02*
X69859580Y-105761904D01*
X69859580Y-105761904D02*
X69764342Y-105714285D01*
X69764342Y-105714285D02*
X69573866Y-105714285D01*
X69573866Y-105714285D02*
X69478628Y-105761904D01*
X69478628Y-105761904D02*
X69431009Y-105809523D01*
X69431009Y-105809523D02*
X69383390Y-105904761D01*
X66704819Y-81392857D02*
X66228628Y-81726190D01*
X66704819Y-81964285D02*
X65704819Y-81964285D01*
X65704819Y-81964285D02*
X65704819Y-81583333D01*
X65704819Y-81583333D02*
X65752438Y-81488095D01*
X65752438Y-81488095D02*
X65800057Y-81440476D01*
X65800057Y-81440476D02*
X65895295Y-81392857D01*
X65895295Y-81392857D02*
X66038152Y-81392857D01*
X66038152Y-81392857D02*
X66133390Y-81440476D01*
X66133390Y-81440476D02*
X66181009Y-81488095D01*
X66181009Y-81488095D02*
X66228628Y-81583333D01*
X66228628Y-81583333D02*
X66228628Y-81964285D01*
X66704819Y-80440476D02*
X66704819Y-81011904D01*
X66704819Y-80726190D02*
X65704819Y-80726190D01*
X65704819Y-80726190D02*
X65847676Y-80821428D01*
X65847676Y-80821428D02*
X65942914Y-80916666D01*
X65942914Y-80916666D02*
X65990533Y-81011904D01*
X65704819Y-79821428D02*
X65704819Y-79726190D01*
X65704819Y-79726190D02*
X65752438Y-79630952D01*
X65752438Y-79630952D02*
X65800057Y-79583333D01*
X65800057Y-79583333D02*
X65895295Y-79535714D01*
X65895295Y-79535714D02*
X66085771Y-79488095D01*
X66085771Y-79488095D02*
X66323866Y-79488095D01*
X66323866Y-79488095D02*
X66514342Y-79535714D01*
X66514342Y-79535714D02*
X66609580Y-79583333D01*
X66609580Y-79583333D02*
X66657200Y-79630952D01*
X66657200Y-79630952D02*
X66704819Y-79726190D01*
X66704819Y-79726190D02*
X66704819Y-79821428D01*
X66704819Y-79821428D02*
X66657200Y-79916666D01*
X66657200Y-79916666D02*
X66609580Y-79964285D01*
X66609580Y-79964285D02*
X66514342Y-80011904D01*
X66514342Y-80011904D02*
X66323866Y-80059523D01*
X66323866Y-80059523D02*
X66085771Y-80059523D01*
X66085771Y-80059523D02*
X65895295Y-80011904D01*
X65895295Y-80011904D02*
X65800057Y-79964285D01*
X65800057Y-79964285D02*
X65752438Y-79916666D01*
X65752438Y-79916666D02*
X65704819Y-79821428D01*
X121391666Y-92529819D02*
X121391666Y-93244104D01*
X121391666Y-93244104D02*
X121344047Y-93386961D01*
X121344047Y-93386961D02*
X121248809Y-93482200D01*
X121248809Y-93482200D02*
X121105952Y-93529819D01*
X121105952Y-93529819D02*
X121010714Y-93529819D01*
X121820238Y-92625057D02*
X121867857Y-92577438D01*
X121867857Y-92577438D02*
X121963095Y-92529819D01*
X121963095Y-92529819D02*
X122201190Y-92529819D01*
X122201190Y-92529819D02*
X122296428Y-92577438D01*
X122296428Y-92577438D02*
X122344047Y-92625057D01*
X122344047Y-92625057D02*
X122391666Y-92720295D01*
X122391666Y-92720295D02*
X122391666Y-92815533D01*
X122391666Y-92815533D02*
X122344047Y-92958390D01*
X122344047Y-92958390D02*
X121772619Y-93529819D01*
X121772619Y-93529819D02*
X122391666Y-93529819D01*
X92761905Y-106454819D02*
X93333333Y-106454819D01*
X93047619Y-107454819D02*
X93047619Y-106454819D01*
X93666667Y-107454819D02*
X93666667Y-106454819D01*
X93666667Y-106454819D02*
X94047619Y-106454819D01*
X94047619Y-106454819D02*
X94142857Y-106502438D01*
X94142857Y-106502438D02*
X94190476Y-106550057D01*
X94190476Y-106550057D02*
X94238095Y-106645295D01*
X94238095Y-106645295D02*
X94238095Y-106788152D01*
X94238095Y-106788152D02*
X94190476Y-106883390D01*
X94190476Y-106883390D02*
X94142857Y-106931009D01*
X94142857Y-106931009D02*
X94047619Y-106978628D01*
X94047619Y-106978628D02*
X93666667Y-106978628D01*
X95190476Y-107454819D02*
X94619048Y-107454819D01*
X94904762Y-107454819D02*
X94904762Y-106454819D01*
X94904762Y-106454819D02*
X94809524Y-106597676D01*
X94809524Y-106597676D02*
X94714286Y-106692914D01*
X94714286Y-106692914D02*
X94619048Y-106740533D01*
X95809524Y-106454819D02*
X95904762Y-106454819D01*
X95904762Y-106454819D02*
X96000000Y-106502438D01*
X96000000Y-106502438D02*
X96047619Y-106550057D01*
X96047619Y-106550057D02*
X96095238Y-106645295D01*
X96095238Y-106645295D02*
X96142857Y-106835771D01*
X96142857Y-106835771D02*
X96142857Y-107073866D01*
X96142857Y-107073866D02*
X96095238Y-107264342D01*
X96095238Y-107264342D02*
X96047619Y-107359580D01*
X96047619Y-107359580D02*
X96000000Y-107407200D01*
X96000000Y-107407200D02*
X95904762Y-107454819D01*
X95904762Y-107454819D02*
X95809524Y-107454819D01*
X95809524Y-107454819D02*
X95714286Y-107407200D01*
X95714286Y-107407200D02*
X95666667Y-107359580D01*
X95666667Y-107359580D02*
X95619048Y-107264342D01*
X95619048Y-107264342D02*
X95571429Y-107073866D01*
X95571429Y-107073866D02*
X95571429Y-106835771D01*
X95571429Y-106835771D02*
X95619048Y-106645295D01*
X95619048Y-106645295D02*
X95666667Y-106550057D01*
X95666667Y-106550057D02*
X95714286Y-106502438D01*
X95714286Y-106502438D02*
X95809524Y-106454819D01*
X87357142Y-108454819D02*
X87023809Y-107978628D01*
X86785714Y-108454819D02*
X86785714Y-107454819D01*
X86785714Y-107454819D02*
X87166666Y-107454819D01*
X87166666Y-107454819D02*
X87261904Y-107502438D01*
X87261904Y-107502438D02*
X87309523Y-107550057D01*
X87309523Y-107550057D02*
X87357142Y-107645295D01*
X87357142Y-107645295D02*
X87357142Y-107788152D01*
X87357142Y-107788152D02*
X87309523Y-107883390D01*
X87309523Y-107883390D02*
X87261904Y-107931009D01*
X87261904Y-107931009D02*
X87166666Y-107978628D01*
X87166666Y-107978628D02*
X86785714Y-107978628D01*
X88309523Y-108454819D02*
X87738095Y-108454819D01*
X88023809Y-108454819D02*
X88023809Y-107454819D01*
X88023809Y-107454819D02*
X87928571Y-107597676D01*
X87928571Y-107597676D02*
X87833333Y-107692914D01*
X87833333Y-107692914D02*
X87738095Y-107740533D01*
X88642857Y-107454819D02*
X89261904Y-107454819D01*
X89261904Y-107454819D02*
X88928571Y-107835771D01*
X88928571Y-107835771D02*
X89071428Y-107835771D01*
X89071428Y-107835771D02*
X89166666Y-107883390D01*
X89166666Y-107883390D02*
X89214285Y-107931009D01*
X89214285Y-107931009D02*
X89261904Y-108026247D01*
X89261904Y-108026247D02*
X89261904Y-108264342D01*
X89261904Y-108264342D02*
X89214285Y-108359580D01*
X89214285Y-108359580D02*
X89166666Y-108407200D01*
X89166666Y-108407200D02*
X89071428Y-108454819D01*
X89071428Y-108454819D02*
X88785714Y-108454819D01*
X88785714Y-108454819D02*
X88690476Y-108407200D01*
X88690476Y-108407200D02*
X88642857Y-108359580D01*
D11*
X49738095Y-72052119D02*
X49738095Y-72861642D01*
X49738095Y-72861642D02*
X49785714Y-72956880D01*
X49785714Y-72956880D02*
X49833333Y-73004500D01*
X49833333Y-73004500D02*
X49928571Y-73052119D01*
X49928571Y-73052119D02*
X50119047Y-73052119D01*
X50119047Y-73052119D02*
X50214285Y-73004500D01*
X50214285Y-73004500D02*
X50261904Y-72956880D01*
X50261904Y-72956880D02*
X50309523Y-72861642D01*
X50309523Y-72861642D02*
X50309523Y-72052119D01*
X51261904Y-72052119D02*
X50785714Y-72052119D01*
X50785714Y-72052119D02*
X50738095Y-72528309D01*
X50738095Y-72528309D02*
X50785714Y-72480690D01*
X50785714Y-72480690D02*
X50880952Y-72433071D01*
X50880952Y-72433071D02*
X51119047Y-72433071D01*
X51119047Y-72433071D02*
X51214285Y-72480690D01*
X51214285Y-72480690D02*
X51261904Y-72528309D01*
X51261904Y-72528309D02*
X51309523Y-72623547D01*
X51309523Y-72623547D02*
X51309523Y-72861642D01*
X51309523Y-72861642D02*
X51261904Y-72956880D01*
X51261904Y-72956880D02*
X51214285Y-73004500D01*
X51214285Y-73004500D02*
X51119047Y-73052119D01*
X51119047Y-73052119D02*
X50880952Y-73052119D01*
X50880952Y-73052119D02*
X50785714Y-73004500D01*
X50785714Y-73004500D02*
X50738095Y-72956880D01*
D10*
X56350000Y-68939919D02*
X56350000Y-69178014D01*
X56111905Y-69082776D02*
X56350000Y-69178014D01*
X56350000Y-69178014D02*
X56588095Y-69082776D01*
X56207143Y-69368490D02*
X56350000Y-69178014D01*
X56350000Y-69178014D02*
X56492857Y-69368490D01*
X56350000Y-68939919D02*
X56350000Y-69178014D01*
X56111905Y-69082776D02*
X56350000Y-69178014D01*
X56350000Y-69178014D02*
X56588095Y-69082776D01*
X56207143Y-69368490D02*
X56350000Y-69178014D01*
X56350000Y-69178014D02*
X56492857Y-69368490D01*
X61539580Y-69892857D02*
X61587200Y-69940476D01*
X61587200Y-69940476D02*
X61634819Y-70083333D01*
X61634819Y-70083333D02*
X61634819Y-70178571D01*
X61634819Y-70178571D02*
X61587200Y-70321428D01*
X61587200Y-70321428D02*
X61491961Y-70416666D01*
X61491961Y-70416666D02*
X61396723Y-70464285D01*
X61396723Y-70464285D02*
X61206247Y-70511904D01*
X61206247Y-70511904D02*
X61063390Y-70511904D01*
X61063390Y-70511904D02*
X60872914Y-70464285D01*
X60872914Y-70464285D02*
X60777676Y-70416666D01*
X60777676Y-70416666D02*
X60682438Y-70321428D01*
X60682438Y-70321428D02*
X60634819Y-70178571D01*
X60634819Y-70178571D02*
X60634819Y-70083333D01*
X60634819Y-70083333D02*
X60682438Y-69940476D01*
X60682438Y-69940476D02*
X60730057Y-69892857D01*
X60730057Y-69511904D02*
X60682438Y-69464285D01*
X60682438Y-69464285D02*
X60634819Y-69369047D01*
X60634819Y-69369047D02*
X60634819Y-69130952D01*
X60634819Y-69130952D02*
X60682438Y-69035714D01*
X60682438Y-69035714D02*
X60730057Y-68988095D01*
X60730057Y-68988095D02*
X60825295Y-68940476D01*
X60825295Y-68940476D02*
X60920533Y-68940476D01*
X60920533Y-68940476D02*
X61063390Y-68988095D01*
X61063390Y-68988095D02*
X61634819Y-69559523D01*
X61634819Y-69559523D02*
X61634819Y-68940476D01*
X61634819Y-67988095D02*
X61634819Y-68559523D01*
X61634819Y-68273809D02*
X60634819Y-68273809D01*
X60634819Y-68273809D02*
X60777676Y-68369047D01*
X60777676Y-68369047D02*
X60872914Y-68464285D01*
X60872914Y-68464285D02*
X60920533Y-68559523D01*
X58738095Y-59756819D02*
X59309523Y-59756819D01*
X59023809Y-60756819D02*
X59023809Y-59756819D01*
X59642857Y-60756819D02*
X59642857Y-59756819D01*
X59642857Y-59756819D02*
X60023809Y-59756819D01*
X60023809Y-59756819D02*
X60119047Y-59804438D01*
X60119047Y-59804438D02*
X60166666Y-59852057D01*
X60166666Y-59852057D02*
X60214285Y-59947295D01*
X60214285Y-59947295D02*
X60214285Y-60090152D01*
X60214285Y-60090152D02*
X60166666Y-60185390D01*
X60166666Y-60185390D02*
X60119047Y-60233009D01*
X60119047Y-60233009D02*
X60023809Y-60280628D01*
X60023809Y-60280628D02*
X59642857Y-60280628D01*
X60785714Y-60185390D02*
X60690476Y-60137771D01*
X60690476Y-60137771D02*
X60642857Y-60090152D01*
X60642857Y-60090152D02*
X60595238Y-59994914D01*
X60595238Y-59994914D02*
X60595238Y-59947295D01*
X60595238Y-59947295D02*
X60642857Y-59852057D01*
X60642857Y-59852057D02*
X60690476Y-59804438D01*
X60690476Y-59804438D02*
X60785714Y-59756819D01*
X60785714Y-59756819D02*
X60976190Y-59756819D01*
X60976190Y-59756819D02*
X61071428Y-59804438D01*
X61071428Y-59804438D02*
X61119047Y-59852057D01*
X61119047Y-59852057D02*
X61166666Y-59947295D01*
X61166666Y-59947295D02*
X61166666Y-59994914D01*
X61166666Y-59994914D02*
X61119047Y-60090152D01*
X61119047Y-60090152D02*
X61071428Y-60137771D01*
X61071428Y-60137771D02*
X60976190Y-60185390D01*
X60976190Y-60185390D02*
X60785714Y-60185390D01*
X60785714Y-60185390D02*
X60690476Y-60233009D01*
X60690476Y-60233009D02*
X60642857Y-60280628D01*
X60642857Y-60280628D02*
X60595238Y-60375866D01*
X60595238Y-60375866D02*
X60595238Y-60566342D01*
X60595238Y-60566342D02*
X60642857Y-60661580D01*
X60642857Y-60661580D02*
X60690476Y-60709200D01*
X60690476Y-60709200D02*
X60785714Y-60756819D01*
X60785714Y-60756819D02*
X60976190Y-60756819D01*
X60976190Y-60756819D02*
X61071428Y-60709200D01*
X61071428Y-60709200D02*
X61119047Y-60661580D01*
X61119047Y-60661580D02*
X61166666Y-60566342D01*
X61166666Y-60566342D02*
X61166666Y-60375866D01*
X61166666Y-60375866D02*
X61119047Y-60280628D01*
X61119047Y-60280628D02*
X61071428Y-60233009D01*
X61071428Y-60233009D02*
X60976190Y-60185390D01*
X73454819Y-101416666D02*
X72978628Y-101749999D01*
X73454819Y-101988094D02*
X72454819Y-101988094D01*
X72454819Y-101988094D02*
X72454819Y-101607142D01*
X72454819Y-101607142D02*
X72502438Y-101511904D01*
X72502438Y-101511904D02*
X72550057Y-101464285D01*
X72550057Y-101464285D02*
X72645295Y-101416666D01*
X72645295Y-101416666D02*
X72788152Y-101416666D01*
X72788152Y-101416666D02*
X72883390Y-101464285D01*
X72883390Y-101464285D02*
X72931009Y-101511904D01*
X72931009Y-101511904D02*
X72978628Y-101607142D01*
X72978628Y-101607142D02*
X72978628Y-101988094D01*
X72454819Y-101083332D02*
X72454819Y-100464285D01*
X72454819Y-100464285D02*
X72835771Y-100797618D01*
X72835771Y-100797618D02*
X72835771Y-100654761D01*
X72835771Y-100654761D02*
X72883390Y-100559523D01*
X72883390Y-100559523D02*
X72931009Y-100511904D01*
X72931009Y-100511904D02*
X73026247Y-100464285D01*
X73026247Y-100464285D02*
X73264342Y-100464285D01*
X73264342Y-100464285D02*
X73359580Y-100511904D01*
X73359580Y-100511904D02*
X73407200Y-100559523D01*
X73407200Y-100559523D02*
X73454819Y-100654761D01*
X73454819Y-100654761D02*
X73454819Y-100940475D01*
X73454819Y-100940475D02*
X73407200Y-101035713D01*
X73407200Y-101035713D02*
X73359580Y-101083332D01*
X77207200Y-73603332D02*
X77254819Y-73460475D01*
X77254819Y-73460475D02*
X77254819Y-73222380D01*
X77254819Y-73222380D02*
X77207200Y-73127142D01*
X77207200Y-73127142D02*
X77159580Y-73079523D01*
X77159580Y-73079523D02*
X77064342Y-73031904D01*
X77064342Y-73031904D02*
X76969104Y-73031904D01*
X76969104Y-73031904D02*
X76873866Y-73079523D01*
X76873866Y-73079523D02*
X76826247Y-73127142D01*
X76826247Y-73127142D02*
X76778628Y-73222380D01*
X76778628Y-73222380D02*
X76731009Y-73412856D01*
X76731009Y-73412856D02*
X76683390Y-73508094D01*
X76683390Y-73508094D02*
X76635771Y-73555713D01*
X76635771Y-73555713D02*
X76540533Y-73603332D01*
X76540533Y-73603332D02*
X76445295Y-73603332D01*
X76445295Y-73603332D02*
X76350057Y-73555713D01*
X76350057Y-73555713D02*
X76302438Y-73508094D01*
X76302438Y-73508094D02*
X76254819Y-73412856D01*
X76254819Y-73412856D02*
X76254819Y-73174761D01*
X76254819Y-73174761D02*
X76302438Y-73031904D01*
X76254819Y-72698570D02*
X77254819Y-72460475D01*
X77254819Y-72460475D02*
X76540533Y-72269999D01*
X76540533Y-72269999D02*
X77254819Y-72079523D01*
X77254819Y-72079523D02*
X76254819Y-71841428D01*
X77254819Y-70936666D02*
X77254819Y-71508094D01*
X77254819Y-71222380D02*
X76254819Y-71222380D01*
X76254819Y-71222380D02*
X76397676Y-71317618D01*
X76397676Y-71317618D02*
X76492914Y-71412856D01*
X76492914Y-71412856D02*
X76540533Y-71508094D01*
X63033333Y-96359580D02*
X62985714Y-96407200D01*
X62985714Y-96407200D02*
X62842857Y-96454819D01*
X62842857Y-96454819D02*
X62747619Y-96454819D01*
X62747619Y-96454819D02*
X62604762Y-96407200D01*
X62604762Y-96407200D02*
X62509524Y-96311961D01*
X62509524Y-96311961D02*
X62461905Y-96216723D01*
X62461905Y-96216723D02*
X62414286Y-96026247D01*
X62414286Y-96026247D02*
X62414286Y-95883390D01*
X62414286Y-95883390D02*
X62461905Y-95692914D01*
X62461905Y-95692914D02*
X62509524Y-95597676D01*
X62509524Y-95597676D02*
X62604762Y-95502438D01*
X62604762Y-95502438D02*
X62747619Y-95454819D01*
X62747619Y-95454819D02*
X62842857Y-95454819D01*
X62842857Y-95454819D02*
X62985714Y-95502438D01*
X62985714Y-95502438D02*
X63033333Y-95550057D01*
X63985714Y-96454819D02*
X63414286Y-96454819D01*
X63700000Y-96454819D02*
X63700000Y-95454819D01*
X63700000Y-95454819D02*
X63604762Y-95597676D01*
X63604762Y-95597676D02*
X63509524Y-95692914D01*
X63509524Y-95692914D02*
X63414286Y-95740533D01*
X53357142Y-92704819D02*
X53023809Y-92228628D01*
X52785714Y-92704819D02*
X52785714Y-91704819D01*
X52785714Y-91704819D02*
X53166666Y-91704819D01*
X53166666Y-91704819D02*
X53261904Y-91752438D01*
X53261904Y-91752438D02*
X53309523Y-91800057D01*
X53309523Y-91800057D02*
X53357142Y-91895295D01*
X53357142Y-91895295D02*
X53357142Y-92038152D01*
X53357142Y-92038152D02*
X53309523Y-92133390D01*
X53309523Y-92133390D02*
X53261904Y-92181009D01*
X53261904Y-92181009D02*
X53166666Y-92228628D01*
X53166666Y-92228628D02*
X52785714Y-92228628D01*
X53738095Y-91800057D02*
X53785714Y-91752438D01*
X53785714Y-91752438D02*
X53880952Y-91704819D01*
X53880952Y-91704819D02*
X54119047Y-91704819D01*
X54119047Y-91704819D02*
X54214285Y-91752438D01*
X54214285Y-91752438D02*
X54261904Y-91800057D01*
X54261904Y-91800057D02*
X54309523Y-91895295D01*
X54309523Y-91895295D02*
X54309523Y-91990533D01*
X54309523Y-91990533D02*
X54261904Y-92133390D01*
X54261904Y-92133390D02*
X53690476Y-92704819D01*
X53690476Y-92704819D02*
X54309523Y-92704819D01*
X54880952Y-92133390D02*
X54785714Y-92085771D01*
X54785714Y-92085771D02*
X54738095Y-92038152D01*
X54738095Y-92038152D02*
X54690476Y-91942914D01*
X54690476Y-91942914D02*
X54690476Y-91895295D01*
X54690476Y-91895295D02*
X54738095Y-91800057D01*
X54738095Y-91800057D02*
X54785714Y-91752438D01*
X54785714Y-91752438D02*
X54880952Y-91704819D01*
X54880952Y-91704819D02*
X55071428Y-91704819D01*
X55071428Y-91704819D02*
X55166666Y-91752438D01*
X55166666Y-91752438D02*
X55214285Y-91800057D01*
X55214285Y-91800057D02*
X55261904Y-91895295D01*
X55261904Y-91895295D02*
X55261904Y-91942914D01*
X55261904Y-91942914D02*
X55214285Y-92038152D01*
X55214285Y-92038152D02*
X55166666Y-92085771D01*
X55166666Y-92085771D02*
X55071428Y-92133390D01*
X55071428Y-92133390D02*
X54880952Y-92133390D01*
X54880952Y-92133390D02*
X54785714Y-92181009D01*
X54785714Y-92181009D02*
X54738095Y-92228628D01*
X54738095Y-92228628D02*
X54690476Y-92323866D01*
X54690476Y-92323866D02*
X54690476Y-92514342D01*
X54690476Y-92514342D02*
X54738095Y-92609580D01*
X54738095Y-92609580D02*
X54785714Y-92657200D01*
X54785714Y-92657200D02*
X54880952Y-92704819D01*
X54880952Y-92704819D02*
X55071428Y-92704819D01*
X55071428Y-92704819D02*
X55166666Y-92657200D01*
X55166666Y-92657200D02*
X55214285Y-92609580D01*
X55214285Y-92609580D02*
X55261904Y-92514342D01*
X55261904Y-92514342D02*
X55261904Y-92323866D01*
X55261904Y-92323866D02*
X55214285Y-92228628D01*
X55214285Y-92228628D02*
X55166666Y-92181009D01*
X55166666Y-92181009D02*
X55071428Y-92133390D01*
X42279819Y-89983333D02*
X42994104Y-89983333D01*
X42994104Y-89983333D02*
X43136961Y-90030952D01*
X43136961Y-90030952D02*
X43232200Y-90126190D01*
X43232200Y-90126190D02*
X43279819Y-90269047D01*
X43279819Y-90269047D02*
X43279819Y-90364285D01*
X43279819Y-88983333D02*
X43279819Y-89554761D01*
X43279819Y-89269047D02*
X42279819Y-89269047D01*
X42279819Y-89269047D02*
X42422676Y-89364285D01*
X42422676Y-89364285D02*
X42517914Y-89459523D01*
X42517914Y-89459523D02*
X42565533Y-89554761D01*
X95404761Y-99150057D02*
X95309523Y-99102438D01*
X95309523Y-99102438D02*
X95214285Y-99007200D01*
X95214285Y-99007200D02*
X95071428Y-98864342D01*
X95071428Y-98864342D02*
X94976190Y-98816723D01*
X94976190Y-98816723D02*
X94880952Y-98816723D01*
X94928571Y-99054819D02*
X94833333Y-99007200D01*
X94833333Y-99007200D02*
X94738095Y-98911961D01*
X94738095Y-98911961D02*
X94690476Y-98721485D01*
X94690476Y-98721485D02*
X94690476Y-98388152D01*
X94690476Y-98388152D02*
X94738095Y-98197676D01*
X94738095Y-98197676D02*
X94833333Y-98102438D01*
X94833333Y-98102438D02*
X94928571Y-98054819D01*
X94928571Y-98054819D02*
X95119047Y-98054819D01*
X95119047Y-98054819D02*
X95214285Y-98102438D01*
X95214285Y-98102438D02*
X95309523Y-98197676D01*
X95309523Y-98197676D02*
X95357142Y-98388152D01*
X95357142Y-98388152D02*
X95357142Y-98721485D01*
X95357142Y-98721485D02*
X95309523Y-98911961D01*
X95309523Y-98911961D02*
X95214285Y-99007200D01*
X95214285Y-99007200D02*
X95119047Y-99054819D01*
X95119047Y-99054819D02*
X94928571Y-99054819D01*
X95690476Y-98054819D02*
X96309523Y-98054819D01*
X96309523Y-98054819D02*
X95976190Y-98435771D01*
X95976190Y-98435771D02*
X96119047Y-98435771D01*
X96119047Y-98435771D02*
X96214285Y-98483390D01*
X96214285Y-98483390D02*
X96261904Y-98531009D01*
X96261904Y-98531009D02*
X96309523Y-98626247D01*
X96309523Y-98626247D02*
X96309523Y-98864342D01*
X96309523Y-98864342D02*
X96261904Y-98959580D01*
X96261904Y-98959580D02*
X96214285Y-99007200D01*
X96214285Y-99007200D02*
X96119047Y-99054819D01*
X96119047Y-99054819D02*
X95833333Y-99054819D01*
X95833333Y-99054819D02*
X95738095Y-99007200D01*
X95738095Y-99007200D02*
X95690476Y-98959580D01*
X53357142Y-99104819D02*
X53023809Y-98628628D01*
X52785714Y-99104819D02*
X52785714Y-98104819D01*
X52785714Y-98104819D02*
X53166666Y-98104819D01*
X53166666Y-98104819D02*
X53261904Y-98152438D01*
X53261904Y-98152438D02*
X53309523Y-98200057D01*
X53309523Y-98200057D02*
X53357142Y-98295295D01*
X53357142Y-98295295D02*
X53357142Y-98438152D01*
X53357142Y-98438152D02*
X53309523Y-98533390D01*
X53309523Y-98533390D02*
X53261904Y-98581009D01*
X53261904Y-98581009D02*
X53166666Y-98628628D01*
X53166666Y-98628628D02*
X52785714Y-98628628D01*
X53738095Y-98200057D02*
X53785714Y-98152438D01*
X53785714Y-98152438D02*
X53880952Y-98104819D01*
X53880952Y-98104819D02*
X54119047Y-98104819D01*
X54119047Y-98104819D02*
X54214285Y-98152438D01*
X54214285Y-98152438D02*
X54261904Y-98200057D01*
X54261904Y-98200057D02*
X54309523Y-98295295D01*
X54309523Y-98295295D02*
X54309523Y-98390533D01*
X54309523Y-98390533D02*
X54261904Y-98533390D01*
X54261904Y-98533390D02*
X53690476Y-99104819D01*
X53690476Y-99104819D02*
X54309523Y-99104819D01*
X54785714Y-99104819D02*
X54976190Y-99104819D01*
X54976190Y-99104819D02*
X55071428Y-99057200D01*
X55071428Y-99057200D02*
X55119047Y-99009580D01*
X55119047Y-99009580D02*
X55214285Y-98866723D01*
X55214285Y-98866723D02*
X55261904Y-98676247D01*
X55261904Y-98676247D02*
X55261904Y-98295295D01*
X55261904Y-98295295D02*
X55214285Y-98200057D01*
X55214285Y-98200057D02*
X55166666Y-98152438D01*
X55166666Y-98152438D02*
X55071428Y-98104819D01*
X55071428Y-98104819D02*
X54880952Y-98104819D01*
X54880952Y-98104819D02*
X54785714Y-98152438D01*
X54785714Y-98152438D02*
X54738095Y-98200057D01*
X54738095Y-98200057D02*
X54690476Y-98295295D01*
X54690476Y-98295295D02*
X54690476Y-98533390D01*
X54690476Y-98533390D02*
X54738095Y-98628628D01*
X54738095Y-98628628D02*
X54785714Y-98676247D01*
X54785714Y-98676247D02*
X54880952Y-98723866D01*
X54880952Y-98723866D02*
X55071428Y-98723866D01*
X55071428Y-98723866D02*
X55166666Y-98676247D01*
X55166666Y-98676247D02*
X55214285Y-98628628D01*
X55214285Y-98628628D02*
X55261904Y-98533390D01*
X71488095Y-111204819D02*
X71488095Y-112014342D01*
X71488095Y-112014342D02*
X71535714Y-112109580D01*
X71535714Y-112109580D02*
X71583333Y-112157200D01*
X71583333Y-112157200D02*
X71678571Y-112204819D01*
X71678571Y-112204819D02*
X71869047Y-112204819D01*
X71869047Y-112204819D02*
X71964285Y-112157200D01*
X71964285Y-112157200D02*
X72011904Y-112109580D01*
X72011904Y-112109580D02*
X72059523Y-112014342D01*
X72059523Y-112014342D02*
X72059523Y-111204819D01*
X72964285Y-111204819D02*
X72773809Y-111204819D01*
X72773809Y-111204819D02*
X72678571Y-111252438D01*
X72678571Y-111252438D02*
X72630952Y-111300057D01*
X72630952Y-111300057D02*
X72535714Y-111442914D01*
X72535714Y-111442914D02*
X72488095Y-111633390D01*
X72488095Y-111633390D02*
X72488095Y-112014342D01*
X72488095Y-112014342D02*
X72535714Y-112109580D01*
X72535714Y-112109580D02*
X72583333Y-112157200D01*
X72583333Y-112157200D02*
X72678571Y-112204819D01*
X72678571Y-112204819D02*
X72869047Y-112204819D01*
X72869047Y-112204819D02*
X72964285Y-112157200D01*
X72964285Y-112157200D02*
X73011904Y-112109580D01*
X73011904Y-112109580D02*
X73059523Y-112014342D01*
X73059523Y-112014342D02*
X73059523Y-111776247D01*
X73059523Y-111776247D02*
X73011904Y-111681009D01*
X73011904Y-111681009D02*
X72964285Y-111633390D01*
X72964285Y-111633390D02*
X72869047Y-111585771D01*
X72869047Y-111585771D02*
X72678571Y-111585771D01*
X72678571Y-111585771D02*
X72583333Y-111633390D01*
X72583333Y-111633390D02*
X72535714Y-111681009D01*
X72535714Y-111681009D02*
X72488095Y-111776247D01*
X76083333Y-62384819D02*
X75607143Y-62384819D01*
X75607143Y-62384819D02*
X75607143Y-61384819D01*
X76321429Y-61384819D02*
X76940476Y-61384819D01*
X76940476Y-61384819D02*
X76607143Y-61765771D01*
X76607143Y-61765771D02*
X76750000Y-61765771D01*
X76750000Y-61765771D02*
X76845238Y-61813390D01*
X76845238Y-61813390D02*
X76892857Y-61861009D01*
X76892857Y-61861009D02*
X76940476Y-61956247D01*
X76940476Y-61956247D02*
X76940476Y-62194342D01*
X76940476Y-62194342D02*
X76892857Y-62289580D01*
X76892857Y-62289580D02*
X76845238Y-62337200D01*
X76845238Y-62337200D02*
X76750000Y-62384819D01*
X76750000Y-62384819D02*
X76464286Y-62384819D01*
X76464286Y-62384819D02*
X76369048Y-62337200D01*
X76369048Y-62337200D02*
X76321429Y-62289580D01*
X50704819Y-100666666D02*
X50228628Y-100999999D01*
X50704819Y-101238094D02*
X49704819Y-101238094D01*
X49704819Y-101238094D02*
X49704819Y-100857142D01*
X49704819Y-100857142D02*
X49752438Y-100761904D01*
X49752438Y-100761904D02*
X49800057Y-100714285D01*
X49800057Y-100714285D02*
X49895295Y-100666666D01*
X49895295Y-100666666D02*
X50038152Y-100666666D01*
X50038152Y-100666666D02*
X50133390Y-100714285D01*
X50133390Y-100714285D02*
X50181009Y-100761904D01*
X50181009Y-100761904D02*
X50228628Y-100857142D01*
X50228628Y-100857142D02*
X50228628Y-101238094D01*
X49704819Y-99761904D02*
X49704819Y-100238094D01*
X49704819Y-100238094D02*
X50181009Y-100285713D01*
X50181009Y-100285713D02*
X50133390Y-100238094D01*
X50133390Y-100238094D02*
X50085771Y-100142856D01*
X50085771Y-100142856D02*
X50085771Y-99904761D01*
X50085771Y-99904761D02*
X50133390Y-99809523D01*
X50133390Y-99809523D02*
X50181009Y-99761904D01*
X50181009Y-99761904D02*
X50276247Y-99714285D01*
X50276247Y-99714285D02*
X50514342Y-99714285D01*
X50514342Y-99714285D02*
X50609580Y-99761904D01*
X50609580Y-99761904D02*
X50657200Y-99809523D01*
X50657200Y-99809523D02*
X50704819Y-99904761D01*
X50704819Y-99904761D02*
X50704819Y-100142856D01*
X50704819Y-100142856D02*
X50657200Y-100238094D01*
X50657200Y-100238094D02*
X50609580Y-100285713D01*
X65833333Y-66304819D02*
X65500000Y-65828628D01*
X65261905Y-66304819D02*
X65261905Y-65304819D01*
X65261905Y-65304819D02*
X65642857Y-65304819D01*
X65642857Y-65304819D02*
X65738095Y-65352438D01*
X65738095Y-65352438D02*
X65785714Y-65400057D01*
X65785714Y-65400057D02*
X65833333Y-65495295D01*
X65833333Y-65495295D02*
X65833333Y-65638152D01*
X65833333Y-65638152D02*
X65785714Y-65733390D01*
X65785714Y-65733390D02*
X65738095Y-65781009D01*
X65738095Y-65781009D02*
X65642857Y-65828628D01*
X65642857Y-65828628D02*
X65261905Y-65828628D01*
X66785714Y-66304819D02*
X66214286Y-66304819D01*
X66500000Y-66304819D02*
X66500000Y-65304819D01*
X66500000Y-65304819D02*
X66404762Y-65447676D01*
X66404762Y-65447676D02*
X66309524Y-65542914D01*
X66309524Y-65542914D02*
X66214286Y-65590533D01*
X75109580Y-111916666D02*
X75157200Y-111964285D01*
X75157200Y-111964285D02*
X75204819Y-112107142D01*
X75204819Y-112107142D02*
X75204819Y-112202380D01*
X75204819Y-112202380D02*
X75157200Y-112345237D01*
X75157200Y-112345237D02*
X75061961Y-112440475D01*
X75061961Y-112440475D02*
X74966723Y-112488094D01*
X74966723Y-112488094D02*
X74776247Y-112535713D01*
X74776247Y-112535713D02*
X74633390Y-112535713D01*
X74633390Y-112535713D02*
X74442914Y-112488094D01*
X74442914Y-112488094D02*
X74347676Y-112440475D01*
X74347676Y-112440475D02*
X74252438Y-112345237D01*
X74252438Y-112345237D02*
X74204819Y-112202380D01*
X74204819Y-112202380D02*
X74204819Y-112107142D01*
X74204819Y-112107142D02*
X74252438Y-111964285D01*
X74252438Y-111964285D02*
X74300057Y-111916666D01*
X74204819Y-111583332D02*
X74204819Y-110916666D01*
X74204819Y-110916666D02*
X75204819Y-111345237D01*
X71484819Y-87181904D02*
X72294342Y-87181904D01*
X72294342Y-87181904D02*
X72389580Y-87134285D01*
X72389580Y-87134285D02*
X72437200Y-87086666D01*
X72437200Y-87086666D02*
X72484819Y-86991428D01*
X72484819Y-86991428D02*
X72484819Y-86800952D01*
X72484819Y-86800952D02*
X72437200Y-86705714D01*
X72437200Y-86705714D02*
X72389580Y-86658095D01*
X72389580Y-86658095D02*
X72294342Y-86610476D01*
X72294342Y-86610476D02*
X71484819Y-86610476D01*
X71484819Y-86229523D02*
X71484819Y-85610476D01*
X71484819Y-85610476D02*
X71865771Y-85943809D01*
X71865771Y-85943809D02*
X71865771Y-85800952D01*
X71865771Y-85800952D02*
X71913390Y-85705714D01*
X71913390Y-85705714D02*
X71961009Y-85658095D01*
X71961009Y-85658095D02*
X72056247Y-85610476D01*
X72056247Y-85610476D02*
X72294342Y-85610476D01*
X72294342Y-85610476D02*
X72389580Y-85658095D01*
X72389580Y-85658095D02*
X72437200Y-85705714D01*
X72437200Y-85705714D02*
X72484819Y-85800952D01*
X72484819Y-85800952D02*
X72484819Y-86086666D01*
X72484819Y-86086666D02*
X72437200Y-86181904D01*
X72437200Y-86181904D02*
X72389580Y-86229523D01*
X44304819Y-75666666D02*
X43828628Y-75999999D01*
X44304819Y-76238094D02*
X43304819Y-76238094D01*
X43304819Y-76238094D02*
X43304819Y-75857142D01*
X43304819Y-75857142D02*
X43352438Y-75761904D01*
X43352438Y-75761904D02*
X43400057Y-75714285D01*
X43400057Y-75714285D02*
X43495295Y-75666666D01*
X43495295Y-75666666D02*
X43638152Y-75666666D01*
X43638152Y-75666666D02*
X43733390Y-75714285D01*
X43733390Y-75714285D02*
X43781009Y-75761904D01*
X43781009Y-75761904D02*
X43828628Y-75857142D01*
X43828628Y-75857142D02*
X43828628Y-76238094D01*
X43304819Y-75333332D02*
X43304819Y-74666666D01*
X43304819Y-74666666D02*
X44304819Y-75095237D01*
X37191666Y-72654819D02*
X37191666Y-73369104D01*
X37191666Y-73369104D02*
X37144047Y-73511961D01*
X37144047Y-73511961D02*
X37048809Y-73607200D01*
X37048809Y-73607200D02*
X36905952Y-73654819D01*
X36905952Y-73654819D02*
X36810714Y-73654819D01*
X38096428Y-72988152D02*
X38096428Y-73654819D01*
X37858333Y-72607200D02*
X37620238Y-73321485D01*
X37620238Y-73321485D02*
X38239285Y-73321485D01*
X65583333Y-92109580D02*
X65535714Y-92157200D01*
X65535714Y-92157200D02*
X65392857Y-92204819D01*
X65392857Y-92204819D02*
X65297619Y-92204819D01*
X65297619Y-92204819D02*
X65154762Y-92157200D01*
X65154762Y-92157200D02*
X65059524Y-92061961D01*
X65059524Y-92061961D02*
X65011905Y-91966723D01*
X65011905Y-91966723D02*
X64964286Y-91776247D01*
X64964286Y-91776247D02*
X64964286Y-91633390D01*
X64964286Y-91633390D02*
X65011905Y-91442914D01*
X65011905Y-91442914D02*
X65059524Y-91347676D01*
X65059524Y-91347676D02*
X65154762Y-91252438D01*
X65154762Y-91252438D02*
X65297619Y-91204819D01*
X65297619Y-91204819D02*
X65392857Y-91204819D01*
X65392857Y-91204819D02*
X65535714Y-91252438D01*
X65535714Y-91252438D02*
X65583333Y-91300057D01*
X65916667Y-91204819D02*
X66535714Y-91204819D01*
X66535714Y-91204819D02*
X66202381Y-91585771D01*
X66202381Y-91585771D02*
X66345238Y-91585771D01*
X66345238Y-91585771D02*
X66440476Y-91633390D01*
X66440476Y-91633390D02*
X66488095Y-91681009D01*
X66488095Y-91681009D02*
X66535714Y-91776247D01*
X66535714Y-91776247D02*
X66535714Y-92014342D01*
X66535714Y-92014342D02*
X66488095Y-92109580D01*
X66488095Y-92109580D02*
X66440476Y-92157200D01*
X66440476Y-92157200D02*
X66345238Y-92204819D01*
X66345238Y-92204819D02*
X66059524Y-92204819D01*
X66059524Y-92204819D02*
X65964286Y-92157200D01*
X65964286Y-92157200D02*
X65916667Y-92109580D01*
X73333333Y-80954819D02*
X73000000Y-80478628D01*
X72761905Y-80954819D02*
X72761905Y-79954819D01*
X72761905Y-79954819D02*
X73142857Y-79954819D01*
X73142857Y-79954819D02*
X73238095Y-80002438D01*
X73238095Y-80002438D02*
X73285714Y-80050057D01*
X73285714Y-80050057D02*
X73333333Y-80145295D01*
X73333333Y-80145295D02*
X73333333Y-80288152D01*
X73333333Y-80288152D02*
X73285714Y-80383390D01*
X73285714Y-80383390D02*
X73238095Y-80431009D01*
X73238095Y-80431009D02*
X73142857Y-80478628D01*
X73142857Y-80478628D02*
X72761905Y-80478628D01*
X73809524Y-80954819D02*
X74000000Y-80954819D01*
X74000000Y-80954819D02*
X74095238Y-80907200D01*
X74095238Y-80907200D02*
X74142857Y-80859580D01*
X74142857Y-80859580D02*
X74238095Y-80716723D01*
X74238095Y-80716723D02*
X74285714Y-80526247D01*
X74285714Y-80526247D02*
X74285714Y-80145295D01*
X74285714Y-80145295D02*
X74238095Y-80050057D01*
X74238095Y-80050057D02*
X74190476Y-80002438D01*
X74190476Y-80002438D02*
X74095238Y-79954819D01*
X74095238Y-79954819D02*
X73904762Y-79954819D01*
X73904762Y-79954819D02*
X73809524Y-80002438D01*
X73809524Y-80002438D02*
X73761905Y-80050057D01*
X73761905Y-80050057D02*
X73714286Y-80145295D01*
X73714286Y-80145295D02*
X73714286Y-80383390D01*
X73714286Y-80383390D02*
X73761905Y-80478628D01*
X73761905Y-80478628D02*
X73809524Y-80526247D01*
X73809524Y-80526247D02*
X73904762Y-80573866D01*
X73904762Y-80573866D02*
X74095238Y-80573866D01*
X74095238Y-80573866D02*
X74190476Y-80526247D01*
X74190476Y-80526247D02*
X74238095Y-80478628D01*
X74238095Y-80478628D02*
X74285714Y-80383390D01*
X70609580Y-86942857D02*
X70657200Y-86990476D01*
X70657200Y-86990476D02*
X70704819Y-87133333D01*
X70704819Y-87133333D02*
X70704819Y-87228571D01*
X70704819Y-87228571D02*
X70657200Y-87371428D01*
X70657200Y-87371428D02*
X70561961Y-87466666D01*
X70561961Y-87466666D02*
X70466723Y-87514285D01*
X70466723Y-87514285D02*
X70276247Y-87561904D01*
X70276247Y-87561904D02*
X70133390Y-87561904D01*
X70133390Y-87561904D02*
X69942914Y-87514285D01*
X69942914Y-87514285D02*
X69847676Y-87466666D01*
X69847676Y-87466666D02*
X69752438Y-87371428D01*
X69752438Y-87371428D02*
X69704819Y-87228571D01*
X69704819Y-87228571D02*
X69704819Y-87133333D01*
X69704819Y-87133333D02*
X69752438Y-86990476D01*
X69752438Y-86990476D02*
X69800057Y-86942857D01*
X70704819Y-85990476D02*
X70704819Y-86561904D01*
X70704819Y-86276190D02*
X69704819Y-86276190D01*
X69704819Y-86276190D02*
X69847676Y-86371428D01*
X69847676Y-86371428D02*
X69942914Y-86466666D01*
X69942914Y-86466666D02*
X69990533Y-86561904D01*
X70038152Y-85133333D02*
X70704819Y-85133333D01*
X69657200Y-85371428D02*
X70371485Y-85609523D01*
X70371485Y-85609523D02*
X70371485Y-84990476D01*
X60868095Y-79784819D02*
X60868095Y-80594342D01*
X60868095Y-80594342D02*
X60915714Y-80689580D01*
X60915714Y-80689580D02*
X60963333Y-80737200D01*
X60963333Y-80737200D02*
X61058571Y-80784819D01*
X61058571Y-80784819D02*
X61249047Y-80784819D01*
X61249047Y-80784819D02*
X61344285Y-80737200D01*
X61344285Y-80737200D02*
X61391904Y-80689580D01*
X61391904Y-80689580D02*
X61439523Y-80594342D01*
X61439523Y-80594342D02*
X61439523Y-79784819D01*
X62439523Y-80784819D02*
X61868095Y-80784819D01*
X62153809Y-80784819D02*
X62153809Y-79784819D01*
X62153809Y-79784819D02*
X62058571Y-79927676D01*
X62058571Y-79927676D02*
X61963333Y-80022914D01*
X61963333Y-80022914D02*
X61868095Y-80070533D01*
X73609580Y-92892857D02*
X73657200Y-92940476D01*
X73657200Y-92940476D02*
X73704819Y-93083333D01*
X73704819Y-93083333D02*
X73704819Y-93178571D01*
X73704819Y-93178571D02*
X73657200Y-93321428D01*
X73657200Y-93321428D02*
X73561961Y-93416666D01*
X73561961Y-93416666D02*
X73466723Y-93464285D01*
X73466723Y-93464285D02*
X73276247Y-93511904D01*
X73276247Y-93511904D02*
X73133390Y-93511904D01*
X73133390Y-93511904D02*
X72942914Y-93464285D01*
X72942914Y-93464285D02*
X72847676Y-93416666D01*
X72847676Y-93416666D02*
X72752438Y-93321428D01*
X72752438Y-93321428D02*
X72704819Y-93178571D01*
X72704819Y-93178571D02*
X72704819Y-93083333D01*
X72704819Y-93083333D02*
X72752438Y-92940476D01*
X72752438Y-92940476D02*
X72800057Y-92892857D01*
X72800057Y-92511904D02*
X72752438Y-92464285D01*
X72752438Y-92464285D02*
X72704819Y-92369047D01*
X72704819Y-92369047D02*
X72704819Y-92130952D01*
X72704819Y-92130952D02*
X72752438Y-92035714D01*
X72752438Y-92035714D02*
X72800057Y-91988095D01*
X72800057Y-91988095D02*
X72895295Y-91940476D01*
X72895295Y-91940476D02*
X72990533Y-91940476D01*
X72990533Y-91940476D02*
X73133390Y-91988095D01*
X73133390Y-91988095D02*
X73704819Y-92559523D01*
X73704819Y-92559523D02*
X73704819Y-91940476D01*
X73704819Y-91464285D02*
X73704819Y-91273809D01*
X73704819Y-91273809D02*
X73657200Y-91178571D01*
X73657200Y-91178571D02*
X73609580Y-91130952D01*
X73609580Y-91130952D02*
X73466723Y-91035714D01*
X73466723Y-91035714D02*
X73276247Y-90988095D01*
X73276247Y-90988095D02*
X72895295Y-90988095D01*
X72895295Y-90988095D02*
X72800057Y-91035714D01*
X72800057Y-91035714D02*
X72752438Y-91083333D01*
X72752438Y-91083333D02*
X72704819Y-91178571D01*
X72704819Y-91178571D02*
X72704819Y-91369047D01*
X72704819Y-91369047D02*
X72752438Y-91464285D01*
X72752438Y-91464285D02*
X72800057Y-91511904D01*
X72800057Y-91511904D02*
X72895295Y-91559523D01*
X72895295Y-91559523D02*
X73133390Y-91559523D01*
X73133390Y-91559523D02*
X73228628Y-91511904D01*
X73228628Y-91511904D02*
X73276247Y-91464285D01*
X73276247Y-91464285D02*
X73323866Y-91369047D01*
X73323866Y-91369047D02*
X73323866Y-91178571D01*
X73323866Y-91178571D02*
X73276247Y-91083333D01*
X73276247Y-91083333D02*
X73228628Y-91035714D01*
X73228628Y-91035714D02*
X73133390Y-90988095D01*
X69109580Y-71392857D02*
X69157200Y-71440476D01*
X69157200Y-71440476D02*
X69204819Y-71583333D01*
X69204819Y-71583333D02*
X69204819Y-71678571D01*
X69204819Y-71678571D02*
X69157200Y-71821428D01*
X69157200Y-71821428D02*
X69061961Y-71916666D01*
X69061961Y-71916666D02*
X68966723Y-71964285D01*
X68966723Y-71964285D02*
X68776247Y-72011904D01*
X68776247Y-72011904D02*
X68633390Y-72011904D01*
X68633390Y-72011904D02*
X68442914Y-71964285D01*
X68442914Y-71964285D02*
X68347676Y-71916666D01*
X68347676Y-71916666D02*
X68252438Y-71821428D01*
X68252438Y-71821428D02*
X68204819Y-71678571D01*
X68204819Y-71678571D02*
X68204819Y-71583333D01*
X68204819Y-71583333D02*
X68252438Y-71440476D01*
X68252438Y-71440476D02*
X68300057Y-71392857D01*
X69204819Y-70440476D02*
X69204819Y-71011904D01*
X69204819Y-70726190D02*
X68204819Y-70726190D01*
X68204819Y-70726190D02*
X68347676Y-70821428D01*
X68347676Y-70821428D02*
X68442914Y-70916666D01*
X68442914Y-70916666D02*
X68490533Y-71011904D01*
X68204819Y-69821428D02*
X68204819Y-69726190D01*
X68204819Y-69726190D02*
X68252438Y-69630952D01*
X68252438Y-69630952D02*
X68300057Y-69583333D01*
X68300057Y-69583333D02*
X68395295Y-69535714D01*
X68395295Y-69535714D02*
X68585771Y-69488095D01*
X68585771Y-69488095D02*
X68823866Y-69488095D01*
X68823866Y-69488095D02*
X69014342Y-69535714D01*
X69014342Y-69535714D02*
X69109580Y-69583333D01*
X69109580Y-69583333D02*
X69157200Y-69630952D01*
X69157200Y-69630952D02*
X69204819Y-69726190D01*
X69204819Y-69726190D02*
X69204819Y-69821428D01*
X69204819Y-69821428D02*
X69157200Y-69916666D01*
X69157200Y-69916666D02*
X69109580Y-69964285D01*
X69109580Y-69964285D02*
X69014342Y-70011904D01*
X69014342Y-70011904D02*
X68823866Y-70059523D01*
X68823866Y-70059523D02*
X68585771Y-70059523D01*
X68585771Y-70059523D02*
X68395295Y-70011904D01*
X68395295Y-70011904D02*
X68300057Y-69964285D01*
X68300057Y-69964285D02*
X68252438Y-69916666D01*
X68252438Y-69916666D02*
X68204819Y-69821428D01*
X46761905Y-107804819D02*
X46761905Y-106804819D01*
X46761905Y-106804819D02*
X47000000Y-106804819D01*
X47000000Y-106804819D02*
X47142857Y-106852438D01*
X47142857Y-106852438D02*
X47238095Y-106947676D01*
X47238095Y-106947676D02*
X47285714Y-107042914D01*
X47285714Y-107042914D02*
X47333333Y-107233390D01*
X47333333Y-107233390D02*
X47333333Y-107376247D01*
X47333333Y-107376247D02*
X47285714Y-107566723D01*
X47285714Y-107566723D02*
X47238095Y-107661961D01*
X47238095Y-107661961D02*
X47142857Y-107757200D01*
X47142857Y-107757200D02*
X47000000Y-107804819D01*
X47000000Y-107804819D02*
X46761905Y-107804819D01*
X47714286Y-106900057D02*
X47761905Y-106852438D01*
X47761905Y-106852438D02*
X47857143Y-106804819D01*
X47857143Y-106804819D02*
X48095238Y-106804819D01*
X48095238Y-106804819D02*
X48190476Y-106852438D01*
X48190476Y-106852438D02*
X48238095Y-106900057D01*
X48238095Y-106900057D02*
X48285714Y-106995295D01*
X48285714Y-106995295D02*
X48285714Y-107090533D01*
X48285714Y-107090533D02*
X48238095Y-107233390D01*
X48238095Y-107233390D02*
X47666667Y-107804819D01*
X47666667Y-107804819D02*
X48285714Y-107804819D01*
X81549580Y-111966666D02*
X81597200Y-112014285D01*
X81597200Y-112014285D02*
X81644819Y-112157142D01*
X81644819Y-112157142D02*
X81644819Y-112252380D01*
X81644819Y-112252380D02*
X81597200Y-112395237D01*
X81597200Y-112395237D02*
X81501961Y-112490475D01*
X81501961Y-112490475D02*
X81406723Y-112538094D01*
X81406723Y-112538094D02*
X81216247Y-112585713D01*
X81216247Y-112585713D02*
X81073390Y-112585713D01*
X81073390Y-112585713D02*
X80882914Y-112538094D01*
X80882914Y-112538094D02*
X80787676Y-112490475D01*
X80787676Y-112490475D02*
X80692438Y-112395237D01*
X80692438Y-112395237D02*
X80644819Y-112252380D01*
X80644819Y-112252380D02*
X80644819Y-112157142D01*
X80644819Y-112157142D02*
X80692438Y-112014285D01*
X80692438Y-112014285D02*
X80740057Y-111966666D01*
X80644819Y-111109523D02*
X80644819Y-111299999D01*
X80644819Y-111299999D02*
X80692438Y-111395237D01*
X80692438Y-111395237D02*
X80740057Y-111442856D01*
X80740057Y-111442856D02*
X80882914Y-111538094D01*
X80882914Y-111538094D02*
X81073390Y-111585713D01*
X81073390Y-111585713D02*
X81454342Y-111585713D01*
X81454342Y-111585713D02*
X81549580Y-111538094D01*
X81549580Y-111538094D02*
X81597200Y-111490475D01*
X81597200Y-111490475D02*
X81644819Y-111395237D01*
X81644819Y-111395237D02*
X81644819Y-111204761D01*
X81644819Y-111204761D02*
X81597200Y-111109523D01*
X81597200Y-111109523D02*
X81549580Y-111061904D01*
X81549580Y-111061904D02*
X81454342Y-111014285D01*
X81454342Y-111014285D02*
X81216247Y-111014285D01*
X81216247Y-111014285D02*
X81121009Y-111061904D01*
X81121009Y-111061904D02*
X81073390Y-111109523D01*
X81073390Y-111109523D02*
X81025771Y-111204761D01*
X81025771Y-111204761D02*
X81025771Y-111395237D01*
X81025771Y-111395237D02*
X81073390Y-111490475D01*
X81073390Y-111490475D02*
X81121009Y-111538094D01*
X81121009Y-111538094D02*
X81216247Y-111585713D01*
X63679580Y-106666666D02*
X63727200Y-106714285D01*
X63727200Y-106714285D02*
X63774819Y-106857142D01*
X63774819Y-106857142D02*
X63774819Y-106952380D01*
X63774819Y-106952380D02*
X63727200Y-107095237D01*
X63727200Y-107095237D02*
X63631961Y-107190475D01*
X63631961Y-107190475D02*
X63536723Y-107238094D01*
X63536723Y-107238094D02*
X63346247Y-107285713D01*
X63346247Y-107285713D02*
X63203390Y-107285713D01*
X63203390Y-107285713D02*
X63012914Y-107238094D01*
X63012914Y-107238094D02*
X62917676Y-107190475D01*
X62917676Y-107190475D02*
X62822438Y-107095237D01*
X62822438Y-107095237D02*
X62774819Y-106952380D01*
X62774819Y-106952380D02*
X62774819Y-106857142D01*
X62774819Y-106857142D02*
X62822438Y-106714285D01*
X62822438Y-106714285D02*
X62870057Y-106666666D01*
X63203390Y-106095237D02*
X63155771Y-106190475D01*
X63155771Y-106190475D02*
X63108152Y-106238094D01*
X63108152Y-106238094D02*
X63012914Y-106285713D01*
X63012914Y-106285713D02*
X62965295Y-106285713D01*
X62965295Y-106285713D02*
X62870057Y-106238094D01*
X62870057Y-106238094D02*
X62822438Y-106190475D01*
X62822438Y-106190475D02*
X62774819Y-106095237D01*
X62774819Y-106095237D02*
X62774819Y-105904761D01*
X62774819Y-105904761D02*
X62822438Y-105809523D01*
X62822438Y-105809523D02*
X62870057Y-105761904D01*
X62870057Y-105761904D02*
X62965295Y-105714285D01*
X62965295Y-105714285D02*
X63012914Y-105714285D01*
X63012914Y-105714285D02*
X63108152Y-105761904D01*
X63108152Y-105761904D02*
X63155771Y-105809523D01*
X63155771Y-105809523D02*
X63203390Y-105904761D01*
X63203390Y-105904761D02*
X63203390Y-106095237D01*
X63203390Y-106095237D02*
X63251009Y-106190475D01*
X63251009Y-106190475D02*
X63298628Y-106238094D01*
X63298628Y-106238094D02*
X63393866Y-106285713D01*
X63393866Y-106285713D02*
X63584342Y-106285713D01*
X63584342Y-106285713D02*
X63679580Y-106238094D01*
X63679580Y-106238094D02*
X63727200Y-106190475D01*
X63727200Y-106190475D02*
X63774819Y-106095237D01*
X63774819Y-106095237D02*
X63774819Y-105904761D01*
X63774819Y-105904761D02*
X63727200Y-105809523D01*
X63727200Y-105809523D02*
X63679580Y-105761904D01*
X63679580Y-105761904D02*
X63584342Y-105714285D01*
X63584342Y-105714285D02*
X63393866Y-105714285D01*
X63393866Y-105714285D02*
X63298628Y-105761904D01*
X63298628Y-105761904D02*
X63251009Y-105809523D01*
X63251009Y-105809523D02*
X63203390Y-105904761D01*
X63083333Y-88304819D02*
X62750000Y-87828628D01*
X62511905Y-88304819D02*
X62511905Y-87304819D01*
X62511905Y-87304819D02*
X62892857Y-87304819D01*
X62892857Y-87304819D02*
X62988095Y-87352438D01*
X62988095Y-87352438D02*
X63035714Y-87400057D01*
X63035714Y-87400057D02*
X63083333Y-87495295D01*
X63083333Y-87495295D02*
X63083333Y-87638152D01*
X63083333Y-87638152D02*
X63035714Y-87733390D01*
X63035714Y-87733390D02*
X62988095Y-87781009D01*
X62988095Y-87781009D02*
X62892857Y-87828628D01*
X62892857Y-87828628D02*
X62511905Y-87828628D01*
X63464286Y-87400057D02*
X63511905Y-87352438D01*
X63511905Y-87352438D02*
X63607143Y-87304819D01*
X63607143Y-87304819D02*
X63845238Y-87304819D01*
X63845238Y-87304819D02*
X63940476Y-87352438D01*
X63940476Y-87352438D02*
X63988095Y-87400057D01*
X63988095Y-87400057D02*
X64035714Y-87495295D01*
X64035714Y-87495295D02*
X64035714Y-87590533D01*
X64035714Y-87590533D02*
X63988095Y-87733390D01*
X63988095Y-87733390D02*
X63416667Y-88304819D01*
X63416667Y-88304819D02*
X64035714Y-88304819D01*
X77034819Y-102666666D02*
X77034819Y-103142856D01*
X77034819Y-103142856D02*
X76034819Y-103142856D01*
X77034819Y-101809523D02*
X77034819Y-102380951D01*
X77034819Y-102095237D02*
X76034819Y-102095237D01*
X76034819Y-102095237D02*
X76177676Y-102190475D01*
X76177676Y-102190475D02*
X76272914Y-102285713D01*
X76272914Y-102285713D02*
X76320533Y-102380951D01*
X83107142Y-100429580D02*
X83059523Y-100477200D01*
X83059523Y-100477200D02*
X82916666Y-100524819D01*
X82916666Y-100524819D02*
X82821428Y-100524819D01*
X82821428Y-100524819D02*
X82678571Y-100477200D01*
X82678571Y-100477200D02*
X82583333Y-100381961D01*
X82583333Y-100381961D02*
X82535714Y-100286723D01*
X82535714Y-100286723D02*
X82488095Y-100096247D01*
X82488095Y-100096247D02*
X82488095Y-99953390D01*
X82488095Y-99953390D02*
X82535714Y-99762914D01*
X82535714Y-99762914D02*
X82583333Y-99667676D01*
X82583333Y-99667676D02*
X82678571Y-99572438D01*
X82678571Y-99572438D02*
X82821428Y-99524819D01*
X82821428Y-99524819D02*
X82916666Y-99524819D01*
X82916666Y-99524819D02*
X83059523Y-99572438D01*
X83059523Y-99572438D02*
X83107142Y-99620057D01*
X83488095Y-99620057D02*
X83535714Y-99572438D01*
X83535714Y-99572438D02*
X83630952Y-99524819D01*
X83630952Y-99524819D02*
X83869047Y-99524819D01*
X83869047Y-99524819D02*
X83964285Y-99572438D01*
X83964285Y-99572438D02*
X84011904Y-99620057D01*
X84011904Y-99620057D02*
X84059523Y-99715295D01*
X84059523Y-99715295D02*
X84059523Y-99810533D01*
X84059523Y-99810533D02*
X84011904Y-99953390D01*
X84011904Y-99953390D02*
X83440476Y-100524819D01*
X83440476Y-100524819D02*
X84059523Y-100524819D01*
X84916666Y-99858152D02*
X84916666Y-100524819D01*
X84678571Y-99477200D02*
X84440476Y-100191485D01*
X84440476Y-100191485D02*
X85059523Y-100191485D01*
X87179580Y-76142857D02*
X87227200Y-76190476D01*
X87227200Y-76190476D02*
X87274819Y-76333333D01*
X87274819Y-76333333D02*
X87274819Y-76428571D01*
X87274819Y-76428571D02*
X87227200Y-76571428D01*
X87227200Y-76571428D02*
X87131961Y-76666666D01*
X87131961Y-76666666D02*
X87036723Y-76714285D01*
X87036723Y-76714285D02*
X86846247Y-76761904D01*
X86846247Y-76761904D02*
X86703390Y-76761904D01*
X86703390Y-76761904D02*
X86512914Y-76714285D01*
X86512914Y-76714285D02*
X86417676Y-76666666D01*
X86417676Y-76666666D02*
X86322438Y-76571428D01*
X86322438Y-76571428D02*
X86274819Y-76428571D01*
X86274819Y-76428571D02*
X86274819Y-76333333D01*
X86274819Y-76333333D02*
X86322438Y-76190476D01*
X86322438Y-76190476D02*
X86370057Y-76142857D01*
X87274819Y-75190476D02*
X87274819Y-75761904D01*
X87274819Y-75476190D02*
X86274819Y-75476190D01*
X86274819Y-75476190D02*
X86417676Y-75571428D01*
X86417676Y-75571428D02*
X86512914Y-75666666D01*
X86512914Y-75666666D02*
X86560533Y-75761904D01*
X86274819Y-74857142D02*
X86274819Y-74238095D01*
X86274819Y-74238095D02*
X86655771Y-74571428D01*
X86655771Y-74571428D02*
X86655771Y-74428571D01*
X86655771Y-74428571D02*
X86703390Y-74333333D01*
X86703390Y-74333333D02*
X86751009Y-74285714D01*
X86751009Y-74285714D02*
X86846247Y-74238095D01*
X86846247Y-74238095D02*
X87084342Y-74238095D01*
X87084342Y-74238095D02*
X87179580Y-74285714D01*
X87179580Y-74285714D02*
X87227200Y-74333333D01*
X87227200Y-74333333D02*
X87274819Y-74428571D01*
X87274819Y-74428571D02*
X87274819Y-74714285D01*
X87274819Y-74714285D02*
X87227200Y-74809523D01*
X87227200Y-74809523D02*
X87179580Y-74857142D01*
X79857142Y-81609580D02*
X79809523Y-81657200D01*
X79809523Y-81657200D02*
X79666666Y-81704819D01*
X79666666Y-81704819D02*
X79571428Y-81704819D01*
X79571428Y-81704819D02*
X79428571Y-81657200D01*
X79428571Y-81657200D02*
X79333333Y-81561961D01*
X79333333Y-81561961D02*
X79285714Y-81466723D01*
X79285714Y-81466723D02*
X79238095Y-81276247D01*
X79238095Y-81276247D02*
X79238095Y-81133390D01*
X79238095Y-81133390D02*
X79285714Y-80942914D01*
X79285714Y-80942914D02*
X79333333Y-80847676D01*
X79333333Y-80847676D02*
X79428571Y-80752438D01*
X79428571Y-80752438D02*
X79571428Y-80704819D01*
X79571428Y-80704819D02*
X79666666Y-80704819D01*
X79666666Y-80704819D02*
X79809523Y-80752438D01*
X79809523Y-80752438D02*
X79857142Y-80800057D01*
X80809523Y-81704819D02*
X80238095Y-81704819D01*
X80523809Y-81704819D02*
X80523809Y-80704819D01*
X80523809Y-80704819D02*
X80428571Y-80847676D01*
X80428571Y-80847676D02*
X80333333Y-80942914D01*
X80333333Y-80942914D02*
X80238095Y-80990533D01*
X81380952Y-81133390D02*
X81285714Y-81085771D01*
X81285714Y-81085771D02*
X81238095Y-81038152D01*
X81238095Y-81038152D02*
X81190476Y-80942914D01*
X81190476Y-80942914D02*
X81190476Y-80895295D01*
X81190476Y-80895295D02*
X81238095Y-80800057D01*
X81238095Y-80800057D02*
X81285714Y-80752438D01*
X81285714Y-80752438D02*
X81380952Y-80704819D01*
X81380952Y-80704819D02*
X81571428Y-80704819D01*
X81571428Y-80704819D02*
X81666666Y-80752438D01*
X81666666Y-80752438D02*
X81714285Y-80800057D01*
X81714285Y-80800057D02*
X81761904Y-80895295D01*
X81761904Y-80895295D02*
X81761904Y-80942914D01*
X81761904Y-80942914D02*
X81714285Y-81038152D01*
X81714285Y-81038152D02*
X81666666Y-81085771D01*
X81666666Y-81085771D02*
X81571428Y-81133390D01*
X81571428Y-81133390D02*
X81380952Y-81133390D01*
X81380952Y-81133390D02*
X81285714Y-81181009D01*
X81285714Y-81181009D02*
X81238095Y-81228628D01*
X81238095Y-81228628D02*
X81190476Y-81323866D01*
X81190476Y-81323866D02*
X81190476Y-81514342D01*
X81190476Y-81514342D02*
X81238095Y-81609580D01*
X81238095Y-81609580D02*
X81285714Y-81657200D01*
X81285714Y-81657200D02*
X81380952Y-81704819D01*
X81380952Y-81704819D02*
X81571428Y-81704819D01*
X81571428Y-81704819D02*
X81666666Y-81657200D01*
X81666666Y-81657200D02*
X81714285Y-81609580D01*
X81714285Y-81609580D02*
X81761904Y-81514342D01*
X81761904Y-81514342D02*
X81761904Y-81323866D01*
X81761904Y-81323866D02*
X81714285Y-81228628D01*
X81714285Y-81228628D02*
X81666666Y-81181009D01*
X81666666Y-81181009D02*
X81571428Y-81133390D01*
X79857142Y-76429580D02*
X79809523Y-76477200D01*
X79809523Y-76477200D02*
X79666666Y-76524819D01*
X79666666Y-76524819D02*
X79571428Y-76524819D01*
X79571428Y-76524819D02*
X79428571Y-76477200D01*
X79428571Y-76477200D02*
X79333333Y-76381961D01*
X79333333Y-76381961D02*
X79285714Y-76286723D01*
X79285714Y-76286723D02*
X79238095Y-76096247D01*
X79238095Y-76096247D02*
X79238095Y-75953390D01*
X79238095Y-75953390D02*
X79285714Y-75762914D01*
X79285714Y-75762914D02*
X79333333Y-75667676D01*
X79333333Y-75667676D02*
X79428571Y-75572438D01*
X79428571Y-75572438D02*
X79571428Y-75524819D01*
X79571428Y-75524819D02*
X79666666Y-75524819D01*
X79666666Y-75524819D02*
X79809523Y-75572438D01*
X79809523Y-75572438D02*
X79857142Y-75620057D01*
X80809523Y-76524819D02*
X80238095Y-76524819D01*
X80523809Y-76524819D02*
X80523809Y-75524819D01*
X80523809Y-75524819D02*
X80428571Y-75667676D01*
X80428571Y-75667676D02*
X80333333Y-75762914D01*
X80333333Y-75762914D02*
X80238095Y-75810533D01*
X81142857Y-75524819D02*
X81809523Y-75524819D01*
X81809523Y-75524819D02*
X81380952Y-76524819D01*
X65607142Y-88109580D02*
X65559523Y-88157200D01*
X65559523Y-88157200D02*
X65416666Y-88204819D01*
X65416666Y-88204819D02*
X65321428Y-88204819D01*
X65321428Y-88204819D02*
X65178571Y-88157200D01*
X65178571Y-88157200D02*
X65083333Y-88061961D01*
X65083333Y-88061961D02*
X65035714Y-87966723D01*
X65035714Y-87966723D02*
X64988095Y-87776247D01*
X64988095Y-87776247D02*
X64988095Y-87633390D01*
X64988095Y-87633390D02*
X65035714Y-87442914D01*
X65035714Y-87442914D02*
X65083333Y-87347676D01*
X65083333Y-87347676D02*
X65178571Y-87252438D01*
X65178571Y-87252438D02*
X65321428Y-87204819D01*
X65321428Y-87204819D02*
X65416666Y-87204819D01*
X65416666Y-87204819D02*
X65559523Y-87252438D01*
X65559523Y-87252438D02*
X65607142Y-87300057D01*
X66559523Y-88204819D02*
X65988095Y-88204819D01*
X66273809Y-88204819D02*
X66273809Y-87204819D01*
X66273809Y-87204819D02*
X66178571Y-87347676D01*
X66178571Y-87347676D02*
X66083333Y-87442914D01*
X66083333Y-87442914D02*
X65988095Y-87490533D01*
X67511904Y-88204819D02*
X66940476Y-88204819D01*
X67226190Y-88204819D02*
X67226190Y-87204819D01*
X67226190Y-87204819D02*
X67130952Y-87347676D01*
X67130952Y-87347676D02*
X67035714Y-87442914D01*
X67035714Y-87442914D02*
X66940476Y-87490533D01*
X112539580Y-90142857D02*
X112587200Y-90190476D01*
X112587200Y-90190476D02*
X112634819Y-90333333D01*
X112634819Y-90333333D02*
X112634819Y-90428571D01*
X112634819Y-90428571D02*
X112587200Y-90571428D01*
X112587200Y-90571428D02*
X112491961Y-90666666D01*
X112491961Y-90666666D02*
X112396723Y-90714285D01*
X112396723Y-90714285D02*
X112206247Y-90761904D01*
X112206247Y-90761904D02*
X112063390Y-90761904D01*
X112063390Y-90761904D02*
X111872914Y-90714285D01*
X111872914Y-90714285D02*
X111777676Y-90666666D01*
X111777676Y-90666666D02*
X111682438Y-90571428D01*
X111682438Y-90571428D02*
X111634819Y-90428571D01*
X111634819Y-90428571D02*
X111634819Y-90333333D01*
X111634819Y-90333333D02*
X111682438Y-90190476D01*
X111682438Y-90190476D02*
X111730057Y-90142857D01*
X111730057Y-89761904D02*
X111682438Y-89714285D01*
X111682438Y-89714285D02*
X111634819Y-89619047D01*
X111634819Y-89619047D02*
X111634819Y-89380952D01*
X111634819Y-89380952D02*
X111682438Y-89285714D01*
X111682438Y-89285714D02*
X111730057Y-89238095D01*
X111730057Y-89238095D02*
X111825295Y-89190476D01*
X111825295Y-89190476D02*
X111920533Y-89190476D01*
X111920533Y-89190476D02*
X112063390Y-89238095D01*
X112063390Y-89238095D02*
X112634819Y-89809523D01*
X112634819Y-89809523D02*
X112634819Y-89190476D01*
X112063390Y-88619047D02*
X112015771Y-88714285D01*
X112015771Y-88714285D02*
X111968152Y-88761904D01*
X111968152Y-88761904D02*
X111872914Y-88809523D01*
X111872914Y-88809523D02*
X111825295Y-88809523D01*
X111825295Y-88809523D02*
X111730057Y-88761904D01*
X111730057Y-88761904D02*
X111682438Y-88714285D01*
X111682438Y-88714285D02*
X111634819Y-88619047D01*
X111634819Y-88619047D02*
X111634819Y-88428571D01*
X111634819Y-88428571D02*
X111682438Y-88333333D01*
X111682438Y-88333333D02*
X111730057Y-88285714D01*
X111730057Y-88285714D02*
X111825295Y-88238095D01*
X111825295Y-88238095D02*
X111872914Y-88238095D01*
X111872914Y-88238095D02*
X111968152Y-88285714D01*
X111968152Y-88285714D02*
X112015771Y-88333333D01*
X112015771Y-88333333D02*
X112063390Y-88428571D01*
X112063390Y-88428571D02*
X112063390Y-88619047D01*
X112063390Y-88619047D02*
X112111009Y-88714285D01*
X112111009Y-88714285D02*
X112158628Y-88761904D01*
X112158628Y-88761904D02*
X112253866Y-88809523D01*
X112253866Y-88809523D02*
X112444342Y-88809523D01*
X112444342Y-88809523D02*
X112539580Y-88761904D01*
X112539580Y-88761904D02*
X112587200Y-88714285D01*
X112587200Y-88714285D02*
X112634819Y-88619047D01*
X112634819Y-88619047D02*
X112634819Y-88428571D01*
X112634819Y-88428571D02*
X112587200Y-88333333D01*
X112587200Y-88333333D02*
X112539580Y-88285714D01*
X112539580Y-88285714D02*
X112444342Y-88238095D01*
X112444342Y-88238095D02*
X112253866Y-88238095D01*
X112253866Y-88238095D02*
X112158628Y-88285714D01*
X112158628Y-88285714D02*
X112111009Y-88333333D01*
X112111009Y-88333333D02*
X112063390Y-88428571D01*
X67728628Y-99726190D02*
X68204819Y-99726190D01*
X67204819Y-100059523D02*
X67728628Y-99726190D01*
X67728628Y-99726190D02*
X67204819Y-99392857D01*
X68204819Y-98535714D02*
X68204819Y-99107142D01*
X68204819Y-98821428D02*
X67204819Y-98821428D01*
X67204819Y-98821428D02*
X67347676Y-98916666D01*
X67347676Y-98916666D02*
X67442914Y-99011904D01*
X67442914Y-99011904D02*
X67490533Y-99107142D01*
X60357142Y-65109580D02*
X60309523Y-65157200D01*
X60309523Y-65157200D02*
X60166666Y-65204819D01*
X60166666Y-65204819D02*
X60071428Y-65204819D01*
X60071428Y-65204819D02*
X59928571Y-65157200D01*
X59928571Y-65157200D02*
X59833333Y-65061961D01*
X59833333Y-65061961D02*
X59785714Y-64966723D01*
X59785714Y-64966723D02*
X59738095Y-64776247D01*
X59738095Y-64776247D02*
X59738095Y-64633390D01*
X59738095Y-64633390D02*
X59785714Y-64442914D01*
X59785714Y-64442914D02*
X59833333Y-64347676D01*
X59833333Y-64347676D02*
X59928571Y-64252438D01*
X59928571Y-64252438D02*
X60071428Y-64204819D01*
X60071428Y-64204819D02*
X60166666Y-64204819D01*
X60166666Y-64204819D02*
X60309523Y-64252438D01*
X60309523Y-64252438D02*
X60357142Y-64300057D01*
X60738095Y-64300057D02*
X60785714Y-64252438D01*
X60785714Y-64252438D02*
X60880952Y-64204819D01*
X60880952Y-64204819D02*
X61119047Y-64204819D01*
X61119047Y-64204819D02*
X61214285Y-64252438D01*
X61214285Y-64252438D02*
X61261904Y-64300057D01*
X61261904Y-64300057D02*
X61309523Y-64395295D01*
X61309523Y-64395295D02*
X61309523Y-64490533D01*
X61309523Y-64490533D02*
X61261904Y-64633390D01*
X61261904Y-64633390D02*
X60690476Y-65204819D01*
X60690476Y-65204819D02*
X61309523Y-65204819D01*
X62166666Y-64204819D02*
X61976190Y-64204819D01*
X61976190Y-64204819D02*
X61880952Y-64252438D01*
X61880952Y-64252438D02*
X61833333Y-64300057D01*
X61833333Y-64300057D02*
X61738095Y-64442914D01*
X61738095Y-64442914D02*
X61690476Y-64633390D01*
X61690476Y-64633390D02*
X61690476Y-65014342D01*
X61690476Y-65014342D02*
X61738095Y-65109580D01*
X61738095Y-65109580D02*
X61785714Y-65157200D01*
X61785714Y-65157200D02*
X61880952Y-65204819D01*
X61880952Y-65204819D02*
X62071428Y-65204819D01*
X62071428Y-65204819D02*
X62166666Y-65157200D01*
X62166666Y-65157200D02*
X62214285Y-65109580D01*
X62214285Y-65109580D02*
X62261904Y-65014342D01*
X62261904Y-65014342D02*
X62261904Y-64776247D01*
X62261904Y-64776247D02*
X62214285Y-64681009D01*
X62214285Y-64681009D02*
X62166666Y-64633390D01*
X62166666Y-64633390D02*
X62071428Y-64585771D01*
X62071428Y-64585771D02*
X61880952Y-64585771D01*
X61880952Y-64585771D02*
X61785714Y-64633390D01*
X61785714Y-64633390D02*
X61738095Y-64681009D01*
X61738095Y-64681009D02*
X61690476Y-64776247D01*
X99238095Y-79004819D02*
X99238095Y-79814342D01*
X99238095Y-79814342D02*
X99285714Y-79909580D01*
X99285714Y-79909580D02*
X99333333Y-79957200D01*
X99333333Y-79957200D02*
X99428571Y-80004819D01*
X99428571Y-80004819D02*
X99619047Y-80004819D01*
X99619047Y-80004819D02*
X99714285Y-79957200D01*
X99714285Y-79957200D02*
X99761904Y-79909580D01*
X99761904Y-79909580D02*
X99809523Y-79814342D01*
X99809523Y-79814342D02*
X99809523Y-79004819D01*
X100714285Y-79338152D02*
X100714285Y-80004819D01*
X100476190Y-78957200D02*
X100238095Y-79671485D01*
X100238095Y-79671485D02*
X100857142Y-79671485D01*
X80904819Y-107761904D02*
X81714342Y-107761904D01*
X81714342Y-107761904D02*
X81809580Y-107714285D01*
X81809580Y-107714285D02*
X81857200Y-107666666D01*
X81857200Y-107666666D02*
X81904819Y-107571428D01*
X81904819Y-107571428D02*
X81904819Y-107380952D01*
X81904819Y-107380952D02*
X81857200Y-107285714D01*
X81857200Y-107285714D02*
X81809580Y-107238095D01*
X81809580Y-107238095D02*
X81714342Y-107190476D01*
X81714342Y-107190476D02*
X80904819Y-107190476D01*
X81000057Y-106761904D02*
X80952438Y-106714285D01*
X80952438Y-106714285D02*
X80904819Y-106619047D01*
X80904819Y-106619047D02*
X80904819Y-106380952D01*
X80904819Y-106380952D02*
X80952438Y-106285714D01*
X80952438Y-106285714D02*
X81000057Y-106238095D01*
X81000057Y-106238095D02*
X81095295Y-106190476D01*
X81095295Y-106190476D02*
X81190533Y-106190476D01*
X81190533Y-106190476D02*
X81333390Y-106238095D01*
X81333390Y-106238095D02*
X81904819Y-106809523D01*
X81904819Y-106809523D02*
X81904819Y-106190476D01*
X112419104Y-108714285D02*
X112419104Y-108238095D01*
X112704819Y-108809523D02*
X111704819Y-108476190D01*
X111704819Y-108476190D02*
X112704819Y-108142857D01*
X111704819Y-107523809D02*
X112419104Y-107523809D01*
X112419104Y-107523809D02*
X112561961Y-107571428D01*
X112561961Y-107571428D02*
X112657200Y-107666666D01*
X112657200Y-107666666D02*
X112704819Y-107809523D01*
X112704819Y-107809523D02*
X112704819Y-107904761D01*
X112323866Y-107047618D02*
X112323866Y-106285714D01*
X112657200Y-105857142D02*
X112704819Y-105714285D01*
X112704819Y-105714285D02*
X112704819Y-105476190D01*
X112704819Y-105476190D02*
X112657200Y-105380952D01*
X112657200Y-105380952D02*
X112609580Y-105333333D01*
X112609580Y-105333333D02*
X112514342Y-105285714D01*
X112514342Y-105285714D02*
X112419104Y-105285714D01*
X112419104Y-105285714D02*
X112323866Y-105333333D01*
X112323866Y-105333333D02*
X112276247Y-105380952D01*
X112276247Y-105380952D02*
X112228628Y-105476190D01*
X112228628Y-105476190D02*
X112181009Y-105666666D01*
X112181009Y-105666666D02*
X112133390Y-105761904D01*
X112133390Y-105761904D02*
X112085771Y-105809523D01*
X112085771Y-105809523D02*
X111990533Y-105857142D01*
X111990533Y-105857142D02*
X111895295Y-105857142D01*
X111895295Y-105857142D02*
X111800057Y-105809523D01*
X111800057Y-105809523D02*
X111752438Y-105761904D01*
X111752438Y-105761904D02*
X111704819Y-105666666D01*
X111704819Y-105666666D02*
X111704819Y-105428571D01*
X111704819Y-105428571D02*
X111752438Y-105285714D01*
X112704819Y-104285714D02*
X112228628Y-104619047D01*
X112704819Y-104857142D02*
X111704819Y-104857142D01*
X111704819Y-104857142D02*
X111704819Y-104476190D01*
X111704819Y-104476190D02*
X111752438Y-104380952D01*
X111752438Y-104380952D02*
X111800057Y-104333333D01*
X111800057Y-104333333D02*
X111895295Y-104285714D01*
X111895295Y-104285714D02*
X112038152Y-104285714D01*
X112038152Y-104285714D02*
X112133390Y-104333333D01*
X112133390Y-104333333D02*
X112181009Y-104380952D01*
X112181009Y-104380952D02*
X112228628Y-104476190D01*
X112228628Y-104476190D02*
X112228628Y-104857142D01*
X111704819Y-103666666D02*
X111704819Y-103571428D01*
X111704819Y-103571428D02*
X111752438Y-103476190D01*
X111752438Y-103476190D02*
X111800057Y-103428571D01*
X111800057Y-103428571D02*
X111895295Y-103380952D01*
X111895295Y-103380952D02*
X112085771Y-103333333D01*
X112085771Y-103333333D02*
X112323866Y-103333333D01*
X112323866Y-103333333D02*
X112514342Y-103380952D01*
X112514342Y-103380952D02*
X112609580Y-103428571D01*
X112609580Y-103428571D02*
X112657200Y-103476190D01*
X112657200Y-103476190D02*
X112704819Y-103571428D01*
X112704819Y-103571428D02*
X112704819Y-103666666D01*
X112704819Y-103666666D02*
X112657200Y-103761904D01*
X112657200Y-103761904D02*
X112609580Y-103809523D01*
X112609580Y-103809523D02*
X112514342Y-103857142D01*
X112514342Y-103857142D02*
X112323866Y-103904761D01*
X112323866Y-103904761D02*
X112085771Y-103904761D01*
X112085771Y-103904761D02*
X111895295Y-103857142D01*
X111895295Y-103857142D02*
X111800057Y-103809523D01*
X111800057Y-103809523D02*
X111752438Y-103761904D01*
X111752438Y-103761904D02*
X111704819Y-103666666D01*
X112038152Y-102476190D02*
X112704819Y-102476190D01*
X111657200Y-102714285D02*
X112371485Y-102952380D01*
X112371485Y-102952380D02*
X112371485Y-102333333D01*
X112704819Y-101952380D02*
X111704819Y-101952380D01*
X111704819Y-101952380D02*
X112419104Y-101619047D01*
X112419104Y-101619047D02*
X111704819Y-101285714D01*
X111704819Y-101285714D02*
X112704819Y-101285714D01*
X112704819Y-100285714D02*
X112704819Y-100857142D01*
X112704819Y-100571428D02*
X111704819Y-100571428D01*
X111704819Y-100571428D02*
X111847676Y-100666666D01*
X111847676Y-100666666D02*
X111942914Y-100761904D01*
X111942914Y-100761904D02*
X111990533Y-100857142D01*
X84711905Y-98454819D02*
X85283333Y-98454819D01*
X84997619Y-99454819D02*
X84997619Y-98454819D01*
X85616667Y-99454819D02*
X85616667Y-98454819D01*
X85616667Y-98454819D02*
X85997619Y-98454819D01*
X85997619Y-98454819D02*
X86092857Y-98502438D01*
X86092857Y-98502438D02*
X86140476Y-98550057D01*
X86140476Y-98550057D02*
X86188095Y-98645295D01*
X86188095Y-98645295D02*
X86188095Y-98788152D01*
X86188095Y-98788152D02*
X86140476Y-98883390D01*
X86140476Y-98883390D02*
X86092857Y-98931009D01*
X86092857Y-98931009D02*
X85997619Y-98978628D01*
X85997619Y-98978628D02*
X85616667Y-98978628D01*
X87140476Y-99454819D02*
X86569048Y-99454819D01*
X86854762Y-99454819D02*
X86854762Y-98454819D01*
X86854762Y-98454819D02*
X86759524Y-98597676D01*
X86759524Y-98597676D02*
X86664286Y-98692914D01*
X86664286Y-98692914D02*
X86569048Y-98740533D01*
X88092857Y-99454819D02*
X87521429Y-99454819D01*
X87807143Y-99454819D02*
X87807143Y-98454819D01*
X87807143Y-98454819D02*
X87711905Y-98597676D01*
X87711905Y-98597676D02*
X87616667Y-98692914D01*
X87616667Y-98692914D02*
X87521429Y-98740533D01*
X58179580Y-101416666D02*
X58227200Y-101464285D01*
X58227200Y-101464285D02*
X58274819Y-101607142D01*
X58274819Y-101607142D02*
X58274819Y-101702380D01*
X58274819Y-101702380D02*
X58227200Y-101845237D01*
X58227200Y-101845237D02*
X58131961Y-101940475D01*
X58131961Y-101940475D02*
X58036723Y-101988094D01*
X58036723Y-101988094D02*
X57846247Y-102035713D01*
X57846247Y-102035713D02*
X57703390Y-102035713D01*
X57703390Y-102035713D02*
X57512914Y-101988094D01*
X57512914Y-101988094D02*
X57417676Y-101940475D01*
X57417676Y-101940475D02*
X57322438Y-101845237D01*
X57322438Y-101845237D02*
X57274819Y-101702380D01*
X57274819Y-101702380D02*
X57274819Y-101607142D01*
X57274819Y-101607142D02*
X57322438Y-101464285D01*
X57322438Y-101464285D02*
X57370057Y-101416666D01*
X57274819Y-100511904D02*
X57274819Y-100988094D01*
X57274819Y-100988094D02*
X57751009Y-101035713D01*
X57751009Y-101035713D02*
X57703390Y-100988094D01*
X57703390Y-100988094D02*
X57655771Y-100892856D01*
X57655771Y-100892856D02*
X57655771Y-100654761D01*
X57655771Y-100654761D02*
X57703390Y-100559523D01*
X57703390Y-100559523D02*
X57751009Y-100511904D01*
X57751009Y-100511904D02*
X57846247Y-100464285D01*
X57846247Y-100464285D02*
X58084342Y-100464285D01*
X58084342Y-100464285D02*
X58179580Y-100511904D01*
X58179580Y-100511904D02*
X58227200Y-100559523D01*
X58227200Y-100559523D02*
X58274819Y-100654761D01*
X58274819Y-100654761D02*
X58274819Y-100892856D01*
X58274819Y-100892856D02*
X58227200Y-100988094D01*
X58227200Y-100988094D02*
X58179580Y-101035713D01*
X73054819Y-64642857D02*
X72578628Y-64976190D01*
X73054819Y-65214285D02*
X72054819Y-65214285D01*
X72054819Y-65214285D02*
X72054819Y-64833333D01*
X72054819Y-64833333D02*
X72102438Y-64738095D01*
X72102438Y-64738095D02*
X72150057Y-64690476D01*
X72150057Y-64690476D02*
X72245295Y-64642857D01*
X72245295Y-64642857D02*
X72388152Y-64642857D01*
X72388152Y-64642857D02*
X72483390Y-64690476D01*
X72483390Y-64690476D02*
X72531009Y-64738095D01*
X72531009Y-64738095D02*
X72578628Y-64833333D01*
X72578628Y-64833333D02*
X72578628Y-65214285D01*
X73054819Y-63690476D02*
X73054819Y-64261904D01*
X73054819Y-63976190D02*
X72054819Y-63976190D01*
X72054819Y-63976190D02*
X72197676Y-64071428D01*
X72197676Y-64071428D02*
X72292914Y-64166666D01*
X72292914Y-64166666D02*
X72340533Y-64261904D01*
X73054819Y-62738095D02*
X73054819Y-63309523D01*
X73054819Y-63023809D02*
X72054819Y-63023809D01*
X72054819Y-63023809D02*
X72197676Y-63119047D01*
X72197676Y-63119047D02*
X72292914Y-63214285D01*
X72292914Y-63214285D02*
X72340533Y-63309523D01*
X51904761Y-105800057D02*
X51809523Y-105752438D01*
X51809523Y-105752438D02*
X51714285Y-105657200D01*
X51714285Y-105657200D02*
X51571428Y-105514342D01*
X51571428Y-105514342D02*
X51476190Y-105466723D01*
X51476190Y-105466723D02*
X51380952Y-105466723D01*
X51428571Y-105704819D02*
X51333333Y-105657200D01*
X51333333Y-105657200D02*
X51238095Y-105561961D01*
X51238095Y-105561961D02*
X51190476Y-105371485D01*
X51190476Y-105371485D02*
X51190476Y-105038152D01*
X51190476Y-105038152D02*
X51238095Y-104847676D01*
X51238095Y-104847676D02*
X51333333Y-104752438D01*
X51333333Y-104752438D02*
X51428571Y-104704819D01*
X51428571Y-104704819D02*
X51619047Y-104704819D01*
X51619047Y-104704819D02*
X51714285Y-104752438D01*
X51714285Y-104752438D02*
X51809523Y-104847676D01*
X51809523Y-104847676D02*
X51857142Y-105038152D01*
X51857142Y-105038152D02*
X51857142Y-105371485D01*
X51857142Y-105371485D02*
X51809523Y-105561961D01*
X51809523Y-105561961D02*
X51714285Y-105657200D01*
X51714285Y-105657200D02*
X51619047Y-105704819D01*
X51619047Y-105704819D02*
X51428571Y-105704819D01*
X52809523Y-105704819D02*
X52238095Y-105704819D01*
X52523809Y-105704819D02*
X52523809Y-104704819D01*
X52523809Y-104704819D02*
X52428571Y-104847676D01*
X52428571Y-104847676D02*
X52333333Y-104942914D01*
X52333333Y-104942914D02*
X52238095Y-104990533D01*
X77357142Y-97929580D02*
X77309523Y-97977200D01*
X77309523Y-97977200D02*
X77166666Y-98024819D01*
X77166666Y-98024819D02*
X77071428Y-98024819D01*
X77071428Y-98024819D02*
X76928571Y-97977200D01*
X76928571Y-97977200D02*
X76833333Y-97881961D01*
X76833333Y-97881961D02*
X76785714Y-97786723D01*
X76785714Y-97786723D02*
X76738095Y-97596247D01*
X76738095Y-97596247D02*
X76738095Y-97453390D01*
X76738095Y-97453390D02*
X76785714Y-97262914D01*
X76785714Y-97262914D02*
X76833333Y-97167676D01*
X76833333Y-97167676D02*
X76928571Y-97072438D01*
X76928571Y-97072438D02*
X77071428Y-97024819D01*
X77071428Y-97024819D02*
X77166666Y-97024819D01*
X77166666Y-97024819D02*
X77309523Y-97072438D01*
X77309523Y-97072438D02*
X77357142Y-97120057D01*
X77690476Y-97024819D02*
X78309523Y-97024819D01*
X78309523Y-97024819D02*
X77976190Y-97405771D01*
X77976190Y-97405771D02*
X78119047Y-97405771D01*
X78119047Y-97405771D02*
X78214285Y-97453390D01*
X78214285Y-97453390D02*
X78261904Y-97501009D01*
X78261904Y-97501009D02*
X78309523Y-97596247D01*
X78309523Y-97596247D02*
X78309523Y-97834342D01*
X78309523Y-97834342D02*
X78261904Y-97929580D01*
X78261904Y-97929580D02*
X78214285Y-97977200D01*
X78214285Y-97977200D02*
X78119047Y-98024819D01*
X78119047Y-98024819D02*
X77833333Y-98024819D01*
X77833333Y-98024819D02*
X77738095Y-97977200D01*
X77738095Y-97977200D02*
X77690476Y-97929580D01*
X78928571Y-97024819D02*
X79023809Y-97024819D01*
X79023809Y-97024819D02*
X79119047Y-97072438D01*
X79119047Y-97072438D02*
X79166666Y-97120057D01*
X79166666Y-97120057D02*
X79214285Y-97215295D01*
X79214285Y-97215295D02*
X79261904Y-97405771D01*
X79261904Y-97405771D02*
X79261904Y-97643866D01*
X79261904Y-97643866D02*
X79214285Y-97834342D01*
X79214285Y-97834342D02*
X79166666Y-97929580D01*
X79166666Y-97929580D02*
X79119047Y-97977200D01*
X79119047Y-97977200D02*
X79023809Y-98024819D01*
X79023809Y-98024819D02*
X78928571Y-98024819D01*
X78928571Y-98024819D02*
X78833333Y-97977200D01*
X78833333Y-97977200D02*
X78785714Y-97929580D01*
X78785714Y-97929580D02*
X78738095Y-97834342D01*
X78738095Y-97834342D02*
X78690476Y-97643866D01*
X78690476Y-97643866D02*
X78690476Y-97405771D01*
X78690476Y-97405771D02*
X78738095Y-97215295D01*
X78738095Y-97215295D02*
X78785714Y-97120057D01*
X78785714Y-97120057D02*
X78833333Y-97072438D01*
X78833333Y-97072438D02*
X78928571Y-97024819D01*
D12*
%TO.C,C27*%
X75359420Y-58240000D02*
X75640580Y-58240000D01*
X75359420Y-59260000D02*
X75640580Y-59260000D01*
%TO.C,C20*%
X71265000Y-95488748D02*
X71265000Y-96011252D01*
X72735000Y-95488748D02*
X72735000Y-96011252D01*
%TO.C,R4*%
X44265000Y-100272936D02*
X44265000Y-100727064D01*
X45735000Y-100272936D02*
X45735000Y-100727064D01*
%TO.C,Q2*%
X71250000Y-58940000D02*
X70600000Y-58940000D01*
X71250000Y-58940000D02*
X71900000Y-58940000D01*
X71250000Y-62060000D02*
X70600000Y-62060000D01*
X71250000Y-62060000D02*
X71900000Y-62060000D01*
X72652500Y-62340000D02*
X72172500Y-62340000D01*
X72412500Y-62010000D01*
X72652500Y-62340000D01*
G36*
X72652500Y-62340000D02*
G01*
X72172500Y-62340000D01*
X72412500Y-62010000D01*
X72652500Y-62340000D01*
G37*
%TO.C,R26*%
X48477064Y-93765000D02*
X48022936Y-93765000D01*
X48477064Y-95235000D02*
X48022936Y-95235000D01*
%TO.C,R25*%
X41265000Y-68022936D02*
X41265000Y-68477064D01*
X42735000Y-68022936D02*
X42735000Y-68477064D01*
%TO.C,D1*%
X44300000Y-91150000D02*
X46260000Y-91150000D01*
X44300000Y-92350000D02*
X46260000Y-92350000D01*
X46260000Y-92350000D02*
X46260000Y-91150000D01*
%TO.C,R27*%
X39427500Y-84272936D02*
X39427500Y-84727064D01*
X40897500Y-84272936D02*
X40897500Y-84727064D01*
%TO.C,C19*%
X82015000Y-93488748D02*
X82015000Y-94011252D01*
X83485000Y-93488748D02*
X83485000Y-94011252D01*
%TO.C,C23*%
X87688748Y-102765000D02*
X88211252Y-102765000D01*
X87688748Y-104235000D02*
X88211252Y-104235000D01*
%TO.C,C9*%
X84507498Y-110496250D02*
X85030002Y-110496250D01*
X84507498Y-111966250D02*
X85030002Y-111966250D01*
%TO.C,C15*%
X80265000Y-100761252D02*
X80265000Y-100238748D01*
X81735000Y-100761252D02*
X81735000Y-100238748D01*
%TO.C,R6*%
X88515000Y-97227064D02*
X88515000Y-96772936D01*
X89985000Y-97227064D02*
X89985000Y-96772936D01*
%TO.C,C4*%
X58015000Y-91988748D02*
X58015000Y-92511252D01*
X59485000Y-91988748D02*
X59485000Y-92511252D01*
%TO.C,C2*%
X62765000Y-70238748D02*
X62765000Y-70761252D01*
X64235000Y-70238748D02*
X64235000Y-70761252D01*
%TO.C,U8*%
X65765000Y-74850001D02*
X65765000Y-76250001D01*
X68085000Y-74840001D02*
X68085000Y-76250001D01*
X68365000Y-74710001D02*
X68035000Y-74470001D01*
X68365000Y-74230001D01*
X68365000Y-74710001D01*
G36*
X68365000Y-74710001D02*
G01*
X68035000Y-74470001D01*
X68365000Y-74230001D01*
X68365000Y-74710001D01*
G37*
%TO.C,C25*%
X70865580Y-78240000D02*
X70584420Y-78240000D01*
X70865580Y-79260000D02*
X70584420Y-79260000D01*
%TO.C,C16*%
X70538748Y-82015000D02*
X71061252Y-82015000D01*
X70538748Y-83485000D02*
X71061252Y-83485000D01*
%TO.C,C22*%
X78265000Y-61238748D02*
X78265000Y-61761252D01*
X79735000Y-61238748D02*
X79735000Y-61761252D01*
%TO.C,R24*%
X84995814Y-104996250D02*
X84541686Y-104996250D01*
X84995814Y-106466250D02*
X84541686Y-106466250D01*
%TO.C,L2*%
X67840000Y-92662779D02*
X67840000Y-92337221D01*
X68860000Y-92662779D02*
X68860000Y-92337221D01*
%TO.C,R12*%
X76515000Y-65772936D02*
X76515000Y-66227064D01*
X77985000Y-65772936D02*
X77985000Y-66227064D01*
D13*
%TO.C,BT2*%
X95005000Y-67840000D02*
X96005000Y-67840000D01*
X95505000Y-67340000D02*
X95505000Y-68340000D01*
X99330000Y-60800000D02*
X102280000Y-60800000D01*
X99330000Y-65150000D02*
X99330000Y-60800000D01*
X99330000Y-70850000D02*
X99330000Y-75200000D01*
X99330000Y-75200000D02*
X102280000Y-75200000D01*
X102280000Y-60800000D02*
X102280000Y-61120000D01*
X102280000Y-75200000D02*
X102280000Y-74880000D01*
X116925000Y-67910000D02*
X117925000Y-67910000D01*
X98967000Y-66336000D02*
G75*
G02*
X99330000Y-65150000I7288420J-1582221D01*
G01*
X99330000Y-70850000D02*
G75*
G02*
X98967000Y-69664000I6925684J2768302D01*
G01*
X102279999Y-74880000D02*
G75*
G02*
X102475000Y-74665000I204998J10002D01*
G01*
X102475000Y-61335000D02*
G75*
G02*
X102280000Y-61120000I10000J205000D01*
G01*
X102475000Y-74665000D02*
G75*
G02*
X102655000Y-74705000I17002J-348493D01*
G01*
X102655000Y-61295000D02*
G75*
G02*
X102475000Y-61335000I-162998J308493D01*
G01*
X102655000Y-61295000D02*
G75*
G02*
X106530000Y-60255000I3872925J-6691318D01*
G01*
X106530000Y-60255000D02*
G75*
G02*
X114094000Y-66335001I121J-7744956D01*
G01*
X106530000Y-75745000D02*
G75*
G02*
X102655001Y-74704999I-1970J7731700D01*
G01*
X114094000Y-69664999D02*
G75*
G02*
X106530000Y-75745000I-7563885J1664962D01*
G01*
D12*
%TO.C,SW2*%
X46290000Y-78270000D02*
X46290000Y-78300000D01*
X46290000Y-82800000D02*
X46290000Y-80200000D01*
X46290000Y-84730000D02*
X46290000Y-84700000D01*
X52750000Y-78270000D02*
X46290000Y-78270000D01*
X52750000Y-78270000D02*
X52750000Y-78300000D01*
X52750000Y-82800000D02*
X52750000Y-80200000D01*
X52750000Y-84700000D02*
X52750000Y-84730000D01*
X52750000Y-84730000D02*
X46290000Y-84730000D01*
%TO.C,TP9*%
X90300000Y-100550000D02*
X91700000Y-100550000D01*
X90300000Y-101950000D02*
X90300000Y-100550000D01*
X91700000Y-100550000D02*
X91700000Y-101950000D01*
X91700000Y-101950000D02*
X90300000Y-101950000D01*
%TO.C,C12*%
X91265000Y-75761252D02*
X91265000Y-75238748D01*
X92735000Y-75761252D02*
X92735000Y-75238748D01*
%TO.C,R8*%
X67015000Y-106727064D02*
X67015000Y-106272936D01*
X68485000Y-106727064D02*
X68485000Y-106272936D01*
%TO.C,R10*%
X65515000Y-83935436D02*
X65515000Y-84389564D01*
X66985000Y-83935436D02*
X66985000Y-84389564D01*
%TO.C,J2*%
X120365000Y-94875000D02*
X120365000Y-95515000D01*
X120365000Y-95515000D02*
X119735000Y-95515000D01*
X120365000Y-97675000D02*
X120365000Y-97035000D01*
X123085000Y-94925000D02*
X123085000Y-97625000D01*
%TO.C,TP10*%
X94050000Y-104550000D02*
X95450000Y-104550000D01*
X94050000Y-105950000D02*
X94050000Y-104550000D01*
X95450000Y-104550000D02*
X95450000Y-105950000D01*
X95450000Y-105950000D02*
X94050000Y-105950000D01*
%TO.C,R13*%
X84995814Y-107246250D02*
X84541686Y-107246250D01*
X84995814Y-108716250D02*
X84541686Y-108716250D01*
D14*
%TO.C,U5*%
X45021600Y-59858500D02*
X54978400Y-59858500D01*
X45021600Y-70221700D02*
X54978400Y-70221700D01*
D12*
%TO.C,C21*%
X59240000Y-69109420D02*
X59240000Y-69390580D01*
X60260000Y-69109420D02*
X60260000Y-69390580D01*
%TO.C,TP8*%
X59300000Y-61050000D02*
X60700000Y-61050000D01*
X59300000Y-62450000D02*
X59300000Y-61050000D01*
X60700000Y-61050000D02*
X60700000Y-62450000D01*
X60700000Y-62450000D02*
X59300000Y-62450000D01*
%TO.C,R3*%
X73765000Y-101022936D02*
X73765000Y-101477064D01*
X75235000Y-101022936D02*
X75235000Y-101477064D01*
%TO.C,SW1*%
X69520000Y-69040000D02*
X69520000Y-75500000D01*
X69520000Y-69040000D02*
X69550000Y-69040000D01*
X69520000Y-75500000D02*
X69550000Y-75500000D01*
X74050000Y-69040000D02*
X71450000Y-69040000D01*
X74050000Y-75500000D02*
X71450000Y-75500000D01*
X75950000Y-69040000D02*
X75980000Y-69040000D01*
X75980000Y-69040000D02*
X75980000Y-75500000D01*
X75980000Y-75500000D02*
X75950000Y-75500000D01*
%TO.C,C1*%
X62988748Y-93515000D02*
X63511252Y-93515000D01*
X62988748Y-94985000D02*
X63511252Y-94985000D01*
%TO.C,R28*%
X54227064Y-94015000D02*
X53772936Y-94015000D01*
X54227064Y-95485000D02*
X53772936Y-95485000D01*
%TO.C,J1*%
X33045000Y-91155000D02*
X33045000Y-100345000D01*
X35775000Y-91155000D02*
X33045000Y-91155000D01*
X35775000Y-100345000D02*
X33045000Y-100345000D01*
X39375000Y-91155000D02*
X38475000Y-91155000D01*
X39375000Y-100345000D02*
X38475000Y-100345000D01*
X42455000Y-91275000D02*
X42455000Y-100225000D01*
%TO.C,Q3*%
X95500000Y-99440000D02*
X94850000Y-99440000D01*
X95500000Y-99440000D02*
X96150000Y-99440000D01*
X95500000Y-102560000D02*
X94850000Y-102560000D01*
X95500000Y-102560000D02*
X96150000Y-102560000D01*
X94337500Y-99490000D02*
X94097500Y-99160000D01*
X94577500Y-99160000D01*
X94337500Y-99490000D01*
G36*
X94337500Y-99490000D02*
G01*
X94097500Y-99160000D01*
X94577500Y-99160000D01*
X94337500Y-99490000D01*
G37*
%TO.C,R29*%
X54227064Y-96265000D02*
X53772936Y-96265000D01*
X54227064Y-97735000D02*
X53772936Y-97735000D01*
%TO.C,U6*%
X73250000Y-106940000D02*
X72450000Y-106940000D01*
X73250000Y-106940000D02*
X74050000Y-106940000D01*
X73250000Y-110060000D02*
X72450000Y-110060000D01*
X73250000Y-110060000D02*
X74050000Y-110060000D01*
X71950000Y-106990000D02*
X71710000Y-106660000D01*
X72190000Y-106660000D01*
X71950000Y-106990000D01*
G36*
X71950000Y-106990000D02*
G01*
X71710000Y-106660000D01*
X72190000Y-106660000D01*
X71950000Y-106990000D01*
G37*
%TO.C,L3*%
X76412779Y-59990000D02*
X76087221Y-59990000D01*
X76412779Y-61010000D02*
X76087221Y-61010000D01*
%TO.C,R5*%
X47765000Y-100272936D02*
X47765000Y-100727064D01*
X49235000Y-100272936D02*
X49235000Y-100727064D01*
%TO.C,R1*%
X65772936Y-66765000D02*
X66227064Y-66765000D01*
X65772936Y-68235000D02*
X66227064Y-68235000D01*
%TO.C,C7*%
X75765000Y-111538748D02*
X75765000Y-112061252D01*
X77235000Y-111538748D02*
X77235000Y-112061252D01*
%TO.C,U3*%
X73220000Y-82810000D02*
X73870000Y-82810000D01*
X73220000Y-83460000D02*
X73220000Y-82810000D01*
X73220000Y-89380000D02*
X73220000Y-89730000D01*
X73870000Y-90030000D02*
X73460000Y-90030000D01*
X80440000Y-82810000D02*
X79790000Y-82810000D01*
X80440000Y-83460000D02*
X80440000Y-82810000D01*
X80440000Y-89380000D02*
X80440000Y-90030000D01*
X80440000Y-90030000D02*
X79790000Y-90030000D01*
X73220000Y-90030000D02*
X72890000Y-90270000D01*
X72890000Y-89790000D01*
X73220000Y-90030000D01*
G36*
X73220000Y-90030000D02*
G01*
X72890000Y-90270000D01*
X72890000Y-89790000D01*
X73220000Y-90030000D01*
G37*
%TO.C,R7*%
X44765000Y-75727064D02*
X44765000Y-75272936D01*
X46235000Y-75727064D02*
X46235000Y-75272936D01*
%TO.C,J4*%
X36165000Y-71350000D02*
X36165000Y-68650000D01*
X38885000Y-68600000D02*
X38885000Y-69240000D01*
X38885000Y-70760000D02*
X39515000Y-70760000D01*
X38885000Y-71400000D02*
X38885000Y-70760000D01*
%TO.C,C3*%
X62938748Y-91015000D02*
X63461252Y-91015000D01*
X62938748Y-92485000D02*
X63461252Y-92485000D01*
%TO.C,R9*%
X71227064Y-79765000D02*
X70772936Y-79765000D01*
X71227064Y-81235000D02*
X70772936Y-81235000D01*
%TO.C,C14*%
X67765000Y-86561252D02*
X67765000Y-86038748D01*
X69235000Y-86561252D02*
X69235000Y-86038748D01*
%TO.C,U1*%
X59020000Y-82245000D02*
X59020000Y-81760000D01*
X59020000Y-86740000D02*
X59020000Y-86015000D01*
X59745000Y-81520000D02*
X59320000Y-81520000D01*
X59745000Y-86740000D02*
X59020000Y-86740000D01*
X63515000Y-81520000D02*
X64240000Y-81520000D01*
X63515000Y-86740000D02*
X64240000Y-86740000D01*
X64240000Y-81520000D02*
X64240000Y-82245000D01*
X64240000Y-86740000D02*
X64240000Y-86015000D01*
X59020000Y-81520000D02*
X58780000Y-81190000D01*
X59260000Y-81190000D01*
X59020000Y-81520000D01*
G36*
X59020000Y-81520000D02*
G01*
X58780000Y-81190000D01*
X59260000Y-81190000D01*
X59020000Y-81520000D01*
G37*
%TO.C,C29*%
X70515000Y-91938748D02*
X70515000Y-92461252D01*
X71985000Y-91938748D02*
X71985000Y-92461252D01*
%TO.C,C10*%
X66515000Y-70238748D02*
X66515000Y-70761252D01*
X67985000Y-70238748D02*
X67985000Y-70761252D01*
%TO.C,D2*%
X49110000Y-104650000D02*
X46450000Y-104650000D01*
X49110000Y-106350000D02*
X46450000Y-106350000D01*
X49110000Y-106350000D02*
X49110000Y-104650000D01*
%TO.C,C6*%
X78775000Y-111538748D02*
X78775000Y-112061252D01*
X80245000Y-111538748D02*
X80245000Y-112061252D01*
%TO.C,C8*%
X64265000Y-106761252D02*
X64265000Y-106238748D01*
X65735000Y-106761252D02*
X65735000Y-106238748D01*
%TO.C,R2*%
X63022936Y-88765000D02*
X63477064Y-88765000D01*
X63022936Y-90235000D02*
X63477064Y-90235000D01*
%TO.C,C24*%
X83488748Y-101015000D02*
X84011252Y-101015000D01*
X83488748Y-102485000D02*
X84011252Y-102485000D01*
%TO.C,C13*%
X87765000Y-75761252D02*
X87765000Y-75238748D01*
X89235000Y-75761252D02*
X89235000Y-75238748D01*
%TO.C,C18*%
X80238748Y-79015000D02*
X80761252Y-79015000D01*
X80238748Y-80485000D02*
X80761252Y-80485000D01*
%TO.C,C17*%
X80238748Y-77015000D02*
X80761252Y-77015000D01*
X80238748Y-78485000D02*
X80761252Y-78485000D01*
%TO.C,C11*%
X67261252Y-88765000D02*
X66738748Y-88765000D01*
X67261252Y-90235000D02*
X66738748Y-90235000D01*
%TO.C,C28*%
X110240000Y-89359420D02*
X110240000Y-89640580D01*
X111260000Y-89359420D02*
X111260000Y-89640580D01*
%TO.C,Y1*%
X66040000Y-98310000D02*
X69460000Y-98310000D01*
X69460000Y-98310000D02*
X69460000Y-94190000D01*
%TO.C,C26*%
X61140580Y-65490000D02*
X60859420Y-65490000D01*
X61140580Y-66510000D02*
X60859420Y-66510000D01*
%TO.C,U4*%
X91900000Y-80650000D02*
X108100000Y-80650000D01*
X91900000Y-96450000D02*
X91900000Y-96850000D01*
X91900000Y-96850000D02*
X108100000Y-96850000D01*
X108100000Y-80650000D02*
X108100000Y-81050000D01*
X108100000Y-96850000D02*
X108100000Y-96450000D01*
X91400000Y-80850000D02*
X91160000Y-80514000D01*
X91640000Y-80514000D01*
X91400000Y-80850000D01*
G36*
X91400000Y-80850000D02*
G01*
X91160000Y-80514000D01*
X91640000Y-80514000D01*
X91400000Y-80850000D01*
G37*
%TO.C,U2*%
X78365000Y-106000000D02*
X78365000Y-108000000D01*
X80635000Y-106000000D02*
X80635000Y-108000000D01*
X80830000Y-105480000D02*
X80550000Y-105480000D01*
X80550000Y-105200000D01*
X80830000Y-105480000D01*
G36*
X80830000Y-105480000D02*
G01*
X80550000Y-105480000D01*
X80550000Y-105200000D01*
X80830000Y-105480000D01*
G37*
%TO.C,AJ-SR04M1*%
X100310000Y-103380000D02*
X100310000Y-102000000D01*
X101690000Y-103380000D02*
X100310000Y-103380000D01*
X102960000Y-100620000D02*
X110690000Y-100620000D01*
X102960000Y-103380000D02*
X102960000Y-100620000D01*
X102960000Y-103380000D02*
X110690000Y-103380000D01*
X110690000Y-103380000D02*
X110690000Y-100620000D01*
%TO.C,TP11*%
X85050000Y-96800000D02*
X86450000Y-96800000D01*
X85050000Y-98200000D02*
X85050000Y-96800000D01*
X86450000Y-96800000D02*
X86450000Y-98200000D01*
X86450000Y-98200000D02*
X85050000Y-98200000D01*
%TO.C,C5*%
X58765000Y-101511252D02*
X58765000Y-100988748D01*
X60235000Y-101511252D02*
X60235000Y-100988748D01*
%TO.C,R11*%
X73515000Y-64227064D02*
X73515000Y-63772936D01*
X74985000Y-64227064D02*
X74985000Y-63772936D01*
%TO.C,Q1*%
X53000000Y-100940000D02*
X52350000Y-100940000D01*
X53000000Y-100940000D02*
X53650000Y-100940000D01*
X53000000Y-104060000D02*
X52350000Y-104060000D01*
X53000000Y-104060000D02*
X53650000Y-104060000D01*
X51837500Y-100990000D02*
X51597500Y-100660000D01*
X52077500Y-100660000D01*
X51837500Y-100990000D01*
G36*
X51837500Y-100990000D02*
G01*
X51597500Y-100660000D01*
X52077500Y-100660000D01*
X51837500Y-100990000D01*
G37*
%TO.C,C30*%
X77738748Y-98515000D02*
X78261252Y-98515000D01*
X77738748Y-99985000D02*
X78261252Y-99985000D01*
%TD*%
M02*
