%TF.GenerationSoftware,KiCad,Pcbnew,9.0.3*%
%TF.CreationDate,2025-12-22T17:44:04-03:00*%
%TF.ProjectId,V3,56332e6b-6963-4616-945f-706362585858,rev?*%
%TF.SameCoordinates,Original*%
%TF.FileFunction,Copper,L2,Inr*%
%TF.FilePolarity,Positive*%
%FSLAX46Y46*%
G04 Gerber Fmt 4.6, Leading zero omitted, Abs format (unit mm)*
G04 Created by KiCad (PCBNEW 9.0.3) date 2025-12-22 17:44:04*
%MOMM*%
%LPD*%
G01*
G04 APERTURE LIST*
G04 Aperture macros list*
%AMRoundRect*
0 Rectangle with rounded corners*
0 $1 Rounding radius*
0 $2 $3 $4 $5 $6 $7 $8 $9 X,Y pos of 4 corners*
0 Add a 4 corners polygon primitive as box body*
4,1,4,$2,$3,$4,$5,$6,$7,$8,$9,$2,$3,0*
0 Add four circle primitives for the rounded corners*
1,1,$1+$1,$2,$3*
1,1,$1+$1,$4,$5*
1,1,$1+$1,$6,$7*
1,1,$1+$1,$8,$9*
0 Add four rect primitives between the rounded corners*
20,1,$1+$1,$2,$3,$4,$5,0*
20,1,$1+$1,$4,$5,$6,$7,0*
20,1,$1+$1,$6,$7,$8,$9,0*
20,1,$1+$1,$8,$9,$2,$3,0*%
G04 Aperture macros list end*
%TA.AperFunction,ComponentPad*%
%ADD10C,0.700000*%
%TD*%
%TA.AperFunction,ComponentPad*%
%ADD11O,2.400000X0.900000*%
%TD*%
%TA.AperFunction,ComponentPad*%
%ADD12O,1.700000X0.900000*%
%TD*%
%TA.AperFunction,ComponentPad*%
%ADD13R,1.700000X1.700000*%
%TD*%
%TA.AperFunction,ComponentPad*%
%ADD14C,1.700000*%
%TD*%
%TA.AperFunction,ComponentPad*%
%ADD15RoundRect,0.250000X0.750000X-0.600000X0.750000X0.600000X-0.750000X0.600000X-0.750000X-0.600000X0*%
%TD*%
%TA.AperFunction,ComponentPad*%
%ADD16O,2.000000X1.700000*%
%TD*%
%TA.AperFunction,ViaPad*%
%ADD17C,0.600000*%
%TD*%
%TA.AperFunction,ViaPad*%
%ADD18C,0.800000*%
%TD*%
G04 APERTURE END LIST*
D10*
%TO.N,GND*%
%TO.C,J1*%
X41775000Y-92775000D03*
%TO.N,VDD_5V*%
X41775000Y-93625000D03*
%TO.N,Net-(J1-CC1)*%
X41775000Y-94475000D03*
%TO.N,Net-(J1-D+-PadA6)*%
X41775000Y-95325000D03*
%TO.N,Net-(J1-D--PadA7)*%
X41775000Y-96175000D03*
%TO.N,unconnected-(J1-SBU1-PadA8)*%
X41775000Y-97025000D03*
%TO.N,VDD_5V*%
X41775000Y-97875000D03*
%TO.N,GND*%
X41775000Y-98725000D03*
X40425000Y-98725000D03*
%TO.N,VDD_5V*%
X40425000Y-97875000D03*
%TO.N,Net-(J1-CC2)*%
X40425000Y-97025000D03*
%TO.N,Net-(J1-D+-PadA6)*%
X40425000Y-96175000D03*
%TO.N,Net-(J1-D--PadA7)*%
X40425000Y-95325000D03*
%TO.N,unconnected-(J1-SBU2-PadB8)*%
X40425000Y-94475000D03*
%TO.N,VDD_5V*%
X40425000Y-93625000D03*
%TO.N,GND*%
X40425000Y-92775000D03*
D11*
X40795000Y-91425000D03*
D12*
X37415000Y-91425000D03*
D11*
X40795000Y-100075000D03*
D12*
X37415000Y-100075000D03*
%TD*%
D13*
%TO.N,VDD_3V3*%
%TO.C,AJ-SR04M1*%
X101690000Y-102000000D03*
D14*
%TO.N,Net-(AJ-SR04M1-GND)*%
X104230000Y-102000000D03*
%TO.N,TRIG_Sensor*%
X106770000Y-102000000D03*
%TO.N,ECHO_Sensor*%
X109310000Y-102000000D03*
%TD*%
D15*
%TO.N,VBAT*%
%TO.C,BT1*%
X64717500Y-102000000D03*
D16*
%TO.N,GND*%
X64717500Y-99500000D03*
%TD*%
D17*
%TO.N,USER_KEY*%
X53500000Y-79250000D03*
X75750000Y-93750000D03*
%TO.N,RTS*%
X67000000Y-77750000D03*
X64250000Y-80750000D03*
%TO.N,CHIP_PU*%
X70500000Y-76250000D03*
X75000000Y-93250000D03*
D18*
%TO.N,VDD_3V3*%
X69850000Y-82750000D03*
X87050000Y-103730000D03*
D17*
X45500000Y-74587500D03*
X65087500Y-67500000D03*
X77000000Y-60500000D03*
D18*
X68500000Y-87250000D03*
X72500000Y-90500000D03*
D17*
X77250000Y-66912500D03*
D18*
X82750000Y-92800000D03*
X107500000Y-87750000D03*
X79510000Y-110800000D03*
X83000000Y-86500000D03*
X76500000Y-110750000D03*
%TO.N,GND*%
X56250000Y-83750000D03*
X40250000Y-68250000D03*
D17*
X68500000Y-85350000D03*
X64150000Y-91750000D03*
D18*
X41250000Y-63000000D03*
D17*
X75000000Y-76250000D03*
X77750000Y-87500000D03*
X72000000Y-98500000D03*
D18*
X38000000Y-63750000D03*
D17*
X60250000Y-66000000D03*
X75500000Y-85250000D03*
D18*
X114750000Y-97250000D03*
X57500000Y-96500000D03*
X43500000Y-60750000D03*
X116500000Y-95500000D03*
D17*
X66175000Y-87675000D03*
X49162500Y-94500000D03*
D18*
X39000000Y-62750000D03*
X60750000Y-104500000D03*
X40000000Y-61750000D03*
D17*
X75500000Y-87500000D03*
D18*
X113000000Y-97250000D03*
X67250000Y-110250000D03*
X70750000Y-99500000D03*
D17*
X70000000Y-80500000D03*
X77750000Y-85250000D03*
D18*
X110000000Y-95500000D03*
X82000000Y-105500000D03*
X40250000Y-65250000D03*
X79000000Y-101250000D03*
X83000000Y-99500000D03*
X111500000Y-95500000D03*
X45000000Y-101500000D03*
X116500000Y-97250000D03*
X47362500Y-91850000D03*
X118250000Y-95500000D03*
X42500000Y-62750000D03*
X114750000Y-95500000D03*
X111500000Y-97250000D03*
X41000000Y-61000000D03*
X77250000Y-104250000D03*
X87250000Y-94250000D03*
X81500000Y-111250000D03*
X106750000Y-97500000D03*
X108500000Y-97500000D03*
X40500000Y-64000000D03*
X40250000Y-66500000D03*
X118250000Y-97250000D03*
X89000000Y-105750000D03*
D17*
X40162500Y-83587500D03*
D18*
X42250000Y-60750000D03*
X61630000Y-84130000D03*
X113000000Y-95500000D03*
X110000000Y-97250000D03*
X43500000Y-62750000D03*
X105000000Y-109250000D03*
X38000000Y-65000000D03*
X89000000Y-100000000D03*
X38000000Y-66500000D03*
D17*
%TO.N,VDD_5V*%
X56662500Y-99587500D03*
X81500000Y-109750000D03*
X48500000Y-99587500D03*
X76250000Y-105500000D03*
%TO.N,PPS_GPS*%
X72375000Y-64875000D03*
X71912500Y-80500000D03*
%TO.N,Net-(U3-U0TXD)*%
X66250000Y-85075000D03*
X71000000Y-84750000D03*
%TO.N,AntOff_GPS*%
X80750000Y-58250000D03*
X45281899Y-63940100D03*
%TO.N,RX{slash}TXdone_LoRa*%
X107525000Y-85750000D03*
X86875000Y-85625000D03*
%TO.N,CADdetect_LoRa*%
X107525000Y-81750000D03*
X86750000Y-83000000D03*
%TO.N,Reset_GPS*%
X81750000Y-59500000D03*
X57250000Y-59500000D03*
%TO.N,RXtimeout_LoRa*%
X86501955Y-84096574D03*
X107525000Y-83750000D03*
%TO.N,Wake_GPS*%
X84500000Y-64750000D03*
X57750000Y-64500000D03*
D18*
%TO.N,VBatt*%
X98560000Y-68000000D03*
X57500000Y-63250000D03*
%TD*%
%TA.AperFunction,Conductor*%
%TO.N,GND*%
G36*
X123942539Y-55520185D02*
G01*
X123988294Y-55572989D01*
X123999500Y-55624500D01*
X123999500Y-114875500D01*
X123979815Y-114942539D01*
X123927011Y-114988294D01*
X123875500Y-114999500D01*
X34374500Y-114999500D01*
X34307461Y-114979815D01*
X34261706Y-114927011D01*
X34250500Y-114875500D01*
X34250500Y-111859568D01*
X34749500Y-111859568D01*
X34749500Y-112140431D01*
X34780942Y-112419494D01*
X34780945Y-112419512D01*
X34843439Y-112693317D01*
X34843443Y-112693329D01*
X34936200Y-112958411D01*
X35058053Y-113211442D01*
X35058055Y-113211445D01*
X35207477Y-113449248D01*
X35382584Y-113668825D01*
X35581175Y-113867416D01*
X35800752Y-114042523D01*
X36038555Y-114191945D01*
X36291592Y-114313801D01*
X36490680Y-114383465D01*
X36556670Y-114406556D01*
X36556682Y-114406560D01*
X36830491Y-114469055D01*
X36830497Y-114469055D01*
X36830505Y-114469057D01*
X37016547Y-114490018D01*
X37109569Y-114500499D01*
X37109572Y-114500500D01*
X37109575Y-114500500D01*
X37390428Y-114500500D01*
X37390429Y-114500499D01*
X37533055Y-114484429D01*
X37669494Y-114469057D01*
X37669499Y-114469056D01*
X37669509Y-114469055D01*
X37943318Y-114406560D01*
X38208408Y-114313801D01*
X38461445Y-114191945D01*
X38699248Y-114042523D01*
X38918825Y-113867416D01*
X39117416Y-113668825D01*
X39292523Y-113449248D01*
X39441945Y-113211445D01*
X39563801Y-112958408D01*
X39656560Y-112693318D01*
X39719055Y-112419509D01*
X39750500Y-112140425D01*
X39750500Y-111859575D01*
X39750499Y-111859568D01*
X118499500Y-111859568D01*
X118499500Y-112140431D01*
X118530942Y-112419494D01*
X118530945Y-112419512D01*
X118593439Y-112693317D01*
X118593443Y-112693329D01*
X118686200Y-112958411D01*
X118808053Y-113211442D01*
X118808055Y-113211445D01*
X118957477Y-113449248D01*
X119132584Y-113668825D01*
X119331175Y-113867416D01*
X119550752Y-114042523D01*
X119788555Y-114191945D01*
X120041592Y-114313801D01*
X120240680Y-114383465D01*
X120306670Y-114406556D01*
X120306682Y-114406560D01*
X120580491Y-114469055D01*
X120580497Y-114469055D01*
X120580505Y-114469057D01*
X120766547Y-114490018D01*
X120859569Y-114500499D01*
X120859572Y-114500500D01*
X120859575Y-114500500D01*
X121140428Y-114500500D01*
X121140429Y-114500499D01*
X121283055Y-114484429D01*
X121419494Y-114469057D01*
X121419499Y-114469056D01*
X121419509Y-114469055D01*
X121693318Y-114406560D01*
X121958408Y-114313801D01*
X122211445Y-114191945D01*
X122449248Y-114042523D01*
X122668825Y-113867416D01*
X122867416Y-113668825D01*
X123042523Y-113449248D01*
X123191945Y-113211445D01*
X123313801Y-112958408D01*
X123406560Y-112693318D01*
X123469055Y-112419509D01*
X123500500Y-112140425D01*
X123500500Y-111859575D01*
X123478678Y-111665894D01*
X123469057Y-111580505D01*
X123469054Y-111580487D01*
X123406560Y-111306682D01*
X123406556Y-111306670D01*
X123378517Y-111226540D01*
X123313801Y-111041592D01*
X123191945Y-110788555D01*
X123042523Y-110550752D01*
X122867416Y-110331175D01*
X122668825Y-110132584D01*
X122664555Y-110129179D01*
X122613060Y-110088113D01*
X122449248Y-109957477D01*
X122244534Y-109828846D01*
X122211442Y-109808053D01*
X121958411Y-109686200D01*
X121693329Y-109593443D01*
X121693317Y-109593439D01*
X121419512Y-109530945D01*
X121419494Y-109530942D01*
X121140431Y-109499500D01*
X121140425Y-109499500D01*
X120859575Y-109499500D01*
X120859568Y-109499500D01*
X120580505Y-109530942D01*
X120580487Y-109530945D01*
X120306682Y-109593439D01*
X120306670Y-109593443D01*
X120041588Y-109686200D01*
X119788557Y-109808053D01*
X119550753Y-109957476D01*
X119331175Y-110132583D01*
X119132583Y-110331175D01*
X118957476Y-110550753D01*
X118808053Y-110788557D01*
X118686200Y-111041588D01*
X118593443Y-111306670D01*
X118593439Y-111306682D01*
X118530945Y-111580487D01*
X118530942Y-111580505D01*
X118499500Y-111859568D01*
X39750499Y-111859568D01*
X39728678Y-111665894D01*
X39719057Y-111580505D01*
X39719054Y-111580487D01*
X39656560Y-111306682D01*
X39656556Y-111306670D01*
X39628517Y-111226540D01*
X39563801Y-111041592D01*
X39441945Y-110788555D01*
X39361988Y-110661304D01*
X75599500Y-110661304D01*
X75599500Y-110838695D01*
X75634103Y-111012658D01*
X75634106Y-111012667D01*
X75701983Y-111176540D01*
X75701990Y-111176553D01*
X75800535Y-111324034D01*
X75800538Y-111324038D01*
X75925961Y-111449461D01*
X75925965Y-111449464D01*
X76073446Y-111548009D01*
X76073459Y-111548016D01*
X76151896Y-111580505D01*
X76237334Y-111615894D01*
X76237336Y-111615894D01*
X76237341Y-111615896D01*
X76411304Y-111650499D01*
X76411307Y-111650500D01*
X76411309Y-111650500D01*
X76588693Y-111650500D01*
X76588694Y-111650499D01*
X76646682Y-111638964D01*
X76762658Y-111615896D01*
X76762661Y-111615894D01*
X76762666Y-111615894D01*
X76926547Y-111548013D01*
X77074035Y-111449464D01*
X77199464Y-111324035D01*
X77298013Y-111176547D01*
X77365894Y-111012666D01*
X77400500Y-110838691D01*
X77400500Y-110711304D01*
X78609500Y-110711304D01*
X78609500Y-110888695D01*
X78644103Y-111062658D01*
X78644106Y-111062667D01*
X78711983Y-111226540D01*
X78711990Y-111226553D01*
X78810535Y-111374034D01*
X78810538Y-111374038D01*
X78935961Y-111499461D01*
X78935965Y-111499464D01*
X79083446Y-111598009D01*
X79083459Y-111598016D01*
X79206363Y-111648923D01*
X79247334Y-111665894D01*
X79247336Y-111665894D01*
X79247341Y-111665896D01*
X79421304Y-111700499D01*
X79421307Y-111700500D01*
X79421309Y-111700500D01*
X79598693Y-111700500D01*
X79598694Y-111700499D01*
X79656682Y-111688964D01*
X79772658Y-111665896D01*
X79772661Y-111665894D01*
X79772666Y-111665894D01*
X79936547Y-111598013D01*
X80084035Y-111499464D01*
X80209464Y-111374035D01*
X80308013Y-111226547D01*
X80375894Y-111062666D01*
X80385840Y-111012667D01*
X80410499Y-110888695D01*
X80410500Y-110888693D01*
X80410500Y-110711306D01*
X80410499Y-110711304D01*
X80375896Y-110537341D01*
X80375893Y-110537332D01*
X80368605Y-110519738D01*
X80343609Y-110459390D01*
X80308016Y-110373459D01*
X80308009Y-110373446D01*
X80209464Y-110225965D01*
X80209461Y-110225961D01*
X80084038Y-110100538D01*
X80084034Y-110100535D01*
X79936553Y-110001990D01*
X79936540Y-110001983D01*
X79772667Y-109934106D01*
X79772658Y-109934103D01*
X79598694Y-109899500D01*
X79598691Y-109899500D01*
X79421309Y-109899500D01*
X79421306Y-109899500D01*
X79247341Y-109934103D01*
X79247332Y-109934106D01*
X79083459Y-110001983D01*
X79083446Y-110001990D01*
X78935965Y-110100535D01*
X78935961Y-110100538D01*
X78810538Y-110225961D01*
X78810535Y-110225965D01*
X78711990Y-110373446D01*
X78711983Y-110373459D01*
X78644106Y-110537332D01*
X78644103Y-110537341D01*
X78609500Y-110711304D01*
X77400500Y-110711304D01*
X77400500Y-110661309D01*
X77400500Y-110661306D01*
X77400499Y-110661304D01*
X77365896Y-110487341D01*
X77365893Y-110487332D01*
X77298016Y-110323459D01*
X77298009Y-110323446D01*
X77199464Y-110175965D01*
X77199461Y-110175961D01*
X77074038Y-110050538D01*
X77074034Y-110050535D01*
X76926553Y-109951990D01*
X76926540Y-109951983D01*
X76762667Y-109884106D01*
X76762658Y-109884103D01*
X76588694Y-109849500D01*
X76588691Y-109849500D01*
X76411309Y-109849500D01*
X76411306Y-109849500D01*
X76237341Y-109884103D01*
X76237332Y-109884106D01*
X76073459Y-109951983D01*
X76073446Y-109951990D01*
X75925965Y-110050535D01*
X75925961Y-110050538D01*
X75800538Y-110175961D01*
X75800535Y-110175965D01*
X75701990Y-110323446D01*
X75701983Y-110323459D01*
X75634106Y-110487332D01*
X75634103Y-110487341D01*
X75599500Y-110661304D01*
X39361988Y-110661304D01*
X39292523Y-110550752D01*
X39117416Y-110331175D01*
X38918825Y-110132584D01*
X38914555Y-110129179D01*
X38863060Y-110088113D01*
X38699248Y-109957477D01*
X38494534Y-109828846D01*
X38461442Y-109808053D01*
X38396515Y-109776786D01*
X38396513Y-109776784D01*
X38208419Y-109686203D01*
X38208411Y-109686200D01*
X38165410Y-109671153D01*
X80699500Y-109671153D01*
X80699500Y-109828846D01*
X80730261Y-109983489D01*
X80730264Y-109983501D01*
X80790602Y-110129172D01*
X80790609Y-110129185D01*
X80878210Y-110260288D01*
X80878213Y-110260292D01*
X80989707Y-110371786D01*
X80989711Y-110371789D01*
X81120814Y-110459390D01*
X81120827Y-110459397D01*
X81231219Y-110505122D01*
X81266503Y-110519737D01*
X81421153Y-110550499D01*
X81421156Y-110550500D01*
X81421158Y-110550500D01*
X81578844Y-110550500D01*
X81578845Y-110550499D01*
X81733497Y-110519737D01*
X81879179Y-110459394D01*
X82010289Y-110371789D01*
X82121789Y-110260289D01*
X82209394Y-110129179D01*
X82269737Y-109983497D01*
X82300500Y-109828842D01*
X82300500Y-109671158D01*
X82300500Y-109671155D01*
X82300499Y-109671153D01*
X82285041Y-109593440D01*
X82269737Y-109516503D01*
X82262694Y-109499500D01*
X82209397Y-109370827D01*
X82209390Y-109370814D01*
X82121789Y-109239711D01*
X82121786Y-109239707D01*
X82010292Y-109128213D01*
X82010288Y-109128210D01*
X81879185Y-109040609D01*
X81879172Y-109040602D01*
X81733501Y-108980264D01*
X81733489Y-108980261D01*
X81578845Y-108949500D01*
X81578842Y-108949500D01*
X81421158Y-108949500D01*
X81421155Y-108949500D01*
X81266510Y-108980261D01*
X81266498Y-108980264D01*
X81120827Y-109040602D01*
X81120814Y-109040609D01*
X80989711Y-109128210D01*
X80989707Y-109128213D01*
X80878213Y-109239707D01*
X80878210Y-109239711D01*
X80790609Y-109370814D01*
X80790602Y-109370827D01*
X80730264Y-109516498D01*
X80730261Y-109516510D01*
X80699500Y-109671153D01*
X38165410Y-109671153D01*
X37943329Y-109593443D01*
X37943317Y-109593439D01*
X37669512Y-109530945D01*
X37669494Y-109530942D01*
X37390431Y-109499500D01*
X37390425Y-109499500D01*
X37109575Y-109499500D01*
X37109568Y-109499500D01*
X36830505Y-109530942D01*
X36830487Y-109530945D01*
X36556682Y-109593439D01*
X36556670Y-109593443D01*
X36291588Y-109686200D01*
X36038557Y-109808053D01*
X35800753Y-109957476D01*
X35581175Y-110132583D01*
X35382583Y-110331175D01*
X35207476Y-110550753D01*
X35058053Y-110788557D01*
X34936200Y-111041588D01*
X34843443Y-111306670D01*
X34843439Y-111306682D01*
X34780945Y-111580487D01*
X34780942Y-111580505D01*
X34749500Y-111859568D01*
X34250500Y-111859568D01*
X34250500Y-105421153D01*
X75449500Y-105421153D01*
X75449500Y-105578846D01*
X75480261Y-105733489D01*
X75480264Y-105733501D01*
X75540602Y-105879172D01*
X75540609Y-105879185D01*
X75628210Y-106010288D01*
X75628213Y-106010292D01*
X75739707Y-106121786D01*
X75739711Y-106121789D01*
X75870814Y-106209390D01*
X75870827Y-106209397D01*
X76016498Y-106269735D01*
X76016503Y-106269737D01*
X76171153Y-106300499D01*
X76171156Y-106300500D01*
X76171158Y-106300500D01*
X76328844Y-106300500D01*
X76328845Y-106300499D01*
X76483497Y-106269737D01*
X76629179Y-106209394D01*
X76760289Y-106121789D01*
X76871789Y-106010289D01*
X76959394Y-105879179D01*
X77019737Y-105733497D01*
X77050500Y-105578842D01*
X77050500Y-105421158D01*
X77050500Y-105421155D01*
X77050499Y-105421153D01*
X77019738Y-105266510D01*
X77019737Y-105266503D01*
X77019735Y-105266498D01*
X76959397Y-105120827D01*
X76959390Y-105120814D01*
X76871789Y-104989711D01*
X76871786Y-104989707D01*
X76760292Y-104878213D01*
X76760288Y-104878210D01*
X76629185Y-104790609D01*
X76629172Y-104790602D01*
X76483501Y-104730264D01*
X76483489Y-104730261D01*
X76328845Y-104699500D01*
X76328842Y-104699500D01*
X76171158Y-104699500D01*
X76171155Y-104699500D01*
X76016510Y-104730261D01*
X76016498Y-104730264D01*
X75870827Y-104790602D01*
X75870814Y-104790609D01*
X75739711Y-104878210D01*
X75739707Y-104878213D01*
X75628213Y-104989707D01*
X75628210Y-104989711D01*
X75540609Y-105120814D01*
X75540602Y-105120827D01*
X75480264Y-105266498D01*
X75480261Y-105266510D01*
X75449500Y-105421153D01*
X34250500Y-105421153D01*
X34250500Y-103641304D01*
X86149500Y-103641304D01*
X86149500Y-103818695D01*
X86184103Y-103992658D01*
X86184106Y-103992667D01*
X86251983Y-104156540D01*
X86251990Y-104156553D01*
X86350535Y-104304034D01*
X86350538Y-104304038D01*
X86475961Y-104429461D01*
X86475965Y-104429464D01*
X86623446Y-104528009D01*
X86623459Y-104528016D01*
X86746363Y-104578923D01*
X86787334Y-104595894D01*
X86787336Y-104595894D01*
X86787341Y-104595896D01*
X86961304Y-104630499D01*
X86961307Y-104630500D01*
X86961309Y-104630500D01*
X87138693Y-104630500D01*
X87138694Y-104630499D01*
X87196682Y-104618964D01*
X87312658Y-104595896D01*
X87312661Y-104595894D01*
X87312666Y-104595894D01*
X87476547Y-104528013D01*
X87624035Y-104429464D01*
X87749464Y-104304035D01*
X87848013Y-104156547D01*
X87915894Y-103992666D01*
X87950500Y-103818691D01*
X87950500Y-103641309D01*
X87950500Y-103641306D01*
X87950499Y-103641304D01*
X87915896Y-103467341D01*
X87915893Y-103467332D01*
X87848016Y-103303459D01*
X87848009Y-103303446D01*
X87749464Y-103155965D01*
X87749461Y-103155961D01*
X87624038Y-103030538D01*
X87624034Y-103030535D01*
X87476553Y-102931990D01*
X87476540Y-102931983D01*
X87312667Y-102864106D01*
X87312658Y-102864103D01*
X87138694Y-102829500D01*
X87138691Y-102829500D01*
X86961309Y-102829500D01*
X86961306Y-102829500D01*
X86787341Y-102864103D01*
X86787332Y-102864106D01*
X86623459Y-102931983D01*
X86623446Y-102931990D01*
X86475965Y-103030535D01*
X86475961Y-103030538D01*
X86350538Y-103155961D01*
X86350535Y-103155965D01*
X86251990Y-103303446D01*
X86251983Y-103303459D01*
X86184106Y-103467332D01*
X86184103Y-103467341D01*
X86149500Y-103641304D01*
X34250500Y-103641304D01*
X34250500Y-101349983D01*
X63217000Y-101349983D01*
X63217000Y-102650001D01*
X63217001Y-102650018D01*
X63227500Y-102752796D01*
X63227501Y-102752799D01*
X63277931Y-102904984D01*
X63282686Y-102919334D01*
X63374788Y-103068656D01*
X63498844Y-103192712D01*
X63648166Y-103284814D01*
X63814703Y-103339999D01*
X63917491Y-103350500D01*
X65517508Y-103350499D01*
X65620297Y-103339999D01*
X65786834Y-103284814D01*
X65936156Y-103192712D01*
X66060212Y-103068656D01*
X66152314Y-102919334D01*
X66207499Y-102752797D01*
X66218000Y-102650009D01*
X66217999Y-101349992D01*
X66207499Y-101247203D01*
X66159428Y-101102135D01*
X100339500Y-101102135D01*
X100339500Y-102897870D01*
X100339501Y-102897876D01*
X100345908Y-102957483D01*
X100396202Y-103092328D01*
X100396206Y-103092335D01*
X100482452Y-103207544D01*
X100482455Y-103207547D01*
X100597664Y-103293793D01*
X100597671Y-103293797D01*
X100732517Y-103344091D01*
X100732516Y-103344091D01*
X100739444Y-103344835D01*
X100792127Y-103350500D01*
X102587872Y-103350499D01*
X102647483Y-103344091D01*
X102782331Y-103293796D01*
X102897546Y-103207546D01*
X102983796Y-103092331D01*
X103032810Y-102960916D01*
X103074681Y-102904984D01*
X103140145Y-102880566D01*
X103208418Y-102895417D01*
X103236673Y-102916569D01*
X103350213Y-103030109D01*
X103522179Y-103155048D01*
X103522181Y-103155049D01*
X103522184Y-103155051D01*
X103711588Y-103251557D01*
X103913757Y-103317246D01*
X104123713Y-103350500D01*
X104123714Y-103350500D01*
X104336286Y-103350500D01*
X104336287Y-103350500D01*
X104546243Y-103317246D01*
X104748412Y-103251557D01*
X104937816Y-103155051D01*
X105024138Y-103092335D01*
X105109786Y-103030109D01*
X105109788Y-103030106D01*
X105109792Y-103030104D01*
X105260104Y-102879792D01*
X105260106Y-102879788D01*
X105260109Y-102879786D01*
X105385048Y-102707820D01*
X105385047Y-102707820D01*
X105385051Y-102707816D01*
X105389514Y-102699054D01*
X105437488Y-102648259D01*
X105505308Y-102631463D01*
X105571444Y-102653999D01*
X105610486Y-102699056D01*
X105614951Y-102707820D01*
X105739890Y-102879786D01*
X105890213Y-103030109D01*
X106062179Y-103155048D01*
X106062181Y-103155049D01*
X106062184Y-103155051D01*
X106251588Y-103251557D01*
X106453757Y-103317246D01*
X106663713Y-103350500D01*
X106663714Y-103350500D01*
X106876286Y-103350500D01*
X106876287Y-103350500D01*
X107086243Y-103317246D01*
X107288412Y-103251557D01*
X107477816Y-103155051D01*
X107564138Y-103092335D01*
X107649786Y-103030109D01*
X107649788Y-103030106D01*
X107649792Y-103030104D01*
X107800104Y-102879792D01*
X107800106Y-102879788D01*
X107800109Y-102879786D01*
X107925048Y-102707820D01*
X107925047Y-102707820D01*
X107925051Y-102707816D01*
X107929514Y-102699054D01*
X107977488Y-102648259D01*
X108045308Y-102631463D01*
X108111444Y-102653999D01*
X108150486Y-102699056D01*
X108154951Y-102707820D01*
X108279890Y-102879786D01*
X108430213Y-103030109D01*
X108602179Y-103155048D01*
X108602181Y-103155049D01*
X108602184Y-103155051D01*
X108791588Y-103251557D01*
X108993757Y-103317246D01*
X109203713Y-103350500D01*
X109203714Y-103350500D01*
X109416286Y-103350500D01*
X109416287Y-103350500D01*
X109626243Y-103317246D01*
X109828412Y-103251557D01*
X110017816Y-103155051D01*
X110104138Y-103092335D01*
X110189786Y-103030109D01*
X110189788Y-103030106D01*
X110189792Y-103030104D01*
X110340104Y-102879792D01*
X110340106Y-102879788D01*
X110340109Y-102879786D01*
X110465048Y-102707820D01*
X110465047Y-102707820D01*
X110465051Y-102707816D01*
X110561557Y-102518412D01*
X110627246Y-102316243D01*
X110660500Y-102106287D01*
X110660500Y-101893713D01*
X110627246Y-101683757D01*
X110561557Y-101481588D01*
X110465051Y-101292184D01*
X110465049Y-101292181D01*
X110465048Y-101292179D01*
X110340109Y-101120213D01*
X110189786Y-100969890D01*
X110017820Y-100844951D01*
X109828414Y-100748444D01*
X109828413Y-100748443D01*
X109828412Y-100748443D01*
X109626243Y-100682754D01*
X109626241Y-100682753D01*
X109626240Y-100682753D01*
X109464957Y-100657208D01*
X109416287Y-100649500D01*
X109203713Y-100649500D01*
X109155042Y-100657208D01*
X108993760Y-100682753D01*
X108791585Y-100748444D01*
X108602179Y-100844951D01*
X108430213Y-100969890D01*
X108279890Y-101120213D01*
X108154949Y-101292182D01*
X108150484Y-101300946D01*
X108102509Y-101351742D01*
X108034688Y-101368536D01*
X107968553Y-101345998D01*
X107929516Y-101300946D01*
X107925050Y-101292182D01*
X107800109Y-101120213D01*
X107649786Y-100969890D01*
X107477820Y-100844951D01*
X107288414Y-100748444D01*
X107288413Y-100748443D01*
X107288412Y-100748443D01*
X107086243Y-100682754D01*
X107086241Y-100682753D01*
X107086240Y-100682753D01*
X106924957Y-100657208D01*
X106876287Y-100649500D01*
X106663713Y-100649500D01*
X106615042Y-100657208D01*
X106453760Y-100682753D01*
X106251585Y-100748444D01*
X106062179Y-100844951D01*
X105890213Y-100969890D01*
X105739890Y-101120213D01*
X105614949Y-101292182D01*
X105610484Y-101300946D01*
X105562509Y-101351742D01*
X105494688Y-101368536D01*
X105428553Y-101345998D01*
X105389516Y-101300946D01*
X105385050Y-101292182D01*
X105260109Y-101120213D01*
X105109786Y-100969890D01*
X104937820Y-100844951D01*
X104748414Y-100748444D01*
X104748413Y-100748443D01*
X104748412Y-100748443D01*
X104546243Y-100682754D01*
X104546241Y-100682753D01*
X104546240Y-100682753D01*
X104384957Y-100657208D01*
X104336287Y-100649500D01*
X104123713Y-100649500D01*
X104075042Y-100657208D01*
X103913760Y-100682753D01*
X103711585Y-100748444D01*
X103522179Y-100844951D01*
X103350215Y-100969889D01*
X103236673Y-101083431D01*
X103175350Y-101116915D01*
X103105658Y-101111931D01*
X103049725Y-101070059D01*
X103032810Y-101039082D01*
X102983797Y-100907671D01*
X102983793Y-100907664D01*
X102897547Y-100792455D01*
X102897544Y-100792452D01*
X102782335Y-100706206D01*
X102782328Y-100706202D01*
X102647482Y-100655908D01*
X102647483Y-100655908D01*
X102587883Y-100649501D01*
X102587881Y-100649500D01*
X102587873Y-100649500D01*
X102587864Y-100649500D01*
X100792129Y-100649500D01*
X100792123Y-100649501D01*
X100732516Y-100655908D01*
X100597671Y-100706202D01*
X100597664Y-100706206D01*
X100482455Y-100792452D01*
X100482452Y-100792455D01*
X100396206Y-100907664D01*
X100396202Y-100907671D01*
X100345908Y-101042517D01*
X100339501Y-101102116D01*
X100339500Y-101102135D01*
X66159428Y-101102135D01*
X66152314Y-101080666D01*
X66060212Y-100931344D01*
X65936156Y-100807288D01*
X65786834Y-100715186D01*
X65786832Y-100715185D01*
X65780940Y-100711551D01*
X65734216Y-100659603D01*
X65722993Y-100590641D01*
X65750837Y-100526558D01*
X65758356Y-100518330D01*
X65897228Y-100379458D01*
X66022120Y-100207557D01*
X66118595Y-100018217D01*
X66184257Y-99816129D01*
X66184257Y-99816126D01*
X66194731Y-99750000D01*
X65150512Y-99750000D01*
X65183425Y-99692993D01*
X65217500Y-99565826D01*
X65217500Y-99434174D01*
X65183425Y-99307007D01*
X65150512Y-99250000D01*
X66194731Y-99250000D01*
X66184257Y-99183873D01*
X66184257Y-99183870D01*
X66118595Y-98981782D01*
X66022120Y-98792442D01*
X65897227Y-98620540D01*
X65897223Y-98620535D01*
X65746964Y-98470276D01*
X65746959Y-98470272D01*
X65575057Y-98345379D01*
X65385717Y-98248904D01*
X65183629Y-98183242D01*
X64973746Y-98150000D01*
X64967500Y-98150000D01*
X64967500Y-99066988D01*
X64910493Y-99034075D01*
X64783326Y-99000000D01*
X64651674Y-99000000D01*
X64524507Y-99034075D01*
X64467500Y-99066988D01*
X64467500Y-98150000D01*
X64461254Y-98150000D01*
X64251372Y-98183242D01*
X64251369Y-98183242D01*
X64049282Y-98248904D01*
X63859942Y-98345379D01*
X63688040Y-98470272D01*
X63688035Y-98470276D01*
X63537776Y-98620535D01*
X63537772Y-98620540D01*
X63412879Y-98792442D01*
X63316404Y-98981782D01*
X63250742Y-99183870D01*
X63250742Y-99183873D01*
X63240269Y-99250000D01*
X64284488Y-99250000D01*
X64251575Y-99307007D01*
X64217500Y-99434174D01*
X64217500Y-99565826D01*
X64251575Y-99692993D01*
X64284488Y-99750000D01*
X63240269Y-99750000D01*
X63250742Y-99816126D01*
X63250742Y-99816129D01*
X63316404Y-100018217D01*
X63412879Y-100207557D01*
X63537772Y-100379459D01*
X63537776Y-100379464D01*
X63676643Y-100518331D01*
X63710128Y-100579654D01*
X63705144Y-100649346D01*
X63663272Y-100705279D01*
X63654059Y-100711551D01*
X63498842Y-100807289D01*
X63374789Y-100931342D01*
X63282687Y-101080663D01*
X63282685Y-101080668D01*
X63275574Y-101102128D01*
X63227501Y-101247203D01*
X63227501Y-101247204D01*
X63227500Y-101247204D01*
X63217000Y-101349983D01*
X34250500Y-101349983D01*
X34250500Y-99824999D01*
X36096115Y-99824999D01*
X36096116Y-99825000D01*
X36848012Y-99825000D01*
X36830795Y-99834940D01*
X36774940Y-99890795D01*
X36735444Y-99959204D01*
X36715000Y-100035504D01*
X36715000Y-100114496D01*
X36735444Y-100190796D01*
X36774940Y-100259205D01*
X36830795Y-100315060D01*
X36848012Y-100325000D01*
X36096116Y-100325000D01*
X36101506Y-100352100D01*
X36101507Y-100352103D01*
X36173119Y-100524991D01*
X36173124Y-100525000D01*
X36277086Y-100680589D01*
X36277089Y-100680593D01*
X36409406Y-100812910D01*
X36409410Y-100812913D01*
X36564999Y-100916875D01*
X36565008Y-100916880D01*
X36737894Y-100988491D01*
X36737902Y-100988493D01*
X36921428Y-101024999D01*
X36921431Y-101025000D01*
X37165000Y-101025000D01*
X37165000Y-100375000D01*
X37665000Y-100375000D01*
X37665000Y-101025000D01*
X37908569Y-101025000D01*
X37908571Y-101024999D01*
X38092097Y-100988493D01*
X38092105Y-100988491D01*
X38264991Y-100916880D01*
X38265000Y-100916875D01*
X38420589Y-100812913D01*
X38420593Y-100812910D01*
X38552910Y-100680593D01*
X38552913Y-100680589D01*
X38656875Y-100525000D01*
X38656880Y-100524991D01*
X38728492Y-100352103D01*
X38728493Y-100352100D01*
X38733884Y-100325000D01*
X37981988Y-100325000D01*
X37999205Y-100315060D01*
X38055060Y-100259205D01*
X38094556Y-100190796D01*
X38115000Y-100114496D01*
X38115000Y-100035504D01*
X38094556Y-99959204D01*
X38055060Y-99890795D01*
X37999205Y-99834940D01*
X37981988Y-99825000D01*
X38733884Y-99825000D01*
X38733884Y-99824999D01*
X38728493Y-99797899D01*
X38728492Y-99797896D01*
X38656880Y-99625008D01*
X38656875Y-99624999D01*
X38552913Y-99469410D01*
X38552910Y-99469406D01*
X38420593Y-99337089D01*
X38420589Y-99337086D01*
X38265000Y-99233124D01*
X38264991Y-99233119D01*
X38092105Y-99161508D01*
X38092097Y-99161506D01*
X37908570Y-99125000D01*
X37665000Y-99125000D01*
X37665000Y-99775000D01*
X37165000Y-99775000D01*
X37165000Y-99125000D01*
X36921430Y-99125000D01*
X36737902Y-99161506D01*
X36737894Y-99161508D01*
X36565008Y-99233119D01*
X36564999Y-99233124D01*
X36409410Y-99337086D01*
X36409406Y-99337089D01*
X36277089Y-99469406D01*
X36277086Y-99469410D01*
X36173124Y-99624999D01*
X36173119Y-99625008D01*
X36101507Y-99797896D01*
X36101506Y-99797899D01*
X36096115Y-99824999D01*
X34250500Y-99824999D01*
X34250500Y-91174999D01*
X36096115Y-91174999D01*
X36096116Y-91175000D01*
X36848012Y-91175000D01*
X36830795Y-91184940D01*
X36774940Y-91240795D01*
X36735444Y-91309204D01*
X36715000Y-91385504D01*
X36715000Y-91464496D01*
X36735444Y-91540796D01*
X36774940Y-91609205D01*
X36830795Y-91665060D01*
X36848012Y-91675000D01*
X36096116Y-91675000D01*
X36101506Y-91702100D01*
X36101507Y-91702103D01*
X36173119Y-91874991D01*
X36173124Y-91875000D01*
X36277086Y-92030589D01*
X36277089Y-92030593D01*
X36409406Y-92162910D01*
X36409410Y-92162913D01*
X36564999Y-92266875D01*
X36565008Y-92266880D01*
X36737894Y-92338491D01*
X36737902Y-92338493D01*
X36921428Y-92374999D01*
X36921431Y-92375000D01*
X37165000Y-92375000D01*
X37165000Y-91725000D01*
X37665000Y-91725000D01*
X37665000Y-92375000D01*
X37908569Y-92375000D01*
X37908571Y-92374999D01*
X38092097Y-92338493D01*
X38092105Y-92338491D01*
X38264991Y-92266880D01*
X38265000Y-92266875D01*
X38420589Y-92162913D01*
X38420593Y-92162910D01*
X38552910Y-92030593D01*
X38552913Y-92030589D01*
X38656875Y-91875000D01*
X38656880Y-91874991D01*
X38728492Y-91702103D01*
X38728493Y-91702100D01*
X38733884Y-91675000D01*
X37981988Y-91675000D01*
X37999205Y-91665060D01*
X38055060Y-91609205D01*
X38094556Y-91540796D01*
X38115000Y-91464496D01*
X38115000Y-91385504D01*
X38094556Y-91309204D01*
X38055060Y-91240795D01*
X37999205Y-91184940D01*
X37981988Y-91175000D01*
X38733884Y-91175000D01*
X38733884Y-91174999D01*
X39126115Y-91174999D01*
X39126116Y-91175000D01*
X39878012Y-91175000D01*
X39860795Y-91184940D01*
X39804940Y-91240795D01*
X39765444Y-91309204D01*
X39745000Y-91385504D01*
X39745000Y-91464496D01*
X39765444Y-91540796D01*
X39804940Y-91609205D01*
X39860795Y-91665060D01*
X39878012Y-91675000D01*
X39126116Y-91675000D01*
X39131506Y-91702100D01*
X39131507Y-91702103D01*
X39203119Y-91874991D01*
X39203124Y-91875000D01*
X39307086Y-92030589D01*
X39307089Y-92030593D01*
X39439406Y-92162910D01*
X39439410Y-92162913D01*
X39600071Y-92270264D01*
X39599333Y-92271367D01*
X39644324Y-92315546D01*
X39659796Y-92383681D01*
X39650598Y-92423413D01*
X39607666Y-92527059D01*
X39607663Y-92527071D01*
X39575000Y-92691277D01*
X39575000Y-92858722D01*
X39607663Y-93022928D01*
X39607665Y-93022936D01*
X39661081Y-93151893D01*
X39668550Y-93221363D01*
X39661081Y-93246799D01*
X39607184Y-93376917D01*
X39607182Y-93376925D01*
X39574500Y-93541228D01*
X39574500Y-93708771D01*
X39607182Y-93873074D01*
X39607185Y-93873086D01*
X39660810Y-94002548D01*
X39668279Y-94072017D01*
X39660810Y-94097452D01*
X39607185Y-94226913D01*
X39607182Y-94226925D01*
X39574500Y-94391228D01*
X39574500Y-94558771D01*
X39607182Y-94723074D01*
X39607185Y-94723086D01*
X39660810Y-94852548D01*
X39668279Y-94922017D01*
X39660810Y-94947452D01*
X39607185Y-95076913D01*
X39607182Y-95076925D01*
X39574500Y-95241228D01*
X39574500Y-95408771D01*
X39607182Y-95573074D01*
X39607185Y-95573086D01*
X39660810Y-95702548D01*
X39668279Y-95772017D01*
X39660810Y-95797452D01*
X39607185Y-95926913D01*
X39607182Y-95926925D01*
X39574500Y-96091228D01*
X39574500Y-96258771D01*
X39607182Y-96423074D01*
X39607185Y-96423086D01*
X39660810Y-96552548D01*
X39668279Y-96622017D01*
X39660810Y-96647452D01*
X39607185Y-96776913D01*
X39607182Y-96776925D01*
X39574500Y-96941228D01*
X39574500Y-97108771D01*
X39607182Y-97273074D01*
X39607185Y-97273086D01*
X39660810Y-97402548D01*
X39668279Y-97472017D01*
X39660810Y-97497452D01*
X39607185Y-97626913D01*
X39607182Y-97626925D01*
X39574500Y-97791228D01*
X39574500Y-97958771D01*
X39607182Y-98123074D01*
X39607184Y-98123082D01*
X39661081Y-98253201D01*
X39668550Y-98322671D01*
X39661081Y-98348107D01*
X39607665Y-98477063D01*
X39607663Y-98477071D01*
X39575000Y-98641277D01*
X39575000Y-98808722D01*
X39607663Y-98972928D01*
X39607666Y-98972940D01*
X39650597Y-99076586D01*
X39658066Y-99146056D01*
X39626790Y-99208535D01*
X39599790Y-99229316D01*
X39600071Y-99229736D01*
X39439410Y-99337086D01*
X39439406Y-99337089D01*
X39307089Y-99469406D01*
X39307086Y-99469410D01*
X39203124Y-99624999D01*
X39203119Y-99625008D01*
X39131507Y-99797896D01*
X39131506Y-99797899D01*
X39126115Y-99824999D01*
X39126116Y-99825000D01*
X39878012Y-99825000D01*
X39860795Y-99834940D01*
X39804940Y-99890795D01*
X39765444Y-99959204D01*
X39745000Y-100035504D01*
X39745000Y-100114496D01*
X39765444Y-100190796D01*
X39804940Y-100259205D01*
X39860795Y-100315060D01*
X39878012Y-100325000D01*
X39126116Y-100325000D01*
X39131506Y-100352100D01*
X39131507Y-100352103D01*
X39203119Y-100524991D01*
X39203124Y-100525000D01*
X39307086Y-100680589D01*
X39307089Y-100680593D01*
X39439406Y-100812910D01*
X39439410Y-100812913D01*
X39594999Y-100916875D01*
X39595008Y-100916880D01*
X39767894Y-100988491D01*
X39767902Y-100988493D01*
X39951428Y-101024999D01*
X39951431Y-101025000D01*
X40545000Y-101025000D01*
X40545000Y-100375000D01*
X41045000Y-100375000D01*
X41045000Y-101025000D01*
X41638569Y-101025000D01*
X41638571Y-101024999D01*
X41822097Y-100988493D01*
X41822105Y-100988491D01*
X41994991Y-100916880D01*
X41995000Y-100916875D01*
X42150589Y-100812913D01*
X42150593Y-100812910D01*
X42282910Y-100680593D01*
X42282913Y-100680589D01*
X42386875Y-100525000D01*
X42386880Y-100524991D01*
X42458492Y-100352103D01*
X42458493Y-100352100D01*
X42463884Y-100325000D01*
X41711988Y-100325000D01*
X41729205Y-100315060D01*
X41785060Y-100259205D01*
X41824556Y-100190796D01*
X41845000Y-100114496D01*
X41845000Y-100035504D01*
X41824556Y-99959204D01*
X41785060Y-99890795D01*
X41729205Y-99834940D01*
X41711988Y-99825000D01*
X42463884Y-99825000D01*
X42463884Y-99824999D01*
X42458493Y-99797899D01*
X42458492Y-99797896D01*
X42386880Y-99625008D01*
X42386875Y-99624999D01*
X42369157Y-99598483D01*
X42236322Y-99531172D01*
X42227129Y-99522528D01*
X42215429Y-99517804D01*
X42205151Y-99508653D01*
X47699500Y-99508653D01*
X47699500Y-99666346D01*
X47730261Y-99820989D01*
X47730264Y-99821001D01*
X47790602Y-99966672D01*
X47790609Y-99966685D01*
X47878210Y-100097788D01*
X47878213Y-100097792D01*
X47989707Y-100209286D01*
X47989711Y-100209289D01*
X48120814Y-100296890D01*
X48120827Y-100296897D01*
X48188675Y-100325000D01*
X48266503Y-100357237D01*
X48378215Y-100379458D01*
X48421153Y-100387999D01*
X48421156Y-100388000D01*
X48421158Y-100388000D01*
X48578844Y-100388000D01*
X48578845Y-100387999D01*
X48733497Y-100357237D01*
X48879179Y-100296894D01*
X49010289Y-100209289D01*
X49121789Y-100097789D01*
X49209394Y-99966679D01*
X49269737Y-99820997D01*
X49300500Y-99666342D01*
X49300500Y-99508658D01*
X49300500Y-99508655D01*
X49300499Y-99508653D01*
X55862000Y-99508653D01*
X55862000Y-99666346D01*
X55892761Y-99820989D01*
X55892764Y-99821001D01*
X55953102Y-99966672D01*
X55953109Y-99966685D01*
X56040710Y-100097788D01*
X56040713Y-100097792D01*
X56152207Y-100209286D01*
X56152211Y-100209289D01*
X56283314Y-100296890D01*
X56283327Y-100296897D01*
X56351175Y-100325000D01*
X56429003Y-100357237D01*
X56540715Y-100379458D01*
X56583653Y-100387999D01*
X56583656Y-100388000D01*
X56583658Y-100388000D01*
X56741344Y-100388000D01*
X56741345Y-100387999D01*
X56895997Y-100357237D01*
X57041679Y-100296894D01*
X57172789Y-100209289D01*
X57284289Y-100097789D01*
X57371894Y-99966679D01*
X57432237Y-99820997D01*
X57463000Y-99666342D01*
X57463000Y-99508658D01*
X57463000Y-99508655D01*
X57462999Y-99508653D01*
X57432238Y-99354010D01*
X57432237Y-99354003D01*
X57371983Y-99208535D01*
X57371895Y-99208323D01*
X57371890Y-99208314D01*
X57284289Y-99077211D01*
X57284286Y-99077207D01*
X57172792Y-98965713D01*
X57172788Y-98965710D01*
X57041685Y-98878109D01*
X57041672Y-98878102D01*
X56896001Y-98817764D01*
X56895989Y-98817761D01*
X56741345Y-98787000D01*
X56741342Y-98787000D01*
X56583658Y-98787000D01*
X56583655Y-98787000D01*
X56429010Y-98817761D01*
X56428998Y-98817764D01*
X56283327Y-98878102D01*
X56283314Y-98878109D01*
X56152211Y-98965710D01*
X56152207Y-98965713D01*
X56040713Y-99077207D01*
X56040710Y-99077211D01*
X55953109Y-99208314D01*
X55953102Y-99208327D01*
X55892764Y-99353998D01*
X55892761Y-99354010D01*
X55862000Y-99508653D01*
X49300499Y-99508653D01*
X49269738Y-99354010D01*
X49269737Y-99354003D01*
X49261665Y-99334515D01*
X49209397Y-99208327D01*
X49209390Y-99208314D01*
X49121789Y-99077211D01*
X49121786Y-99077207D01*
X49010292Y-98965713D01*
X49010288Y-98965710D01*
X48879185Y-98878109D01*
X48879172Y-98878102D01*
X48733501Y-98817764D01*
X48733489Y-98817761D01*
X48578845Y-98787000D01*
X48578842Y-98787000D01*
X48421158Y-98787000D01*
X48421155Y-98787000D01*
X48266510Y-98817761D01*
X48266498Y-98817764D01*
X48120827Y-98878102D01*
X48120814Y-98878109D01*
X47989711Y-98965710D01*
X47989707Y-98965713D01*
X47878213Y-99077207D01*
X47878210Y-99077211D01*
X47790609Y-99208314D01*
X47790602Y-99208327D01*
X47730264Y-99353998D01*
X47730261Y-99354010D01*
X47699500Y-99508653D01*
X42205151Y-99508653D01*
X42204690Y-99508243D01*
X41775000Y-99078553D01*
X41346493Y-99507060D01*
X41285170Y-99540545D01*
X41215478Y-99535561D01*
X41171131Y-99507060D01*
X41100000Y-99435929D01*
X41028868Y-99507061D01*
X40967545Y-99540545D01*
X40897853Y-99535561D01*
X40853506Y-99507060D01*
X40335904Y-98989457D01*
X40331565Y-98981511D01*
X40324317Y-98976085D01*
X40315082Y-98951325D01*
X40302419Y-98928134D01*
X40303064Y-98919103D01*
X40299901Y-98910621D01*
X40304881Y-98887724D01*
X40311709Y-98894552D01*
X40385218Y-98925000D01*
X40464782Y-98925000D01*
X40538291Y-98894552D01*
X40594552Y-98838291D01*
X40625000Y-98764782D01*
X40625000Y-98702380D01*
X40669204Y-98693587D01*
X40738795Y-98699814D01*
X40781076Y-98727523D01*
X41100000Y-99046446D01*
X41100001Y-99046446D01*
X41418923Y-98727523D01*
X41480246Y-98694038D01*
X41530794Y-98693587D01*
X41575000Y-98702380D01*
X41575000Y-98764782D01*
X41605448Y-98838291D01*
X41661709Y-98894552D01*
X41735218Y-98925000D01*
X41814782Y-98925000D01*
X41888291Y-98894552D01*
X41944552Y-98838291D01*
X41975000Y-98764782D01*
X41975000Y-98702380D01*
X42019205Y-98693587D01*
X42088796Y-98699814D01*
X42131077Y-98727523D01*
X42529114Y-99125561D01*
X42592334Y-98972936D01*
X42592336Y-98972928D01*
X42624999Y-98808722D01*
X42625000Y-98808720D01*
X42625000Y-98641279D01*
X42624999Y-98641277D01*
X42592336Y-98477071D01*
X42592334Y-98477063D01*
X42538918Y-98348105D01*
X42531449Y-98278636D01*
X42538913Y-98253211D01*
X42592816Y-98123082D01*
X42625500Y-97958767D01*
X42625500Y-97791233D01*
X42592816Y-97626918D01*
X42539188Y-97497451D01*
X42531720Y-97427984D01*
X42539189Y-97402547D01*
X42592816Y-97273082D01*
X42602380Y-97225000D01*
X120735000Y-97225000D01*
X122825000Y-97225000D01*
X122825000Y-95325000D01*
X120735000Y-95325000D01*
X120735000Y-97225000D01*
X42602380Y-97225000D01*
X42625500Y-97108767D01*
X42625500Y-96941233D01*
X42592816Y-96776918D01*
X42539188Y-96647451D01*
X42531720Y-96577984D01*
X42539189Y-96552547D01*
X42592816Y-96423082D01*
X42625500Y-96258767D01*
X42625500Y-96091233D01*
X42592816Y-95926918D01*
X42539188Y-95797451D01*
X42531720Y-95727984D01*
X42539189Y-95702547D01*
X42592816Y-95573082D01*
X42625500Y-95408767D01*
X42625500Y-95241233D01*
X42592816Y-95076918D01*
X42539188Y-94947451D01*
X42531720Y-94877984D01*
X42539189Y-94852547D01*
X42592816Y-94723082D01*
X42625500Y-94558767D01*
X42625500Y-94391233D01*
X42592816Y-94226918D01*
X42539188Y-94097451D01*
X42531720Y-94027984D01*
X42539189Y-94002547D01*
X42592816Y-93873082D01*
X42625500Y-93708767D01*
X42625500Y-93541233D01*
X42592816Y-93376918D01*
X42538917Y-93246797D01*
X42535637Y-93216284D01*
X42530190Y-93186089D01*
X42531738Y-93180022D01*
X42531449Y-93177330D01*
X42533263Y-93171153D01*
X74199500Y-93171153D01*
X74199500Y-93328846D01*
X74230261Y-93483489D01*
X74230264Y-93483501D01*
X74290602Y-93629172D01*
X74290609Y-93629185D01*
X74378210Y-93760288D01*
X74378213Y-93760292D01*
X74489707Y-93871786D01*
X74489711Y-93871789D01*
X74620814Y-93959390D01*
X74620827Y-93959397D01*
X74766498Y-94019735D01*
X74766503Y-94019737D01*
X74918644Y-94050000D01*
X74921153Y-94050499D01*
X74921156Y-94050500D01*
X74921158Y-94050500D01*
X74925162Y-94050500D01*
X74927183Y-94051093D01*
X74927218Y-94051097D01*
X74927217Y-94051103D01*
X74992201Y-94070185D01*
X75037956Y-94122989D01*
X75039715Y-94127029D01*
X75040606Y-94129179D01*
X75040607Y-94129180D01*
X75040609Y-94129185D01*
X75128210Y-94260288D01*
X75128213Y-94260292D01*
X75239707Y-94371786D01*
X75239711Y-94371789D01*
X75370814Y-94459390D01*
X75370827Y-94459397D01*
X75516498Y-94519735D01*
X75516503Y-94519737D01*
X75671153Y-94550499D01*
X75671156Y-94550500D01*
X75671158Y-94550500D01*
X75828844Y-94550500D01*
X75828845Y-94550499D01*
X75983497Y-94519737D01*
X76129179Y-94459394D01*
X76260289Y-94371789D01*
X76371789Y-94260289D01*
X76459394Y-94129179D01*
X76460276Y-94127051D01*
X76501360Y-94027863D01*
X76519737Y-93983497D01*
X76550500Y-93828842D01*
X76550500Y-93671158D01*
X76550500Y-93671155D01*
X76550499Y-93671153D01*
X76535950Y-93598013D01*
X76519737Y-93516503D01*
X76506062Y-93483489D01*
X76459397Y-93370827D01*
X76459390Y-93370814D01*
X76371789Y-93239711D01*
X76371786Y-93239707D01*
X76260292Y-93128213D01*
X76260288Y-93128210D01*
X76129185Y-93040609D01*
X76129172Y-93040602D01*
X75983501Y-92980264D01*
X75983489Y-92980261D01*
X75828845Y-92949500D01*
X75828842Y-92949500D01*
X75824838Y-92949500D01*
X75822816Y-92948906D01*
X75822782Y-92948903D01*
X75822782Y-92948896D01*
X75757799Y-92929815D01*
X75720389Y-92892331D01*
X75714475Y-92883089D01*
X75709394Y-92870821D01*
X75644110Y-92773116D01*
X75644091Y-92773087D01*
X75621789Y-92739711D01*
X75621786Y-92739707D01*
X75593383Y-92711304D01*
X81849500Y-92711304D01*
X81849500Y-92888695D01*
X81884103Y-93062658D01*
X81884106Y-93062667D01*
X81951983Y-93226540D01*
X81951990Y-93226553D01*
X82050535Y-93374034D01*
X82050538Y-93374038D01*
X82175961Y-93499461D01*
X82175965Y-93499464D01*
X82323446Y-93598009D01*
X82323459Y-93598016D01*
X82446363Y-93648923D01*
X82487334Y-93665894D01*
X82487336Y-93665894D01*
X82487341Y-93665896D01*
X82661304Y-93700499D01*
X82661307Y-93700500D01*
X82661309Y-93700500D01*
X82838693Y-93700500D01*
X82838694Y-93700499D01*
X82896682Y-93688964D01*
X83012658Y-93665896D01*
X83012661Y-93665894D01*
X83012666Y-93665894D01*
X83176547Y-93598013D01*
X83324035Y-93499464D01*
X83449464Y-93374035D01*
X83548013Y-93226547D01*
X83615894Y-93062666D01*
X83620282Y-93040609D01*
X83650499Y-92888695D01*
X83650500Y-92888693D01*
X83650500Y-92711306D01*
X83650499Y-92711304D01*
X83615896Y-92537341D01*
X83615893Y-92537332D01*
X83604796Y-92510542D01*
X83581191Y-92453553D01*
X83548016Y-92373459D01*
X83548009Y-92373446D01*
X83449464Y-92225965D01*
X83449461Y-92225961D01*
X83324038Y-92100538D01*
X83324034Y-92100535D01*
X83176553Y-92001990D01*
X83176540Y-92001983D01*
X83012667Y-91934106D01*
X83012658Y-91934103D01*
X82838694Y-91899500D01*
X82838691Y-91899500D01*
X82661309Y-91899500D01*
X82661306Y-91899500D01*
X82487341Y-91934103D01*
X82487332Y-91934106D01*
X82323459Y-92001983D01*
X82323446Y-92001990D01*
X82175965Y-92100535D01*
X82175961Y-92100538D01*
X82050538Y-92225961D01*
X82050535Y-92225965D01*
X81951990Y-92373446D01*
X81951983Y-92373459D01*
X81884106Y-92537332D01*
X81884103Y-92537341D01*
X81849500Y-92711304D01*
X75593383Y-92711304D01*
X75510292Y-92628213D01*
X75510288Y-92628210D01*
X75379185Y-92540609D01*
X75379172Y-92540602D01*
X75233501Y-92480264D01*
X75233489Y-92480261D01*
X75078845Y-92449500D01*
X75078842Y-92449500D01*
X74921158Y-92449500D01*
X74921155Y-92449500D01*
X74766510Y-92480261D01*
X74766498Y-92480264D01*
X74620827Y-92540602D01*
X74620814Y-92540609D01*
X74489711Y-92628210D01*
X74489707Y-92628213D01*
X74378213Y-92739707D01*
X74378210Y-92739711D01*
X74290609Y-92870814D01*
X74290602Y-92870827D01*
X74230264Y-93016498D01*
X74230261Y-93016510D01*
X74199500Y-93171153D01*
X42533263Y-93171153D01*
X42538919Y-93151891D01*
X42553119Y-93117611D01*
X42592334Y-93022936D01*
X42592336Y-93022928D01*
X42624999Y-92858722D01*
X42625000Y-92858720D01*
X42625000Y-92691279D01*
X42624999Y-92691277D01*
X42592336Y-92527071D01*
X42592334Y-92527063D01*
X42529114Y-92374437D01*
X42131076Y-92772476D01*
X42069753Y-92805961D01*
X42019204Y-92806412D01*
X41975000Y-92797619D01*
X41975000Y-92735218D01*
X41944552Y-92661709D01*
X41888291Y-92605448D01*
X41814782Y-92575000D01*
X41735218Y-92575000D01*
X41661709Y-92605448D01*
X41605448Y-92661709D01*
X41575000Y-92735218D01*
X41575000Y-92797618D01*
X41530794Y-92806412D01*
X41461202Y-92800185D01*
X41418922Y-92772476D01*
X41100001Y-92453553D01*
X41100000Y-92453553D01*
X40781076Y-92772476D01*
X40776314Y-92775075D01*
X40773319Y-92779601D01*
X40745972Y-92791643D01*
X40719753Y-92805961D01*
X40713020Y-92806155D01*
X40709375Y-92807761D01*
X40685380Y-92806955D01*
X40674084Y-92807282D01*
X40671628Y-92806894D01*
X40625000Y-92797619D01*
X40625000Y-92735218D01*
X40594552Y-92661709D01*
X40538291Y-92605448D01*
X40464782Y-92575000D01*
X40385218Y-92575000D01*
X40311709Y-92605448D01*
X40303177Y-92613979D01*
X40307403Y-92554889D01*
X40335904Y-92510542D01*
X40853506Y-91992939D01*
X40914829Y-91959454D01*
X40984520Y-91964438D01*
X41028868Y-91992938D01*
X41100000Y-92064069D01*
X41171131Y-91992939D01*
X41232454Y-91959454D01*
X41302146Y-91964438D01*
X41346493Y-91992939D01*
X41774999Y-92421445D01*
X42204690Y-91991755D01*
X42266013Y-91958270D01*
X42280218Y-91956033D01*
X42336428Y-91950497D01*
X42386880Y-91874991D01*
X42458492Y-91702103D01*
X42458493Y-91702100D01*
X42463884Y-91675000D01*
X41711988Y-91675000D01*
X41729205Y-91665060D01*
X41785060Y-91609205D01*
X41824556Y-91540796D01*
X41845000Y-91464496D01*
X41845000Y-91385504D01*
X41824556Y-91309204D01*
X41785060Y-91240795D01*
X41729205Y-91184940D01*
X41711988Y-91175000D01*
X42463884Y-91175000D01*
X42463884Y-91174999D01*
X42458493Y-91147899D01*
X42458492Y-91147896D01*
X42386880Y-90975008D01*
X42386875Y-90974999D01*
X42282913Y-90819410D01*
X42282910Y-90819406D01*
X42150593Y-90687089D01*
X42150589Y-90687086D01*
X41995000Y-90583124D01*
X41994991Y-90583119D01*
X41842070Y-90519778D01*
X41822105Y-90511508D01*
X41822097Y-90511506D01*
X41638570Y-90475000D01*
X41045000Y-90475000D01*
X41045000Y-91125000D01*
X40545000Y-91125000D01*
X40545000Y-90475000D01*
X39951430Y-90475000D01*
X39767902Y-90511506D01*
X39767894Y-90511508D01*
X39595008Y-90583119D01*
X39594999Y-90583124D01*
X39439410Y-90687086D01*
X39439406Y-90687089D01*
X39307089Y-90819406D01*
X39307086Y-90819410D01*
X39203124Y-90974999D01*
X39203119Y-90975008D01*
X39131507Y-91147896D01*
X39131506Y-91147899D01*
X39126115Y-91174999D01*
X38733884Y-91174999D01*
X38728493Y-91147899D01*
X38728492Y-91147896D01*
X38656880Y-90975008D01*
X38656875Y-90974999D01*
X38552913Y-90819410D01*
X38552910Y-90819406D01*
X38420593Y-90687089D01*
X38420589Y-90687086D01*
X38265000Y-90583124D01*
X38264991Y-90583119D01*
X38092105Y-90511508D01*
X38092097Y-90511506D01*
X37908570Y-90475000D01*
X37665000Y-90475000D01*
X37665000Y-91125000D01*
X37165000Y-91125000D01*
X37165000Y-90475000D01*
X36921430Y-90475000D01*
X36737902Y-90511506D01*
X36737894Y-90511508D01*
X36565008Y-90583119D01*
X36564999Y-90583124D01*
X36409410Y-90687086D01*
X36409406Y-90687089D01*
X36277089Y-90819406D01*
X36277086Y-90819410D01*
X36173124Y-90974999D01*
X36173119Y-90975008D01*
X36101507Y-91147896D01*
X36101506Y-91147899D01*
X36096115Y-91174999D01*
X34250500Y-91174999D01*
X34250500Y-90411304D01*
X71599500Y-90411304D01*
X71599500Y-90588695D01*
X71634103Y-90762658D01*
X71634106Y-90762667D01*
X71701983Y-90926540D01*
X71701990Y-90926553D01*
X71800535Y-91074034D01*
X71800538Y-91074038D01*
X71925961Y-91199461D01*
X71925965Y-91199464D01*
X72073446Y-91298009D01*
X72073459Y-91298016D01*
X72196363Y-91348923D01*
X72237334Y-91365894D01*
X72237336Y-91365894D01*
X72237341Y-91365896D01*
X72411304Y-91400499D01*
X72411307Y-91400500D01*
X72411309Y-91400500D01*
X72588693Y-91400500D01*
X72588694Y-91400499D01*
X72664081Y-91385504D01*
X72762658Y-91365896D01*
X72762661Y-91365894D01*
X72762666Y-91365894D01*
X72926547Y-91298013D01*
X73074035Y-91199464D01*
X73199464Y-91074035D01*
X73298013Y-90926547D01*
X73365894Y-90762666D01*
X73400500Y-90588691D01*
X73400500Y-90411309D01*
X73400500Y-90411306D01*
X73400499Y-90411304D01*
X73365896Y-90237341D01*
X73365893Y-90237332D01*
X73298016Y-90073459D01*
X73298009Y-90073446D01*
X73199464Y-89925965D01*
X73199461Y-89925961D01*
X73074038Y-89800538D01*
X73074034Y-89800535D01*
X72926553Y-89701990D01*
X72926540Y-89701983D01*
X72762667Y-89634106D01*
X72762658Y-89634103D01*
X72588694Y-89599500D01*
X72588691Y-89599500D01*
X72411309Y-89599500D01*
X72411306Y-89599500D01*
X72237341Y-89634103D01*
X72237332Y-89634106D01*
X72073459Y-89701983D01*
X72073446Y-89701990D01*
X71925965Y-89800535D01*
X71925961Y-89800538D01*
X71800538Y-89925961D01*
X71800535Y-89925965D01*
X71701990Y-90073446D01*
X71701983Y-90073459D01*
X71634106Y-90237332D01*
X71634103Y-90237341D01*
X71599500Y-90411304D01*
X34250500Y-90411304D01*
X34250500Y-87161304D01*
X67599500Y-87161304D01*
X67599500Y-87338695D01*
X67634103Y-87512658D01*
X67634106Y-87512667D01*
X67701983Y-87676540D01*
X67701990Y-87676553D01*
X67800535Y-87824034D01*
X67800538Y-87824038D01*
X67925961Y-87949461D01*
X67925965Y-87949464D01*
X68073446Y-88048009D01*
X68073459Y-88048016D01*
X68196363Y-88098923D01*
X68237334Y-88115894D01*
X68237336Y-88115894D01*
X68237341Y-88115896D01*
X68411304Y-88150499D01*
X68411307Y-88150500D01*
X68411309Y-88150500D01*
X68588693Y-88150500D01*
X68588694Y-88150499D01*
X68646682Y-88138964D01*
X68762658Y-88115896D01*
X68762661Y-88115894D01*
X68762666Y-88115894D01*
X68926547Y-88048013D01*
X69074035Y-87949464D01*
X69199464Y-87824035D01*
X69298013Y-87676547D01*
X69304327Y-87661304D01*
X106599500Y-87661304D01*
X106599500Y-87838695D01*
X106634103Y-88012658D01*
X106634106Y-88012667D01*
X106701983Y-88176540D01*
X106701990Y-88176553D01*
X106800535Y-88324034D01*
X106800538Y-88324038D01*
X106925961Y-88449461D01*
X106925965Y-88449464D01*
X107073446Y-88548009D01*
X107073459Y-88548016D01*
X107196363Y-88598923D01*
X107237334Y-88615894D01*
X107237336Y-88615894D01*
X107237341Y-88615896D01*
X107411304Y-88650499D01*
X107411307Y-88650500D01*
X107411309Y-88650500D01*
X107588693Y-88650500D01*
X107588694Y-88650499D01*
X107646682Y-88638964D01*
X107762658Y-88615896D01*
X107762661Y-88615894D01*
X107762666Y-88615894D01*
X107926547Y-88548013D01*
X108074035Y-88449464D01*
X108199464Y-88324035D01*
X108298013Y-88176547D01*
X108365894Y-88012666D01*
X108378467Y-87949461D01*
X108400499Y-87838695D01*
X108400500Y-87838693D01*
X108400500Y-87661306D01*
X108400499Y-87661304D01*
X108365896Y-87487341D01*
X108365893Y-87487332D01*
X108298016Y-87323459D01*
X108298009Y-87323446D01*
X108199464Y-87175965D01*
X108199461Y-87175961D01*
X108074038Y-87050538D01*
X108074034Y-87050535D01*
X107926553Y-86951990D01*
X107926540Y-86951983D01*
X107762667Y-86884106D01*
X107762658Y-86884103D01*
X107588694Y-86849500D01*
X107588691Y-86849500D01*
X107411309Y-86849500D01*
X107411306Y-86849500D01*
X107237341Y-86884103D01*
X107237332Y-86884106D01*
X107073459Y-86951983D01*
X107073446Y-86951990D01*
X106925965Y-87050535D01*
X106925961Y-87050538D01*
X106800538Y-87175961D01*
X106800535Y-87175965D01*
X106701990Y-87323446D01*
X106701983Y-87323459D01*
X106634106Y-87487332D01*
X106634103Y-87487341D01*
X106599500Y-87661304D01*
X69304327Y-87661304D01*
X69365894Y-87512666D01*
X69370932Y-87487341D01*
X69388964Y-87396682D01*
X69400500Y-87338691D01*
X69400500Y-87161309D01*
X69400500Y-87161306D01*
X69400499Y-87161304D01*
X69365896Y-86987341D01*
X69365893Y-86987332D01*
X69298016Y-86823459D01*
X69298009Y-86823446D01*
X69199464Y-86675965D01*
X69199461Y-86675961D01*
X69074038Y-86550538D01*
X69074034Y-86550535D01*
X69010854Y-86508319D01*
X68926553Y-86451990D01*
X68926540Y-86451983D01*
X68828330Y-86411304D01*
X82099500Y-86411304D01*
X82099500Y-86588695D01*
X82134103Y-86762658D01*
X82134106Y-86762667D01*
X82201983Y-86926540D01*
X82201990Y-86926553D01*
X82300535Y-87074034D01*
X82300538Y-87074038D01*
X82425961Y-87199461D01*
X82425965Y-87199464D01*
X82573446Y-87298009D01*
X82573459Y-87298016D01*
X82671659Y-87338691D01*
X82737334Y-87365894D01*
X82737336Y-87365894D01*
X82737341Y-87365896D01*
X82911304Y-87400499D01*
X82911307Y-87400500D01*
X82911309Y-87400500D01*
X83088693Y-87400500D01*
X83088694Y-87400499D01*
X83146682Y-87388964D01*
X83262658Y-87365896D01*
X83262661Y-87365894D01*
X83262666Y-87365894D01*
X83426547Y-87298013D01*
X83574035Y-87199464D01*
X83699464Y-87074035D01*
X83798013Y-86926547D01*
X83865894Y-86762666D01*
X83900500Y-86588691D01*
X83900500Y-86411309D01*
X83900500Y-86411306D01*
X83900499Y-86411304D01*
X83865896Y-86237341D01*
X83865893Y-86237332D01*
X83798016Y-86073459D01*
X83798009Y-86073446D01*
X83699464Y-85925965D01*
X83699461Y-85925961D01*
X83574038Y-85800538D01*
X83574034Y-85800535D01*
X83426553Y-85701990D01*
X83426540Y-85701983D01*
X83262667Y-85634106D01*
X83262658Y-85634103D01*
X83088694Y-85599500D01*
X83088691Y-85599500D01*
X82911309Y-85599500D01*
X82911306Y-85599500D01*
X82737341Y-85634103D01*
X82737332Y-85634106D01*
X82573459Y-85701983D01*
X82573446Y-85701990D01*
X82425965Y-85800535D01*
X82425961Y-85800538D01*
X82300538Y-85925961D01*
X82300535Y-85925965D01*
X82201990Y-86073446D01*
X82201983Y-86073459D01*
X82134106Y-86237332D01*
X82134103Y-86237341D01*
X82099500Y-86411304D01*
X68828330Y-86411304D01*
X68762667Y-86384106D01*
X68762658Y-86384103D01*
X68588694Y-86349500D01*
X68588691Y-86349500D01*
X68411309Y-86349500D01*
X68411306Y-86349500D01*
X68237341Y-86384103D01*
X68237332Y-86384106D01*
X68073459Y-86451983D01*
X68073446Y-86451990D01*
X67925965Y-86550535D01*
X67925961Y-86550538D01*
X67800538Y-86675961D01*
X67800535Y-86675965D01*
X67701990Y-86823446D01*
X67701983Y-86823459D01*
X67634106Y-86987332D01*
X67634103Y-86987341D01*
X67599500Y-87161304D01*
X34250500Y-87161304D01*
X34250500Y-84996153D01*
X65449500Y-84996153D01*
X65449500Y-85153846D01*
X65480261Y-85308489D01*
X65480264Y-85308501D01*
X65540602Y-85454172D01*
X65540609Y-85454185D01*
X65628210Y-85585288D01*
X65628213Y-85585292D01*
X65739707Y-85696786D01*
X65739711Y-85696789D01*
X65870814Y-85784390D01*
X65870827Y-85784397D01*
X65978138Y-85828846D01*
X66016503Y-85844737D01*
X66171153Y-85875499D01*
X66171156Y-85875500D01*
X66171158Y-85875500D01*
X66328844Y-85875500D01*
X66328845Y-85875499D01*
X66483497Y-85844737D01*
X66629179Y-85784394D01*
X66760289Y-85696789D01*
X66871789Y-85585289D01*
X66959394Y-85454179D01*
X67019737Y-85308497D01*
X67050500Y-85153842D01*
X67050500Y-84996158D01*
X67050500Y-84996155D01*
X67050499Y-84996153D01*
X67041219Y-84949500D01*
X67019737Y-84841503D01*
X67005018Y-84805968D01*
X66966327Y-84712558D01*
X66966311Y-84712520D01*
X66965679Y-84710995D01*
X66959394Y-84695821D01*
X66959391Y-84695816D01*
X66959390Y-84695814D01*
X66942912Y-84671153D01*
X70199500Y-84671153D01*
X70199500Y-84828846D01*
X70230261Y-84983489D01*
X70230264Y-84983501D01*
X70290602Y-85129172D01*
X70290609Y-85129185D01*
X70378210Y-85260288D01*
X70378213Y-85260292D01*
X70489707Y-85371786D01*
X70489711Y-85371789D01*
X70620814Y-85459390D01*
X70620827Y-85459397D01*
X70758683Y-85516498D01*
X70766503Y-85519737D01*
X70921153Y-85550499D01*
X70921156Y-85550500D01*
X70921158Y-85550500D01*
X71078844Y-85550500D01*
X71078845Y-85550499D01*
X71233497Y-85519737D01*
X71379179Y-85459394D01*
X71510289Y-85371789D01*
X71621789Y-85260289D01*
X71709394Y-85129179D01*
X71715389Y-85114707D01*
X71745747Y-85041415D01*
X71769737Y-84983497D01*
X71800500Y-84828842D01*
X71800500Y-84671158D01*
X71800500Y-84671155D01*
X71800499Y-84671153D01*
X71787711Y-84606863D01*
X71769737Y-84516503D01*
X71769735Y-84516498D01*
X71709397Y-84370827D01*
X71709390Y-84370814D01*
X71621789Y-84239711D01*
X71621786Y-84239707D01*
X71510292Y-84128213D01*
X71510288Y-84128210D01*
X71490132Y-84114742D01*
X71379185Y-84040609D01*
X71379172Y-84040602D01*
X71323946Y-84017727D01*
X85701455Y-84017727D01*
X85701455Y-84175420D01*
X85732216Y-84330063D01*
X85732219Y-84330075D01*
X85792557Y-84475746D01*
X85792564Y-84475759D01*
X85880165Y-84606862D01*
X85880168Y-84606866D01*
X85991662Y-84718360D01*
X85991666Y-84718363D01*
X86122769Y-84805964D01*
X86122781Y-84805971D01*
X86223534Y-84847703D01*
X86261868Y-84863581D01*
X86316272Y-84907421D01*
X86338337Y-84973715D01*
X86321058Y-85041415D01*
X86302098Y-85065822D01*
X86253214Y-85114706D01*
X86253210Y-85114711D01*
X86165609Y-85245814D01*
X86165602Y-85245827D01*
X86105264Y-85391498D01*
X86105261Y-85391510D01*
X86074500Y-85546153D01*
X86074500Y-85703846D01*
X86105261Y-85858489D01*
X86105264Y-85858501D01*
X86165602Y-86004172D01*
X86165609Y-86004185D01*
X86253210Y-86135288D01*
X86253213Y-86135292D01*
X86364707Y-86246786D01*
X86364711Y-86246789D01*
X86495814Y-86334390D01*
X86495827Y-86334397D01*
X86586101Y-86371789D01*
X86641503Y-86394737D01*
X86724816Y-86411309D01*
X86796153Y-86425499D01*
X86796156Y-86425500D01*
X86796158Y-86425500D01*
X86953844Y-86425500D01*
X86953845Y-86425499D01*
X87108497Y-86394737D01*
X87254179Y-86334394D01*
X87385289Y-86246789D01*
X87496789Y-86135289D01*
X87584394Y-86004179D01*
X87644737Y-85858497D01*
X87675500Y-85703842D01*
X87675500Y-85671153D01*
X106724500Y-85671153D01*
X106724500Y-85828846D01*
X106755261Y-85983489D01*
X106755264Y-85983501D01*
X106815602Y-86129172D01*
X106815609Y-86129185D01*
X106903210Y-86260288D01*
X106903213Y-86260292D01*
X107014707Y-86371786D01*
X107014711Y-86371789D01*
X107145814Y-86459390D01*
X107145827Y-86459397D01*
X107263937Y-86508319D01*
X107291503Y-86519737D01*
X107446153Y-86550499D01*
X107446156Y-86550500D01*
X107446158Y-86550500D01*
X107603844Y-86550500D01*
X107603845Y-86550499D01*
X107758497Y-86519737D01*
X107904179Y-86459394D01*
X108035289Y-86371789D01*
X108146789Y-86260289D01*
X108234394Y-86129179D01*
X108294737Y-85983497D01*
X108325500Y-85828842D01*
X108325500Y-85671158D01*
X108325500Y-85671155D01*
X108325499Y-85671153D01*
X108301499Y-85550499D01*
X108294737Y-85516503D01*
X108234794Y-85371786D01*
X108234397Y-85370827D01*
X108234390Y-85370814D01*
X108146789Y-85239711D01*
X108146786Y-85239707D01*
X108035292Y-85128213D01*
X108035288Y-85128210D01*
X107904185Y-85040609D01*
X107904172Y-85040602D01*
X107758501Y-84980264D01*
X107758489Y-84980261D01*
X107603845Y-84949500D01*
X107603842Y-84949500D01*
X107446158Y-84949500D01*
X107446155Y-84949500D01*
X107291510Y-84980261D01*
X107291498Y-84980264D01*
X107145827Y-85040602D01*
X107145814Y-85040609D01*
X107014711Y-85128210D01*
X107014707Y-85128213D01*
X106903213Y-85239707D01*
X106903210Y-85239711D01*
X106815609Y-85370814D01*
X106815602Y-85370827D01*
X106755264Y-85516498D01*
X106755261Y-85516510D01*
X106724500Y-85671153D01*
X87675500Y-85671153D01*
X87675500Y-85546158D01*
X87675500Y-85546155D01*
X87675499Y-85546153D01*
X87670245Y-85519738D01*
X87644737Y-85391503D01*
X87636170Y-85370821D01*
X87584397Y-85245827D01*
X87584390Y-85245814D01*
X87496789Y-85114711D01*
X87496786Y-85114707D01*
X87385292Y-85003213D01*
X87385288Y-85003210D01*
X87254185Y-84915609D01*
X87254172Y-84915602D01*
X87115086Y-84857992D01*
X87060682Y-84814151D01*
X87038617Y-84747857D01*
X87055896Y-84680158D01*
X87074858Y-84655749D01*
X87123741Y-84606866D01*
X87123744Y-84606863D01*
X87211349Y-84475753D01*
X87271692Y-84330071D01*
X87302455Y-84175416D01*
X87302455Y-84017732D01*
X87302455Y-84017729D01*
X87302454Y-84017727D01*
X87295002Y-83980263D01*
X87271692Y-83863077D01*
X87229386Y-83760942D01*
X87227249Y-83741066D01*
X87220264Y-83722336D01*
X87223591Y-83707039D01*
X87221918Y-83691474D01*
X87230866Y-83673597D01*
X87231398Y-83671153D01*
X106724500Y-83671153D01*
X106724500Y-83828846D01*
X106755261Y-83983489D01*
X106755264Y-83983501D01*
X106815602Y-84129172D01*
X106815609Y-84129185D01*
X106903210Y-84260288D01*
X106903213Y-84260292D01*
X107014707Y-84371786D01*
X107014711Y-84371789D01*
X107145814Y-84459390D01*
X107145827Y-84459397D01*
X107283683Y-84516498D01*
X107291503Y-84519737D01*
X107446153Y-84550499D01*
X107446156Y-84550500D01*
X107446158Y-84550500D01*
X107603844Y-84550500D01*
X107603845Y-84550499D01*
X107758497Y-84519737D01*
X107904179Y-84459394D01*
X108035289Y-84371789D01*
X108146789Y-84260289D01*
X108234394Y-84129179D01*
X108294737Y-83983497D01*
X108325500Y-83828842D01*
X108325500Y-83671158D01*
X108325500Y-83671155D01*
X108325499Y-83671153D01*
X108315680Y-83621789D01*
X108294737Y-83516503D01*
X108275791Y-83470762D01*
X108234397Y-83370827D01*
X108234390Y-83370814D01*
X108146789Y-83239711D01*
X108146786Y-83239707D01*
X108035292Y-83128213D01*
X108035288Y-83128210D01*
X107904185Y-83040609D01*
X107904172Y-83040602D01*
X107758501Y-82980264D01*
X107758489Y-82980261D01*
X107603845Y-82949500D01*
X107603842Y-82949500D01*
X107446158Y-82949500D01*
X107446155Y-82949500D01*
X107291510Y-82980261D01*
X107291498Y-82980264D01*
X107145827Y-83040602D01*
X107145814Y-83040609D01*
X107014711Y-83128210D01*
X107014707Y-83128213D01*
X106903213Y-83239707D01*
X106903210Y-83239711D01*
X106815609Y-83370814D01*
X106815602Y-83370827D01*
X106755264Y-83516498D01*
X106755261Y-83516510D01*
X106724500Y-83671153D01*
X87231398Y-83671153D01*
X87235116Y-83654063D01*
X87251800Y-83631775D01*
X87253193Y-83628995D01*
X87256268Y-83625809D01*
X87260285Y-83621791D01*
X87260289Y-83621789D01*
X87371789Y-83510289D01*
X87459394Y-83379179D01*
X87462854Y-83370827D01*
X87517163Y-83239711D01*
X87519737Y-83233497D01*
X87550500Y-83078842D01*
X87550500Y-82921158D01*
X87550500Y-82921155D01*
X87550499Y-82921153D01*
X87534097Y-82838695D01*
X87519737Y-82766503D01*
X87476165Y-82661309D01*
X87459397Y-82620827D01*
X87459390Y-82620814D01*
X87371789Y-82489711D01*
X87371786Y-82489707D01*
X87260292Y-82378213D01*
X87260288Y-82378210D01*
X87129185Y-82290609D01*
X87129172Y-82290602D01*
X86983501Y-82230264D01*
X86983489Y-82230261D01*
X86828845Y-82199500D01*
X86828842Y-82199500D01*
X86671158Y-82199500D01*
X86671155Y-82199500D01*
X86516510Y-82230261D01*
X86516498Y-82230264D01*
X86370827Y-82290602D01*
X86370814Y-82290609D01*
X86239711Y-82378210D01*
X86239707Y-82378213D01*
X86128213Y-82489707D01*
X86128210Y-82489711D01*
X86040609Y-82620814D01*
X86040602Y-82620827D01*
X85980264Y-82766498D01*
X85980261Y-82766510D01*
X85949500Y-82921153D01*
X85949500Y-83078846D01*
X85968936Y-83176553D01*
X85980263Y-83233497D01*
X86017764Y-83324034D01*
X86022567Y-83335628D01*
X86030036Y-83405098D01*
X85998761Y-83467577D01*
X85995688Y-83470762D01*
X85880165Y-83586285D01*
X85792564Y-83717388D01*
X85792557Y-83717401D01*
X85732219Y-83863072D01*
X85732216Y-83863084D01*
X85701455Y-84017727D01*
X71323946Y-84017727D01*
X71233501Y-83980264D01*
X71233489Y-83980261D01*
X71078845Y-83949500D01*
X71078842Y-83949500D01*
X70921158Y-83949500D01*
X70921155Y-83949500D01*
X70766510Y-83980261D01*
X70766498Y-83980264D01*
X70620827Y-84040602D01*
X70620814Y-84040609D01*
X70489711Y-84128210D01*
X70489707Y-84128213D01*
X70378213Y-84239707D01*
X70378210Y-84239711D01*
X70290609Y-84370814D01*
X70290602Y-84370827D01*
X70230264Y-84516498D01*
X70230261Y-84516510D01*
X70199500Y-84671153D01*
X66942912Y-84671153D01*
X66871789Y-84564711D01*
X66871786Y-84564707D01*
X66760292Y-84453213D01*
X66760288Y-84453210D01*
X66629185Y-84365609D01*
X66629172Y-84365602D01*
X66483501Y-84305264D01*
X66483489Y-84305261D01*
X66328845Y-84274500D01*
X66328842Y-84274500D01*
X66171158Y-84274500D01*
X66171155Y-84274500D01*
X66016510Y-84305261D01*
X66016498Y-84305264D01*
X65870827Y-84365602D01*
X65870814Y-84365609D01*
X65739711Y-84453210D01*
X65739707Y-84453213D01*
X65628213Y-84564707D01*
X65628210Y-84564711D01*
X65540609Y-84695814D01*
X65540602Y-84695827D01*
X65480264Y-84841498D01*
X65480261Y-84841510D01*
X65449500Y-84996153D01*
X34250500Y-84996153D01*
X34250500Y-82661304D01*
X68949500Y-82661304D01*
X68949500Y-82838695D01*
X68984103Y-83012658D01*
X68984106Y-83012667D01*
X69051983Y-83176540D01*
X69051990Y-83176553D01*
X69150535Y-83324034D01*
X69150538Y-83324038D01*
X69275961Y-83449461D01*
X69275965Y-83449464D01*
X69423446Y-83548009D01*
X69423459Y-83548016D01*
X69546363Y-83598923D01*
X69587334Y-83615894D01*
X69587336Y-83615894D01*
X69587341Y-83615896D01*
X69761304Y-83650499D01*
X69761307Y-83650500D01*
X69761309Y-83650500D01*
X69938693Y-83650500D01*
X69938694Y-83650499D01*
X69996682Y-83638964D01*
X70112658Y-83615896D01*
X70112661Y-83615894D01*
X70112666Y-83615894D01*
X70276547Y-83548013D01*
X70424035Y-83449464D01*
X70549464Y-83324035D01*
X70648013Y-83176547D01*
X70715894Y-83012666D01*
X70722340Y-82980263D01*
X70750499Y-82838695D01*
X70750500Y-82838693D01*
X70750500Y-82661306D01*
X70750499Y-82661304D01*
X70715896Y-82487341D01*
X70715893Y-82487332D01*
X70648016Y-82323459D01*
X70648009Y-82323446D01*
X70549464Y-82175965D01*
X70549461Y-82175961D01*
X70424038Y-82050538D01*
X70424034Y-82050535D01*
X70276553Y-81951990D01*
X70276540Y-81951983D01*
X70112667Y-81884106D01*
X70112658Y-81884103D01*
X69938694Y-81849500D01*
X69938691Y-81849500D01*
X69761309Y-81849500D01*
X69761306Y-81849500D01*
X69587341Y-81884103D01*
X69587332Y-81884106D01*
X69423459Y-81951983D01*
X69423446Y-81951990D01*
X69275965Y-82050535D01*
X69275961Y-82050538D01*
X69150538Y-82175961D01*
X69150535Y-82175965D01*
X69051990Y-82323446D01*
X69051983Y-82323459D01*
X68984106Y-82487332D01*
X68984103Y-82487341D01*
X68949500Y-82661304D01*
X34250500Y-82661304D01*
X34250500Y-81671153D01*
X106724500Y-81671153D01*
X106724500Y-81828846D01*
X106755261Y-81983489D01*
X106755264Y-81983501D01*
X106815602Y-82129172D01*
X106815609Y-82129185D01*
X106903210Y-82260288D01*
X106903213Y-82260292D01*
X107014707Y-82371786D01*
X107014711Y-82371789D01*
X107145814Y-82459390D01*
X107145827Y-82459397D01*
X107219013Y-82489711D01*
X107291503Y-82519737D01*
X107446153Y-82550499D01*
X107446156Y-82550500D01*
X107446158Y-82550500D01*
X107603844Y-82550500D01*
X107603845Y-82550499D01*
X107758497Y-82519737D01*
X107904179Y-82459394D01*
X108035289Y-82371789D01*
X108146789Y-82260289D01*
X108234394Y-82129179D01*
X108294737Y-81983497D01*
X108325500Y-81828842D01*
X108325500Y-81671158D01*
X108325500Y-81671155D01*
X108325499Y-81671153D01*
X108294738Y-81516510D01*
X108294737Y-81516503D01*
X108234794Y-81371786D01*
X108234397Y-81370827D01*
X108234390Y-81370814D01*
X108146789Y-81239711D01*
X108146786Y-81239707D01*
X108035292Y-81128213D01*
X108035288Y-81128210D01*
X107904185Y-81040609D01*
X107904172Y-81040602D01*
X107758501Y-80980264D01*
X107758489Y-80980261D01*
X107603845Y-80949500D01*
X107603842Y-80949500D01*
X107446158Y-80949500D01*
X107446155Y-80949500D01*
X107291510Y-80980261D01*
X107291498Y-80980264D01*
X107145827Y-81040602D01*
X107145814Y-81040609D01*
X107014711Y-81128210D01*
X107014707Y-81128213D01*
X106903213Y-81239707D01*
X106903210Y-81239711D01*
X106815609Y-81370814D01*
X106815602Y-81370827D01*
X106755264Y-81516498D01*
X106755261Y-81516510D01*
X106724500Y-81671153D01*
X34250500Y-81671153D01*
X34250500Y-80671153D01*
X63449500Y-80671153D01*
X63449500Y-80828846D01*
X63480261Y-80983489D01*
X63480264Y-80983501D01*
X63540602Y-81129172D01*
X63540609Y-81129185D01*
X63628210Y-81260288D01*
X63628213Y-81260292D01*
X63739707Y-81371786D01*
X63739711Y-81371789D01*
X63870814Y-81459390D01*
X63870827Y-81459397D01*
X64008683Y-81516498D01*
X64016503Y-81519737D01*
X64171153Y-81550499D01*
X64171156Y-81550500D01*
X64171158Y-81550500D01*
X64328844Y-81550500D01*
X64328845Y-81550499D01*
X64339179Y-81548443D01*
X64364287Y-81543450D01*
X64364292Y-81543449D01*
X64449800Y-81526439D01*
X64483497Y-81519737D01*
X64629179Y-81459394D01*
X64760289Y-81371789D01*
X64871789Y-81260289D01*
X64959394Y-81129179D01*
X65019737Y-80983497D01*
X65050500Y-80828842D01*
X65050500Y-80671158D01*
X65050500Y-80671155D01*
X65050499Y-80671153D01*
X65019738Y-80516510D01*
X65019737Y-80516503D01*
X64980242Y-80421153D01*
X71112000Y-80421153D01*
X71112000Y-80578846D01*
X71142761Y-80733489D01*
X71142764Y-80733501D01*
X71203102Y-80879172D01*
X71203109Y-80879185D01*
X71290710Y-81010288D01*
X71290713Y-81010292D01*
X71402207Y-81121786D01*
X71402211Y-81121789D01*
X71533314Y-81209390D01*
X71533327Y-81209397D01*
X71678998Y-81269735D01*
X71679003Y-81269737D01*
X71833653Y-81300499D01*
X71833656Y-81300500D01*
X71833658Y-81300500D01*
X71991344Y-81300500D01*
X71991345Y-81300499D01*
X72145997Y-81269737D01*
X72291679Y-81209394D01*
X72422789Y-81121789D01*
X72534289Y-81010289D01*
X72621894Y-80879179D01*
X72682237Y-80733497D01*
X72713000Y-80578842D01*
X72713000Y-80421158D01*
X72713000Y-80421155D01*
X72712999Y-80421153D01*
X72682238Y-80266510D01*
X72682237Y-80266503D01*
X72682235Y-80266498D01*
X72621897Y-80120827D01*
X72621890Y-80120814D01*
X72534289Y-79989711D01*
X72534286Y-79989707D01*
X72422792Y-79878213D01*
X72422788Y-79878210D01*
X72291685Y-79790609D01*
X72291672Y-79790602D01*
X72146001Y-79730264D01*
X72145989Y-79730261D01*
X71991345Y-79699500D01*
X71991342Y-79699500D01*
X71833658Y-79699500D01*
X71833655Y-79699500D01*
X71679010Y-79730261D01*
X71678998Y-79730264D01*
X71533327Y-79790602D01*
X71533314Y-79790609D01*
X71402211Y-79878210D01*
X71402207Y-79878213D01*
X71290713Y-79989707D01*
X71290710Y-79989711D01*
X71203109Y-80120814D01*
X71203102Y-80120827D01*
X71142764Y-80266498D01*
X71142761Y-80266510D01*
X71112000Y-80421153D01*
X64980242Y-80421153D01*
X64979933Y-80420408D01*
X64959397Y-80370827D01*
X64959390Y-80370814D01*
X64871789Y-80239711D01*
X64871786Y-80239707D01*
X64760292Y-80128213D01*
X64760288Y-80128210D01*
X64629185Y-80040609D01*
X64629172Y-80040602D01*
X64483501Y-79980264D01*
X64483489Y-79980261D01*
X64328845Y-79949500D01*
X64328842Y-79949500D01*
X64171158Y-79949500D01*
X64171155Y-79949500D01*
X64016510Y-79980261D01*
X64016498Y-79980264D01*
X63870827Y-80040602D01*
X63870814Y-80040609D01*
X63739711Y-80128210D01*
X63739707Y-80128213D01*
X63628213Y-80239707D01*
X63628210Y-80239711D01*
X63540609Y-80370814D01*
X63540602Y-80370827D01*
X63480264Y-80516498D01*
X63480261Y-80516510D01*
X63449500Y-80671153D01*
X34250500Y-80671153D01*
X34250500Y-79171153D01*
X52699500Y-79171153D01*
X52699500Y-79328846D01*
X52730261Y-79483489D01*
X52730264Y-79483501D01*
X52790602Y-79629172D01*
X52790609Y-79629185D01*
X52878210Y-79760288D01*
X52878213Y-79760292D01*
X52989707Y-79871786D01*
X52989711Y-79871789D01*
X53120814Y-79959390D01*
X53120827Y-79959397D01*
X53194013Y-79989711D01*
X53266503Y-80019737D01*
X53421153Y-80050499D01*
X53421156Y-80050500D01*
X53421158Y-80050500D01*
X53578844Y-80050500D01*
X53578845Y-80050499D01*
X53733497Y-80019737D01*
X53879179Y-79959394D01*
X54010289Y-79871789D01*
X54121789Y-79760289D01*
X54209394Y-79629179D01*
X54269737Y-79483497D01*
X54300500Y-79328842D01*
X54300500Y-79171158D01*
X54300500Y-79171155D01*
X54300499Y-79171153D01*
X54269738Y-79016510D01*
X54269737Y-79016503D01*
X54269735Y-79016498D01*
X54209397Y-78870827D01*
X54209390Y-78870814D01*
X54121789Y-78739711D01*
X54121786Y-78739707D01*
X54010292Y-78628213D01*
X54010288Y-78628210D01*
X53879185Y-78540609D01*
X53879172Y-78540602D01*
X53733501Y-78480264D01*
X53733489Y-78480261D01*
X53578845Y-78449500D01*
X53578842Y-78449500D01*
X53421158Y-78449500D01*
X53421155Y-78449500D01*
X53266510Y-78480261D01*
X53266498Y-78480264D01*
X53120827Y-78540602D01*
X53120814Y-78540609D01*
X52989711Y-78628210D01*
X52989707Y-78628213D01*
X52878213Y-78739707D01*
X52878210Y-78739711D01*
X52790609Y-78870814D01*
X52790602Y-78870827D01*
X52730264Y-79016498D01*
X52730261Y-79016510D01*
X52699500Y-79171153D01*
X34250500Y-79171153D01*
X34250500Y-77671153D01*
X66199500Y-77671153D01*
X66199500Y-77828846D01*
X66230261Y-77983489D01*
X66230264Y-77983501D01*
X66290602Y-78129172D01*
X66290609Y-78129185D01*
X66378210Y-78260288D01*
X66378213Y-78260292D01*
X66489707Y-78371786D01*
X66489711Y-78371789D01*
X66620814Y-78459390D01*
X66620827Y-78459397D01*
X66766498Y-78519735D01*
X66766503Y-78519737D01*
X66921153Y-78550499D01*
X66921156Y-78550500D01*
X66921158Y-78550500D01*
X67078844Y-78550500D01*
X67078845Y-78550499D01*
X67233497Y-78519737D01*
X67379179Y-78459394D01*
X67510289Y-78371789D01*
X67621789Y-78260289D01*
X67709394Y-78129179D01*
X67769737Y-77983497D01*
X67800500Y-77828842D01*
X67800500Y-77671158D01*
X67800500Y-77671155D01*
X67800499Y-77671153D01*
X67769738Y-77516510D01*
X67769737Y-77516503D01*
X67769735Y-77516498D01*
X67709397Y-77370827D01*
X67709390Y-77370814D01*
X67621789Y-77239711D01*
X67621786Y-77239707D01*
X67510292Y-77128213D01*
X67510288Y-77128210D01*
X67379185Y-77040609D01*
X67379172Y-77040602D01*
X67233501Y-76980264D01*
X67233489Y-76980261D01*
X67078845Y-76949500D01*
X67078842Y-76949500D01*
X66921158Y-76949500D01*
X66921155Y-76949500D01*
X66766510Y-76980261D01*
X66766498Y-76980264D01*
X66620827Y-77040602D01*
X66620814Y-77040609D01*
X66489711Y-77128210D01*
X66489707Y-77128213D01*
X66378213Y-77239707D01*
X66378210Y-77239711D01*
X66290609Y-77370814D01*
X66290602Y-77370827D01*
X66230264Y-77516498D01*
X66230261Y-77516510D01*
X66199500Y-77671153D01*
X34250500Y-77671153D01*
X34250500Y-76171153D01*
X69699500Y-76171153D01*
X69699500Y-76328846D01*
X69730261Y-76483489D01*
X69730264Y-76483501D01*
X69790602Y-76629172D01*
X69790609Y-76629185D01*
X69878210Y-76760288D01*
X69878213Y-76760292D01*
X69989707Y-76871786D01*
X69989711Y-76871789D01*
X70120814Y-76959390D01*
X70120827Y-76959397D01*
X70266498Y-77019735D01*
X70266503Y-77019737D01*
X70421153Y-77050499D01*
X70421156Y-77050500D01*
X70421158Y-77050500D01*
X70578844Y-77050500D01*
X70578845Y-77050499D01*
X70733497Y-77019737D01*
X70879179Y-76959394D01*
X71010289Y-76871789D01*
X71121789Y-76760289D01*
X71209394Y-76629179D01*
X71269737Y-76483497D01*
X71300500Y-76328842D01*
X71300500Y-76171158D01*
X71300500Y-76171155D01*
X71300499Y-76171153D01*
X71269738Y-76016510D01*
X71269737Y-76016503D01*
X71269735Y-76016498D01*
X71209397Y-75870827D01*
X71209390Y-75870814D01*
X71121789Y-75739711D01*
X71121786Y-75739707D01*
X71010292Y-75628213D01*
X71010288Y-75628210D01*
X70879185Y-75540609D01*
X70879172Y-75540602D01*
X70733501Y-75480264D01*
X70733489Y-75480261D01*
X70578845Y-75449500D01*
X70578842Y-75449500D01*
X70421158Y-75449500D01*
X70421155Y-75449500D01*
X70266510Y-75480261D01*
X70266498Y-75480264D01*
X70120827Y-75540602D01*
X70120814Y-75540609D01*
X69989711Y-75628210D01*
X69989707Y-75628213D01*
X69878213Y-75739707D01*
X69878210Y-75739711D01*
X69790609Y-75870814D01*
X69790602Y-75870827D01*
X69730264Y-76016498D01*
X69730261Y-76016510D01*
X69699500Y-76171153D01*
X34250500Y-76171153D01*
X34250500Y-74508653D01*
X44699500Y-74508653D01*
X44699500Y-74666346D01*
X44730261Y-74820989D01*
X44730264Y-74821001D01*
X44790602Y-74966672D01*
X44790609Y-74966685D01*
X44878210Y-75097788D01*
X44878213Y-75097792D01*
X44989707Y-75209286D01*
X44989711Y-75209289D01*
X45120814Y-75296890D01*
X45120827Y-75296897D01*
X45266498Y-75357235D01*
X45266503Y-75357237D01*
X45421153Y-75387999D01*
X45421156Y-75388000D01*
X45421158Y-75388000D01*
X45578844Y-75388000D01*
X45578845Y-75387999D01*
X45733497Y-75357237D01*
X45879179Y-75296894D01*
X46010289Y-75209289D01*
X46121789Y-75097789D01*
X46209394Y-74966679D01*
X46269737Y-74820997D01*
X46300500Y-74666342D01*
X46300500Y-74508658D01*
X46300500Y-74508655D01*
X46300499Y-74508653D01*
X46269738Y-74354010D01*
X46269737Y-74354003D01*
X46269735Y-74353998D01*
X46209397Y-74208327D01*
X46209390Y-74208314D01*
X46121789Y-74077211D01*
X46121786Y-74077207D01*
X46010292Y-73965713D01*
X46010288Y-73965710D01*
X45879185Y-73878109D01*
X45879172Y-73878102D01*
X45733501Y-73817764D01*
X45733489Y-73817761D01*
X45578845Y-73787000D01*
X45578842Y-73787000D01*
X45421158Y-73787000D01*
X45421155Y-73787000D01*
X45266510Y-73817761D01*
X45266498Y-73817764D01*
X45120827Y-73878102D01*
X45120814Y-73878109D01*
X44989711Y-73965710D01*
X44989707Y-73965713D01*
X44878213Y-74077207D01*
X44878210Y-74077211D01*
X44790609Y-74208314D01*
X44790602Y-74208327D01*
X44730264Y-74353998D01*
X44730261Y-74354010D01*
X44699500Y-74508653D01*
X34250500Y-74508653D01*
X34250500Y-70950000D01*
X36425000Y-70950000D01*
X38515000Y-70950000D01*
X38515000Y-69050000D01*
X36425000Y-69050000D01*
X36425000Y-70950000D01*
X34250500Y-70950000D01*
X34250500Y-67421153D01*
X64287000Y-67421153D01*
X64287000Y-67578846D01*
X64317761Y-67733489D01*
X64317764Y-67733501D01*
X64378102Y-67879172D01*
X64378109Y-67879185D01*
X64465710Y-68010288D01*
X64465713Y-68010292D01*
X64577207Y-68121786D01*
X64577211Y-68121789D01*
X64708314Y-68209390D01*
X64708327Y-68209397D01*
X64836932Y-68262666D01*
X64854003Y-68269737D01*
X65008653Y-68300499D01*
X65008656Y-68300500D01*
X65008658Y-68300500D01*
X65166344Y-68300500D01*
X65166345Y-68300499D01*
X65320997Y-68269737D01*
X65466679Y-68209394D01*
X65597789Y-68121789D01*
X65709289Y-68010289D01*
X65775429Y-67911304D01*
X97659500Y-67911304D01*
X97659500Y-68088695D01*
X97694103Y-68262658D01*
X97694106Y-68262667D01*
X97761983Y-68426540D01*
X97761990Y-68426553D01*
X97860535Y-68574034D01*
X97860538Y-68574038D01*
X97985961Y-68699461D01*
X97985965Y-68699464D01*
X98133446Y-68798009D01*
X98133459Y-68798016D01*
X98256363Y-68848923D01*
X98297334Y-68865894D01*
X98297336Y-68865894D01*
X98297341Y-68865896D01*
X98471304Y-68900499D01*
X98471307Y-68900500D01*
X98471309Y-68900500D01*
X98648693Y-68900500D01*
X98648694Y-68900499D01*
X98706682Y-68888964D01*
X98822658Y-68865896D01*
X98822661Y-68865894D01*
X98822666Y-68865894D01*
X98986547Y-68798013D01*
X99134035Y-68699464D01*
X99259464Y-68574035D01*
X99358013Y-68426547D01*
X99425894Y-68262666D01*
X99434597Y-68218917D01*
X99460499Y-68088695D01*
X99460500Y-68088693D01*
X99460500Y-67911306D01*
X99460499Y-67911304D01*
X101859500Y-67911304D01*
X101859500Y-68088695D01*
X101894103Y-68262658D01*
X101894106Y-68262667D01*
X101961983Y-68426540D01*
X101961990Y-68426553D01*
X102060535Y-68574034D01*
X102060538Y-68574038D01*
X102185961Y-68699461D01*
X102185965Y-68699464D01*
X102333446Y-68798009D01*
X102333459Y-68798016D01*
X102456363Y-68848923D01*
X102497334Y-68865894D01*
X102497336Y-68865894D01*
X102497341Y-68865896D01*
X102671304Y-68900499D01*
X102671307Y-68900500D01*
X102671309Y-68900500D01*
X102848693Y-68900500D01*
X102848694Y-68900499D01*
X102906682Y-68888964D01*
X103022658Y-68865896D01*
X103022661Y-68865894D01*
X103022666Y-68865894D01*
X103186547Y-68798013D01*
X103334035Y-68699464D01*
X103459464Y-68574035D01*
X103558013Y-68426547D01*
X103625894Y-68262666D01*
X103634597Y-68218917D01*
X103660499Y-68088695D01*
X103660500Y-68088693D01*
X103660500Y-68073920D01*
X109499499Y-68073920D01*
X109528340Y-68218907D01*
X109528343Y-68218917D01*
X109584912Y-68355488D01*
X109584919Y-68355501D01*
X109667048Y-68478415D01*
X109667051Y-68478419D01*
X109771580Y-68582948D01*
X109771584Y-68582951D01*
X109894498Y-68665080D01*
X109894511Y-68665087D01*
X110031082Y-68721656D01*
X110031087Y-68721658D01*
X110031091Y-68721658D01*
X110031092Y-68721659D01*
X110176079Y-68750500D01*
X110176082Y-68750500D01*
X110323920Y-68750500D01*
X110421462Y-68731096D01*
X110468913Y-68721658D01*
X110605495Y-68665084D01*
X110728416Y-68582951D01*
X110832951Y-68478416D01*
X110915084Y-68355495D01*
X110971658Y-68218913D01*
X110997561Y-68088693D01*
X111000500Y-68073920D01*
X111000500Y-67926079D01*
X110971659Y-67781092D01*
X110971658Y-67781091D01*
X110971658Y-67781087D01*
X110951946Y-67733497D01*
X110915087Y-67644511D01*
X110915080Y-67644498D01*
X110832951Y-67521584D01*
X110832948Y-67521580D01*
X110728419Y-67417051D01*
X110728415Y-67417048D01*
X110605501Y-67334919D01*
X110605488Y-67334912D01*
X110468917Y-67278343D01*
X110468907Y-67278340D01*
X110323920Y-67249500D01*
X110323918Y-67249500D01*
X110176082Y-67249500D01*
X110176080Y-67249500D01*
X110031092Y-67278340D01*
X110031082Y-67278343D01*
X109894511Y-67334912D01*
X109894498Y-67334919D01*
X109771584Y-67417048D01*
X109771580Y-67417051D01*
X109667051Y-67521580D01*
X109667048Y-67521584D01*
X109584919Y-67644498D01*
X109584912Y-67644511D01*
X109528343Y-67781082D01*
X109528340Y-67781092D01*
X109499500Y-67926079D01*
X109499500Y-67926082D01*
X109499500Y-68073918D01*
X109499500Y-68073920D01*
X109499499Y-68073920D01*
X103660500Y-68073920D01*
X103660500Y-67911306D01*
X103660499Y-67911304D01*
X103625896Y-67737341D01*
X103625893Y-67737332D01*
X103558016Y-67573459D01*
X103558009Y-67573446D01*
X103459464Y-67425965D01*
X103459461Y-67425961D01*
X103334038Y-67300538D01*
X103334034Y-67300535D01*
X103186553Y-67201990D01*
X103186540Y-67201983D01*
X103022667Y-67134106D01*
X103022658Y-67134103D01*
X102848694Y-67099500D01*
X102848691Y-67099500D01*
X102671309Y-67099500D01*
X102671306Y-67099500D01*
X102497341Y-67134103D01*
X102497332Y-67134106D01*
X102333459Y-67201983D01*
X102333446Y-67201990D01*
X102185965Y-67300535D01*
X102185961Y-67300538D01*
X102060538Y-67425961D01*
X102060535Y-67425965D01*
X101961990Y-67573446D01*
X101961983Y-67573459D01*
X101894106Y-67737332D01*
X101894103Y-67737341D01*
X101859500Y-67911304D01*
X99460499Y-67911304D01*
X99425896Y-67737341D01*
X99425893Y-67737332D01*
X99358016Y-67573459D01*
X99358009Y-67573446D01*
X99259464Y-67425965D01*
X99259461Y-67425961D01*
X99134038Y-67300538D01*
X99134034Y-67300535D01*
X98986553Y-67201990D01*
X98986540Y-67201983D01*
X98822667Y-67134106D01*
X98822658Y-67134103D01*
X98648694Y-67099500D01*
X98648691Y-67099500D01*
X98471309Y-67099500D01*
X98471306Y-67099500D01*
X98297341Y-67134103D01*
X98297332Y-67134106D01*
X98133459Y-67201983D01*
X98133446Y-67201990D01*
X97985965Y-67300535D01*
X97985961Y-67300538D01*
X97860538Y-67425961D01*
X97860535Y-67425965D01*
X97761990Y-67573446D01*
X97761983Y-67573459D01*
X97694106Y-67737332D01*
X97694103Y-67737341D01*
X97659500Y-67911304D01*
X65775429Y-67911304D01*
X65796894Y-67879179D01*
X65857237Y-67733497D01*
X65888000Y-67578842D01*
X65888000Y-67421158D01*
X65888000Y-67421155D01*
X65887999Y-67421153D01*
X65864007Y-67300538D01*
X65857237Y-67266503D01*
X65807324Y-67146001D01*
X65796897Y-67120827D01*
X65796890Y-67120814D01*
X65709289Y-66989711D01*
X65709286Y-66989707D01*
X65597792Y-66878213D01*
X65597788Y-66878210D01*
X65531104Y-66833653D01*
X76449500Y-66833653D01*
X76449500Y-66991346D01*
X76480261Y-67145989D01*
X76480264Y-67146001D01*
X76540602Y-67291672D01*
X76540609Y-67291685D01*
X76628210Y-67422788D01*
X76628213Y-67422792D01*
X76739707Y-67534286D01*
X76739711Y-67534289D01*
X76870814Y-67621890D01*
X76870827Y-67621897D01*
X77016498Y-67682235D01*
X77016503Y-67682237D01*
X77171153Y-67712999D01*
X77171156Y-67713000D01*
X77171158Y-67713000D01*
X77328844Y-67713000D01*
X77328845Y-67712999D01*
X77483497Y-67682237D01*
X77629179Y-67621894D01*
X77760289Y-67534289D01*
X77871789Y-67422789D01*
X77959394Y-67291679D01*
X78019737Y-67145997D01*
X78050500Y-66991342D01*
X78050500Y-66833658D01*
X78050500Y-66833655D01*
X78050499Y-66833653D01*
X78041936Y-66790606D01*
X78019737Y-66679003D01*
X78019735Y-66678998D01*
X77959397Y-66533327D01*
X77959390Y-66533314D01*
X77871789Y-66402211D01*
X77871786Y-66402207D01*
X77760292Y-66290713D01*
X77760288Y-66290710D01*
X77629185Y-66203109D01*
X77629172Y-66203102D01*
X77483501Y-66142764D01*
X77483489Y-66142761D01*
X77328845Y-66112000D01*
X77328842Y-66112000D01*
X77171158Y-66112000D01*
X77171155Y-66112000D01*
X77016510Y-66142761D01*
X77016498Y-66142764D01*
X76870827Y-66203102D01*
X76870814Y-66203109D01*
X76739711Y-66290710D01*
X76739707Y-66290713D01*
X76628213Y-66402207D01*
X76628210Y-66402211D01*
X76540609Y-66533314D01*
X76540602Y-66533327D01*
X76480264Y-66678998D01*
X76480261Y-66679010D01*
X76449500Y-66833653D01*
X65531104Y-66833653D01*
X65466685Y-66790609D01*
X65466672Y-66790602D01*
X65321001Y-66730264D01*
X65320989Y-66730261D01*
X65166345Y-66699500D01*
X65166342Y-66699500D01*
X65008658Y-66699500D01*
X65008655Y-66699500D01*
X64854010Y-66730261D01*
X64853998Y-66730264D01*
X64708327Y-66790602D01*
X64708314Y-66790609D01*
X64577211Y-66878210D01*
X64577207Y-66878213D01*
X64465713Y-66989707D01*
X64465710Y-66989711D01*
X64378109Y-67120814D01*
X64378102Y-67120827D01*
X64317764Y-67266498D01*
X64317761Y-67266510D01*
X64287000Y-67421153D01*
X34250500Y-67421153D01*
X34250500Y-63861253D01*
X44481399Y-63861253D01*
X44481399Y-64018946D01*
X44512160Y-64173589D01*
X44512163Y-64173601D01*
X44572501Y-64319272D01*
X44572508Y-64319285D01*
X44660109Y-64450388D01*
X44660112Y-64450392D01*
X44771606Y-64561886D01*
X44771610Y-64561889D01*
X44902713Y-64649490D01*
X44902726Y-64649497D01*
X45048397Y-64709835D01*
X45048402Y-64709837D01*
X45203052Y-64740599D01*
X45203055Y-64740600D01*
X45203057Y-64740600D01*
X45360743Y-64740600D01*
X45360744Y-64740599D01*
X45515396Y-64709837D01*
X45661078Y-64649494D01*
X45792188Y-64561889D01*
X45903688Y-64450389D01*
X45991293Y-64319279D01*
X46051636Y-64173597D01*
X46082399Y-64018942D01*
X46082399Y-63861258D01*
X46082399Y-63861255D01*
X46082398Y-63861253D01*
X46074995Y-63824034D01*
X46051636Y-63706603D01*
X46039189Y-63676553D01*
X45991296Y-63560927D01*
X45991289Y-63560914D01*
X45903688Y-63429811D01*
X45903685Y-63429807D01*
X45792191Y-63318313D01*
X45792187Y-63318310D01*
X45702405Y-63258319D01*
X45702403Y-63258317D01*
X45661089Y-63230712D01*
X45661071Y-63230702D01*
X45515400Y-63170364D01*
X45515388Y-63170361D01*
X45469856Y-63161304D01*
X56599500Y-63161304D01*
X56599500Y-63338695D01*
X56634103Y-63512658D01*
X56634106Y-63512667D01*
X56701983Y-63676540D01*
X56701990Y-63676553D01*
X56800535Y-63824034D01*
X56800538Y-63824038D01*
X56925961Y-63949461D01*
X56925969Y-63949467D01*
X56986732Y-63990068D01*
X57031538Y-64043680D01*
X57040245Y-64113005D01*
X57032403Y-64140622D01*
X56980264Y-64266498D01*
X56980261Y-64266510D01*
X56949500Y-64421153D01*
X56949500Y-64578846D01*
X56980261Y-64733489D01*
X56980264Y-64733501D01*
X57040602Y-64879172D01*
X57040609Y-64879185D01*
X57128210Y-65010288D01*
X57128213Y-65010292D01*
X57239707Y-65121786D01*
X57239711Y-65121789D01*
X57370814Y-65209390D01*
X57370827Y-65209397D01*
X57516498Y-65269735D01*
X57516503Y-65269737D01*
X57671153Y-65300499D01*
X57671156Y-65300500D01*
X57671158Y-65300500D01*
X57828844Y-65300500D01*
X57828845Y-65300499D01*
X57983497Y-65269737D01*
X58129179Y-65209394D01*
X58260289Y-65121789D01*
X58371789Y-65010289D01*
X58459394Y-64879179D01*
X58459397Y-64879172D01*
X58493784Y-64796153D01*
X71574500Y-64796153D01*
X71574500Y-64953846D01*
X71605261Y-65108489D01*
X71605264Y-65108501D01*
X71665602Y-65254172D01*
X71665609Y-65254185D01*
X71753210Y-65385288D01*
X71753213Y-65385292D01*
X71864707Y-65496786D01*
X71864711Y-65496789D01*
X71995814Y-65584390D01*
X71995827Y-65584397D01*
X72141498Y-65644735D01*
X72141503Y-65644737D01*
X72296153Y-65675499D01*
X72296156Y-65675500D01*
X72296158Y-65675500D01*
X72453844Y-65675500D01*
X72453845Y-65675499D01*
X72608497Y-65644737D01*
X72754179Y-65584394D01*
X72885289Y-65496789D01*
X72996789Y-65385289D01*
X73084394Y-65254179D01*
X73144737Y-65108497D01*
X73175500Y-64953842D01*
X73175500Y-64796158D01*
X73175500Y-64796155D01*
X73154236Y-64689258D01*
X73150635Y-64671153D01*
X83699500Y-64671153D01*
X83699500Y-64828846D01*
X83730261Y-64983489D01*
X83730264Y-64983501D01*
X83790602Y-65129172D01*
X83790609Y-65129185D01*
X83878210Y-65260288D01*
X83878213Y-65260292D01*
X83989707Y-65371786D01*
X83989711Y-65371789D01*
X84120814Y-65459390D01*
X84120827Y-65459397D01*
X84211101Y-65496789D01*
X84266503Y-65519737D01*
X84421153Y-65550499D01*
X84421156Y-65550500D01*
X84421158Y-65550500D01*
X84578844Y-65550500D01*
X84578845Y-65550499D01*
X84733497Y-65519737D01*
X84879179Y-65459394D01*
X85010289Y-65371789D01*
X85121789Y-65260289D01*
X85209394Y-65129179D01*
X85269737Y-64983497D01*
X85300500Y-64828842D01*
X85300500Y-64671158D01*
X85300500Y-64671155D01*
X85300499Y-64671153D01*
X85269738Y-64516510D01*
X85269737Y-64516503D01*
X85261170Y-64495821D01*
X85209397Y-64370827D01*
X85209390Y-64370814D01*
X85121789Y-64239711D01*
X85121786Y-64239707D01*
X85010292Y-64128213D01*
X85010288Y-64128210D01*
X84879185Y-64040609D01*
X84879172Y-64040602D01*
X84733501Y-63980264D01*
X84733489Y-63980261D01*
X84578845Y-63949500D01*
X84578842Y-63949500D01*
X84421158Y-63949500D01*
X84421155Y-63949500D01*
X84266510Y-63980261D01*
X84266498Y-63980264D01*
X84120827Y-64040602D01*
X84120814Y-64040609D01*
X83989711Y-64128210D01*
X83989707Y-64128213D01*
X83878213Y-64239707D01*
X83878210Y-64239711D01*
X83790609Y-64370814D01*
X83790602Y-64370827D01*
X83730264Y-64516498D01*
X83730261Y-64516510D01*
X83699500Y-64671153D01*
X73150635Y-64671153D01*
X73144737Y-64641503D01*
X73092959Y-64516498D01*
X73084397Y-64495827D01*
X73084390Y-64495814D01*
X72996789Y-64364711D01*
X72996786Y-64364707D01*
X72885292Y-64253213D01*
X72885288Y-64253210D01*
X72754185Y-64165609D01*
X72754172Y-64165602D01*
X72608501Y-64105264D01*
X72608489Y-64105261D01*
X72453845Y-64074500D01*
X72453842Y-64074500D01*
X72296158Y-64074500D01*
X72296155Y-64074500D01*
X72141510Y-64105261D01*
X72141498Y-64105264D01*
X71995827Y-64165602D01*
X71995814Y-64165609D01*
X71864711Y-64253210D01*
X71864707Y-64253213D01*
X71753213Y-64364707D01*
X71753210Y-64364711D01*
X71665609Y-64495814D01*
X71665602Y-64495827D01*
X71605264Y-64641498D01*
X71605261Y-64641510D01*
X71574500Y-64796153D01*
X58493784Y-64796153D01*
X58515958Y-64742621D01*
X58515958Y-64742619D01*
X58519737Y-64733497D01*
X58550500Y-64578842D01*
X58550500Y-64421158D01*
X58550500Y-64421155D01*
X58550499Y-64421153D01*
X58519738Y-64266510D01*
X58519737Y-64266503D01*
X58514231Y-64253210D01*
X58459397Y-64120827D01*
X58459390Y-64120814D01*
X58371789Y-63989711D01*
X58371786Y-63989707D01*
X58274086Y-63892007D01*
X58240601Y-63830684D01*
X58245585Y-63760992D01*
X58258662Y-63735438D01*
X58298013Y-63676547D01*
X58365894Y-63512666D01*
X58400500Y-63338691D01*
X58400500Y-63161309D01*
X58400500Y-63161306D01*
X58400499Y-63161304D01*
X58365896Y-62987341D01*
X58365893Y-62987332D01*
X58298016Y-62823459D01*
X58298009Y-62823446D01*
X58199464Y-62675965D01*
X58199461Y-62675961D01*
X58074038Y-62550538D01*
X58074034Y-62550535D01*
X57926553Y-62451990D01*
X57926540Y-62451983D01*
X57762667Y-62384106D01*
X57762658Y-62384103D01*
X57588694Y-62349500D01*
X57588691Y-62349500D01*
X57411309Y-62349500D01*
X57411306Y-62349500D01*
X57237341Y-62384103D01*
X57237332Y-62384106D01*
X57073459Y-62451983D01*
X57073446Y-62451990D01*
X56925965Y-62550535D01*
X56925961Y-62550538D01*
X56800538Y-62675961D01*
X56800535Y-62675965D01*
X56701990Y-62823446D01*
X56701983Y-62823459D01*
X56634106Y-62987332D01*
X56634103Y-62987341D01*
X56599500Y-63161304D01*
X45469856Y-63161304D01*
X45360744Y-63139600D01*
X45360741Y-63139600D01*
X45203057Y-63139600D01*
X45203054Y-63139600D01*
X45048409Y-63170361D01*
X45048397Y-63170364D01*
X44902726Y-63230702D01*
X44902713Y-63230709D01*
X44771610Y-63318310D01*
X44771606Y-63318313D01*
X44660112Y-63429807D01*
X44660109Y-63429811D01*
X44572508Y-63560914D01*
X44572501Y-63560927D01*
X44512163Y-63706598D01*
X44512160Y-63706610D01*
X44481399Y-63861253D01*
X34250500Y-63861253D01*
X34250500Y-58109568D01*
X34999500Y-58109568D01*
X34999500Y-58390431D01*
X35030942Y-58669494D01*
X35030945Y-58669512D01*
X35093439Y-58943317D01*
X35093443Y-58943329D01*
X35186200Y-59208411D01*
X35308053Y-59461442D01*
X35308055Y-59461445D01*
X35457477Y-59699248D01*
X35632584Y-59918825D01*
X35831175Y-60117416D01*
X36050752Y-60292523D01*
X36288555Y-60441945D01*
X36541592Y-60563801D01*
X36740680Y-60633465D01*
X36806670Y-60656556D01*
X36806682Y-60656560D01*
X37080491Y-60719055D01*
X37080497Y-60719055D01*
X37080505Y-60719057D01*
X37266547Y-60740018D01*
X37359569Y-60750499D01*
X37359572Y-60750500D01*
X37359575Y-60750500D01*
X37640428Y-60750500D01*
X37640429Y-60750499D01*
X37791403Y-60733489D01*
X37919494Y-60719057D01*
X37919499Y-60719056D01*
X37919509Y-60719055D01*
X38193318Y-60656560D01*
X38458408Y-60563801D01*
X38711445Y-60441945D01*
X38744535Y-60421153D01*
X76199500Y-60421153D01*
X76199500Y-60578846D01*
X76230261Y-60733489D01*
X76230264Y-60733501D01*
X76290602Y-60879172D01*
X76290609Y-60879185D01*
X76378210Y-61010288D01*
X76378213Y-61010292D01*
X76489707Y-61121786D01*
X76489711Y-61121789D01*
X76620814Y-61209390D01*
X76620827Y-61209397D01*
X76766498Y-61269735D01*
X76766503Y-61269737D01*
X76921153Y-61300499D01*
X76921156Y-61300500D01*
X76921158Y-61300500D01*
X77078844Y-61300500D01*
X77078845Y-61300499D01*
X77233497Y-61269737D01*
X77379179Y-61209394D01*
X77510289Y-61121789D01*
X77621789Y-61010289D01*
X77709394Y-60879179D01*
X77769737Y-60733497D01*
X77800500Y-60578842D01*
X77800500Y-60421158D01*
X77800500Y-60421155D01*
X77800499Y-60421153D01*
X77775097Y-60293449D01*
X77769737Y-60266503D01*
X77709794Y-60121786D01*
X77709397Y-60120827D01*
X77709390Y-60120814D01*
X77621789Y-59989711D01*
X77621786Y-59989707D01*
X77510292Y-59878213D01*
X77510288Y-59878210D01*
X77379185Y-59790609D01*
X77379172Y-59790602D01*
X77233501Y-59730264D01*
X77233489Y-59730261D01*
X77078845Y-59699500D01*
X77078842Y-59699500D01*
X76921158Y-59699500D01*
X76921155Y-59699500D01*
X76766510Y-59730261D01*
X76766498Y-59730264D01*
X76620827Y-59790602D01*
X76620814Y-59790609D01*
X76489711Y-59878210D01*
X76489707Y-59878213D01*
X76378213Y-59989707D01*
X76378210Y-59989711D01*
X76290609Y-60120814D01*
X76290602Y-60120827D01*
X76230264Y-60266498D01*
X76230261Y-60266510D01*
X76199500Y-60421153D01*
X38744535Y-60421153D01*
X38949248Y-60292523D01*
X39168825Y-60117416D01*
X39367416Y-59918825D01*
X39542523Y-59699248D01*
X39691945Y-59461445D01*
X39711349Y-59421153D01*
X56449500Y-59421153D01*
X56449500Y-59578846D01*
X56480261Y-59733489D01*
X56480264Y-59733501D01*
X56540602Y-59879172D01*
X56540609Y-59879185D01*
X56628210Y-60010288D01*
X56628213Y-60010292D01*
X56739707Y-60121786D01*
X56739711Y-60121789D01*
X56870814Y-60209390D01*
X56870827Y-60209397D01*
X57008683Y-60266498D01*
X57016503Y-60269737D01*
X57171153Y-60300499D01*
X57171156Y-60300500D01*
X57171158Y-60300500D01*
X57328844Y-60300500D01*
X57328845Y-60300499D01*
X57339179Y-60298443D01*
X57364287Y-60293450D01*
X57364292Y-60293449D01*
X57449800Y-60276439D01*
X57483497Y-60269737D01*
X57629179Y-60209394D01*
X57760289Y-60121789D01*
X57871789Y-60010289D01*
X57959394Y-59879179D01*
X58019737Y-59733497D01*
X58050500Y-59578842D01*
X58050500Y-59421158D01*
X58050500Y-59421155D01*
X58050499Y-59421153D01*
X58019738Y-59266510D01*
X58019737Y-59266503D01*
X58019735Y-59266498D01*
X57959397Y-59120827D01*
X57959390Y-59120814D01*
X57871789Y-58989711D01*
X57871786Y-58989707D01*
X57760292Y-58878213D01*
X57760288Y-58878210D01*
X57629185Y-58790609D01*
X57629172Y-58790602D01*
X57483501Y-58730264D01*
X57483489Y-58730261D01*
X57328845Y-58699500D01*
X57328842Y-58699500D01*
X57171158Y-58699500D01*
X57171155Y-58699500D01*
X57016510Y-58730261D01*
X57016498Y-58730264D01*
X56870827Y-58790602D01*
X56870814Y-58790609D01*
X56739711Y-58878210D01*
X56739707Y-58878213D01*
X56628213Y-58989707D01*
X56628210Y-58989711D01*
X56540609Y-59120814D01*
X56540602Y-59120827D01*
X56480264Y-59266498D01*
X56480261Y-59266510D01*
X56449500Y-59421153D01*
X39711349Y-59421153D01*
X39785827Y-59266498D01*
X39813796Y-59208419D01*
X39813797Y-59208416D01*
X39813801Y-59208408D01*
X39906560Y-58943318D01*
X39969055Y-58669509D01*
X39973599Y-58629185D01*
X40000499Y-58390431D01*
X40000500Y-58390427D01*
X40000500Y-58171153D01*
X79949500Y-58171153D01*
X79949500Y-58328846D01*
X79980261Y-58483489D01*
X79980264Y-58483501D01*
X80040602Y-58629172D01*
X80040609Y-58629185D01*
X80128210Y-58760288D01*
X80128213Y-58760292D01*
X80239707Y-58871786D01*
X80239711Y-58871789D01*
X80370814Y-58959390D01*
X80370827Y-58959397D01*
X80444013Y-58989711D01*
X80516503Y-59019737D01*
X80636168Y-59043540D01*
X80671153Y-59050499D01*
X80671156Y-59050500D01*
X80671158Y-59050500D01*
X80828843Y-59050500D01*
X80845939Y-59047099D01*
X80863831Y-59043540D01*
X80933423Y-59049767D01*
X80988601Y-59092629D01*
X81011846Y-59158518D01*
X81002586Y-59212607D01*
X80980264Y-59266499D01*
X80980261Y-59266510D01*
X80949500Y-59421153D01*
X80949500Y-59578846D01*
X80980261Y-59733489D01*
X80980264Y-59733501D01*
X81040602Y-59879172D01*
X81040609Y-59879185D01*
X81128210Y-60010288D01*
X81128213Y-60010292D01*
X81239707Y-60121786D01*
X81239711Y-60121789D01*
X81370814Y-60209390D01*
X81370827Y-60209397D01*
X81508683Y-60266498D01*
X81516503Y-60269737D01*
X81671153Y-60300499D01*
X81671156Y-60300500D01*
X81671158Y-60300500D01*
X81828844Y-60300500D01*
X81828845Y-60300499D01*
X81983497Y-60269737D01*
X82129179Y-60209394D01*
X82260289Y-60121789D01*
X82371789Y-60010289D01*
X82459394Y-59879179D01*
X82519737Y-59733497D01*
X82550500Y-59578842D01*
X82550500Y-59421158D01*
X82550500Y-59421155D01*
X82550499Y-59421153D01*
X82519738Y-59266510D01*
X82519737Y-59266503D01*
X82519735Y-59266498D01*
X82459397Y-59120827D01*
X82459390Y-59120814D01*
X82371789Y-58989711D01*
X82371786Y-58989707D01*
X82260292Y-58878213D01*
X82260288Y-58878210D01*
X82129185Y-58790609D01*
X82129172Y-58790602D01*
X81983501Y-58730264D01*
X81983489Y-58730261D01*
X81828845Y-58699500D01*
X81828842Y-58699500D01*
X81671158Y-58699500D01*
X81671157Y-58699500D01*
X81636164Y-58706460D01*
X81566573Y-58700231D01*
X81511396Y-58657367D01*
X81488153Y-58591477D01*
X81497414Y-58537389D01*
X81519737Y-58483497D01*
X81550500Y-58328842D01*
X81550500Y-58171158D01*
X81550500Y-58171155D01*
X81550499Y-58171153D01*
X81542371Y-58130287D01*
X81538250Y-58109568D01*
X118499500Y-58109568D01*
X118499500Y-58390431D01*
X118530942Y-58669494D01*
X118530945Y-58669512D01*
X118593439Y-58943317D01*
X118593443Y-58943329D01*
X118686200Y-59208411D01*
X118808053Y-59461442D01*
X118808055Y-59461445D01*
X118957477Y-59699248D01*
X119132584Y-59918825D01*
X119331175Y-60117416D01*
X119550752Y-60292523D01*
X119788555Y-60441945D01*
X120041592Y-60563801D01*
X120240680Y-60633465D01*
X120306670Y-60656556D01*
X120306682Y-60656560D01*
X120580491Y-60719055D01*
X120580497Y-60719055D01*
X120580505Y-60719057D01*
X120766547Y-60740018D01*
X120859569Y-60750499D01*
X120859572Y-60750500D01*
X120859575Y-60750500D01*
X121140428Y-60750500D01*
X121140429Y-60750499D01*
X121291403Y-60733489D01*
X121419494Y-60719057D01*
X121419499Y-60719056D01*
X121419509Y-60719055D01*
X121693318Y-60656560D01*
X121958408Y-60563801D01*
X122211445Y-60441945D01*
X122449248Y-60292523D01*
X122668825Y-60117416D01*
X122867416Y-59918825D01*
X123042523Y-59699248D01*
X123191945Y-59461445D01*
X123313801Y-59208408D01*
X123406560Y-58943318D01*
X123469055Y-58669509D01*
X123473599Y-58629185D01*
X123500499Y-58390431D01*
X123500500Y-58390427D01*
X123500500Y-58109572D01*
X123500499Y-58109568D01*
X123469057Y-57830505D01*
X123469054Y-57830487D01*
X123406560Y-57556682D01*
X123406556Y-57556670D01*
X123379819Y-57480261D01*
X123313801Y-57291592D01*
X123191945Y-57038555D01*
X123042523Y-56800752D01*
X122867416Y-56581175D01*
X122668825Y-56382584D01*
X122449248Y-56207477D01*
X122211445Y-56058055D01*
X122211442Y-56058053D01*
X121958411Y-55936200D01*
X121693329Y-55843443D01*
X121693317Y-55843439D01*
X121419512Y-55780945D01*
X121419494Y-55780942D01*
X121140431Y-55749500D01*
X121140425Y-55749500D01*
X120859575Y-55749500D01*
X120859568Y-55749500D01*
X120580505Y-55780942D01*
X120580487Y-55780945D01*
X120306682Y-55843439D01*
X120306670Y-55843443D01*
X120041588Y-55936200D01*
X119788557Y-56058053D01*
X119550753Y-56207476D01*
X119331175Y-56382583D01*
X119132583Y-56581175D01*
X118957476Y-56800753D01*
X118808053Y-57038557D01*
X118686200Y-57291588D01*
X118593443Y-57556670D01*
X118593439Y-57556682D01*
X118530945Y-57830487D01*
X118530942Y-57830505D01*
X118499500Y-58109568D01*
X81538250Y-58109568D01*
X81519738Y-58016508D01*
X81519737Y-58016507D01*
X81519737Y-58016503D01*
X81519735Y-58016498D01*
X81459397Y-57870827D01*
X81459390Y-57870814D01*
X81371789Y-57739711D01*
X81371786Y-57739707D01*
X81260292Y-57628213D01*
X81260288Y-57628210D01*
X81129185Y-57540609D01*
X81129172Y-57540602D01*
X80983501Y-57480264D01*
X80983489Y-57480261D01*
X80828845Y-57449500D01*
X80828842Y-57449500D01*
X80671158Y-57449500D01*
X80671155Y-57449500D01*
X80516510Y-57480261D01*
X80516498Y-57480264D01*
X80370827Y-57540602D01*
X80370814Y-57540609D01*
X80239711Y-57628210D01*
X80239707Y-57628213D01*
X80128213Y-57739707D01*
X80128210Y-57739711D01*
X80040609Y-57870814D01*
X80040602Y-57870827D01*
X79980264Y-58016498D01*
X79980261Y-58016510D01*
X79949500Y-58171153D01*
X40000500Y-58171153D01*
X40000500Y-58109572D01*
X40000499Y-58109568D01*
X39969057Y-57830505D01*
X39969054Y-57830487D01*
X39906560Y-57556682D01*
X39906556Y-57556670D01*
X39879819Y-57480261D01*
X39813801Y-57291592D01*
X39691945Y-57038555D01*
X39542523Y-56800752D01*
X39367416Y-56581175D01*
X39168825Y-56382584D01*
X38949248Y-56207477D01*
X38711445Y-56058055D01*
X38711442Y-56058053D01*
X38458411Y-55936200D01*
X38193329Y-55843443D01*
X38193317Y-55843439D01*
X37919512Y-55780945D01*
X37919494Y-55780942D01*
X37640431Y-55749500D01*
X37640425Y-55749500D01*
X37359575Y-55749500D01*
X37359568Y-55749500D01*
X37080505Y-55780942D01*
X37080487Y-55780945D01*
X36806682Y-55843439D01*
X36806670Y-55843443D01*
X36541588Y-55936200D01*
X36288557Y-56058053D01*
X36050753Y-56207476D01*
X35831175Y-56382583D01*
X35632583Y-56581175D01*
X35457476Y-56800753D01*
X35308053Y-57038557D01*
X35186200Y-57291588D01*
X35093443Y-57556670D01*
X35093439Y-57556682D01*
X35030945Y-57830487D01*
X35030942Y-57830505D01*
X34999500Y-58109568D01*
X34250500Y-58109568D01*
X34250500Y-55624500D01*
X34270185Y-55557461D01*
X34322989Y-55511706D01*
X34374500Y-55500500D01*
X123875500Y-55500500D01*
X123942539Y-55520185D01*
G37*
%TD.AperFunction*%
%TD*%
M02*
