M48
; DRILL file {KiCad 9.0.3} date 2025-12-22T17:44:07-0300
; FORMAT={-:-/ absolute / metric / decimal}
; #@! TF.CreationDate,2025-12-22T17:44:07-03:00
; #@! TF.GenerationSoftware,Kicad,Pcbnew,9.0.3
; #@! TF.FileFunction,Plated,1,4,PTH
FMAT,2
METRIC
; #@! TA.AperFunction,Plated,PTH,ViaDrill
T1C0.300
; #@! TA.AperFunction,Plated,PTH,ViaDrill
T2C0.400
; #@! TA.AperFunction,Plated,PTH,ComponentDrill
T3C0.400
; #@! TA.AperFunction,Plated,PTH,ComponentDrill
T4C0.600
; #@! TA.AperFunction,Plated,PTH,ComponentDrill
T5C1.000
%
G90
G05
T1
X40.163Y-83.587
X45.282Y-63.94
X45.5Y-74.587
X48.5Y-99.587
X49.162Y-94.5
X53.5Y-79.25
X56.662Y-99.587
X57.25Y-59.5
X57.75Y-64.5
X60.25Y-66.0
X64.15Y-91.75
X64.25Y-80.75
X65.087Y-67.5
X66.175Y-87.675
X66.25Y-85.075
X67.0Y-77.75
X68.5Y-85.35
X70.0Y-80.5
X70.5Y-76.25
X71.0Y-84.75
X71.912Y-80.5
X72.0Y-98.5
X72.375Y-64.875
X75.0Y-76.25
X75.0Y-93.25
X75.5Y-85.25
X75.5Y-87.5
X75.75Y-93.75
X76.25Y-105.5
X77.0Y-60.5
X77.25Y-66.912
X77.75Y-85.25
X77.75Y-87.5
X80.75Y-58.25
X81.5Y-109.75
X81.75Y-59.5
X84.5Y-64.75
X86.502Y-84.097
X86.75Y-83.0
X86.875Y-85.625
X107.525Y-81.75
X107.525Y-83.75
X107.525Y-85.75
T2
X38.0Y-63.75
X38.0Y-65.0
X38.0Y-66.5
X39.0Y-62.75
X40.0Y-61.75
X40.25Y-65.25
X40.25Y-66.5
X40.25Y-68.25
X40.5Y-64.0
X41.0Y-61.0
X41.25Y-63.0
X42.25Y-60.75
X42.5Y-62.75
X43.5Y-60.75
X43.5Y-62.75
X45.0Y-101.5
X47.362Y-91.85
X56.25Y-83.75
X57.5Y-63.25
X57.5Y-96.5
X60.75Y-104.5
X61.63Y-84.13
X67.25Y-110.25
X68.5Y-87.25
X69.85Y-82.75
X70.75Y-99.5
X72.5Y-90.5
X76.5Y-110.75
X77.25Y-104.25
X79.0Y-101.25
X79.51Y-110.8
X81.5Y-111.25
X82.0Y-105.5
X82.75Y-92.8
X83.0Y-86.5
X83.0Y-99.5
X87.05Y-103.73
X87.25Y-94.25
X89.0Y-100.0
X89.0Y-105.75
X98.56Y-68.0
X105.0Y-109.25
X106.75Y-97.5
X107.5Y-87.75
X108.5Y-97.5
X110.0Y-95.5
X110.0Y-97.25
X111.5Y-95.5
X111.5Y-97.25
X113.0Y-95.5
X113.0Y-97.25
X114.75Y-95.5
X114.75Y-97.25
X116.5Y-95.5
X116.5Y-97.25
X118.25Y-95.5
X118.25Y-97.25
T3
X40.425Y-92.775
X40.425Y-93.625
X40.425Y-94.475
X40.425Y-95.325
X40.425Y-96.175
X40.425Y-97.025
X40.425Y-97.875
X40.425Y-98.725
X41.775Y-92.775
X41.775Y-93.625
X41.775Y-94.475
X41.775Y-95.325
X41.775Y-96.175
X41.775Y-97.025
X41.775Y-97.875
X41.775Y-98.725
T5
X64.718Y-99.5
X64.718Y-102.0
X101.69Y-102.0
X104.23Y-102.0
X106.77Y-102.0
X109.31Y-102.0
T4
G00X37.815Y-91.425
M15
G01X37.015Y-91.425
M16
G05
G00X37.815Y-100.075
M15
G01X37.015Y-100.075
M16
G05
G00X41.545Y-91.425
M15
G01X40.045Y-91.425
M16
G05
G00X41.545Y-100.075
M15
G01X40.045Y-100.075
M16
G05
M30
