%TF.GenerationSoftware,KiCad,Pcbnew,9.0.3*%
%TF.CreationDate,2025-10-28T23:27:34-03:00*%
%TF.ProjectId,PcbArroz,50636241-7272-46f7-9a2e-6b696361645f,rev?*%
%TF.SameCoordinates,Original*%
%TF.FileFunction,Copper,L1,Top*%
%TF.FilePolarity,Positive*%
%FSLAX46Y46*%
G04 Gerber Fmt 4.6, Leading zero omitted, Abs format (unit mm)*
G04 Created by KiCad (PCBNEW 9.0.3) date 2025-10-28 23:27:34*
%MOMM*%
%LPD*%
G01*
G04 APERTURE LIST*
G04 Aperture macros list*
%AMRoundRect*
0 Rectangle with rounded corners*
0 $1 Rounding radius*
0 $2 $3 $4 $5 $6 $7 $8 $9 X,Y pos of 4 corners*
0 Add a 4 corners polygon primitive as box body*
4,1,4,$2,$3,$4,$5,$6,$7,$8,$9,$2,$3,0*
0 Add four circle primitives for the rounded corners*
1,1,$1+$1,$2,$3*
1,1,$1+$1,$4,$5*
1,1,$1+$1,$6,$7*
1,1,$1+$1,$8,$9*
0 Add four rect primitives between the rounded corners*
20,1,$1+$1,$2,$3,$4,$5,0*
20,1,$1+$1,$4,$5,$6,$7,0*
20,1,$1+$1,$6,$7,$8,$9,0*
20,1,$1+$1,$8,$9,$2,$3,0*%
G04 Aperture macros list end*
%TA.AperFunction,SMDPad,CuDef*%
%ADD10RoundRect,0.150000X-0.587500X-0.150000X0.587500X-0.150000X0.587500X0.150000X-0.587500X0.150000X0*%
%TD*%
%TA.AperFunction,SMDPad,CuDef*%
%ADD11RoundRect,0.150000X0.587500X0.150000X-0.587500X0.150000X-0.587500X-0.150000X0.587500X-0.150000X0*%
%TD*%
%TA.AperFunction,SMDPad,CuDef*%
%ADD12RoundRect,0.140000X-0.170000X0.140000X-0.170000X-0.140000X0.170000X-0.140000X0.170000X0.140000X0*%
%TD*%
%TA.AperFunction,SMDPad,CuDef*%
%ADD13R,1.050000X0.650000*%
%TD*%
%TA.AperFunction,SMDPad,CuDef*%
%ADD14RoundRect,0.135000X0.135000X0.185000X-0.135000X0.185000X-0.135000X-0.185000X0.135000X-0.185000X0*%
%TD*%
%TA.AperFunction,SMDPad,CuDef*%
%ADD15RoundRect,0.140000X0.140000X0.170000X-0.140000X0.170000X-0.140000X-0.170000X0.140000X-0.170000X0*%
%TD*%
%TA.AperFunction,SMDPad,CuDef*%
%ADD16RoundRect,0.135000X-0.135000X-0.185000X0.135000X-0.185000X0.135000X0.185000X-0.135000X0.185000X0*%
%TD*%
%TA.AperFunction,SMDPad,CuDef*%
%ADD17RoundRect,0.250000X-0.900000X1.000000X-0.900000X-1.000000X0.900000X-1.000000X0.900000X1.000000X0*%
%TD*%
%TA.AperFunction,SMDPad,CuDef*%
%ADD18RoundRect,0.093750X-0.156250X-0.093750X0.156250X-0.093750X0.156250X0.093750X-0.156250X0.093750X0*%
%TD*%
%TA.AperFunction,SMDPad,CuDef*%
%ADD19RoundRect,0.075000X-0.250000X-0.075000X0.250000X-0.075000X0.250000X0.075000X-0.250000X0.075000X0*%
%TD*%
%TA.AperFunction,SMDPad,CuDef*%
%ADD20R,1.000000X1.000000*%
%TD*%
%TA.AperFunction,SMDPad,CuDef*%
%ADD21RoundRect,0.225000X-0.250000X0.225000X-0.250000X-0.225000X0.250000X-0.225000X0.250000X0.225000X0*%
%TD*%
%TA.AperFunction,SMDPad,CuDef*%
%ADD22RoundRect,0.135000X-0.185000X0.135000X-0.185000X-0.135000X0.185000X-0.135000X0.185000X0.135000X0*%
%TD*%
%TA.AperFunction,SMDPad,CuDef*%
%ADD23RoundRect,0.225000X0.250000X-0.225000X0.250000X0.225000X-0.250000X0.225000X-0.250000X-0.225000X0*%
%TD*%
%TA.AperFunction,SMDPad,CuDef*%
%ADD24RoundRect,0.140000X0.170000X-0.140000X0.170000X0.140000X-0.170000X0.140000X-0.170000X-0.140000X0*%
%TD*%
%TA.AperFunction,SMDPad,CuDef*%
%ADD25RoundRect,0.062500X-0.350000X-0.062500X0.350000X-0.062500X0.350000X0.062500X-0.350000X0.062500X0*%
%TD*%
%TA.AperFunction,SMDPad,CuDef*%
%ADD26RoundRect,0.062500X-0.062500X-0.350000X0.062500X-0.350000X0.062500X0.350000X-0.062500X0.350000X0*%
%TD*%
%TA.AperFunction,HeatsinkPad*%
%ADD27R,2.600000X2.600000*%
%TD*%
%TA.AperFunction,SMDPad,CuDef*%
%ADD28RoundRect,0.140000X-0.140000X-0.170000X0.140000X-0.170000X0.140000X0.170000X-0.140000X0.170000X0*%
%TD*%
%TA.AperFunction,SMDPad,CuDef*%
%ADD29RoundRect,0.317500X-1.157500X-0.317500X1.157500X-0.317500X1.157500X0.317500X-1.157500X0.317500X0*%
%TD*%
%TA.AperFunction,SMDPad,CuDef*%
%ADD30RoundRect,0.218750X-0.218750X-0.256250X0.218750X-0.256250X0.218750X0.256250X-0.218750X0.256250X0*%
%TD*%
%TA.AperFunction,SMDPad,CuDef*%
%ADD31RoundRect,0.135000X0.185000X-0.135000X0.185000X0.135000X-0.185000X0.135000X-0.185000X-0.135000X0*%
%TD*%
%TA.AperFunction,SMDPad,CuDef*%
%ADD32RoundRect,0.218750X0.256250X-0.218750X0.256250X0.218750X-0.256250X0.218750X-0.256250X-0.218750X0*%
%TD*%
%TA.AperFunction,SMDPad,CuDef*%
%ADD33RoundRect,0.105000X0.420000X0.995000X-0.420000X0.995000X-0.420000X-0.995000X0.420000X-0.995000X0*%
%TD*%
%TA.AperFunction,SMDPad,CuDef*%
%ADD34RoundRect,0.100000X0.400000X0.400000X-0.400000X0.400000X-0.400000X-0.400000X0.400000X-0.400000X0*%
%TD*%
%TA.AperFunction,SMDPad,CuDef*%
%ADD35RoundRect,0.062500X-0.375000X-0.062500X0.375000X-0.062500X0.375000X0.062500X-0.375000X0.062500X0*%
%TD*%
%TA.AperFunction,SMDPad,CuDef*%
%ADD36RoundRect,0.062500X-0.062500X-0.375000X0.062500X-0.375000X0.062500X0.375000X-0.062500X0.375000X0*%
%TD*%
%TA.AperFunction,HeatsinkPad*%
%ADD37R,1.600000X1.600000*%
%TD*%
%TA.AperFunction,SMDPad,CuDef*%
%ADD38RoundRect,0.218750X0.218750X0.256250X-0.218750X0.256250X-0.218750X-0.256250X0.218750X-0.256250X0*%
%TD*%
%TA.AperFunction,SMDPad,CuDef*%
%ADD39RoundRect,0.062500X-0.337500X-0.062500X0.337500X-0.062500X0.337500X0.062500X-0.337500X0.062500X0*%
%TD*%
%TA.AperFunction,SMDPad,CuDef*%
%ADD40RoundRect,0.062500X-0.062500X-0.337500X0.062500X-0.337500X0.062500X0.337500X-0.062500X0.337500X0*%
%TD*%
%TA.AperFunction,HeatsinkPad*%
%ADD41R,5.300000X5.300000*%
%TD*%
%TA.AperFunction,SMDPad,CuDef*%
%ADD42RoundRect,0.225000X0.225000X0.250000X-0.225000X0.250000X-0.225000X-0.250000X0.225000X-0.250000X0*%
%TD*%
%TA.AperFunction,ComponentPad*%
%ADD43C,0.700000*%
%TD*%
%TA.AperFunction,ComponentPad*%
%ADD44O,2.400000X0.900000*%
%TD*%
%TA.AperFunction,ComponentPad*%
%ADD45O,1.700000X0.900000*%
%TD*%
%TA.AperFunction,ComponentPad*%
%ADD46RoundRect,0.250000X0.550000X0.550000X-0.550000X0.550000X-0.550000X-0.550000X0.550000X-0.550000X0*%
%TD*%
%TA.AperFunction,ComponentPad*%
%ADD47C,1.600000*%
%TD*%
%TA.AperFunction,SMDPad,CuDef*%
%ADD48RoundRect,0.250000X-0.475000X0.250000X-0.475000X-0.250000X0.475000X-0.250000X0.475000X0.250000X0*%
%TD*%
%TA.AperFunction,SMDPad,CuDef*%
%ADD49RoundRect,0.087500X-0.087500X0.250000X-0.087500X-0.250000X0.087500X-0.250000X0.087500X0.250000X0*%
%TD*%
%TA.AperFunction,ComponentPad*%
%ADD50R,1.700000X1.700000*%
%TD*%
%TA.AperFunction,ComponentPad*%
%ADD51C,1.700000*%
%TD*%
%TA.AperFunction,ComponentPad*%
%ADD52RoundRect,0.250000X0.750000X-0.600000X0.750000X0.600000X-0.750000X0.600000X-0.750000X-0.600000X0*%
%TD*%
%TA.AperFunction,ComponentPad*%
%ADD53O,2.000000X1.700000*%
%TD*%
%TA.AperFunction,ViaPad*%
%ADD54C,0.500000*%
%TD*%
%TA.AperFunction,ViaPad*%
%ADD55C,0.800000*%
%TD*%
%TA.AperFunction,ViaPad*%
%ADD56C,0.600000*%
%TD*%
%TA.AperFunction,ViaPad*%
%ADD57C,0.700000*%
%TD*%
%TA.AperFunction,ViaPad*%
%ADD58C,1.000000*%
%TD*%
%TA.AperFunction,Conductor*%
%ADD59C,0.700000*%
%TD*%
%TA.AperFunction,Conductor*%
%ADD60C,0.300000*%
%TD*%
%TA.AperFunction,Conductor*%
%ADD61C,0.500000*%
%TD*%
%TA.AperFunction,Conductor*%
%ADD62C,0.200000*%
%TD*%
%TA.AperFunction,Conductor*%
%ADD63C,0.320000*%
%TD*%
%TA.AperFunction,Profile*%
%ADD64C,0.050000*%
%TD*%
G04 APERTURE END LIST*
D10*
%TO.P,Q4,1,B*%
%TO.N,Net-(Q4-B)*%
X230902300Y-136489800D03*
%TO.P,Q4,2,E*%
%TO.N,Net-(Q4-E)*%
X230902300Y-138389800D03*
%TO.P,Q4,3,C*%
%TO.N,BOOT*%
X232777300Y-137439800D03*
%TD*%
D11*
%TO.P,Q3,1,G*%
%TO.N,PWR_Sensor*%
X224576900Y-154369200D03*
%TO.P,Q3,2,S*%
%TO.N,GND*%
X224576900Y-152469200D03*
%TO.P,Q3,3,D*%
%TO.N,Net-(AJ-SR04M1-GND)*%
X222701900Y-153419200D03*
%TD*%
D12*
%TO.P,C11,1*%
%TO.N,+3.3V*%
X227266000Y-144984600D03*
%TO.P,C11,2*%
%TO.N,GND*%
X227266000Y-145944600D03*
%TD*%
D13*
%TO.P,SW1,1,1*%
%TO.N,uC_EN*%
X214421000Y-131734600D03*
X210271000Y-131734600D03*
%TO.P,SW1,2,2*%
%TO.N,GND*%
X214421000Y-129584600D03*
X210296000Y-129584600D03*
%TD*%
D14*
%TO.P,R23,1*%
%TO.N,Net-(D3-K)*%
X223078800Y-146812600D03*
%TO.P,R23,2*%
%TO.N,GND*%
X222058800Y-146812600D03*
%TD*%
D15*
%TO.P,C10,1*%
%TO.N,+3.3V*%
X209981200Y-141505400D03*
%TO.P,C10,2*%
%TO.N,GND*%
X209021200Y-141505400D03*
%TD*%
D16*
%TO.P,R12,1*%
%TO.N,GND*%
X190068200Y-146026600D03*
%TO.P,R12,2*%
%TO.N,Net-(J2-CC2)*%
X191088200Y-146026600D03*
%TD*%
D14*
%TO.P,R3,1*%
%TO.N,+3.3V*%
X224844800Y-145112200D03*
%TO.P,R3,2*%
%TO.N,uC_EN*%
X223824800Y-145112200D03*
%TD*%
D16*
%TO.P,R21,1*%
%TO.N,Net-(U6-TXD)*%
X226079800Y-135939800D03*
%TO.P,R21,2*%
%TO.N,U0RX_uC*%
X227099800Y-135939800D03*
%TD*%
D17*
%TO.P,CR1,1*%
%TO.N,VBUS*%
X195785200Y-147889800D03*
%TO.P,CR1,2*%
%TO.N,GND*%
X195785200Y-152189800D03*
%TD*%
D18*
%TO.P,U7,1,I/O1*%
%TO.N,USB_D+*%
X203291800Y-139875700D03*
D19*
%TO.P,U7,2,GND*%
%TO.N,GND*%
X203216800Y-140413200D03*
D18*
%TO.P,U7,3,I/O2*%
%TO.N,USB_D-*%
X203291800Y-140950700D03*
%TO.P,U7,4,I/O2*%
X204991800Y-140950700D03*
D19*
%TO.P,U7,5,VBUS*%
%TO.N,VBUS*%
X205066800Y-140413200D03*
D18*
%TO.P,U7,6,I/O1*%
%TO.N,USB_D+*%
X204991800Y-139875700D03*
%TD*%
D20*
%TO.P,TP4,1,1*%
%TO.N,uC_EN*%
X222048800Y-133123400D03*
%TD*%
%TO.P,TP9,1,1*%
%TO.N,TRIG_Sensor*%
X220550200Y-159615600D03*
%TD*%
D21*
%TO.P,C1,1*%
%TO.N,+3.3V*%
X261698200Y-137003800D03*
%TO.P,C1,2*%
%TO.N,GND*%
X261698200Y-138553800D03*
%TD*%
D16*
%TO.P,R13,1*%
%TO.N,Net-(Q4-E)*%
X212547200Y-136527000D03*
%TO.P,R13,2*%
%TO.N,Net-(Q2-B)*%
X213567200Y-136527000D03*
%TD*%
%TO.P,R10,1*%
%TO.N,Net-(U4-ITERM)*%
X206584600Y-148001500D03*
%TO.P,R10,2*%
%TO.N,GND*%
X207604600Y-148001500D03*
%TD*%
D22*
%TO.P,R5,1*%
%TO.N,Net-(U3-FB)*%
X217248200Y-149656800D03*
%TO.P,R5,2*%
%TO.N,GND*%
X217248200Y-150676800D03*
%TD*%
D16*
%TO.P,R20,1*%
%TO.N,Net-(U1-IO12)*%
X240411000Y-152402000D03*
%TO.P,R20,2*%
%TO.N,GND*%
X241431000Y-152402000D03*
%TD*%
D23*
%TO.P,C15,1*%
%TO.N,+3.3V*%
X226089800Y-142644800D03*
%TO.P,C15,2*%
%TO.N,GND*%
X226089800Y-141094800D03*
%TD*%
D12*
%TO.P,C9,1*%
%TO.N,+BATT*%
X202236800Y-150880600D03*
%TO.P,C9,2*%
%TO.N,GND*%
X202236800Y-151840600D03*
%TD*%
D24*
%TO.P,C2,1*%
%TO.N,+3.3V*%
X228602000Y-141731400D03*
%TO.P,C2,2*%
%TO.N,GND*%
X228602000Y-140771400D03*
%TD*%
D25*
%TO.P,U6,1,~{RI}/CLK*%
%TO.N,unconnected-(U6-~{RI}{slash}CLK-Pad1)*%
X211206300Y-139427600D03*
%TO.P,U6,2,GND*%
%TO.N,GND*%
X211206300Y-139927600D03*
%TO.P,U6,3,D+*%
%TO.N,USB_D+*%
X211206300Y-140427600D03*
%TO.P,U6,4,D-*%
%TO.N,USB_D-*%
X211206300Y-140927600D03*
%TO.P,U6,5,VIO*%
%TO.N,+3.3V*%
X211206300Y-141427600D03*
%TO.P,U6,6,VDD*%
X211206300Y-141927600D03*
D26*
%TO.P,U6,7,VREGIN*%
X211893800Y-142615100D03*
%TO.P,U6,8,VBUS*%
%TO.N,Net-(U6-VBUS)*%
X212393800Y-142615100D03*
%TO.P,U6,9,~{RST}*%
%TO.N,Net-(U6-~{RST})*%
X212893800Y-142615100D03*
%TO.P,U6,10,NC*%
%TO.N,unconnected-(U6-NC-Pad10)*%
X213393800Y-142615100D03*
%TO.P,U6,11,~{WAKEUP}/GPIO.3*%
%TO.N,unconnected-(U6-~{WAKEUP}{slash}GPIO.3-Pad11)*%
X213893800Y-142615100D03*
%TO.P,U6,12,RS485/GPIO.2*%
%TO.N,unconnected-(U6-RS485{slash}GPIO.2-Pad12)*%
X214393800Y-142615100D03*
D25*
%TO.P,U6,13,~{RXT}/GPIO.1*%
%TO.N,unconnected-(U6-~{RXT}{slash}GPIO.1-Pad13)*%
X215081300Y-141927600D03*
%TO.P,U6,14,~{TXT}/GPIO.0*%
%TO.N,unconnected-(U6-~{TXT}{slash}GPIO.0-Pad14)*%
X215081300Y-141427600D03*
%TO.P,U6,15,~{SUSPEND}*%
%TO.N,unconnected-(U6-~{SUSPEND}-Pad15)*%
X215081300Y-140927600D03*
%TO.P,U6,16,NC*%
%TO.N,unconnected-(U6-NC-Pad16)*%
X215081300Y-140427600D03*
%TO.P,U6,17,SUSPEND*%
%TO.N,unconnected-(U6-SUSPEND-Pad17)*%
X215081300Y-139927600D03*
%TO.P,U6,18,~{CTS}*%
%TO.N,unconnected-(U6-~{CTS}-Pad18)*%
X215081300Y-139427600D03*
D26*
%TO.P,U6,19,~{RTS}*%
%TO.N,Net-(Q2-E)*%
X214393800Y-138740100D03*
%TO.P,U6,20,RXD*%
%TO.N,Net-(U6-RXD)*%
X213893800Y-138740100D03*
%TO.P,U6,21,TXD*%
%TO.N,Net-(U6-TXD)*%
X213393800Y-138740100D03*
%TO.P,U6,22,~{DSR}*%
%TO.N,unconnected-(U6-~{DSR}-Pad22)*%
X212893800Y-138740100D03*
%TO.P,U6,23,~{DTR}*%
%TO.N,Net-(Q4-E)*%
X212393800Y-138740100D03*
%TO.P,U6,24,~{DCD}*%
%TO.N,unconnected-(U6-~{DCD}-Pad24)*%
X211893800Y-138740100D03*
D27*
%TO.P,U6,25,GND*%
%TO.N,GND*%
X213143800Y-140677600D03*
%TD*%
D16*
%TO.P,R7,1*%
%TO.N,GND*%
X201604200Y-149195300D03*
%TO.P,R7,2*%
%TO.N,Net-(U4-TS)*%
X202624200Y-149195300D03*
%TD*%
D28*
%TO.P,L1,1,1*%
%TO.N,Net-(U3-SW)*%
X215701400Y-147118800D03*
%TO.P,L1,2,2*%
%TO.N,+3.3V*%
X216661400Y-147118800D03*
%TD*%
D14*
%TO.P,R14,1*%
%TO.N,Net-(U6-VBUS)*%
X212465600Y-146950400D03*
%TO.P,R14,2*%
%TO.N,VBUS*%
X211445600Y-146950400D03*
%TD*%
D29*
%TO.P,U2,1,GND*%
%TO.N,GND*%
X243814800Y-130984600D03*
%TO.P,U2,2,MISO*%
%TO.N,MISO_LoRa*%
X243814800Y-132984600D03*
%TO.P,U2,3,MOSI*%
%TO.N,MOSI_LoRa*%
X243814800Y-134984600D03*
%TO.P,U2,4,SCK*%
%TO.N,SCK_LoRa*%
X243814800Y-136984600D03*
%TO.P,U2,5,NSS*%
%TO.N,NSS_LoRa*%
X243814800Y-138984600D03*
%TO.P,U2,6,RESET*%
%TO.N,Reset_LoRa*%
X243814800Y-140984600D03*
%TO.P,U2,7,DIO5*%
%TO.N,unconnected-(U2-DIO5-Pad7)*%
X243814800Y-142984600D03*
%TO.P,U2,8,GND*%
%TO.N,GND*%
X243814800Y-144984600D03*
%TO.P,U2,9,ANT*%
%TO.N,Net-(J1-Ext)*%
X258864800Y-144984600D03*
%TO.P,U2,10,GND*%
%TO.N,GND*%
X258864800Y-142984600D03*
%TO.P,U2,11,DIO3*%
%TO.N,unconnected-(U2-DIO3-Pad11)*%
X258864800Y-140984600D03*
%TO.P,U2,12,DIO4*%
%TO.N,unconnected-(U2-DIO4-Pad12)*%
X258864800Y-138984600D03*
%TO.P,U2,13,3.3V*%
%TO.N,+3.3V*%
X258864800Y-136984600D03*
%TO.P,U2,14,DIO0*%
%TO.N,RX{slash}TXdone_LoRa*%
X258864800Y-134984600D03*
%TO.P,U2,15,DIO1*%
%TO.N,RXtimeout_LoRa*%
X258864800Y-132984600D03*
%TO.P,U2,16,DIO2*%
%TO.N,CADdetect_LoRa*%
X258864800Y-130984600D03*
%TD*%
D16*
%TO.P,R19,1*%
%TO.N,Net-(U1-IO2)*%
X240436400Y-151360600D03*
%TO.P,R19,2*%
%TO.N,GND*%
X241456400Y-151360600D03*
%TD*%
D30*
%TO.P,D1,1,K*%
%TO.N,Net-(D1-K)*%
X209431300Y-151506700D03*
%TO.P,D1,2,A*%
%TO.N,5V*%
X211006300Y-151506700D03*
%TD*%
D22*
%TO.P,R4,1*%
%TO.N,+3.3V*%
X218213400Y-148590000D03*
%TO.P,R4,2*%
%TO.N,Net-(U3-FB)*%
X218213400Y-149610000D03*
%TD*%
D31*
%TO.P,R2,1*%
%TO.N,ECHO_Sensor*%
X225720200Y-157785200D03*
%TO.P,R2,2*%
%TO.N,GND*%
X225720200Y-156765200D03*
%TD*%
D14*
%TO.P,R6,1*%
%TO.N,Net-(U3-PG)*%
X216183400Y-151299200D03*
%TO.P,R6,2*%
%TO.N,5V*%
X215163400Y-151299200D03*
%TD*%
D32*
%TO.P,D2,1,K*%
%TO.N,Net-(D2-K)*%
X209279000Y-154554800D03*
%TO.P,D2,2,A*%
%TO.N,5V*%
X209279000Y-152979800D03*
%TD*%
D14*
%TO.P,R16,1*%
%TO.N,+3.3V*%
X214532400Y-143816800D03*
%TO.P,R16,2*%
%TO.N,Net-(U6-~{RST})*%
X213512400Y-143816800D03*
%TD*%
D20*
%TO.P,TP2,1,1*%
%TO.N,+3.3V*%
X218746800Y-146890200D03*
%TD*%
D16*
%TO.P,R15,1*%
%TO.N,Net-(U6-VBUS)*%
X212445600Y-145950400D03*
%TO.P,R15,2*%
%TO.N,GND*%
X213465600Y-145950400D03*
%TD*%
D33*
%TO.P,J1,1,In*%
%TO.N,GND*%
X257406800Y-156984600D03*
D34*
X258881800Y-158484600D03*
D33*
X260356800Y-156984600D03*
D34*
%TO.P,J1,2,Ext*%
%TO.N,Net-(J1-Ext)*%
X258881800Y-155484600D03*
%TD*%
D20*
%TO.P,TP5,1,1*%
%TO.N,+3.3V*%
X209348800Y-143994600D03*
%TD*%
D10*
%TO.P,Q2,1,B*%
%TO.N,Net-(Q2-B)*%
X217174300Y-133734100D03*
%TO.P,Q2,2,E*%
%TO.N,Net-(Q2-E)*%
X217174300Y-135634100D03*
%TO.P,Q2,3,C*%
%TO.N,uC_EN*%
X219049300Y-134684100D03*
%TD*%
D16*
%TO.P,R18,1*%
%TO.N,BOOT*%
X237540800Y-148668200D03*
%TO.P,R18,2*%
%TO.N,+3.3V*%
X238560800Y-148668200D03*
%TD*%
D15*
%TO.P,C12,1*%
%TO.N,+3.3V*%
X210006600Y-142521400D03*
%TO.P,C12,2*%
%TO.N,GND*%
X209046600Y-142521400D03*
%TD*%
D35*
%TO.P,U4,1,TS*%
%TO.N,Net-(U4-TS)*%
X203847300Y-150369300D03*
%TO.P,U4,2,BAT*%
%TO.N,+BATT*%
X203847300Y-150869300D03*
%TO.P,U4,3,BAT*%
X203847300Y-151369300D03*
%TO.P,U4,4,~{CE}*%
%TO.N,GND*%
X203847300Y-151869300D03*
D36*
%TO.P,U4,5,EN2*%
%TO.N,5V*%
X204534800Y-152556800D03*
%TO.P,U4,6,EN1*%
%TO.N,GND*%
X205034800Y-152556800D03*
%TO.P,U4,7,~{PGOOD}*%
%TO.N,Net-(D2-K)*%
X205534800Y-152556800D03*
%TO.P,U4,8,VSS*%
%TO.N,VBUS*%
X206034800Y-152556800D03*
D35*
%TO.P,U4,9,~{CHG}*%
%TO.N,Net-(D1-K)*%
X206722300Y-151869300D03*
%TO.P,U4,10,OUT*%
%TO.N,5V*%
X206722300Y-151369300D03*
%TO.P,U4,11,OUT*%
X206722300Y-150869300D03*
%TO.P,U4,12,ILIM*%
%TO.N,Net-(U4-ILIM)*%
X206722300Y-150369300D03*
D36*
%TO.P,U4,13,IN*%
%TO.N,GND*%
X206034800Y-149681800D03*
%TO.P,U4,14,TMR*%
X205534800Y-149681800D03*
%TO.P,U4,15,ITERM*%
%TO.N,Net-(U4-ITERM)*%
X205034800Y-149681800D03*
%TO.P,U4,16,ISET*%
%TO.N,Net-(U4-ISET)*%
X204534800Y-149681800D03*
D37*
%TO.P,U4,17,VSS*%
%TO.N,VBUS*%
X205284800Y-151119300D03*
%TD*%
D38*
%TO.P,D3,1,K*%
%TO.N,Net-(D3-K)*%
X223318800Y-148312600D03*
%TO.P,D3,2,A*%
%TO.N,+3.3V*%
X221743800Y-148312600D03*
%TD*%
D21*
%TO.P,C14,1*%
%TO.N,+3.3V*%
X225996000Y-145094800D03*
%TO.P,C14,2*%
%TO.N,GND*%
X225996000Y-146644800D03*
%TD*%
D22*
%TO.P,R1,1*%
%TO.N,PWR_Sensor*%
X226316000Y-154381200D03*
%TO.P,R1,2*%
%TO.N,GND*%
X226316000Y-155401200D03*
%TD*%
D20*
%TO.P,TP8,1,1*%
%TO.N,ECHO_Sensor*%
X223090200Y-159615600D03*
%TD*%
D24*
%TO.P,C4,1*%
%TO.N,uC_EN*%
X216003600Y-131749200D03*
%TO.P,C4,2*%
%TO.N,GND*%
X216003600Y-130789200D03*
%TD*%
D20*
%TO.P,TP1,1,1*%
%TO.N,VBUS*%
X201170000Y-146585400D03*
%TD*%
D24*
%TO.P,C6,1*%
%TO.N,+3.3V*%
X235231400Y-141909200D03*
%TO.P,C6,2*%
%TO.N,GND*%
X235231400Y-140949200D03*
%TD*%
D39*
%TO.P,U1,1,VDDA*%
%TO.N,+3.3V*%
X228479800Y-143779800D03*
%TO.P,U1,2,LNA_IN*%
%TO.N,unconnected-(U1-LNA_IN-Pad2)*%
X228479800Y-144279800D03*
%TO.P,U1,3,VDDA3P3*%
%TO.N,+3.3V*%
X228479800Y-144779800D03*
%TO.P,U1,4,VDDA3P3*%
X228479800Y-145279800D03*
%TO.P,U1,5,SENSOR_VP*%
%TO.N,unconnected-(U1-SENSOR_VP-Pad5)*%
X228479800Y-145779800D03*
%TO.P,U1,6,SENSOR_CAPP*%
%TO.N,unconnected-(U1-SENSOR_CAPP-Pad6)*%
X228479800Y-146279800D03*
%TO.P,U1,7,SENSOR_CAPN*%
%TO.N,unconnected-(U1-SENSOR_CAPN-Pad7)*%
X228479800Y-146779800D03*
%TO.P,U1,8,SENSOR_VN*%
%TO.N,unconnected-(U1-SENSOR_VN-Pad8)*%
X228479800Y-147279800D03*
%TO.P,U1,9,EN*%
%TO.N,uC_EN*%
X228479800Y-147779800D03*
%TO.P,U1,10,IO34*%
%TO.N,unconnected-(U1-IO34-Pad10)*%
X228479800Y-148279800D03*
%TO.P,U1,11,IO35*%
%TO.N,unconnected-(U1-IO35-Pad11)*%
X228479800Y-148779800D03*
%TO.P,U1,12,IO32*%
%TO.N,CADdetect_LoRa*%
X228479800Y-149279800D03*
D40*
%TO.P,U1,13,IO33*%
%TO.N,RXtimeout_LoRa*%
X229179800Y-149979800D03*
%TO.P,U1,14,IO25*%
%TO.N,PWR_Sensor*%
X229679800Y-149979800D03*
%TO.P,U1,15,IO26*%
%TO.N,RX{slash}TXdone_LoRa*%
X230179800Y-149979800D03*
%TO.P,U1,16,IO27*%
%TO.N,MOSI_LoRa*%
X230679800Y-149979800D03*
%TO.P,U1,17,IO14*%
%TO.N,unconnected-(U1-IO14-Pad17)*%
X231179800Y-149979800D03*
%TO.P,U1,18,IO12*%
%TO.N,Net-(U1-IO12)*%
X231679800Y-149979800D03*
%TO.P,U1,19,VDD3P3_RTC*%
%TO.N,+3.3V*%
X232179800Y-149979800D03*
%TO.P,U1,20,IO13*%
%TO.N,unconnected-(U1-IO13-Pad20)*%
X232679800Y-149979800D03*
%TO.P,U1,21,IO15*%
%TO.N,ECHO_Sensor*%
X233179800Y-149979800D03*
%TO.P,U1,22,IO2*%
%TO.N,Net-(U1-IO2)*%
X233679800Y-149979800D03*
%TO.P,U1,23,IO0*%
%TO.N,BOOT*%
X234179800Y-149979800D03*
%TO.P,U1,24,IO4*%
%TO.N,TRIG_Sensor*%
X234679800Y-149979800D03*
D39*
%TO.P,U1,25,IO16*%
%TO.N,unconnected-(U1-IO16-Pad25)*%
X235379800Y-149279800D03*
%TO.P,U1,26,VDD_SDIO*%
%TO.N,unconnected-(U1-VDD_SDIO-Pad26)*%
X235379800Y-148779800D03*
%TO.P,U1,27,IO17*%
%TO.N,unconnected-(U1-IO17-Pad27)*%
X235379800Y-148279800D03*
%TO.P,U1,28,SD2/IO9*%
%TO.N,unconnected-(U1-SD2{slash}IO9-Pad28)*%
X235379800Y-147779800D03*
%TO.P,U1,29,SD3/IO10*%
%TO.N,unconnected-(U1-SD3{slash}IO10-Pad29)*%
X235379800Y-147279800D03*
%TO.P,U1,30,CMD*%
%TO.N,unconnected-(U1-CMD-Pad30)*%
X235379800Y-146779800D03*
%TO.P,U1,31,CLK*%
%TO.N,unconnected-(U1-CLK-Pad31)*%
X235379800Y-146279800D03*
%TO.P,U1,32,SD0*%
%TO.N,unconnected-(U1-SD0-Pad32)*%
X235379800Y-145779800D03*
%TO.P,U1,33,SD1*%
%TO.N,unconnected-(U1-SD1-Pad33)*%
X235379800Y-145279800D03*
%TO.P,U1,34,IO5*%
%TO.N,SCK_LoRa*%
X235379800Y-144779800D03*
%TO.P,U1,35,IO18*%
%TO.N,NSS_LoRa*%
X235379800Y-144279800D03*
%TO.P,U1,36,IO23*%
%TO.N,Reset_LoRa*%
X235379800Y-143779800D03*
D40*
%TO.P,U1,37,VDD3P3_CPU*%
%TO.N,+3.3V*%
X234679800Y-143079800D03*
%TO.P,U1,38,IO19*%
%TO.N,MISO_LoRa*%
X234179800Y-143079800D03*
%TO.P,U1,39,IO22*%
%TO.N,unconnected-(U1-IO22-Pad39)*%
X233679800Y-143079800D03*
%TO.P,U1,40,U0RXD/IO3*%
%TO.N,U0RX_uC*%
X233179800Y-143079800D03*
%TO.P,U1,41,U0TXD/IO1*%
%TO.N,U0TX_uC*%
X232679800Y-143079800D03*
%TO.P,U1,42,IO21*%
%TO.N,unconnected-(U1-IO21-Pad42)*%
X232179800Y-143079800D03*
%TO.P,U1,43,VDDA*%
%TO.N,+3.3V*%
X231679800Y-143079800D03*
%TO.P,U1,44,XTAL_N_NC*%
%TO.N,unconnected-(U1-XTAL_N_NC-Pad44)*%
X231179800Y-143079800D03*
%TO.P,U1,45,XTAL_P_NC*%
%TO.N,unconnected-(U1-XTAL_P_NC-Pad45)*%
X230679800Y-143079800D03*
%TO.P,U1,46,VDDA*%
%TO.N,+3.3V*%
X230179800Y-143079800D03*
%TO.P,U1,47,CAP2_NC*%
%TO.N,unconnected-(U1-CAP2_NC-Pad47)*%
X229679800Y-143079800D03*
%TO.P,U1,48,CAP1_NC*%
%TO.N,unconnected-(U1-CAP1_NC-Pad48)*%
X229179800Y-143079800D03*
D41*
%TO.P,U1,49,GND*%
%TO.N,GND*%
X231929800Y-146529800D03*
%TD*%
D12*
%TO.P,C13,1*%
%TO.N,+3.3V*%
X210847400Y-143413000D03*
%TO.P,C13,2*%
%TO.N,GND*%
X210847400Y-144373000D03*
%TD*%
D42*
%TO.P,C5,1*%
%TO.N,5V*%
X213673400Y-149011700D03*
%TO.P,C5,2*%
%TO.N,GND*%
X212123400Y-149011700D03*
%TD*%
D14*
%TO.P,R8,1*%
%TO.N,GND*%
X209255600Y-149271500D03*
%TO.P,R8,2*%
%TO.N,Net-(U4-ILIM)*%
X208235600Y-149271500D03*
%TD*%
D16*
%TO.P,R17,1*%
%TO.N,Net-(Q2-E)*%
X228329800Y-134939800D03*
%TO.P,R17,2*%
%TO.N,Net-(Q4-B)*%
X229349800Y-134939800D03*
%TD*%
D43*
%TO.P,J2,A1,GND*%
%TO.N,GND*%
X198114800Y-137214800D03*
%TO.P,J2,A4,VBUS*%
%TO.N,VBUS*%
X198114800Y-138064800D03*
%TO.P,J2,A5,CC1*%
%TO.N,Net-(J2-CC1)*%
X198114800Y-138914800D03*
%TO.P,J2,A6,D+*%
%TO.N,USB_D+*%
X198114800Y-139764800D03*
%TO.P,J2,A7,D-*%
%TO.N,USB_D-*%
X198114800Y-140614800D03*
%TO.P,J2,A8,SBU1*%
%TO.N,unconnected-(J2-SBU1-PadA8)*%
X198114800Y-141464800D03*
%TO.P,J2,A9,VBUS*%
%TO.N,VBUS*%
X198114800Y-142314800D03*
%TO.P,J2,A12,GND*%
%TO.N,GND*%
X198114800Y-143164800D03*
%TO.P,J2,B1,GND*%
X196764800Y-143164800D03*
%TO.P,J2,B4,VBUS*%
%TO.N,VBUS*%
X196764800Y-142314800D03*
%TO.P,J2,B5,CC2*%
%TO.N,Net-(J2-CC2)*%
X196764800Y-141464800D03*
%TO.P,J2,B6,D+*%
%TO.N,USB_D+*%
X196764800Y-140614800D03*
%TO.P,J2,B7,D-*%
%TO.N,USB_D-*%
X196764800Y-139764800D03*
%TO.P,J2,B8,SBU2*%
%TO.N,unconnected-(J2-SBU2-PadB8)*%
X196764800Y-138914800D03*
%TO.P,J2,B9,VBUS*%
%TO.N,VBUS*%
X196764800Y-138064800D03*
%TO.P,J2,B12,GND*%
%TO.N,GND*%
X196764800Y-137214800D03*
D44*
%TO.P,J2,S1,SHIELD*%
%TO.N,unconnected-(J2-SHIELD-PadS1)*%
X197134800Y-135864800D03*
D45*
%TO.N,unconnected-(J2-SHIELD-PadS1)_1*%
X193754800Y-135864800D03*
D44*
%TO.N,unconnected-(J2-SHIELD-PadS1)_2*%
X197134800Y-144514800D03*
D45*
%TO.N,unconnected-(J2-SHIELD-PadS1)_3*%
X193754800Y-144514800D03*
%TD*%
D20*
%TO.P,TP10,1,1*%
%TO.N,BOOT*%
X237314200Y-150649400D03*
%TD*%
D46*
%TO.P,SW2,1,A*%
%TO.N,+BATT*%
X205686800Y-130734600D03*
D47*
%TO.P,SW2,2,B*%
%TO.N,Net-(BT2-+)*%
X198066800Y-130734600D03*
%TD*%
D14*
%TO.P,R22,1*%
%TO.N,U0TX_uC*%
X227099800Y-136939800D03*
%TO.P,R22,2*%
%TO.N,Net-(U6-RXD)*%
X226079800Y-136939800D03*
%TD*%
D22*
%TO.P,R9,1*%
%TO.N,GND*%
X203945000Y-147286300D03*
%TO.P,R9,2*%
%TO.N,Net-(U4-ISET)*%
X203945000Y-148306300D03*
%TD*%
D48*
%TO.P,C7,1*%
%TO.N,+3.3V*%
X219813600Y-148708800D03*
%TO.P,C7,2*%
%TO.N,GND*%
X219813600Y-150608800D03*
%TD*%
D20*
%TO.P,TP3,1,1*%
%TO.N,GND*%
X205564200Y-136171400D03*
%TD*%
%TO.P,TP7,1,1*%
%TO.N,+3.3V*%
X237060200Y-141048200D03*
%TD*%
D49*
%TO.P,U3,1,GND*%
%TO.N,GND*%
X216173400Y-148336700D03*
%TO.P,U3,2,SW*%
%TO.N,Net-(U3-SW)*%
X215673400Y-148336700D03*
%TO.P,U3,3,VIN*%
%TO.N,5V*%
X215173400Y-148336700D03*
%TO.P,U3,4,EN*%
X215173400Y-149761700D03*
%TO.P,U3,5,FB*%
%TO.N,Net-(U3-FB)*%
X215673400Y-149761700D03*
%TO.P,U3,6,PG*%
%TO.N,Net-(U3-PG)*%
X216173400Y-149761700D03*
%TD*%
D50*
%TO.P,AJ-SR04M1,1,5V*%
%TO.N,+3.3V*%
X215470200Y-157050200D03*
D51*
%TO.P,AJ-SR04M1,2,GND*%
%TO.N,Net-(AJ-SR04M1-GND)*%
X218010200Y-157050200D03*
%TO.P,AJ-SR04M1,3,TRIG*%
%TO.N,TRIG_Sensor*%
X220550200Y-157050200D03*
%TO.P,AJ-SR04M1,4,ECHO*%
%TO.N,ECHO_Sensor*%
X223090200Y-157050200D03*
%TD*%
D52*
%TO.P,BT2,1,+*%
%TO.N,Net-(BT2-+)*%
X200211200Y-155098900D03*
D53*
%TO.P,BT2,2,-*%
%TO.N,GND*%
X200211200Y-152598900D03*
%TD*%
D54*
%TO.N,TRIG_Sensor*%
X235612400Y-150420800D03*
%TO.N,ECHO_Sensor*%
X233131800Y-151484600D03*
D55*
%TO.N,GND*%
X257269600Y-154260000D03*
D54*
X233834400Y-144350200D03*
X226316000Y-155401200D03*
X212381800Y-139984600D03*
D55*
X260131800Y-150234600D03*
X260131800Y-147234600D03*
X260131800Y-151234600D03*
D54*
X229872000Y-144375600D03*
D55*
X257769600Y-148260000D03*
D54*
X241456400Y-151360600D03*
D55*
X260707600Y-154281600D03*
D54*
X230024400Y-146509200D03*
X231904000Y-144324800D03*
X201604200Y-149195300D03*
D55*
X256169400Y-157356000D03*
D56*
X214421000Y-129584600D03*
D54*
X213881800Y-139984600D03*
D56*
X239524000Y-149785800D03*
X210296000Y-129584600D03*
D55*
X260356800Y-157234600D03*
D54*
X226089800Y-141094800D03*
D55*
X258881800Y-158734600D03*
X257769600Y-147260000D03*
D54*
X209255600Y-149271500D03*
X213881800Y-141234600D03*
D55*
X257769600Y-149260000D03*
D54*
X225996000Y-146644800D03*
X233809000Y-146585400D03*
X224576900Y-152469200D03*
X233758200Y-148617400D03*
D55*
X260131800Y-149234600D03*
D54*
X213465600Y-145950400D03*
D55*
X257769600Y-153260000D03*
X256169400Y-155425600D03*
X260131800Y-153234600D03*
X261631800Y-155234600D03*
D54*
X229948200Y-148541200D03*
X210085002Y-139234600D03*
X207604600Y-148001500D03*
X217248200Y-150676800D03*
D56*
X190068200Y-146026600D03*
X242267200Y-152351200D03*
D54*
X225720200Y-156765200D03*
D56*
X202381800Y-152694600D03*
D54*
X227266000Y-145944600D03*
D56*
X213143800Y-140677600D03*
D54*
X235231400Y-140949200D03*
D56*
X205589600Y-137695400D03*
D54*
X206713600Y-149017500D03*
D56*
X231929800Y-146529800D03*
X216003600Y-130789200D03*
D57*
X203131800Y-138484600D03*
X261698200Y-138553800D03*
D54*
X243881800Y-130984600D03*
D56*
X195801600Y-152189800D03*
X205381800Y-154234600D03*
D55*
X261631800Y-157165000D03*
X257381800Y-158984600D03*
D54*
X228602000Y-140771400D03*
X206298200Y-146864800D03*
D55*
X257769600Y-152260000D03*
D54*
X209046600Y-142521400D03*
D55*
X260131800Y-148234600D03*
X260381800Y-158984600D03*
D54*
X219813600Y-150608800D03*
X258864800Y-142984600D03*
D55*
X260131800Y-152234600D03*
D54*
X211228400Y-148490400D03*
X200867200Y-138889200D03*
X208995800Y-141530800D03*
X222058800Y-146812600D03*
D55*
X257769600Y-150260000D03*
D54*
X216918190Y-148768613D03*
X231929400Y-148566600D03*
D55*
X257769600Y-151260000D03*
D54*
X241429000Y-145086800D03*
D55*
X257381800Y-157234600D03*
D56*
X197029800Y-150471600D03*
D54*
X212381800Y-141234600D03*
X203945000Y-147286300D03*
X210847400Y-144373000D03*
D56*
X205564200Y-134698200D03*
D57*
%TO.N,+BATT*%
X201297000Y-150903400D03*
D56*
%TO.N,+3.3V*%
X237187200Y-152478200D03*
D54*
X217273600Y-146433000D03*
X224844800Y-145112200D03*
X236018800Y-141251400D03*
D56*
X239270000Y-147703000D03*
X211787200Y-143943800D03*
X219813600Y-148708800D03*
D54*
X218213400Y-148590000D03*
D56*
X221490000Y-149531800D03*
X207418400Y-143664400D03*
D57*
X261698200Y-137003800D03*
D56*
X219546900Y-147690300D03*
D54*
X226131800Y-142734600D03*
D56*
X221743800Y-148312600D03*
X225996000Y-145094800D03*
X238533400Y-140438600D03*
X214532400Y-143816800D03*
D54*
X228631800Y-141734600D03*
D56*
%TO.N,uC_EN*%
X223824800Y-139473400D03*
X223826800Y-133148800D03*
D57*
%TO.N,5V*%
X203631800Y-155484600D03*
X208409000Y-150414500D03*
%TO.N,VBUS*%
X205284800Y-151119300D03*
D54*
X207005700Y-153272000D03*
D58*
X203325542Y-143343463D03*
D56*
%TO.N,Net-(Q2-E)*%
X215724200Y-138457400D03*
X215622600Y-135892000D03*
D57*
%TO.N,BOOT*%
X237381800Y-147406800D03*
X234901200Y-137441400D03*
D56*
%TO.N,Net-(Q4-E)*%
X211939600Y-135434800D03*
X231726200Y-139244800D03*
D57*
%TO.N,Reset_LoRa*%
X241378200Y-140984600D03*
D54*
X238355600Y-142242000D03*
%TO.N,RXtimeout_LoRa*%
X231214800Y-155064800D03*
X253839800Y-151689800D03*
X253839800Y-137939800D03*
X227560600Y-150734600D03*
%TO.N,CADdetect_LoRa*%
X255089800Y-133284600D03*
X229980800Y-155939800D03*
X254839800Y-151689800D03*
X226589800Y-150299400D03*
%TD*%
D59*
%TO.N,Net-(BT2-+)*%
X200211200Y-155098900D02*
X200685600Y-155098900D01*
D60*
%TO.N,TRIG_Sensor*%
X234945800Y-150090600D02*
X234790600Y-150090600D01*
X235612400Y-150420800D02*
X235276000Y-150420800D01*
X234790600Y-150090600D02*
X234679800Y-149979800D01*
X235276000Y-150420800D02*
X234945800Y-150090600D01*
D61*
X220550200Y-157050200D02*
X220550200Y-159285400D01*
%TO.N,Net-(AJ-SR04M1-GND)*%
X220218800Y-153419200D02*
X222701900Y-153419200D01*
X218010200Y-157050200D02*
X218010200Y-155627800D01*
X218010200Y-155627800D02*
X220218800Y-153419200D01*
D62*
%TO.N,ECHO_Sensor*%
X233129800Y-151482600D02*
X233129800Y-150700200D01*
X233179800Y-150650200D02*
X233179800Y-149979800D01*
X233129800Y-150700200D02*
X233179800Y-150650200D01*
D60*
X225720200Y-157785200D02*
X223825200Y-157785200D01*
D61*
X223090200Y-159615600D02*
X223090200Y-157050200D01*
D60*
X223825200Y-157785200D02*
X223090200Y-157050200D01*
D62*
X233131800Y-151484600D02*
X233129800Y-151482600D01*
D61*
%TO.N,GND*%
X195785200Y-151716200D02*
X197029800Y-150471600D01*
D62*
X195785200Y-152189800D02*
X195785200Y-151716200D01*
X205381800Y-154234600D02*
X205381800Y-154010300D01*
D61*
X196764800Y-143164800D02*
X198114800Y-143164800D01*
D62*
X241429000Y-145086800D02*
X241531200Y-144984600D01*
D61*
X206034800Y-149681800D02*
X206445100Y-149271500D01*
D60*
X203360800Y-152497300D02*
X203163500Y-152694600D01*
D62*
X216918190Y-148768613D02*
X216486277Y-148336700D01*
D60*
X203847300Y-152010800D02*
X203360800Y-152497300D01*
D61*
X241431000Y-151386000D02*
X241431000Y-152402000D01*
D62*
X202236800Y-152549600D02*
X202381800Y-152694600D01*
X210743200Y-144477200D02*
X210847400Y-144373000D01*
D60*
X204131800Y-139484600D02*
X204131800Y-140058690D01*
D62*
X197029800Y-150471600D02*
X197055200Y-150446200D01*
D61*
X196739800Y-143189800D02*
X196764800Y-143164800D01*
D60*
X203777290Y-140413200D02*
X203216800Y-140413200D01*
X202236800Y-151840600D02*
X202236800Y-152549600D01*
D61*
X206459600Y-149271500D02*
X206713600Y-149017500D01*
X241531200Y-144984600D02*
X243814800Y-144984600D01*
D60*
X203163500Y-152694600D02*
X202381800Y-152694600D01*
D61*
X198114800Y-137214800D02*
X196764800Y-137214800D01*
X211228400Y-148490400D02*
X211602100Y-148490400D01*
X205564200Y-136171400D02*
X205564200Y-137670000D01*
D60*
X203847300Y-151869300D02*
X203847300Y-152010800D01*
D62*
X210778002Y-139927600D02*
X211206300Y-139927600D01*
X208945000Y-142623000D02*
X209046600Y-142521400D01*
D61*
X211602100Y-148490400D02*
X212123400Y-149011700D01*
X206445100Y-149271500D02*
X206459600Y-149271500D01*
D62*
X208995800Y-141530800D02*
X209021200Y-141505400D01*
D60*
X204131800Y-140058690D02*
X203777290Y-140413200D01*
D62*
X205381800Y-154010300D02*
X205034800Y-153663300D01*
D61*
X241456400Y-151360600D02*
X241431000Y-151386000D01*
D62*
X205034800Y-153663300D02*
X205034800Y-152556800D01*
X242216400Y-152402000D02*
X242267200Y-152351200D01*
D61*
X206034800Y-149681800D02*
X205635800Y-149681800D01*
D62*
X210085002Y-139234600D02*
X210778002Y-139927600D01*
X216486277Y-148336700D02*
X216173400Y-148336700D01*
D61*
X226316000Y-155401200D02*
X226316000Y-155477600D01*
D59*
X210296000Y-129584600D02*
X214421000Y-129584600D01*
D60*
X203131800Y-138484600D02*
X204131800Y-139484600D01*
D62*
X195801600Y-152189800D02*
X195785200Y-152189800D01*
D60*
X203360800Y-152497300D02*
X203360800Y-152522700D01*
D62*
X241431000Y-152402000D02*
X242216400Y-152402000D01*
D61*
X205564200Y-134698200D02*
X205564200Y-136171400D01*
D62*
X205564200Y-137670000D02*
X205589600Y-137695400D01*
D61*
%TO.N,+BATT*%
X201297000Y-150903400D02*
X201982400Y-150903400D01*
X202016500Y-150869300D02*
X203049600Y-150869300D01*
D60*
X203847300Y-150869300D02*
X203847300Y-151369300D01*
D61*
X203049600Y-150869300D02*
X203847300Y-150869300D01*
D62*
X201982400Y-150903400D02*
X202016500Y-150869300D01*
D60*
%TO.N,+3.3V*%
X232837000Y-152439800D02*
X232179800Y-151782600D01*
D61*
X208371800Y-143982800D02*
X208383600Y-143994600D01*
D62*
X228479800Y-145279800D02*
X228294800Y-145094800D01*
X210082800Y-143413000D02*
X210006600Y-143336800D01*
D60*
X210612500Y-142521400D02*
X211206300Y-141927600D01*
D62*
X228240800Y-145094800D02*
X228479800Y-144855800D01*
X217273600Y-146433000D02*
X217273600Y-146506600D01*
X227135000Y-141731400D02*
X228602000Y-141731400D01*
D60*
X210006600Y-142521400D02*
X210612500Y-142521400D01*
D59*
X225996000Y-145094800D02*
X225978600Y-145112200D01*
D61*
X221743800Y-149201800D02*
X221743800Y-148312600D01*
D62*
X211787200Y-143943800D02*
X211787200Y-143918400D01*
D61*
X218746800Y-146890200D02*
X217730800Y-146890200D01*
D62*
X231478800Y-142328800D02*
X230884600Y-141734600D01*
D60*
X238560800Y-148412200D02*
X239270000Y-147703000D01*
D61*
X207736800Y-143982800D02*
X208371800Y-143982800D01*
D62*
X230884600Y-141734600D02*
X229631800Y-141734600D01*
X226131800Y-142734600D02*
X227135000Y-141731400D01*
D60*
X235889200Y-141251400D02*
X235231400Y-141909200D01*
D59*
X258864800Y-136984600D02*
X261679000Y-136984600D01*
X261679000Y-136984600D02*
X261698200Y-137003800D01*
D60*
X237822200Y-141048200D02*
X237060200Y-141048200D01*
D61*
X219813600Y-147957000D02*
X219813600Y-148708800D01*
X217273600Y-146506600D02*
X216661400Y-147118800D01*
X219813600Y-148708800D02*
X220611200Y-149506400D01*
D62*
X229631800Y-141734600D02*
X228631800Y-141734600D01*
X211281800Y-143413000D02*
X210847400Y-143413000D01*
D61*
X210847400Y-143413000D02*
X210082800Y-143413000D01*
D60*
X218332200Y-148708800D02*
X218213400Y-148590000D01*
X211893800Y-142615100D02*
X211893800Y-142722200D01*
D62*
X227242000Y-144984600D02*
X227131800Y-145094800D01*
D61*
X218213400Y-147423600D02*
X218746800Y-146890200D01*
X219546900Y-147690300D02*
X219813600Y-147957000D01*
D62*
X227177000Y-143779800D02*
X226131800Y-142734600D01*
X227266000Y-144984600D02*
X227242000Y-144984600D01*
D61*
X218213400Y-148590000D02*
X218213400Y-147423600D01*
D62*
X236018800Y-141251400D02*
X235889200Y-141251400D01*
D61*
X221439200Y-149506400D02*
X221743800Y-149201800D01*
D60*
X236857000Y-141251400D02*
X237060200Y-141048200D01*
D61*
X210006600Y-143336800D02*
X209348800Y-143994600D01*
D60*
X232179800Y-151782600D02*
X232179800Y-149979800D01*
D62*
X226089800Y-145094800D02*
X227131800Y-145094800D01*
D60*
X211095900Y-143413000D02*
X211893800Y-142615100D01*
D62*
X225978600Y-145112200D02*
X224844800Y-145112200D01*
X231679800Y-142529800D02*
X231679800Y-143079800D01*
X237187200Y-152478200D02*
X237148800Y-152439800D01*
D61*
X210006600Y-142521400D02*
X210006600Y-143336800D01*
X217730800Y-146890200D02*
X217273600Y-146433000D01*
X218746800Y-146890200D02*
X219546900Y-147690300D01*
D62*
X211022600Y-143588200D02*
X210847400Y-143413000D01*
D61*
X210006600Y-142521400D02*
X210006600Y-141530800D01*
D62*
X238560800Y-148668200D02*
X238560800Y-148412200D01*
D60*
X238431800Y-140438600D02*
X237822200Y-141048200D01*
D61*
X220611200Y-149506400D02*
X221439200Y-149506400D01*
D60*
X210847400Y-143413000D02*
X211095900Y-143413000D01*
D61*
X207418400Y-143664400D02*
X207736800Y-143982800D01*
D62*
X228479800Y-143779800D02*
X227177000Y-143779800D01*
D60*
X236018800Y-141251400D02*
X236857000Y-141251400D01*
X211787200Y-143918400D02*
X211281800Y-143413000D01*
X235231400Y-142528200D02*
X234679800Y-143079800D01*
D62*
X227131800Y-145094800D02*
X228240800Y-145094800D01*
X210059000Y-141427600D02*
X209981200Y-141505400D01*
X230179800Y-143079800D02*
X230179800Y-142282600D01*
X230179800Y-142282600D02*
X229631800Y-141734600D01*
X228294800Y-145094800D02*
X228240800Y-145094800D01*
X210006600Y-141530800D02*
X209981200Y-141505400D01*
D60*
X211206300Y-141427600D02*
X210059000Y-141427600D01*
D62*
X238533400Y-140438600D02*
X238431800Y-140438600D01*
D60*
X237148800Y-152439800D02*
X232837000Y-152439800D01*
X235231400Y-141909200D02*
X235231400Y-142528200D01*
D62*
X231478800Y-142328800D02*
X231679800Y-142529800D01*
D61*
X208383600Y-143994600D02*
X209348800Y-143994600D01*
%TO.N,uC_EN*%
X219049300Y-134684100D02*
X219049300Y-132841700D01*
X210271000Y-131734600D02*
X214421000Y-131734600D01*
D62*
X223801400Y-133123400D02*
X223826800Y-133148800D01*
D60*
X220610000Y-133123400D02*
X222048800Y-133123400D01*
X228479800Y-147779800D02*
X225402200Y-147779800D01*
D61*
X217942200Y-131734600D02*
X214421000Y-131734600D01*
D60*
X223824800Y-146202400D02*
X223824800Y-145112200D01*
X222048800Y-133123400D02*
X223801400Y-133123400D01*
X225402200Y-147779800D02*
X223824800Y-146202400D01*
X220584600Y-133148800D02*
X219049300Y-134684100D01*
D61*
X219049300Y-132841700D02*
X217942200Y-131734600D01*
D60*
X223824800Y-139473400D02*
X223824800Y-145112200D01*
D62*
X220584600Y-133148800D02*
X220610000Y-133123400D01*
D61*
%TO.N,5V*%
X211006300Y-151506700D02*
X211006300Y-152446400D01*
D62*
X207552200Y-150869300D02*
X207753200Y-151070300D01*
X207454200Y-151369300D02*
X207753200Y-151070300D01*
X206722300Y-150869300D02*
X207552200Y-150869300D01*
D61*
X208409000Y-150414500D02*
X210752200Y-150414500D01*
X210472900Y-152979800D02*
X209279000Y-152979800D01*
X211323700Y-151506700D02*
X213673400Y-149157000D01*
X211006300Y-150668600D02*
X211006300Y-151506700D01*
D62*
X213673400Y-149026200D02*
X214408900Y-149761700D01*
D61*
X210752200Y-150414500D02*
X211006300Y-150668600D01*
D60*
X203631800Y-155484600D02*
X203631800Y-153724900D01*
X211006300Y-151506700D02*
X210752100Y-151506700D01*
D61*
X211006300Y-152446400D02*
X210472900Y-152979800D01*
D60*
X203631800Y-153724900D02*
X204529200Y-152827500D01*
D62*
X213673400Y-149011700D02*
X213673400Y-149026200D01*
X215173400Y-149761700D02*
X215173400Y-151289200D01*
X215173400Y-148336700D02*
X214348400Y-148336700D01*
D60*
X204529200Y-152827500D02*
X204529200Y-152562400D01*
D59*
X213673400Y-149157000D02*
X213673400Y-149011700D01*
D62*
X214348400Y-148336700D02*
X213673400Y-149011700D01*
D59*
X211006300Y-151506700D02*
X211323700Y-151506700D01*
D62*
X214408900Y-149761700D02*
X215173400Y-149761700D01*
D60*
X208409000Y-150414500D02*
X207753200Y-151070300D01*
D62*
X206722300Y-151369300D02*
X207454200Y-151369300D01*
D59*
%TO.N,VBUS*%
X204814879Y-144832800D02*
X207672400Y-144832800D01*
D62*
X203325542Y-143343463D02*
X203245242Y-143263163D01*
D60*
X204718442Y-140413200D02*
X205066800Y-140413200D01*
X203245242Y-141886400D02*
X204718442Y-140413200D01*
D59*
X203325542Y-143343463D02*
X204814879Y-144832800D01*
D61*
X195251800Y-143486600D02*
X196423600Y-142314800D01*
D59*
X202948100Y-143720905D02*
X203325542Y-143343463D01*
X199891100Y-147889800D02*
X202236800Y-145544100D01*
D60*
X203245242Y-143263163D02*
X203245242Y-141886400D01*
D59*
X202236800Y-145544100D02*
X202236800Y-144432205D01*
X207672400Y-144832800D02*
X209790000Y-146950400D01*
D62*
X195785200Y-147889800D02*
X196131800Y-147889800D01*
D61*
X195251800Y-147356400D02*
X195251800Y-143486600D01*
X196423600Y-142314800D02*
X196764800Y-142314800D01*
D59*
X209790000Y-146950400D02*
X211445600Y-146950400D01*
X202236800Y-144432205D02*
X202948100Y-143720905D01*
D62*
X195785200Y-147889800D02*
X195251800Y-147356400D01*
D60*
X207005700Y-153272000D02*
X206290500Y-152556800D01*
X206290500Y-152556800D02*
X206034800Y-152556800D01*
D59*
X195785200Y-147889800D02*
X199891100Y-147889800D01*
D60*
%TO.N,Net-(D1-K)*%
X209431300Y-151506700D02*
X209067700Y-151870300D01*
X209067700Y-151870300D02*
X206722300Y-151870300D01*
%TO.N,Net-(D2-K)*%
X209279000Y-154554800D02*
X206960790Y-154554800D01*
X205509800Y-153103810D02*
X205509800Y-152847164D01*
X206960790Y-154554800D02*
X205509800Y-153103810D01*
%TO.N,Net-(D3-K)*%
X223318800Y-148312600D02*
X223318800Y-147052600D01*
X223318800Y-147052600D02*
X223078800Y-146812600D01*
D63*
%TO.N,Net-(J1-Ext)*%
X258881800Y-144876800D02*
X258881800Y-155484600D01*
D60*
X258872600Y-148947600D02*
X258864800Y-148939800D01*
D61*
%TO.N,Net-(J2-CC2)*%
X191088200Y-146026600D02*
X191088200Y-143967200D01*
X191088200Y-143967200D02*
X193590600Y-141464800D01*
X193590600Y-141464800D02*
X196764800Y-141464800D01*
D62*
%TO.N,Net-(U3-SW)*%
X215673400Y-147146800D02*
X215701400Y-147118800D01*
X215673400Y-148336700D02*
X215673400Y-147146800D01*
X215673400Y-147069200D02*
X215653400Y-147049200D01*
D60*
%TO.N,Net-(Q2-B)*%
X213567200Y-136527000D02*
X213567200Y-135305800D01*
X215138900Y-133734100D02*
X217174300Y-133734100D01*
X213567200Y-135305800D02*
X215138900Y-133734100D01*
%TO.N,Net-(Q2-E)*%
X220461000Y-134939800D02*
X228329800Y-134939800D01*
X217174300Y-135634100D02*
X219758900Y-135634100D01*
X214676500Y-138457400D02*
X215724200Y-138457400D01*
X219758900Y-135634100D02*
X219762800Y-135638000D01*
X217174300Y-135634100D02*
X215880500Y-135634100D01*
X215880500Y-135634100D02*
X215622600Y-135892000D01*
X214393800Y-138740100D02*
X214676500Y-138457400D01*
X219762800Y-135638000D02*
X220461000Y-134939800D01*
%TO.N,PWR_Sensor*%
X226394200Y-154381200D02*
X229678800Y-151096600D01*
X226304000Y-154369200D02*
X226316000Y-154381200D01*
X226316000Y-154381200D02*
X226394200Y-154381200D01*
X224576900Y-154369200D02*
X226304000Y-154369200D01*
X229678800Y-151096600D02*
X229678800Y-150189321D01*
D62*
%TO.N,BOOT*%
X237381800Y-147406800D02*
X237517400Y-147542400D01*
X237540800Y-150422800D02*
X237314200Y-150649400D01*
X237517400Y-148644800D02*
X237540800Y-148668200D01*
D60*
X237540800Y-148668200D02*
X237540800Y-150422800D01*
X237517400Y-147542400D02*
X237517400Y-148644800D01*
D62*
X234926600Y-151284400D02*
X236679200Y-151284400D01*
D60*
X232777300Y-137439800D02*
X234899600Y-137439800D01*
D62*
X234179800Y-150537600D02*
X234926600Y-151284400D01*
X234179800Y-149979800D02*
X234179800Y-150537600D01*
X236679200Y-151284400D02*
X237314200Y-150649400D01*
D60*
X234899600Y-137439800D02*
X234901200Y-137441400D01*
%TO.N,Net-(Q4-B)*%
X230899800Y-136489800D02*
X229349800Y-134939800D01*
X230902300Y-136489800D02*
X230899800Y-136489800D01*
%TO.N,Net-(Q4-E)*%
X211939600Y-135434800D02*
X211939600Y-135919400D01*
X212393800Y-138740100D02*
X212393800Y-136680400D01*
X211939600Y-135919400D02*
X212547200Y-136527000D01*
X212393800Y-136680400D02*
X212547200Y-136527000D01*
X231726200Y-139213700D02*
X231726200Y-139244800D01*
X230902300Y-138389800D02*
X231726200Y-139213700D01*
D62*
%TO.N,Net-(U3-FB)*%
X215673400Y-149227000D02*
X215827200Y-149073200D01*
X215827200Y-149073200D02*
X216444958Y-149073200D01*
D60*
X216981758Y-149610000D02*
X218213400Y-149610000D01*
D62*
X215673400Y-149482468D02*
X215697400Y-149506468D01*
X216444958Y-149073200D02*
X216981758Y-149610000D01*
X215673400Y-149227000D02*
X215673400Y-149482468D01*
%TO.N,Net-(U3-PG)*%
X216173400Y-149761700D02*
X216173400Y-151289200D01*
D60*
%TO.N,Net-(U4-TS)*%
X202673300Y-149195300D02*
X203847300Y-150369300D01*
X202624200Y-149195300D02*
X202673300Y-149195300D01*
%TO.N,Net-(U4-ILIM)*%
X207820100Y-149271500D02*
X206722300Y-150369300D01*
X208235600Y-149271500D02*
X207820100Y-149271500D01*
%TO.N,Net-(U4-ISET)*%
X204534800Y-149681800D02*
X204534800Y-148896100D01*
X204534800Y-148896100D02*
X203945000Y-148306300D01*
%TO.N,Net-(U4-ITERM)*%
X206191090Y-148001500D02*
X205034800Y-149157790D01*
X205034800Y-149681800D02*
X205034800Y-149157790D01*
X206584600Y-148001500D02*
X206191090Y-148001500D01*
D62*
%TO.N,Net-(U6-VBUS)*%
X212393800Y-142615100D02*
X212393800Y-145898600D01*
X212393800Y-145898600D02*
X212445600Y-145950400D01*
D60*
X212445600Y-145950400D02*
X212445600Y-146930400D01*
X212445600Y-146930400D02*
X212465600Y-146950400D01*
%TO.N,Net-(U6-~{RST})*%
X212893800Y-143198200D02*
X212893800Y-142615100D01*
X213512400Y-143816800D02*
X212893800Y-143198200D01*
%TO.N,Net-(U1-IO2)*%
X234469400Y-151817800D02*
X233679800Y-151028200D01*
X240436400Y-151360600D02*
X239979200Y-151817800D01*
X233679800Y-151028200D02*
X233679800Y-149979800D01*
X239979200Y-151817800D02*
X234469400Y-151817800D01*
D62*
%TO.N,Net-(U1-IO12)*%
X240411000Y-152402000D02*
X240411000Y-152404000D01*
D60*
X232837000Y-153189800D02*
X231679800Y-152032600D01*
X231679800Y-152032600D02*
X231679800Y-149979800D01*
X239625200Y-153189800D02*
X232837000Y-153189800D01*
X240411000Y-152404000D02*
X239625200Y-153189800D01*
%TO.N,Net-(U6-TXD)*%
X213393800Y-138740100D02*
X213393800Y-137917600D01*
X214352600Y-136958800D02*
X219712000Y-136958800D01*
X213393800Y-137917600D02*
X214352600Y-136958800D01*
X219712000Y-136958800D02*
X220731000Y-135939800D01*
X220731000Y-135939800D02*
X226079800Y-135939800D01*
%TO.N,U0RX_uC*%
X229089800Y-137599000D02*
X227430600Y-135939800D01*
X233179800Y-142279800D02*
X229089800Y-138189800D01*
X233179800Y-143079800D02*
X233179800Y-142279800D01*
X227430600Y-135939800D02*
X227099800Y-135939800D01*
X229089800Y-138189800D02*
X229089800Y-137599000D01*
%TO.N,U0TX_uC*%
X227110850Y-136939800D02*
X232679800Y-142508750D01*
X232679800Y-142508750D02*
X232679800Y-143079800D01*
X227099800Y-136939800D02*
X227110850Y-136939800D01*
%TO.N,Net-(U6-RXD)*%
X214490290Y-137644600D02*
X220395120Y-137644600D01*
X213893800Y-138740100D02*
X213893800Y-138241090D01*
X220395120Y-137644600D02*
X221099920Y-136939800D01*
X221099920Y-136939800D02*
X226079800Y-136939800D01*
X213893800Y-138241090D02*
X214490290Y-137644600D01*
%TO.N,SCK_LoRa*%
X235913600Y-144803800D02*
X236095000Y-144985200D01*
X237415800Y-144985200D02*
X238665200Y-146234600D01*
X246089800Y-137784600D02*
X245289800Y-136984600D01*
X246089800Y-145439800D02*
X246089800Y-137784600D01*
X238665200Y-146234600D02*
X245295000Y-146234600D01*
X235403800Y-144803800D02*
X235913600Y-144803800D01*
X235379800Y-144779800D02*
X235403800Y-144803800D01*
X245295000Y-146234600D02*
X246089800Y-145439800D01*
X245289800Y-136984600D02*
X243814800Y-136984600D01*
X236095000Y-144985200D02*
X237415800Y-144985200D01*
%TO.N,RX{slash}TXdone_LoRa*%
X230179800Y-149979800D02*
X230179800Y-152709800D01*
X255881800Y-136492600D02*
X257389800Y-134984600D01*
X230179800Y-152709800D02*
X231954600Y-154484600D01*
X257389800Y-134984600D02*
X258864800Y-134984600D01*
X231954600Y-154484600D02*
X243881800Y-154484600D01*
X255881800Y-142484600D02*
X255881800Y-136492600D01*
X243881800Y-154484600D02*
X255881800Y-142484600D01*
%TO.N,MOSI_LoRa*%
X230679800Y-149979800D02*
X230679800Y-152032600D01*
X245289800Y-134984600D02*
X243814800Y-134984600D01*
X230679800Y-152032600D02*
X232587000Y-153939800D01*
X242089800Y-153939800D02*
X247631800Y-148397800D01*
X247631800Y-148397800D02*
X247631800Y-137326600D01*
X247631800Y-137326600D02*
X245289800Y-134984600D01*
X232587000Y-153939800D02*
X242089800Y-153939800D01*
%TO.N,Reset_LoRa*%
X238101600Y-142496000D02*
X236663600Y-142496000D01*
X236663600Y-142496000D02*
X235379800Y-143779800D01*
X238355600Y-142242000D02*
X238101600Y-142496000D01*
X241378200Y-140984600D02*
X243814800Y-140984600D01*
%TO.N,RXtimeout_LoRa*%
X253839800Y-135776600D02*
X256631800Y-132984600D01*
X256631800Y-132984600D02*
X258864800Y-132984600D01*
X253839800Y-151689800D02*
X250089800Y-155439800D01*
X228315400Y-149979800D02*
X229179800Y-149979800D01*
X250089800Y-155439800D02*
X231589800Y-155439800D01*
X231589800Y-155439800D02*
X231214800Y-155064800D01*
X253839800Y-137939800D02*
X253839800Y-135776600D01*
X227560600Y-150734600D02*
X228315400Y-149979800D01*
%TO.N,MISO_LoRa*%
X241545000Y-132984600D02*
X243814800Y-132984600D01*
X234179800Y-140349800D02*
X241545000Y-132984600D01*
X234179800Y-143079800D02*
X234179800Y-140349800D01*
%TO.N,CADdetect_LoRa*%
X257389800Y-130984600D02*
X258864800Y-130984600D01*
X229980800Y-155939800D02*
X250589800Y-155939800D01*
X227609400Y-149279800D02*
X228479800Y-149279800D01*
X250589800Y-155939800D02*
X254839800Y-151689800D01*
X226589800Y-150299400D02*
X227609400Y-149279800D01*
X255089800Y-133284600D02*
X257389800Y-130984600D01*
%TO.N,NSS_LoRa*%
X240413000Y-142724600D02*
X240413000Y-140184600D01*
X235379800Y-144279800D02*
X238857800Y-144279800D01*
X238857800Y-144279800D02*
X240413000Y-142724600D01*
X241613000Y-138984600D02*
X243131800Y-138984600D01*
X240413000Y-140184600D02*
X241613000Y-138984600D01*
D62*
X243131800Y-138984600D02*
X243814800Y-138984600D01*
D60*
%TO.N,unconnected-(U2-DIO5-Pad7)*%
X243750600Y-143004000D02*
X243814800Y-142939800D01*
D62*
%TO.N,USB_D+*%
X210595398Y-140452600D02*
X210893800Y-140452600D01*
X210018498Y-139875700D02*
X210595398Y-140452600D01*
X198401610Y-139963800D02*
X198938509Y-140500699D01*
D60*
X197856000Y-139764800D02*
X198114800Y-139764800D01*
X198263800Y-139913800D02*
X198114800Y-139764800D01*
D62*
X198313800Y-139963800D02*
X198401610Y-139963800D01*
X210893800Y-140452600D02*
X210918800Y-140427600D01*
D60*
X196764800Y-140614800D02*
X197006000Y-140614800D01*
D62*
X198114800Y-139764800D02*
X198313800Y-139963800D01*
X202808976Y-139962200D02*
X203205300Y-139962200D01*
X198938509Y-140500699D02*
X202270477Y-140500699D01*
X203205300Y-139962200D02*
X203291800Y-139875700D01*
X210918800Y-140427600D02*
X211206300Y-140427600D01*
D60*
X198114800Y-139764800D02*
X198128200Y-139778200D01*
D62*
X197006000Y-140614800D02*
X197856000Y-139764800D01*
D60*
X198114800Y-139764800D02*
X198264800Y-139914800D01*
D62*
X202270477Y-140500699D02*
X202808976Y-139962200D01*
X204991800Y-139875700D02*
X210018498Y-139875700D01*
D60*
X203291800Y-139875700D02*
X203255300Y-139912200D01*
D62*
%TO.N,USB_D-*%
X206013123Y-140325701D02*
X205474624Y-140864200D01*
X205078300Y-140864200D02*
X204991800Y-140950700D01*
D60*
X205028300Y-140914200D02*
X204991800Y-140950700D01*
D62*
X198664303Y-140950700D02*
X203291800Y-140950700D01*
X198114800Y-140614800D02*
X198328403Y-140614800D01*
X210409002Y-140902600D02*
X209832103Y-140325701D01*
X211206300Y-140927600D02*
X210918800Y-140927600D01*
X210918800Y-140927600D02*
X210893800Y-140902600D01*
D60*
X198186982Y-140614800D02*
X198114800Y-140614800D01*
D62*
X209832103Y-140325701D02*
X206013123Y-140325701D01*
X198328403Y-140614800D02*
X198664303Y-140950700D01*
X205474624Y-140864200D02*
X205078300Y-140864200D01*
X210893800Y-140902600D02*
X210409002Y-140902600D01*
%TD*%
D64*
X187631800Y-127887000D02*
X275631800Y-127887000D01*
X275631800Y-160887000D01*
X187631800Y-160887000D01*
X187631800Y-127887000D01*
M02*
