%TF.GenerationSoftware,KiCad,Pcbnew,9.0.3*%
%TF.CreationDate,2025-10-28T23:27:34-03:00*%
%TF.ProjectId,PcbArroz,50636241-7272-46f7-9a2e-6b696361645f,rev?*%
%TF.SameCoordinates,Original*%
%TF.FileFunction,Copper,L4,Bot*%
%TF.FilePolarity,Positive*%
%FSLAX46Y46*%
G04 Gerber Fmt 4.6, Leading zero omitted, Abs format (unit mm)*
G04 Created by KiCad (PCBNEW 9.0.3) date 2025-10-28 23:27:34*
%MOMM*%
%LPD*%
G01*
G04 APERTURE LIST*
G04 Aperture macros list*
%AMRoundRect*
0 Rectangle with rounded corners*
0 $1 Rounding radius*
0 $2 $3 $4 $5 $6 $7 $8 $9 X,Y pos of 4 corners*
0 Add a 4 corners polygon primitive as box body*
4,1,4,$2,$3,$4,$5,$6,$7,$8,$9,$2,$3,0*
0 Add four circle primitives for the rounded corners*
1,1,$1+$1,$2,$3*
1,1,$1+$1,$4,$5*
1,1,$1+$1,$6,$7*
1,1,$1+$1,$8,$9*
0 Add four rect primitives between the rounded corners*
20,1,$1+$1,$2,$3,$4,$5,0*
20,1,$1+$1,$4,$5,$6,$7,0*
20,1,$1+$1,$6,$7,$8,$9,0*
20,1,$1+$1,$8,$9,$2,$3,0*%
G04 Aperture macros list end*
%TA.AperFunction,ComponentPad*%
%ADD10C,0.700000*%
%TD*%
%TA.AperFunction,ComponentPad*%
%ADD11O,2.400000X0.900000*%
%TD*%
%TA.AperFunction,ComponentPad*%
%ADD12O,1.700000X0.900000*%
%TD*%
%TA.AperFunction,ComponentPad*%
%ADD13RoundRect,0.250000X0.550000X0.550000X-0.550000X0.550000X-0.550000X-0.550000X0.550000X-0.550000X0*%
%TD*%
%TA.AperFunction,ComponentPad*%
%ADD14C,1.600000*%
%TD*%
%TA.AperFunction,ComponentPad*%
%ADD15R,1.700000X1.700000*%
%TD*%
%TA.AperFunction,ComponentPad*%
%ADD16C,1.700000*%
%TD*%
%TA.AperFunction,ComponentPad*%
%ADD17RoundRect,0.250000X0.750000X-0.600000X0.750000X0.600000X-0.750000X0.600000X-0.750000X-0.600000X0*%
%TD*%
%TA.AperFunction,ComponentPad*%
%ADD18O,2.000000X1.700000*%
%TD*%
%TA.AperFunction,SMDPad,CuDef*%
%ADD19RoundRect,0.140000X-0.140000X-0.170000X0.140000X-0.170000X0.140000X0.170000X-0.140000X0.170000X0*%
%TD*%
%TA.AperFunction,SMDPad,CuDef*%
%ADD20RoundRect,0.135000X-0.135000X-0.185000X0.135000X-0.185000X0.135000X0.185000X-0.135000X0.185000X0*%
%TD*%
%TA.AperFunction,SMDPad,CuDef*%
%ADD21RoundRect,0.140000X0.140000X0.170000X-0.140000X0.170000X-0.140000X-0.170000X0.140000X-0.170000X0*%
%TD*%
%TA.AperFunction,ViaPad*%
%ADD22C,0.500000*%
%TD*%
%TA.AperFunction,ViaPad*%
%ADD23C,0.800000*%
%TD*%
%TA.AperFunction,ViaPad*%
%ADD24C,0.600000*%
%TD*%
%TA.AperFunction,ViaPad*%
%ADD25C,0.700000*%
%TD*%
%TA.AperFunction,ViaPad*%
%ADD26C,1.000000*%
%TD*%
%TA.AperFunction,Conductor*%
%ADD27C,0.500000*%
%TD*%
%TA.AperFunction,Conductor*%
%ADD28C,0.300000*%
%TD*%
%TA.AperFunction,Conductor*%
%ADD29C,0.200000*%
%TD*%
%TA.AperFunction,Conductor*%
%ADD30C,0.700000*%
%TD*%
%TA.AperFunction,Profile*%
%ADD31C,0.050000*%
%TD*%
G04 APERTURE END LIST*
D10*
%TO.P,J2,A1,GND*%
%TO.N,GND*%
X198114800Y-137214800D03*
%TO.P,J2,A4,VBUS*%
%TO.N,VBUS*%
X198114800Y-138064800D03*
%TO.P,J2,A5,CC1*%
%TO.N,Net-(J2-CC1)*%
X198114800Y-138914800D03*
%TO.P,J2,A6,D+*%
%TO.N,USB_D+*%
X198114800Y-139764800D03*
%TO.P,J2,A7,D-*%
%TO.N,USB_D-*%
X198114800Y-140614800D03*
%TO.P,J2,A8,SBU1*%
%TO.N,unconnected-(J2-SBU1-PadA8)*%
X198114800Y-141464800D03*
%TO.P,J2,A9,VBUS*%
%TO.N,VBUS*%
X198114800Y-142314800D03*
%TO.P,J2,A12,GND*%
%TO.N,GND*%
X198114800Y-143164800D03*
%TO.P,J2,B1,GND*%
X196764800Y-143164800D03*
%TO.P,J2,B4,VBUS*%
%TO.N,VBUS*%
X196764800Y-142314800D03*
%TO.P,J2,B5,CC2*%
%TO.N,Net-(J2-CC2)*%
X196764800Y-141464800D03*
%TO.P,J2,B6,D+*%
%TO.N,USB_D+*%
X196764800Y-140614800D03*
%TO.P,J2,B7,D-*%
%TO.N,USB_D-*%
X196764800Y-139764800D03*
%TO.P,J2,B8,SBU2*%
%TO.N,unconnected-(J2-SBU2-PadB8)*%
X196764800Y-138914800D03*
%TO.P,J2,B9,VBUS*%
%TO.N,VBUS*%
X196764800Y-138064800D03*
%TO.P,J2,B12,GND*%
%TO.N,GND*%
X196764800Y-137214800D03*
D11*
%TO.P,J2,S1,SHIELD*%
%TO.N,unconnected-(J2-SHIELD-PadS1)*%
X197134800Y-135864800D03*
D12*
%TO.N,unconnected-(J2-SHIELD-PadS1)_1*%
X193754800Y-135864800D03*
D11*
%TO.N,unconnected-(J2-SHIELD-PadS1)_2*%
X197134800Y-144514800D03*
D12*
%TO.N,unconnected-(J2-SHIELD-PadS1)_3*%
X193754800Y-144514800D03*
%TD*%
D13*
%TO.P,SW2,1,A*%
%TO.N,+BATT*%
X205686800Y-130734600D03*
D14*
%TO.P,SW2,2,B*%
%TO.N,Net-(BT2-+)*%
X198066800Y-130734600D03*
%TD*%
D15*
%TO.P,AJ-SR04M1,1,5V*%
%TO.N,+3.3V*%
X215470200Y-157050200D03*
D16*
%TO.P,AJ-SR04M1,2,GND*%
%TO.N,Net-(AJ-SR04M1-GND)*%
X218010200Y-157050200D03*
%TO.P,AJ-SR04M1,3,TRIG*%
%TO.N,TRIG_Sensor*%
X220550200Y-157050200D03*
%TO.P,AJ-SR04M1,4,ECHO*%
%TO.N,ECHO_Sensor*%
X223090200Y-157050200D03*
%TD*%
D17*
%TO.P,BT2,1,+*%
%TO.N,Net-(BT2-+)*%
X200211200Y-155098900D03*
D18*
%TO.P,BT2,2,-*%
%TO.N,GND*%
X200211200Y-152598900D03*
%TD*%
D19*
%TO.P,C3,1*%
%TO.N,+3.3V*%
X237834200Y-150649400D03*
%TO.P,C3,2*%
%TO.N,GND*%
X238794200Y-150649400D03*
%TD*%
D20*
%TO.P,R11,1*%
%TO.N,Net-(J2-CC1)*%
X199847200Y-138889200D03*
%TO.P,R11,2*%
%TO.N,GND*%
X200867200Y-138889200D03*
%TD*%
D21*
%TO.P,C8,1*%
%TO.N,GND*%
X206298200Y-146864800D03*
%TO.P,C8,2*%
%TO.N,VBUS*%
X205338200Y-146864800D03*
%TD*%
D22*
%TO.N,TRIG_Sensor*%
X235612400Y-150420800D03*
%TO.N,ECHO_Sensor*%
X233131800Y-151484600D03*
D23*
%TO.N,GND*%
X257269600Y-154260000D03*
D22*
X233834400Y-144350200D03*
X226316000Y-155401200D03*
X212381800Y-139984600D03*
D23*
X260131800Y-150234600D03*
X260131800Y-147234600D03*
X260131800Y-151234600D03*
D22*
X229872000Y-144375600D03*
D23*
X257769600Y-148260000D03*
D22*
X241456400Y-151360600D03*
D23*
X260707600Y-154281600D03*
D22*
X230024400Y-146509200D03*
X231904000Y-144324800D03*
X201604200Y-149195300D03*
D23*
X256169400Y-157356000D03*
D24*
X214421000Y-129584600D03*
D22*
X213881800Y-139984600D03*
D24*
X239524000Y-149785800D03*
X210296000Y-129584600D03*
D23*
X260356800Y-157234600D03*
D22*
X226089800Y-141094800D03*
D23*
X258881800Y-158734600D03*
X257769600Y-147260000D03*
D22*
X209255600Y-149271500D03*
X213881800Y-141234600D03*
D23*
X257769600Y-149260000D03*
D22*
X225996000Y-146644800D03*
X233809000Y-146585400D03*
X224576900Y-152469200D03*
X233758200Y-148617400D03*
D23*
X260131800Y-149234600D03*
D22*
X213465600Y-145950400D03*
D23*
X257769600Y-153260000D03*
X256169400Y-155425600D03*
X260131800Y-153234600D03*
X261631800Y-155234600D03*
D22*
X229948200Y-148541200D03*
X210085002Y-139234600D03*
X207604600Y-148001500D03*
X217248200Y-150676800D03*
D24*
X190068200Y-146026600D03*
X242267200Y-152351200D03*
D22*
X225720200Y-156765200D03*
D24*
X202381800Y-152694600D03*
D22*
X227266000Y-145944600D03*
D24*
X213143800Y-140677600D03*
D22*
X235231400Y-140949200D03*
D24*
X205589600Y-137695400D03*
D22*
X206713600Y-149017500D03*
D24*
X231929800Y-146529800D03*
X216003600Y-130789200D03*
D25*
X203131800Y-138484600D03*
X261698200Y-138553800D03*
D22*
X243881800Y-130984600D03*
D24*
X195801600Y-152189800D03*
X205381800Y-154234600D03*
D23*
X261631800Y-157165000D03*
X257381800Y-158984600D03*
D22*
X228602000Y-140771400D03*
X206298200Y-146864800D03*
D23*
X257769600Y-152260000D03*
D22*
X209046600Y-142521400D03*
D23*
X260131800Y-148234600D03*
X260381800Y-158984600D03*
D22*
X219813600Y-150608800D03*
X258864800Y-142984600D03*
D23*
X260131800Y-152234600D03*
D22*
X211228400Y-148490400D03*
X200867200Y-138889200D03*
X208995800Y-141530800D03*
X222058800Y-146812600D03*
D23*
X257769600Y-150260000D03*
D22*
X216918190Y-148768613D03*
X231929400Y-148566600D03*
D23*
X257769600Y-151260000D03*
D22*
X241429000Y-145086800D03*
D23*
X257381800Y-157234600D03*
D24*
X197029800Y-150471600D03*
D22*
X212381800Y-141234600D03*
X203945000Y-147286300D03*
X210847400Y-144373000D03*
D24*
X205564200Y-134698200D03*
D25*
%TO.N,+BATT*%
X201297000Y-150903400D03*
D24*
%TO.N,+3.3V*%
X237187200Y-152478200D03*
D22*
X217273600Y-146433000D03*
X224844800Y-145112200D03*
X236018800Y-141251400D03*
D24*
X239270000Y-147703000D03*
X211787200Y-143943800D03*
X219813600Y-148708800D03*
D22*
X218213400Y-148590000D03*
D24*
X221490000Y-149531800D03*
X207418400Y-143664400D03*
D25*
X261698200Y-137003800D03*
D24*
X219546900Y-147690300D03*
D22*
X226131800Y-142734600D03*
D24*
X221743800Y-148312600D03*
X225996000Y-145094800D03*
X238533400Y-140438600D03*
X214532400Y-143816800D03*
D22*
X228631800Y-141734600D03*
D24*
%TO.N,uC_EN*%
X223824800Y-139473400D03*
X223826800Y-133148800D03*
D25*
%TO.N,5V*%
X203631800Y-155484600D03*
X208409000Y-150414500D03*
%TO.N,VBUS*%
X205284800Y-151119300D03*
D22*
X207005700Y-153272000D03*
D26*
X203325542Y-143343463D03*
D24*
%TO.N,Net-(Q2-E)*%
X215724200Y-138457400D03*
X215622600Y-135892000D03*
D25*
%TO.N,BOOT*%
X237381800Y-147406800D03*
X234901200Y-137441400D03*
D24*
%TO.N,Net-(Q4-E)*%
X211939600Y-135434800D03*
X231726200Y-139244800D03*
D25*
%TO.N,Reset_LoRa*%
X241378200Y-140984600D03*
D22*
X238355600Y-142242000D03*
%TO.N,RXtimeout_LoRa*%
X231214800Y-155064800D03*
X253839800Y-151689800D03*
X253839800Y-137939800D03*
X227560600Y-150734600D03*
%TO.N,CADdetect_LoRa*%
X255089800Y-133284600D03*
X229980800Y-155939800D03*
X254839800Y-151689800D03*
X226589800Y-150299400D03*
%TD*%
D27*
%TO.N,Net-(BT2-+)*%
X191543400Y-150896200D02*
X195746100Y-155098900D01*
X191543400Y-135378406D02*
X191543400Y-150896200D01*
X198066800Y-132772200D02*
X197824126Y-133014874D01*
X195746100Y-155098900D02*
X200211200Y-155098900D01*
X193906932Y-133014874D02*
X191543400Y-135378406D01*
X198066800Y-130747100D02*
X198066800Y-132772200D01*
X197824126Y-133014874D02*
X193906932Y-133014874D01*
D28*
%TO.N,TRIG_Sensor*%
X235589800Y-157149000D02*
X234317000Y-158421800D01*
X235612400Y-150420800D02*
X235589800Y-150443400D01*
X235589800Y-150443400D02*
X235589800Y-157149000D01*
X221921800Y-158421800D02*
X220550200Y-157050200D01*
X234317000Y-158421800D02*
X221921800Y-158421800D01*
%TO.N,ECHO_Sensor*%
X223274600Y-157234600D02*
X223090200Y-157050200D01*
D29*
X223524600Y-157484600D02*
X223090200Y-157050200D01*
X233131800Y-156234600D02*
X231881800Y-157484600D01*
X233131800Y-151484600D02*
X233131800Y-156234600D01*
X231881800Y-157484600D02*
X223524600Y-157484600D01*
D27*
%TO.N,GND*%
X200892600Y-138889200D02*
X200867200Y-138889200D01*
D28*
X239524000Y-149785800D02*
X238794200Y-150515600D01*
D29*
X238794200Y-150515600D02*
X238794200Y-150649400D01*
D30*
X206298200Y-146864800D02*
X206300800Y-146864800D01*
D27*
%TO.N,+BATT*%
X202381800Y-140725400D02*
X204131800Y-138975400D01*
X201297000Y-150903400D02*
X200881800Y-150488200D01*
X204131800Y-138975400D02*
X204131800Y-132302100D01*
X200881800Y-144734600D02*
X202381800Y-143234600D01*
X200881800Y-150488200D02*
X200881800Y-144734600D01*
X202381800Y-143234600D02*
X202381800Y-140725400D01*
X204131800Y-132302100D02*
X205686800Y-130747100D01*
D28*
%TO.N,+3.3V*%
X225464000Y-143816800D02*
X225996000Y-144348800D01*
X237881800Y-150484600D02*
X237881800Y-151484600D01*
X237881800Y-151783600D02*
X237187200Y-152478200D01*
X225996000Y-144348800D02*
X225996000Y-145094800D01*
X214532400Y-143816800D02*
X225464000Y-143816800D01*
X237881800Y-151484600D02*
X237881800Y-151783600D01*
%TO.N,uC_EN*%
X223826800Y-139471400D02*
X223824800Y-139473400D01*
X223826800Y-133148800D02*
X223826800Y-139471400D01*
X223801400Y-133174200D02*
X223826800Y-133148800D01*
D27*
%TO.N,5V*%
X203631800Y-155484600D02*
X205047493Y-155484600D01*
X205064693Y-155484600D02*
X206926600Y-155484600D01*
X208358200Y-154053000D02*
X208358200Y-150465300D01*
X206926600Y-155484600D02*
X208358200Y-154053000D01*
D28*
X208409000Y-150414500D02*
X208358200Y-150465300D01*
D27*
%TO.N,VBUS*%
X203325542Y-144854742D02*
X205284800Y-146814000D01*
X196764800Y-138064800D02*
X198114800Y-138064800D01*
X203325542Y-143343463D02*
X203325542Y-144854742D01*
X195201000Y-141245974D02*
X195201000Y-138990800D01*
X196127000Y-138064800D02*
X196764800Y-138064800D01*
X196764800Y-142314800D02*
X196269826Y-142314800D01*
D30*
X205310200Y-151093900D02*
X205284800Y-151119300D01*
D27*
X196269826Y-142314800D02*
X195201000Y-141245974D01*
D28*
X205284800Y-151119300D02*
X205284800Y-151551100D01*
D27*
X196764800Y-142314800D02*
X198114800Y-142314800D01*
X205284800Y-146814000D02*
X205284800Y-151119300D01*
D28*
X205425050Y-151691350D02*
X207005700Y-153272000D01*
D27*
X195201000Y-138990800D02*
X196127000Y-138064800D01*
D28*
X205284800Y-151551100D02*
X205425050Y-151691350D01*
D27*
%TO.N,Net-(J2-CC1)*%
X199872600Y-138889200D02*
X198140400Y-138889200D01*
X198140400Y-138889200D02*
X198114800Y-138914800D01*
D28*
%TO.N,Net-(Q2-E)*%
X215724200Y-135993600D02*
X215724200Y-138457400D01*
X215622600Y-135892000D02*
X215724200Y-135993600D01*
%TO.N,BOOT*%
X237381800Y-147406800D02*
X237381800Y-139922000D01*
X237381800Y-139922000D02*
X234901200Y-137441400D01*
%TO.N,Net-(Q4-E)*%
X217553000Y-135841200D02*
X216359200Y-134647400D01*
X216359200Y-134647400D02*
X212727000Y-134647400D01*
X231726200Y-139244800D02*
X227103400Y-139244800D01*
X222861600Y-140540200D02*
X219458000Y-140540200D01*
X227103400Y-139244800D02*
X225782600Y-139244800D01*
X224487200Y-140540200D02*
X222861600Y-140540200D01*
X219458000Y-140540200D02*
X217553000Y-138635200D01*
X212727000Y-134647400D02*
X211939600Y-135434800D01*
X225782600Y-139244800D02*
X224487200Y-140540200D01*
X217553000Y-138635200D02*
X217553000Y-135841200D01*
%TO.N,Reset_LoRa*%
X241378200Y-140984600D02*
X239613000Y-140984600D01*
X239613000Y-140984600D02*
X238355600Y-142242000D01*
%TO.N,RXtimeout_LoRa*%
X253839800Y-151689800D02*
X253839800Y-137939800D01*
X227560600Y-151410600D02*
X231214800Y-155064800D01*
X227560600Y-150734600D02*
X227560600Y-151410600D01*
%TO.N,CADdetect_LoRa*%
X255089800Y-133284600D02*
X254839800Y-133534600D01*
X226589800Y-152548800D02*
X229980800Y-155939800D01*
X226589800Y-150299400D02*
X226589800Y-152548800D01*
X254839800Y-133534600D02*
X254839800Y-151689800D01*
D29*
%TO.N,USB_D-*%
X197016400Y-139764800D02*
X196764800Y-139764800D01*
X198114800Y-140614800D02*
X197866400Y-140614800D01*
X197866400Y-140614800D02*
X197016400Y-139764800D01*
%TD*%
D31*
X187631800Y-127887000D02*
X275631800Y-127887000D01*
X275631800Y-160887000D01*
X187631800Y-160887000D01*
X187631800Y-127887000D01*
M02*
