%TF.GenerationSoftware,KiCad,Pcbnew,9.0.3*%
%TF.CreationDate,2025-10-28T23:27:34-03:00*%
%TF.ProjectId,PcbArroz,50636241-7272-46f7-9a2e-6b696361645f,rev?*%
%TF.SameCoordinates,Original*%
%TF.FileFunction,Legend,Top*%
%TF.FilePolarity,Positive*%
%FSLAX46Y46*%
G04 Gerber Fmt 4.6, Leading zero omitted, Abs format (unit mm)*
G04 Created by KiCad (PCBNEW 9.0.3) date 2025-10-28 23:27:34*
%MOMM*%
%LPD*%
G01*
G04 APERTURE LIST*
%ADD10C,0.150000*%
%ADD11C,0.175000*%
%ADD12C,0.125000*%
%ADD13C,0.120000*%
%TA.AperFunction,Profile*%
%ADD14C,0.050000*%
%TD*%
G04 APERTURE END LIST*
D10*
X215292569Y-158536219D02*
X214816379Y-158536219D01*
X214816379Y-158536219D02*
X214768760Y-159012409D01*
X214768760Y-159012409D02*
X214816379Y-158964790D01*
X214816379Y-158964790D02*
X214911617Y-158917171D01*
X214911617Y-158917171D02*
X215149712Y-158917171D01*
X215149712Y-158917171D02*
X215244950Y-158964790D01*
X215244950Y-158964790D02*
X215292569Y-159012409D01*
X215292569Y-159012409D02*
X215340188Y-159107647D01*
X215340188Y-159107647D02*
X215340188Y-159345742D01*
X215340188Y-159345742D02*
X215292569Y-159440980D01*
X215292569Y-159440980D02*
X215244950Y-159488600D01*
X215244950Y-159488600D02*
X215149712Y-159536219D01*
X215149712Y-159536219D02*
X214911617Y-159536219D01*
X214911617Y-159536219D02*
X214816379Y-159488600D01*
X214816379Y-159488600D02*
X214768760Y-159440980D01*
X215625903Y-158536219D02*
X215959236Y-159536219D01*
X215959236Y-159536219D02*
X216292569Y-158536219D01*
X207424788Y-135825438D02*
X207329550Y-135777819D01*
X207329550Y-135777819D02*
X207186693Y-135777819D01*
X207186693Y-135777819D02*
X207043836Y-135825438D01*
X207043836Y-135825438D02*
X206948598Y-135920676D01*
X206948598Y-135920676D02*
X206900979Y-136015914D01*
X206900979Y-136015914D02*
X206853360Y-136206390D01*
X206853360Y-136206390D02*
X206853360Y-136349247D01*
X206853360Y-136349247D02*
X206900979Y-136539723D01*
X206900979Y-136539723D02*
X206948598Y-136634961D01*
X206948598Y-136634961D02*
X207043836Y-136730200D01*
X207043836Y-136730200D02*
X207186693Y-136777819D01*
X207186693Y-136777819D02*
X207281931Y-136777819D01*
X207281931Y-136777819D02*
X207424788Y-136730200D01*
X207424788Y-136730200D02*
X207472407Y-136682580D01*
X207472407Y-136682580D02*
X207472407Y-136349247D01*
X207472407Y-136349247D02*
X207281931Y-136349247D01*
X207900979Y-136777819D02*
X207900979Y-135777819D01*
X207900979Y-135777819D02*
X208472407Y-136777819D01*
X208472407Y-136777819D02*
X208472407Y-135777819D01*
X208948598Y-136777819D02*
X208948598Y-135777819D01*
X208948598Y-135777819D02*
X209186693Y-135777819D01*
X209186693Y-135777819D02*
X209329550Y-135825438D01*
X209329550Y-135825438D02*
X209424788Y-135920676D01*
X209424788Y-135920676D02*
X209472407Y-136015914D01*
X209472407Y-136015914D02*
X209520026Y-136206390D01*
X209520026Y-136206390D02*
X209520026Y-136349247D01*
X209520026Y-136349247D02*
X209472407Y-136539723D01*
X209472407Y-136539723D02*
X209424788Y-136634961D01*
X209424788Y-136634961D02*
X209329550Y-136730200D01*
X209329550Y-136730200D02*
X209186693Y-136777819D01*
X209186693Y-136777819D02*
X208948598Y-136777819D01*
X231744561Y-135589857D02*
X231649323Y-135542238D01*
X231649323Y-135542238D02*
X231554085Y-135447000D01*
X231554085Y-135447000D02*
X231411228Y-135304142D01*
X231411228Y-135304142D02*
X231315990Y-135256523D01*
X231315990Y-135256523D02*
X231220752Y-135256523D01*
X231268371Y-135494619D02*
X231173133Y-135447000D01*
X231173133Y-135447000D02*
X231077895Y-135351761D01*
X231077895Y-135351761D02*
X231030276Y-135161285D01*
X231030276Y-135161285D02*
X231030276Y-134827952D01*
X231030276Y-134827952D02*
X231077895Y-134637476D01*
X231077895Y-134637476D02*
X231173133Y-134542238D01*
X231173133Y-134542238D02*
X231268371Y-134494619D01*
X231268371Y-134494619D02*
X231458847Y-134494619D01*
X231458847Y-134494619D02*
X231554085Y-134542238D01*
X231554085Y-134542238D02*
X231649323Y-134637476D01*
X231649323Y-134637476D02*
X231696942Y-134827952D01*
X231696942Y-134827952D02*
X231696942Y-135161285D01*
X231696942Y-135161285D02*
X231649323Y-135351761D01*
X231649323Y-135351761D02*
X231554085Y-135447000D01*
X231554085Y-135447000D02*
X231458847Y-135494619D01*
X231458847Y-135494619D02*
X231268371Y-135494619D01*
X232554085Y-134827952D02*
X232554085Y-135494619D01*
X232315990Y-134447000D02*
X232077895Y-135161285D01*
X232077895Y-135161285D02*
X232696942Y-135161285D01*
X220658161Y-154018857D02*
X220562923Y-153971238D01*
X220562923Y-153971238D02*
X220467685Y-153876000D01*
X220467685Y-153876000D02*
X220324828Y-153733142D01*
X220324828Y-153733142D02*
X220229590Y-153685523D01*
X220229590Y-153685523D02*
X220134352Y-153685523D01*
X220181971Y-153923619D02*
X220086733Y-153876000D01*
X220086733Y-153876000D02*
X219991495Y-153780761D01*
X219991495Y-153780761D02*
X219943876Y-153590285D01*
X219943876Y-153590285D02*
X219943876Y-153256952D01*
X219943876Y-153256952D02*
X219991495Y-153066476D01*
X219991495Y-153066476D02*
X220086733Y-152971238D01*
X220086733Y-152971238D02*
X220181971Y-152923619D01*
X220181971Y-152923619D02*
X220372447Y-152923619D01*
X220372447Y-152923619D02*
X220467685Y-152971238D01*
X220467685Y-152971238D02*
X220562923Y-153066476D01*
X220562923Y-153066476D02*
X220610542Y-153256952D01*
X220610542Y-153256952D02*
X220610542Y-153590285D01*
X220610542Y-153590285D02*
X220562923Y-153780761D01*
X220562923Y-153780761D02*
X220467685Y-153876000D01*
X220467685Y-153876000D02*
X220372447Y-153923619D01*
X220372447Y-153923619D02*
X220181971Y-153923619D01*
X220943876Y-152923619D02*
X221562923Y-152923619D01*
X221562923Y-152923619D02*
X221229590Y-153304571D01*
X221229590Y-153304571D02*
X221372447Y-153304571D01*
X221372447Y-153304571D02*
X221467685Y-153352190D01*
X221467685Y-153352190D02*
X221515304Y-153399809D01*
X221515304Y-153399809D02*
X221562923Y-153495047D01*
X221562923Y-153495047D02*
X221562923Y-153733142D01*
X221562923Y-153733142D02*
X221515304Y-153828380D01*
X221515304Y-153828380D02*
X221467685Y-153876000D01*
X221467685Y-153876000D02*
X221372447Y-153923619D01*
X221372447Y-153923619D02*
X221086733Y-153923619D01*
X221086733Y-153923619D02*
X220991495Y-153876000D01*
X220991495Y-153876000D02*
X220943876Y-153828380D01*
X227676380Y-148418857D02*
X227724000Y-148466476D01*
X227724000Y-148466476D02*
X227771619Y-148609333D01*
X227771619Y-148609333D02*
X227771619Y-148704571D01*
X227771619Y-148704571D02*
X227724000Y-148847428D01*
X227724000Y-148847428D02*
X227628761Y-148942666D01*
X227628761Y-148942666D02*
X227533523Y-148990285D01*
X227533523Y-148990285D02*
X227343047Y-149037904D01*
X227343047Y-149037904D02*
X227200190Y-149037904D01*
X227200190Y-149037904D02*
X227009714Y-148990285D01*
X227009714Y-148990285D02*
X226914476Y-148942666D01*
X226914476Y-148942666D02*
X226819238Y-148847428D01*
X226819238Y-148847428D02*
X226771619Y-148704571D01*
X226771619Y-148704571D02*
X226771619Y-148609333D01*
X226771619Y-148609333D02*
X226819238Y-148466476D01*
X226819238Y-148466476D02*
X226866857Y-148418857D01*
X227771619Y-147466476D02*
X227771619Y-148037904D01*
X227771619Y-147752190D02*
X226771619Y-147752190D01*
X226771619Y-147752190D02*
X226914476Y-147847428D01*
X226914476Y-147847428D02*
X227009714Y-147942666D01*
X227009714Y-147942666D02*
X227057333Y-148037904D01*
X227771619Y-146514095D02*
X227771619Y-147085523D01*
X227771619Y-146799809D02*
X226771619Y-146799809D01*
X226771619Y-146799809D02*
X226914476Y-146895047D01*
X226914476Y-146895047D02*
X227009714Y-146990285D01*
X227009714Y-146990285D02*
X227057333Y-147085523D01*
X211139667Y-133708400D02*
X211282524Y-133756019D01*
X211282524Y-133756019D02*
X211520619Y-133756019D01*
X211520619Y-133756019D02*
X211615857Y-133708400D01*
X211615857Y-133708400D02*
X211663476Y-133660780D01*
X211663476Y-133660780D02*
X211711095Y-133565542D01*
X211711095Y-133565542D02*
X211711095Y-133470304D01*
X211711095Y-133470304D02*
X211663476Y-133375066D01*
X211663476Y-133375066D02*
X211615857Y-133327447D01*
X211615857Y-133327447D02*
X211520619Y-133279828D01*
X211520619Y-133279828D02*
X211330143Y-133232209D01*
X211330143Y-133232209D02*
X211234905Y-133184590D01*
X211234905Y-133184590D02*
X211187286Y-133136971D01*
X211187286Y-133136971D02*
X211139667Y-133041733D01*
X211139667Y-133041733D02*
X211139667Y-132946495D01*
X211139667Y-132946495D02*
X211187286Y-132851257D01*
X211187286Y-132851257D02*
X211234905Y-132803638D01*
X211234905Y-132803638D02*
X211330143Y-132756019D01*
X211330143Y-132756019D02*
X211568238Y-132756019D01*
X211568238Y-132756019D02*
X211711095Y-132803638D01*
X212044429Y-132756019D02*
X212282524Y-133756019D01*
X212282524Y-133756019D02*
X212473000Y-133041733D01*
X212473000Y-133041733D02*
X212663476Y-133756019D01*
X212663476Y-133756019D02*
X212901572Y-132756019D01*
X213806333Y-133756019D02*
X213234905Y-133756019D01*
X213520619Y-133756019D02*
X213520619Y-132756019D01*
X213520619Y-132756019D02*
X213425381Y-132898876D01*
X213425381Y-132898876D02*
X213330143Y-132994114D01*
X213330143Y-132994114D02*
X213234905Y-133041733D01*
X221925942Y-146176619D02*
X221592609Y-145700428D01*
X221354514Y-146176619D02*
X221354514Y-145176619D01*
X221354514Y-145176619D02*
X221735466Y-145176619D01*
X221735466Y-145176619D02*
X221830704Y-145224238D01*
X221830704Y-145224238D02*
X221878323Y-145271857D01*
X221878323Y-145271857D02*
X221925942Y-145367095D01*
X221925942Y-145367095D02*
X221925942Y-145509952D01*
X221925942Y-145509952D02*
X221878323Y-145605190D01*
X221878323Y-145605190D02*
X221830704Y-145652809D01*
X221830704Y-145652809D02*
X221735466Y-145700428D01*
X221735466Y-145700428D02*
X221354514Y-145700428D01*
X222306895Y-145271857D02*
X222354514Y-145224238D01*
X222354514Y-145224238D02*
X222449752Y-145176619D01*
X222449752Y-145176619D02*
X222687847Y-145176619D01*
X222687847Y-145176619D02*
X222783085Y-145224238D01*
X222783085Y-145224238D02*
X222830704Y-145271857D01*
X222830704Y-145271857D02*
X222878323Y-145367095D01*
X222878323Y-145367095D02*
X222878323Y-145462333D01*
X222878323Y-145462333D02*
X222830704Y-145605190D01*
X222830704Y-145605190D02*
X222259276Y-146176619D01*
X222259276Y-146176619D02*
X222878323Y-146176619D01*
X223211657Y-145176619D02*
X223830704Y-145176619D01*
X223830704Y-145176619D02*
X223497371Y-145557571D01*
X223497371Y-145557571D02*
X223640228Y-145557571D01*
X223640228Y-145557571D02*
X223735466Y-145605190D01*
X223735466Y-145605190D02*
X223783085Y-145652809D01*
X223783085Y-145652809D02*
X223830704Y-145748047D01*
X223830704Y-145748047D02*
X223830704Y-145986142D01*
X223830704Y-145986142D02*
X223783085Y-146081380D01*
X223783085Y-146081380D02*
X223735466Y-146129000D01*
X223735466Y-146129000D02*
X223640228Y-146176619D01*
X223640228Y-146176619D02*
X223354514Y-146176619D01*
X223354514Y-146176619D02*
X223259276Y-146129000D01*
X223259276Y-146129000D02*
X223211657Y-146081380D01*
X208350342Y-140798180D02*
X208302723Y-140845800D01*
X208302723Y-140845800D02*
X208159866Y-140893419D01*
X208159866Y-140893419D02*
X208064628Y-140893419D01*
X208064628Y-140893419D02*
X207921771Y-140845800D01*
X207921771Y-140845800D02*
X207826533Y-140750561D01*
X207826533Y-140750561D02*
X207778914Y-140655323D01*
X207778914Y-140655323D02*
X207731295Y-140464847D01*
X207731295Y-140464847D02*
X207731295Y-140321990D01*
X207731295Y-140321990D02*
X207778914Y-140131514D01*
X207778914Y-140131514D02*
X207826533Y-140036276D01*
X207826533Y-140036276D02*
X207921771Y-139941038D01*
X207921771Y-139941038D02*
X208064628Y-139893419D01*
X208064628Y-139893419D02*
X208159866Y-139893419D01*
X208159866Y-139893419D02*
X208302723Y-139941038D01*
X208302723Y-139941038D02*
X208350342Y-139988657D01*
X209302723Y-140893419D02*
X208731295Y-140893419D01*
X209017009Y-140893419D02*
X209017009Y-139893419D01*
X209017009Y-139893419D02*
X208921771Y-140036276D01*
X208921771Y-140036276D02*
X208826533Y-140131514D01*
X208826533Y-140131514D02*
X208731295Y-140179133D01*
X209921771Y-139893419D02*
X210017009Y-139893419D01*
X210017009Y-139893419D02*
X210112247Y-139941038D01*
X210112247Y-139941038D02*
X210159866Y-139988657D01*
X210159866Y-139988657D02*
X210207485Y-140083895D01*
X210207485Y-140083895D02*
X210255104Y-140274371D01*
X210255104Y-140274371D02*
X210255104Y-140512466D01*
X210255104Y-140512466D02*
X210207485Y-140702942D01*
X210207485Y-140702942D02*
X210159866Y-140798180D01*
X210159866Y-140798180D02*
X210112247Y-140845800D01*
X210112247Y-140845800D02*
X210017009Y-140893419D01*
X210017009Y-140893419D02*
X209921771Y-140893419D01*
X209921771Y-140893419D02*
X209826533Y-140845800D01*
X209826533Y-140845800D02*
X209778914Y-140798180D01*
X209778914Y-140798180D02*
X209731295Y-140702942D01*
X209731295Y-140702942D02*
X209683676Y-140512466D01*
X209683676Y-140512466D02*
X209683676Y-140274371D01*
X209683676Y-140274371D02*
X209731295Y-140083895D01*
X209731295Y-140083895D02*
X209778914Y-139988657D01*
X209778914Y-139988657D02*
X209826533Y-139941038D01*
X209826533Y-139941038D02*
X209921771Y-139893419D01*
X189935342Y-147939419D02*
X189602009Y-147463228D01*
X189363914Y-147939419D02*
X189363914Y-146939419D01*
X189363914Y-146939419D02*
X189744866Y-146939419D01*
X189744866Y-146939419D02*
X189840104Y-146987038D01*
X189840104Y-146987038D02*
X189887723Y-147034657D01*
X189887723Y-147034657D02*
X189935342Y-147129895D01*
X189935342Y-147129895D02*
X189935342Y-147272752D01*
X189935342Y-147272752D02*
X189887723Y-147367990D01*
X189887723Y-147367990D02*
X189840104Y-147415609D01*
X189840104Y-147415609D02*
X189744866Y-147463228D01*
X189744866Y-147463228D02*
X189363914Y-147463228D01*
X190887723Y-147939419D02*
X190316295Y-147939419D01*
X190602009Y-147939419D02*
X190602009Y-146939419D01*
X190602009Y-146939419D02*
X190506771Y-147082276D01*
X190506771Y-147082276D02*
X190411533Y-147177514D01*
X190411533Y-147177514D02*
X190316295Y-147225133D01*
X191268676Y-147034657D02*
X191316295Y-146987038D01*
X191316295Y-146987038D02*
X191411533Y-146939419D01*
X191411533Y-146939419D02*
X191649628Y-146939419D01*
X191649628Y-146939419D02*
X191744866Y-146987038D01*
X191744866Y-146987038D02*
X191792485Y-147034657D01*
X191792485Y-147034657D02*
X191840104Y-147129895D01*
X191840104Y-147129895D02*
X191840104Y-147225133D01*
X191840104Y-147225133D02*
X191792485Y-147367990D01*
X191792485Y-147367990D02*
X191221057Y-147939419D01*
X191221057Y-147939419D02*
X191840104Y-147939419D01*
X224218933Y-144551019D02*
X223885600Y-144074828D01*
X223647505Y-144551019D02*
X223647505Y-143551019D01*
X223647505Y-143551019D02*
X224028457Y-143551019D01*
X224028457Y-143551019D02*
X224123695Y-143598638D01*
X224123695Y-143598638D02*
X224171314Y-143646257D01*
X224171314Y-143646257D02*
X224218933Y-143741495D01*
X224218933Y-143741495D02*
X224218933Y-143884352D01*
X224218933Y-143884352D02*
X224171314Y-143979590D01*
X224171314Y-143979590D02*
X224123695Y-144027209D01*
X224123695Y-144027209D02*
X224028457Y-144074828D01*
X224028457Y-144074828D02*
X223647505Y-144074828D01*
X224552267Y-143551019D02*
X225171314Y-143551019D01*
X225171314Y-143551019D02*
X224837981Y-143931971D01*
X224837981Y-143931971D02*
X224980838Y-143931971D01*
X224980838Y-143931971D02*
X225076076Y-143979590D01*
X225076076Y-143979590D02*
X225123695Y-144027209D01*
X225123695Y-144027209D02*
X225171314Y-144122447D01*
X225171314Y-144122447D02*
X225171314Y-144360542D01*
X225171314Y-144360542D02*
X225123695Y-144455780D01*
X225123695Y-144455780D02*
X225076076Y-144503400D01*
X225076076Y-144503400D02*
X224980838Y-144551019D01*
X224980838Y-144551019D02*
X224695124Y-144551019D01*
X224695124Y-144551019D02*
X224599886Y-144503400D01*
X224599886Y-144503400D02*
X224552267Y-144455780D01*
X225012742Y-135356219D02*
X224679409Y-134880028D01*
X224441314Y-135356219D02*
X224441314Y-134356219D01*
X224441314Y-134356219D02*
X224822266Y-134356219D01*
X224822266Y-134356219D02*
X224917504Y-134403838D01*
X224917504Y-134403838D02*
X224965123Y-134451457D01*
X224965123Y-134451457D02*
X225012742Y-134546695D01*
X225012742Y-134546695D02*
X225012742Y-134689552D01*
X225012742Y-134689552D02*
X224965123Y-134784790D01*
X224965123Y-134784790D02*
X224917504Y-134832409D01*
X224917504Y-134832409D02*
X224822266Y-134880028D01*
X224822266Y-134880028D02*
X224441314Y-134880028D01*
X225393695Y-134451457D02*
X225441314Y-134403838D01*
X225441314Y-134403838D02*
X225536552Y-134356219D01*
X225536552Y-134356219D02*
X225774647Y-134356219D01*
X225774647Y-134356219D02*
X225869885Y-134403838D01*
X225869885Y-134403838D02*
X225917504Y-134451457D01*
X225917504Y-134451457D02*
X225965123Y-134546695D01*
X225965123Y-134546695D02*
X225965123Y-134641933D01*
X225965123Y-134641933D02*
X225917504Y-134784790D01*
X225917504Y-134784790D02*
X225346076Y-135356219D01*
X225346076Y-135356219D02*
X225965123Y-135356219D01*
X226917504Y-135356219D02*
X226346076Y-135356219D01*
X226631790Y-135356219D02*
X226631790Y-134356219D01*
X226631790Y-134356219D02*
X226536552Y-134499076D01*
X226536552Y-134499076D02*
X226441314Y-134594314D01*
X226441314Y-134594314D02*
X226346076Y-134641933D01*
X199144780Y-150706466D02*
X199192400Y-150754085D01*
X199192400Y-150754085D02*
X199240019Y-150896942D01*
X199240019Y-150896942D02*
X199240019Y-150992180D01*
X199240019Y-150992180D02*
X199192400Y-151135037D01*
X199192400Y-151135037D02*
X199097161Y-151230275D01*
X199097161Y-151230275D02*
X199001923Y-151277894D01*
X199001923Y-151277894D02*
X198811447Y-151325513D01*
X198811447Y-151325513D02*
X198668590Y-151325513D01*
X198668590Y-151325513D02*
X198478114Y-151277894D01*
X198478114Y-151277894D02*
X198382876Y-151230275D01*
X198382876Y-151230275D02*
X198287638Y-151135037D01*
X198287638Y-151135037D02*
X198240019Y-150992180D01*
X198240019Y-150992180D02*
X198240019Y-150896942D01*
X198240019Y-150896942D02*
X198287638Y-150754085D01*
X198287638Y-150754085D02*
X198335257Y-150706466D01*
X199240019Y-149706466D02*
X198763828Y-150039799D01*
X199240019Y-150277894D02*
X198240019Y-150277894D01*
X198240019Y-150277894D02*
X198240019Y-149896942D01*
X198240019Y-149896942D02*
X198287638Y-149801704D01*
X198287638Y-149801704D02*
X198335257Y-149754085D01*
X198335257Y-149754085D02*
X198430495Y-149706466D01*
X198430495Y-149706466D02*
X198573352Y-149706466D01*
X198573352Y-149706466D02*
X198668590Y-149754085D01*
X198668590Y-149754085D02*
X198716209Y-149801704D01*
X198716209Y-149801704D02*
X198763828Y-149896942D01*
X198763828Y-149896942D02*
X198763828Y-150277894D01*
X199240019Y-148754085D02*
X199240019Y-149325513D01*
X199240019Y-149039799D02*
X198240019Y-149039799D01*
X198240019Y-149039799D02*
X198382876Y-149135037D01*
X198382876Y-149135037D02*
X198478114Y-149230275D01*
X198478114Y-149230275D02*
X198525733Y-149325513D01*
X203379895Y-141868019D02*
X203379895Y-142677542D01*
X203379895Y-142677542D02*
X203427514Y-142772780D01*
X203427514Y-142772780D02*
X203475133Y-142820400D01*
X203475133Y-142820400D02*
X203570371Y-142868019D01*
X203570371Y-142868019D02*
X203760847Y-142868019D01*
X203760847Y-142868019D02*
X203856085Y-142820400D01*
X203856085Y-142820400D02*
X203903704Y-142772780D01*
X203903704Y-142772780D02*
X203951323Y-142677542D01*
X203951323Y-142677542D02*
X203951323Y-141868019D01*
X204332276Y-141868019D02*
X204998942Y-141868019D01*
X204998942Y-141868019D02*
X204570371Y-142868019D01*
X221294895Y-131181219D02*
X221866323Y-131181219D01*
X221580609Y-132181219D02*
X221580609Y-131181219D01*
X222199657Y-132181219D02*
X222199657Y-131181219D01*
X222199657Y-131181219D02*
X222580609Y-131181219D01*
X222580609Y-131181219D02*
X222675847Y-131228838D01*
X222675847Y-131228838D02*
X222723466Y-131276457D01*
X222723466Y-131276457D02*
X222771085Y-131371695D01*
X222771085Y-131371695D02*
X222771085Y-131514552D01*
X222771085Y-131514552D02*
X222723466Y-131609790D01*
X222723466Y-131609790D02*
X222675847Y-131657409D01*
X222675847Y-131657409D02*
X222580609Y-131705028D01*
X222580609Y-131705028D02*
X222199657Y-131705028D01*
X223628228Y-131514552D02*
X223628228Y-132181219D01*
X223390133Y-131133600D02*
X223152038Y-131847885D01*
X223152038Y-131847885D02*
X223771085Y-131847885D01*
X217180095Y-159070419D02*
X217751523Y-159070419D01*
X217465809Y-160070419D02*
X217465809Y-159070419D01*
X218084857Y-160070419D02*
X218084857Y-159070419D01*
X218084857Y-159070419D02*
X218465809Y-159070419D01*
X218465809Y-159070419D02*
X218561047Y-159118038D01*
X218561047Y-159118038D02*
X218608666Y-159165657D01*
X218608666Y-159165657D02*
X218656285Y-159260895D01*
X218656285Y-159260895D02*
X218656285Y-159403752D01*
X218656285Y-159403752D02*
X218608666Y-159498990D01*
X218608666Y-159498990D02*
X218561047Y-159546609D01*
X218561047Y-159546609D02*
X218465809Y-159594228D01*
X218465809Y-159594228D02*
X218084857Y-159594228D01*
X219132476Y-160070419D02*
X219322952Y-160070419D01*
X219322952Y-160070419D02*
X219418190Y-160022800D01*
X219418190Y-160022800D02*
X219465809Y-159975180D01*
X219465809Y-159975180D02*
X219561047Y-159832323D01*
X219561047Y-159832323D02*
X219608666Y-159641847D01*
X219608666Y-159641847D02*
X219608666Y-159260895D01*
X219608666Y-159260895D02*
X219561047Y-159165657D01*
X219561047Y-159165657D02*
X219513428Y-159118038D01*
X219513428Y-159118038D02*
X219418190Y-159070419D01*
X219418190Y-159070419D02*
X219227714Y-159070419D01*
X219227714Y-159070419D02*
X219132476Y-159118038D01*
X219132476Y-159118038D02*
X219084857Y-159165657D01*
X219084857Y-159165657D02*
X219037238Y-159260895D01*
X219037238Y-159260895D02*
X219037238Y-159498990D01*
X219037238Y-159498990D02*
X219084857Y-159594228D01*
X219084857Y-159594228D02*
X219132476Y-159641847D01*
X219132476Y-159641847D02*
X219227714Y-159689466D01*
X219227714Y-159689466D02*
X219418190Y-159689466D01*
X219418190Y-159689466D02*
X219513428Y-159641847D01*
X219513428Y-159641847D02*
X219561047Y-159594228D01*
X219561047Y-159594228D02*
X219608666Y-159498990D01*
X263487780Y-137945466D02*
X263535400Y-137993085D01*
X263535400Y-137993085D02*
X263583019Y-138135942D01*
X263583019Y-138135942D02*
X263583019Y-138231180D01*
X263583019Y-138231180D02*
X263535400Y-138374037D01*
X263535400Y-138374037D02*
X263440161Y-138469275D01*
X263440161Y-138469275D02*
X263344923Y-138516894D01*
X263344923Y-138516894D02*
X263154447Y-138564513D01*
X263154447Y-138564513D02*
X263011590Y-138564513D01*
X263011590Y-138564513D02*
X262821114Y-138516894D01*
X262821114Y-138516894D02*
X262725876Y-138469275D01*
X262725876Y-138469275D02*
X262630638Y-138374037D01*
X262630638Y-138374037D02*
X262583019Y-138231180D01*
X262583019Y-138231180D02*
X262583019Y-138135942D01*
X262583019Y-138135942D02*
X262630638Y-137993085D01*
X262630638Y-137993085D02*
X262678257Y-137945466D01*
X263583019Y-136993085D02*
X263583019Y-137564513D01*
X263583019Y-137278799D02*
X262583019Y-137278799D01*
X262583019Y-137278799D02*
X262725876Y-137374037D01*
X262725876Y-137374037D02*
X262821114Y-137469275D01*
X262821114Y-137469275D02*
X262868733Y-137564513D01*
X207238942Y-147338719D02*
X206905609Y-146862528D01*
X206667514Y-147338719D02*
X206667514Y-146338719D01*
X206667514Y-146338719D02*
X207048466Y-146338719D01*
X207048466Y-146338719D02*
X207143704Y-146386338D01*
X207143704Y-146386338D02*
X207191323Y-146433957D01*
X207191323Y-146433957D02*
X207238942Y-146529195D01*
X207238942Y-146529195D02*
X207238942Y-146672052D01*
X207238942Y-146672052D02*
X207191323Y-146767290D01*
X207191323Y-146767290D02*
X207143704Y-146814909D01*
X207143704Y-146814909D02*
X207048466Y-146862528D01*
X207048466Y-146862528D02*
X206667514Y-146862528D01*
X208191323Y-147338719D02*
X207619895Y-147338719D01*
X207905609Y-147338719D02*
X207905609Y-146338719D01*
X207905609Y-146338719D02*
X207810371Y-146481576D01*
X207810371Y-146481576D02*
X207715133Y-146576814D01*
X207715133Y-146576814D02*
X207619895Y-146624433D01*
X208810371Y-146338719D02*
X208905609Y-146338719D01*
X208905609Y-146338719D02*
X209000847Y-146386338D01*
X209000847Y-146386338D02*
X209048466Y-146433957D01*
X209048466Y-146433957D02*
X209096085Y-146529195D01*
X209096085Y-146529195D02*
X209143704Y-146719671D01*
X209143704Y-146719671D02*
X209143704Y-146957766D01*
X209143704Y-146957766D02*
X209096085Y-147148242D01*
X209096085Y-147148242D02*
X209048466Y-147243480D01*
X209048466Y-147243480D02*
X209000847Y-147291100D01*
X209000847Y-147291100D02*
X208905609Y-147338719D01*
X208905609Y-147338719D02*
X208810371Y-147338719D01*
X208810371Y-147338719D02*
X208715133Y-147291100D01*
X208715133Y-147291100D02*
X208667514Y-147243480D01*
X208667514Y-147243480D02*
X208619895Y-147148242D01*
X208619895Y-147148242D02*
X208572276Y-146957766D01*
X208572276Y-146957766D02*
X208572276Y-146719671D01*
X208572276Y-146719671D02*
X208619895Y-146529195D01*
X208619895Y-146529195D02*
X208667514Y-146433957D01*
X208667514Y-146433957D02*
X208715133Y-146386338D01*
X208715133Y-146386338D02*
X208810371Y-146338719D01*
D11*
X217742795Y-152151266D02*
X217361842Y-152484599D01*
X217742795Y-152722694D02*
X216942795Y-152722694D01*
X216942795Y-152722694D02*
X216942795Y-152341742D01*
X216942795Y-152341742D02*
X216980890Y-152246504D01*
X216980890Y-152246504D02*
X217018985Y-152198885D01*
X217018985Y-152198885D02*
X217095176Y-152151266D01*
X217095176Y-152151266D02*
X217209461Y-152151266D01*
X217209461Y-152151266D02*
X217285652Y-152198885D01*
X217285652Y-152198885D02*
X217323747Y-152246504D01*
X217323747Y-152246504D02*
X217361842Y-152341742D01*
X217361842Y-152341742D02*
X217361842Y-152722694D01*
X216942795Y-151246504D02*
X216942795Y-151722694D01*
X216942795Y-151722694D02*
X217323747Y-151770313D01*
X217323747Y-151770313D02*
X217285652Y-151722694D01*
X217285652Y-151722694D02*
X217247557Y-151627456D01*
X217247557Y-151627456D02*
X217247557Y-151389361D01*
X217247557Y-151389361D02*
X217285652Y-151294123D01*
X217285652Y-151294123D02*
X217323747Y-151246504D01*
X217323747Y-151246504D02*
X217399938Y-151198885D01*
X217399938Y-151198885D02*
X217590414Y-151198885D01*
X217590414Y-151198885D02*
X217666604Y-151246504D01*
X217666604Y-151246504D02*
X217704700Y-151294123D01*
X217704700Y-151294123D02*
X217742795Y-151389361D01*
X217742795Y-151389361D02*
X217742795Y-151627456D01*
X217742795Y-151627456D02*
X217704700Y-151722694D01*
X217704700Y-151722694D02*
X217666604Y-151770313D01*
D10*
X240303542Y-153872819D02*
X239970209Y-153396628D01*
X239732114Y-153872819D02*
X239732114Y-152872819D01*
X239732114Y-152872819D02*
X240113066Y-152872819D01*
X240113066Y-152872819D02*
X240208304Y-152920438D01*
X240208304Y-152920438D02*
X240255923Y-152968057D01*
X240255923Y-152968057D02*
X240303542Y-153063295D01*
X240303542Y-153063295D02*
X240303542Y-153206152D01*
X240303542Y-153206152D02*
X240255923Y-153301390D01*
X240255923Y-153301390D02*
X240208304Y-153349009D01*
X240208304Y-153349009D02*
X240113066Y-153396628D01*
X240113066Y-153396628D02*
X239732114Y-153396628D01*
X240684495Y-152968057D02*
X240732114Y-152920438D01*
X240732114Y-152920438D02*
X240827352Y-152872819D01*
X240827352Y-152872819D02*
X241065447Y-152872819D01*
X241065447Y-152872819D02*
X241160685Y-152920438D01*
X241160685Y-152920438D02*
X241208304Y-152968057D01*
X241208304Y-152968057D02*
X241255923Y-153063295D01*
X241255923Y-153063295D02*
X241255923Y-153158533D01*
X241255923Y-153158533D02*
X241208304Y-153301390D01*
X241208304Y-153301390D02*
X240636876Y-153872819D01*
X240636876Y-153872819D02*
X241255923Y-153872819D01*
X241874971Y-152872819D02*
X241970209Y-152872819D01*
X241970209Y-152872819D02*
X242065447Y-152920438D01*
X242065447Y-152920438D02*
X242113066Y-152968057D01*
X242113066Y-152968057D02*
X242160685Y-153063295D01*
X242160685Y-153063295D02*
X242208304Y-153253771D01*
X242208304Y-153253771D02*
X242208304Y-153491866D01*
X242208304Y-153491866D02*
X242160685Y-153682342D01*
X242160685Y-153682342D02*
X242113066Y-153777580D01*
X242113066Y-153777580D02*
X242065447Y-153825200D01*
X242065447Y-153825200D02*
X241970209Y-153872819D01*
X241970209Y-153872819D02*
X241874971Y-153872819D01*
X241874971Y-153872819D02*
X241779733Y-153825200D01*
X241779733Y-153825200D02*
X241732114Y-153777580D01*
X241732114Y-153777580D02*
X241684495Y-153682342D01*
X241684495Y-153682342D02*
X241636876Y-153491866D01*
X241636876Y-153491866D02*
X241636876Y-153253771D01*
X241636876Y-153253771D02*
X241684495Y-153063295D01*
X241684495Y-153063295D02*
X241732114Y-152968057D01*
X241732114Y-152968057D02*
X241779733Y-152920438D01*
X241779733Y-152920438D02*
X241874971Y-152872819D01*
X225202380Y-142605457D02*
X225250000Y-142653076D01*
X225250000Y-142653076D02*
X225297619Y-142795933D01*
X225297619Y-142795933D02*
X225297619Y-142891171D01*
X225297619Y-142891171D02*
X225250000Y-143034028D01*
X225250000Y-143034028D02*
X225154761Y-143129266D01*
X225154761Y-143129266D02*
X225059523Y-143176885D01*
X225059523Y-143176885D02*
X224869047Y-143224504D01*
X224869047Y-143224504D02*
X224726190Y-143224504D01*
X224726190Y-143224504D02*
X224535714Y-143176885D01*
X224535714Y-143176885D02*
X224440476Y-143129266D01*
X224440476Y-143129266D02*
X224345238Y-143034028D01*
X224345238Y-143034028D02*
X224297619Y-142891171D01*
X224297619Y-142891171D02*
X224297619Y-142795933D01*
X224297619Y-142795933D02*
X224345238Y-142653076D01*
X224345238Y-142653076D02*
X224392857Y-142605457D01*
X225297619Y-141653076D02*
X225297619Y-142224504D01*
X225297619Y-141938790D02*
X224297619Y-141938790D01*
X224297619Y-141938790D02*
X224440476Y-142034028D01*
X224440476Y-142034028D02*
X224535714Y-142129266D01*
X224535714Y-142129266D02*
X224583333Y-142224504D01*
X224297619Y-140748314D02*
X224297619Y-141224504D01*
X224297619Y-141224504D02*
X224773809Y-141272123D01*
X224773809Y-141272123D02*
X224726190Y-141224504D01*
X224726190Y-141224504D02*
X224678571Y-141129266D01*
X224678571Y-141129266D02*
X224678571Y-140891171D01*
X224678571Y-140891171D02*
X224726190Y-140795933D01*
X224726190Y-140795933D02*
X224773809Y-140748314D01*
X224773809Y-140748314D02*
X224869047Y-140700695D01*
X224869047Y-140700695D02*
X225107142Y-140700695D01*
X225107142Y-140700695D02*
X225202380Y-140748314D01*
X225202380Y-140748314D02*
X225250000Y-140795933D01*
X225250000Y-140795933D02*
X225297619Y-140891171D01*
X225297619Y-140891171D02*
X225297619Y-141129266D01*
X225297619Y-141129266D02*
X225250000Y-141224504D01*
X225250000Y-141224504D02*
X225202380Y-141272123D01*
X202846380Y-153547266D02*
X202894000Y-153594885D01*
X202894000Y-153594885D02*
X202941619Y-153737742D01*
X202941619Y-153737742D02*
X202941619Y-153832980D01*
X202941619Y-153832980D02*
X202894000Y-153975837D01*
X202894000Y-153975837D02*
X202798761Y-154071075D01*
X202798761Y-154071075D02*
X202703523Y-154118694D01*
X202703523Y-154118694D02*
X202513047Y-154166313D01*
X202513047Y-154166313D02*
X202370190Y-154166313D01*
X202370190Y-154166313D02*
X202179714Y-154118694D01*
X202179714Y-154118694D02*
X202084476Y-154071075D01*
X202084476Y-154071075D02*
X201989238Y-153975837D01*
X201989238Y-153975837D02*
X201941619Y-153832980D01*
X201941619Y-153832980D02*
X201941619Y-153737742D01*
X201941619Y-153737742D02*
X201989238Y-153594885D01*
X201989238Y-153594885D02*
X202036857Y-153547266D01*
X202941619Y-153071075D02*
X202941619Y-152880599D01*
X202941619Y-152880599D02*
X202894000Y-152785361D01*
X202894000Y-152785361D02*
X202846380Y-152737742D01*
X202846380Y-152737742D02*
X202703523Y-152642504D01*
X202703523Y-152642504D02*
X202513047Y-152594885D01*
X202513047Y-152594885D02*
X202132095Y-152594885D01*
X202132095Y-152594885D02*
X202036857Y-152642504D01*
X202036857Y-152642504D02*
X201989238Y-152690123D01*
X201989238Y-152690123D02*
X201941619Y-152785361D01*
X201941619Y-152785361D02*
X201941619Y-152975837D01*
X201941619Y-152975837D02*
X201989238Y-153071075D01*
X201989238Y-153071075D02*
X202036857Y-153118694D01*
X202036857Y-153118694D02*
X202132095Y-153166313D01*
X202132095Y-153166313D02*
X202370190Y-153166313D01*
X202370190Y-153166313D02*
X202465428Y-153118694D01*
X202465428Y-153118694D02*
X202513047Y-153071075D01*
X202513047Y-153071075D02*
X202560666Y-152975837D01*
X202560666Y-152975837D02*
X202560666Y-152785361D01*
X202560666Y-152785361D02*
X202513047Y-152690123D01*
X202513047Y-152690123D02*
X202465428Y-152642504D01*
X202465428Y-152642504D02*
X202370190Y-152594885D01*
X227793180Y-141468866D02*
X227840800Y-141516485D01*
X227840800Y-141516485D02*
X227888419Y-141659342D01*
X227888419Y-141659342D02*
X227888419Y-141754580D01*
X227888419Y-141754580D02*
X227840800Y-141897437D01*
X227840800Y-141897437D02*
X227745561Y-141992675D01*
X227745561Y-141992675D02*
X227650323Y-142040294D01*
X227650323Y-142040294D02*
X227459847Y-142087913D01*
X227459847Y-142087913D02*
X227316990Y-142087913D01*
X227316990Y-142087913D02*
X227126514Y-142040294D01*
X227126514Y-142040294D02*
X227031276Y-141992675D01*
X227031276Y-141992675D02*
X226936038Y-141897437D01*
X226936038Y-141897437D02*
X226888419Y-141754580D01*
X226888419Y-141754580D02*
X226888419Y-141659342D01*
X226888419Y-141659342D02*
X226936038Y-141516485D01*
X226936038Y-141516485D02*
X226983657Y-141468866D01*
X226983657Y-141087913D02*
X226936038Y-141040294D01*
X226936038Y-141040294D02*
X226888419Y-140945056D01*
X226888419Y-140945056D02*
X226888419Y-140706961D01*
X226888419Y-140706961D02*
X226936038Y-140611723D01*
X226936038Y-140611723D02*
X226983657Y-140564104D01*
X226983657Y-140564104D02*
X227078895Y-140516485D01*
X227078895Y-140516485D02*
X227174133Y-140516485D01*
X227174133Y-140516485D02*
X227316990Y-140564104D01*
X227316990Y-140564104D02*
X227888419Y-141135532D01*
X227888419Y-141135532D02*
X227888419Y-140516485D01*
X216119895Y-139439419D02*
X216119895Y-140248942D01*
X216119895Y-140248942D02*
X216167514Y-140344180D01*
X216167514Y-140344180D02*
X216215133Y-140391800D01*
X216215133Y-140391800D02*
X216310371Y-140439419D01*
X216310371Y-140439419D02*
X216500847Y-140439419D01*
X216500847Y-140439419D02*
X216596085Y-140391800D01*
X216596085Y-140391800D02*
X216643704Y-140344180D01*
X216643704Y-140344180D02*
X216691323Y-140248942D01*
X216691323Y-140248942D02*
X216691323Y-139439419D01*
X217596085Y-139439419D02*
X217405609Y-139439419D01*
X217405609Y-139439419D02*
X217310371Y-139487038D01*
X217310371Y-139487038D02*
X217262752Y-139534657D01*
X217262752Y-139534657D02*
X217167514Y-139677514D01*
X217167514Y-139677514D02*
X217119895Y-139867990D01*
X217119895Y-139867990D02*
X217119895Y-140248942D01*
X217119895Y-140248942D02*
X217167514Y-140344180D01*
X217167514Y-140344180D02*
X217215133Y-140391800D01*
X217215133Y-140391800D02*
X217310371Y-140439419D01*
X217310371Y-140439419D02*
X217500847Y-140439419D01*
X217500847Y-140439419D02*
X217596085Y-140391800D01*
X217596085Y-140391800D02*
X217643704Y-140344180D01*
X217643704Y-140344180D02*
X217691323Y-140248942D01*
X217691323Y-140248942D02*
X217691323Y-140010847D01*
X217691323Y-140010847D02*
X217643704Y-139915609D01*
X217643704Y-139915609D02*
X217596085Y-139867990D01*
X217596085Y-139867990D02*
X217500847Y-139820371D01*
X217500847Y-139820371D02*
X217310371Y-139820371D01*
X217310371Y-139820371D02*
X217215133Y-139867990D01*
X217215133Y-139867990D02*
X217167514Y-139915609D01*
X217167514Y-139915609D02*
X217119895Y-140010847D01*
X201947533Y-148480119D02*
X201614200Y-148003928D01*
X201376105Y-148480119D02*
X201376105Y-147480119D01*
X201376105Y-147480119D02*
X201757057Y-147480119D01*
X201757057Y-147480119D02*
X201852295Y-147527738D01*
X201852295Y-147527738D02*
X201899914Y-147575357D01*
X201899914Y-147575357D02*
X201947533Y-147670595D01*
X201947533Y-147670595D02*
X201947533Y-147813452D01*
X201947533Y-147813452D02*
X201899914Y-147908690D01*
X201899914Y-147908690D02*
X201852295Y-147956309D01*
X201852295Y-147956309D02*
X201757057Y-148003928D01*
X201757057Y-148003928D02*
X201376105Y-148003928D01*
X202280867Y-147480119D02*
X202947533Y-147480119D01*
X202947533Y-147480119D02*
X202518962Y-148480119D01*
X214389133Y-147689419D02*
X213912943Y-147689419D01*
X213912943Y-147689419D02*
X213912943Y-146689419D01*
X215246276Y-147689419D02*
X214674848Y-147689419D01*
X214960562Y-147689419D02*
X214960562Y-146689419D01*
X214960562Y-146689419D02*
X214865324Y-146832276D01*
X214865324Y-146832276D02*
X214770086Y-146927514D01*
X214770086Y-146927514D02*
X214674848Y-146975133D01*
D12*
X211431799Y-147959409D02*
X211198466Y-147721314D01*
X211031799Y-147959409D02*
X211031799Y-147459409D01*
X211031799Y-147459409D02*
X211298466Y-147459409D01*
X211298466Y-147459409D02*
X211365133Y-147483219D01*
X211365133Y-147483219D02*
X211398466Y-147507028D01*
X211398466Y-147507028D02*
X211431799Y-147554647D01*
X211431799Y-147554647D02*
X211431799Y-147626076D01*
X211431799Y-147626076D02*
X211398466Y-147673695D01*
X211398466Y-147673695D02*
X211365133Y-147697504D01*
X211365133Y-147697504D02*
X211298466Y-147721314D01*
X211298466Y-147721314D02*
X211031799Y-147721314D01*
X212098466Y-147959409D02*
X211698466Y-147959409D01*
X211898466Y-147959409D02*
X211898466Y-147459409D01*
X211898466Y-147459409D02*
X211831799Y-147530838D01*
X211831799Y-147530838D02*
X211765133Y-147578457D01*
X211765133Y-147578457D02*
X211698466Y-147602266D01*
X212698466Y-147626076D02*
X212698466Y-147959409D01*
X212531800Y-147435600D02*
X212365133Y-147792742D01*
X212365133Y-147792742D02*
X212798466Y-147792742D01*
D10*
X250577895Y-128239419D02*
X250577895Y-129048942D01*
X250577895Y-129048942D02*
X250625514Y-129144180D01*
X250625514Y-129144180D02*
X250673133Y-129191800D01*
X250673133Y-129191800D02*
X250768371Y-129239419D01*
X250768371Y-129239419D02*
X250958847Y-129239419D01*
X250958847Y-129239419D02*
X251054085Y-129191800D01*
X251054085Y-129191800D02*
X251101704Y-129144180D01*
X251101704Y-129144180D02*
X251149323Y-129048942D01*
X251149323Y-129048942D02*
X251149323Y-128239419D01*
X251577895Y-128334657D02*
X251625514Y-128287038D01*
X251625514Y-128287038D02*
X251720752Y-128239419D01*
X251720752Y-128239419D02*
X251958847Y-128239419D01*
X251958847Y-128239419D02*
X252054085Y-128287038D01*
X252054085Y-128287038D02*
X252101704Y-128334657D01*
X252101704Y-128334657D02*
X252149323Y-128429895D01*
X252149323Y-128429895D02*
X252149323Y-128525133D01*
X252149323Y-128525133D02*
X252101704Y-128667990D01*
X252101704Y-128667990D02*
X251530276Y-129239419D01*
X251530276Y-129239419D02*
X252149323Y-129239419D01*
X240328942Y-150850219D02*
X239995609Y-150374028D01*
X239757514Y-150850219D02*
X239757514Y-149850219D01*
X239757514Y-149850219D02*
X240138466Y-149850219D01*
X240138466Y-149850219D02*
X240233704Y-149897838D01*
X240233704Y-149897838D02*
X240281323Y-149945457D01*
X240281323Y-149945457D02*
X240328942Y-150040695D01*
X240328942Y-150040695D02*
X240328942Y-150183552D01*
X240328942Y-150183552D02*
X240281323Y-150278790D01*
X240281323Y-150278790D02*
X240233704Y-150326409D01*
X240233704Y-150326409D02*
X240138466Y-150374028D01*
X240138466Y-150374028D02*
X239757514Y-150374028D01*
X241281323Y-150850219D02*
X240709895Y-150850219D01*
X240995609Y-150850219D02*
X240995609Y-149850219D01*
X240995609Y-149850219D02*
X240900371Y-149993076D01*
X240900371Y-149993076D02*
X240805133Y-150088314D01*
X240805133Y-150088314D02*
X240709895Y-150135933D01*
X241757514Y-150850219D02*
X241947990Y-150850219D01*
X241947990Y-150850219D02*
X242043228Y-150802600D01*
X242043228Y-150802600D02*
X242090847Y-150754980D01*
X242090847Y-150754980D02*
X242186085Y-150612123D01*
X242186085Y-150612123D02*
X242233704Y-150421647D01*
X242233704Y-150421647D02*
X242233704Y-150040695D01*
X242233704Y-150040695D02*
X242186085Y-149945457D01*
X242186085Y-149945457D02*
X242138466Y-149897838D01*
X242138466Y-149897838D02*
X242043228Y-149850219D01*
X242043228Y-149850219D02*
X241852752Y-149850219D01*
X241852752Y-149850219D02*
X241757514Y-149897838D01*
X241757514Y-149897838D02*
X241709895Y-149945457D01*
X241709895Y-149945457D02*
X241662276Y-150040695D01*
X241662276Y-150040695D02*
X241662276Y-150278790D01*
X241662276Y-150278790D02*
X241709895Y-150374028D01*
X241709895Y-150374028D02*
X241757514Y-150421647D01*
X241757514Y-150421647D02*
X241852752Y-150469266D01*
X241852752Y-150469266D02*
X242043228Y-150469266D01*
X242043228Y-150469266D02*
X242138466Y-150421647D01*
X242138466Y-150421647D02*
X242186085Y-150374028D01*
X242186085Y-150374028D02*
X242233704Y-150278790D01*
X211393705Y-153189419D02*
X211393705Y-152189419D01*
X211393705Y-152189419D02*
X211631800Y-152189419D01*
X211631800Y-152189419D02*
X211774657Y-152237038D01*
X211774657Y-152237038D02*
X211869895Y-152332276D01*
X211869895Y-152332276D02*
X211917514Y-152427514D01*
X211917514Y-152427514D02*
X211965133Y-152617990D01*
X211965133Y-152617990D02*
X211965133Y-152760847D01*
X211965133Y-152760847D02*
X211917514Y-152951323D01*
X211917514Y-152951323D02*
X211869895Y-153046561D01*
X211869895Y-153046561D02*
X211774657Y-153141800D01*
X211774657Y-153141800D02*
X211631800Y-153189419D01*
X211631800Y-153189419D02*
X211393705Y-153189419D01*
X212917514Y-153189419D02*
X212346086Y-153189419D01*
X212631800Y-153189419D02*
X212631800Y-152189419D01*
X212631800Y-152189419D02*
X212536562Y-152332276D01*
X212536562Y-152332276D02*
X212441324Y-152427514D01*
X212441324Y-152427514D02*
X212346086Y-152475133D01*
X218642819Y-147615666D02*
X218166628Y-147948999D01*
X218642819Y-148187094D02*
X217642819Y-148187094D01*
X217642819Y-148187094D02*
X217642819Y-147806142D01*
X217642819Y-147806142D02*
X217690438Y-147710904D01*
X217690438Y-147710904D02*
X217738057Y-147663285D01*
X217738057Y-147663285D02*
X217833295Y-147615666D01*
X217833295Y-147615666D02*
X217976152Y-147615666D01*
X217976152Y-147615666D02*
X218071390Y-147663285D01*
X218071390Y-147663285D02*
X218119009Y-147710904D01*
X218119009Y-147710904D02*
X218166628Y-147806142D01*
X218166628Y-147806142D02*
X218166628Y-148187094D01*
X217976152Y-146758523D02*
X218642819Y-146758523D01*
X217595200Y-146996618D02*
X218309485Y-147234713D01*
X218309485Y-147234713D02*
X218309485Y-146615666D01*
X227063733Y-157708219D02*
X226730400Y-157232028D01*
X226492305Y-157708219D02*
X226492305Y-156708219D01*
X226492305Y-156708219D02*
X226873257Y-156708219D01*
X226873257Y-156708219D02*
X226968495Y-156755838D01*
X226968495Y-156755838D02*
X227016114Y-156803457D01*
X227016114Y-156803457D02*
X227063733Y-156898695D01*
X227063733Y-156898695D02*
X227063733Y-157041552D01*
X227063733Y-157041552D02*
X227016114Y-157136790D01*
X227016114Y-157136790D02*
X226968495Y-157184409D01*
X226968495Y-157184409D02*
X226873257Y-157232028D01*
X226873257Y-157232028D02*
X226492305Y-157232028D01*
X227444686Y-156803457D02*
X227492305Y-156755838D01*
X227492305Y-156755838D02*
X227587543Y-156708219D01*
X227587543Y-156708219D02*
X227825638Y-156708219D01*
X227825638Y-156708219D02*
X227920876Y-156755838D01*
X227920876Y-156755838D02*
X227968495Y-156803457D01*
X227968495Y-156803457D02*
X228016114Y-156898695D01*
X228016114Y-156898695D02*
X228016114Y-156993933D01*
X228016114Y-156993933D02*
X227968495Y-157136790D01*
X227968495Y-157136790D02*
X227397067Y-157708219D01*
X227397067Y-157708219D02*
X228016114Y-157708219D01*
X215532133Y-153009219D02*
X215198800Y-152533028D01*
X214960705Y-153009219D02*
X214960705Y-152009219D01*
X214960705Y-152009219D02*
X215341657Y-152009219D01*
X215341657Y-152009219D02*
X215436895Y-152056838D01*
X215436895Y-152056838D02*
X215484514Y-152104457D01*
X215484514Y-152104457D02*
X215532133Y-152199695D01*
X215532133Y-152199695D02*
X215532133Y-152342552D01*
X215532133Y-152342552D02*
X215484514Y-152437790D01*
X215484514Y-152437790D02*
X215436895Y-152485409D01*
X215436895Y-152485409D02*
X215341657Y-152533028D01*
X215341657Y-152533028D02*
X214960705Y-152533028D01*
X216389276Y-152009219D02*
X216198800Y-152009219D01*
X216198800Y-152009219D02*
X216103562Y-152056838D01*
X216103562Y-152056838D02*
X216055943Y-152104457D01*
X216055943Y-152104457D02*
X215960705Y-152247314D01*
X215960705Y-152247314D02*
X215913086Y-152437790D01*
X215913086Y-152437790D02*
X215913086Y-152818742D01*
X215913086Y-152818742D02*
X215960705Y-152913980D01*
X215960705Y-152913980D02*
X216008324Y-152961600D01*
X216008324Y-152961600D02*
X216103562Y-153009219D01*
X216103562Y-153009219D02*
X216294038Y-153009219D01*
X216294038Y-153009219D02*
X216389276Y-152961600D01*
X216389276Y-152961600D02*
X216436895Y-152913980D01*
X216436895Y-152913980D02*
X216484514Y-152818742D01*
X216484514Y-152818742D02*
X216484514Y-152580647D01*
X216484514Y-152580647D02*
X216436895Y-152485409D01*
X216436895Y-152485409D02*
X216389276Y-152437790D01*
X216389276Y-152437790D02*
X216294038Y-152390171D01*
X216294038Y-152390171D02*
X216103562Y-152390171D01*
X216103562Y-152390171D02*
X216008324Y-152437790D01*
X216008324Y-152437790D02*
X215960705Y-152485409D01*
X215960705Y-152485409D02*
X215913086Y-152580647D01*
X208336619Y-155472694D02*
X207336619Y-155472694D01*
X207336619Y-155472694D02*
X207336619Y-155234599D01*
X207336619Y-155234599D02*
X207384238Y-155091742D01*
X207384238Y-155091742D02*
X207479476Y-154996504D01*
X207479476Y-154996504D02*
X207574714Y-154948885D01*
X207574714Y-154948885D02*
X207765190Y-154901266D01*
X207765190Y-154901266D02*
X207908047Y-154901266D01*
X207908047Y-154901266D02*
X208098523Y-154948885D01*
X208098523Y-154948885D02*
X208193761Y-154996504D01*
X208193761Y-154996504D02*
X208289000Y-155091742D01*
X208289000Y-155091742D02*
X208336619Y-155234599D01*
X208336619Y-155234599D02*
X208336619Y-155472694D01*
X207431857Y-154520313D02*
X207384238Y-154472694D01*
X207384238Y-154472694D02*
X207336619Y-154377456D01*
X207336619Y-154377456D02*
X207336619Y-154139361D01*
X207336619Y-154139361D02*
X207384238Y-154044123D01*
X207384238Y-154044123D02*
X207431857Y-153996504D01*
X207431857Y-153996504D02*
X207527095Y-153948885D01*
X207527095Y-153948885D02*
X207622333Y-153948885D01*
X207622333Y-153948885D02*
X207765190Y-153996504D01*
X207765190Y-153996504D02*
X208336619Y-154567932D01*
X208336619Y-154567932D02*
X208336619Y-153948885D01*
X215738942Y-144439419D02*
X215405609Y-143963228D01*
X215167514Y-144439419D02*
X215167514Y-143439419D01*
X215167514Y-143439419D02*
X215548466Y-143439419D01*
X215548466Y-143439419D02*
X215643704Y-143487038D01*
X215643704Y-143487038D02*
X215691323Y-143534657D01*
X215691323Y-143534657D02*
X215738942Y-143629895D01*
X215738942Y-143629895D02*
X215738942Y-143772752D01*
X215738942Y-143772752D02*
X215691323Y-143867990D01*
X215691323Y-143867990D02*
X215643704Y-143915609D01*
X215643704Y-143915609D02*
X215548466Y-143963228D01*
X215548466Y-143963228D02*
X215167514Y-143963228D01*
X216691323Y-144439419D02*
X216119895Y-144439419D01*
X216405609Y-144439419D02*
X216405609Y-143439419D01*
X216405609Y-143439419D02*
X216310371Y-143582276D01*
X216310371Y-143582276D02*
X216215133Y-143677514D01*
X216215133Y-143677514D02*
X216119895Y-143725133D01*
X217548466Y-143439419D02*
X217357990Y-143439419D01*
X217357990Y-143439419D02*
X217262752Y-143487038D01*
X217262752Y-143487038D02*
X217215133Y-143534657D01*
X217215133Y-143534657D02*
X217119895Y-143677514D01*
X217119895Y-143677514D02*
X217072276Y-143867990D01*
X217072276Y-143867990D02*
X217072276Y-144248942D01*
X217072276Y-144248942D02*
X217119895Y-144344180D01*
X217119895Y-144344180D02*
X217167514Y-144391800D01*
X217167514Y-144391800D02*
X217262752Y-144439419D01*
X217262752Y-144439419D02*
X217453228Y-144439419D01*
X217453228Y-144439419D02*
X217548466Y-144391800D01*
X217548466Y-144391800D02*
X217596085Y-144344180D01*
X217596085Y-144344180D02*
X217643704Y-144248942D01*
X217643704Y-144248942D02*
X217643704Y-144010847D01*
X217643704Y-144010847D02*
X217596085Y-143915609D01*
X217596085Y-143915609D02*
X217548466Y-143867990D01*
X217548466Y-143867990D02*
X217453228Y-143820371D01*
X217453228Y-143820371D02*
X217262752Y-143820371D01*
X217262752Y-143820371D02*
X217167514Y-143867990D01*
X217167514Y-143867990D02*
X217119895Y-143915609D01*
X217119895Y-143915609D02*
X217072276Y-144010847D01*
X217484895Y-144897019D02*
X218056323Y-144897019D01*
X217770609Y-145897019D02*
X217770609Y-144897019D01*
X218389657Y-145897019D02*
X218389657Y-144897019D01*
X218389657Y-144897019D02*
X218770609Y-144897019D01*
X218770609Y-144897019D02*
X218865847Y-144944638D01*
X218865847Y-144944638D02*
X218913466Y-144992257D01*
X218913466Y-144992257D02*
X218961085Y-145087495D01*
X218961085Y-145087495D02*
X218961085Y-145230352D01*
X218961085Y-145230352D02*
X218913466Y-145325590D01*
X218913466Y-145325590D02*
X218865847Y-145373209D01*
X218865847Y-145373209D02*
X218770609Y-145420828D01*
X218770609Y-145420828D02*
X218389657Y-145420828D01*
X219342038Y-144992257D02*
X219389657Y-144944638D01*
X219389657Y-144944638D02*
X219484895Y-144897019D01*
X219484895Y-144897019D02*
X219722990Y-144897019D01*
X219722990Y-144897019D02*
X219818228Y-144944638D01*
X219818228Y-144944638D02*
X219865847Y-144992257D01*
X219865847Y-144992257D02*
X219913466Y-145087495D01*
X219913466Y-145087495D02*
X219913466Y-145182733D01*
X219913466Y-145182733D02*
X219865847Y-145325590D01*
X219865847Y-145325590D02*
X219294419Y-145897019D01*
X219294419Y-145897019D02*
X219913466Y-145897019D01*
X214522542Y-146354419D02*
X214189209Y-145878228D01*
X213951114Y-146354419D02*
X213951114Y-145354419D01*
X213951114Y-145354419D02*
X214332066Y-145354419D01*
X214332066Y-145354419D02*
X214427304Y-145402038D01*
X214427304Y-145402038D02*
X214474923Y-145449657D01*
X214474923Y-145449657D02*
X214522542Y-145544895D01*
X214522542Y-145544895D02*
X214522542Y-145687752D01*
X214522542Y-145687752D02*
X214474923Y-145782990D01*
X214474923Y-145782990D02*
X214427304Y-145830609D01*
X214427304Y-145830609D02*
X214332066Y-145878228D01*
X214332066Y-145878228D02*
X213951114Y-145878228D01*
X215474923Y-146354419D02*
X214903495Y-146354419D01*
X215189209Y-146354419D02*
X215189209Y-145354419D01*
X215189209Y-145354419D02*
X215093971Y-145497276D01*
X215093971Y-145497276D02*
X214998733Y-145592514D01*
X214998733Y-145592514D02*
X214903495Y-145640133D01*
X216379685Y-145354419D02*
X215903495Y-145354419D01*
X215903495Y-145354419D02*
X215855876Y-145830609D01*
X215855876Y-145830609D02*
X215903495Y-145782990D01*
X215903495Y-145782990D02*
X215998733Y-145735371D01*
X215998733Y-145735371D02*
X216236828Y-145735371D01*
X216236828Y-145735371D02*
X216332066Y-145782990D01*
X216332066Y-145782990D02*
X216379685Y-145830609D01*
X216379685Y-145830609D02*
X216427304Y-145925847D01*
X216427304Y-145925847D02*
X216427304Y-146163942D01*
X216427304Y-146163942D02*
X216379685Y-146259180D01*
X216379685Y-146259180D02*
X216332066Y-146306800D01*
X216332066Y-146306800D02*
X216236828Y-146354419D01*
X216236828Y-146354419D02*
X215998733Y-146354419D01*
X215998733Y-146354419D02*
X215903495Y-146306800D01*
X215903495Y-146306800D02*
X215855876Y-146259180D01*
X254798466Y-156439419D02*
X254798466Y-157153704D01*
X254798466Y-157153704D02*
X254750847Y-157296561D01*
X254750847Y-157296561D02*
X254655609Y-157391800D01*
X254655609Y-157391800D02*
X254512752Y-157439419D01*
X254512752Y-157439419D02*
X254417514Y-157439419D01*
X255798466Y-157439419D02*
X255227038Y-157439419D01*
X255512752Y-157439419D02*
X255512752Y-156439419D01*
X255512752Y-156439419D02*
X255417514Y-156582276D01*
X255417514Y-156582276D02*
X255322276Y-156677514D01*
X255322276Y-156677514D02*
X255227038Y-156725133D01*
X205826295Y-143500219D02*
X206397723Y-143500219D01*
X206112009Y-144500219D02*
X206112009Y-143500219D01*
X206731057Y-144500219D02*
X206731057Y-143500219D01*
X206731057Y-143500219D02*
X207112009Y-143500219D01*
X207112009Y-143500219D02*
X207207247Y-143547838D01*
X207207247Y-143547838D02*
X207254866Y-143595457D01*
X207254866Y-143595457D02*
X207302485Y-143690695D01*
X207302485Y-143690695D02*
X207302485Y-143833552D01*
X207302485Y-143833552D02*
X207254866Y-143928790D01*
X207254866Y-143928790D02*
X207207247Y-143976409D01*
X207207247Y-143976409D02*
X207112009Y-144024028D01*
X207112009Y-144024028D02*
X206731057Y-144024028D01*
X208207247Y-143500219D02*
X207731057Y-143500219D01*
X207731057Y-143500219D02*
X207683438Y-143976409D01*
X207683438Y-143976409D02*
X207731057Y-143928790D01*
X207731057Y-143928790D02*
X207826295Y-143881171D01*
X207826295Y-143881171D02*
X208064390Y-143881171D01*
X208064390Y-143881171D02*
X208159628Y-143928790D01*
X208159628Y-143928790D02*
X208207247Y-143976409D01*
X208207247Y-143976409D02*
X208254866Y-144071647D01*
X208254866Y-144071647D02*
X208254866Y-144309742D01*
X208254866Y-144309742D02*
X208207247Y-144404980D01*
X208207247Y-144404980D02*
X208159628Y-144452600D01*
X208159628Y-144452600D02*
X208064390Y-144500219D01*
X208064390Y-144500219D02*
X207826295Y-144500219D01*
X207826295Y-144500219D02*
X207731057Y-144452600D01*
X207731057Y-144452600D02*
X207683438Y-144404980D01*
X217991161Y-132936857D02*
X217895923Y-132889238D01*
X217895923Y-132889238D02*
X217800685Y-132794000D01*
X217800685Y-132794000D02*
X217657828Y-132651142D01*
X217657828Y-132651142D02*
X217562590Y-132603523D01*
X217562590Y-132603523D02*
X217467352Y-132603523D01*
X217514971Y-132841619D02*
X217419733Y-132794000D01*
X217419733Y-132794000D02*
X217324495Y-132698761D01*
X217324495Y-132698761D02*
X217276876Y-132508285D01*
X217276876Y-132508285D02*
X217276876Y-132174952D01*
X217276876Y-132174952D02*
X217324495Y-131984476D01*
X217324495Y-131984476D02*
X217419733Y-131889238D01*
X217419733Y-131889238D02*
X217514971Y-131841619D01*
X217514971Y-131841619D02*
X217705447Y-131841619D01*
X217705447Y-131841619D02*
X217800685Y-131889238D01*
X217800685Y-131889238D02*
X217895923Y-131984476D01*
X217895923Y-131984476D02*
X217943542Y-132174952D01*
X217943542Y-132174952D02*
X217943542Y-132508285D01*
X217943542Y-132508285D02*
X217895923Y-132698761D01*
X217895923Y-132698761D02*
X217800685Y-132794000D01*
X217800685Y-132794000D02*
X217705447Y-132841619D01*
X217705447Y-132841619D02*
X217514971Y-132841619D01*
X218324495Y-131936857D02*
X218372114Y-131889238D01*
X218372114Y-131889238D02*
X218467352Y-131841619D01*
X218467352Y-131841619D02*
X218705447Y-131841619D01*
X218705447Y-131841619D02*
X218800685Y-131889238D01*
X218800685Y-131889238D02*
X218848304Y-131936857D01*
X218848304Y-131936857D02*
X218895923Y-132032095D01*
X218895923Y-132032095D02*
X218895923Y-132127333D01*
X218895923Y-132127333D02*
X218848304Y-132270190D01*
X218848304Y-132270190D02*
X218276876Y-132841619D01*
X218276876Y-132841619D02*
X218895923Y-132841619D01*
X239693942Y-149300819D02*
X239360609Y-148824628D01*
X239122514Y-149300819D02*
X239122514Y-148300819D01*
X239122514Y-148300819D02*
X239503466Y-148300819D01*
X239503466Y-148300819D02*
X239598704Y-148348438D01*
X239598704Y-148348438D02*
X239646323Y-148396057D01*
X239646323Y-148396057D02*
X239693942Y-148491295D01*
X239693942Y-148491295D02*
X239693942Y-148634152D01*
X239693942Y-148634152D02*
X239646323Y-148729390D01*
X239646323Y-148729390D02*
X239598704Y-148777009D01*
X239598704Y-148777009D02*
X239503466Y-148824628D01*
X239503466Y-148824628D02*
X239122514Y-148824628D01*
X240646323Y-149300819D02*
X240074895Y-149300819D01*
X240360609Y-149300819D02*
X240360609Y-148300819D01*
X240360609Y-148300819D02*
X240265371Y-148443676D01*
X240265371Y-148443676D02*
X240170133Y-148538914D01*
X240170133Y-148538914D02*
X240074895Y-148586533D01*
X241217752Y-148729390D02*
X241122514Y-148681771D01*
X241122514Y-148681771D02*
X241074895Y-148634152D01*
X241074895Y-148634152D02*
X241027276Y-148538914D01*
X241027276Y-148538914D02*
X241027276Y-148491295D01*
X241027276Y-148491295D02*
X241074895Y-148396057D01*
X241074895Y-148396057D02*
X241122514Y-148348438D01*
X241122514Y-148348438D02*
X241217752Y-148300819D01*
X241217752Y-148300819D02*
X241408228Y-148300819D01*
X241408228Y-148300819D02*
X241503466Y-148348438D01*
X241503466Y-148348438D02*
X241551085Y-148396057D01*
X241551085Y-148396057D02*
X241598704Y-148491295D01*
X241598704Y-148491295D02*
X241598704Y-148538914D01*
X241598704Y-148538914D02*
X241551085Y-148634152D01*
X241551085Y-148634152D02*
X241503466Y-148681771D01*
X241503466Y-148681771D02*
X241408228Y-148729390D01*
X241408228Y-148729390D02*
X241217752Y-148729390D01*
X241217752Y-148729390D02*
X241122514Y-148777009D01*
X241122514Y-148777009D02*
X241074895Y-148824628D01*
X241074895Y-148824628D02*
X241027276Y-148919866D01*
X241027276Y-148919866D02*
X241027276Y-149110342D01*
X241027276Y-149110342D02*
X241074895Y-149205580D01*
X241074895Y-149205580D02*
X241122514Y-149253200D01*
X241122514Y-149253200D02*
X241217752Y-149300819D01*
X241217752Y-149300819D02*
X241408228Y-149300819D01*
X241408228Y-149300819D02*
X241503466Y-149253200D01*
X241503466Y-149253200D02*
X241551085Y-149205580D01*
X241551085Y-149205580D02*
X241598704Y-149110342D01*
X241598704Y-149110342D02*
X241598704Y-148919866D01*
X241598704Y-148919866D02*
X241551085Y-148824628D01*
X241551085Y-148824628D02*
X241503466Y-148777009D01*
X241503466Y-148777009D02*
X241408228Y-148729390D01*
X206496142Y-142880980D02*
X206448523Y-142928600D01*
X206448523Y-142928600D02*
X206305666Y-142976219D01*
X206305666Y-142976219D02*
X206210428Y-142976219D01*
X206210428Y-142976219D02*
X206067571Y-142928600D01*
X206067571Y-142928600D02*
X205972333Y-142833361D01*
X205972333Y-142833361D02*
X205924714Y-142738123D01*
X205924714Y-142738123D02*
X205877095Y-142547647D01*
X205877095Y-142547647D02*
X205877095Y-142404790D01*
X205877095Y-142404790D02*
X205924714Y-142214314D01*
X205924714Y-142214314D02*
X205972333Y-142119076D01*
X205972333Y-142119076D02*
X206067571Y-142023838D01*
X206067571Y-142023838D02*
X206210428Y-141976219D01*
X206210428Y-141976219D02*
X206305666Y-141976219D01*
X206305666Y-141976219D02*
X206448523Y-142023838D01*
X206448523Y-142023838D02*
X206496142Y-142071457D01*
X207448523Y-142976219D02*
X206877095Y-142976219D01*
X207162809Y-142976219D02*
X207162809Y-141976219D01*
X207162809Y-141976219D02*
X207067571Y-142119076D01*
X207067571Y-142119076D02*
X206972333Y-142214314D01*
X206972333Y-142214314D02*
X206877095Y-142261933D01*
X207829476Y-142071457D02*
X207877095Y-142023838D01*
X207877095Y-142023838D02*
X207972333Y-141976219D01*
X207972333Y-141976219D02*
X208210428Y-141976219D01*
X208210428Y-141976219D02*
X208305666Y-142023838D01*
X208305666Y-142023838D02*
X208353285Y-142071457D01*
X208353285Y-142071457D02*
X208400904Y-142166695D01*
X208400904Y-142166695D02*
X208400904Y-142261933D01*
X208400904Y-142261933D02*
X208353285Y-142404790D01*
X208353285Y-142404790D02*
X207781857Y-142976219D01*
X207781857Y-142976219D02*
X208400904Y-142976219D01*
X226319980Y-149260257D02*
X226367600Y-149307876D01*
X226367600Y-149307876D02*
X226415219Y-149450733D01*
X226415219Y-149450733D02*
X226415219Y-149545971D01*
X226415219Y-149545971D02*
X226367600Y-149688828D01*
X226367600Y-149688828D02*
X226272361Y-149784066D01*
X226272361Y-149784066D02*
X226177123Y-149831685D01*
X226177123Y-149831685D02*
X225986647Y-149879304D01*
X225986647Y-149879304D02*
X225843790Y-149879304D01*
X225843790Y-149879304D02*
X225653314Y-149831685D01*
X225653314Y-149831685D02*
X225558076Y-149784066D01*
X225558076Y-149784066D02*
X225462838Y-149688828D01*
X225462838Y-149688828D02*
X225415219Y-149545971D01*
X225415219Y-149545971D02*
X225415219Y-149450733D01*
X225415219Y-149450733D02*
X225462838Y-149307876D01*
X225462838Y-149307876D02*
X225510457Y-149260257D01*
X226415219Y-148307876D02*
X226415219Y-148879304D01*
X226415219Y-148593590D02*
X225415219Y-148593590D01*
X225415219Y-148593590D02*
X225558076Y-148688828D01*
X225558076Y-148688828D02*
X225653314Y-148784066D01*
X225653314Y-148784066D02*
X225700933Y-148879304D01*
X225748552Y-147450733D02*
X226415219Y-147450733D01*
X225367600Y-147688828D02*
X226081885Y-147926923D01*
X226081885Y-147926923D02*
X226081885Y-147307876D01*
X227940819Y-155057866D02*
X227464628Y-155391199D01*
X227940819Y-155629294D02*
X226940819Y-155629294D01*
X226940819Y-155629294D02*
X226940819Y-155248342D01*
X226940819Y-155248342D02*
X226988438Y-155153104D01*
X226988438Y-155153104D02*
X227036057Y-155105485D01*
X227036057Y-155105485D02*
X227131295Y-155057866D01*
X227131295Y-155057866D02*
X227274152Y-155057866D01*
X227274152Y-155057866D02*
X227369390Y-155105485D01*
X227369390Y-155105485D02*
X227417009Y-155153104D01*
X227417009Y-155153104D02*
X227464628Y-155248342D01*
X227464628Y-155248342D02*
X227464628Y-155629294D01*
X227940819Y-154105485D02*
X227940819Y-154676913D01*
X227940819Y-154391199D02*
X226940819Y-154391199D01*
X226940819Y-154391199D02*
X227083676Y-154486437D01*
X227083676Y-154486437D02*
X227178914Y-154581675D01*
X227178914Y-154581675D02*
X227226533Y-154676913D01*
X224165095Y-159146619D02*
X224736523Y-159146619D01*
X224450809Y-160146619D02*
X224450809Y-159146619D01*
X225069857Y-160146619D02*
X225069857Y-159146619D01*
X225069857Y-159146619D02*
X225450809Y-159146619D01*
X225450809Y-159146619D02*
X225546047Y-159194238D01*
X225546047Y-159194238D02*
X225593666Y-159241857D01*
X225593666Y-159241857D02*
X225641285Y-159337095D01*
X225641285Y-159337095D02*
X225641285Y-159479952D01*
X225641285Y-159479952D02*
X225593666Y-159575190D01*
X225593666Y-159575190D02*
X225546047Y-159622809D01*
X225546047Y-159622809D02*
X225450809Y-159670428D01*
X225450809Y-159670428D02*
X225069857Y-159670428D01*
X226212714Y-159575190D02*
X226117476Y-159527571D01*
X226117476Y-159527571D02*
X226069857Y-159479952D01*
X226069857Y-159479952D02*
X226022238Y-159384714D01*
X226022238Y-159384714D02*
X226022238Y-159337095D01*
X226022238Y-159337095D02*
X226069857Y-159241857D01*
X226069857Y-159241857D02*
X226117476Y-159194238D01*
X226117476Y-159194238D02*
X226212714Y-159146619D01*
X226212714Y-159146619D02*
X226403190Y-159146619D01*
X226403190Y-159146619D02*
X226498428Y-159194238D01*
X226498428Y-159194238D02*
X226546047Y-159241857D01*
X226546047Y-159241857D02*
X226593666Y-159337095D01*
X226593666Y-159337095D02*
X226593666Y-159384714D01*
X226593666Y-159384714D02*
X226546047Y-159479952D01*
X226546047Y-159479952D02*
X226498428Y-159527571D01*
X226498428Y-159527571D02*
X226403190Y-159575190D01*
X226403190Y-159575190D02*
X226212714Y-159575190D01*
X226212714Y-159575190D02*
X226117476Y-159622809D01*
X226117476Y-159622809D02*
X226069857Y-159670428D01*
X226069857Y-159670428D02*
X226022238Y-159765666D01*
X226022238Y-159765666D02*
X226022238Y-159956142D01*
X226022238Y-159956142D02*
X226069857Y-160051380D01*
X226069857Y-160051380D02*
X226117476Y-160099000D01*
X226117476Y-160099000D02*
X226212714Y-160146619D01*
X226212714Y-160146619D02*
X226403190Y-160146619D01*
X226403190Y-160146619D02*
X226498428Y-160099000D01*
X226498428Y-160099000D02*
X226546047Y-160051380D01*
X226546047Y-160051380D02*
X226593666Y-159956142D01*
X226593666Y-159956142D02*
X226593666Y-159765666D01*
X226593666Y-159765666D02*
X226546047Y-159670428D01*
X226546047Y-159670428D02*
X226498428Y-159622809D01*
X226498428Y-159622809D02*
X226403190Y-159575190D01*
X217991380Y-130651266D02*
X218039000Y-130698885D01*
X218039000Y-130698885D02*
X218086619Y-130841742D01*
X218086619Y-130841742D02*
X218086619Y-130936980D01*
X218086619Y-130936980D02*
X218039000Y-131079837D01*
X218039000Y-131079837D02*
X217943761Y-131175075D01*
X217943761Y-131175075D02*
X217848523Y-131222694D01*
X217848523Y-131222694D02*
X217658047Y-131270313D01*
X217658047Y-131270313D02*
X217515190Y-131270313D01*
X217515190Y-131270313D02*
X217324714Y-131222694D01*
X217324714Y-131222694D02*
X217229476Y-131175075D01*
X217229476Y-131175075D02*
X217134238Y-131079837D01*
X217134238Y-131079837D02*
X217086619Y-130936980D01*
X217086619Y-130936980D02*
X217086619Y-130841742D01*
X217086619Y-130841742D02*
X217134238Y-130698885D01*
X217134238Y-130698885D02*
X217181857Y-130651266D01*
X217419952Y-129794123D02*
X218086619Y-129794123D01*
X217039000Y-130032218D02*
X217753285Y-130270313D01*
X217753285Y-130270313D02*
X217753285Y-129651266D01*
X199908095Y-144592219D02*
X200479523Y-144592219D01*
X200193809Y-145592219D02*
X200193809Y-144592219D01*
X200812857Y-145592219D02*
X200812857Y-144592219D01*
X200812857Y-144592219D02*
X201193809Y-144592219D01*
X201193809Y-144592219D02*
X201289047Y-144639838D01*
X201289047Y-144639838D02*
X201336666Y-144687457D01*
X201336666Y-144687457D02*
X201384285Y-144782695D01*
X201384285Y-144782695D02*
X201384285Y-144925552D01*
X201384285Y-144925552D02*
X201336666Y-145020790D01*
X201336666Y-145020790D02*
X201289047Y-145068409D01*
X201289047Y-145068409D02*
X201193809Y-145116028D01*
X201193809Y-145116028D02*
X200812857Y-145116028D01*
X202336666Y-145592219D02*
X201765238Y-145592219D01*
X202050952Y-145592219D02*
X202050952Y-144592219D01*
X202050952Y-144592219D02*
X201955714Y-144735076D01*
X201955714Y-144735076D02*
X201860476Y-144830314D01*
X201860476Y-144830314D02*
X201765238Y-144877933D01*
X234430980Y-141595866D02*
X234478600Y-141643485D01*
X234478600Y-141643485D02*
X234526219Y-141786342D01*
X234526219Y-141786342D02*
X234526219Y-141881580D01*
X234526219Y-141881580D02*
X234478600Y-142024437D01*
X234478600Y-142024437D02*
X234383361Y-142119675D01*
X234383361Y-142119675D02*
X234288123Y-142167294D01*
X234288123Y-142167294D02*
X234097647Y-142214913D01*
X234097647Y-142214913D02*
X233954790Y-142214913D01*
X233954790Y-142214913D02*
X233764314Y-142167294D01*
X233764314Y-142167294D02*
X233669076Y-142119675D01*
X233669076Y-142119675D02*
X233573838Y-142024437D01*
X233573838Y-142024437D02*
X233526219Y-141881580D01*
X233526219Y-141881580D02*
X233526219Y-141786342D01*
X233526219Y-141786342D02*
X233573838Y-141643485D01*
X233573838Y-141643485D02*
X233621457Y-141595866D01*
X233526219Y-140738723D02*
X233526219Y-140929199D01*
X233526219Y-140929199D02*
X233573838Y-141024437D01*
X233573838Y-141024437D02*
X233621457Y-141072056D01*
X233621457Y-141072056D02*
X233764314Y-141167294D01*
X233764314Y-141167294D02*
X233954790Y-141214913D01*
X233954790Y-141214913D02*
X234335742Y-141214913D01*
X234335742Y-141214913D02*
X234430980Y-141167294D01*
X234430980Y-141167294D02*
X234478600Y-141119675D01*
X234478600Y-141119675D02*
X234526219Y-141024437D01*
X234526219Y-141024437D02*
X234526219Y-140833961D01*
X234526219Y-140833961D02*
X234478600Y-140738723D01*
X234478600Y-140738723D02*
X234430980Y-140691104D01*
X234430980Y-140691104D02*
X234335742Y-140643485D01*
X234335742Y-140643485D02*
X234097647Y-140643485D01*
X234097647Y-140643485D02*
X234002409Y-140691104D01*
X234002409Y-140691104D02*
X233954790Y-140738723D01*
X233954790Y-140738723D02*
X233907171Y-140833961D01*
X233907171Y-140833961D02*
X233907171Y-141024437D01*
X233907171Y-141024437D02*
X233954790Y-141119675D01*
X233954790Y-141119675D02*
X234002409Y-141167294D01*
X234002409Y-141167294D02*
X234097647Y-141214913D01*
X230557895Y-141366619D02*
X230557895Y-142176142D01*
X230557895Y-142176142D02*
X230605514Y-142271380D01*
X230605514Y-142271380D02*
X230653133Y-142319000D01*
X230653133Y-142319000D02*
X230748371Y-142366619D01*
X230748371Y-142366619D02*
X230938847Y-142366619D01*
X230938847Y-142366619D02*
X231034085Y-142319000D01*
X231034085Y-142319000D02*
X231081704Y-142271380D01*
X231081704Y-142271380D02*
X231129323Y-142176142D01*
X231129323Y-142176142D02*
X231129323Y-141366619D01*
X232129323Y-142366619D02*
X231557895Y-142366619D01*
X231843609Y-142366619D02*
X231843609Y-141366619D01*
X231843609Y-141366619D02*
X231748371Y-141509476D01*
X231748371Y-141509476D02*
X231653133Y-141604714D01*
X231653133Y-141604714D02*
X231557895Y-141652333D01*
X209988942Y-145844180D02*
X209941323Y-145891800D01*
X209941323Y-145891800D02*
X209798466Y-145939419D01*
X209798466Y-145939419D02*
X209703228Y-145939419D01*
X209703228Y-145939419D02*
X209560371Y-145891800D01*
X209560371Y-145891800D02*
X209465133Y-145796561D01*
X209465133Y-145796561D02*
X209417514Y-145701323D01*
X209417514Y-145701323D02*
X209369895Y-145510847D01*
X209369895Y-145510847D02*
X209369895Y-145367990D01*
X209369895Y-145367990D02*
X209417514Y-145177514D01*
X209417514Y-145177514D02*
X209465133Y-145082276D01*
X209465133Y-145082276D02*
X209560371Y-144987038D01*
X209560371Y-144987038D02*
X209703228Y-144939419D01*
X209703228Y-144939419D02*
X209798466Y-144939419D01*
X209798466Y-144939419D02*
X209941323Y-144987038D01*
X209941323Y-144987038D02*
X209988942Y-145034657D01*
X210941323Y-145939419D02*
X210369895Y-145939419D01*
X210655609Y-145939419D02*
X210655609Y-144939419D01*
X210655609Y-144939419D02*
X210560371Y-145082276D01*
X210560371Y-145082276D02*
X210465133Y-145177514D01*
X210465133Y-145177514D02*
X210369895Y-145225133D01*
X211274657Y-144939419D02*
X211893704Y-144939419D01*
X211893704Y-144939419D02*
X211560371Y-145320371D01*
X211560371Y-145320371D02*
X211703228Y-145320371D01*
X211703228Y-145320371D02*
X211798466Y-145367990D01*
X211798466Y-145367990D02*
X211846085Y-145415609D01*
X211846085Y-145415609D02*
X211893704Y-145510847D01*
X211893704Y-145510847D02*
X211893704Y-145748942D01*
X211893704Y-145748942D02*
X211846085Y-145844180D01*
X211846085Y-145844180D02*
X211798466Y-145891800D01*
X211798466Y-145891800D02*
X211703228Y-145939419D01*
X211703228Y-145939419D02*
X211417514Y-145939419D01*
X211417514Y-145939419D02*
X211322276Y-145891800D01*
X211322276Y-145891800D02*
X211274657Y-145844180D01*
X212715133Y-150653380D02*
X212667514Y-150701000D01*
X212667514Y-150701000D02*
X212524657Y-150748619D01*
X212524657Y-150748619D02*
X212429419Y-150748619D01*
X212429419Y-150748619D02*
X212286562Y-150701000D01*
X212286562Y-150701000D02*
X212191324Y-150605761D01*
X212191324Y-150605761D02*
X212143705Y-150510523D01*
X212143705Y-150510523D02*
X212096086Y-150320047D01*
X212096086Y-150320047D02*
X212096086Y-150177190D01*
X212096086Y-150177190D02*
X212143705Y-149986714D01*
X212143705Y-149986714D02*
X212191324Y-149891476D01*
X212191324Y-149891476D02*
X212286562Y-149796238D01*
X212286562Y-149796238D02*
X212429419Y-149748619D01*
X212429419Y-149748619D02*
X212524657Y-149748619D01*
X212524657Y-149748619D02*
X212667514Y-149796238D01*
X212667514Y-149796238D02*
X212715133Y-149843857D01*
X213619895Y-149748619D02*
X213143705Y-149748619D01*
X213143705Y-149748619D02*
X213096086Y-150224809D01*
X213096086Y-150224809D02*
X213143705Y-150177190D01*
X213143705Y-150177190D02*
X213238943Y-150129571D01*
X213238943Y-150129571D02*
X213477038Y-150129571D01*
X213477038Y-150129571D02*
X213572276Y-150177190D01*
X213572276Y-150177190D02*
X213619895Y-150224809D01*
X213619895Y-150224809D02*
X213667514Y-150320047D01*
X213667514Y-150320047D02*
X213667514Y-150558142D01*
X213667514Y-150558142D02*
X213619895Y-150653380D01*
X213619895Y-150653380D02*
X213572276Y-150701000D01*
X213572276Y-150701000D02*
X213477038Y-150748619D01*
X213477038Y-150748619D02*
X213238943Y-150748619D01*
X213238943Y-150748619D02*
X213143705Y-150701000D01*
X213143705Y-150701000D02*
X213096086Y-150653380D01*
X210836619Y-149401266D02*
X210360428Y-149734599D01*
X210836619Y-149972694D02*
X209836619Y-149972694D01*
X209836619Y-149972694D02*
X209836619Y-149591742D01*
X209836619Y-149591742D02*
X209884238Y-149496504D01*
X209884238Y-149496504D02*
X209931857Y-149448885D01*
X209931857Y-149448885D02*
X210027095Y-149401266D01*
X210027095Y-149401266D02*
X210169952Y-149401266D01*
X210169952Y-149401266D02*
X210265190Y-149448885D01*
X210265190Y-149448885D02*
X210312809Y-149496504D01*
X210312809Y-149496504D02*
X210360428Y-149591742D01*
X210360428Y-149591742D02*
X210360428Y-149972694D01*
X210265190Y-148829837D02*
X210217571Y-148925075D01*
X210217571Y-148925075D02*
X210169952Y-148972694D01*
X210169952Y-148972694D02*
X210074714Y-149020313D01*
X210074714Y-149020313D02*
X210027095Y-149020313D01*
X210027095Y-149020313D02*
X209931857Y-148972694D01*
X209931857Y-148972694D02*
X209884238Y-148925075D01*
X209884238Y-148925075D02*
X209836619Y-148829837D01*
X209836619Y-148829837D02*
X209836619Y-148639361D01*
X209836619Y-148639361D02*
X209884238Y-148544123D01*
X209884238Y-148544123D02*
X209931857Y-148496504D01*
X209931857Y-148496504D02*
X210027095Y-148448885D01*
X210027095Y-148448885D02*
X210074714Y-148448885D01*
X210074714Y-148448885D02*
X210169952Y-148496504D01*
X210169952Y-148496504D02*
X210217571Y-148544123D01*
X210217571Y-148544123D02*
X210265190Y-148639361D01*
X210265190Y-148639361D02*
X210265190Y-148829837D01*
X210265190Y-148829837D02*
X210312809Y-148925075D01*
X210312809Y-148925075D02*
X210360428Y-148972694D01*
X210360428Y-148972694D02*
X210455666Y-149020313D01*
X210455666Y-149020313D02*
X210646142Y-149020313D01*
X210646142Y-149020313D02*
X210741380Y-148972694D01*
X210741380Y-148972694D02*
X210789000Y-148925075D01*
X210789000Y-148925075D02*
X210836619Y-148829837D01*
X210836619Y-148829837D02*
X210836619Y-148639361D01*
X210836619Y-148639361D02*
X210789000Y-148544123D01*
X210789000Y-148544123D02*
X210741380Y-148496504D01*
X210741380Y-148496504D02*
X210646142Y-148448885D01*
X210646142Y-148448885D02*
X210455666Y-148448885D01*
X210455666Y-148448885D02*
X210360428Y-148496504D01*
X210360428Y-148496504D02*
X210312809Y-148544123D01*
X210312809Y-148544123D02*
X210265190Y-148639361D01*
X228196942Y-134224619D02*
X227863609Y-133748428D01*
X227625514Y-134224619D02*
X227625514Y-133224619D01*
X227625514Y-133224619D02*
X228006466Y-133224619D01*
X228006466Y-133224619D02*
X228101704Y-133272238D01*
X228101704Y-133272238D02*
X228149323Y-133319857D01*
X228149323Y-133319857D02*
X228196942Y-133415095D01*
X228196942Y-133415095D02*
X228196942Y-133557952D01*
X228196942Y-133557952D02*
X228149323Y-133653190D01*
X228149323Y-133653190D02*
X228101704Y-133700809D01*
X228101704Y-133700809D02*
X228006466Y-133748428D01*
X228006466Y-133748428D02*
X227625514Y-133748428D01*
X229149323Y-134224619D02*
X228577895Y-134224619D01*
X228863609Y-134224619D02*
X228863609Y-133224619D01*
X228863609Y-133224619D02*
X228768371Y-133367476D01*
X228768371Y-133367476D02*
X228673133Y-133462714D01*
X228673133Y-133462714D02*
X228577895Y-133510333D01*
X229482657Y-133224619D02*
X230149323Y-133224619D01*
X230149323Y-133224619D02*
X229720752Y-134224619D01*
X193086619Y-140567933D02*
X193800904Y-140567933D01*
X193800904Y-140567933D02*
X193943761Y-140615552D01*
X193943761Y-140615552D02*
X194039000Y-140710790D01*
X194039000Y-140710790D02*
X194086619Y-140853647D01*
X194086619Y-140853647D02*
X194086619Y-140948885D01*
X193181857Y-140139361D02*
X193134238Y-140091742D01*
X193134238Y-140091742D02*
X193086619Y-139996504D01*
X193086619Y-139996504D02*
X193086619Y-139758409D01*
X193086619Y-139758409D02*
X193134238Y-139663171D01*
X193134238Y-139663171D02*
X193181857Y-139615552D01*
X193181857Y-139615552D02*
X193277095Y-139567933D01*
X193277095Y-139567933D02*
X193372333Y-139567933D01*
X193372333Y-139567933D02*
X193515190Y-139615552D01*
X193515190Y-139615552D02*
X194086619Y-140186980D01*
X194086619Y-140186980D02*
X194086619Y-139567933D01*
X235804705Y-151475819D02*
X236376133Y-151475819D01*
X236090419Y-152475819D02*
X236090419Y-151475819D01*
X236709467Y-152475819D02*
X236709467Y-151475819D01*
X236709467Y-151475819D02*
X237090419Y-151475819D01*
X237090419Y-151475819D02*
X237185657Y-151523438D01*
X237185657Y-151523438D02*
X237233276Y-151571057D01*
X237233276Y-151571057D02*
X237280895Y-151666295D01*
X237280895Y-151666295D02*
X237280895Y-151809152D01*
X237280895Y-151809152D02*
X237233276Y-151904390D01*
X237233276Y-151904390D02*
X237185657Y-151952009D01*
X237185657Y-151952009D02*
X237090419Y-151999628D01*
X237090419Y-151999628D02*
X236709467Y-151999628D01*
X238233276Y-152475819D02*
X237661848Y-152475819D01*
X237947562Y-152475819D02*
X237947562Y-151475819D01*
X237947562Y-151475819D02*
X237852324Y-151618676D01*
X237852324Y-151618676D02*
X237757086Y-151713914D01*
X237757086Y-151713914D02*
X237661848Y-151761533D01*
X238852324Y-151475819D02*
X238947562Y-151475819D01*
X238947562Y-151475819D02*
X239042800Y-151523438D01*
X239042800Y-151523438D02*
X239090419Y-151571057D01*
X239090419Y-151571057D02*
X239138038Y-151666295D01*
X239138038Y-151666295D02*
X239185657Y-151856771D01*
X239185657Y-151856771D02*
X239185657Y-152094866D01*
X239185657Y-152094866D02*
X239138038Y-152285342D01*
X239138038Y-152285342D02*
X239090419Y-152380580D01*
X239090419Y-152380580D02*
X239042800Y-152428200D01*
X239042800Y-152428200D02*
X238947562Y-152475819D01*
X238947562Y-152475819D02*
X238852324Y-152475819D01*
X238852324Y-152475819D02*
X238757086Y-152428200D01*
X238757086Y-152428200D02*
X238709467Y-152380580D01*
X238709467Y-152380580D02*
X238661848Y-152285342D01*
X238661848Y-152285342D02*
X238614229Y-152094866D01*
X238614229Y-152094866D02*
X238614229Y-151856771D01*
X238614229Y-151856771D02*
X238661848Y-151666295D01*
X238661848Y-151666295D02*
X238709467Y-151571057D01*
X238709467Y-151571057D02*
X238757086Y-151523438D01*
X238757086Y-151523438D02*
X238852324Y-151475819D01*
X200543467Y-134251800D02*
X200686324Y-134299419D01*
X200686324Y-134299419D02*
X200924419Y-134299419D01*
X200924419Y-134299419D02*
X201019657Y-134251800D01*
X201019657Y-134251800D02*
X201067276Y-134204180D01*
X201067276Y-134204180D02*
X201114895Y-134108942D01*
X201114895Y-134108942D02*
X201114895Y-134013704D01*
X201114895Y-134013704D02*
X201067276Y-133918466D01*
X201067276Y-133918466D02*
X201019657Y-133870847D01*
X201019657Y-133870847D02*
X200924419Y-133823228D01*
X200924419Y-133823228D02*
X200733943Y-133775609D01*
X200733943Y-133775609D02*
X200638705Y-133727990D01*
X200638705Y-133727990D02*
X200591086Y-133680371D01*
X200591086Y-133680371D02*
X200543467Y-133585133D01*
X200543467Y-133585133D02*
X200543467Y-133489895D01*
X200543467Y-133489895D02*
X200591086Y-133394657D01*
X200591086Y-133394657D02*
X200638705Y-133347038D01*
X200638705Y-133347038D02*
X200733943Y-133299419D01*
X200733943Y-133299419D02*
X200972038Y-133299419D01*
X200972038Y-133299419D02*
X201114895Y-133347038D01*
X201448229Y-133299419D02*
X201686324Y-134299419D01*
X201686324Y-134299419D02*
X201876800Y-133585133D01*
X201876800Y-133585133D02*
X202067276Y-134299419D01*
X202067276Y-134299419D02*
X202305372Y-133299419D01*
X202638705Y-133394657D02*
X202686324Y-133347038D01*
X202686324Y-133347038D02*
X202781562Y-133299419D01*
X202781562Y-133299419D02*
X203019657Y-133299419D01*
X203019657Y-133299419D02*
X203114895Y-133347038D01*
X203114895Y-133347038D02*
X203162514Y-133394657D01*
X203162514Y-133394657D02*
X203210133Y-133489895D01*
X203210133Y-133489895D02*
X203210133Y-133585133D01*
X203210133Y-133585133D02*
X203162514Y-133727990D01*
X203162514Y-133727990D02*
X202591086Y-134299419D01*
X202591086Y-134299419D02*
X203210133Y-134299419D01*
X224987342Y-138455019D02*
X224654009Y-137978828D01*
X224415914Y-138455019D02*
X224415914Y-137455019D01*
X224415914Y-137455019D02*
X224796866Y-137455019D01*
X224796866Y-137455019D02*
X224892104Y-137502638D01*
X224892104Y-137502638D02*
X224939723Y-137550257D01*
X224939723Y-137550257D02*
X224987342Y-137645495D01*
X224987342Y-137645495D02*
X224987342Y-137788352D01*
X224987342Y-137788352D02*
X224939723Y-137883590D01*
X224939723Y-137883590D02*
X224892104Y-137931209D01*
X224892104Y-137931209D02*
X224796866Y-137978828D01*
X224796866Y-137978828D02*
X224415914Y-137978828D01*
X225368295Y-137550257D02*
X225415914Y-137502638D01*
X225415914Y-137502638D02*
X225511152Y-137455019D01*
X225511152Y-137455019D02*
X225749247Y-137455019D01*
X225749247Y-137455019D02*
X225844485Y-137502638D01*
X225844485Y-137502638D02*
X225892104Y-137550257D01*
X225892104Y-137550257D02*
X225939723Y-137645495D01*
X225939723Y-137645495D02*
X225939723Y-137740733D01*
X225939723Y-137740733D02*
X225892104Y-137883590D01*
X225892104Y-137883590D02*
X225320676Y-138455019D01*
X225320676Y-138455019D02*
X225939723Y-138455019D01*
X226320676Y-137550257D02*
X226368295Y-137502638D01*
X226368295Y-137502638D02*
X226463533Y-137455019D01*
X226463533Y-137455019D02*
X226701628Y-137455019D01*
X226701628Y-137455019D02*
X226796866Y-137502638D01*
X226796866Y-137502638D02*
X226844485Y-137550257D01*
X226844485Y-137550257D02*
X226892104Y-137645495D01*
X226892104Y-137645495D02*
X226892104Y-137740733D01*
X226892104Y-137740733D02*
X226844485Y-137883590D01*
X226844485Y-137883590D02*
X226273057Y-138455019D01*
X226273057Y-138455019D02*
X226892104Y-138455019D01*
X205639819Y-147462966D02*
X205163628Y-147796299D01*
X205639819Y-148034394D02*
X204639819Y-148034394D01*
X204639819Y-148034394D02*
X204639819Y-147653442D01*
X204639819Y-147653442D02*
X204687438Y-147558204D01*
X204687438Y-147558204D02*
X204735057Y-147510585D01*
X204735057Y-147510585D02*
X204830295Y-147462966D01*
X204830295Y-147462966D02*
X204973152Y-147462966D01*
X204973152Y-147462966D02*
X205068390Y-147510585D01*
X205068390Y-147510585D02*
X205116009Y-147558204D01*
X205116009Y-147558204D02*
X205163628Y-147653442D01*
X205163628Y-147653442D02*
X205163628Y-148034394D01*
X205639819Y-146986775D02*
X205639819Y-146796299D01*
X205639819Y-146796299D02*
X205592200Y-146701061D01*
X205592200Y-146701061D02*
X205544580Y-146653442D01*
X205544580Y-146653442D02*
X205401723Y-146558204D01*
X205401723Y-146558204D02*
X205211247Y-146510585D01*
X205211247Y-146510585D02*
X204830295Y-146510585D01*
X204830295Y-146510585D02*
X204735057Y-146558204D01*
X204735057Y-146558204D02*
X204687438Y-146605823D01*
X204687438Y-146605823D02*
X204639819Y-146701061D01*
X204639819Y-146701061D02*
X204639819Y-146891537D01*
X204639819Y-146891537D02*
X204687438Y-146986775D01*
X204687438Y-146986775D02*
X204735057Y-147034394D01*
X204735057Y-147034394D02*
X204830295Y-147082013D01*
X204830295Y-147082013D02*
X205068390Y-147082013D01*
X205068390Y-147082013D02*
X205163628Y-147034394D01*
X205163628Y-147034394D02*
X205211247Y-146986775D01*
X205211247Y-146986775D02*
X205258866Y-146891537D01*
X205258866Y-146891537D02*
X205258866Y-146701061D01*
X205258866Y-146701061D02*
X205211247Y-146605823D01*
X205211247Y-146605823D02*
X205163628Y-146558204D01*
X205163628Y-146558204D02*
X205068390Y-146510585D01*
X219715133Y-152094180D02*
X219667514Y-152141800D01*
X219667514Y-152141800D02*
X219524657Y-152189419D01*
X219524657Y-152189419D02*
X219429419Y-152189419D01*
X219429419Y-152189419D02*
X219286562Y-152141800D01*
X219286562Y-152141800D02*
X219191324Y-152046561D01*
X219191324Y-152046561D02*
X219143705Y-151951323D01*
X219143705Y-151951323D02*
X219096086Y-151760847D01*
X219096086Y-151760847D02*
X219096086Y-151617990D01*
X219096086Y-151617990D02*
X219143705Y-151427514D01*
X219143705Y-151427514D02*
X219191324Y-151332276D01*
X219191324Y-151332276D02*
X219286562Y-151237038D01*
X219286562Y-151237038D02*
X219429419Y-151189419D01*
X219429419Y-151189419D02*
X219524657Y-151189419D01*
X219524657Y-151189419D02*
X219667514Y-151237038D01*
X219667514Y-151237038D02*
X219715133Y-151284657D01*
X220048467Y-151189419D02*
X220715133Y-151189419D01*
X220715133Y-151189419D02*
X220286562Y-152189419D01*
X204302295Y-134178219D02*
X204873723Y-134178219D01*
X204588009Y-135178219D02*
X204588009Y-134178219D01*
X205207057Y-135178219D02*
X205207057Y-134178219D01*
X205207057Y-134178219D02*
X205588009Y-134178219D01*
X205588009Y-134178219D02*
X205683247Y-134225838D01*
X205683247Y-134225838D02*
X205730866Y-134273457D01*
X205730866Y-134273457D02*
X205778485Y-134368695D01*
X205778485Y-134368695D02*
X205778485Y-134511552D01*
X205778485Y-134511552D02*
X205730866Y-134606790D01*
X205730866Y-134606790D02*
X205683247Y-134654409D01*
X205683247Y-134654409D02*
X205588009Y-134702028D01*
X205588009Y-134702028D02*
X205207057Y-134702028D01*
X206111819Y-134178219D02*
X206730866Y-134178219D01*
X206730866Y-134178219D02*
X206397533Y-134559171D01*
X206397533Y-134559171D02*
X206540390Y-134559171D01*
X206540390Y-134559171D02*
X206635628Y-134606790D01*
X206635628Y-134606790D02*
X206683247Y-134654409D01*
X206683247Y-134654409D02*
X206730866Y-134749647D01*
X206730866Y-134749647D02*
X206730866Y-134987742D01*
X206730866Y-134987742D02*
X206683247Y-135082980D01*
X206683247Y-135082980D02*
X206635628Y-135130600D01*
X206635628Y-135130600D02*
X206540390Y-135178219D01*
X206540390Y-135178219D02*
X206254676Y-135178219D01*
X206254676Y-135178219D02*
X206159438Y-135130600D01*
X206159438Y-135130600D02*
X206111819Y-135082980D01*
X235798295Y-139055019D02*
X236369723Y-139055019D01*
X236084009Y-140055019D02*
X236084009Y-139055019D01*
X236703057Y-140055019D02*
X236703057Y-139055019D01*
X236703057Y-139055019D02*
X237084009Y-139055019D01*
X237084009Y-139055019D02*
X237179247Y-139102638D01*
X237179247Y-139102638D02*
X237226866Y-139150257D01*
X237226866Y-139150257D02*
X237274485Y-139245495D01*
X237274485Y-139245495D02*
X237274485Y-139388352D01*
X237274485Y-139388352D02*
X237226866Y-139483590D01*
X237226866Y-139483590D02*
X237179247Y-139531209D01*
X237179247Y-139531209D02*
X237084009Y-139578828D01*
X237084009Y-139578828D02*
X236703057Y-139578828D01*
X237607819Y-139055019D02*
X238274485Y-139055019D01*
X238274485Y-139055019D02*
X237845914Y-140055019D01*
X214869895Y-148689419D02*
X214869895Y-149498942D01*
X214869895Y-149498942D02*
X214917514Y-149594180D01*
X214917514Y-149594180D02*
X214965133Y-149641800D01*
X214965133Y-149641800D02*
X215060371Y-149689419D01*
X215060371Y-149689419D02*
X215250847Y-149689419D01*
X215250847Y-149689419D02*
X215346085Y-149641800D01*
X215346085Y-149641800D02*
X215393704Y-149594180D01*
X215393704Y-149594180D02*
X215441323Y-149498942D01*
X215441323Y-149498942D02*
X215441323Y-148689419D01*
X215822276Y-148689419D02*
X216441323Y-148689419D01*
X216441323Y-148689419D02*
X216107990Y-149070371D01*
X216107990Y-149070371D02*
X216250847Y-149070371D01*
X216250847Y-149070371D02*
X216346085Y-149117990D01*
X216346085Y-149117990D02*
X216393704Y-149165609D01*
X216393704Y-149165609D02*
X216441323Y-149260847D01*
X216441323Y-149260847D02*
X216441323Y-149498942D01*
X216441323Y-149498942D02*
X216393704Y-149594180D01*
X216393704Y-149594180D02*
X216346085Y-149641800D01*
X216346085Y-149641800D02*
X216250847Y-149689419D01*
X216250847Y-149689419D02*
X215965133Y-149689419D01*
X215965133Y-149689419D02*
X215869895Y-149641800D01*
X215869895Y-149641800D02*
X215822276Y-149594180D01*
D13*
%TO.C,Q4*%
X231839800Y-135879800D02*
X231189800Y-135879800D01*
X231839800Y-135879800D02*
X232489800Y-135879800D01*
X231839800Y-138999800D02*
X231189800Y-138999800D01*
X231839800Y-138999800D02*
X232489800Y-138999800D01*
X230677300Y-135929800D02*
X230437300Y-135599800D01*
X230917300Y-135599800D01*
X230677300Y-135929800D01*
G36*
X230677300Y-135929800D02*
G01*
X230437300Y-135599800D01*
X230917300Y-135599800D01*
X230677300Y-135929800D01*
G37*
%TO.C,Q3*%
X223639400Y-151859200D02*
X222989400Y-151859200D01*
X223639400Y-151859200D02*
X224289400Y-151859200D01*
X223639400Y-154979200D02*
X222989400Y-154979200D01*
X223639400Y-154979200D02*
X224289400Y-154979200D01*
X225041900Y-155259200D02*
X224561900Y-155259200D01*
X224801900Y-154929200D01*
X225041900Y-155259200D01*
G36*
X225041900Y-155259200D02*
G01*
X224561900Y-155259200D01*
X224801900Y-154929200D01*
X225041900Y-155259200D01*
G37*
%TO.C,C11*%
X226906000Y-145356764D02*
X226906000Y-145572436D01*
X227626000Y-145356764D02*
X227626000Y-145572436D01*
%TO.C,SW1*%
X210146000Y-130609600D02*
X210146000Y-130709600D01*
X210146000Y-132409600D02*
X214546000Y-132409600D01*
X214546000Y-128909600D02*
X210146000Y-128909600D01*
X214546000Y-130609600D02*
X214546000Y-130709600D01*
%TO.C,R23*%
X222722441Y-146432600D02*
X222415159Y-146432600D01*
X222722441Y-147192600D02*
X222415159Y-147192600D01*
%TO.C,C10*%
X209609036Y-141145400D02*
X209393364Y-141145400D01*
X209609036Y-141865400D02*
X209393364Y-141865400D01*
%TO.C,R12*%
X190424559Y-145646600D02*
X190731841Y-145646600D01*
X190424559Y-146406600D02*
X190731841Y-146406600D01*
%TO.C,R3*%
X224488441Y-144732200D02*
X224181159Y-144732200D01*
X224488441Y-145492200D02*
X224181159Y-145492200D01*
%TO.C,R21*%
X226436159Y-135559800D02*
X226743441Y-135559800D01*
X226436159Y-136319800D02*
X226743441Y-136319800D01*
%TO.C,CR1*%
X193635200Y-146379800D02*
X193635200Y-152189800D01*
X197935200Y-146379800D02*
X193635200Y-146379800D01*
X197935200Y-146379800D02*
X197935200Y-152189800D01*
%TO.C,U7*%
X204791800Y-139423200D02*
X203741800Y-139423200D01*
X204791800Y-141403200D02*
X203491800Y-141403200D01*
X203371800Y-139423200D02*
X203091800Y-139423200D01*
X203371800Y-139143200D01*
X203371800Y-139423200D01*
G36*
X203371800Y-139423200D02*
G01*
X203091800Y-139423200D01*
X203371800Y-139143200D01*
X203371800Y-139423200D01*
G37*
%TO.C,TP4*%
X221348800Y-132423400D02*
X222748800Y-132423400D01*
X221348800Y-133823400D02*
X221348800Y-132423400D01*
X222748800Y-132423400D02*
X222748800Y-133823400D01*
X222748800Y-133823400D02*
X221348800Y-133823400D01*
%TO.C,TP9*%
X219850200Y-158915600D02*
X221250200Y-158915600D01*
X219850200Y-160315600D02*
X219850200Y-158915600D01*
X221250200Y-158915600D02*
X221250200Y-160315600D01*
X221250200Y-160315600D02*
X219850200Y-160315600D01*
%TO.C,C1*%
X261188200Y-137638220D02*
X261188200Y-137919380D01*
X262208200Y-137638220D02*
X262208200Y-137919380D01*
%TO.C,R13*%
X212903559Y-136147000D02*
X213210841Y-136147000D01*
X212903559Y-136907000D02*
X213210841Y-136907000D01*
%TO.C,R10*%
X206940959Y-147621500D02*
X207248241Y-147621500D01*
X206940959Y-148381500D02*
X207248241Y-148381500D01*
%TO.C,R5*%
X216868200Y-150013159D02*
X216868200Y-150320441D01*
X217628200Y-150013159D02*
X217628200Y-150320441D01*
%TO.C,R20*%
X240767359Y-152022000D02*
X241074641Y-152022000D01*
X240767359Y-152782000D02*
X241074641Y-152782000D01*
%TO.C,C15*%
X225579800Y-142010380D02*
X225579800Y-141729220D01*
X226599800Y-142010380D02*
X226599800Y-141729220D01*
%TO.C,C9*%
X201876800Y-151252764D02*
X201876800Y-151468436D01*
X202596800Y-151252764D02*
X202596800Y-151468436D01*
%TO.C,C2*%
X228242000Y-141359236D02*
X228242000Y-141143564D01*
X228962000Y-141359236D02*
X228962000Y-141143564D01*
%TO.C,U6*%
X211033800Y-139042600D02*
X211033800Y-138807600D01*
X211033800Y-142787600D02*
X211033800Y-142312600D01*
X211508800Y-138567600D02*
X211333800Y-138567600D01*
X211508800Y-142787600D02*
X211033800Y-142787600D01*
X214778800Y-138567600D02*
X215253800Y-138567600D01*
X214778800Y-142787600D02*
X215253800Y-142787600D01*
X215253800Y-138567600D02*
X215253800Y-139042600D01*
X215253800Y-142787600D02*
X215253800Y-142312600D01*
X211033800Y-138567600D02*
X210793800Y-138237600D01*
X211273800Y-138237600D01*
X211033800Y-138567600D01*
G36*
X211033800Y-138567600D02*
G01*
X210793800Y-138237600D01*
X211273800Y-138237600D01*
X211033800Y-138567600D01*
G37*
%TO.C,R7*%
X201960559Y-148815300D02*
X202267841Y-148815300D01*
X201960559Y-149575300D02*
X202267841Y-149575300D01*
%TO.C,L1*%
X216073564Y-146758800D02*
X216289236Y-146758800D01*
X216073564Y-147478800D02*
X216289236Y-147478800D01*
%TO.C,R14*%
X212109241Y-146570400D02*
X211801959Y-146570400D01*
X212109241Y-147330400D02*
X211801959Y-147330400D01*
%TO.C,U2*%
X243239800Y-129884600D02*
X259439800Y-129884600D01*
X243239800Y-145684600D02*
X243239800Y-146084600D01*
X243239800Y-146084600D02*
X259439800Y-146084600D01*
X259439800Y-129884600D02*
X259439800Y-130284600D01*
X259439800Y-146084600D02*
X259439800Y-145684600D01*
X242739800Y-130084600D02*
X242499800Y-129748600D01*
X242979800Y-129748600D01*
X242739800Y-130084600D01*
G36*
X242739800Y-130084600D02*
G01*
X242499800Y-129748600D01*
X242979800Y-129748600D01*
X242739800Y-130084600D01*
G37*
%TO.C,R19*%
X240792759Y-150980600D02*
X241100041Y-150980600D01*
X240792759Y-151740600D02*
X241100041Y-151740600D01*
%TO.C,D1*%
X208733800Y-150771700D02*
X208733800Y-152241700D01*
X208733800Y-152241700D02*
X211018800Y-152241700D01*
X211018800Y-150771700D02*
X208733800Y-150771700D01*
%TO.C,R4*%
X217833400Y-148946359D02*
X217833400Y-149253641D01*
X218593400Y-148946359D02*
X218593400Y-149253641D01*
%TO.C,R2*%
X225340200Y-157428841D02*
X225340200Y-157121559D01*
X226100200Y-157428841D02*
X226100200Y-157121559D01*
%TO.C,R6*%
X215827041Y-150919200D02*
X215519759Y-150919200D01*
X215827041Y-151679200D02*
X215519759Y-151679200D01*
%TO.C,D2*%
X208544000Y-152967300D02*
X208544000Y-155252300D01*
X208544000Y-155252300D02*
X210014000Y-155252300D01*
X210014000Y-155252300D02*
X210014000Y-152967300D01*
%TO.C,R16*%
X214176041Y-143436800D02*
X213868759Y-143436800D01*
X214176041Y-144196800D02*
X213868759Y-144196800D01*
%TO.C,TP2*%
X218046800Y-146190200D02*
X219446800Y-146190200D01*
X218046800Y-147590200D02*
X218046800Y-146190200D01*
X219446800Y-146190200D02*
X219446800Y-147590200D01*
X219446800Y-147590200D02*
X218046800Y-147590200D01*
%TO.C,R15*%
X212801959Y-145570400D02*
X213109241Y-145570400D01*
X212801959Y-146330400D02*
X213109241Y-146330400D01*
%TO.C,J1*%
X257381800Y-155484600D02*
X258181800Y-155484600D01*
X257381800Y-155684600D02*
X257381800Y-155484600D01*
X257381800Y-158484600D02*
X257381800Y-158284600D01*
X258181800Y-155484600D02*
X258181800Y-154984600D01*
X258181800Y-158484600D02*
X257381800Y-158484600D01*
X259581800Y-155484600D02*
X259581800Y-154984600D01*
X259581800Y-155484600D02*
X260181800Y-155484600D01*
X260181800Y-155484600D02*
X260381800Y-155684600D01*
X260381800Y-158284600D02*
X260381800Y-158484600D01*
X260381800Y-158484600D02*
X259581800Y-158484600D01*
%TO.C,TP5*%
X208648800Y-143294600D02*
X210048800Y-143294600D01*
X208648800Y-144694600D02*
X208648800Y-143294600D01*
X210048800Y-143294600D02*
X210048800Y-144694600D01*
X210048800Y-144694600D02*
X208648800Y-144694600D01*
%TO.C,Q2*%
X218111800Y-133124100D02*
X217461800Y-133124100D01*
X218111800Y-133124100D02*
X218761800Y-133124100D01*
X218111800Y-136244100D02*
X217461800Y-136244100D01*
X218111800Y-136244100D02*
X218761800Y-136244100D01*
X216949300Y-133174100D02*
X216709300Y-132844100D01*
X217189300Y-132844100D01*
X216949300Y-133174100D01*
G36*
X216949300Y-133174100D02*
G01*
X216709300Y-132844100D01*
X217189300Y-132844100D01*
X216949300Y-133174100D01*
G37*
%TO.C,R18*%
X237897159Y-148288200D02*
X238204441Y-148288200D01*
X237897159Y-149048200D02*
X238204441Y-149048200D01*
%TO.C,C12*%
X209634436Y-142161400D02*
X209418764Y-142161400D01*
X209634436Y-142881400D02*
X209418764Y-142881400D01*
%TO.C,U4*%
X203674800Y-149984300D02*
X203674800Y-149749300D01*
X203674800Y-152729300D02*
X203674800Y-152254300D01*
X204149800Y-149509300D02*
X203974800Y-149509300D01*
X204149800Y-152729300D02*
X203674800Y-152729300D01*
X206419800Y-149509300D02*
X206894800Y-149509300D01*
X206419800Y-152729300D02*
X206894800Y-152729300D01*
X206894800Y-149509300D02*
X206894800Y-149984300D01*
X206894800Y-152729300D02*
X206894800Y-152254300D01*
X203674800Y-149509300D02*
X203434800Y-149179300D01*
X203914800Y-149179300D01*
X203674800Y-149509300D01*
G36*
X203674800Y-149509300D02*
G01*
X203434800Y-149179300D01*
X203914800Y-149179300D01*
X203674800Y-149509300D01*
G37*
%TO.C,D3*%
X221731300Y-149047600D02*
X224016300Y-149047600D01*
X224016300Y-147577600D02*
X221731300Y-147577600D01*
X224016300Y-149047600D02*
X224016300Y-147577600D01*
%TO.C,C14*%
X225486000Y-145729220D02*
X225486000Y-146010380D01*
X226506000Y-145729220D02*
X226506000Y-146010380D01*
%TO.C,R1*%
X225936000Y-154737559D02*
X225936000Y-155044841D01*
X226696000Y-154737559D02*
X226696000Y-155044841D01*
%TO.C,TP8*%
X222390200Y-158915600D02*
X223790200Y-158915600D01*
X222390200Y-160315600D02*
X222390200Y-158915600D01*
X223790200Y-158915600D02*
X223790200Y-160315600D01*
X223790200Y-160315600D02*
X222390200Y-160315600D01*
%TO.C,C4*%
X215643600Y-131377036D02*
X215643600Y-131161364D01*
X216363600Y-131377036D02*
X216363600Y-131161364D01*
%TO.C,TP1*%
X200470000Y-145885400D02*
X201870000Y-145885400D01*
X200470000Y-147285400D02*
X200470000Y-145885400D01*
X201870000Y-145885400D02*
X201870000Y-147285400D01*
X201870000Y-147285400D02*
X200470000Y-147285400D01*
%TO.C,C6*%
X234871400Y-141537036D02*
X234871400Y-141321364D01*
X235591400Y-141537036D02*
X235591400Y-141321364D01*
%TO.C,U1*%
X228319800Y-143394800D02*
X228319800Y-143159800D01*
X228319800Y-150139800D02*
X228319800Y-149664800D01*
X228794800Y-142919800D02*
X228619800Y-142919800D01*
X228794800Y-150139800D02*
X228319800Y-150139800D01*
X235064800Y-142919800D02*
X235539800Y-142919800D01*
X235064800Y-150139800D02*
X235539800Y-150139800D01*
X235539800Y-142919800D02*
X235539800Y-143394800D01*
X235539800Y-150139800D02*
X235539800Y-149664800D01*
X228319800Y-142919800D02*
X228079800Y-142589800D01*
X228559800Y-142589800D01*
X228319800Y-142919800D01*
G36*
X228319800Y-142919800D02*
G01*
X228079800Y-142589800D01*
X228559800Y-142589800D01*
X228319800Y-142919800D01*
G37*
%TO.C,C13*%
X210487400Y-143785164D02*
X210487400Y-144000836D01*
X211207400Y-143785164D02*
X211207400Y-144000836D01*
%TO.C,C5*%
X213038980Y-148501700D02*
X212757820Y-148501700D01*
X213038980Y-149521700D02*
X212757820Y-149521700D01*
%TO.C,R8*%
X208899241Y-148891500D02*
X208591959Y-148891500D01*
X208899241Y-149651500D02*
X208591959Y-149651500D01*
%TO.C,R17*%
X228686159Y-134559800D02*
X228993441Y-134559800D01*
X228686159Y-135319800D02*
X228993441Y-135319800D01*
%TO.C,J2*%
X189384800Y-135594800D02*
X189384800Y-144784800D01*
X192114800Y-135594800D02*
X189384800Y-135594800D01*
X192114800Y-144784800D02*
X189384800Y-144784800D01*
X195714800Y-135594800D02*
X194814800Y-135594800D01*
X195714800Y-144784800D02*
X194814800Y-144784800D01*
X198794800Y-135714800D02*
X198794800Y-144664800D01*
%TO.C,TP10*%
X236614200Y-149949400D02*
X238014200Y-149949400D01*
X236614200Y-151349400D02*
X236614200Y-149949400D01*
X238014200Y-149949400D02*
X238014200Y-151349400D01*
X238014200Y-151349400D02*
X236614200Y-151349400D01*
%TO.C,SW2*%
X198466800Y-129774600D02*
X198466800Y-128624600D01*
X198466800Y-132844600D02*
X198466800Y-131694600D01*
X202480133Y-131369600D02*
X202480133Y-130099600D01*
X205286800Y-128624600D02*
X198466800Y-128624600D01*
X205286800Y-129694600D02*
X205286800Y-128624600D01*
X205286800Y-132844600D02*
X198466800Y-132844600D01*
X205286800Y-132844600D02*
X205286800Y-131774600D01*
X205526800Y-133084600D02*
X204143800Y-133084600D01*
X205526800Y-133084600D02*
X205526800Y-131774600D01*
X203686800Y-131369600D02*
X200066800Y-131369600D01*
X200066800Y-130099600D01*
X203686800Y-130099600D01*
X203686800Y-131369600D01*
X203686800Y-131369600D02*
X202480133Y-131369600D01*
X202480133Y-130099600D01*
X203686800Y-130099600D01*
X203686800Y-131369600D01*
G36*
X203686800Y-131369600D02*
G01*
X202480133Y-131369600D01*
X202480133Y-130099600D01*
X203686800Y-130099600D01*
X203686800Y-131369600D01*
G37*
%TO.C,R22*%
X226743441Y-136559800D02*
X226436159Y-136559800D01*
X226743441Y-137319800D02*
X226436159Y-137319800D01*
%TO.C,R9*%
X203565000Y-147642659D02*
X203565000Y-147949941D01*
X204325000Y-147642659D02*
X204325000Y-147949941D01*
%TO.C,C7*%
X219078600Y-149397548D02*
X219078600Y-149920052D01*
X220548600Y-149397548D02*
X220548600Y-149920052D01*
%TO.C,TP3*%
X204864200Y-135471400D02*
X206264200Y-135471400D01*
X204864200Y-136871400D02*
X204864200Y-135471400D01*
X206264200Y-135471400D02*
X206264200Y-136871400D01*
X206264200Y-136871400D02*
X204864200Y-136871400D01*
%TO.C,TP7*%
X236360200Y-140348200D02*
X237760200Y-140348200D01*
X236360200Y-141748200D02*
X236360200Y-140348200D01*
X237760200Y-140348200D02*
X237760200Y-141748200D01*
X237760200Y-141748200D02*
X236360200Y-141748200D01*
%TO.C,U3*%
X214738400Y-149049200D02*
X214738400Y-148449200D01*
X214738400Y-149049200D02*
X214738400Y-149649200D01*
X216608400Y-149049200D02*
X216608400Y-148449200D01*
X216608400Y-149049200D02*
X216608400Y-149649200D01*
X216173400Y-147739200D02*
X215933400Y-147409200D01*
X216413400Y-147409200D01*
X216173400Y-147739200D01*
G36*
X216173400Y-147739200D02*
G01*
X215933400Y-147409200D01*
X216413400Y-147409200D01*
X216173400Y-147739200D01*
G37*
%TD*%
D14*
X187631800Y-127887000D02*
X275631800Y-127887000D01*
X275631800Y-160887000D01*
X187631800Y-160887000D01*
X187631800Y-127887000D01*
M02*
