M48
; DRILL file {KiCad 9.0.3} date 2025-10-28T23:27:46-0300
; FORMAT={-:-/ absolute / metric / decimal}
; #@! TF.CreationDate,2025-10-28T23:27:46-03:00
; #@! TF.GenerationSoftware,Kicad,Pcbnew,9.0.3
; #@! TF.FileFunction,Plated,1,4,PTH
FMAT,2
METRIC
; #@! TA.AperFunction,Plated,PTH,ViaDrill
T1C0.300
; #@! TA.AperFunction,Plated,PTH,ComponentDrill
T2C0.400
; #@! TA.AperFunction,Plated,PTH,ComponentDrill
T3C0.600
; #@! TA.AperFunction,Plated,PTH,ComponentDrill
T4C0.800
; #@! TA.AperFunction,Plated,PTH,ComponentDrill
T5C1.000
%
G90
G05
T1
X190.068Y-146.027
X195.802Y-152.19
X197.03Y-150.472
X200.867Y-138.889
X201.297Y-150.903
X201.604Y-149.195
X202.382Y-152.695
X203.132Y-138.485
X203.326Y-143.343
X203.632Y-155.485
X203.945Y-147.286
X205.285Y-151.119
X205.382Y-154.235
X205.564Y-134.698
X205.59Y-137.695
X206.298Y-146.865
X206.714Y-149.017
X207.006Y-153.272
X207.418Y-143.664
X207.605Y-148.001
X208.409Y-150.415
X208.996Y-141.531
X209.047Y-142.521
X209.256Y-149.272
X210.085Y-139.235
X210.296Y-129.585
X210.847Y-144.373
X211.228Y-148.49
X211.787Y-143.944
X211.94Y-135.435
X212.382Y-139.985
X212.382Y-141.235
X213.144Y-140.678
X213.466Y-145.95
X213.882Y-139.985
X213.882Y-141.235
X214.421Y-129.585
X214.532Y-143.817
X215.623Y-135.892
X215.724Y-138.457
X216.004Y-130.789
X216.918Y-148.769
X217.248Y-150.677
X217.274Y-146.433
X218.213Y-148.59
X219.547Y-147.69
X219.814Y-148.709
X219.814Y-150.609
X221.49Y-149.532
X221.744Y-148.313
X222.059Y-146.813
X223.825Y-139.473
X223.827Y-133.149
X224.577Y-152.469
X224.845Y-145.112
X225.72Y-156.765
X225.996Y-145.095
X225.996Y-146.645
X226.09Y-141.095
X226.132Y-142.735
X226.316Y-155.401
X226.59Y-150.299
X227.266Y-145.945
X227.561Y-150.735
X228.602Y-140.771
X228.632Y-141.735
X229.872Y-144.376
X229.948Y-148.541
X229.981Y-155.94
X230.024Y-146.509
X231.215Y-155.065
X231.726Y-139.245
X231.904Y-144.325
X231.929Y-148.567
X231.93Y-146.53
X233.132Y-151.485
X233.758Y-148.617
X233.809Y-146.585
X233.834Y-144.35
X234.901Y-137.441
X235.231Y-140.949
X235.612Y-150.421
X236.019Y-141.251
X237.187Y-152.478
X237.382Y-147.407
X238.356Y-142.242
X238.533Y-140.439
X239.27Y-147.703
X239.524Y-149.786
X241.378Y-140.985
X241.429Y-145.087
X241.456Y-151.361
X242.267Y-152.351
X243.882Y-130.985
X253.84Y-137.94
X253.84Y-151.69
X254.84Y-151.69
X255.09Y-133.285
X256.169Y-155.426
X256.169Y-157.356
X257.27Y-154.26
X257.382Y-157.235
X257.382Y-158.985
X257.77Y-147.26
X257.77Y-148.26
X257.77Y-149.26
X257.77Y-150.26
X257.77Y-151.26
X257.77Y-152.26
X257.77Y-153.26
X258.865Y-142.985
X258.882Y-158.735
X260.132Y-147.235
X260.132Y-148.235
X260.132Y-149.235
X260.132Y-150.235
X260.132Y-151.235
X260.132Y-152.235
X260.132Y-153.235
X260.357Y-157.235
X260.382Y-158.985
X260.708Y-154.282
X261.632Y-155.235
X261.632Y-157.165
X261.698Y-137.004
X261.698Y-138.554
T2
X196.765Y-137.215
X196.765Y-138.065
X196.765Y-138.915
X196.765Y-139.765
X196.765Y-140.615
X196.765Y-141.465
X196.765Y-142.315
X196.765Y-143.165
X198.115Y-137.215
X198.115Y-138.065
X198.115Y-138.915
X198.115Y-139.765
X198.115Y-140.615
X198.115Y-141.465
X198.115Y-142.315
X198.115Y-143.165
T4
X198.067Y-130.735
X205.687Y-130.735
T5
X200.211Y-152.599
X200.211Y-155.099
X215.47Y-157.05
X218.01Y-157.05
X220.55Y-157.05
X223.09Y-157.05
T3
G00X194.155Y-135.865
M15
G01X193.355Y-135.865
M16
G05
G00X194.155Y-144.515
M15
G01X193.355Y-144.515
M16
G05
G00X197.885Y-135.865
M15
G01X196.385Y-135.865
M16
G05
G00X197.885Y-144.515
M15
G01X196.385Y-144.515
M16
G05
M30
