%TF.GenerationSoftware,KiCad,Pcbnew,9.0.3*%
%TF.CreationDate,2025-10-28T23:27:35-03:00*%
%TF.ProjectId,PcbArroz,50636241-7272-46f7-9a2e-6b696361645f,rev?*%
%TF.SameCoordinates,Original*%
%TF.FileFunction,Legend,Bot*%
%TF.FilePolarity,Positive*%
%FSLAX46Y46*%
G04 Gerber Fmt 4.6, Leading zero omitted, Abs format (unit mm)*
G04 Created by KiCad (PCBNEW 9.0.3) date 2025-10-28 23:27:35*
%MOMM*%
%LPD*%
G01*
G04 APERTURE LIST*
%ADD10C,0.200000*%
%ADD11C,0.150000*%
%ADD12C,0.300000*%
%ADD13C,0.000000*%
%ADD14C,0.120000*%
%TA.AperFunction,Profile*%
%ADD15C,0.050000*%
%TD*%
G04 APERTURE END LIST*
D10*
X272607856Y-135350454D02*
X272655475Y-135493311D01*
X272655475Y-135493311D02*
X272655475Y-135731406D01*
X272655475Y-135731406D02*
X272607856Y-135826644D01*
X272607856Y-135826644D02*
X272560236Y-135874263D01*
X272560236Y-135874263D02*
X272464998Y-135921882D01*
X272464998Y-135921882D02*
X272369760Y-135921882D01*
X272369760Y-135921882D02*
X272274522Y-135874263D01*
X272274522Y-135874263D02*
X272226903Y-135826644D01*
X272226903Y-135826644D02*
X272179284Y-135731406D01*
X272179284Y-135731406D02*
X272131665Y-135540930D01*
X272131665Y-135540930D02*
X272084046Y-135445692D01*
X272084046Y-135445692D02*
X272036427Y-135398073D01*
X272036427Y-135398073D02*
X271941189Y-135350454D01*
X271941189Y-135350454D02*
X271845951Y-135350454D01*
X271845951Y-135350454D02*
X271750713Y-135398073D01*
X271750713Y-135398073D02*
X271703094Y-135445692D01*
X271703094Y-135445692D02*
X271655475Y-135540930D01*
X271655475Y-135540930D02*
X271655475Y-135779025D01*
X271655475Y-135779025D02*
X271703094Y-135921882D01*
X272607856Y-136731406D02*
X272655475Y-136636168D01*
X272655475Y-136636168D02*
X272655475Y-136445692D01*
X272655475Y-136445692D02*
X272607856Y-136350454D01*
X272607856Y-136350454D02*
X272512617Y-136302835D01*
X272512617Y-136302835D02*
X272131665Y-136302835D01*
X272131665Y-136302835D02*
X272036427Y-136350454D01*
X272036427Y-136350454D02*
X271988808Y-136445692D01*
X271988808Y-136445692D02*
X271988808Y-136636168D01*
X271988808Y-136636168D02*
X272036427Y-136731406D01*
X272036427Y-136731406D02*
X272131665Y-136779025D01*
X272131665Y-136779025D02*
X272226903Y-136779025D01*
X272226903Y-136779025D02*
X272322141Y-136302835D01*
X271988808Y-137207597D02*
X272655475Y-137207597D01*
X272084046Y-137207597D02*
X272036427Y-137255216D01*
X272036427Y-137255216D02*
X271988808Y-137350454D01*
X271988808Y-137350454D02*
X271988808Y-137493311D01*
X271988808Y-137493311D02*
X272036427Y-137588549D01*
X272036427Y-137588549D02*
X272131665Y-137636168D01*
X272131665Y-137636168D02*
X272655475Y-137636168D01*
X272607856Y-138064740D02*
X272655475Y-138159978D01*
X272655475Y-138159978D02*
X272655475Y-138350454D01*
X272655475Y-138350454D02*
X272607856Y-138445692D01*
X272607856Y-138445692D02*
X272512617Y-138493311D01*
X272512617Y-138493311D02*
X272464998Y-138493311D01*
X272464998Y-138493311D02*
X272369760Y-138445692D01*
X272369760Y-138445692D02*
X272322141Y-138350454D01*
X272322141Y-138350454D02*
X272322141Y-138207597D01*
X272322141Y-138207597D02*
X272274522Y-138112359D01*
X272274522Y-138112359D02*
X272179284Y-138064740D01*
X272179284Y-138064740D02*
X272131665Y-138064740D01*
X272131665Y-138064740D02*
X272036427Y-138112359D01*
X272036427Y-138112359D02*
X271988808Y-138207597D01*
X271988808Y-138207597D02*
X271988808Y-138350454D01*
X271988808Y-138350454D02*
X272036427Y-138445692D01*
X272655475Y-139064740D02*
X272607856Y-138969502D01*
X272607856Y-138969502D02*
X272560236Y-138921883D01*
X272560236Y-138921883D02*
X272464998Y-138874264D01*
X272464998Y-138874264D02*
X272179284Y-138874264D01*
X272179284Y-138874264D02*
X272084046Y-138921883D01*
X272084046Y-138921883D02*
X272036427Y-138969502D01*
X272036427Y-138969502D02*
X271988808Y-139064740D01*
X271988808Y-139064740D02*
X271988808Y-139207597D01*
X271988808Y-139207597D02*
X272036427Y-139302835D01*
X272036427Y-139302835D02*
X272084046Y-139350454D01*
X272084046Y-139350454D02*
X272179284Y-139398073D01*
X272179284Y-139398073D02*
X272464998Y-139398073D01*
X272464998Y-139398073D02*
X272560236Y-139350454D01*
X272560236Y-139350454D02*
X272607856Y-139302835D01*
X272607856Y-139302835D02*
X272655475Y-139207597D01*
X272655475Y-139207597D02*
X272655475Y-139064740D01*
X272655475Y-139826645D02*
X271988808Y-139826645D01*
X272179284Y-139826645D02*
X272084046Y-139874264D01*
X272084046Y-139874264D02*
X272036427Y-139921883D01*
X272036427Y-139921883D02*
X271988808Y-140017121D01*
X271988808Y-140017121D02*
X271988808Y-140112359D01*
X271655475Y-141064741D02*
X272655475Y-141398074D01*
X272655475Y-141398074D02*
X271655475Y-141731407D01*
X272655475Y-142588550D02*
X272655475Y-142017122D01*
X272655475Y-142302836D02*
X271655475Y-142302836D01*
X271655475Y-142302836D02*
X271798332Y-142207598D01*
X271798332Y-142207598D02*
X271893570Y-142112360D01*
X271893570Y-142112360D02*
X271941189Y-142017122D01*
X271750713Y-143731408D02*
X271703094Y-143779027D01*
X271703094Y-143779027D02*
X271655475Y-143874265D01*
X271655475Y-143874265D02*
X271655475Y-144112360D01*
X271655475Y-144112360D02*
X271703094Y-144207598D01*
X271703094Y-144207598D02*
X271750713Y-144255217D01*
X271750713Y-144255217D02*
X271845951Y-144302836D01*
X271845951Y-144302836D02*
X271941189Y-144302836D01*
X271941189Y-144302836D02*
X272084046Y-144255217D01*
X272084046Y-144255217D02*
X272655475Y-143683789D01*
X272655475Y-143683789D02*
X272655475Y-144302836D01*
X272084046Y-144874265D02*
X272036427Y-144779027D01*
X272036427Y-144779027D02*
X271988808Y-144731408D01*
X271988808Y-144731408D02*
X271893570Y-144683789D01*
X271893570Y-144683789D02*
X271845951Y-144683789D01*
X271845951Y-144683789D02*
X271750713Y-144731408D01*
X271750713Y-144731408D02*
X271703094Y-144779027D01*
X271703094Y-144779027D02*
X271655475Y-144874265D01*
X271655475Y-144874265D02*
X271655475Y-145064741D01*
X271655475Y-145064741D02*
X271703094Y-145159979D01*
X271703094Y-145159979D02*
X271750713Y-145207598D01*
X271750713Y-145207598D02*
X271845951Y-145255217D01*
X271845951Y-145255217D02*
X271893570Y-145255217D01*
X271893570Y-145255217D02*
X271988808Y-145207598D01*
X271988808Y-145207598D02*
X272036427Y-145159979D01*
X272036427Y-145159979D02*
X272084046Y-145064741D01*
X272084046Y-145064741D02*
X272084046Y-144874265D01*
X272084046Y-144874265D02*
X272131665Y-144779027D01*
X272131665Y-144779027D02*
X272179284Y-144731408D01*
X272179284Y-144731408D02*
X272274522Y-144683789D01*
X272274522Y-144683789D02*
X272464998Y-144683789D01*
X272464998Y-144683789D02*
X272560236Y-144731408D01*
X272560236Y-144731408D02*
X272607856Y-144779027D01*
X272607856Y-144779027D02*
X272655475Y-144874265D01*
X272655475Y-144874265D02*
X272655475Y-145064741D01*
X272655475Y-145064741D02*
X272607856Y-145159979D01*
X272607856Y-145159979D02*
X272560236Y-145207598D01*
X272560236Y-145207598D02*
X272464998Y-145255217D01*
X272464998Y-145255217D02*
X272274522Y-145255217D01*
X272274522Y-145255217D02*
X272179284Y-145207598D01*
X272179284Y-145207598D02*
X272131665Y-145159979D01*
X272131665Y-145159979D02*
X272084046Y-145064741D01*
X271607856Y-146398074D02*
X272893570Y-145540932D01*
X272655475Y-147255217D02*
X272655475Y-146683789D01*
X272655475Y-146969503D02*
X271655475Y-146969503D01*
X271655475Y-146969503D02*
X271798332Y-146874265D01*
X271798332Y-146874265D02*
X271893570Y-146779027D01*
X271893570Y-146779027D02*
X271941189Y-146683789D01*
X271655475Y-147874265D02*
X271655475Y-147969503D01*
X271655475Y-147969503D02*
X271703094Y-148064741D01*
X271703094Y-148064741D02*
X271750713Y-148112360D01*
X271750713Y-148112360D02*
X271845951Y-148159979D01*
X271845951Y-148159979D02*
X272036427Y-148207598D01*
X272036427Y-148207598D02*
X272274522Y-148207598D01*
X272274522Y-148207598D02*
X272464998Y-148159979D01*
X272464998Y-148159979D02*
X272560236Y-148112360D01*
X272560236Y-148112360D02*
X272607856Y-148064741D01*
X272607856Y-148064741D02*
X272655475Y-147969503D01*
X272655475Y-147969503D02*
X272655475Y-147874265D01*
X272655475Y-147874265D02*
X272607856Y-147779027D01*
X272607856Y-147779027D02*
X272560236Y-147731408D01*
X272560236Y-147731408D02*
X272464998Y-147683789D01*
X272464998Y-147683789D02*
X272274522Y-147636170D01*
X272274522Y-147636170D02*
X272036427Y-147636170D01*
X272036427Y-147636170D02*
X271845951Y-147683789D01*
X271845951Y-147683789D02*
X271750713Y-147731408D01*
X271750713Y-147731408D02*
X271703094Y-147779027D01*
X271703094Y-147779027D02*
X271655475Y-147874265D01*
X271607856Y-149350455D02*
X272893570Y-148493313D01*
X271750713Y-149636170D02*
X271703094Y-149683789D01*
X271703094Y-149683789D02*
X271655475Y-149779027D01*
X271655475Y-149779027D02*
X271655475Y-150017122D01*
X271655475Y-150017122D02*
X271703094Y-150112360D01*
X271703094Y-150112360D02*
X271750713Y-150159979D01*
X271750713Y-150159979D02*
X271845951Y-150207598D01*
X271845951Y-150207598D02*
X271941189Y-150207598D01*
X271941189Y-150207598D02*
X272084046Y-150159979D01*
X272084046Y-150159979D02*
X272655475Y-149588551D01*
X272655475Y-149588551D02*
X272655475Y-150207598D01*
X271655475Y-150826646D02*
X271655475Y-150921884D01*
X271655475Y-150921884D02*
X271703094Y-151017122D01*
X271703094Y-151017122D02*
X271750713Y-151064741D01*
X271750713Y-151064741D02*
X271845951Y-151112360D01*
X271845951Y-151112360D02*
X272036427Y-151159979D01*
X272036427Y-151159979D02*
X272274522Y-151159979D01*
X272274522Y-151159979D02*
X272464998Y-151112360D01*
X272464998Y-151112360D02*
X272560236Y-151064741D01*
X272560236Y-151064741D02*
X272607856Y-151017122D01*
X272607856Y-151017122D02*
X272655475Y-150921884D01*
X272655475Y-150921884D02*
X272655475Y-150826646D01*
X272655475Y-150826646D02*
X272607856Y-150731408D01*
X272607856Y-150731408D02*
X272560236Y-150683789D01*
X272560236Y-150683789D02*
X272464998Y-150636170D01*
X272464998Y-150636170D02*
X272274522Y-150588551D01*
X272274522Y-150588551D02*
X272036427Y-150588551D01*
X272036427Y-150588551D02*
X271845951Y-150636170D01*
X271845951Y-150636170D02*
X271750713Y-150683789D01*
X271750713Y-150683789D02*
X271703094Y-150731408D01*
X271703094Y-150731408D02*
X271655475Y-150826646D01*
X271750713Y-151540932D02*
X271703094Y-151588551D01*
X271703094Y-151588551D02*
X271655475Y-151683789D01*
X271655475Y-151683789D02*
X271655475Y-151921884D01*
X271655475Y-151921884D02*
X271703094Y-152017122D01*
X271703094Y-152017122D02*
X271750713Y-152064741D01*
X271750713Y-152064741D02*
X271845951Y-152112360D01*
X271845951Y-152112360D02*
X271941189Y-152112360D01*
X271941189Y-152112360D02*
X272084046Y-152064741D01*
X272084046Y-152064741D02*
X272655475Y-151493313D01*
X272655475Y-151493313D02*
X272655475Y-152112360D01*
X271655475Y-153017122D02*
X271655475Y-152540932D01*
X271655475Y-152540932D02*
X272131665Y-152493313D01*
X272131665Y-152493313D02*
X272084046Y-152540932D01*
X272084046Y-152540932D02*
X272036427Y-152636170D01*
X272036427Y-152636170D02*
X272036427Y-152874265D01*
X272036427Y-152874265D02*
X272084046Y-152969503D01*
X272084046Y-152969503D02*
X272131665Y-153017122D01*
X272131665Y-153017122D02*
X272226903Y-153064741D01*
X272226903Y-153064741D02*
X272464998Y-153064741D01*
X272464998Y-153064741D02*
X272560236Y-153017122D01*
X272560236Y-153017122D02*
X272607856Y-152969503D01*
X272607856Y-152969503D02*
X272655475Y-152874265D01*
X272655475Y-152874265D02*
X272655475Y-152636170D01*
X272655475Y-152636170D02*
X272607856Y-152540932D01*
X272607856Y-152540932D02*
X272560236Y-152493313D01*
X274170180Y-139731405D02*
X274217800Y-139683786D01*
X274217800Y-139683786D02*
X274265419Y-139540929D01*
X274265419Y-139540929D02*
X274265419Y-139445691D01*
X274265419Y-139445691D02*
X274217800Y-139302834D01*
X274217800Y-139302834D02*
X274122561Y-139207596D01*
X274122561Y-139207596D02*
X274027323Y-139159977D01*
X274027323Y-139159977D02*
X273836847Y-139112358D01*
X273836847Y-139112358D02*
X273693990Y-139112358D01*
X273693990Y-139112358D02*
X273503514Y-139159977D01*
X273503514Y-139159977D02*
X273408276Y-139207596D01*
X273408276Y-139207596D02*
X273313038Y-139302834D01*
X273313038Y-139302834D02*
X273265419Y-139445691D01*
X273265419Y-139445691D02*
X273265419Y-139540929D01*
X273265419Y-139540929D02*
X273313038Y-139683786D01*
X273313038Y-139683786D02*
X273360657Y-139731405D01*
X274265419Y-140159977D02*
X273265419Y-140159977D01*
X274265419Y-140731405D02*
X273693990Y-140302834D01*
X273265419Y-140731405D02*
X273836847Y-140159977D01*
X274217800Y-141207596D02*
X274265419Y-141207596D01*
X274265419Y-141207596D02*
X274360657Y-141159977D01*
X274360657Y-141159977D02*
X274408276Y-141112358D01*
X274265419Y-142969500D02*
X273789228Y-142636167D01*
X274265419Y-142398072D02*
X273265419Y-142398072D01*
X273265419Y-142398072D02*
X273265419Y-142779024D01*
X273265419Y-142779024D02*
X273313038Y-142874262D01*
X273313038Y-142874262D02*
X273360657Y-142921881D01*
X273360657Y-142921881D02*
X273455895Y-142969500D01*
X273455895Y-142969500D02*
X273598752Y-142969500D01*
X273598752Y-142969500D02*
X273693990Y-142921881D01*
X273693990Y-142921881D02*
X273741609Y-142874262D01*
X273741609Y-142874262D02*
X273789228Y-142779024D01*
X273789228Y-142779024D02*
X273789228Y-142398072D01*
X274265419Y-143398072D02*
X273265419Y-143398072D01*
X273265419Y-143398072D02*
X273265419Y-143636167D01*
X273265419Y-143636167D02*
X273313038Y-143779024D01*
X273313038Y-143779024D02*
X273408276Y-143874262D01*
X273408276Y-143874262D02*
X273503514Y-143921881D01*
X273503514Y-143921881D02*
X273693990Y-143969500D01*
X273693990Y-143969500D02*
X273836847Y-143969500D01*
X273836847Y-143969500D02*
X274027323Y-143921881D01*
X274027323Y-143921881D02*
X274122561Y-143874262D01*
X274122561Y-143874262D02*
X274217800Y-143779024D01*
X274217800Y-143779024D02*
X274265419Y-143636167D01*
X274265419Y-143636167D02*
X274265419Y-143398072D01*
X273265419Y-144255215D02*
X273265419Y-144826643D01*
X274265419Y-144540929D02*
X273265419Y-144540929D01*
X274217800Y-145207596D02*
X274265419Y-145207596D01*
X274265419Y-145207596D02*
X274360657Y-145159977D01*
X274360657Y-145159977D02*
X274408276Y-145112358D01*
X274265419Y-146398072D02*
X273265419Y-146398072D01*
X274265419Y-147445690D02*
X273789228Y-147112357D01*
X274265419Y-146874262D02*
X273265419Y-146874262D01*
X273265419Y-146874262D02*
X273265419Y-147255214D01*
X273265419Y-147255214D02*
X273313038Y-147350452D01*
X273313038Y-147350452D02*
X273360657Y-147398071D01*
X273360657Y-147398071D02*
X273455895Y-147445690D01*
X273455895Y-147445690D02*
X273598752Y-147445690D01*
X273598752Y-147445690D02*
X273693990Y-147398071D01*
X273693990Y-147398071D02*
X273741609Y-147350452D01*
X273741609Y-147350452D02*
X273789228Y-147255214D01*
X273789228Y-147255214D02*
X273789228Y-146874262D01*
D11*
X204499295Y-151893719D02*
X204499295Y-152703242D01*
X204499295Y-152703242D02*
X204546914Y-152798480D01*
X204546914Y-152798480D02*
X204594533Y-152846100D01*
X204594533Y-152846100D02*
X204689771Y-152893719D01*
X204689771Y-152893719D02*
X204880247Y-152893719D01*
X204880247Y-152893719D02*
X204975485Y-152846100D01*
X204975485Y-152846100D02*
X205023104Y-152798480D01*
X205023104Y-152798480D02*
X205070723Y-152703242D01*
X205070723Y-152703242D02*
X205070723Y-151893719D01*
X205975485Y-152227052D02*
X205975485Y-152893719D01*
X205737390Y-151846100D02*
X205499295Y-152560385D01*
X205499295Y-152560385D02*
X206118342Y-152560385D01*
D12*
X268247291Y-142262886D02*
X269461577Y-142262886D01*
X269461577Y-142262886D02*
X269604434Y-142334315D01*
X269604434Y-142334315D02*
X269675863Y-142405744D01*
X269675863Y-142405744D02*
X269747291Y-142548601D01*
X269747291Y-142548601D02*
X269747291Y-142834315D01*
X269747291Y-142834315D02*
X269675863Y-142977172D01*
X269675863Y-142977172D02*
X269604434Y-143048601D01*
X269604434Y-143048601D02*
X269461577Y-143120029D01*
X269461577Y-143120029D02*
X268247291Y-143120029D01*
X269604434Y-144691458D02*
X269675863Y-144620030D01*
X269675863Y-144620030D02*
X269747291Y-144405744D01*
X269747291Y-144405744D02*
X269747291Y-144262887D01*
X269747291Y-144262887D02*
X269675863Y-144048601D01*
X269675863Y-144048601D02*
X269533005Y-143905744D01*
X269533005Y-143905744D02*
X269390148Y-143834315D01*
X269390148Y-143834315D02*
X269104434Y-143762887D01*
X269104434Y-143762887D02*
X268890148Y-143762887D01*
X268890148Y-143762887D02*
X268604434Y-143834315D01*
X268604434Y-143834315D02*
X268461577Y-143905744D01*
X268461577Y-143905744D02*
X268318720Y-144048601D01*
X268318720Y-144048601D02*
X268247291Y-144262887D01*
X268247291Y-144262887D02*
X268247291Y-144405744D01*
X268247291Y-144405744D02*
X268318720Y-144620030D01*
X268318720Y-144620030D02*
X268390148Y-144691458D01*
X268247291Y-145334315D02*
X269461577Y-145334315D01*
X269461577Y-145334315D02*
X269604434Y-145405744D01*
X269604434Y-145405744D02*
X269675863Y-145477173D01*
X269675863Y-145477173D02*
X269747291Y-145620030D01*
X269747291Y-145620030D02*
X269747291Y-145905744D01*
X269747291Y-145905744D02*
X269675863Y-146048601D01*
X269675863Y-146048601D02*
X269604434Y-146120030D01*
X269604434Y-146120030D02*
X269461577Y-146191458D01*
X269461577Y-146191458D02*
X268247291Y-146191458D01*
D11*
X200312809Y-158448885D02*
X200360428Y-158591742D01*
X200360428Y-158591742D02*
X200408047Y-158639361D01*
X200408047Y-158639361D02*
X200503285Y-158686980D01*
X200503285Y-158686980D02*
X200646142Y-158686980D01*
X200646142Y-158686980D02*
X200741380Y-158639361D01*
X200741380Y-158639361D02*
X200789000Y-158591742D01*
X200789000Y-158591742D02*
X200836619Y-158496504D01*
X200836619Y-158496504D02*
X200836619Y-158115552D01*
X200836619Y-158115552D02*
X199836619Y-158115552D01*
X199836619Y-158115552D02*
X199836619Y-158448885D01*
X199836619Y-158448885D02*
X199884238Y-158544123D01*
X199884238Y-158544123D02*
X199931857Y-158591742D01*
X199931857Y-158591742D02*
X200027095Y-158639361D01*
X200027095Y-158639361D02*
X200122333Y-158639361D01*
X200122333Y-158639361D02*
X200217571Y-158591742D01*
X200217571Y-158591742D02*
X200265190Y-158544123D01*
X200265190Y-158544123D02*
X200312809Y-158448885D01*
X200312809Y-158448885D02*
X200312809Y-158115552D01*
X199836619Y-158972695D02*
X199836619Y-159544123D01*
X200836619Y-159258409D02*
X199836619Y-159258409D01*
X199931857Y-159829838D02*
X199884238Y-159877457D01*
X199884238Y-159877457D02*
X199836619Y-159972695D01*
X199836619Y-159972695D02*
X199836619Y-160210790D01*
X199836619Y-160210790D02*
X199884238Y-160306028D01*
X199884238Y-160306028D02*
X199931857Y-160353647D01*
X199931857Y-160353647D02*
X200027095Y-160401266D01*
X200027095Y-160401266D02*
X200122333Y-160401266D01*
X200122333Y-160401266D02*
X200265190Y-160353647D01*
X200265190Y-160353647D02*
X200836619Y-159782219D01*
X200836619Y-159782219D02*
X200836619Y-160401266D01*
X238522866Y-152214180D02*
X238570485Y-152261800D01*
X238570485Y-152261800D02*
X238713342Y-152309419D01*
X238713342Y-152309419D02*
X238808580Y-152309419D01*
X238808580Y-152309419D02*
X238951437Y-152261800D01*
X238951437Y-152261800D02*
X239046675Y-152166561D01*
X239046675Y-152166561D02*
X239094294Y-152071323D01*
X239094294Y-152071323D02*
X239141913Y-151880847D01*
X239141913Y-151880847D02*
X239141913Y-151737990D01*
X239141913Y-151737990D02*
X239094294Y-151547514D01*
X239094294Y-151547514D02*
X239046675Y-151452276D01*
X239046675Y-151452276D02*
X238951437Y-151357038D01*
X238951437Y-151357038D02*
X238808580Y-151309419D01*
X238808580Y-151309419D02*
X238713342Y-151309419D01*
X238713342Y-151309419D02*
X238570485Y-151357038D01*
X238570485Y-151357038D02*
X238522866Y-151404657D01*
X238189532Y-151309419D02*
X237570485Y-151309419D01*
X237570485Y-151309419D02*
X237903818Y-151690371D01*
X237903818Y-151690371D02*
X237760961Y-151690371D01*
X237760961Y-151690371D02*
X237665723Y-151737990D01*
X237665723Y-151737990D02*
X237618104Y-151785609D01*
X237618104Y-151785609D02*
X237570485Y-151880847D01*
X237570485Y-151880847D02*
X237570485Y-152118942D01*
X237570485Y-152118942D02*
X237618104Y-152214180D01*
X237618104Y-152214180D02*
X237665723Y-152261800D01*
X237665723Y-152261800D02*
X237760961Y-152309419D01*
X237760961Y-152309419D02*
X238046675Y-152309419D01*
X238046675Y-152309419D02*
X238141913Y-152261800D01*
X238141913Y-152261800D02*
X238189532Y-152214180D01*
X201774657Y-137689419D02*
X202107990Y-137213228D01*
X202346085Y-137689419D02*
X202346085Y-136689419D01*
X202346085Y-136689419D02*
X201965133Y-136689419D01*
X201965133Y-136689419D02*
X201869895Y-136737038D01*
X201869895Y-136737038D02*
X201822276Y-136784657D01*
X201822276Y-136784657D02*
X201774657Y-136879895D01*
X201774657Y-136879895D02*
X201774657Y-137022752D01*
X201774657Y-137022752D02*
X201822276Y-137117990D01*
X201822276Y-137117990D02*
X201869895Y-137165609D01*
X201869895Y-137165609D02*
X201965133Y-137213228D01*
X201965133Y-137213228D02*
X202346085Y-137213228D01*
X200822276Y-137689419D02*
X201393704Y-137689419D01*
X201107990Y-137689419D02*
X201107990Y-136689419D01*
X201107990Y-136689419D02*
X201203228Y-136832276D01*
X201203228Y-136832276D02*
X201298466Y-136927514D01*
X201298466Y-136927514D02*
X201393704Y-136975133D01*
X199869895Y-137689419D02*
X200441323Y-137689419D01*
X200155609Y-137689419D02*
X200155609Y-136689419D01*
X200155609Y-136689419D02*
X200250847Y-136832276D01*
X200250847Y-136832276D02*
X200346085Y-136927514D01*
X200346085Y-136927514D02*
X200441323Y-136975133D01*
X206092702Y-145844180D02*
X206140321Y-145891800D01*
X206140321Y-145891800D02*
X206283178Y-145939419D01*
X206283178Y-145939419D02*
X206378416Y-145939419D01*
X206378416Y-145939419D02*
X206521273Y-145891800D01*
X206521273Y-145891800D02*
X206616511Y-145796561D01*
X206616511Y-145796561D02*
X206664130Y-145701323D01*
X206664130Y-145701323D02*
X206711749Y-145510847D01*
X206711749Y-145510847D02*
X206711749Y-145367990D01*
X206711749Y-145367990D02*
X206664130Y-145177514D01*
X206664130Y-145177514D02*
X206616511Y-145082276D01*
X206616511Y-145082276D02*
X206521273Y-144987038D01*
X206521273Y-144987038D02*
X206378416Y-144939419D01*
X206378416Y-144939419D02*
X206283178Y-144939419D01*
X206283178Y-144939419D02*
X206140321Y-144987038D01*
X206140321Y-144987038D02*
X206092702Y-145034657D01*
X205521273Y-145367990D02*
X205616511Y-145320371D01*
X205616511Y-145320371D02*
X205664130Y-145272752D01*
X205664130Y-145272752D02*
X205711749Y-145177514D01*
X205711749Y-145177514D02*
X205711749Y-145129895D01*
X205711749Y-145129895D02*
X205664130Y-145034657D01*
X205664130Y-145034657D02*
X205616511Y-144987038D01*
X205616511Y-144987038D02*
X205521273Y-144939419D01*
X205521273Y-144939419D02*
X205330797Y-144939419D01*
X205330797Y-144939419D02*
X205235559Y-144987038D01*
X205235559Y-144987038D02*
X205187940Y-145034657D01*
X205187940Y-145034657D02*
X205140321Y-145129895D01*
X205140321Y-145129895D02*
X205140321Y-145177514D01*
X205140321Y-145177514D02*
X205187940Y-145272752D01*
X205187940Y-145272752D02*
X205235559Y-145320371D01*
X205235559Y-145320371D02*
X205330797Y-145367990D01*
X205330797Y-145367990D02*
X205521273Y-145367990D01*
X205521273Y-145367990D02*
X205616511Y-145415609D01*
X205616511Y-145415609D02*
X205664130Y-145463228D01*
X205664130Y-145463228D02*
X205711749Y-145558466D01*
X205711749Y-145558466D02*
X205711749Y-145748942D01*
X205711749Y-145748942D02*
X205664130Y-145844180D01*
X205664130Y-145844180D02*
X205616511Y-145891800D01*
X205616511Y-145891800D02*
X205521273Y-145939419D01*
X205521273Y-145939419D02*
X205330797Y-145939419D01*
X205330797Y-145939419D02*
X205235559Y-145891800D01*
X205235559Y-145891800D02*
X205187940Y-145844180D01*
X205187940Y-145844180D02*
X205140321Y-145748942D01*
X205140321Y-145748942D02*
X205140321Y-145558466D01*
X205140321Y-145558466D02*
X205187940Y-145463228D01*
X205187940Y-145463228D02*
X205235559Y-145415609D01*
X205235559Y-145415609D02*
X205330797Y-145367990D01*
D13*
%TO.C,UCU*%
G36*
X264142130Y-141118901D02*
G01*
X264533186Y-141300095D01*
X264533186Y-144199335D01*
X264533186Y-147098574D01*
X264153519Y-147261902D01*
X263994618Y-147326336D01*
X263822360Y-147384434D01*
X263743042Y-147394420D01*
X263739126Y-147361979D01*
X263733864Y-147198362D01*
X263729910Y-146910734D01*
X263727318Y-146514473D01*
X263726143Y-146024957D01*
X263726437Y-145457563D01*
X263728256Y-144827671D01*
X263731652Y-144150658D01*
X263751074Y-140937707D01*
X264142130Y-141118901D01*
G37*
G36*
X265359443Y-142051817D02*
G01*
X265402192Y-142107149D01*
X265591265Y-142414213D01*
X265773978Y-142795001D01*
X265924296Y-143190464D01*
X266016190Y-143541553D01*
X266045121Y-143764049D01*
X266055140Y-144309730D01*
X265996024Y-144869375D01*
X265873683Y-145367249D01*
X265819933Y-145504308D01*
X265704110Y-145748083D01*
X265566825Y-145999979D01*
X265429183Y-146224211D01*
X265312284Y-146384992D01*
X265237232Y-146446538D01*
X265233474Y-146432178D01*
X265225536Y-146300436D01*
X265218554Y-146045673D01*
X265212781Y-145685871D01*
X265208467Y-145239014D01*
X265205864Y-144723086D01*
X265205223Y-144156069D01*
X265206879Y-141865600D01*
X265359443Y-142051817D01*
G37*
G36*
X258876473Y-143245673D02*
G01*
X258977878Y-143275314D01*
X259015597Y-143372840D01*
X259021162Y-143578796D01*
X259021162Y-143913987D01*
X259393596Y-143913987D01*
X259766030Y-143913987D01*
X259766030Y-144174691D01*
X259766030Y-144435394D01*
X259393596Y-144435394D01*
X259021162Y-144435394D01*
X259021162Y-144807828D01*
X259021162Y-145180262D01*
X258760458Y-145180262D01*
X258499754Y-145180262D01*
X258499754Y-144807828D01*
X258499754Y-144435394D01*
X258127320Y-144435394D01*
X257754886Y-144435394D01*
X257754886Y-144174691D01*
X257754886Y-143913987D01*
X258127320Y-143913987D01*
X258499754Y-143913987D01*
X258499754Y-143578796D01*
X258501363Y-143429635D01*
X258524416Y-143299256D01*
X258600271Y-143250761D01*
X258760458Y-143243605D01*
X258876473Y-143245673D01*
G37*
G36*
X262945630Y-140906396D02*
G01*
X262951077Y-141079243D01*
X262956025Y-141374733D01*
X262960352Y-141778161D01*
X262963933Y-142274823D01*
X262966645Y-142850015D01*
X262968363Y-143489033D01*
X262968963Y-144177173D01*
X262968087Y-144730553D01*
X262964685Y-145377618D01*
X262958983Y-145962532D01*
X262951258Y-146470825D01*
X262941791Y-146888028D01*
X262930862Y-147199669D01*
X262918750Y-147391278D01*
X262905735Y-147448386D01*
X262856273Y-147374816D01*
X262744752Y-147192059D01*
X262585466Y-146923559D01*
X262390717Y-146590747D01*
X262172806Y-146215055D01*
X261944037Y-145817912D01*
X261716711Y-145420751D01*
X261503131Y-145045002D01*
X261315598Y-144712096D01*
X261166415Y-144443465D01*
X261067883Y-144260540D01*
X261032306Y-144184751D01*
X261032777Y-144182672D01*
X261075975Y-144097407D01*
X261180736Y-143906974D01*
X261334910Y-143632500D01*
X261526346Y-143295111D01*
X261742891Y-142915933D01*
X261972395Y-142516094D01*
X262202705Y-142116719D01*
X262421670Y-141738934D01*
X262617139Y-141403867D01*
X262776960Y-141132644D01*
X262888982Y-140946391D01*
X262941052Y-140866235D01*
X262945630Y-140906396D01*
G37*
G36*
X262332234Y-139335289D02*
G01*
X262841856Y-139349411D01*
X263285152Y-139370821D01*
X263634631Y-139399511D01*
X263862804Y-139435470D01*
X264475442Y-139632415D01*
X265216256Y-139998520D01*
X265884879Y-140476470D01*
X266466957Y-141051563D01*
X266948137Y-141709097D01*
X267314067Y-142434370D01*
X267550393Y-143212682D01*
X267570244Y-143317886D01*
X267624505Y-143834594D01*
X267625290Y-144403942D01*
X267515303Y-145242217D01*
X267270364Y-146033807D01*
X266898569Y-146760730D01*
X266407645Y-147412737D01*
X265805324Y-147979579D01*
X265099334Y-148451005D01*
X264297405Y-148816767D01*
X263751074Y-149016333D01*
X261553713Y-149016333D01*
X259356353Y-149016333D01*
X258810022Y-148816767D01*
X258337461Y-148619173D01*
X257607952Y-148200131D01*
X256977834Y-147689286D01*
X256451343Y-147100406D01*
X256032711Y-146447263D01*
X255726172Y-145743623D01*
X255535960Y-145003258D01*
X255466310Y-144239936D01*
X255468521Y-144208962D01*
X256415008Y-144208962D01*
X256417792Y-144367385D01*
X256505584Y-145093189D01*
X256721350Y-145752215D01*
X257071630Y-146359974D01*
X257562962Y-146931976D01*
X257565344Y-146934336D01*
X257936721Y-147277460D01*
X258299918Y-147552618D01*
X258677192Y-147766657D01*
X259090799Y-147926425D01*
X259562998Y-148038769D01*
X260116045Y-148110537D01*
X260772198Y-148148576D01*
X261553713Y-148159735D01*
X261559006Y-148159734D01*
X262339674Y-148148430D01*
X262995117Y-148110202D01*
X263547592Y-148038203D01*
X264019357Y-147925585D01*
X264432670Y-147765501D01*
X264809787Y-147551103D01*
X265172966Y-147275544D01*
X265544465Y-146931976D01*
X265660735Y-146813363D01*
X266075113Y-146308774D01*
X266374616Y-145775739D01*
X266585092Y-145170507D01*
X266617933Y-145024247D01*
X266671533Y-144578753D01*
X266682137Y-144079817D01*
X266650048Y-143591406D01*
X266575573Y-143177485D01*
X266445064Y-142784070D01*
X266113196Y-142135280D01*
X265664846Y-141553447D01*
X265117266Y-141055898D01*
X264487707Y-140659963D01*
X263793420Y-140382968D01*
X263697546Y-140360622D01*
X263399258Y-140320420D01*
X262994138Y-140289647D01*
X262510578Y-140268306D01*
X261976964Y-140256395D01*
X261421689Y-140253914D01*
X260873140Y-140260864D01*
X260359708Y-140277244D01*
X259909782Y-140303055D01*
X259551752Y-140338296D01*
X259314007Y-140382968D01*
X258646482Y-140642399D01*
X258008648Y-141031855D01*
X257462778Y-141522311D01*
X257019676Y-142099507D01*
X256690145Y-142749186D01*
X256484987Y-143457091D01*
X256415008Y-144208962D01*
X255468521Y-144208962D01*
X255521454Y-143467426D01*
X255705626Y-142699497D01*
X256023061Y-141949920D01*
X256477991Y-141232462D01*
X256738788Y-140923493D01*
X257274924Y-140432870D01*
X257896994Y-140004322D01*
X258566420Y-139662931D01*
X259244623Y-139433779D01*
X259421106Y-139404197D01*
X259751390Y-139374372D01*
X260180290Y-139351897D01*
X260680314Y-139336761D01*
X261223973Y-139328954D01*
X261421689Y-139328782D01*
X261783776Y-139328467D01*
X262332234Y-139335289D01*
G37*
D14*
%TO.C,AJ-SR04M1*%
X214140200Y-157050200D02*
X214140200Y-158380200D01*
X214140200Y-158380200D02*
X215470200Y-158380200D01*
X216740200Y-155720200D02*
X216740200Y-158380200D01*
X216740200Y-155720200D02*
X224420200Y-155720200D01*
X216740200Y-158380200D02*
X224420200Y-158380200D01*
X224420200Y-155720200D02*
X224420200Y-158380200D01*
%TO.C,BT2*%
X198111200Y-154798900D02*
X198711200Y-155098900D01*
X198111200Y-155398900D02*
X198111200Y-154798900D01*
X198601200Y-149988900D02*
X198601200Y-151208900D01*
X198601200Y-151208900D02*
X200801200Y-151208900D01*
X198601200Y-156488900D02*
X198601200Y-157708900D01*
X198601200Y-157708900D02*
X207021200Y-157708900D01*
X198711200Y-155098900D02*
X198111200Y-155398900D01*
X200801200Y-151208900D02*
X200801200Y-149988900D01*
X200801200Y-153928900D02*
X200801200Y-153768900D01*
X200801200Y-156488900D02*
X198601200Y-156488900D01*
X200801200Y-156488900D02*
X200801200Y-157708900D01*
X201801200Y-152278900D02*
X201801200Y-152598900D01*
X201801200Y-152598900D02*
X201801200Y-152918900D01*
X201801200Y-152918900D02*
X205221200Y-152918900D01*
X201801200Y-154778900D02*
X201801200Y-155098900D01*
X201801200Y-155098900D02*
X201801200Y-155418900D01*
X201801200Y-155418900D02*
X205221200Y-155418900D01*
X201801200Y-156488900D02*
X201801200Y-151208900D01*
X205221200Y-152278900D02*
X201801200Y-152278900D01*
X205221200Y-152918900D02*
X205301200Y-152598900D01*
X205221200Y-154778900D02*
X201801200Y-154778900D01*
X205221200Y-155418900D02*
X205301200Y-155098900D01*
X205301200Y-152598900D02*
X205221200Y-152278900D01*
X205301200Y-155098900D02*
X205221200Y-154778900D01*
X205801200Y-149988900D02*
X205801200Y-151208900D01*
X205801200Y-151208900D02*
X200801200Y-151208900D01*
X205801200Y-156488900D02*
X200801200Y-156488900D01*
X205801200Y-157708900D02*
X205801200Y-156488900D01*
X207021200Y-149988900D02*
X198601200Y-149988900D01*
X207021200Y-157708900D02*
X207021200Y-149988900D01*
%TO.C,C3*%
X238206364Y-150289400D02*
X238422036Y-150289400D01*
X238206364Y-151009400D02*
X238422036Y-151009400D01*
%TO.C,R11*%
X200203559Y-138509200D02*
X200510841Y-138509200D01*
X200203559Y-139269200D02*
X200510841Y-139269200D01*
%TO.C,C8*%
X205926036Y-146504800D02*
X205710364Y-146504800D01*
X205926036Y-147224800D02*
X205710364Y-147224800D01*
%TD*%
D15*
X187631800Y-127887000D02*
X275631800Y-127887000D01*
X275631800Y-160887000D01*
X187631800Y-160887000D01*
X187631800Y-127887000D01*
M02*
