%TF.GenerationSoftware,KiCad,Pcbnew,9.0.3*%
%TF.CreationDate,2025-10-28T23:27:35-03:00*%
%TF.ProjectId,PcbArroz,50636241-7272-46f7-9a2e-6b696361645f,rev?*%
%TF.SameCoordinates,Original*%
%TF.FileFunction,Soldermask,Bot*%
%TF.FilePolarity,Negative*%
%FSLAX46Y46*%
G04 Gerber Fmt 4.6, Leading zero omitted, Abs format (unit mm)*
G04 Created by KiCad (PCBNEW 9.0.3) date 2025-10-28 23:27:35*
%MOMM*%
%LPD*%
G01*
G04 APERTURE LIST*
G04 Aperture macros list*
%AMRoundRect*
0 Rectangle with rounded corners*
0 $1 Rounding radius*
0 $2 $3 $4 $5 $6 $7 $8 $9 X,Y pos of 4 corners*
0 Add a 4 corners polygon primitive as box body*
4,1,4,$2,$3,$4,$5,$6,$7,$8,$9,$2,$3,0*
0 Add four circle primitives for the rounded corners*
1,1,$1+$1,$2,$3*
1,1,$1+$1,$4,$5*
1,1,$1+$1,$6,$7*
1,1,$1+$1,$8,$9*
0 Add four rect primitives between the rounded corners*
20,1,$1+$1,$2,$3,$4,$5,0*
20,1,$1+$1,$4,$5,$6,$7,0*
20,1,$1+$1,$6,$7,$8,$9,0*
20,1,$1+$1,$8,$9,$2,$3,0*%
G04 Aperture macros list end*
%ADD10C,3.200000*%
%ADD11C,0.700000*%
%ADD12O,2.400000X0.900000*%
%ADD13O,1.700000X0.900000*%
%ADD14RoundRect,0.250000X0.550000X0.550000X-0.550000X0.550000X-0.550000X-0.550000X0.550000X-0.550000X0*%
%ADD15C,1.600000*%
%ADD16R,1.700000X1.700000*%
%ADD17C,1.700000*%
%ADD18RoundRect,0.250000X0.750000X-0.600000X0.750000X0.600000X-0.750000X0.600000X-0.750000X-0.600000X0*%
%ADD19O,2.000000X1.700000*%
%ADD20RoundRect,0.140000X-0.140000X-0.170000X0.140000X-0.170000X0.140000X0.170000X-0.140000X0.170000X0*%
%ADD21RoundRect,0.135000X-0.135000X-0.185000X0.135000X-0.185000X0.135000X0.185000X-0.135000X0.185000X0*%
%ADD22RoundRect,0.140000X0.140000X0.170000X-0.140000X0.170000X-0.140000X-0.170000X0.140000X-0.170000X0*%
%TA.AperFunction,Profile*%
%ADD23C,0.050000*%
%TD*%
G04 APERTURE END LIST*
D10*
%TO.C,REF\u002A\u002A*%
X191631800Y-156984600D03*
%TD*%
%TO.C,REF\u002A\u002A*%
X271682600Y-131580800D03*
%TD*%
%TO.C,REF\u002A\u002A*%
X191381800Y-131234600D03*
%TD*%
%TO.C,REF\u002A\u002A*%
X271682600Y-156580800D03*
%TD*%
D11*
%TO.C,J2*%
X198114800Y-137214800D03*
X198114800Y-138064800D03*
X198114800Y-138914800D03*
X198114800Y-139764800D03*
X198114800Y-140614800D03*
X198114800Y-141464800D03*
X198114800Y-142314800D03*
X198114800Y-143164800D03*
X196764800Y-143164800D03*
X196764800Y-142314800D03*
X196764800Y-141464800D03*
X196764800Y-140614800D03*
X196764800Y-139764800D03*
X196764800Y-138914800D03*
X196764800Y-138064800D03*
X196764800Y-137214800D03*
D12*
X197134800Y-135864800D03*
D13*
X193754800Y-135864800D03*
D12*
X197134800Y-144514800D03*
D13*
X193754800Y-144514800D03*
%TD*%
D14*
%TO.C,SW2*%
X205686800Y-130734600D03*
D15*
X198066800Y-130734600D03*
%TD*%
D16*
%TO.C,AJ-SR04M1*%
X215470200Y-157050200D03*
D17*
X218010200Y-157050200D03*
X220550200Y-157050200D03*
X223090200Y-157050200D03*
%TD*%
D18*
%TO.C,BT2*%
X200211200Y-155098900D03*
D19*
X200211200Y-152598900D03*
%TD*%
D20*
%TO.C,C3*%
X237834200Y-150649400D03*
X238794200Y-150649400D03*
%TD*%
D21*
%TO.C,R11*%
X199847200Y-138889200D03*
X200867200Y-138889200D03*
%TD*%
D22*
%TO.C,C8*%
X206298200Y-146864800D03*
X205338200Y-146864800D03*
%TD*%
D23*
X187631800Y-127887000D02*
X275631800Y-127887000D01*
X275631800Y-160887000D01*
X187631800Y-160887000D01*
X187631800Y-127887000D01*
M02*
