M48
; DRILL file {KiCad 9.0.3} date 2025-10-30T20:26:16-0300
; FORMAT={-:-/ absolute / metric / decimal}
; #@! TF.CreationDate,2025-10-30T20:26:16-03:00
; #@! TF.GenerationSoftware,Kicad,Pcbnew,9.0.3
; #@! TF.FileFunction,Plated,1,4,PTH
FMAT,2
METRIC
; #@! TA.AperFunction,Plated,PTH,ViaDrill
T1C0.300
; #@! TA.AperFunction,Plated,PTH,ComponentDrill
T2C0.400
; #@! TA.AperFunction,Plated,PTH,ComponentDrill
T3C0.500
; #@! TA.AperFunction,Plated,PTH,ComponentDrill
T4C0.600
; #@! TA.AperFunction,Plated,PTH,ComponentDrill
T5C0.800
; #@! TA.AperFunction,Plated,PTH,ComponentDrill
T6C1.000
%
G90
G05
T1
X29.007Y-67.183
X29.25Y-51.25
X29.54Y-57.201
X30.0Y-42.0
X30.709Y-55.956
X32.08Y-69.571
X32.487Y-40.665
X33.249Y-51.918
X33.299Y-42.139
X33.5Y-44.5
X34.5Y-48.477
X34.722Y-67.259
X34.849Y-73.889
X35.966Y-44.882
X36.5Y-40.0
X36.525Y-71.704
X36.703Y-52.121
X36.805Y-76.53
X36.83Y-53.696
X37.0Y-44.0
X37.0Y-51.0
X37.059Y-45.974
X37.5Y-60.0
X37.5Y-61.0
X37.5Y-62.0
X37.5Y-63.0
X37.5Y-64.0
X37.5Y-65.0
X37.5Y-66.0
X37.5Y-67.0
X37.5Y-68.0
X37.5Y-69.0
X37.5Y-70.0
X37.5Y-71.0
X37.871Y-54.788
X38.0Y-59.0
X38.5Y-40.5
X38.5Y-48.5
X38.532Y-33.884
X39.0Y-58.0
X39.5Y-44.0
X39.5Y-61.0
X39.5Y-62.0
X39.5Y-63.0
X39.5Y-64.0
X39.5Y-65.0
X39.5Y-66.0
X39.5Y-67.0
X39.5Y-68.0
X39.5Y-69.0
X39.5Y-70.0
X39.5Y-71.0
X40.0Y-53.739
X40.0Y-57.0
X40.0Y-60.0
X40.03Y-76.454
X40.081Y-71.78
X40.132Y-33.833
X41.0Y-56.5
X41.0Y-59.0
X41.5Y-43.0
X41.808Y-74.117
X42.0Y-56.5
X42.0Y-58.5
X42.088Y-33.833
X43.0Y-37.0
X43.0Y-56.5
X43.0Y-58.5
X43.5Y-45.0
X44.247Y-33.884
X44.323Y-55.093
X44.5Y-45.0
X44.933Y-67.539
X45.229Y-38.729
X45.568Y-34.925
X46.304Y-58.699
X46.5Y-45.072
X47.0Y-34.25
X47.453Y-37.953
X47.854Y-54.508
X48.0Y-47.0
X48.0Y-50.0
X48.5Y-41.0
X48.946Y-52.07
X49.0Y-43.75
X49.53Y-67.64
X50.267Y-53.188
X50.5Y-34.5
X50.648Y-46.787
X51.029Y-68.555
X51.41Y-74.346
X51.486Y-42.52
X51.5Y-70.0
X52.172Y-57.633
X52.375Y-65.303
X52.68Y-33.884
X53.0Y-40.0
X53.0Y-44.0
X53.823Y-54.966
X54.006Y-45.811
X54.026Y-66.726
X54.661Y-35.331
X55.0Y-38.5
X55.25Y-53.5
X56.0Y-36.71
X56.0Y-56.0
X56.286Y-51.511
X56.871Y-46.99
X57.0Y-48.5
X57.6Y-39.4
X57.75Y-64.75
X57.887Y-37.135
X58.0Y-34.0
X58.5Y-62.0
X58.623Y-56.388
X58.903Y-68.097
X59.75Y-43.5
X59.75Y-47.75
X59.766Y-54.0
X59.792Y-64.77
X60.249Y-62.23
X60.572Y-44.928
X61.0Y-59.0
X61.0Y-63.5
X61.75Y-43.59
X62.15Y-46.5
X62.75Y-35.5
X63.0Y-55.5
X63.0Y-60.5
X63.043Y-34.214
X63.627Y-41.3
X63.667Y-48.59
X64.0Y-54.0
X64.0Y-71.5
X64.237Y-33.807
X65.811Y-57.455
X66.167Y-51.802
X66.345Y-48.362
X66.5Y-36.5
X66.548Y-44.552
X67.006Y-40.994
X67.208Y-34.544
X67.742Y-33.858
X68.34Y-46.34
X69.25Y-61.75
X69.774Y-66.015
X70.0Y-53.0
X70.307Y-44.374
X70.383Y-48.362
X71.0Y-60.0
X71.45Y-54.915
X72.092Y-39.092
X72.365Y-35.433
X73.0Y-55.0
X73.787Y-56.82
X75.0Y-35.0
X75.0Y-37.0
X75.5Y-60.5
X75.844Y-35.814
X76.0Y-45.0
X76.25Y-42.25
X76.715Y-47.215
X77.0Y-51.0
X77.0Y-53.0
X77.165Y-65.989
X77.292Y-43.104
X78.994Y-59.69
X79.273Y-62.408
X79.4Y-58.674
X80.923Y-47.0
X81.0Y-36.99
X81.102Y-35.509
X81.94Y-43.078
X81.94Y-57.048
X82.448Y-37.541
X83.11Y-71.5
X85.0Y-43.0
X89.0Y-43.0
X91.084Y-69.367
X91.719Y-54.94
X93.243Y-71.806
X93.5Y-58.5
X93.5Y-59.5
X93.5Y-60.5
X93.5Y-61.5
X93.5Y-62.5
X93.5Y-63.5
X93.5Y-64.5
X93.5Y-65.5
X93.5Y-66.5
X95.5Y-58.5
X95.5Y-59.5
X95.5Y-60.5
X95.5Y-61.5
X95.5Y-62.5
X95.5Y-63.5
X95.5Y-64.5
X95.5Y-65.5
X95.5Y-66.5
X96.418Y-72.111
X96.799Y-55.093
X98.0Y-47.0
X98.298Y-69.291
X99.25Y-60.75
X100.787Y-55.575
X100.863Y-60.655
X102.286Y-59.334
X102.692Y-53.365
T2
X30.615Y-45.285
X30.615Y-46.135
X30.615Y-46.985
X30.615Y-47.835
X30.615Y-48.685
X30.615Y-49.535
X30.615Y-50.385
X30.615Y-51.235
X31.965Y-45.285
X31.965Y-46.135
X31.965Y-46.985
X31.965Y-47.835
X31.965Y-48.685
X31.965Y-49.535
X31.965Y-50.385
X31.965Y-51.235
T3
X68.0Y-36.0
X69.0Y-36.0
X70.0Y-36.0
X71.0Y-36.0
T5
X85.0Y-35.8
X85.0Y-39.0
X87.5Y-35.8
X87.5Y-39.0
X90.0Y-35.8
X90.0Y-39.0
T6
X100.5Y-51.0
X100.5Y-53.5
T4
G00X28.005Y-43.935
M15
G01X27.205Y-43.935
M16
G05
G00X28.005Y-52.585
M15
G01X27.205Y-52.585
M16
G05
G00X31.735Y-43.935
M15
G01X30.235Y-43.935
M16
G05
G00X31.735Y-52.585
M15
G01X30.235Y-52.585
M16
G05
M30
