%TF.GenerationSoftware,KiCad,Pcbnew,9.0.3*%
%TF.CreationDate,2025-12-18T19:10:42-03:00*%
%TF.ProjectId,PCB_LoRa+GPS,5043425f-4c6f-4526-912b-4750532e6b69,rev?*%
%TF.SameCoordinates,Original*%
%TF.FileFunction,Legend,Bot*%
%TF.FilePolarity,Positive*%
%FSLAX46Y46*%
G04 Gerber Fmt 4.6, Leading zero omitted, Abs format (unit mm)*
G04 Created by KiCad (PCBNEW 9.0.3) date 2025-12-18 19:10:42*
%MOMM*%
%LPD*%
G01*
G04 APERTURE LIST*
%ADD10C,0.150000*%
%ADD11C,0.120000*%
%ADD12C,0.127000*%
G04 APERTURE END LIST*
D10*
X54892857Y-52124819D02*
X55226190Y-51648628D01*
X55464285Y-52124819D02*
X55464285Y-51124819D01*
X55464285Y-51124819D02*
X55083333Y-51124819D01*
X55083333Y-51124819D02*
X54988095Y-51172438D01*
X54988095Y-51172438D02*
X54940476Y-51220057D01*
X54940476Y-51220057D02*
X54892857Y-51315295D01*
X54892857Y-51315295D02*
X54892857Y-51458152D01*
X54892857Y-51458152D02*
X54940476Y-51553390D01*
X54940476Y-51553390D02*
X54988095Y-51601009D01*
X54988095Y-51601009D02*
X55083333Y-51648628D01*
X55083333Y-51648628D02*
X55464285Y-51648628D01*
X54511904Y-51220057D02*
X54464285Y-51172438D01*
X54464285Y-51172438D02*
X54369047Y-51124819D01*
X54369047Y-51124819D02*
X54130952Y-51124819D01*
X54130952Y-51124819D02*
X54035714Y-51172438D01*
X54035714Y-51172438D02*
X53988095Y-51220057D01*
X53988095Y-51220057D02*
X53940476Y-51315295D01*
X53940476Y-51315295D02*
X53940476Y-51410533D01*
X53940476Y-51410533D02*
X53988095Y-51553390D01*
X53988095Y-51553390D02*
X54559523Y-52124819D01*
X54559523Y-52124819D02*
X53940476Y-52124819D01*
X53607142Y-51124819D02*
X52940476Y-51124819D01*
X52940476Y-51124819D02*
X53369047Y-52124819D01*
X92531009Y-51464285D02*
X92578628Y-51607142D01*
X92578628Y-51607142D02*
X92626247Y-51654761D01*
X92626247Y-51654761D02*
X92721485Y-51702380D01*
X92721485Y-51702380D02*
X92864342Y-51702380D01*
X92864342Y-51702380D02*
X92959580Y-51654761D01*
X92959580Y-51654761D02*
X93007200Y-51607142D01*
X93007200Y-51607142D02*
X93054819Y-51511904D01*
X93054819Y-51511904D02*
X93054819Y-51130952D01*
X93054819Y-51130952D02*
X92054819Y-51130952D01*
X92054819Y-51130952D02*
X92054819Y-51464285D01*
X92054819Y-51464285D02*
X92102438Y-51559523D01*
X92102438Y-51559523D02*
X92150057Y-51607142D01*
X92150057Y-51607142D02*
X92245295Y-51654761D01*
X92245295Y-51654761D02*
X92340533Y-51654761D01*
X92340533Y-51654761D02*
X92435771Y-51607142D01*
X92435771Y-51607142D02*
X92483390Y-51559523D01*
X92483390Y-51559523D02*
X92531009Y-51464285D01*
X92531009Y-51464285D02*
X92531009Y-51130952D01*
X92054819Y-51988095D02*
X92054819Y-52559523D01*
X93054819Y-52273809D02*
X92054819Y-52273809D01*
X92150057Y-52845238D02*
X92102438Y-52892857D01*
X92102438Y-52892857D02*
X92054819Y-52988095D01*
X92054819Y-52988095D02*
X92054819Y-53226190D01*
X92054819Y-53226190D02*
X92102438Y-53321428D01*
X92102438Y-53321428D02*
X92150057Y-53369047D01*
X92150057Y-53369047D02*
X92245295Y-53416666D01*
X92245295Y-53416666D02*
X92340533Y-53416666D01*
X92340533Y-53416666D02*
X92483390Y-53369047D01*
X92483390Y-53369047D02*
X93054819Y-52797619D01*
X93054819Y-52797619D02*
X93054819Y-53416666D01*
X69960714Y-80566009D02*
X69817857Y-80613628D01*
X69817857Y-80613628D02*
X69770238Y-80661247D01*
X69770238Y-80661247D02*
X69722619Y-80756485D01*
X69722619Y-80756485D02*
X69722619Y-80899342D01*
X69722619Y-80899342D02*
X69770238Y-80994580D01*
X69770238Y-80994580D02*
X69817857Y-81042200D01*
X69817857Y-81042200D02*
X69913095Y-81089819D01*
X69913095Y-81089819D02*
X70294047Y-81089819D01*
X70294047Y-81089819D02*
X70294047Y-80089819D01*
X70294047Y-80089819D02*
X69960714Y-80089819D01*
X69960714Y-80089819D02*
X69865476Y-80137438D01*
X69865476Y-80137438D02*
X69817857Y-80185057D01*
X69817857Y-80185057D02*
X69770238Y-80280295D01*
X69770238Y-80280295D02*
X69770238Y-80375533D01*
X69770238Y-80375533D02*
X69817857Y-80470771D01*
X69817857Y-80470771D02*
X69865476Y-80518390D01*
X69865476Y-80518390D02*
X69960714Y-80566009D01*
X69960714Y-80566009D02*
X70294047Y-80566009D01*
X69436904Y-80089819D02*
X68865476Y-80089819D01*
X69151190Y-81089819D02*
X69151190Y-80089819D01*
X68008333Y-81089819D02*
X68579761Y-81089819D01*
X68294047Y-81089819D02*
X68294047Y-80089819D01*
X68294047Y-80089819D02*
X68389285Y-80232676D01*
X68389285Y-80232676D02*
X68484523Y-80327914D01*
X68484523Y-80327914D02*
X68579761Y-80375533D01*
X53179504Y-54496419D02*
X52608076Y-54496419D01*
X52893790Y-55496419D02*
X52893790Y-54496419D01*
X52274742Y-55496419D02*
X52274742Y-54496419D01*
X52274742Y-54496419D02*
X51893790Y-54496419D01*
X51893790Y-54496419D02*
X51798552Y-54544038D01*
X51798552Y-54544038D02*
X51750933Y-54591657D01*
X51750933Y-54591657D02*
X51703314Y-54686895D01*
X51703314Y-54686895D02*
X51703314Y-54829752D01*
X51703314Y-54829752D02*
X51750933Y-54924990D01*
X51750933Y-54924990D02*
X51798552Y-54972609D01*
X51798552Y-54972609D02*
X51893790Y-55020228D01*
X51893790Y-55020228D02*
X52274742Y-55020228D01*
X51131885Y-54924990D02*
X51227123Y-54877371D01*
X51227123Y-54877371D02*
X51274742Y-54829752D01*
X51274742Y-54829752D02*
X51322361Y-54734514D01*
X51322361Y-54734514D02*
X51322361Y-54686895D01*
X51322361Y-54686895D02*
X51274742Y-54591657D01*
X51274742Y-54591657D02*
X51227123Y-54544038D01*
X51227123Y-54544038D02*
X51131885Y-54496419D01*
X51131885Y-54496419D02*
X50941409Y-54496419D01*
X50941409Y-54496419D02*
X50846171Y-54544038D01*
X50846171Y-54544038D02*
X50798552Y-54591657D01*
X50798552Y-54591657D02*
X50750933Y-54686895D01*
X50750933Y-54686895D02*
X50750933Y-54734514D01*
X50750933Y-54734514D02*
X50798552Y-54829752D01*
X50798552Y-54829752D02*
X50846171Y-54877371D01*
X50846171Y-54877371D02*
X50941409Y-54924990D01*
X50941409Y-54924990D02*
X51131885Y-54924990D01*
X51131885Y-54924990D02*
X51227123Y-54972609D01*
X51227123Y-54972609D02*
X51274742Y-55020228D01*
X51274742Y-55020228D02*
X51322361Y-55115466D01*
X51322361Y-55115466D02*
X51322361Y-55305942D01*
X51322361Y-55305942D02*
X51274742Y-55401180D01*
X51274742Y-55401180D02*
X51227123Y-55448800D01*
X51227123Y-55448800D02*
X51131885Y-55496419D01*
X51131885Y-55496419D02*
X50941409Y-55496419D01*
X50941409Y-55496419D02*
X50846171Y-55448800D01*
X50846171Y-55448800D02*
X50798552Y-55401180D01*
X50798552Y-55401180D02*
X50750933Y-55305942D01*
X50750933Y-55305942D02*
X50750933Y-55115466D01*
X50750933Y-55115466D02*
X50798552Y-55020228D01*
X50798552Y-55020228D02*
X50846171Y-54972609D01*
X50846171Y-54972609D02*
X50941409Y-54924990D01*
X50650057Y-53404761D02*
X50602438Y-53309523D01*
X50602438Y-53309523D02*
X50507200Y-53214285D01*
X50507200Y-53214285D02*
X50364342Y-53071428D01*
X50364342Y-53071428D02*
X50316723Y-52976190D01*
X50316723Y-52976190D02*
X50316723Y-52880952D01*
X50554819Y-52928571D02*
X50507200Y-52833333D01*
X50507200Y-52833333D02*
X50411961Y-52738095D01*
X50411961Y-52738095D02*
X50221485Y-52690476D01*
X50221485Y-52690476D02*
X49888152Y-52690476D01*
X49888152Y-52690476D02*
X49697676Y-52738095D01*
X49697676Y-52738095D02*
X49602438Y-52833333D01*
X49602438Y-52833333D02*
X49554819Y-52928571D01*
X49554819Y-52928571D02*
X49554819Y-53119047D01*
X49554819Y-53119047D02*
X49602438Y-53214285D01*
X49602438Y-53214285D02*
X49697676Y-53309523D01*
X49697676Y-53309523D02*
X49888152Y-53357142D01*
X49888152Y-53357142D02*
X50221485Y-53357142D01*
X50221485Y-53357142D02*
X50411961Y-53309523D01*
X50411961Y-53309523D02*
X50507200Y-53214285D01*
X50507200Y-53214285D02*
X50554819Y-53119047D01*
X50554819Y-53119047D02*
X50554819Y-52928571D01*
X50554819Y-54309523D02*
X50554819Y-53738095D01*
X50554819Y-54023809D02*
X49554819Y-54023809D01*
X49554819Y-54023809D02*
X49697676Y-53928571D01*
X49697676Y-53928571D02*
X49792914Y-53833333D01*
X49792914Y-53833333D02*
X49840533Y-53738095D01*
X52642857Y-49784819D02*
X52976190Y-49308628D01*
X53214285Y-49784819D02*
X53214285Y-48784819D01*
X53214285Y-48784819D02*
X52833333Y-48784819D01*
X52833333Y-48784819D02*
X52738095Y-48832438D01*
X52738095Y-48832438D02*
X52690476Y-48880057D01*
X52690476Y-48880057D02*
X52642857Y-48975295D01*
X52642857Y-48975295D02*
X52642857Y-49118152D01*
X52642857Y-49118152D02*
X52690476Y-49213390D01*
X52690476Y-49213390D02*
X52738095Y-49261009D01*
X52738095Y-49261009D02*
X52833333Y-49308628D01*
X52833333Y-49308628D02*
X53214285Y-49308628D01*
X52261904Y-48880057D02*
X52214285Y-48832438D01*
X52214285Y-48832438D02*
X52119047Y-48784819D01*
X52119047Y-48784819D02*
X51880952Y-48784819D01*
X51880952Y-48784819D02*
X51785714Y-48832438D01*
X51785714Y-48832438D02*
X51738095Y-48880057D01*
X51738095Y-48880057D02*
X51690476Y-48975295D01*
X51690476Y-48975295D02*
X51690476Y-49070533D01*
X51690476Y-49070533D02*
X51738095Y-49213390D01*
X51738095Y-49213390D02*
X52309523Y-49784819D01*
X52309523Y-49784819D02*
X51690476Y-49784819D01*
X50833333Y-48784819D02*
X51023809Y-48784819D01*
X51023809Y-48784819D02*
X51119047Y-48832438D01*
X51119047Y-48832438D02*
X51166666Y-48880057D01*
X51166666Y-48880057D02*
X51261904Y-49022914D01*
X51261904Y-49022914D02*
X51309523Y-49213390D01*
X51309523Y-49213390D02*
X51309523Y-49594342D01*
X51309523Y-49594342D02*
X51261904Y-49689580D01*
X51261904Y-49689580D02*
X51214285Y-49737200D01*
X51214285Y-49737200D02*
X51119047Y-49784819D01*
X51119047Y-49784819D02*
X50928571Y-49784819D01*
X50928571Y-49784819D02*
X50833333Y-49737200D01*
X50833333Y-49737200D02*
X50785714Y-49689580D01*
X50785714Y-49689580D02*
X50738095Y-49594342D01*
X50738095Y-49594342D02*
X50738095Y-49356247D01*
X50738095Y-49356247D02*
X50785714Y-49261009D01*
X50785714Y-49261009D02*
X50833333Y-49213390D01*
X50833333Y-49213390D02*
X50928571Y-49165771D01*
X50928571Y-49165771D02*
X51119047Y-49165771D01*
X51119047Y-49165771D02*
X51214285Y-49213390D01*
X51214285Y-49213390D02*
X51261904Y-49261009D01*
X51261904Y-49261009D02*
X51309523Y-49356247D01*
D11*
%TO.C,R27*%
X54096359Y-50120000D02*
X54403641Y-50120000D01*
X54096359Y-50880000D02*
X54403641Y-50880000D01*
%TO.C,BT2*%
X93690000Y-48390000D02*
X93690000Y-56110000D01*
X93690000Y-56110000D02*
X102110000Y-56110000D01*
X94910000Y-48390000D02*
X94910000Y-49610000D01*
X94910000Y-49610000D02*
X99910000Y-49610000D01*
X94910000Y-54890000D02*
X99910000Y-54890000D01*
X94910000Y-56110000D02*
X94910000Y-54890000D01*
X95410000Y-51000000D02*
X95490000Y-51320000D01*
X95410000Y-53500000D02*
X95490000Y-53820000D01*
X95490000Y-50680000D02*
X95410000Y-51000000D01*
X95490000Y-51320000D02*
X98910000Y-51320000D01*
X95490000Y-53180000D02*
X95410000Y-53500000D01*
X95490000Y-53820000D02*
X98910000Y-53820000D01*
X98910000Y-49610000D02*
X98910000Y-54890000D01*
X98910000Y-50680000D02*
X95490000Y-50680000D01*
X98910000Y-51000000D02*
X98910000Y-50680000D01*
X98910000Y-51320000D02*
X98910000Y-51000000D01*
X98910000Y-53180000D02*
X95490000Y-53180000D01*
X98910000Y-53500000D02*
X98910000Y-53180000D01*
X98910000Y-53820000D02*
X98910000Y-53500000D01*
X99910000Y-49610000D02*
X99910000Y-48390000D01*
X99910000Y-49610000D02*
X102110000Y-49610000D01*
X99910000Y-52170000D02*
X99910000Y-52330000D01*
X99910000Y-54890000D02*
X99910000Y-56110000D01*
X102000000Y-51000000D02*
X102600000Y-50700000D01*
X102110000Y-48390000D02*
X93690000Y-48390000D01*
X102110000Y-49610000D02*
X102110000Y-48390000D01*
X102110000Y-54890000D02*
X99910000Y-54890000D01*
X102110000Y-56110000D02*
X102110000Y-54890000D01*
X102600000Y-50700000D02*
X102600000Y-51300000D01*
X102600000Y-51300000D02*
X102000000Y-51000000D01*
D12*
%TO.C,BT1*%
X63765000Y-71660000D02*
X64765000Y-71660000D01*
X64265000Y-72160000D02*
X64265000Y-71160000D01*
X68090000Y-64300000D02*
X71040000Y-64300000D01*
X68090000Y-68650000D02*
X68090000Y-64300000D01*
X68090000Y-74350000D02*
X68090000Y-78700000D01*
X68090000Y-78700000D02*
X71040000Y-78700000D01*
X71040000Y-64300000D02*
X71040000Y-64620000D01*
X71040000Y-78700000D02*
X71040000Y-78380000D01*
X85685000Y-71590000D02*
X86685000Y-71590000D01*
X67727000Y-69836000D02*
G75*
G02*
X68090000Y-68650000I7288684J-1582302D01*
G01*
X68090000Y-74350000D02*
G75*
G02*
X67727000Y-73164000I6925684J2768302D01*
G01*
X71040000Y-78380000D02*
G75*
G02*
X71235000Y-78165000I205000J10000D01*
G01*
X71235000Y-64835000D02*
G75*
G02*
X71039999Y-64620000I9997J204998D01*
G01*
X71235000Y-78165000D02*
G75*
G02*
X71415000Y-78205000I16990J-348547D01*
G01*
X71415000Y-64795000D02*
G75*
G02*
X71235000Y-64835000I-163010J308547D01*
G01*
X71415000Y-64795000D02*
G75*
G02*
X75290000Y-63755000I3872978J-6691516D01*
G01*
X75290000Y-63755000D02*
G75*
G02*
X82854000Y-69835001I117J-7744961D01*
G01*
X75290000Y-79245000D02*
G75*
G02*
X71415000Y-78205000I-2022J7731516D01*
G01*
X82854000Y-73164999D02*
G75*
G02*
X75290000Y-79245000I-7563883J1664960D01*
G01*
D11*
%TO.C,TP8*%
X51217600Y-55789600D02*
X51217600Y-57189600D01*
X51217600Y-57189600D02*
X52617600Y-57189600D01*
X52617600Y-55789600D02*
X51217600Y-55789600D01*
X52617600Y-57189600D02*
X52617600Y-55789600D01*
%TO.C,Q1*%
X50940000Y-53500000D02*
X50940000Y-52850000D01*
X50940000Y-53500000D02*
X50940000Y-54150000D01*
X54060000Y-53500000D02*
X54060000Y-52850000D01*
X54060000Y-53500000D02*
X54060000Y-54150000D01*
X50990000Y-52337500D02*
X50660000Y-52577500D01*
X50660000Y-52097500D01*
X50990000Y-52337500D01*
G36*
X50990000Y-52337500D02*
G01*
X50660000Y-52577500D01*
X50660000Y-52097500D01*
X50990000Y-52337500D01*
G37*
%TO.C,R26*%
X52153641Y-50120000D02*
X51846359Y-50120000D01*
X52153641Y-50880000D02*
X51846359Y-50880000D01*
%TD*%
M02*
