%TF.GenerationSoftware,KiCad,Pcbnew,9.0.3*%
%TF.CreationDate,2025-12-18T19:10:42-03:00*%
%TF.ProjectId,PCB_LoRa+GPS,5043425f-4c6f-4526-912b-4750532e6b69,rev?*%
%TF.SameCoordinates,Original*%
%TF.FileFunction,Copper,L4,Bot*%
%TF.FilePolarity,Positive*%
%FSLAX46Y46*%
G04 Gerber Fmt 4.6, Leading zero omitted, Abs format (unit mm)*
G04 Created by KiCad (PCBNEW 9.0.3) date 2025-12-18 19:10:42*
%MOMM*%
%LPD*%
G01*
G04 APERTURE LIST*
G04 Aperture macros list*
%AMRoundRect*
0 Rectangle with rounded corners*
0 $1 Rounding radius*
0 $2 $3 $4 $5 $6 $7 $8 $9 X,Y pos of 4 corners*
0 Add a 4 corners polygon primitive as box body*
4,1,4,$2,$3,$4,$5,$6,$7,$8,$9,$2,$3,0*
0 Add four circle primitives for the rounded corners*
1,1,$1+$1,$2,$3*
1,1,$1+$1,$4,$5*
1,1,$1+$1,$6,$7*
1,1,$1+$1,$8,$9*
0 Add four rect primitives between the rounded corners*
20,1,$1+$1,$2,$3,$4,$5,0*
20,1,$1+$1,$4,$5,$6,$7,0*
20,1,$1+$1,$6,$7,$8,$9,0*
20,1,$1+$1,$8,$9,$2,$3,0*%
G04 Aperture macros list end*
%TA.AperFunction,ComponentPad*%
%ADD10R,0.850000X0.850000*%
%TD*%
%TA.AperFunction,ComponentPad*%
%ADD11C,0.850000*%
%TD*%
%TA.AperFunction,ComponentPad*%
%ADD12R,1.600000X1.600000*%
%TD*%
%TA.AperFunction,ComponentPad*%
%ADD13C,1.600000*%
%TD*%
%TA.AperFunction,ComponentPad*%
%ADD14C,0.700000*%
%TD*%
%TA.AperFunction,ComponentPad*%
%ADD15O,2.400000X0.900000*%
%TD*%
%TA.AperFunction,ComponentPad*%
%ADD16O,1.700000X0.900000*%
%TD*%
%TA.AperFunction,SMDPad,CuDef*%
%ADD17RoundRect,0.135000X-0.135000X-0.185000X0.135000X-0.185000X0.135000X0.185000X-0.135000X0.185000X0*%
%TD*%
%TA.AperFunction,ComponentPad*%
%ADD18RoundRect,0.250000X-0.750000X0.600000X-0.750000X-0.600000X0.750000X-0.600000X0.750000X0.600000X0*%
%TD*%
%TA.AperFunction,ComponentPad*%
%ADD19O,2.000000X1.700000*%
%TD*%
%TA.AperFunction,SMDPad,CuDef*%
%ADD20R,3.600000X2.600000*%
%TD*%
%TA.AperFunction,SMDPad,CuDef*%
%ADD21R,1.000000X1.000000*%
%TD*%
%TA.AperFunction,SMDPad,CuDef*%
%ADD22RoundRect,0.150000X-0.150000X0.587500X-0.150000X-0.587500X0.150000X-0.587500X0.150000X0.587500X0*%
%TD*%
%TA.AperFunction,SMDPad,CuDef*%
%ADD23RoundRect,0.135000X0.135000X0.185000X-0.135000X0.185000X-0.135000X-0.185000X0.135000X-0.185000X0*%
%TD*%
%TA.AperFunction,ViaPad*%
%ADD24C,0.600000*%
%TD*%
%TA.AperFunction,ViaPad*%
%ADD25C,0.550000*%
%TD*%
%TA.AperFunction,Conductor*%
%ADD26C,0.200000*%
%TD*%
%TA.AperFunction,Conductor*%
%ADD27C,0.300000*%
%TD*%
%TA.AperFunction,Conductor*%
%ADD28C,0.500000*%
%TD*%
G04 APERTURE END LIST*
D10*
%TO.P,AJ-SR04M1,1,5V*%
%TO.N,3V3*%
X71000000Y-36000000D03*
D11*
%TO.P,AJ-SR04M1,2,GND*%
%TO.N,Net-(AJ-SR04M1-GND)*%
X70000000Y-36000000D03*
%TO.P,AJ-SR04M1,3,TRIG*%
%TO.N,TRIG_Sensor*%
X69000000Y-36000000D03*
%TO.P,AJ-SR04M1,4,ECHO*%
%TO.N,ECHO_Sensor*%
X68000000Y-36000000D03*
%TD*%
D12*
%TO.P,SW2,1,A*%
%TO.N,+BATT*%
X85000000Y-35800000D03*
D13*
%TO.P,SW2,2,B*%
%TO.N,Net-(BT2-+)*%
X87500000Y-35800000D03*
%TO.P,SW2,3*%
%TO.N,N/C*%
X90000000Y-35800000D03*
%TO.P,SW2,4*%
X85000000Y-39000000D03*
%TO.P,SW2,5*%
X87500000Y-39000000D03*
%TO.P,SW2,6*%
X90000000Y-39000000D03*
%TD*%
D14*
%TO.P,J2,A1,GND*%
%TO.N,GND*%
X31965000Y-45285000D03*
%TO.P,J2,A4,VBUS*%
%TO.N,VBUS*%
X31965000Y-46135000D03*
%TO.P,J2,A5,CC1*%
%TO.N,Net-(J2-CC1)*%
X31965000Y-46985000D03*
%TO.P,J2,A6,D+*%
%TO.N,USB_D+*%
X31965000Y-47835000D03*
%TO.P,J2,A7,D-*%
%TO.N,USB_D-*%
X31965000Y-48685000D03*
%TO.P,J2,A8,SBU1*%
%TO.N,unconnected-(J2-SBU1-PadA8)*%
X31965000Y-49535000D03*
%TO.P,J2,A9,VBUS*%
%TO.N,VBUS*%
X31965000Y-50385000D03*
%TO.P,J2,A12,GND*%
%TO.N,GND*%
X31965000Y-51235000D03*
%TO.P,J2,B1,GND*%
X30615000Y-51235000D03*
%TO.P,J2,B4,VBUS*%
%TO.N,VBUS*%
X30615000Y-50385000D03*
%TO.P,J2,B5,CC2*%
%TO.N,Net-(J2-CC2)*%
X30615000Y-49535000D03*
%TO.P,J2,B6,D+*%
%TO.N,USB_D+*%
X30615000Y-48685000D03*
%TO.P,J2,B7,D-*%
%TO.N,USB_D-*%
X30615000Y-47835000D03*
%TO.P,J2,B8,SBU2*%
%TO.N,unconnected-(J2-SBU2-PadB8)*%
X30615000Y-46985000D03*
%TO.P,J2,B9,VBUS*%
%TO.N,VBUS*%
X30615000Y-46135000D03*
%TO.P,J2,B12,GND*%
%TO.N,GND*%
X30615000Y-45285000D03*
D15*
%TO.P,J2,S1,SHIELD*%
%TO.N,unconnected-(J2-SHIELD-PadS1)_1*%
X30985000Y-43935000D03*
D16*
%TO.N,unconnected-(J2-SHIELD-PadS1)_3*%
X27605000Y-43935000D03*
D15*
%TO.N,unconnected-(J2-SHIELD-PadS1)_2*%
X30985000Y-52585000D03*
D16*
%TO.N,unconnected-(J2-SHIELD-PadS1)*%
X27605000Y-52585000D03*
%TD*%
D17*
%TO.P,R27,1*%
%TO.N,unconnected-(R26-Pad1)*%
X53740000Y-50500000D03*
%TO.P,R27,2*%
%TO.N,3V3*%
X54760000Y-50500000D03*
%TD*%
D18*
%TO.P,BT2,1,+*%
%TO.N,Net-(BT2-+)*%
X100500000Y-51000000D03*
D19*
%TO.P,BT2,2,-*%
%TO.N,GND*%
X100500000Y-53500000D03*
%TD*%
D20*
%TO.P,BT1,N*%
%TO.N,GND*%
X83110000Y-71500000D03*
%TO.P,BT1,P*%
%TO.N,VBatt*%
X67320000Y-71500000D03*
%TD*%
D21*
%TO.P,TP8,1,1*%
%TO.N,Net-(Q1-D)*%
X51917600Y-56489600D03*
%TD*%
D22*
%TO.P,Q1,1,G*%
%TO.N,Pnp_Gps*%
X51550000Y-52562500D03*
%TO.P,Q1,2,S*%
%TO.N,Net-(Q1-S)*%
X53450000Y-52562500D03*
%TO.P,Q1,3,D*%
%TO.N,Net-(Q1-D)*%
X52500000Y-54437500D03*
%TD*%
D23*
%TO.P,R26,1*%
%TO.N,unconnected-(R26-Pad1)*%
X52510000Y-50500000D03*
%TO.P,R26,2*%
%TO.N,Pnp_Gps*%
X51490000Y-50500000D03*
%TD*%
D24*
%TO.N,3V3*%
X48000000Y-50000000D03*
X99250000Y-60750000D03*
X64000000Y-54000000D03*
X62750000Y-35500000D03*
X53000000Y-40000000D03*
X56286400Y-51511200D03*
X40000000Y-53739243D03*
X70000000Y-53000000D03*
%TO.N,TRIG_Sensor*%
X63627000Y-41300400D03*
%TO.N,+BATT*%
X36500000Y-40000000D03*
%TO.N,GND*%
X39500000Y-66000000D03*
X34848800Y-73888600D03*
X52374800Y-65303400D03*
X93500000Y-61500000D03*
X91084400Y-69367400D03*
X39500000Y-63000000D03*
X40000000Y-57000000D03*
X77292200Y-43103800D03*
X98298000Y-69291200D03*
X33248600Y-51917600D03*
X41000000Y-56500000D03*
X39500000Y-68000000D03*
X77165200Y-65989200D03*
X33500000Y-44500000D03*
X66344800Y-48361600D03*
X39500000Y-69000000D03*
X102692200Y-53365400D03*
X39500000Y-65000000D03*
X49000000Y-43750000D03*
X93500000Y-63500000D03*
X93500000Y-58500000D03*
X44932600Y-67538600D03*
X79400400Y-58674000D03*
X71450200Y-54914800D03*
X36525200Y-71704200D03*
X37500000Y-62000000D03*
X93500000Y-60500000D03*
X70307200Y-44373800D03*
X100863400Y-60655200D03*
X38500000Y-40500000D03*
X75500000Y-60500000D03*
X76250000Y-42250000D03*
X66548000Y-44551600D03*
X29540200Y-57200800D03*
X29006800Y-67183000D03*
X75000000Y-35000000D03*
X68340000Y-46340000D03*
X41808400Y-74117200D03*
X43000000Y-37000000D03*
X39500000Y-67000000D03*
X56870600Y-46990000D03*
X83110000Y-71500000D03*
X37500000Y-61000000D03*
X39500000Y-64000000D03*
X57886600Y-37134800D03*
X93500000Y-66500000D03*
X63042800Y-34213800D03*
X42000000Y-56500000D03*
X52679600Y-33883600D03*
X43000000Y-56500000D03*
X100787200Y-55575200D03*
X35966400Y-44881800D03*
X39500000Y-61000000D03*
X44246800Y-33883600D03*
X81102200Y-35509200D03*
X73787000Y-56819800D03*
X95500000Y-58500000D03*
X95500000Y-63500000D03*
X64236600Y-33807400D03*
X36830000Y-53695600D03*
X34500000Y-48477200D03*
X91719400Y-54940200D03*
X37500000Y-71000000D03*
X38000000Y-59000000D03*
X96418400Y-72110600D03*
X37058600Y-45974000D03*
X60248800Y-62230000D03*
X37500000Y-63000000D03*
X96799400Y-55092600D03*
X46304200Y-58699400D03*
X70383400Y-48361600D03*
X95500000Y-61500000D03*
X47000000Y-34250000D03*
X51028600Y-68554600D03*
X75844400Y-35814000D03*
X37500000Y-65000000D03*
X54025800Y-66725800D03*
X37000000Y-51000000D03*
X40081200Y-71780400D03*
X82448400Y-37541200D03*
X95500000Y-65500000D03*
X33299400Y-42138600D03*
X42000000Y-58500000D03*
X93500000Y-64500000D03*
X34721800Y-67259200D03*
X59791600Y-64770000D03*
X49530000Y-67640200D03*
X48945800Y-52070000D03*
X81940400Y-43078400D03*
X39500000Y-44000000D03*
X36804600Y-76530200D03*
X51485800Y-42519600D03*
X39500000Y-70000000D03*
X93500000Y-59500000D03*
X95500000Y-59500000D03*
X42087800Y-33832800D03*
X41000000Y-59000000D03*
X32080200Y-69570600D03*
X40000000Y-60000000D03*
X93500000Y-65500000D03*
X44323000Y-55092600D03*
X43000000Y-58500000D03*
X40030400Y-76454000D03*
X79273400Y-62407800D03*
X38531800Y-33883600D03*
X53822600Y-54965600D03*
X72364600Y-35433000D03*
X39000000Y-58000000D03*
X65811400Y-57454800D03*
X58623200Y-56388000D03*
X30708600Y-55956200D03*
X37500000Y-67000000D03*
X32486600Y-40665400D03*
X37500000Y-68000000D03*
X51409600Y-74345800D03*
X95500000Y-62500000D03*
X59766200Y-54000400D03*
X37500000Y-66000000D03*
X36703000Y-52120800D03*
X40132000Y-33832800D03*
X81940400Y-57048400D03*
X53000000Y-44000000D03*
X47853600Y-54508400D03*
X37500000Y-70000000D03*
X95500000Y-66500000D03*
X95500000Y-64500000D03*
X73000000Y-55000000D03*
X58902600Y-68097400D03*
X102285800Y-59334400D03*
X67741800Y-33858200D03*
X95500000Y-60500000D03*
X39500000Y-62000000D03*
X50647600Y-46786800D03*
X67208400Y-34544000D03*
X39500000Y-71000000D03*
X37500000Y-60000000D03*
X93500000Y-62500000D03*
X50266600Y-53187600D03*
X37871400Y-54787800D03*
X45567600Y-34925000D03*
X66500000Y-36500000D03*
X29250000Y-51250000D03*
X54660800Y-35331400D03*
X93243400Y-71805800D03*
X78994000Y-59690000D03*
X37500000Y-64000000D03*
X81000000Y-36990000D03*
X69773800Y-66014600D03*
X37500000Y-69000000D03*
%TO.N,5V*%
X48500000Y-41000000D03*
X37000000Y-44000000D03*
%TO.N,VBUS*%
X41500000Y-43000000D03*
X38500000Y-48500000D03*
%TO.N,Tx_GPS*%
X57750000Y-64750000D03*
X61750000Y-43590000D03*
%TO.N,Rx_GPS*%
X60572000Y-44928000D03*
X58500000Y-62000000D03*
%TO.N,Net-(Q1-S)*%
X55250000Y-53500000D03*
%TO.N,Net-(J2-CC2)*%
X30000000Y-42000000D03*
%TO.N,Net-(U3-SW)*%
X45228712Y-38728712D03*
X54006000Y-45811416D03*
%TO.N,Net-(Q2-E)*%
X57000000Y-48500000D03*
X57600000Y-39400000D03*
X48000000Y-47000000D03*
%TO.N,Net-(Q4-E)*%
X55000000Y-38500000D03*
X43500000Y-45000000D03*
%TO.N,Net-(U3-PG)*%
X50500000Y-34500000D03*
X47452750Y-37952750D03*
%TO.N,U0RX_uC*%
X63000000Y-55500000D03*
X58000000Y-34000000D03*
%TO.N,Net-(U6-TXD)*%
X44500000Y-45000000D03*
X56000000Y-36710000D03*
%TO.N,Net-(U6-RXD)*%
X46500000Y-45072000D03*
X69250000Y-61750000D03*
%TO.N,Reset_LoRa*%
X59750000Y-47750000D03*
X77000000Y-53000000D03*
X56000000Y-56000000D03*
%TO.N,RX{slash}TXdone_LoRa*%
X75000000Y-37000000D03*
X98000000Y-47000000D03*
%TO.N,SCK_LoRa*%
X62150000Y-46500000D03*
X76714500Y-47214500D03*
%TO.N,CADdetect_LoRa*%
X89000000Y-43000000D03*
X85000000Y-43000000D03*
%TO.N,MISO_LoRa*%
X76000000Y-45000000D03*
X66167000Y-51802283D03*
D25*
%TO.N,NSS_LoRa*%
X63667000Y-48590000D03*
D24*
X77000000Y-51000000D03*
%TO.N,AntOff_GPS*%
X51500000Y-70000000D03*
X71000000Y-60000000D03*
%TO.N,MOSI_LoRa*%
X80923000Y-47000000D03*
X72091999Y-39091999D03*
%TO.N,Wake_GPS*%
X67006153Y-40993847D03*
X63000000Y-60500000D03*
%TO.N,VBatt*%
X61000000Y-63500000D03*
X61000000Y-59000000D03*
X64000000Y-71500000D03*
%TO.N,Net-(Q1-D)*%
X52171600Y-57632600D03*
%TO.N,unconnected-(R26-Pad1)*%
X59750000Y-43500000D03*
%TD*%
D26*
%TO.N,3V3*%
X55500000Y-50500000D02*
X54760000Y-50500000D01*
X56286400Y-51511200D02*
X56286400Y-51286400D01*
X56286400Y-51286400D02*
X55500000Y-50500000D01*
D27*
%TO.N,TRIG_Sensor*%
X68224000Y-36776000D02*
X68321430Y-36776000D01*
X68776000Y-36321430D02*
X68776000Y-36224000D01*
X64250000Y-39750000D02*
X64500000Y-39500000D01*
X64250000Y-40677400D02*
X64250000Y-39750000D01*
X68776000Y-36224000D02*
X69000000Y-36000000D01*
X63627000Y-41300400D02*
X64250000Y-40677400D01*
X64500000Y-39500000D02*
X65500000Y-39500000D01*
X65500000Y-39500000D02*
X68224000Y-36776000D01*
X68321430Y-36776000D02*
X68776000Y-36321430D01*
D28*
%TO.N,+BATT*%
X38000000Y-33000000D02*
X82200000Y-33000000D01*
X36500000Y-34500000D02*
X38000000Y-33000000D01*
X82200000Y-33000000D02*
X85000000Y-35800000D01*
X36500000Y-40000000D02*
X36500000Y-34500000D01*
%TO.N,5V*%
X38000000Y-43000000D02*
X39500000Y-43000000D01*
X39500000Y-43000000D02*
X41500000Y-41000000D01*
X41500000Y-41000000D02*
X48500000Y-41000000D01*
X37000000Y-44000000D02*
X38000000Y-43000000D01*
D27*
%TO.N,VBUS*%
X36615000Y-50385000D02*
X31965000Y-50385000D01*
X41500000Y-43000000D02*
X41500000Y-45500000D01*
X41500000Y-45500000D02*
X38500000Y-48500000D01*
X38500000Y-48500000D02*
X36615000Y-50385000D01*
%TO.N,Tx_GPS*%
X61250000Y-45750000D02*
X61250000Y-57750000D01*
X58182584Y-59000000D02*
X57422000Y-59760584D01*
X61750000Y-43590000D02*
X61750000Y-45250000D01*
X57422000Y-64422000D02*
X57750000Y-64750000D01*
X57422000Y-59760584D02*
X57422000Y-64422000D01*
X61250000Y-57750000D02*
X60000000Y-59000000D01*
X61750000Y-45250000D02*
X61250000Y-45750000D01*
X60000000Y-59000000D02*
X58182584Y-59000000D01*
%TO.N,Rx_GPS*%
X57578000Y-65578000D02*
X56750000Y-64750000D01*
X58500000Y-62000000D02*
X58500000Y-62500000D01*
X56750000Y-64750000D02*
X56750000Y-59135677D01*
X56750000Y-59135677D02*
X57595689Y-58289988D01*
X60500000Y-45000000D02*
X60572000Y-44928000D01*
X59000000Y-63000000D02*
X59000000Y-65578000D01*
X60500000Y-57500000D02*
X60500000Y-45000000D01*
X59710012Y-58289988D02*
X60500000Y-57500000D01*
X57595689Y-58289988D02*
X59710012Y-58289988D01*
X59000000Y-65578000D02*
X57578000Y-65578000D01*
X58500000Y-62500000D02*
X59000000Y-63000000D01*
D26*
%TO.N,Net-(Q1-S)*%
X53450000Y-52562500D02*
X54387500Y-53500000D01*
X54387500Y-53500000D02*
X55250000Y-53500000D01*
D27*
%TO.N,Net-(J2-CC2)*%
X30120026Y-49535000D02*
X30615000Y-49535000D01*
X29000000Y-48414974D02*
X30120026Y-49535000D01*
X29500000Y-42000000D02*
X29000000Y-42500000D01*
X29000000Y-42500000D02*
X29000000Y-48414974D01*
X30000000Y-42000000D02*
X29500000Y-42000000D01*
D26*
%TO.N,USB_D+*%
X30615000Y-48685000D02*
X30815000Y-48685000D01*
D27*
X31926873Y-47835000D02*
X31965000Y-47835000D01*
D26*
X30815000Y-48685000D02*
X31665000Y-47835000D01*
X31665000Y-47835000D02*
X31926873Y-47835000D01*
D27*
%TO.N,Net-(U3-SW)*%
X54006000Y-45811416D02*
X55000000Y-44817416D01*
X53728712Y-38728712D02*
X45228712Y-38728712D01*
X55000000Y-40000000D02*
X53728712Y-38728712D01*
X55000000Y-44817416D02*
X55000000Y-40000000D01*
%TO.N,Net-(Q2-E)*%
X49500000Y-48500000D02*
X57000000Y-48500000D01*
X57000000Y-48500000D02*
X57600000Y-47900000D01*
X48000000Y-47000000D02*
X49500000Y-48500000D01*
X57600000Y-47900000D02*
X57600000Y-39400000D01*
%TO.N,Net-(Q4-E)*%
X43500000Y-45000000D02*
X46500000Y-42000000D01*
X48750000Y-42000000D02*
X53500000Y-46750000D01*
X53500000Y-46750000D02*
X54500000Y-46750000D01*
X55750000Y-39250000D02*
X55000000Y-38500000D01*
X46500000Y-42000000D02*
X48750000Y-42000000D01*
X54500000Y-46750000D02*
X55750000Y-45500000D01*
X55750000Y-45500000D02*
X55750000Y-39250000D01*
%TO.N,Net-(U3-PG)*%
X50500000Y-34905500D02*
X50500000Y-34500000D01*
X47452750Y-37952750D02*
X50500000Y-34905500D01*
%TO.N,U0RX_uC*%
X63000000Y-55500000D02*
X62750000Y-55250000D01*
X62750000Y-46820654D02*
X62801000Y-46769654D01*
X62750000Y-46179346D02*
X62750000Y-38750000D01*
X62750000Y-55250000D02*
X62750000Y-46820654D01*
X62801000Y-46769654D02*
X62801000Y-46230346D01*
X62801000Y-46230346D02*
X62750000Y-46179346D01*
X62750000Y-38750000D02*
X58000000Y-34000000D01*
%TO.N,Net-(U6-TXD)*%
X55000000Y-47500000D02*
X56500000Y-46000000D01*
X52500000Y-47500000D02*
X55000000Y-47500000D01*
X56500000Y-46000000D02*
X56500000Y-37210000D01*
X45078000Y-44422000D02*
X49422000Y-44422000D01*
X44500000Y-45000000D02*
X45078000Y-44422000D01*
X49422000Y-44422000D02*
X52500000Y-47500000D01*
X56500000Y-37210000D02*
X56000000Y-36710000D01*
%TO.N,Net-(U6-RXD)*%
X45500000Y-46072000D02*
X45500000Y-55000000D01*
X45500000Y-55000000D02*
X57500000Y-67000000D01*
X46500000Y-45072000D02*
X45500000Y-46072000D01*
X64000000Y-67000000D02*
X69250000Y-61750000D01*
X57500000Y-67000000D02*
X64000000Y-67000000D01*
%TO.N,Reset_LoRa*%
X76500000Y-53000000D02*
X63250000Y-66250000D01*
X59995000Y-47995000D02*
X59995000Y-52005000D01*
X77000000Y-53000000D02*
X76500000Y-53000000D01*
X63250000Y-66250000D02*
X57500000Y-66250000D01*
X56000000Y-64750000D02*
X56000000Y-56000000D01*
X59750000Y-47750000D02*
X59995000Y-47995000D01*
X59995000Y-52005000D02*
X56000000Y-56000000D01*
X57500000Y-66250000D02*
X56000000Y-64750000D01*
%TO.N,RX{slash}TXdone_LoRa*%
X84567416Y-41750000D02*
X92750000Y-41750000D01*
X75000000Y-37000000D02*
X79817416Y-37000000D01*
X92750000Y-41750000D02*
X98000000Y-47000000D01*
X79817416Y-37000000D02*
X84567416Y-41750000D01*
%TO.N,SCK_LoRa*%
X75177284Y-43072000D02*
X77000000Y-44894716D01*
X65250000Y-55250000D02*
X65250000Y-51644717D01*
X62150000Y-46500000D02*
X62150000Y-55916854D01*
X62150000Y-55916854D02*
X62733146Y-56500000D01*
X62733146Y-56500000D02*
X64000000Y-56500000D01*
X73822717Y-43072000D02*
X75177284Y-43072000D01*
X77000000Y-44894716D02*
X77000000Y-46929000D01*
X77000000Y-46929000D02*
X76714500Y-47214500D01*
X64000000Y-56500000D02*
X65250000Y-55250000D01*
X65250000Y-51644717D02*
X73822717Y-43072000D01*
D26*
%TO.N,Pnp_Gps*%
X51550000Y-52562500D02*
X51472500Y-52562500D01*
X51490000Y-52502500D02*
X51550000Y-52562500D01*
X51472500Y-52562500D02*
X51355000Y-52445000D01*
X51490000Y-50730000D02*
X51490000Y-52502500D01*
X51355000Y-50595000D02*
X51490000Y-50730000D01*
D27*
%TO.N,CADdetect_LoRa*%
X85000000Y-43000000D02*
X89000000Y-43000000D01*
%TO.N,MISO_LoRa*%
X76000000Y-45000000D02*
X76000000Y-46809000D01*
X76000000Y-46809000D02*
X71006717Y-51802283D01*
X71006717Y-51802283D02*
X66167000Y-51802283D01*
%TO.N,NSS_LoRa*%
X79000000Y-48000000D02*
X77000000Y-50000000D01*
X77000000Y-41000000D02*
X79000000Y-43000000D01*
X63577000Y-46423000D02*
X68500000Y-41500000D01*
X77000000Y-50000000D02*
X77000000Y-51000000D01*
X68500000Y-41500000D02*
X70500000Y-41500000D01*
X70500000Y-41500000D02*
X71000000Y-41000000D01*
X63577000Y-48500000D02*
X63577000Y-46423000D01*
X63667000Y-48590000D02*
X63577000Y-48500000D01*
X71000000Y-41000000D02*
X77000000Y-41000000D01*
X79000000Y-43000000D02*
X79000000Y-48000000D01*
%TO.N,AntOff_GPS*%
X71000000Y-60000000D02*
X71000000Y-61920654D01*
X62920654Y-70000000D02*
X51500000Y-70000000D01*
X71000000Y-61920654D02*
X62920654Y-70000000D01*
%TO.N,MOSI_LoRa*%
X72183998Y-39000000D02*
X79000000Y-39000000D01*
X79000000Y-39000000D02*
X80923000Y-40923000D01*
X72091999Y-39091999D02*
X72183998Y-39000000D01*
X80923000Y-40923000D02*
X80923000Y-47000000D01*
%TO.N,Wake_GPS*%
X67501000Y-40499000D02*
X67000000Y-41000000D01*
X63000000Y-60500000D02*
X64500000Y-60500000D01*
X73349000Y-51651000D02*
X77269654Y-51651000D01*
X77269654Y-51651000D02*
X79501000Y-49419654D01*
X79501000Y-42792479D02*
X77207520Y-40499000D01*
X64500000Y-60500000D02*
X73349000Y-51651000D01*
X77207520Y-40499000D02*
X67501000Y-40499000D01*
X79501000Y-49419654D02*
X79501000Y-42792479D01*
D28*
%TO.N,VBatt*%
X61000000Y-63500000D02*
X61000000Y-59000000D01*
X67320000Y-71500000D02*
X64000000Y-71500000D01*
%TO.N,Net-(BT2-+)*%
X100500000Y-42500000D02*
X100500000Y-51000000D01*
X92000000Y-34000000D02*
X100500000Y-42500000D01*
X87500000Y-35800000D02*
X89300000Y-34000000D01*
X89300000Y-34000000D02*
X92000000Y-34000000D01*
D26*
%TO.N,Net-(Q1-D)*%
X52500000Y-54250000D02*
X52750000Y-54000000D01*
X51937500Y-57398500D02*
X51937500Y-55000000D01*
X51937500Y-55000000D02*
X52500000Y-54437500D01*
X52500000Y-54437500D02*
X52500000Y-54250000D01*
X52171600Y-57632600D02*
X51937500Y-57398500D01*
%TO.N,unconnected-(R26-Pad1)*%
X59750000Y-46599943D02*
X56950943Y-49399000D01*
X54500000Y-49399000D02*
X53611000Y-49399000D01*
X53611000Y-49399000D02*
X52510000Y-50500000D01*
X53740000Y-50159000D02*
X54500000Y-49399000D01*
X56950943Y-49399000D02*
X54500000Y-49399000D01*
X59750000Y-43500000D02*
X59750000Y-46599943D01*
X53740000Y-50500000D02*
X53740000Y-50159000D01*
%TD*%
%TA.AperFunction,Conductor*%
%TO.N,GND*%
G36*
X105442539Y-32520185D02*
G01*
X105488294Y-32572989D01*
X105499500Y-32624500D01*
X105499500Y-75498682D01*
X105479815Y-75565721D01*
X105463181Y-75586363D01*
X105403176Y-75646367D01*
X105184985Y-75912234D01*
X105184975Y-75912248D01*
X104993904Y-76198206D01*
X104993893Y-76198224D01*
X104831772Y-76501530D01*
X104831770Y-76501535D01*
X104700149Y-76819297D01*
X104682911Y-76876122D01*
X104644613Y-76934560D01*
X104580801Y-76963016D01*
X104511734Y-76952455D01*
X104459341Y-76906230D01*
X104442634Y-76864316D01*
X104399691Y-76648427D01*
X104399690Y-76648426D01*
X104399690Y-76648422D01*
X104299850Y-76319295D01*
X104168231Y-76001538D01*
X104164257Y-75994104D01*
X104006106Y-75698224D01*
X104006105Y-75698222D01*
X104006100Y-75698213D01*
X103815019Y-75412240D01*
X103596828Y-75146373D01*
X103596827Y-75146372D01*
X103596823Y-75146367D01*
X103353632Y-74903176D01*
X103087765Y-74684985D01*
X103087764Y-74684984D01*
X103087760Y-74684981D01*
X102801787Y-74493900D01*
X102801782Y-74493897D01*
X102801775Y-74493893D01*
X102498469Y-74331772D01*
X102498464Y-74331770D01*
X102180706Y-74200150D01*
X101851572Y-74100308D01*
X101514248Y-74033210D01*
X101514249Y-74033210D01*
X101256456Y-74007821D01*
X101171969Y-73999500D01*
X100828031Y-73999500D01*
X100749966Y-74007188D01*
X100485750Y-74033210D01*
X100148427Y-74100308D01*
X99819293Y-74200150D01*
X99501535Y-74331770D01*
X99501530Y-74331772D01*
X99198224Y-74493893D01*
X99198206Y-74493904D01*
X98912248Y-74684975D01*
X98912234Y-74684985D01*
X98646367Y-74903176D01*
X98403176Y-75146367D01*
X98184985Y-75412234D01*
X98184975Y-75412248D01*
X97993904Y-75698206D01*
X97993893Y-75698224D01*
X97831772Y-76001530D01*
X97831770Y-76001535D01*
X97700150Y-76319293D01*
X97600308Y-76648427D01*
X97533210Y-76985750D01*
X97499500Y-77328034D01*
X97499500Y-77671965D01*
X97533210Y-78014249D01*
X97600308Y-78351572D01*
X97700150Y-78680706D01*
X97831770Y-78998464D01*
X97831772Y-78998469D01*
X97993893Y-79301775D01*
X97993904Y-79301793D01*
X98184975Y-79587751D01*
X98184985Y-79587765D01*
X98403176Y-79853632D01*
X98646367Y-80096823D01*
X98646372Y-80096827D01*
X98646373Y-80096828D01*
X98912240Y-80315019D01*
X99198213Y-80506100D01*
X99198222Y-80506105D01*
X99198224Y-80506106D01*
X99501530Y-80668227D01*
X99501532Y-80668227D01*
X99501538Y-80668231D01*
X99819295Y-80799850D01*
X100148422Y-80899690D01*
X100485750Y-80966789D01*
X100828031Y-81000500D01*
X100828034Y-81000500D01*
X101171966Y-81000500D01*
X101171969Y-81000500D01*
X101514250Y-80966789D01*
X101851578Y-80899690D01*
X102180705Y-80799850D01*
X102498462Y-80668231D01*
X102801787Y-80506100D01*
X103087760Y-80315019D01*
X103353627Y-80096828D01*
X103596828Y-79853627D01*
X103815019Y-79587760D01*
X104006100Y-79301787D01*
X104168231Y-78998462D01*
X104299850Y-78680705D01*
X104317088Y-78623877D01*
X104355384Y-78565441D01*
X104419196Y-78536984D01*
X104488263Y-78547543D01*
X104540657Y-78593767D01*
X104557365Y-78635682D01*
X104600310Y-78851578D01*
X104632143Y-78956517D01*
X104700150Y-79180706D01*
X104831770Y-79498464D01*
X104831772Y-79498469D01*
X104993893Y-79801775D01*
X104993904Y-79801793D01*
X105184975Y-80087751D01*
X105184985Y-80087765D01*
X105284389Y-80208890D01*
X105403172Y-80353627D01*
X105463182Y-80413637D01*
X105496666Y-80474958D01*
X105499500Y-80501317D01*
X105499500Y-81375500D01*
X105479815Y-81442539D01*
X105427011Y-81488294D01*
X105375500Y-81499500D01*
X26624500Y-81499500D01*
X26557461Y-81479815D01*
X26511706Y-81427011D01*
X26500500Y-81375500D01*
X26500500Y-77328034D01*
X27499500Y-77328034D01*
X27499500Y-77671965D01*
X27533210Y-78014249D01*
X27600308Y-78351572D01*
X27700150Y-78680706D01*
X27831770Y-78998464D01*
X27831772Y-78998469D01*
X27993893Y-79301775D01*
X27993904Y-79301793D01*
X28184975Y-79587751D01*
X28184985Y-79587765D01*
X28403176Y-79853632D01*
X28646367Y-80096823D01*
X28646372Y-80096827D01*
X28646373Y-80096828D01*
X28912240Y-80315019D01*
X29198213Y-80506100D01*
X29198222Y-80506105D01*
X29198224Y-80506106D01*
X29501530Y-80668227D01*
X29501532Y-80668227D01*
X29501538Y-80668231D01*
X29819295Y-80799850D01*
X30148422Y-80899690D01*
X30485750Y-80966789D01*
X30828031Y-81000500D01*
X30828034Y-81000500D01*
X31171966Y-81000500D01*
X31171969Y-81000500D01*
X31514250Y-80966789D01*
X31851578Y-80899690D01*
X32180705Y-80799850D01*
X32498462Y-80668231D01*
X32801787Y-80506100D01*
X33087760Y-80315019D01*
X33353627Y-80096828D01*
X33596828Y-79853627D01*
X33815019Y-79587760D01*
X34006100Y-79301787D01*
X34168231Y-78998462D01*
X34299850Y-78680705D01*
X34399690Y-78351578D01*
X34466789Y-78014250D01*
X34500500Y-77671969D01*
X34500500Y-77328031D01*
X34466789Y-76985750D01*
X34399690Y-76648422D01*
X34299850Y-76319295D01*
X34168231Y-76001538D01*
X34164257Y-75994104D01*
X34006106Y-75698224D01*
X34006105Y-75698222D01*
X34006100Y-75698213D01*
X33815019Y-75412240D01*
X33596828Y-75146373D01*
X33596827Y-75146372D01*
X33596823Y-75146367D01*
X33550456Y-75100000D01*
X37575000Y-75100000D01*
X39475000Y-75100000D01*
X39475000Y-73010000D01*
X37575000Y-73010000D01*
X37575000Y-75100000D01*
X33550456Y-75100000D01*
X33353632Y-74903176D01*
X33087765Y-74684985D01*
X33087764Y-74684984D01*
X33087760Y-74684981D01*
X32801787Y-74493900D01*
X32801782Y-74493897D01*
X32801775Y-74493893D01*
X32498469Y-74331772D01*
X32498464Y-74331770D01*
X32180706Y-74200150D01*
X31851572Y-74100308D01*
X31514248Y-74033210D01*
X31514249Y-74033210D01*
X31256456Y-74007821D01*
X31171969Y-73999500D01*
X30828031Y-73999500D01*
X30749966Y-74007188D01*
X30485750Y-74033210D01*
X30148427Y-74100308D01*
X29819293Y-74200150D01*
X29501535Y-74331770D01*
X29501530Y-74331772D01*
X29198224Y-74493893D01*
X29198206Y-74493904D01*
X28912248Y-74684975D01*
X28912234Y-74684985D01*
X28646367Y-74903176D01*
X28403176Y-75146367D01*
X28184985Y-75412234D01*
X28184975Y-75412248D01*
X27993904Y-75698206D01*
X27993893Y-75698224D01*
X27831772Y-76001530D01*
X27831770Y-76001535D01*
X27700150Y-76319293D01*
X27600308Y-76648427D01*
X27533210Y-76985750D01*
X27499500Y-77328034D01*
X26500500Y-77328034D01*
X26500500Y-71421153D01*
X63199500Y-71421153D01*
X63199500Y-71578846D01*
X63230261Y-71733489D01*
X63230264Y-71733501D01*
X63290602Y-71879172D01*
X63290609Y-71879185D01*
X63378210Y-72010288D01*
X63378213Y-72010292D01*
X63489707Y-72121786D01*
X63489711Y-72121789D01*
X63620814Y-72209390D01*
X63620827Y-72209397D01*
X63720060Y-72250500D01*
X63766503Y-72269737D01*
X63908635Y-72298009D01*
X63921153Y-72300499D01*
X63921156Y-72300500D01*
X63921158Y-72300500D01*
X64078844Y-72300500D01*
X64078845Y-72300499D01*
X64155152Y-72285320D01*
X64233488Y-72269739D01*
X64233489Y-72269738D01*
X64233497Y-72269737D01*
X64257155Y-72259937D01*
X64304604Y-72250500D01*
X64895501Y-72250500D01*
X64962540Y-72270185D01*
X65008295Y-72322989D01*
X65019501Y-72374500D01*
X65019501Y-72847876D01*
X65025908Y-72907483D01*
X65076202Y-73042328D01*
X65076206Y-73042335D01*
X65162452Y-73157544D01*
X65162455Y-73157547D01*
X65277664Y-73243793D01*
X65277671Y-73243797D01*
X65412517Y-73294091D01*
X65412516Y-73294091D01*
X65419444Y-73294835D01*
X65472127Y-73300500D01*
X69167872Y-73300499D01*
X69227483Y-73294091D01*
X69362331Y-73243796D01*
X69477546Y-73157546D01*
X69563796Y-73042331D01*
X69614091Y-72907483D01*
X69620500Y-72847873D01*
X69620500Y-72847844D01*
X80810000Y-72847844D01*
X80816401Y-72907372D01*
X80816403Y-72907379D01*
X80866645Y-73042086D01*
X80866649Y-73042093D01*
X80952809Y-73157187D01*
X80952812Y-73157190D01*
X81067906Y-73243350D01*
X81067913Y-73243354D01*
X81202620Y-73293596D01*
X81202627Y-73293598D01*
X81262155Y-73299999D01*
X81262172Y-73300000D01*
X82860000Y-73300000D01*
X83360000Y-73300000D01*
X84957828Y-73300000D01*
X84957844Y-73299999D01*
X85017372Y-73293598D01*
X85017379Y-73293596D01*
X85152086Y-73243354D01*
X85152093Y-73243350D01*
X85267187Y-73157190D01*
X85267190Y-73157187D01*
X85353350Y-73042093D01*
X85353354Y-73042086D01*
X85403596Y-72907379D01*
X85403598Y-72907372D01*
X85409999Y-72847844D01*
X85410000Y-72847827D01*
X85410000Y-71750000D01*
X83360000Y-71750000D01*
X83360000Y-73300000D01*
X82860000Y-73300000D01*
X82860000Y-71750000D01*
X80810000Y-71750000D01*
X80810000Y-72847844D01*
X69620500Y-72847844D01*
X69620499Y-71411304D01*
X70619500Y-71411304D01*
X70619500Y-71588695D01*
X70654103Y-71762658D01*
X70654106Y-71762667D01*
X70721983Y-71926540D01*
X70721990Y-71926553D01*
X70820535Y-72074034D01*
X70820538Y-72074038D01*
X70945961Y-72199461D01*
X70945965Y-72199464D01*
X71093446Y-72298009D01*
X71093459Y-72298016D01*
X71216363Y-72348923D01*
X71257334Y-72365894D01*
X71257336Y-72365894D01*
X71257341Y-72365896D01*
X71431304Y-72400499D01*
X71431307Y-72400500D01*
X71431309Y-72400500D01*
X71608693Y-72400500D01*
X71608694Y-72400499D01*
X71666682Y-72388964D01*
X71782658Y-72365896D01*
X71782661Y-72365894D01*
X71782666Y-72365894D01*
X71946547Y-72298013D01*
X72094035Y-72199464D01*
X72219464Y-72074035D01*
X72318013Y-71926547D01*
X72385894Y-71762666D01*
X72388414Y-71750000D01*
X72420499Y-71588695D01*
X72420500Y-71588693D01*
X72420500Y-71573920D01*
X78259499Y-71573920D01*
X78288340Y-71718907D01*
X78288343Y-71718917D01*
X78344912Y-71855488D01*
X78344919Y-71855501D01*
X78427048Y-71978415D01*
X78427051Y-71978419D01*
X78531580Y-72082948D01*
X78531584Y-72082951D01*
X78654498Y-72165080D01*
X78654511Y-72165087D01*
X78761469Y-72209390D01*
X78791087Y-72221658D01*
X78791091Y-72221658D01*
X78791092Y-72221659D01*
X78936079Y-72250500D01*
X78936082Y-72250500D01*
X79083920Y-72250500D01*
X79181462Y-72231096D01*
X79228913Y-72221658D01*
X79365495Y-72165084D01*
X79488416Y-72082951D01*
X79592951Y-71978416D01*
X79675084Y-71855495D01*
X79731658Y-71718913D01*
X79731659Y-71718907D01*
X79740504Y-71674445D01*
X79740504Y-71674443D01*
X79749031Y-71631574D01*
X79760500Y-71573918D01*
X79760500Y-71426082D01*
X79760500Y-71426079D01*
X79731659Y-71281092D01*
X79731658Y-71281091D01*
X79731658Y-71281087D01*
X79725615Y-71266498D01*
X79675087Y-71144511D01*
X79675080Y-71144498D01*
X79592951Y-71021584D01*
X79592948Y-71021580D01*
X79488419Y-70917051D01*
X79488415Y-70917048D01*
X79365501Y-70834919D01*
X79365488Y-70834912D01*
X79228917Y-70778343D01*
X79228907Y-70778340D01*
X79083920Y-70749500D01*
X79083918Y-70749500D01*
X78936082Y-70749500D01*
X78936080Y-70749500D01*
X78791092Y-70778340D01*
X78791082Y-70778343D01*
X78654511Y-70834912D01*
X78654498Y-70834919D01*
X78531584Y-70917048D01*
X78531580Y-70917051D01*
X78427051Y-71021580D01*
X78427048Y-71021584D01*
X78344919Y-71144498D01*
X78344912Y-71144511D01*
X78288343Y-71281082D01*
X78288340Y-71281092D01*
X78259500Y-71426079D01*
X78259500Y-71426082D01*
X78259500Y-71573918D01*
X78259500Y-71573920D01*
X78259499Y-71573920D01*
X72420500Y-71573920D01*
X72420500Y-71411306D01*
X72420499Y-71411304D01*
X72385896Y-71237341D01*
X72385893Y-71237332D01*
X72318016Y-71073459D01*
X72318009Y-71073446D01*
X72219464Y-70925965D01*
X72219461Y-70925961D01*
X72094038Y-70800538D01*
X72094034Y-70800535D01*
X71946553Y-70701990D01*
X71946540Y-70701983D01*
X71782667Y-70634106D01*
X71782658Y-70634103D01*
X71608694Y-70599500D01*
X71608691Y-70599500D01*
X71431309Y-70599500D01*
X71431306Y-70599500D01*
X71257341Y-70634103D01*
X71257332Y-70634106D01*
X71093459Y-70701983D01*
X71093446Y-70701990D01*
X70945965Y-70800535D01*
X70945961Y-70800538D01*
X70820538Y-70925961D01*
X70820535Y-70925965D01*
X70721990Y-71073446D01*
X70721983Y-71073459D01*
X70654106Y-71237332D01*
X70654103Y-71237341D01*
X70619500Y-71411304D01*
X69620499Y-71411304D01*
X69620499Y-70152155D01*
X80810000Y-70152155D01*
X80810000Y-71250000D01*
X82860000Y-71250000D01*
X83360000Y-71250000D01*
X85410000Y-71250000D01*
X85410000Y-70600000D01*
X93575000Y-70600000D01*
X95475000Y-70600000D01*
X95475000Y-68510000D01*
X93575000Y-68510000D01*
X93575000Y-70600000D01*
X85410000Y-70600000D01*
X85410000Y-70152172D01*
X85409999Y-70152155D01*
X85403598Y-70092627D01*
X85403596Y-70092620D01*
X85353354Y-69957913D01*
X85353350Y-69957906D01*
X85267190Y-69842812D01*
X85267187Y-69842809D01*
X85152093Y-69756649D01*
X85152086Y-69756645D01*
X85017379Y-69706403D01*
X85017372Y-69706401D01*
X84957844Y-69700000D01*
X83360000Y-69700000D01*
X83360000Y-71250000D01*
X82860000Y-71250000D01*
X82860000Y-69700000D01*
X81262155Y-69700000D01*
X81202627Y-69706401D01*
X81202620Y-69706403D01*
X81067913Y-69756645D01*
X81067906Y-69756649D01*
X80952812Y-69842809D01*
X80952809Y-69842812D01*
X80866649Y-69957906D01*
X80866645Y-69957913D01*
X80816403Y-70092620D01*
X80816401Y-70092627D01*
X80810000Y-70152155D01*
X69620499Y-70152155D01*
X69620499Y-70152128D01*
X69614091Y-70092517D01*
X69563884Y-69957906D01*
X69563797Y-69957671D01*
X69563793Y-69957664D01*
X69477547Y-69842455D01*
X69477544Y-69842452D01*
X69362335Y-69756206D01*
X69362328Y-69756202D01*
X69227482Y-69705908D01*
X69227483Y-69705908D01*
X69167883Y-69699501D01*
X69167881Y-69699500D01*
X69167873Y-69699500D01*
X69167864Y-69699500D01*
X65472129Y-69699500D01*
X65472123Y-69699501D01*
X65412516Y-69705908D01*
X65277671Y-69756202D01*
X65277664Y-69756206D01*
X65162455Y-69842452D01*
X65162452Y-69842455D01*
X65076206Y-69957664D01*
X65076202Y-69957671D01*
X65025908Y-70092517D01*
X65019501Y-70152116D01*
X65019501Y-70152123D01*
X65019500Y-70152135D01*
X65019500Y-70625500D01*
X64999815Y-70692539D01*
X64947011Y-70738294D01*
X64895500Y-70749500D01*
X64304604Y-70749500D01*
X64257155Y-70740062D01*
X64233497Y-70730263D01*
X64233493Y-70730262D01*
X64233488Y-70730260D01*
X64078845Y-70699500D01*
X64078842Y-70699500D01*
X63921158Y-70699500D01*
X63921155Y-70699500D01*
X63766510Y-70730261D01*
X63766498Y-70730264D01*
X63620827Y-70790602D01*
X63620814Y-70790609D01*
X63489711Y-70878210D01*
X63489707Y-70878213D01*
X63378213Y-70989707D01*
X63378210Y-70989711D01*
X63290609Y-71120814D01*
X63290602Y-71120827D01*
X63230264Y-71266498D01*
X63230261Y-71266510D01*
X63199500Y-71421153D01*
X26500500Y-71421153D01*
X26500500Y-53660396D01*
X39199500Y-53660396D01*
X39199500Y-53818089D01*
X39230261Y-53972732D01*
X39230264Y-53972744D01*
X39290602Y-54118415D01*
X39290609Y-54118428D01*
X39378210Y-54249531D01*
X39378213Y-54249535D01*
X39489707Y-54361029D01*
X39489711Y-54361032D01*
X39620814Y-54448633D01*
X39620827Y-54448640D01*
X39766498Y-54508978D01*
X39766503Y-54508980D01*
X39921153Y-54539742D01*
X39921156Y-54539743D01*
X39921158Y-54539743D01*
X40078844Y-54539743D01*
X40078845Y-54539742D01*
X40233497Y-54508980D01*
X40379179Y-54448637D01*
X40510289Y-54361032D01*
X40621789Y-54249532D01*
X40709394Y-54118422D01*
X40716818Y-54100500D01*
X40753400Y-54012181D01*
X40769737Y-53972740D01*
X40800500Y-53818085D01*
X40800500Y-53660401D01*
X40800500Y-53660398D01*
X40800499Y-53660396D01*
X40769737Y-53505746D01*
X40740091Y-53434174D01*
X40709397Y-53360070D01*
X40709390Y-53360057D01*
X40621789Y-53228954D01*
X40621786Y-53228950D01*
X40510292Y-53117456D01*
X40510288Y-53117453D01*
X40379185Y-53029852D01*
X40379172Y-53029845D01*
X40233501Y-52969507D01*
X40233489Y-52969504D01*
X40078845Y-52938743D01*
X40078842Y-52938743D01*
X39921158Y-52938743D01*
X39921155Y-52938743D01*
X39766510Y-52969504D01*
X39766498Y-52969507D01*
X39620827Y-53029845D01*
X39620814Y-53029852D01*
X39489711Y-53117453D01*
X39489707Y-53117456D01*
X39378213Y-53228950D01*
X39378210Y-53228954D01*
X39290609Y-53360057D01*
X39290602Y-53360070D01*
X39230264Y-53505741D01*
X39230261Y-53505753D01*
X39199500Y-53660396D01*
X26500500Y-53660396D01*
X26500500Y-53489413D01*
X26520185Y-53422374D01*
X26572989Y-53376619D01*
X26642147Y-53366675D01*
X26693391Y-53386311D01*
X26754762Y-53427318D01*
X26754768Y-53427321D01*
X26754769Y-53427322D01*
X26927749Y-53498973D01*
X27097262Y-53532691D01*
X27111379Y-53535499D01*
X27111383Y-53535500D01*
X27111384Y-53535500D01*
X28098617Y-53535500D01*
X28098618Y-53535499D01*
X28282251Y-53498973D01*
X28455231Y-53427322D01*
X28610908Y-53323302D01*
X28743302Y-53190908D01*
X28847322Y-53035231D01*
X28918973Y-52862251D01*
X28955500Y-52678616D01*
X28955500Y-52491384D01*
X28918973Y-52307749D01*
X28847322Y-52134769D01*
X28847321Y-52134768D01*
X28847318Y-52134762D01*
X28743302Y-51979092D01*
X28743299Y-51979088D01*
X28610911Y-51846700D01*
X28610907Y-51846697D01*
X28455237Y-51742681D01*
X28455228Y-51742676D01*
X28282251Y-51671027D01*
X28282243Y-51671025D01*
X28098620Y-51634500D01*
X28098616Y-51634500D01*
X27111384Y-51634500D01*
X27111379Y-51634500D01*
X26927756Y-51671025D01*
X26927748Y-51671027D01*
X26754771Y-51742676D01*
X26754764Y-51742680D01*
X26693390Y-51783689D01*
X26626712Y-51804566D01*
X26559332Y-51786081D01*
X26512643Y-51734102D01*
X26500500Y-51680586D01*
X26500500Y-44839413D01*
X26520185Y-44772374D01*
X26572989Y-44726619D01*
X26642147Y-44716675D01*
X26693391Y-44736311D01*
X26754762Y-44777318D01*
X26754768Y-44777321D01*
X26754769Y-44777322D01*
X26927749Y-44848973D01*
X27100957Y-44883426D01*
X27111379Y-44885499D01*
X27111383Y-44885500D01*
X27111384Y-44885500D01*
X28098617Y-44885500D01*
X28098617Y-44885499D01*
X28201309Y-44865073D01*
X28270900Y-44871300D01*
X28326077Y-44914163D01*
X28349322Y-44980052D01*
X28349500Y-44986690D01*
X28349500Y-48479045D01*
X28368879Y-48576465D01*
X28368879Y-48576466D01*
X28374497Y-48604711D01*
X28374499Y-48604718D01*
X28423535Y-48723101D01*
X28485739Y-48816197D01*
X28494726Y-48829647D01*
X29705352Y-50040273D01*
X29705355Y-50040275D01*
X29705357Y-50040277D01*
X29734488Y-50059741D01*
X29779292Y-50113352D01*
X29788000Y-50182677D01*
X29787215Y-50187033D01*
X29764500Y-50301234D01*
X29764500Y-50468771D01*
X29797182Y-50633074D01*
X29797184Y-50633082D01*
X29851081Y-50763201D01*
X29858550Y-50832671D01*
X29851081Y-50858107D01*
X29797665Y-50987063D01*
X29797663Y-50987071D01*
X29765000Y-51151277D01*
X29765000Y-51318722D01*
X29797663Y-51482928D01*
X29797666Y-51482940D01*
X29840404Y-51586119D01*
X29847873Y-51655588D01*
X29816598Y-51718067D01*
X29789559Y-51738881D01*
X29789834Y-51739293D01*
X29629092Y-51846697D01*
X29629088Y-51846700D01*
X29496700Y-51979088D01*
X29496697Y-51979092D01*
X29392681Y-52134762D01*
X29392676Y-52134771D01*
X29321027Y-52307748D01*
X29321025Y-52307756D01*
X29284500Y-52491379D01*
X29284500Y-52678620D01*
X29321025Y-52862243D01*
X29321027Y-52862251D01*
X29392676Y-53035228D01*
X29392681Y-53035237D01*
X29496697Y-53190907D01*
X29496700Y-53190911D01*
X29629088Y-53323299D01*
X29629092Y-53323302D01*
X29784762Y-53427318D01*
X29784768Y-53427321D01*
X29784769Y-53427322D01*
X29957749Y-53498973D01*
X30127262Y-53532691D01*
X30141379Y-53535499D01*
X30141383Y-53535500D01*
X30141384Y-53535500D01*
X31828617Y-53535500D01*
X31828617Y-53535499D01*
X31839650Y-53533305D01*
X31842734Y-53532692D01*
X31842734Y-53532691D01*
X32012251Y-53498973D01*
X32185231Y-53427322D01*
X32340908Y-53323302D01*
X32473302Y-53190908D01*
X32577322Y-53035231D01*
X32648973Y-52862251D01*
X32685500Y-52678616D01*
X32685500Y-52491384D01*
X32648973Y-52307749D01*
X32577322Y-52134769D01*
X32577321Y-52134768D01*
X32577318Y-52134762D01*
X32473302Y-51979092D01*
X32473299Y-51979088D01*
X32340911Y-51846700D01*
X32340907Y-51846697D01*
X32185237Y-51742681D01*
X32185227Y-51742676D01*
X32095167Y-51705372D01*
X32054938Y-51678492D01*
X31965000Y-51588553D01*
X31964999Y-51588553D01*
X31950914Y-51602638D01*
X31889591Y-51636122D01*
X31839047Y-51636574D01*
X31828619Y-51634500D01*
X31828616Y-51634500D01*
X31511309Y-51634500D01*
X31444270Y-51614815D01*
X31398515Y-51562011D01*
X31388571Y-51492853D01*
X31417596Y-51429297D01*
X31423628Y-51422819D01*
X31608923Y-51237523D01*
X31670246Y-51204038D01*
X31720794Y-51203587D01*
X31765000Y-51212380D01*
X31765000Y-51274782D01*
X31795448Y-51348291D01*
X31851709Y-51404552D01*
X31925218Y-51435000D01*
X32004782Y-51435000D01*
X32078291Y-51404552D01*
X32134552Y-51348291D01*
X32165000Y-51274782D01*
X32165000Y-51212380D01*
X32209205Y-51203587D01*
X32278796Y-51209814D01*
X32321077Y-51237523D01*
X32719114Y-51635561D01*
X32782334Y-51482936D01*
X32782336Y-51482928D01*
X32814999Y-51318722D01*
X32815000Y-51318720D01*
X32815000Y-51159500D01*
X32834685Y-51092461D01*
X32887489Y-51046706D01*
X32939000Y-51035500D01*
X36679071Y-51035500D01*
X36763615Y-51018682D01*
X36804744Y-51010501D01*
X36923127Y-50961465D01*
X37029669Y-50890277D01*
X38602931Y-49317013D01*
X38664252Y-49283530D01*
X38666317Y-49283099D01*
X38733497Y-49269737D01*
X38879179Y-49209394D01*
X39010289Y-49121789D01*
X39121789Y-49010289D01*
X39209394Y-48879179D01*
X39269737Y-48733497D01*
X39283079Y-48666416D01*
X39315463Y-48604509D01*
X39316959Y-48602985D01*
X42005277Y-45914669D01*
X42076465Y-45808127D01*
X42092367Y-45769737D01*
X42125501Y-45689744D01*
X42137651Y-45628663D01*
X42150500Y-45564071D01*
X42150500Y-43504935D01*
X42170185Y-43437896D01*
X42171366Y-43436090D01*
X42209394Y-43379179D01*
X42269737Y-43233497D01*
X42300500Y-43078842D01*
X42300500Y-42921158D01*
X42300500Y-42921155D01*
X42300499Y-42921153D01*
X42280431Y-42820264D01*
X42269737Y-42766503D01*
X42256968Y-42735675D01*
X42209397Y-42620827D01*
X42209390Y-42620814D01*
X42121789Y-42489711D01*
X42121786Y-42489707D01*
X42010292Y-42378213D01*
X42010288Y-42378210D01*
X41879185Y-42290609D01*
X41879172Y-42290602D01*
X41733501Y-42230264D01*
X41733491Y-42230261D01*
X41625394Y-42208759D01*
X41563483Y-42176374D01*
X41528909Y-42115658D01*
X41532650Y-42045888D01*
X41561903Y-41999463D01*
X41774548Y-41786819D01*
X41835871Y-41753334D01*
X41862229Y-41750500D01*
X45530192Y-41750500D01*
X45597231Y-41770185D01*
X45642986Y-41822989D01*
X45652930Y-41892147D01*
X45623905Y-41955703D01*
X45617873Y-41962181D01*
X43397068Y-44182984D01*
X43335745Y-44216469D01*
X43333579Y-44216920D01*
X43266508Y-44230261D01*
X43266498Y-44230264D01*
X43120827Y-44290602D01*
X43120814Y-44290609D01*
X42989711Y-44378210D01*
X42989707Y-44378213D01*
X42878213Y-44489707D01*
X42878210Y-44489711D01*
X42790609Y-44620814D01*
X42790602Y-44620827D01*
X42730264Y-44766498D01*
X42730261Y-44766510D01*
X42699500Y-44921153D01*
X42699500Y-45078846D01*
X42730261Y-45233489D01*
X42730264Y-45233501D01*
X42790602Y-45379172D01*
X42790609Y-45379185D01*
X42878210Y-45510288D01*
X42878213Y-45510292D01*
X42989707Y-45621786D01*
X42989711Y-45621789D01*
X43120814Y-45709390D01*
X43120827Y-45709397D01*
X43252346Y-45763873D01*
X43266503Y-45769737D01*
X43421153Y-45800499D01*
X43421156Y-45800500D01*
X43421158Y-45800500D01*
X43578844Y-45800500D01*
X43578845Y-45800499D01*
X43733497Y-45769737D01*
X43879179Y-45709394D01*
X43931110Y-45674694D01*
X43997785Y-45653816D01*
X44065165Y-45672300D01*
X44068863Y-45674676D01*
X44120821Y-45709394D01*
X44120823Y-45709395D01*
X44120825Y-45709396D01*
X44252346Y-45763873D01*
X44266503Y-45769737D01*
X44421153Y-45800499D01*
X44421156Y-45800500D01*
X44421158Y-45800500D01*
X44578844Y-45800500D01*
X44663618Y-45783636D01*
X44721596Y-45772104D01*
X44791188Y-45778331D01*
X44846365Y-45821194D01*
X44869610Y-45887083D01*
X44867405Y-45917912D01*
X44849500Y-46007926D01*
X44849500Y-55064070D01*
X44873738Y-55185914D01*
X44873740Y-55185938D01*
X44873742Y-55185938D01*
X44874499Y-55189744D01*
X44874500Y-55189748D01*
X44923533Y-55308124D01*
X44923534Y-55308126D01*
X44923535Y-55308127D01*
X44984511Y-55399386D01*
X44994726Y-55414673D01*
X57085326Y-67505273D01*
X57085329Y-67505275D01*
X57085331Y-67505277D01*
X57191873Y-67576465D01*
X57310256Y-67625501D01*
X57310260Y-67625501D01*
X57310261Y-67625502D01*
X57435928Y-67650500D01*
X64050846Y-67650500D01*
X64117885Y-67670185D01*
X64163640Y-67722989D01*
X64173584Y-67792147D01*
X64144559Y-67855703D01*
X64138527Y-67862181D01*
X62687527Y-69313181D01*
X62626204Y-69346666D01*
X62599846Y-69349500D01*
X52004935Y-69349500D01*
X51937896Y-69329815D01*
X51936090Y-69328633D01*
X51879179Y-69290606D01*
X51879172Y-69290602D01*
X51733501Y-69230264D01*
X51733489Y-69230261D01*
X51578845Y-69199500D01*
X51578842Y-69199500D01*
X51421158Y-69199500D01*
X51421155Y-69199500D01*
X51266510Y-69230261D01*
X51266498Y-69230264D01*
X51120827Y-69290602D01*
X51120814Y-69290609D01*
X50989711Y-69378210D01*
X50989707Y-69378213D01*
X50878213Y-69489707D01*
X50878210Y-69489711D01*
X50790609Y-69620814D01*
X50790602Y-69620827D01*
X50730264Y-69766498D01*
X50730261Y-69766510D01*
X50699500Y-69921153D01*
X50699500Y-70078846D01*
X50730261Y-70233489D01*
X50730264Y-70233501D01*
X50790602Y-70379172D01*
X50790609Y-70379185D01*
X50878210Y-70510288D01*
X50878213Y-70510292D01*
X50989707Y-70621786D01*
X50989711Y-70621789D01*
X51120814Y-70709390D01*
X51120827Y-70709397D01*
X51217646Y-70749500D01*
X51266503Y-70769737D01*
X51421153Y-70800499D01*
X51421156Y-70800500D01*
X51421158Y-70800500D01*
X51578844Y-70800500D01*
X51578845Y-70800499D01*
X51733497Y-70769737D01*
X51879179Y-70709394D01*
X51936044Y-70671397D01*
X52002721Y-70650520D01*
X52004935Y-70650500D01*
X62984725Y-70650500D01*
X63069269Y-70633682D01*
X63110398Y-70625501D01*
X63228781Y-70576465D01*
X63335323Y-70505277D01*
X64350893Y-69489707D01*
X65469644Y-68370957D01*
X71505272Y-62335328D01*
X71505273Y-62335327D01*
X71505277Y-62335323D01*
X71576465Y-62228781D01*
X71603021Y-62164669D01*
X71625501Y-62110398D01*
X71650500Y-61984723D01*
X71650500Y-60671153D01*
X98449500Y-60671153D01*
X98449500Y-60828846D01*
X98480261Y-60983489D01*
X98480264Y-60983501D01*
X98540602Y-61129172D01*
X98540609Y-61129185D01*
X98628210Y-61260288D01*
X98628213Y-61260292D01*
X98739707Y-61371786D01*
X98739711Y-61371789D01*
X98870814Y-61459390D01*
X98870827Y-61459397D01*
X98944013Y-61489711D01*
X99016503Y-61519737D01*
X99171153Y-61550499D01*
X99171156Y-61550500D01*
X99171158Y-61550500D01*
X99328844Y-61550500D01*
X99328845Y-61550499D01*
X99483497Y-61519737D01*
X99629179Y-61459394D01*
X99760289Y-61371789D01*
X99871789Y-61260289D01*
X99959394Y-61129179D01*
X99960918Y-61125501D01*
X99988824Y-61058127D01*
X100019737Y-60983497D01*
X100050500Y-60828842D01*
X100050500Y-60671158D01*
X100050500Y-60671155D01*
X100050499Y-60671153D01*
X100019738Y-60516510D01*
X100019737Y-60516503D01*
X100019735Y-60516498D01*
X99959397Y-60370827D01*
X99959390Y-60370814D01*
X99871789Y-60239711D01*
X99871786Y-60239707D01*
X99760292Y-60128213D01*
X99760288Y-60128210D01*
X99629185Y-60040609D01*
X99629172Y-60040602D01*
X99483501Y-59980264D01*
X99483489Y-59980261D01*
X99328845Y-59949500D01*
X99328842Y-59949500D01*
X99171158Y-59949500D01*
X99171155Y-59949500D01*
X99016510Y-59980261D01*
X99016498Y-59980264D01*
X98870827Y-60040602D01*
X98870814Y-60040609D01*
X98739711Y-60128210D01*
X98739707Y-60128213D01*
X98628213Y-60239707D01*
X98628210Y-60239711D01*
X98540609Y-60370814D01*
X98540602Y-60370827D01*
X98480264Y-60516498D01*
X98480261Y-60516510D01*
X98449500Y-60671153D01*
X71650500Y-60671153D01*
X71650500Y-60504935D01*
X71670185Y-60437896D01*
X71671366Y-60436090D01*
X71709394Y-60379179D01*
X71711553Y-60373968D01*
X71741664Y-60301272D01*
X71769737Y-60233497D01*
X71800500Y-60078842D01*
X71800500Y-59921158D01*
X71800500Y-59921155D01*
X71800499Y-59921153D01*
X71786246Y-59849500D01*
X71769737Y-59766503D01*
X71766244Y-59758069D01*
X71709397Y-59620827D01*
X71709390Y-59620814D01*
X71621789Y-59489711D01*
X71621786Y-59489707D01*
X71510292Y-59378213D01*
X71510288Y-59378210D01*
X71379185Y-59290609D01*
X71379172Y-59290602D01*
X71373968Y-59288447D01*
X71319564Y-59244607D01*
X71297499Y-59178313D01*
X71314778Y-59110613D01*
X71333735Y-59086209D01*
X76625685Y-53794259D01*
X76687006Y-53760776D01*
X76756698Y-53765760D01*
X76760780Y-53767366D01*
X76766503Y-53769737D01*
X76889793Y-53794261D01*
X76921153Y-53800499D01*
X76921156Y-53800500D01*
X76921158Y-53800500D01*
X77078844Y-53800500D01*
X77078845Y-53800499D01*
X77233497Y-53769737D01*
X77379179Y-53709394D01*
X77510289Y-53621789D01*
X77621789Y-53510289D01*
X77709394Y-53379179D01*
X77769737Y-53233497D01*
X77800500Y-53078842D01*
X77800500Y-52921158D01*
X77800500Y-52921155D01*
X77800499Y-52921153D01*
X77796192Y-52899500D01*
X77769737Y-52766503D01*
X77769735Y-52766498D01*
X77709397Y-52620827D01*
X77709390Y-52620814D01*
X77621789Y-52489711D01*
X77621786Y-52489707D01*
X77553786Y-52421707D01*
X77520301Y-52360384D01*
X77525285Y-52290692D01*
X77567157Y-52234759D01*
X77572893Y-52231115D01*
X77572716Y-52230849D01*
X77588060Y-52220597D01*
X77619634Y-52199500D01*
X77684323Y-52156277D01*
X80006277Y-49834323D01*
X80077465Y-49727781D01*
X80092339Y-49691873D01*
X80126501Y-49609398D01*
X80134682Y-49568269D01*
X80151500Y-49483725D01*
X80151500Y-47659941D01*
X80171185Y-47592902D01*
X80223989Y-47547147D01*
X80293147Y-47537203D01*
X80356703Y-47566228D01*
X80363181Y-47572260D01*
X80412707Y-47621786D01*
X80412711Y-47621789D01*
X80543814Y-47709390D01*
X80543827Y-47709397D01*
X80685775Y-47768193D01*
X80689503Y-47769737D01*
X80844153Y-47800499D01*
X80844156Y-47800500D01*
X80844158Y-47800500D01*
X81001844Y-47800500D01*
X81001845Y-47800499D01*
X81156497Y-47769737D01*
X81269166Y-47723067D01*
X81302172Y-47709397D01*
X81302172Y-47709396D01*
X81302179Y-47709394D01*
X81433289Y-47621789D01*
X81544789Y-47510289D01*
X81632394Y-47379179D01*
X81692737Y-47233497D01*
X81723500Y-47078842D01*
X81723500Y-46921158D01*
X81723500Y-46921155D01*
X81723499Y-46921153D01*
X81692738Y-46766510D01*
X81692737Y-46766503D01*
X81690442Y-46760962D01*
X81632397Y-46620828D01*
X81632396Y-46620827D01*
X81632394Y-46620821D01*
X81594396Y-46563953D01*
X81573520Y-46497276D01*
X81573500Y-46495064D01*
X81573500Y-40858927D01*
X81548502Y-40733261D01*
X81548501Y-40733260D01*
X81548501Y-40733256D01*
X81499465Y-40614873D01*
X81499323Y-40614661D01*
X81479727Y-40585332D01*
X81428275Y-40508328D01*
X79414673Y-38494726D01*
X79377982Y-38470210D01*
X79308127Y-38423535D01*
X79305925Y-38422623D01*
X79189744Y-38374499D01*
X79189738Y-38374497D01*
X79064071Y-38349500D01*
X79064069Y-38349500D01*
X72415919Y-38349500D01*
X72368467Y-38340061D01*
X72325497Y-38322262D01*
X72325487Y-38322259D01*
X72170844Y-38291499D01*
X72170841Y-38291499D01*
X72013157Y-38291499D01*
X72013154Y-38291499D01*
X71858509Y-38322260D01*
X71858497Y-38322263D01*
X71712826Y-38382601D01*
X71712813Y-38382608D01*
X71581710Y-38470209D01*
X71581706Y-38470212D01*
X71470212Y-38581706D01*
X71470209Y-38581710D01*
X71382608Y-38712813D01*
X71382601Y-38712826D01*
X71322263Y-38858497D01*
X71322260Y-38858509D01*
X71291499Y-39013152D01*
X71291499Y-39170845D01*
X71322260Y-39325488D01*
X71322263Y-39325500D01*
X71382601Y-39471171D01*
X71382608Y-39471184D01*
X71470209Y-39602287D01*
X71470212Y-39602291D01*
X71504740Y-39636819D01*
X71538225Y-39698142D01*
X71533241Y-39767834D01*
X71491369Y-39823767D01*
X71425905Y-39848184D01*
X71417059Y-39848500D01*
X67436929Y-39848500D01*
X67311261Y-39873497D01*
X67311255Y-39873499D01*
X67192874Y-39922534D01*
X67086331Y-39993723D01*
X66903221Y-40176832D01*
X66841897Y-40210316D01*
X66839732Y-40210767D01*
X66772661Y-40224108D01*
X66772651Y-40224111D01*
X66626980Y-40284449D01*
X66626967Y-40284456D01*
X66495864Y-40372057D01*
X66495860Y-40372060D01*
X66384366Y-40483554D01*
X66384363Y-40483558D01*
X66296762Y-40614661D01*
X66296755Y-40614674D01*
X66236417Y-40760345D01*
X66236414Y-40760357D01*
X66205653Y-40915000D01*
X66205653Y-41072693D01*
X66236414Y-41227336D01*
X66236417Y-41227348D01*
X66296755Y-41373019D01*
X66296762Y-41373032D01*
X66384363Y-41504135D01*
X66384366Y-41504139D01*
X66495860Y-41615633D01*
X66495864Y-41615636D01*
X66626967Y-41703237D01*
X66626980Y-41703244D01*
X66741068Y-41750500D01*
X66772656Y-41763584D01*
X66927306Y-41794346D01*
X66927309Y-41794347D01*
X66986344Y-41794347D01*
X67053383Y-41814032D01*
X67099138Y-41866836D01*
X67109082Y-41935994D01*
X67080057Y-41999550D01*
X67074025Y-42006028D01*
X63612181Y-45467872D01*
X63550858Y-45501357D01*
X63481166Y-45496373D01*
X63425233Y-45454501D01*
X63400816Y-45389037D01*
X63400500Y-45380191D01*
X63400500Y-42222623D01*
X63420185Y-42155584D01*
X63472989Y-42109829D01*
X63542147Y-42099885D01*
X63547956Y-42100880D01*
X63548156Y-42100900D01*
X63548158Y-42100900D01*
X63705844Y-42100900D01*
X63705845Y-42100899D01*
X63860497Y-42070137D01*
X64006179Y-42009794D01*
X64137289Y-41922189D01*
X64248789Y-41810689D01*
X64336394Y-41679579D01*
X64396737Y-41533897D01*
X64410079Y-41466816D01*
X64442463Y-41404909D01*
X64443903Y-41403441D01*
X64755277Y-41092069D01*
X64826465Y-40985527D01*
X64875501Y-40867144D01*
X64877135Y-40858931D01*
X64894877Y-40769737D01*
X64900500Y-40741471D01*
X64900500Y-40274500D01*
X64920185Y-40207461D01*
X64972989Y-40161706D01*
X65024500Y-40150500D01*
X65564071Y-40150500D01*
X65648615Y-40133682D01*
X65689744Y-40125501D01*
X65808127Y-40076465D01*
X65844893Y-40051899D01*
X65914669Y-40005277D01*
X68506147Y-37413797D01*
X68546369Y-37386921D01*
X68629557Y-37352465D01*
X68736099Y-37281277D01*
X69065460Y-36951914D01*
X69126779Y-36918432D01*
X69128784Y-36918014D01*
X69269958Y-36889933D01*
X69438389Y-36820167D01*
X69438394Y-36820163D01*
X69441541Y-36818482D01*
X69443386Y-36818097D01*
X69444018Y-36817836D01*
X69444067Y-36817955D01*
X69509943Y-36804236D01*
X69558459Y-36818482D01*
X69561615Y-36820169D01*
X69730037Y-36889931D01*
X69730042Y-36889933D01*
X69730046Y-36889933D01*
X69730047Y-36889934D01*
X69908843Y-36925500D01*
X69908846Y-36925500D01*
X70091156Y-36925500D01*
X70269953Y-36889934D01*
X70269953Y-36889933D01*
X70269958Y-36889933D01*
X70281442Y-36885175D01*
X70350909Y-36877703D01*
X70372226Y-36883549D01*
X70467517Y-36919091D01*
X70527127Y-36925500D01*
X71472872Y-36925499D01*
X71513301Y-36921153D01*
X74199500Y-36921153D01*
X74199500Y-37078846D01*
X74230261Y-37233489D01*
X74230264Y-37233501D01*
X74290602Y-37379172D01*
X74290609Y-37379185D01*
X74378210Y-37510288D01*
X74378213Y-37510292D01*
X74489707Y-37621786D01*
X74489711Y-37621789D01*
X74620814Y-37709390D01*
X74620827Y-37709397D01*
X74766498Y-37769735D01*
X74766503Y-37769737D01*
X74892402Y-37794780D01*
X74921153Y-37800499D01*
X74921156Y-37800500D01*
X74921158Y-37800500D01*
X75078844Y-37800500D01*
X75078845Y-37800499D01*
X75233497Y-37769737D01*
X75379179Y-37709394D01*
X75436044Y-37671397D01*
X75502721Y-37650520D01*
X75504935Y-37650500D01*
X79496608Y-37650500D01*
X79563647Y-37670185D01*
X79584289Y-37686819D01*
X84152740Y-42255271D01*
X84152743Y-42255274D01*
X84196513Y-42284520D01*
X84196516Y-42284521D01*
X84200529Y-42287203D01*
X84259289Y-42326465D01*
X84305069Y-42345427D01*
X84311493Y-42349032D01*
X84330972Y-42368964D01*
X84352674Y-42386453D01*
X84355055Y-42393607D01*
X84360327Y-42399002D01*
X84365937Y-42426304D01*
X84374739Y-42452747D01*
X84372873Y-42460054D01*
X84374392Y-42467441D01*
X84364352Y-42493441D01*
X84357460Y-42520446D01*
X84353920Y-42526064D01*
X84290609Y-42620814D01*
X84290602Y-42620827D01*
X84230264Y-42766498D01*
X84230261Y-42766510D01*
X84199500Y-42921153D01*
X84199500Y-43078846D01*
X84230261Y-43233489D01*
X84230264Y-43233501D01*
X84290602Y-43379172D01*
X84290609Y-43379185D01*
X84378210Y-43510288D01*
X84378213Y-43510292D01*
X84489707Y-43621786D01*
X84489711Y-43621789D01*
X84620814Y-43709390D01*
X84620827Y-43709397D01*
X84711048Y-43746767D01*
X84766503Y-43769737D01*
X84901044Y-43796499D01*
X84921153Y-43800499D01*
X84921156Y-43800500D01*
X84921158Y-43800500D01*
X85078844Y-43800500D01*
X85078845Y-43800499D01*
X85233497Y-43769737D01*
X85379179Y-43709394D01*
X85436044Y-43671397D01*
X85502721Y-43650520D01*
X85504935Y-43650500D01*
X88495065Y-43650500D01*
X88562104Y-43670185D01*
X88563909Y-43671366D01*
X88620821Y-43709394D01*
X88620823Y-43709395D01*
X88620827Y-43709397D01*
X88711048Y-43746767D01*
X88766503Y-43769737D01*
X88901044Y-43796499D01*
X88921153Y-43800499D01*
X88921156Y-43800500D01*
X88921158Y-43800500D01*
X89078844Y-43800500D01*
X89078845Y-43800499D01*
X89233497Y-43769737D01*
X89379179Y-43709394D01*
X89510289Y-43621789D01*
X89621789Y-43510289D01*
X89709394Y-43379179D01*
X89769737Y-43233497D01*
X89800500Y-43078842D01*
X89800500Y-42921158D01*
X89800500Y-42921155D01*
X89800499Y-42921153D01*
X89780431Y-42820264D01*
X89769737Y-42766503D01*
X89756968Y-42735675D01*
X89709397Y-42620827D01*
X89709389Y-42620812D01*
X89691067Y-42593392D01*
X89670188Y-42526715D01*
X89688672Y-42459334D01*
X89740650Y-42412644D01*
X89794168Y-42400500D01*
X92429192Y-42400500D01*
X92496231Y-42420185D01*
X92516873Y-42436819D01*
X97182983Y-47102929D01*
X97216468Y-47164252D01*
X97216919Y-47166418D01*
X97230261Y-47233491D01*
X97230263Y-47233499D01*
X97290602Y-47379172D01*
X97290609Y-47379185D01*
X97378210Y-47510288D01*
X97378213Y-47510292D01*
X97489707Y-47621786D01*
X97489711Y-47621789D01*
X97620814Y-47709390D01*
X97620827Y-47709397D01*
X97762775Y-47768193D01*
X97766503Y-47769737D01*
X97921153Y-47800499D01*
X97921156Y-47800500D01*
X97921158Y-47800500D01*
X98078844Y-47800500D01*
X98078845Y-47800499D01*
X98233497Y-47769737D01*
X98346166Y-47723067D01*
X98379172Y-47709397D01*
X98379172Y-47709396D01*
X98379179Y-47709394D01*
X98510289Y-47621789D01*
X98621789Y-47510289D01*
X98709394Y-47379179D01*
X98769737Y-47233497D01*
X98800500Y-47078842D01*
X98800500Y-46921158D01*
X98800500Y-46921155D01*
X98800499Y-46921153D01*
X98769738Y-46766510D01*
X98769737Y-46766503D01*
X98767442Y-46760962D01*
X98709397Y-46620827D01*
X98709390Y-46620814D01*
X98621789Y-46489711D01*
X98621786Y-46489707D01*
X98510292Y-46378213D01*
X98510288Y-46378210D01*
X98379185Y-46290609D01*
X98379172Y-46290602D01*
X98233499Y-46230263D01*
X98233491Y-46230261D01*
X98166418Y-46216919D01*
X98104507Y-46184534D01*
X98102929Y-46182983D01*
X93164674Y-41244727D01*
X93164673Y-41244726D01*
X93164669Y-41244723D01*
X93058127Y-41173535D01*
X92939744Y-41124499D01*
X92939738Y-41124497D01*
X92814071Y-41099500D01*
X92814069Y-41099500D01*
X84888224Y-41099500D01*
X84821185Y-41079815D01*
X84800543Y-41063181D01*
X82717819Y-38980457D01*
X82635010Y-38897648D01*
X83699500Y-38897648D01*
X83699500Y-39102351D01*
X83731522Y-39304534D01*
X83794781Y-39499223D01*
X83887715Y-39681613D01*
X84008028Y-39847213D01*
X84152786Y-39991971D01*
X84272359Y-40078844D01*
X84318390Y-40112287D01*
X84415380Y-40161706D01*
X84500776Y-40205218D01*
X84500778Y-40205218D01*
X84500781Y-40205220D01*
X84586670Y-40233127D01*
X84695465Y-40268477D01*
X84757750Y-40278342D01*
X84897648Y-40300500D01*
X84897649Y-40300500D01*
X85102351Y-40300500D01*
X85102352Y-40300500D01*
X85304534Y-40268477D01*
X85499219Y-40205220D01*
X85681610Y-40112287D01*
X85774590Y-40044732D01*
X85847213Y-39991971D01*
X85847215Y-39991968D01*
X85847219Y-39991966D01*
X85991966Y-39847219D01*
X85991968Y-39847215D01*
X85991971Y-39847213D01*
X86067796Y-39742847D01*
X86112287Y-39681610D01*
X86139515Y-39628171D01*
X86187490Y-39577376D01*
X86255311Y-39560581D01*
X86321446Y-39583118D01*
X86360484Y-39628171D01*
X86372082Y-39650933D01*
X86387715Y-39681613D01*
X86508028Y-39847213D01*
X86652786Y-39991971D01*
X86772359Y-40078844D01*
X86818390Y-40112287D01*
X86915380Y-40161706D01*
X87000776Y-40205218D01*
X87000778Y-40205218D01*
X87000781Y-40205220D01*
X87086670Y-40233127D01*
X87195465Y-40268477D01*
X87257750Y-40278342D01*
X87397648Y-40300500D01*
X87397649Y-40300500D01*
X87602351Y-40300500D01*
X87602352Y-40300500D01*
X87804534Y-40268477D01*
X87999219Y-40205220D01*
X88181610Y-40112287D01*
X88274590Y-40044732D01*
X88347213Y-39991971D01*
X88347215Y-39991968D01*
X88347219Y-39991966D01*
X88491966Y-39847219D01*
X88491968Y-39847215D01*
X88491971Y-39847213D01*
X88567796Y-39742847D01*
X88612287Y-39681610D01*
X88639515Y-39628171D01*
X88687490Y-39577376D01*
X88755311Y-39560581D01*
X88821446Y-39583118D01*
X88860484Y-39628171D01*
X88872082Y-39650933D01*
X88887715Y-39681613D01*
X89008028Y-39847213D01*
X89152786Y-39991971D01*
X89272359Y-40078844D01*
X89318390Y-40112287D01*
X89415380Y-40161706D01*
X89500776Y-40205218D01*
X89500778Y-40205218D01*
X89500781Y-40205220D01*
X89586670Y-40233127D01*
X89695465Y-40268477D01*
X89757750Y-40278342D01*
X89897648Y-40300500D01*
X89897649Y-40300500D01*
X90102351Y-40300500D01*
X90102352Y-40300500D01*
X90304534Y-40268477D01*
X90499219Y-40205220D01*
X90681610Y-40112287D01*
X90774590Y-40044732D01*
X90847213Y-39991971D01*
X90847215Y-39991968D01*
X90847219Y-39991966D01*
X90991966Y-39847219D01*
X90991968Y-39847215D01*
X90991971Y-39847213D01*
X91067796Y-39742847D01*
X91112287Y-39681610D01*
X91205220Y-39499219D01*
X91268477Y-39304534D01*
X91300500Y-39102352D01*
X91300500Y-38897648D01*
X91299242Y-38889707D01*
X91268477Y-38695465D01*
X91231514Y-38581706D01*
X91205220Y-38500781D01*
X91205218Y-38500778D01*
X91205218Y-38500776D01*
X91165396Y-38422623D01*
X91112287Y-38318390D01*
X91092750Y-38291499D01*
X90991971Y-38152786D01*
X90847213Y-38008028D01*
X90681613Y-37887715D01*
X90681612Y-37887714D01*
X90681610Y-37887713D01*
X90610691Y-37851578D01*
X90499223Y-37794781D01*
X90304534Y-37731522D01*
X90129995Y-37703878D01*
X90102352Y-37699500D01*
X89897648Y-37699500D01*
X89873329Y-37703351D01*
X89695465Y-37731522D01*
X89500776Y-37794781D01*
X89318386Y-37887715D01*
X89152786Y-38008028D01*
X89008028Y-38152786D01*
X88887713Y-38318388D01*
X88860484Y-38371828D01*
X88812510Y-38422623D01*
X88744688Y-38439418D01*
X88678554Y-38416880D01*
X88639516Y-38371828D01*
X88612286Y-38318388D01*
X88491971Y-38152786D01*
X88347213Y-38008028D01*
X88181613Y-37887715D01*
X88181612Y-37887714D01*
X88181610Y-37887713D01*
X88110691Y-37851578D01*
X87999223Y-37794781D01*
X87804534Y-37731522D01*
X87629995Y-37703878D01*
X87602352Y-37699500D01*
X87397648Y-37699500D01*
X87373329Y-37703351D01*
X87195465Y-37731522D01*
X87000776Y-37794781D01*
X86818386Y-37887715D01*
X86652786Y-38008028D01*
X86508028Y-38152786D01*
X86387713Y-38318388D01*
X86360484Y-38371828D01*
X86312510Y-38422623D01*
X86244688Y-38439418D01*
X86178554Y-38416880D01*
X86139516Y-38371828D01*
X86112286Y-38318388D01*
X85991971Y-38152786D01*
X85847213Y-38008028D01*
X85681613Y-37887715D01*
X85681612Y-37887714D01*
X85681610Y-37887713D01*
X85610691Y-37851578D01*
X85499223Y-37794781D01*
X85304534Y-37731522D01*
X85129995Y-37703878D01*
X85102352Y-37699500D01*
X84897648Y-37699500D01*
X84873329Y-37703351D01*
X84695465Y-37731522D01*
X84500776Y-37794781D01*
X84318386Y-37887715D01*
X84152786Y-38008028D01*
X84008028Y-38152786D01*
X83887715Y-38318386D01*
X83794781Y-38500776D01*
X83731522Y-38695465D01*
X83699500Y-38897648D01*
X82635010Y-38897648D01*
X80232090Y-36494727D01*
X80232089Y-36494726D01*
X80218655Y-36485750D01*
X80196895Y-36471210D01*
X80125541Y-36423533D01*
X80007162Y-36374499D01*
X80006014Y-36374271D01*
X80004835Y-36374036D01*
X80004835Y-36374035D01*
X80004822Y-36374034D01*
X79881487Y-36349500D01*
X79881485Y-36349500D01*
X75504935Y-36349500D01*
X75437896Y-36329815D01*
X75436090Y-36328633D01*
X75379179Y-36290606D01*
X75379172Y-36290602D01*
X75233501Y-36230264D01*
X75233489Y-36230261D01*
X75078845Y-36199500D01*
X75078842Y-36199500D01*
X74921158Y-36199500D01*
X74921155Y-36199500D01*
X74766510Y-36230261D01*
X74766498Y-36230264D01*
X74620827Y-36290602D01*
X74620814Y-36290609D01*
X74489711Y-36378210D01*
X74489707Y-36378213D01*
X74378213Y-36489707D01*
X74378210Y-36489711D01*
X74290609Y-36620814D01*
X74290602Y-36620827D01*
X74230264Y-36766498D01*
X74230261Y-36766510D01*
X74199500Y-36921153D01*
X71513301Y-36921153D01*
X71532483Y-36919091D01*
X71667331Y-36868796D01*
X71782546Y-36782546D01*
X71868796Y-36667331D01*
X71919091Y-36532483D01*
X71925500Y-36472873D01*
X71925499Y-35527128D01*
X71919091Y-35467517D01*
X71901800Y-35421158D01*
X71868797Y-35332671D01*
X71868793Y-35332664D01*
X71782547Y-35217455D01*
X71782544Y-35217452D01*
X71667335Y-35131206D01*
X71667328Y-35131202D01*
X71532482Y-35080908D01*
X71532483Y-35080908D01*
X71472883Y-35074501D01*
X71472881Y-35074500D01*
X71472873Y-35074500D01*
X71472864Y-35074500D01*
X70527129Y-35074500D01*
X70527123Y-35074501D01*
X70467516Y-35080908D01*
X70372233Y-35116447D01*
X70302541Y-35121431D01*
X70281448Y-35114826D01*
X70269962Y-35110068D01*
X70269952Y-35110065D01*
X70091156Y-35074500D01*
X70091154Y-35074500D01*
X69908846Y-35074500D01*
X69908844Y-35074500D01*
X69730047Y-35110065D01*
X69730041Y-35110067D01*
X69561605Y-35179835D01*
X69558444Y-35181525D01*
X69556600Y-35181908D01*
X69555984Y-35182164D01*
X69555935Y-35182047D01*
X69490040Y-35195761D01*
X69441556Y-35181525D01*
X69438394Y-35179835D01*
X69269958Y-35110067D01*
X69269952Y-35110065D01*
X69091156Y-35074500D01*
X69091154Y-35074500D01*
X68908846Y-35074500D01*
X68908844Y-35074500D01*
X68730047Y-35110065D01*
X68730041Y-35110067D01*
X68561605Y-35179835D01*
X68558444Y-35181525D01*
X68556600Y-35181908D01*
X68555984Y-35182164D01*
X68555935Y-35182047D01*
X68490040Y-35195761D01*
X68441556Y-35181525D01*
X68438394Y-35179835D01*
X68269958Y-35110067D01*
X68269952Y-35110065D01*
X68091156Y-35074500D01*
X68091154Y-35074500D01*
X67908846Y-35074500D01*
X67908844Y-35074500D01*
X67730047Y-35110065D01*
X67730037Y-35110068D01*
X67561612Y-35179831D01*
X67561608Y-35179833D01*
X67410032Y-35281113D01*
X67410024Y-35281119D01*
X67281119Y-35410024D01*
X67281113Y-35410032D01*
X67179833Y-35561608D01*
X67179831Y-35561612D01*
X67110068Y-35730037D01*
X67110065Y-35730047D01*
X67074500Y-35908843D01*
X67074500Y-35908846D01*
X67074500Y-36091154D01*
X67074500Y-36091156D01*
X67074499Y-36091156D01*
X67110065Y-36269952D01*
X67110068Y-36269962D01*
X67179831Y-36438387D01*
X67179833Y-36438391D01*
X67281113Y-36589967D01*
X67281119Y-36589975D01*
X67297917Y-36606773D01*
X67331402Y-36668096D01*
X67326418Y-36737788D01*
X67297917Y-36782135D01*
X65266873Y-38813181D01*
X65205550Y-38846666D01*
X65179192Y-38849500D01*
X64435929Y-38849500D01*
X64310261Y-38874497D01*
X64310255Y-38874499D01*
X64191870Y-38923535D01*
X64085331Y-38994722D01*
X64085324Y-38994728D01*
X63744724Y-39335328D01*
X63701428Y-39400125D01*
X63701429Y-39400126D01*
X63673534Y-39441874D01*
X63639061Y-39525100D01*
X63595220Y-39579503D01*
X63528926Y-39601568D01*
X63461226Y-39584289D01*
X63413616Y-39533151D01*
X63400500Y-39477647D01*
X63400500Y-38685928D01*
X63375502Y-38560261D01*
X63375501Y-38560260D01*
X63375501Y-38560256D01*
X63326465Y-38441873D01*
X63314211Y-38423534D01*
X63312242Y-38420586D01*
X63255274Y-38335327D01*
X63255271Y-38335324D01*
X60422693Y-35502747D01*
X60341099Y-35421153D01*
X61949500Y-35421153D01*
X61949500Y-35578846D01*
X61980261Y-35733489D01*
X61980264Y-35733501D01*
X62040602Y-35879172D01*
X62040609Y-35879185D01*
X62128210Y-36010288D01*
X62128213Y-36010292D01*
X62239707Y-36121786D01*
X62239711Y-36121789D01*
X62370814Y-36209390D01*
X62370827Y-36209397D01*
X62516498Y-36269735D01*
X62516503Y-36269737D01*
X62664718Y-36299219D01*
X62671153Y-36300499D01*
X62671156Y-36300500D01*
X62671158Y-36300500D01*
X62828844Y-36300500D01*
X62828845Y-36300499D01*
X62983497Y-36269737D01*
X63129179Y-36209394D01*
X63260289Y-36121789D01*
X63371789Y-36010289D01*
X63459394Y-35879179D01*
X63519737Y-35733497D01*
X63550500Y-35578842D01*
X63550500Y-35421158D01*
X63550500Y-35421155D01*
X63550499Y-35421153D01*
X63533256Y-35334467D01*
X63519737Y-35266503D01*
X63499421Y-35217455D01*
X63459397Y-35120827D01*
X63459390Y-35120814D01*
X63371789Y-34989711D01*
X63371786Y-34989707D01*
X63260292Y-34878213D01*
X63260288Y-34878210D01*
X63129185Y-34790609D01*
X63129172Y-34790602D01*
X62983501Y-34730264D01*
X62983489Y-34730261D01*
X62828845Y-34699500D01*
X62828842Y-34699500D01*
X62671158Y-34699500D01*
X62671155Y-34699500D01*
X62516510Y-34730261D01*
X62516498Y-34730264D01*
X62370827Y-34790602D01*
X62370814Y-34790609D01*
X62239711Y-34878210D01*
X62239707Y-34878213D01*
X62128213Y-34989707D01*
X62128210Y-34989711D01*
X62040609Y-35120814D01*
X62040602Y-35120827D01*
X61980264Y-35266498D01*
X61980261Y-35266510D01*
X61949500Y-35421153D01*
X60341099Y-35421153D01*
X58882127Y-33962181D01*
X58848642Y-33900858D01*
X58853626Y-33831166D01*
X58895498Y-33775233D01*
X58960962Y-33750816D01*
X58969808Y-33750500D01*
X81837770Y-33750500D01*
X81904809Y-33770185D01*
X81925451Y-33786819D01*
X83663181Y-35524549D01*
X83696666Y-35585872D01*
X83699500Y-35612230D01*
X83699500Y-36647870D01*
X83699501Y-36647876D01*
X83705908Y-36707483D01*
X83756202Y-36842328D01*
X83756206Y-36842335D01*
X83842452Y-36957544D01*
X83842455Y-36957547D01*
X83957664Y-37043793D01*
X83957671Y-37043797D01*
X84092517Y-37094091D01*
X84092516Y-37094091D01*
X84099444Y-37094835D01*
X84152127Y-37100500D01*
X85847872Y-37100499D01*
X85907483Y-37094091D01*
X86042331Y-37043796D01*
X86157546Y-36957546D01*
X86243796Y-36842331D01*
X86294091Y-36707483D01*
X86295394Y-36701968D01*
X86329963Y-36641250D01*
X86391872Y-36608860D01*
X86461464Y-36615083D01*
X86503387Y-36644975D01*
X86504589Y-36643774D01*
X86652786Y-36791971D01*
X86787622Y-36889933D01*
X86818390Y-36912287D01*
X86907212Y-36957544D01*
X87000776Y-37005218D01*
X87000778Y-37005218D01*
X87000781Y-37005220D01*
X87105137Y-37039127D01*
X87195465Y-37068477D01*
X87260907Y-37078842D01*
X87397648Y-37100500D01*
X87397649Y-37100500D01*
X87602351Y-37100500D01*
X87602352Y-37100500D01*
X87804534Y-37068477D01*
X87999219Y-37005220D01*
X88181610Y-36912287D01*
X88277901Y-36842328D01*
X88347213Y-36791971D01*
X88347215Y-36791968D01*
X88347219Y-36791966D01*
X88491966Y-36647219D01*
X88491968Y-36647215D01*
X88491971Y-36647213D01*
X88544776Y-36574532D01*
X88612287Y-36481610D01*
X88639515Y-36428171D01*
X88687490Y-36377376D01*
X88755311Y-36360581D01*
X88821446Y-36383118D01*
X88860484Y-36428171D01*
X88885114Y-36476510D01*
X88887715Y-36481613D01*
X89008028Y-36647213D01*
X89152786Y-36791971D01*
X89287622Y-36889933D01*
X89318390Y-36912287D01*
X89407212Y-36957544D01*
X89500776Y-37005218D01*
X89500778Y-37005218D01*
X89500781Y-37005220D01*
X89605137Y-37039127D01*
X89695465Y-37068477D01*
X89760907Y-37078842D01*
X89897648Y-37100500D01*
X89897649Y-37100500D01*
X90102351Y-37100500D01*
X90102352Y-37100500D01*
X90304534Y-37068477D01*
X90499219Y-37005220D01*
X90681610Y-36912287D01*
X90777901Y-36842328D01*
X90847213Y-36791971D01*
X90847215Y-36791968D01*
X90847219Y-36791966D01*
X90991966Y-36647219D01*
X90991968Y-36647215D01*
X90991971Y-36647213D01*
X91044776Y-36574532D01*
X91112287Y-36481610D01*
X91205220Y-36299219D01*
X91268477Y-36104534D01*
X91300500Y-35902352D01*
X91300500Y-35697648D01*
X91278620Y-35559506D01*
X91268477Y-35495465D01*
X91216165Y-35334467D01*
X91205220Y-35300781D01*
X91205218Y-35300778D01*
X91205218Y-35300776D01*
X91160813Y-35213627D01*
X91112287Y-35118390D01*
X91095471Y-35095244D01*
X90989103Y-34948839D01*
X90990621Y-34947735D01*
X90965319Y-34891278D01*
X90975752Y-34822192D01*
X91021879Y-34769713D01*
X91088179Y-34750500D01*
X91637770Y-34750500D01*
X91704809Y-34770185D01*
X91725451Y-34786819D01*
X99713181Y-42774548D01*
X99746666Y-42835871D01*
X99749500Y-42862229D01*
X99749500Y-49532465D01*
X99729815Y-49599504D01*
X99677011Y-49645259D01*
X99638102Y-49655823D01*
X99597202Y-49660001D01*
X99597200Y-49660001D01*
X99430668Y-49715185D01*
X99430663Y-49715187D01*
X99281342Y-49807289D01*
X99157289Y-49931342D01*
X99065187Y-50080663D01*
X99065186Y-50080666D01*
X99010001Y-50247203D01*
X99010001Y-50247204D01*
X99010000Y-50247204D01*
X98999500Y-50349983D01*
X98999500Y-51650001D01*
X98999501Y-51650018D01*
X99010000Y-51752796D01*
X99010001Y-51752799D01*
X99041117Y-51846700D01*
X99065186Y-51919334D01*
X99157288Y-52068656D01*
X99281344Y-52192712D01*
X99424380Y-52280937D01*
X99436558Y-52288448D01*
X99483283Y-52340396D01*
X99494506Y-52409358D01*
X99466663Y-52473441D01*
X99459144Y-52481668D01*
X99320271Y-52620541D01*
X99195379Y-52792442D01*
X99098904Y-52981782D01*
X99033242Y-53183870D01*
X99033242Y-53183873D01*
X99022769Y-53250000D01*
X100066988Y-53250000D01*
X100034075Y-53307007D01*
X100000000Y-53434174D01*
X100000000Y-53565826D01*
X100034075Y-53692993D01*
X100066988Y-53750000D01*
X99022769Y-53750000D01*
X99033242Y-53816126D01*
X99033242Y-53816129D01*
X99098904Y-54018216D01*
X99195379Y-54207557D01*
X99320272Y-54379459D01*
X99320276Y-54379464D01*
X99470535Y-54529723D01*
X99470540Y-54529727D01*
X99642442Y-54654620D01*
X99831782Y-54751095D01*
X100033870Y-54816757D01*
X100243754Y-54850000D01*
X100250000Y-54850000D01*
X100250000Y-53933012D01*
X100307007Y-53965925D01*
X100434174Y-54000000D01*
X100565826Y-54000000D01*
X100692993Y-53965925D01*
X100750000Y-53933012D01*
X100750000Y-54850000D01*
X100756246Y-54850000D01*
X100966127Y-54816757D01*
X100966130Y-54816757D01*
X101168217Y-54751095D01*
X101357557Y-54654620D01*
X101529459Y-54529727D01*
X101529464Y-54529723D01*
X101679723Y-54379464D01*
X101679727Y-54379459D01*
X101804620Y-54207557D01*
X101901096Y-54018216D01*
X101966757Y-53816129D01*
X101966757Y-53816126D01*
X101977231Y-53750000D01*
X100933012Y-53750000D01*
X100965925Y-53692993D01*
X101000000Y-53565826D01*
X101000000Y-53434174D01*
X100965925Y-53307007D01*
X100933012Y-53250000D01*
X101977231Y-53250000D01*
X101966757Y-53183873D01*
X101966757Y-53183870D01*
X101901095Y-52981782D01*
X101804620Y-52792442D01*
X101679727Y-52620540D01*
X101679723Y-52620535D01*
X101540856Y-52481668D01*
X101507371Y-52420345D01*
X101512355Y-52350653D01*
X101554227Y-52294720D01*
X101563441Y-52288448D01*
X101569331Y-52284814D01*
X101569334Y-52284814D01*
X101718656Y-52192712D01*
X101842712Y-52068656D01*
X101934814Y-51919334D01*
X101989999Y-51752797D01*
X102000500Y-51650009D01*
X102000499Y-50349992D01*
X101989999Y-50247203D01*
X101934814Y-50080666D01*
X101842712Y-49931344D01*
X101718656Y-49807288D01*
X101600647Y-49734500D01*
X101569336Y-49715187D01*
X101569331Y-49715185D01*
X101518016Y-49698181D01*
X101402797Y-49660001D01*
X101402795Y-49660000D01*
X101361896Y-49655822D01*
X101297205Y-49629425D01*
X101257054Y-49572244D01*
X101250500Y-49532464D01*
X101250500Y-42426079D01*
X101221659Y-42281092D01*
X101221658Y-42281091D01*
X101221658Y-42281087D01*
X101210950Y-42255235D01*
X101165087Y-42144511D01*
X101165080Y-42144498D01*
X101082952Y-42021585D01*
X101060828Y-41999461D01*
X100978416Y-41917049D01*
X99478110Y-40416743D01*
X99444625Y-40355420D01*
X99449609Y-40285728D01*
X99491481Y-40229795D01*
X99556945Y-40205378D01*
X99613243Y-40214500D01*
X99819295Y-40299850D01*
X100148422Y-40399690D01*
X100485750Y-40466789D01*
X100828031Y-40500500D01*
X100828034Y-40500500D01*
X101171966Y-40500500D01*
X101171969Y-40500500D01*
X101514250Y-40466789D01*
X101851578Y-40399690D01*
X102180705Y-40299850D01*
X102498462Y-40168231D01*
X102801787Y-40006100D01*
X103087760Y-39815019D01*
X103353627Y-39596828D01*
X103596828Y-39353627D01*
X103815019Y-39087760D01*
X104006100Y-38801787D01*
X104168231Y-38498462D01*
X104299850Y-38180705D01*
X104399690Y-37851578D01*
X104466789Y-37514250D01*
X104500500Y-37171969D01*
X104500500Y-36828031D01*
X104466789Y-36485750D01*
X104409850Y-36199500D01*
X104399691Y-36148427D01*
X104399690Y-36148426D01*
X104399690Y-36148422D01*
X104299850Y-35819295D01*
X104168231Y-35501538D01*
X104164985Y-35495466D01*
X104006106Y-35198224D01*
X104006105Y-35198222D01*
X104006100Y-35198213D01*
X103815019Y-34912240D01*
X103596828Y-34646373D01*
X103596827Y-34646372D01*
X103596823Y-34646367D01*
X103353632Y-34403176D01*
X103087765Y-34184985D01*
X103087764Y-34184984D01*
X103087760Y-34184981D01*
X102801787Y-33993900D01*
X102801782Y-33993897D01*
X102801775Y-33993893D01*
X102498469Y-33831772D01*
X102498464Y-33831770D01*
X102180706Y-33700150D01*
X101851572Y-33600308D01*
X101514248Y-33533210D01*
X101514249Y-33533210D01*
X101256456Y-33507821D01*
X101171969Y-33499500D01*
X100828031Y-33499500D01*
X100749966Y-33507188D01*
X100485750Y-33533210D01*
X100148427Y-33600308D01*
X99819293Y-33700150D01*
X99501535Y-33831770D01*
X99501530Y-33831772D01*
X99198224Y-33993893D01*
X99198206Y-33993904D01*
X98912248Y-34184975D01*
X98912234Y-34184985D01*
X98646367Y-34403176D01*
X98403176Y-34646367D01*
X98184985Y-34912234D01*
X98184975Y-34912248D01*
X97993904Y-35198206D01*
X97993893Y-35198224D01*
X97831772Y-35501530D01*
X97831770Y-35501535D01*
X97700150Y-35819293D01*
X97600308Y-36148427D01*
X97533210Y-36485750D01*
X97515327Y-36667331D01*
X97499500Y-36828031D01*
X97499500Y-36859852D01*
X97499500Y-37171969D01*
X97506531Y-37243356D01*
X97533210Y-37514249D01*
X97600308Y-37851572D01*
X97700150Y-38180706D01*
X97785498Y-38386754D01*
X97792967Y-38456224D01*
X97761692Y-38518703D01*
X97701603Y-38554355D01*
X97631778Y-38551861D01*
X97583256Y-38521888D01*
X92478421Y-33417052D01*
X92478414Y-33417046D01*
X92404729Y-33367812D01*
X92404729Y-33367813D01*
X92355491Y-33334913D01*
X92218917Y-33278343D01*
X92218907Y-33278340D01*
X92073920Y-33249500D01*
X92073918Y-33249500D01*
X89373917Y-33249500D01*
X89226082Y-33249500D01*
X89226080Y-33249500D01*
X89081092Y-33278340D01*
X89081082Y-33278343D01*
X88944511Y-33334912D01*
X88944498Y-33334919D01*
X88821584Y-33417048D01*
X88821580Y-33417051D01*
X87765105Y-34473526D01*
X87703782Y-34507011D01*
X87658026Y-34508318D01*
X87602352Y-34499500D01*
X87397648Y-34499500D01*
X87373329Y-34503351D01*
X87195465Y-34531522D01*
X87000776Y-34594781D01*
X86818386Y-34687715D01*
X86652786Y-34808028D01*
X86652782Y-34808032D01*
X86504589Y-34956226D01*
X86503152Y-34954789D01*
X86451746Y-34988280D01*
X86381877Y-34988714D01*
X86322866Y-34951306D01*
X86295394Y-34898034D01*
X86294091Y-34892521D01*
X86294091Y-34892517D01*
X86288755Y-34878210D01*
X86243797Y-34757671D01*
X86243793Y-34757664D01*
X86157547Y-34642455D01*
X86157544Y-34642452D01*
X86042335Y-34556206D01*
X86042328Y-34556202D01*
X85907482Y-34505908D01*
X85907483Y-34505908D01*
X85847883Y-34499501D01*
X85847881Y-34499500D01*
X85847873Y-34499500D01*
X85847865Y-34499500D01*
X84812230Y-34499500D01*
X84745191Y-34479815D01*
X84724549Y-34463181D01*
X82973549Y-32712181D01*
X82940064Y-32650858D01*
X82945048Y-32581166D01*
X82986920Y-32525233D01*
X83052384Y-32500816D01*
X83061230Y-32500500D01*
X105375500Y-32500500D01*
X105442539Y-32520185D01*
G37*
%TD.AperFunction*%
%TA.AperFunction,Conductor*%
G36*
X76046230Y-52321185D02*
G01*
X76091985Y-52373989D01*
X76101929Y-52443147D01*
X76072904Y-52506703D01*
X76066872Y-52513181D01*
X63016873Y-65563181D01*
X62955550Y-65596666D01*
X62929192Y-65599500D01*
X59774500Y-65599500D01*
X59707461Y-65579815D01*
X59661706Y-65527011D01*
X59650500Y-65475500D01*
X59650500Y-62935928D01*
X59625502Y-62810261D01*
X59625501Y-62810260D01*
X59625501Y-62810256D01*
X59576465Y-62691873D01*
X59575042Y-62689744D01*
X59505277Y-62585331D01*
X59505275Y-62585329D01*
X59505273Y-62585326D01*
X59294262Y-62374315D01*
X59260777Y-62312992D01*
X59265761Y-62243300D01*
X59267367Y-62239217D01*
X59269737Y-62233497D01*
X59300500Y-62078842D01*
X59300500Y-61921158D01*
X59300500Y-61921155D01*
X59300499Y-61921153D01*
X59271100Y-61773355D01*
X59269737Y-61766503D01*
X59212900Y-61629285D01*
X59209397Y-61620827D01*
X59209390Y-61620814D01*
X59121789Y-61489711D01*
X59121786Y-61489707D01*
X59010292Y-61378213D01*
X59010288Y-61378210D01*
X58879185Y-61290609D01*
X58879172Y-61290602D01*
X58733501Y-61230264D01*
X58733489Y-61230261D01*
X58578845Y-61199500D01*
X58578842Y-61199500D01*
X58421158Y-61199500D01*
X58421155Y-61199500D01*
X58266510Y-61230261D01*
X58266498Y-61230264D01*
X58243950Y-61239604D01*
X58174481Y-61247071D01*
X58112002Y-61215795D01*
X58076351Y-61155705D01*
X58072500Y-61125042D01*
X58072500Y-60081391D01*
X58092185Y-60014352D01*
X58108819Y-59993710D01*
X58415710Y-59686819D01*
X58477033Y-59653334D01*
X58503391Y-59650500D01*
X60064069Y-59650500D01*
X60101309Y-59643092D01*
X60170897Y-59649318D01*
X60226076Y-59692180D01*
X60249322Y-59758069D01*
X60249500Y-59764709D01*
X60249500Y-63195396D01*
X60240062Y-63242844D01*
X60230263Y-63266503D01*
X60230262Y-63266506D01*
X60230260Y-63266511D01*
X60199500Y-63421153D01*
X60199500Y-63578846D01*
X60230261Y-63733489D01*
X60230264Y-63733501D01*
X60290602Y-63879172D01*
X60290609Y-63879185D01*
X60378210Y-64010288D01*
X60378213Y-64010292D01*
X60489707Y-64121786D01*
X60489711Y-64121789D01*
X60620814Y-64209390D01*
X60620827Y-64209397D01*
X60766498Y-64269735D01*
X60766503Y-64269737D01*
X60921153Y-64300499D01*
X60921156Y-64300500D01*
X60921158Y-64300500D01*
X61078844Y-64300500D01*
X61078845Y-64300499D01*
X61233497Y-64269737D01*
X61379179Y-64209394D01*
X61510289Y-64121789D01*
X61621789Y-64010289D01*
X61709394Y-63879179D01*
X61769737Y-63733497D01*
X61800500Y-63578842D01*
X61800500Y-63421158D01*
X61800500Y-63421155D01*
X61800499Y-63421153D01*
X61769739Y-63266511D01*
X61769738Y-63266508D01*
X61769737Y-63266503D01*
X61759937Y-63242844D01*
X61750500Y-63195396D01*
X61750500Y-59304604D01*
X61759939Y-59257151D01*
X61769737Y-59233497D01*
X61800500Y-59078842D01*
X61800500Y-58921158D01*
X61800500Y-58921155D01*
X61800499Y-58921153D01*
X61769738Y-58766510D01*
X61769737Y-58766503D01*
X61769735Y-58766498D01*
X61709397Y-58620827D01*
X61709390Y-58620814D01*
X61621789Y-58489711D01*
X61621786Y-58489707D01*
X61613693Y-58481614D01*
X61580208Y-58420291D01*
X61585192Y-58350599D01*
X61613689Y-58306256D01*
X61755277Y-58164669D01*
X61826465Y-58058127D01*
X61875501Y-57939744D01*
X61888316Y-57875319D01*
X61900500Y-57814069D01*
X61900500Y-56886662D01*
X61920185Y-56819623D01*
X61972989Y-56773868D01*
X62042147Y-56763924D01*
X62105703Y-56792949D01*
X62112181Y-56798981D01*
X62318471Y-57005272D01*
X62318478Y-57005278D01*
X62394593Y-57056136D01*
X62394594Y-57056136D01*
X62425019Y-57076465D01*
X62543402Y-57125501D01*
X62543406Y-57125501D01*
X62543407Y-57125502D01*
X62669074Y-57150500D01*
X62669077Y-57150500D01*
X64064071Y-57150500D01*
X64148615Y-57133682D01*
X64189744Y-57125501D01*
X64308127Y-57076465D01*
X64338552Y-57056136D01*
X64338553Y-57056136D01*
X64395510Y-57018078D01*
X64414669Y-57005277D01*
X65755277Y-55664669D01*
X65826465Y-55558127D01*
X65875501Y-55439744D01*
X65883529Y-55399386D01*
X65888479Y-55374501D01*
X65888479Y-55374499D01*
X65900500Y-55314070D01*
X65900500Y-52716550D01*
X65920185Y-52649511D01*
X65972989Y-52603756D01*
X66042147Y-52593812D01*
X66048692Y-52594933D01*
X66088155Y-52602783D01*
X66088158Y-52602783D01*
X66245844Y-52602783D01*
X66245845Y-52602782D01*
X66400497Y-52572020D01*
X66546179Y-52511677D01*
X66603044Y-52473680D01*
X66669721Y-52452803D01*
X66671935Y-52452783D01*
X69174630Y-52452783D01*
X69241669Y-52472468D01*
X69287424Y-52525272D01*
X69297368Y-52594430D01*
X69289191Y-52624235D01*
X69230264Y-52766498D01*
X69230261Y-52766510D01*
X69199500Y-52921153D01*
X69199500Y-53078846D01*
X69230261Y-53233489D01*
X69230264Y-53233501D01*
X69290602Y-53379172D01*
X69290609Y-53379185D01*
X69378210Y-53510288D01*
X69378213Y-53510292D01*
X69489707Y-53621786D01*
X69489711Y-53621789D01*
X69620814Y-53709390D01*
X69620827Y-53709397D01*
X69766498Y-53769735D01*
X69766503Y-53769737D01*
X69889793Y-53794261D01*
X69921153Y-53800499D01*
X69921156Y-53800500D01*
X69980191Y-53800500D01*
X70047230Y-53820185D01*
X70092985Y-53872989D01*
X70102929Y-53942147D01*
X70073904Y-54005703D01*
X70067872Y-54012181D01*
X64266873Y-59813181D01*
X64205550Y-59846666D01*
X64179192Y-59849500D01*
X63504935Y-59849500D01*
X63437896Y-59829815D01*
X63436090Y-59828633D01*
X63379179Y-59790606D01*
X63379172Y-59790602D01*
X63233501Y-59730264D01*
X63233489Y-59730261D01*
X63078845Y-59699500D01*
X63078842Y-59699500D01*
X62921158Y-59699500D01*
X62921155Y-59699500D01*
X62766510Y-59730261D01*
X62766498Y-59730264D01*
X62620827Y-59790602D01*
X62620814Y-59790609D01*
X62489711Y-59878210D01*
X62489707Y-59878213D01*
X62378213Y-59989707D01*
X62378210Y-59989711D01*
X62290609Y-60120814D01*
X62290602Y-60120827D01*
X62230264Y-60266498D01*
X62230261Y-60266510D01*
X62199500Y-60421153D01*
X62199500Y-60578846D01*
X62230261Y-60733489D01*
X62230264Y-60733501D01*
X62290602Y-60879172D01*
X62290609Y-60879185D01*
X62378210Y-61010288D01*
X62378213Y-61010292D01*
X62489707Y-61121786D01*
X62489711Y-61121789D01*
X62620814Y-61209390D01*
X62620827Y-61209397D01*
X62766498Y-61269735D01*
X62766503Y-61269737D01*
X62921153Y-61300499D01*
X62921156Y-61300500D01*
X62921158Y-61300500D01*
X63078844Y-61300500D01*
X63078845Y-61300499D01*
X63233497Y-61269737D01*
X63379179Y-61209394D01*
X63436044Y-61171397D01*
X63502721Y-61150520D01*
X63504935Y-61150500D01*
X64564071Y-61150500D01*
X64648615Y-61133682D01*
X64689744Y-61125501D01*
X64808127Y-61076465D01*
X64835572Y-61058127D01*
X64914669Y-61005277D01*
X73582127Y-52337819D01*
X73643450Y-52304334D01*
X73669808Y-52301500D01*
X75979191Y-52301500D01*
X76046230Y-52321185D01*
G37*
%TD.AperFunction*%
%TA.AperFunction,Conductor*%
G36*
X49168231Y-45092185D02*
G01*
X49188873Y-45108819D01*
X51717873Y-47637819D01*
X51751358Y-47699142D01*
X51746374Y-47768834D01*
X51704502Y-47824767D01*
X51639038Y-47849184D01*
X51630192Y-47849500D01*
X49820808Y-47849500D01*
X49753769Y-47829815D01*
X49733127Y-47813181D01*
X48817015Y-46897069D01*
X48783530Y-46835746D01*
X48783093Y-46833652D01*
X48769737Y-46766503D01*
X48709397Y-46620828D01*
X48709397Y-46620827D01*
X48709390Y-46620814D01*
X48621789Y-46489711D01*
X48621786Y-46489707D01*
X48510292Y-46378213D01*
X48510288Y-46378210D01*
X48379185Y-46290609D01*
X48379172Y-46290602D01*
X48233501Y-46230264D01*
X48233489Y-46230261D01*
X48078845Y-46199500D01*
X48078842Y-46199500D01*
X47921158Y-46199500D01*
X47921155Y-46199500D01*
X47766510Y-46230261D01*
X47766498Y-46230264D01*
X47620827Y-46290602D01*
X47620814Y-46290609D01*
X47489711Y-46378210D01*
X47489707Y-46378213D01*
X47378213Y-46489707D01*
X47378210Y-46489711D01*
X47290609Y-46620814D01*
X47290602Y-46620827D01*
X47230264Y-46766498D01*
X47230261Y-46766510D01*
X47199500Y-46921153D01*
X47199500Y-47078846D01*
X47230261Y-47233489D01*
X47230264Y-47233501D01*
X47290602Y-47379172D01*
X47290609Y-47379185D01*
X47378210Y-47510288D01*
X47378213Y-47510292D01*
X47489707Y-47621786D01*
X47489711Y-47621789D01*
X47620814Y-47709390D01*
X47620827Y-47709397D01*
X47693967Y-47739692D01*
X47766503Y-47769737D01*
X47833580Y-47783079D01*
X47895488Y-47815461D01*
X47897068Y-47817014D01*
X49085324Y-49005271D01*
X49085327Y-49005274D01*
X49175425Y-49065475D01*
X49175424Y-49065475D01*
X49187774Y-49073726D01*
X49191873Y-49076465D01*
X49310256Y-49125501D01*
X49310260Y-49125501D01*
X49310261Y-49125502D01*
X49435928Y-49150500D01*
X49435931Y-49150500D01*
X52710903Y-49150500D01*
X52777942Y-49170185D01*
X52823697Y-49222989D01*
X52833641Y-49292147D01*
X52804616Y-49355703D01*
X52798602Y-49362161D01*
X52575436Y-49585328D01*
X52517582Y-49643182D01*
X52456259Y-49676666D01*
X52429902Y-49679500D01*
X52310831Y-49679500D01*
X52310807Y-49679501D01*
X52274794Y-49682335D01*
X52120611Y-49727129D01*
X52120604Y-49727132D01*
X52063119Y-49761128D01*
X51995395Y-49778309D01*
X51936881Y-49761128D01*
X51879395Y-49727132D01*
X51879388Y-49727129D01*
X51725208Y-49682335D01*
X51725202Y-49682334D01*
X51689181Y-49679500D01*
X51290830Y-49679500D01*
X51290808Y-49679501D01*
X51254794Y-49682335D01*
X51100611Y-49727129D01*
X51100606Y-49727131D01*
X50962404Y-49808863D01*
X50962396Y-49808869D01*
X50848869Y-49922396D01*
X50848863Y-49922404D01*
X50767131Y-50060606D01*
X50767129Y-50060611D01*
X50722335Y-50214791D01*
X50722334Y-50214797D01*
X50719500Y-50250811D01*
X50719500Y-50749169D01*
X50719501Y-50749191D01*
X50722335Y-50785205D01*
X50767129Y-50939388D01*
X50767131Y-50939393D01*
X50847053Y-51074535D01*
X50848865Y-51077598D01*
X50853178Y-51081911D01*
X50886665Y-51143231D01*
X50889500Y-51169595D01*
X50889500Y-51526393D01*
X50872232Y-51589513D01*
X50798257Y-51714599D01*
X50798254Y-51714606D01*
X50752402Y-51872426D01*
X50752401Y-51872432D01*
X50749500Y-51909298D01*
X50749500Y-53215701D01*
X50752401Y-53252567D01*
X50752402Y-53252573D01*
X50798254Y-53410393D01*
X50798255Y-53410396D01*
X50798256Y-53410398D01*
X50812317Y-53434174D01*
X50881917Y-53551862D01*
X50881923Y-53551870D01*
X50998129Y-53668076D01*
X50998133Y-53668079D01*
X50998135Y-53668081D01*
X51139602Y-53751744D01*
X51170690Y-53760776D01*
X51297426Y-53797597D01*
X51297429Y-53797597D01*
X51297431Y-53797598D01*
X51334306Y-53800500D01*
X51575500Y-53800500D01*
X51642539Y-53820185D01*
X51688294Y-53872989D01*
X51699500Y-53924500D01*
X51699500Y-54337402D01*
X51679815Y-54404441D01*
X51663181Y-54425083D01*
X51456981Y-54631282D01*
X51456979Y-54631284D01*
X51443507Y-54654620D01*
X51417596Y-54699500D01*
X51377923Y-54768215D01*
X51336999Y-54920943D01*
X51336999Y-54920945D01*
X51336999Y-55089046D01*
X51337000Y-55089059D01*
X51337000Y-55399386D01*
X51317315Y-55466425D01*
X51264511Y-55512180D01*
X51256334Y-55515568D01*
X51175269Y-55545803D01*
X51175264Y-55545806D01*
X51060055Y-55632052D01*
X51060052Y-55632055D01*
X50973806Y-55747264D01*
X50973802Y-55747271D01*
X50923508Y-55882117D01*
X50919312Y-55921153D01*
X50917101Y-55941723D01*
X50917100Y-55941735D01*
X50917100Y-57037470D01*
X50917101Y-57037476D01*
X50923508Y-57097083D01*
X50973802Y-57231928D01*
X50973806Y-57231935D01*
X51060052Y-57347144D01*
X51060055Y-57347147D01*
X51175264Y-57433393D01*
X51175271Y-57433397D01*
X51281914Y-57473172D01*
X51286773Y-57476809D01*
X51292759Y-57477816D01*
X51314416Y-57497502D01*
X51337848Y-57515043D01*
X51341117Y-57521774D01*
X51344461Y-57524813D01*
X51358354Y-57557255D01*
X51366874Y-57589052D01*
X51371100Y-57621144D01*
X51371100Y-57711446D01*
X51401861Y-57866089D01*
X51401864Y-57866101D01*
X51462202Y-58011772D01*
X51462209Y-58011785D01*
X51549810Y-58142888D01*
X51549813Y-58142892D01*
X51661307Y-58254386D01*
X51661311Y-58254389D01*
X51792414Y-58341990D01*
X51792427Y-58341997D01*
X51917816Y-58393934D01*
X51938103Y-58402337D01*
X52092753Y-58433099D01*
X52092756Y-58433100D01*
X52092758Y-58433100D01*
X52250444Y-58433100D01*
X52250445Y-58433099D01*
X52405097Y-58402337D01*
X52550779Y-58341994D01*
X52681889Y-58254389D01*
X52793389Y-58142889D01*
X52880994Y-58011779D01*
X52941337Y-57866097D01*
X52972100Y-57711442D01*
X52972100Y-57553758D01*
X52972100Y-57553755D01*
X52972099Y-57553753D01*
X52956070Y-57473172D01*
X52941337Y-57399103D01*
X52885134Y-57263415D01*
X52877665Y-57193946D01*
X52883510Y-57172636D01*
X52911691Y-57097083D01*
X52918100Y-57037473D01*
X52918099Y-55941728D01*
X52911691Y-55882117D01*
X52869689Y-55769503D01*
X52864705Y-55699811D01*
X52898190Y-55638488D01*
X52922742Y-55619443D01*
X53051865Y-55543081D01*
X53168081Y-55426865D01*
X53251744Y-55285398D01*
X53297598Y-55127569D01*
X53300500Y-55090694D01*
X53300500Y-54278362D01*
X53308166Y-54239822D01*
X53307472Y-54239636D01*
X53315575Y-54209397D01*
X53350500Y-54079058D01*
X53350500Y-53924500D01*
X53370185Y-53857461D01*
X53422989Y-53811706D01*
X53474500Y-53800500D01*
X53665686Y-53800500D01*
X53665694Y-53800500D01*
X53702569Y-53797598D01*
X53735432Y-53788050D01*
X53748724Y-53788087D01*
X53761182Y-53783441D01*
X53782985Y-53788184D01*
X53805298Y-53788247D01*
X53817982Y-53795797D01*
X53829455Y-53798293D01*
X53857709Y-53819444D01*
X53902639Y-53864374D01*
X53902649Y-53864385D01*
X53906979Y-53868715D01*
X53906980Y-53868716D01*
X54018784Y-53980520D01*
X54084076Y-54018216D01*
X54155715Y-54059577D01*
X54308442Y-54100500D01*
X54308443Y-54100500D01*
X54670234Y-54100500D01*
X54737273Y-54120185D01*
X54739125Y-54121398D01*
X54870814Y-54209390D01*
X54870827Y-54209397D01*
X55016498Y-54269735D01*
X55016503Y-54269737D01*
X55171153Y-54300499D01*
X55171156Y-54300500D01*
X55171158Y-54300500D01*
X55328844Y-54300500D01*
X55328845Y-54300499D01*
X55483497Y-54269737D01*
X55629179Y-54209394D01*
X55760289Y-54121789D01*
X55871789Y-54010289D01*
X55959394Y-53879179D01*
X56019737Y-53733497D01*
X56050500Y-53578842D01*
X56050500Y-53421158D01*
X56050500Y-53421155D01*
X56050499Y-53421153D01*
X56041957Y-53378211D01*
X56019737Y-53266503D01*
X56019735Y-53266498D01*
X55959397Y-53120827D01*
X55959390Y-53120814D01*
X55871789Y-52989711D01*
X55871786Y-52989707D01*
X55760292Y-52878213D01*
X55760288Y-52878210D01*
X55629185Y-52790609D01*
X55629172Y-52790602D01*
X55483501Y-52730264D01*
X55483489Y-52730261D01*
X55328845Y-52699500D01*
X55328842Y-52699500D01*
X55171158Y-52699500D01*
X55171155Y-52699500D01*
X55016510Y-52730261D01*
X55016498Y-52730264D01*
X54870827Y-52790602D01*
X54870809Y-52790612D01*
X54749532Y-52871647D01*
X54682855Y-52892525D01*
X54615475Y-52874040D01*
X54592961Y-52856226D01*
X54286819Y-52550084D01*
X54253334Y-52488761D01*
X54250500Y-52462403D01*
X54250500Y-51909313D01*
X54250499Y-51909298D01*
X54247598Y-51872432D01*
X54247597Y-51872426D01*
X54212840Y-51752795D01*
X54201744Y-51714602D01*
X54118081Y-51573135D01*
X54118079Y-51573133D01*
X54118076Y-51573129D01*
X54036219Y-51491272D01*
X54002734Y-51429949D01*
X54007718Y-51360257D01*
X54049590Y-51304324D01*
X54072093Y-51290932D01*
X54080454Y-51287086D01*
X54129393Y-51272869D01*
X54192390Y-51235612D01*
X54198193Y-51232944D01*
X54226685Y-51228771D01*
X54254602Y-51221688D01*
X54261406Y-51223685D01*
X54267325Y-51222819D01*
X54283616Y-51230207D01*
X54313117Y-51238869D01*
X54370607Y-51272869D01*
X54370610Y-51272869D01*
X54370612Y-51272871D01*
X54524791Y-51317664D01*
X54524794Y-51317664D01*
X54524796Y-51317665D01*
X54560819Y-51320500D01*
X54959180Y-51320499D01*
X54995204Y-51317665D01*
X55149393Y-51272869D01*
X55238930Y-51219916D01*
X55266527Y-51212915D01*
X55293204Y-51202965D01*
X55299955Y-51204433D01*
X55306654Y-51202734D01*
X55333657Y-51211764D01*
X55361477Y-51217816D01*
X55369329Y-51223694D01*
X55372917Y-51224894D01*
X55389728Y-51238963D01*
X55455164Y-51304399D01*
X55488648Y-51365720D01*
X55489100Y-51416267D01*
X55485900Y-51432356D01*
X55485900Y-51590046D01*
X55516661Y-51744689D01*
X55516664Y-51744701D01*
X55577002Y-51890372D01*
X55577009Y-51890385D01*
X55664610Y-52021488D01*
X55664613Y-52021492D01*
X55776107Y-52132986D01*
X55776111Y-52132989D01*
X55907214Y-52220590D01*
X55907227Y-52220597D01*
X56042193Y-52276501D01*
X56052903Y-52280937D01*
X56207553Y-52311699D01*
X56207556Y-52311700D01*
X56207558Y-52311700D01*
X56365244Y-52311700D01*
X56365245Y-52311699D01*
X56519897Y-52280937D01*
X56665579Y-52220594D01*
X56796689Y-52132989D01*
X56908189Y-52021489D01*
X56995794Y-51890379D01*
X57056137Y-51744697D01*
X57086900Y-51590042D01*
X57086900Y-51432358D01*
X57086900Y-51432356D01*
X57086900Y-51432355D01*
X57086899Y-51432353D01*
X57081369Y-51404552D01*
X57056137Y-51277703D01*
X57040092Y-51238967D01*
X56995797Y-51132027D01*
X56995790Y-51132014D01*
X56908189Y-51000911D01*
X56908186Y-51000907D01*
X56796692Y-50889413D01*
X56796684Y-50889407D01*
X56665581Y-50801807D01*
X56665577Y-50801805D01*
X56663542Y-50800962D01*
X56661711Y-50799738D01*
X56660206Y-50798934D01*
X56660285Y-50798785D01*
X56623321Y-50774085D01*
X56344300Y-50495064D01*
X56060415Y-50211180D01*
X56026931Y-50149858D01*
X56031915Y-50080167D01*
X56073786Y-50024233D01*
X56139251Y-49999816D01*
X56148097Y-49999500D01*
X56864274Y-49999500D01*
X56864290Y-49999501D01*
X56871886Y-49999501D01*
X57029997Y-49999501D01*
X57030000Y-49999501D01*
X57182728Y-49958577D01*
X57241006Y-49924930D01*
X57319659Y-49879520D01*
X57431463Y-49767716D01*
X57431463Y-49767714D01*
X57441667Y-49757511D01*
X57441671Y-49757506D01*
X58946133Y-48253043D01*
X59007454Y-48219560D01*
X59077146Y-48224544D01*
X59122756Y-48257128D01*
X59123903Y-48255982D01*
X59239705Y-48371784D01*
X59239708Y-48371786D01*
X59239711Y-48371789D01*
X59289392Y-48404984D01*
X59334195Y-48458594D01*
X59344500Y-48508085D01*
X59344500Y-51684191D01*
X59324815Y-51751230D01*
X59308181Y-51771872D01*
X55897068Y-55182984D01*
X55835745Y-55216469D01*
X55833579Y-55216920D01*
X55766508Y-55230261D01*
X55766498Y-55230264D01*
X55620827Y-55290602D01*
X55620814Y-55290609D01*
X55489711Y-55378210D01*
X55489707Y-55378213D01*
X55378213Y-55489707D01*
X55378210Y-55489711D01*
X55290609Y-55620814D01*
X55290602Y-55620827D01*
X55230264Y-55766498D01*
X55230261Y-55766510D01*
X55199500Y-55921153D01*
X55199500Y-56078846D01*
X55230261Y-56233489D01*
X55230264Y-56233501D01*
X55290602Y-56379172D01*
X55290606Y-56379179D01*
X55328602Y-56436044D01*
X55349480Y-56502721D01*
X55349500Y-56504935D01*
X55349500Y-63630192D01*
X55329815Y-63697231D01*
X55277011Y-63742986D01*
X55207853Y-63752930D01*
X55144297Y-63723905D01*
X55137819Y-63717873D01*
X46186819Y-54766873D01*
X46153334Y-54705550D01*
X46150500Y-54679192D01*
X46150500Y-49921153D01*
X47199500Y-49921153D01*
X47199500Y-50078846D01*
X47230261Y-50233489D01*
X47230264Y-50233501D01*
X47290602Y-50379172D01*
X47290609Y-50379185D01*
X47378210Y-50510288D01*
X47378213Y-50510292D01*
X47489707Y-50621786D01*
X47489711Y-50621789D01*
X47620814Y-50709390D01*
X47620827Y-50709397D01*
X47758683Y-50766498D01*
X47766503Y-50769737D01*
X47912536Y-50798785D01*
X47921153Y-50800499D01*
X47921156Y-50800500D01*
X47921158Y-50800500D01*
X48078844Y-50800500D01*
X48078845Y-50800499D01*
X48233497Y-50769737D01*
X48379179Y-50709394D01*
X48510289Y-50621789D01*
X48621789Y-50510289D01*
X48709394Y-50379179D01*
X48769737Y-50233497D01*
X48800500Y-50078842D01*
X48800500Y-49921158D01*
X48800500Y-49921155D01*
X48800499Y-49921153D01*
X48777850Y-49807289D01*
X48769737Y-49766503D01*
X48767511Y-49761128D01*
X48709397Y-49620827D01*
X48709390Y-49620814D01*
X48621789Y-49489711D01*
X48621786Y-49489707D01*
X48510292Y-49378213D01*
X48510288Y-49378210D01*
X48379185Y-49290609D01*
X48379172Y-49290602D01*
X48233501Y-49230264D01*
X48233489Y-49230261D01*
X48078845Y-49199500D01*
X48078842Y-49199500D01*
X47921158Y-49199500D01*
X47921155Y-49199500D01*
X47766510Y-49230261D01*
X47766498Y-49230264D01*
X47620827Y-49290602D01*
X47620814Y-49290609D01*
X47489711Y-49378210D01*
X47489707Y-49378213D01*
X47378213Y-49489707D01*
X47378210Y-49489711D01*
X47290609Y-49620814D01*
X47290602Y-49620827D01*
X47230264Y-49766498D01*
X47230261Y-49766510D01*
X47199500Y-49921153D01*
X46150500Y-49921153D01*
X46150500Y-46392807D01*
X46170185Y-46325768D01*
X46186815Y-46305130D01*
X46602931Y-45889013D01*
X46664252Y-45855530D01*
X46666317Y-45855099D01*
X46733497Y-45841737D01*
X46879179Y-45781394D01*
X47010289Y-45693789D01*
X47121789Y-45582289D01*
X47209394Y-45451179D01*
X47215664Y-45436043D01*
X47239220Y-45379172D01*
X47269737Y-45305497D01*
X47281526Y-45246230D01*
X47296231Y-45172308D01*
X47328616Y-45110397D01*
X47389332Y-45075823D01*
X47417848Y-45072500D01*
X49101192Y-45072500D01*
X49168231Y-45092185D01*
G37*
%TD.AperFunction*%
%TA.AperFunction,Conductor*%
G36*
X59768834Y-53253625D02*
G01*
X59824767Y-53295497D01*
X59849184Y-53360961D01*
X59849500Y-53369807D01*
X59849500Y-57179192D01*
X59829815Y-57246231D01*
X59813181Y-57266873D01*
X59476885Y-57603169D01*
X59415562Y-57636654D01*
X59389204Y-57639488D01*
X57531618Y-57639488D01*
X57405950Y-57664485D01*
X57405944Y-57664487D01*
X57287563Y-57713522D01*
X57181015Y-57784714D01*
X57181014Y-57784715D01*
X56862181Y-58103549D01*
X56800858Y-58137034D01*
X56731166Y-58132050D01*
X56675233Y-58090178D01*
X56650816Y-58024714D01*
X56650500Y-58015868D01*
X56650500Y-56504935D01*
X56670185Y-56437896D01*
X56671366Y-56436090D01*
X56709394Y-56379179D01*
X56769737Y-56233497D01*
X56783079Y-56166416D01*
X56815463Y-56104509D01*
X56816959Y-56102985D01*
X59637819Y-53282126D01*
X59699142Y-53248641D01*
X59768834Y-53253625D01*
G37*
%TD.AperFunction*%
%TA.AperFunction,Conductor*%
G36*
X76746231Y-41670185D02*
G01*
X76766873Y-41686819D01*
X78313181Y-43233126D01*
X78346666Y-43294449D01*
X78349500Y-43320807D01*
X78349500Y-47679192D01*
X78329815Y-47746231D01*
X78313181Y-47766873D01*
X76494725Y-49585328D01*
X76494724Y-49585329D01*
X76494723Y-49585331D01*
X76451847Y-49649501D01*
X76447623Y-49655823D01*
X76423535Y-49691872D01*
X76423533Y-49691875D01*
X76374499Y-49810255D01*
X76374497Y-49810261D01*
X76349500Y-49935928D01*
X76349500Y-50495064D01*
X76329815Y-50562103D01*
X76328603Y-50563954D01*
X76290608Y-50620817D01*
X76290602Y-50620828D01*
X76230264Y-50766498D01*
X76230261Y-50766510D01*
X76203571Y-50900691D01*
X76171186Y-50962602D01*
X76110471Y-50997176D01*
X76081954Y-51000500D01*
X73284929Y-51000500D01*
X73159261Y-51025497D01*
X73159255Y-51025499D01*
X73110665Y-51045626D01*
X73042363Y-51073918D01*
X73040873Y-51074535D01*
X72934326Y-51145726D01*
X72934325Y-51145727D01*
X71012181Y-53067872D01*
X70950858Y-53101357D01*
X70881166Y-53096373D01*
X70825233Y-53054501D01*
X70800816Y-52989037D01*
X70800500Y-52980191D01*
X70800500Y-52921155D01*
X70800499Y-52921153D01*
X70796192Y-52899500D01*
X70769737Y-52766503D01*
X70769735Y-52766498D01*
X70710809Y-52624235D01*
X70703340Y-52554766D01*
X70734616Y-52492287D01*
X70794705Y-52456635D01*
X70825370Y-52452783D01*
X71070788Y-52452783D01*
X71155332Y-52435965D01*
X71196461Y-52427784D01*
X71314844Y-52378748D01*
X71334007Y-52365944D01*
X71334008Y-52365944D01*
X71415191Y-52311699D01*
X71421386Y-52307560D01*
X75960752Y-47768192D01*
X76022075Y-47734708D01*
X76091767Y-47739692D01*
X76136114Y-47768193D01*
X76204207Y-47836286D01*
X76204211Y-47836289D01*
X76335314Y-47923890D01*
X76335327Y-47923897D01*
X76480998Y-47984235D01*
X76481003Y-47984237D01*
X76635653Y-48014999D01*
X76635656Y-48015000D01*
X76635658Y-48015000D01*
X76793344Y-48015000D01*
X76793345Y-48014999D01*
X76947997Y-47984237D01*
X77093679Y-47923894D01*
X77224789Y-47836289D01*
X77336289Y-47724789D01*
X77423894Y-47593679D01*
X77426695Y-47586918D01*
X77447287Y-47537203D01*
X77484237Y-47447997D01*
X77500055Y-47368471D01*
X77518568Y-47323776D01*
X77576465Y-47237127D01*
X77625501Y-47118744D01*
X77632147Y-47085331D01*
X77650500Y-46993069D01*
X77650500Y-44830647D01*
X77650500Y-44830644D01*
X77625502Y-44704977D01*
X77625501Y-44704976D01*
X77625501Y-44704972D01*
X77576465Y-44586589D01*
X77559842Y-44561711D01*
X77505277Y-44480047D01*
X77505275Y-44480045D01*
X77505273Y-44480042D01*
X75591957Y-42566726D01*
X75591950Y-42566721D01*
X75485411Y-42495535D01*
X75367028Y-42446499D01*
X75367022Y-42446497D01*
X75241355Y-42421500D01*
X75241353Y-42421500D01*
X73758648Y-42421500D01*
X73758646Y-42421500D01*
X73632978Y-42446497D01*
X73632968Y-42446500D01*
X73583937Y-42466810D01*
X73514598Y-42495530D01*
X73514580Y-42495540D01*
X73408049Y-42566721D01*
X73408042Y-42566727D01*
X64744726Y-51230043D01*
X64673534Y-51336591D01*
X64624499Y-51454972D01*
X64624497Y-51454978D01*
X64599500Y-51580645D01*
X64599500Y-53205831D01*
X64579815Y-53272870D01*
X64527011Y-53318625D01*
X64457853Y-53328569D01*
X64406610Y-53308934D01*
X64379183Y-53290608D01*
X64379172Y-53290602D01*
X64233501Y-53230264D01*
X64233489Y-53230261D01*
X64078845Y-53199500D01*
X64078842Y-53199500D01*
X63921158Y-53199500D01*
X63921155Y-53199500D01*
X63766510Y-53230261D01*
X63766498Y-53230264D01*
X63620827Y-53290602D01*
X63620816Y-53290608D01*
X63593390Y-53308934D01*
X63526712Y-53329811D01*
X63459332Y-53311326D01*
X63412643Y-53259346D01*
X63400500Y-53205831D01*
X63400500Y-49478777D01*
X63420185Y-49411738D01*
X63472989Y-49365983D01*
X63542147Y-49356039D01*
X63548691Y-49357159D01*
X63590618Y-49365499D01*
X63590619Y-49365500D01*
X63590620Y-49365500D01*
X63743381Y-49365500D01*
X63743382Y-49365499D01*
X63893205Y-49335698D01*
X64034337Y-49277239D01*
X64161352Y-49192370D01*
X64269370Y-49084352D01*
X64354239Y-48957337D01*
X64412698Y-48816205D01*
X64442500Y-48666380D01*
X64442500Y-48513620D01*
X64412698Y-48363795D01*
X64354239Y-48222663D01*
X64354238Y-48222662D01*
X64354235Y-48222656D01*
X64269370Y-48095648D01*
X64269367Y-48095644D01*
X64263819Y-48090096D01*
X64230334Y-48028773D01*
X64227500Y-48002415D01*
X64227500Y-46743808D01*
X64247185Y-46676769D01*
X64263819Y-46656127D01*
X68733127Y-42186819D01*
X68794450Y-42153334D01*
X68820808Y-42150500D01*
X70564071Y-42150500D01*
X70648615Y-42133682D01*
X70689744Y-42125501D01*
X70808127Y-42076465D01*
X70835572Y-42058127D01*
X70914669Y-42005277D01*
X71233127Y-41686819D01*
X71294450Y-41653334D01*
X71320808Y-41650500D01*
X76679192Y-41650500D01*
X76746231Y-41670185D01*
G37*
%TD.AperFunction*%
%TA.AperFunction,Conductor*%
G36*
X30928795Y-51209814D02*
G01*
X30971076Y-51237523D01*
X31156372Y-51422819D01*
X31189857Y-51484142D01*
X31184873Y-51553834D01*
X31143001Y-51609767D01*
X31077537Y-51634184D01*
X31068691Y-51634500D01*
X30712308Y-51634500D01*
X30682867Y-51625855D01*
X30652881Y-51619332D01*
X30647865Y-51615577D01*
X30645269Y-51614815D01*
X30624627Y-51598181D01*
X30525904Y-51499458D01*
X30492419Y-51438135D01*
X30495280Y-51398123D01*
X30501709Y-51404552D01*
X30575218Y-51435000D01*
X30654782Y-51435000D01*
X30728291Y-51404552D01*
X30784552Y-51348291D01*
X30815000Y-51274782D01*
X30815000Y-51212380D01*
X30859204Y-51203587D01*
X30928795Y-51209814D01*
G37*
%TD.AperFunction*%
%TA.AperFunction,Conductor*%
G36*
X74923515Y-43742185D02*
G01*
X74944157Y-43758819D01*
X75438948Y-44253610D01*
X75472433Y-44314933D01*
X75467449Y-44384625D01*
X75438949Y-44428972D01*
X75378210Y-44489711D01*
X75290609Y-44620814D01*
X75290602Y-44620827D01*
X75230264Y-44766498D01*
X75230261Y-44766510D01*
X75199500Y-44921153D01*
X75199500Y-45078846D01*
X75230261Y-45233489D01*
X75230264Y-45233501D01*
X75290602Y-45379172D01*
X75290606Y-45379179D01*
X75328602Y-45436044D01*
X75349480Y-45502721D01*
X75349500Y-45504935D01*
X75349500Y-46488192D01*
X75329815Y-46555231D01*
X75313181Y-46575873D01*
X70773590Y-51115464D01*
X70712267Y-51148949D01*
X70685909Y-51151783D01*
X66962242Y-51151783D01*
X66895203Y-51132098D01*
X66849448Y-51079294D01*
X66839504Y-51010136D01*
X66868529Y-50946580D01*
X66874561Y-50940102D01*
X74055844Y-43758819D01*
X74117167Y-43725334D01*
X74143525Y-43722500D01*
X74856476Y-43722500D01*
X74923515Y-43742185D01*
G37*
%TD.AperFunction*%
%TA.AperFunction,Conductor*%
G36*
X37205810Y-32520185D02*
G01*
X37251565Y-32572989D01*
X37261509Y-32642147D01*
X37232484Y-32705703D01*
X37226452Y-32712181D01*
X35920822Y-34017809D01*
X35920819Y-34017812D01*
X35917048Y-34021584D01*
X35874455Y-34085331D01*
X35874044Y-34085944D01*
X35874031Y-34085965D01*
X35834916Y-34144504D01*
X35834912Y-34144511D01*
X35778343Y-34281082D01*
X35778340Y-34281092D01*
X35749500Y-34426079D01*
X35749500Y-39695396D01*
X35740062Y-39742844D01*
X35730265Y-39766498D01*
X35730262Y-39766506D01*
X35730260Y-39766511D01*
X35699500Y-39921153D01*
X35699500Y-40078846D01*
X35730261Y-40233489D01*
X35730264Y-40233501D01*
X35790602Y-40379172D01*
X35790609Y-40379185D01*
X35878210Y-40510288D01*
X35878213Y-40510292D01*
X35989707Y-40621786D01*
X35989711Y-40621789D01*
X36120814Y-40709390D01*
X36120827Y-40709397D01*
X36258683Y-40766498D01*
X36266503Y-40769737D01*
X36421153Y-40800499D01*
X36421156Y-40800500D01*
X36421158Y-40800500D01*
X36578844Y-40800500D01*
X36578845Y-40800499D01*
X36733497Y-40769737D01*
X36879179Y-40709394D01*
X37010289Y-40621789D01*
X37121789Y-40510289D01*
X37209394Y-40379179D01*
X37269737Y-40233497D01*
X37300500Y-40078842D01*
X37300500Y-39921158D01*
X37300500Y-39921155D01*
X37300499Y-39921153D01*
X37269739Y-39766511D01*
X37269738Y-39766508D01*
X37269737Y-39766503D01*
X37259937Y-39742844D01*
X37250500Y-39695396D01*
X37250500Y-34862229D01*
X37270185Y-34795190D01*
X37286819Y-34774548D01*
X38274548Y-33786819D01*
X38335871Y-33753334D01*
X38362229Y-33750500D01*
X49818059Y-33750500D01*
X49885098Y-33770185D01*
X49930853Y-33822989D01*
X49940797Y-33892147D01*
X49911772Y-33955703D01*
X49905740Y-33962181D01*
X49878213Y-33989707D01*
X49878210Y-33989711D01*
X49790609Y-34120814D01*
X49790602Y-34120827D01*
X49730264Y-34266498D01*
X49730261Y-34266510D01*
X49699500Y-34421153D01*
X49699500Y-34578846D01*
X49720947Y-34686669D01*
X49714720Y-34756261D01*
X49687011Y-34798541D01*
X47349818Y-37135734D01*
X47288495Y-37169219D01*
X47286329Y-37169670D01*
X47219258Y-37183011D01*
X47219248Y-37183014D01*
X47073577Y-37243352D01*
X47073564Y-37243359D01*
X46942461Y-37330960D01*
X46942457Y-37330963D01*
X46830963Y-37442457D01*
X46830960Y-37442461D01*
X46743359Y-37573564D01*
X46743352Y-37573577D01*
X46683014Y-37719248D01*
X46683011Y-37719260D01*
X46652250Y-37873903D01*
X46652250Y-37954212D01*
X46632565Y-38021251D01*
X46579761Y-38067006D01*
X46528250Y-38078212D01*
X45733647Y-38078212D01*
X45666608Y-38058527D01*
X45664802Y-38057345D01*
X45607891Y-38019318D01*
X45607884Y-38019314D01*
X45462213Y-37958976D01*
X45462201Y-37958973D01*
X45307557Y-37928212D01*
X45307554Y-37928212D01*
X45149870Y-37928212D01*
X45149867Y-37928212D01*
X44995222Y-37958973D01*
X44995210Y-37958976D01*
X44849539Y-38019314D01*
X44849526Y-38019321D01*
X44718423Y-38106922D01*
X44718419Y-38106925D01*
X44606925Y-38218419D01*
X44606922Y-38218423D01*
X44519321Y-38349526D01*
X44519314Y-38349539D01*
X44458976Y-38495210D01*
X44458973Y-38495222D01*
X44428212Y-38649865D01*
X44428212Y-38807558D01*
X44458973Y-38962201D01*
X44458976Y-38962213D01*
X44519314Y-39107884D01*
X44519321Y-39107897D01*
X44606922Y-39239000D01*
X44606925Y-39239004D01*
X44718419Y-39350498D01*
X44718423Y-39350501D01*
X44849526Y-39438102D01*
X44849539Y-39438109D01*
X44995210Y-39498447D01*
X44995215Y-39498449D01*
X45107877Y-39520859D01*
X45149865Y-39529211D01*
X45149868Y-39529212D01*
X45149870Y-39529212D01*
X45307556Y-39529212D01*
X45307557Y-39529211D01*
X45462209Y-39498449D01*
X45607891Y-39438106D01*
X45664756Y-39400109D01*
X45731433Y-39379232D01*
X45733647Y-39379212D01*
X52220056Y-39379212D01*
X52287095Y-39398897D01*
X52332850Y-39451701D01*
X52342794Y-39520859D01*
X52323158Y-39572103D01*
X52290609Y-39620814D01*
X52290602Y-39620827D01*
X52230264Y-39766498D01*
X52230261Y-39766510D01*
X52199500Y-39921153D01*
X52199500Y-40078846D01*
X52230261Y-40233489D01*
X52230264Y-40233501D01*
X52290602Y-40379172D01*
X52290609Y-40379185D01*
X52378210Y-40510288D01*
X52378213Y-40510292D01*
X52489707Y-40621786D01*
X52489711Y-40621789D01*
X52620814Y-40709390D01*
X52620827Y-40709397D01*
X52758683Y-40766498D01*
X52766503Y-40769737D01*
X52921153Y-40800499D01*
X52921156Y-40800500D01*
X52921158Y-40800500D01*
X53078844Y-40800500D01*
X53078845Y-40800499D01*
X53233497Y-40769737D01*
X53379179Y-40709394D01*
X53510289Y-40621789D01*
X53621789Y-40510289D01*
X53709394Y-40379179D01*
X53769737Y-40233497D01*
X53800500Y-40078842D01*
X53800500Y-40019808D01*
X53820185Y-39952769D01*
X53872989Y-39907014D01*
X53942147Y-39897070D01*
X54005703Y-39926095D01*
X54012181Y-39932127D01*
X54313181Y-40233127D01*
X54346666Y-40294450D01*
X54349500Y-40320808D01*
X54349500Y-44496607D01*
X54329815Y-44563646D01*
X54313181Y-44584288D01*
X53903068Y-44994400D01*
X53841745Y-45027885D01*
X53839579Y-45028336D01*
X53772508Y-45041677D01*
X53772498Y-45041680D01*
X53626827Y-45102018D01*
X53626814Y-45102025D01*
X53495711Y-45189626D01*
X53495707Y-45189629D01*
X53384213Y-45301123D01*
X53302673Y-45423155D01*
X53249060Y-45467959D01*
X53179735Y-45476666D01*
X53116708Y-45446511D01*
X53111890Y-45441944D01*
X49217157Y-41547210D01*
X49183672Y-41485887D01*
X49188656Y-41416195D01*
X49201736Y-41390639D01*
X49209394Y-41379179D01*
X49269737Y-41233497D01*
X49300500Y-41078842D01*
X49300500Y-40921158D01*
X49300500Y-40921155D01*
X49300499Y-40921153D01*
X49269738Y-40766510D01*
X49269737Y-40766503D01*
X49267186Y-40760345D01*
X49209397Y-40620827D01*
X49209390Y-40620814D01*
X49121789Y-40489711D01*
X49121786Y-40489707D01*
X49010292Y-40378213D01*
X49010288Y-40378210D01*
X48879185Y-40290609D01*
X48879172Y-40290602D01*
X48733501Y-40230264D01*
X48733489Y-40230261D01*
X48578845Y-40199500D01*
X48578842Y-40199500D01*
X48421158Y-40199500D01*
X48421155Y-40199500D01*
X48266511Y-40230260D01*
X48266506Y-40230262D01*
X48266504Y-40230262D01*
X48266503Y-40230263D01*
X48242844Y-40240062D01*
X48195396Y-40249500D01*
X41426080Y-40249500D01*
X41281092Y-40278340D01*
X41281082Y-40278343D01*
X41144511Y-40334912D01*
X41144499Y-40334919D01*
X41078262Y-40379178D01*
X41021581Y-40417050D01*
X41021578Y-40417053D01*
X39225451Y-42213181D01*
X39164128Y-42246666D01*
X39137770Y-42249500D01*
X37926076Y-42249500D01*
X37897242Y-42255234D01*
X37897243Y-42255235D01*
X37781092Y-42278339D01*
X37781086Y-42278341D01*
X37710179Y-42307712D01*
X37710170Y-42307716D01*
X37704040Y-42310256D01*
X37644505Y-42334916D01*
X37578261Y-42379179D01*
X37573664Y-42382250D01*
X37573654Y-42382256D01*
X37521586Y-42417047D01*
X37521582Y-42417050D01*
X36684703Y-43253927D01*
X36644480Y-43280805D01*
X36620819Y-43290606D01*
X36620818Y-43290607D01*
X36489715Y-43378207D01*
X36489707Y-43378213D01*
X36378213Y-43489707D01*
X36378210Y-43489711D01*
X36290609Y-43620814D01*
X36290602Y-43620827D01*
X36230264Y-43766498D01*
X36230261Y-43766510D01*
X36199500Y-43921153D01*
X36199500Y-44078846D01*
X36230261Y-44233489D01*
X36230264Y-44233501D01*
X36290602Y-44379172D01*
X36290609Y-44379185D01*
X36378210Y-44510288D01*
X36378213Y-44510292D01*
X36489707Y-44621786D01*
X36489711Y-44621789D01*
X36620814Y-44709390D01*
X36620827Y-44709397D01*
X36758683Y-44766498D01*
X36766503Y-44769737D01*
X36921153Y-44800499D01*
X36921156Y-44800500D01*
X36921158Y-44800500D01*
X37078844Y-44800500D01*
X37078845Y-44800499D01*
X37233497Y-44769737D01*
X37379179Y-44709394D01*
X37510289Y-44621789D01*
X37621789Y-44510289D01*
X37709394Y-44379179D01*
X37719191Y-44355524D01*
X37746069Y-44315297D01*
X38274548Y-43786819D01*
X38335871Y-43753334D01*
X38362229Y-43750500D01*
X39573920Y-43750500D01*
X39671462Y-43731096D01*
X39718913Y-43721658D01*
X39855495Y-43665084D01*
X39920291Y-43621789D01*
X39920294Y-43621786D01*
X39920296Y-43621786D01*
X39949547Y-43602240D01*
X39978416Y-43582952D01*
X40499463Y-43061903D01*
X40560784Y-43028420D01*
X40630475Y-43033404D01*
X40686409Y-43075275D01*
X40708759Y-43125394D01*
X40730261Y-43233491D01*
X40730264Y-43233501D01*
X40790602Y-43379172D01*
X40790606Y-43379179D01*
X40828602Y-43436044D01*
X40849480Y-43502721D01*
X40849500Y-43504935D01*
X40849500Y-45179191D01*
X40829815Y-45246230D01*
X40813181Y-45266872D01*
X38397068Y-47682984D01*
X38335745Y-47716469D01*
X38333579Y-47716920D01*
X38266508Y-47730261D01*
X38266498Y-47730264D01*
X38120827Y-47790602D01*
X38120814Y-47790609D01*
X37989711Y-47878210D01*
X37989707Y-47878213D01*
X37878213Y-47989707D01*
X37878210Y-47989711D01*
X37790609Y-48120814D01*
X37790602Y-48120827D01*
X37730264Y-48266498D01*
X37730261Y-48266508D01*
X37716920Y-48333579D01*
X37684535Y-48395490D01*
X37682984Y-48397068D01*
X36381873Y-49698181D01*
X36320550Y-49731666D01*
X36294192Y-49734500D01*
X32939500Y-49734500D01*
X32872461Y-49714815D01*
X32826706Y-49662011D01*
X32815500Y-49610500D01*
X32815500Y-49451232D01*
X32815499Y-49451228D01*
X32807644Y-49411738D01*
X32782816Y-49286918D01*
X32729188Y-49157451D01*
X32721720Y-49087984D01*
X32729189Y-49062547D01*
X32750834Y-49010292D01*
X32782816Y-48933082D01*
X32815500Y-48768767D01*
X32815500Y-48601233D01*
X32782816Y-48436918D01*
X32729188Y-48307451D01*
X32721720Y-48237984D01*
X32729189Y-48212547D01*
X32782816Y-48083082D01*
X32815500Y-47918767D01*
X32815500Y-47751233D01*
X32782816Y-47586918D01*
X32729188Y-47457451D01*
X32721720Y-47387984D01*
X32729189Y-47362547D01*
X32745250Y-47323773D01*
X32782816Y-47233082D01*
X32815500Y-47068767D01*
X32815500Y-46901233D01*
X32782816Y-46736918D01*
X32729188Y-46607451D01*
X32721720Y-46537984D01*
X32729189Y-46512547D01*
X32782816Y-46383082D01*
X32815500Y-46218767D01*
X32815500Y-46051233D01*
X32782816Y-45886918D01*
X32728917Y-45756797D01*
X32721449Y-45687330D01*
X32728918Y-45661892D01*
X32782335Y-45532932D01*
X32782336Y-45532928D01*
X32814999Y-45368722D01*
X32815000Y-45368720D01*
X32815000Y-45201279D01*
X32814999Y-45201277D01*
X32782336Y-45037071D01*
X32782334Y-45037063D01*
X32719114Y-44884437D01*
X32321076Y-45282476D01*
X32259753Y-45315961D01*
X32209204Y-45316412D01*
X32165000Y-45307619D01*
X32165000Y-45245218D01*
X32134552Y-45171709D01*
X32078291Y-45115448D01*
X32004782Y-45085000D01*
X31925218Y-45085000D01*
X31851709Y-45115448D01*
X31795448Y-45171709D01*
X31765000Y-45245218D01*
X31765000Y-45307618D01*
X31720794Y-45316412D01*
X31651202Y-45310185D01*
X31608922Y-45282476D01*
X31423628Y-45097181D01*
X31390143Y-45035858D01*
X31395127Y-44966166D01*
X31436999Y-44910233D01*
X31502463Y-44885816D01*
X31511309Y-44885500D01*
X31828616Y-44885500D01*
X31839042Y-44883426D01*
X31908632Y-44889652D01*
X31950916Y-44917362D01*
X31964999Y-44931445D01*
X32054938Y-44841506D01*
X32095160Y-44814630D01*
X32185231Y-44777322D01*
X32340908Y-44673302D01*
X32473302Y-44540908D01*
X32577322Y-44385231D01*
X32648973Y-44212251D01*
X32685500Y-44028616D01*
X32685500Y-43841384D01*
X32648973Y-43657749D01*
X32579369Y-43489711D01*
X32577323Y-43484771D01*
X32577318Y-43484762D01*
X32473302Y-43329092D01*
X32473299Y-43329088D01*
X32340911Y-43196700D01*
X32340907Y-43196697D01*
X32185237Y-43092681D01*
X32185228Y-43092676D01*
X32012251Y-43021027D01*
X32012243Y-43021025D01*
X31828620Y-42984500D01*
X31828616Y-42984500D01*
X30338404Y-42984500D01*
X30271365Y-42964815D01*
X30225610Y-42912011D01*
X30215666Y-42842853D01*
X30244691Y-42779297D01*
X30290952Y-42745939D01*
X30379172Y-42709397D01*
X30379172Y-42709396D01*
X30379179Y-42709394D01*
X30510289Y-42621789D01*
X30621789Y-42510289D01*
X30709394Y-42379179D01*
X30710918Y-42375501D01*
X30738996Y-42307712D01*
X30769737Y-42233497D01*
X30800500Y-42078842D01*
X30800500Y-41921158D01*
X30800500Y-41921155D01*
X30800499Y-41921153D01*
X30794729Y-41892147D01*
X30769737Y-41766503D01*
X30764282Y-41753334D01*
X30709397Y-41620827D01*
X30709390Y-41620814D01*
X30621789Y-41489711D01*
X30621786Y-41489707D01*
X30510292Y-41378213D01*
X30510288Y-41378210D01*
X30379185Y-41290609D01*
X30379172Y-41290602D01*
X30233501Y-41230264D01*
X30233489Y-41230261D01*
X30078845Y-41199500D01*
X30078842Y-41199500D01*
X29921158Y-41199500D01*
X29921155Y-41199500D01*
X29766510Y-41230261D01*
X29766498Y-41230264D01*
X29620827Y-41290602D01*
X29620820Y-41290606D01*
X29591928Y-41309911D01*
X29563955Y-41328602D01*
X29497279Y-41349480D01*
X29495065Y-41349500D01*
X29435929Y-41349500D01*
X29310261Y-41374497D01*
X29310255Y-41374499D01*
X29191874Y-41423534D01*
X29085326Y-41494726D01*
X28494727Y-42085325D01*
X28494721Y-42085332D01*
X28441711Y-42164668D01*
X28441712Y-42164669D01*
X28423534Y-42191874D01*
X28374499Y-42310255D01*
X28374499Y-42310256D01*
X28349500Y-42435928D01*
X28349500Y-42883309D01*
X28329815Y-42950348D01*
X28277011Y-42996103D01*
X28207853Y-43006047D01*
X28201309Y-43004926D01*
X28098620Y-42984500D01*
X28098616Y-42984500D01*
X27111384Y-42984500D01*
X27111379Y-42984500D01*
X26927756Y-43021025D01*
X26927748Y-43021027D01*
X26754771Y-43092676D01*
X26754764Y-43092680D01*
X26693390Y-43133689D01*
X26626712Y-43154566D01*
X26559332Y-43136081D01*
X26512643Y-43084102D01*
X26500500Y-43030586D01*
X26500500Y-36828031D01*
X27499500Y-36828031D01*
X27499500Y-36859852D01*
X27499500Y-37171969D01*
X27506531Y-37243356D01*
X27533210Y-37514249D01*
X27600308Y-37851572D01*
X27700150Y-38180706D01*
X27757179Y-38318386D01*
X27820067Y-38470212D01*
X27831770Y-38498464D01*
X27831772Y-38498469D01*
X27993893Y-38801775D01*
X27993904Y-38801793D01*
X28184975Y-39087751D01*
X28184985Y-39087765D01*
X28403176Y-39353632D01*
X28646367Y-39596823D01*
X28646372Y-39596827D01*
X28646373Y-39596828D01*
X28912240Y-39815019D01*
X29198213Y-40006100D01*
X29198222Y-40006105D01*
X29198224Y-40006106D01*
X29501530Y-40168227D01*
X29501532Y-40168227D01*
X29501538Y-40168231D01*
X29819295Y-40299850D01*
X30148422Y-40399690D01*
X30485750Y-40466789D01*
X30828031Y-40500500D01*
X30828034Y-40500500D01*
X31171966Y-40500500D01*
X31171969Y-40500500D01*
X31514250Y-40466789D01*
X31851578Y-40399690D01*
X32180705Y-40299850D01*
X32498462Y-40168231D01*
X32801787Y-40006100D01*
X33087760Y-39815019D01*
X33353627Y-39596828D01*
X33596828Y-39353627D01*
X33815019Y-39087760D01*
X34006100Y-38801787D01*
X34168231Y-38498462D01*
X34299850Y-38180705D01*
X34399690Y-37851578D01*
X34466789Y-37514250D01*
X34500500Y-37171969D01*
X34500500Y-36828031D01*
X34466789Y-36485750D01*
X34409850Y-36199500D01*
X34399691Y-36148427D01*
X34399690Y-36148426D01*
X34399690Y-36148422D01*
X34299850Y-35819295D01*
X34168231Y-35501538D01*
X34164985Y-35495466D01*
X34006106Y-35198224D01*
X34006105Y-35198222D01*
X34006100Y-35198213D01*
X33815019Y-34912240D01*
X33596828Y-34646373D01*
X33596827Y-34646372D01*
X33596823Y-34646367D01*
X33353632Y-34403176D01*
X33087765Y-34184985D01*
X33087764Y-34184984D01*
X33087760Y-34184981D01*
X32801787Y-33993900D01*
X32801782Y-33993897D01*
X32801775Y-33993893D01*
X32498469Y-33831772D01*
X32498464Y-33831770D01*
X32180706Y-33700150D01*
X31851572Y-33600308D01*
X31514248Y-33533210D01*
X31514249Y-33533210D01*
X31256456Y-33507821D01*
X31171969Y-33499500D01*
X30828031Y-33499500D01*
X30749966Y-33507188D01*
X30485750Y-33533210D01*
X30148427Y-33600308D01*
X29819293Y-33700150D01*
X29501535Y-33831770D01*
X29501530Y-33831772D01*
X29198224Y-33993893D01*
X29198206Y-33993904D01*
X28912248Y-34184975D01*
X28912234Y-34184985D01*
X28646367Y-34403176D01*
X28403176Y-34646367D01*
X28184985Y-34912234D01*
X28184975Y-34912248D01*
X27993904Y-35198206D01*
X27993893Y-35198224D01*
X27831772Y-35501530D01*
X27831770Y-35501535D01*
X27700150Y-35819293D01*
X27600308Y-36148427D01*
X27533210Y-36485750D01*
X27515327Y-36667331D01*
X27499500Y-36828031D01*
X26500500Y-36828031D01*
X26500500Y-32624500D01*
X26520185Y-32557461D01*
X26572989Y-32511706D01*
X26624500Y-32500500D01*
X37138771Y-32500500D01*
X37205810Y-32520185D01*
G37*
%TD.AperFunction*%
%TA.AperFunction,Conductor*%
G36*
X56868834Y-46653626D02*
G01*
X56924767Y-46695498D01*
X56949184Y-46760962D01*
X56949500Y-46769808D01*
X56949500Y-47579192D01*
X56940853Y-47608637D01*
X56934330Y-47638622D01*
X56930577Y-47643634D01*
X56929815Y-47646231D01*
X56913183Y-47666870D01*
X56900862Y-47679192D01*
X56897067Y-47682987D01*
X56835742Y-47716470D01*
X56833580Y-47716920D01*
X56766508Y-47730261D01*
X56766498Y-47730264D01*
X56620827Y-47790602D01*
X56620820Y-47790606D01*
X56591928Y-47809911D01*
X56563955Y-47828602D01*
X56497279Y-47849480D01*
X56495065Y-47849500D01*
X55869808Y-47849500D01*
X55802769Y-47829815D01*
X55757014Y-47777011D01*
X55747070Y-47707853D01*
X55776095Y-47644297D01*
X55782127Y-47637819D01*
X56737819Y-46682127D01*
X56799142Y-46648642D01*
X56868834Y-46653626D01*
G37*
%TD.AperFunction*%
%TA.AperFunction,Conductor*%
G36*
X57149390Y-33770185D02*
G01*
X57195145Y-33822989D01*
X57205089Y-33892147D01*
X57203969Y-33898690D01*
X57199500Y-33921158D01*
X57199500Y-34078846D01*
X57230261Y-34233489D01*
X57230264Y-34233501D01*
X57290602Y-34379172D01*
X57290609Y-34379185D01*
X57378210Y-34510288D01*
X57378213Y-34510292D01*
X57489707Y-34621786D01*
X57489711Y-34621789D01*
X57620814Y-34709390D01*
X57620827Y-34709397D01*
X57708230Y-34745599D01*
X57766503Y-34769737D01*
X57833580Y-34783079D01*
X57895490Y-34815463D01*
X57897069Y-34817015D01*
X62063181Y-38983127D01*
X62096666Y-39044450D01*
X62099500Y-39070808D01*
X62099500Y-42692242D01*
X62079815Y-42759281D01*
X62027011Y-42805036D01*
X61957853Y-42814980D01*
X61951309Y-42813859D01*
X61828846Y-42789500D01*
X61828842Y-42789500D01*
X61671158Y-42789500D01*
X61671155Y-42789500D01*
X61516510Y-42820261D01*
X61516498Y-42820264D01*
X61370827Y-42880602D01*
X61370814Y-42880609D01*
X61239711Y-42968210D01*
X61239707Y-42968213D01*
X61128213Y-43079707D01*
X61128210Y-43079711D01*
X61040609Y-43210814D01*
X61040602Y-43210827D01*
X60980264Y-43356498D01*
X60980261Y-43356510D01*
X60949500Y-43511153D01*
X60949500Y-43668846D01*
X60980261Y-43823489D01*
X60980264Y-43823501D01*
X61040602Y-43969172D01*
X61040609Y-43969185D01*
X61078165Y-44025391D01*
X61099043Y-44092069D01*
X61080558Y-44159449D01*
X61028580Y-44206139D01*
X60959610Y-44217315D01*
X60927611Y-44208843D01*
X60805501Y-44158264D01*
X60805489Y-44158261D01*
X60650845Y-44127500D01*
X60650842Y-44127500D01*
X60525459Y-44127500D01*
X60458420Y-44107815D01*
X60412665Y-44055011D01*
X60402721Y-43985853D01*
X60422357Y-43934609D01*
X60431348Y-43921153D01*
X60459394Y-43879179D01*
X60519737Y-43733497D01*
X60550500Y-43578842D01*
X60550500Y-43421158D01*
X60550500Y-43421155D01*
X60550499Y-43421153D01*
X60541956Y-43378207D01*
X60519737Y-43266503D01*
X60505912Y-43233126D01*
X60459397Y-43120827D01*
X60459390Y-43120814D01*
X60371789Y-42989711D01*
X60371786Y-42989707D01*
X60260292Y-42878213D01*
X60260288Y-42878210D01*
X60129185Y-42790609D01*
X60129172Y-42790602D01*
X59983501Y-42730264D01*
X59983489Y-42730261D01*
X59828845Y-42699500D01*
X59828842Y-42699500D01*
X59671158Y-42699500D01*
X59671155Y-42699500D01*
X59516510Y-42730261D01*
X59516498Y-42730264D01*
X59370827Y-42790602D01*
X59370814Y-42790609D01*
X59239711Y-42878210D01*
X59239707Y-42878213D01*
X59128213Y-42989707D01*
X59128210Y-42989711D01*
X59040609Y-43120814D01*
X59040602Y-43120827D01*
X58980264Y-43266498D01*
X58980261Y-43266510D01*
X58949500Y-43421153D01*
X58949500Y-43578846D01*
X58980261Y-43733489D01*
X58980264Y-43733501D01*
X59040602Y-43879172D01*
X59040609Y-43879185D01*
X59128602Y-44010874D01*
X59149480Y-44077551D01*
X59149500Y-44079765D01*
X59149500Y-46299846D01*
X59129815Y-46366885D01*
X59113181Y-46387527D01*
X58462181Y-47038527D01*
X58400858Y-47072012D01*
X58331166Y-47067028D01*
X58275233Y-47025156D01*
X58250816Y-46959692D01*
X58250500Y-46950846D01*
X58250500Y-39904935D01*
X58270185Y-39837896D01*
X58271366Y-39836090D01*
X58309394Y-39779179D01*
X58369737Y-39633497D01*
X58400500Y-39478842D01*
X58400500Y-39321158D01*
X58400500Y-39321155D01*
X58400499Y-39321153D01*
X58397193Y-39304534D01*
X58369737Y-39166503D01*
X58345462Y-39107897D01*
X58309397Y-39020827D01*
X58309390Y-39020814D01*
X58221789Y-38889711D01*
X58221786Y-38889707D01*
X58110292Y-38778213D01*
X58110288Y-38778210D01*
X57979185Y-38690609D01*
X57979172Y-38690602D01*
X57833501Y-38630264D01*
X57833489Y-38630261D01*
X57678845Y-38599500D01*
X57678842Y-38599500D01*
X57521158Y-38599500D01*
X57521155Y-38599500D01*
X57366510Y-38630261D01*
X57366498Y-38630264D01*
X57321952Y-38648716D01*
X57252483Y-38656185D01*
X57190004Y-38624909D01*
X57154352Y-38564820D01*
X57150500Y-38534155D01*
X57150500Y-37145928D01*
X57125502Y-37020261D01*
X57125501Y-37020260D01*
X57125501Y-37020256D01*
X57076465Y-36901873D01*
X57068488Y-36889934D01*
X57068488Y-36889933D01*
X57005278Y-36795332D01*
X57005272Y-36795325D01*
X56817014Y-36607068D01*
X56783529Y-36545745D01*
X56783105Y-36543714D01*
X56769737Y-36476503D01*
X56729024Y-36378213D01*
X56709397Y-36330827D01*
X56709390Y-36330814D01*
X56621789Y-36199711D01*
X56621786Y-36199707D01*
X56510292Y-36088213D01*
X56510288Y-36088210D01*
X56379185Y-36000609D01*
X56379172Y-36000602D01*
X56233501Y-35940264D01*
X56233489Y-35940261D01*
X56078845Y-35909500D01*
X56078842Y-35909500D01*
X55921158Y-35909500D01*
X55921155Y-35909500D01*
X55766510Y-35940261D01*
X55766498Y-35940264D01*
X55620827Y-36000602D01*
X55620814Y-36000609D01*
X55489711Y-36088210D01*
X55489707Y-36088213D01*
X55378213Y-36199707D01*
X55378210Y-36199711D01*
X55290609Y-36330814D01*
X55290602Y-36330827D01*
X55230264Y-36476498D01*
X55230261Y-36476510D01*
X55199500Y-36631153D01*
X55199500Y-36788846D01*
X55230261Y-36943489D01*
X55230264Y-36943501D01*
X55290602Y-37089172D01*
X55290609Y-37089185D01*
X55378210Y-37220288D01*
X55378213Y-37220292D01*
X55489707Y-37331786D01*
X55489711Y-37331789D01*
X55620814Y-37419390D01*
X55620827Y-37419397D01*
X55772131Y-37482068D01*
X55771114Y-37484522D01*
X55819930Y-37516510D01*
X55848390Y-37580321D01*
X55849500Y-37596878D01*
X55849500Y-37921730D01*
X55829815Y-37988769D01*
X55777011Y-38034524D01*
X55707853Y-38044468D01*
X55644297Y-38015443D01*
X55625707Y-37994373D01*
X55625653Y-37994419D01*
X55624391Y-37992881D01*
X55622403Y-37990628D01*
X55621793Y-37989716D01*
X55621786Y-37989707D01*
X55510292Y-37878213D01*
X55510288Y-37878210D01*
X55379185Y-37790609D01*
X55379172Y-37790602D01*
X55233501Y-37730264D01*
X55233489Y-37730261D01*
X55078845Y-37699500D01*
X55078842Y-37699500D01*
X54921158Y-37699500D01*
X54921155Y-37699500D01*
X54766510Y-37730261D01*
X54766498Y-37730264D01*
X54620827Y-37790602D01*
X54620814Y-37790609D01*
X54489711Y-37878210D01*
X54489707Y-37878213D01*
X54378213Y-37989707D01*
X54378210Y-37989711D01*
X54290609Y-38120814D01*
X54290603Y-38120826D01*
X54283221Y-38138648D01*
X54239379Y-38193050D01*
X54173085Y-38215114D01*
X54105386Y-38197834D01*
X54099771Y-38194296D01*
X54078222Y-38179898D01*
X54036839Y-38152247D01*
X54004008Y-38138648D01*
X53918456Y-38103211D01*
X53918450Y-38103209D01*
X53792783Y-38078212D01*
X53792781Y-38078212D01*
X48546596Y-38078212D01*
X48479557Y-38058527D01*
X48433802Y-38005723D01*
X48423858Y-37936565D01*
X48452883Y-37873009D01*
X48458915Y-37866531D01*
X51005271Y-35320175D01*
X51005276Y-35320170D01*
X51041138Y-35266498D01*
X51076464Y-35213629D01*
X51082845Y-35198224D01*
X51125501Y-35095244D01*
X51129627Y-35074500D01*
X51146325Y-34990554D01*
X51164841Y-34945857D01*
X51209389Y-34879187D01*
X51209390Y-34879184D01*
X51209394Y-34879179D01*
X51269737Y-34733497D01*
X51300500Y-34578842D01*
X51300500Y-34421158D01*
X51300500Y-34421155D01*
X51300499Y-34421153D01*
X51269738Y-34266510D01*
X51269737Y-34266503D01*
X51256062Y-34233489D01*
X51209397Y-34120827D01*
X51209390Y-34120814D01*
X51121789Y-33989711D01*
X51121786Y-33989707D01*
X51094260Y-33962181D01*
X51060775Y-33900858D01*
X51065759Y-33831166D01*
X51107631Y-33775233D01*
X51173095Y-33750816D01*
X51181941Y-33750500D01*
X57082351Y-33750500D01*
X57149390Y-33770185D01*
G37*
%TD.AperFunction*%
%TA.AperFunction,Conductor*%
G36*
X31135730Y-44905185D02*
G01*
X31181485Y-44957989D01*
X31191429Y-45027147D01*
X31162404Y-45090703D01*
X31156372Y-45097181D01*
X30971076Y-45282476D01*
X30909753Y-45315961D01*
X30859204Y-45316412D01*
X30815000Y-45307619D01*
X30815000Y-45245218D01*
X30784552Y-45171709D01*
X30728291Y-45115448D01*
X30654782Y-45085000D01*
X30575218Y-45085000D01*
X30501709Y-45115448D01*
X30493177Y-45123979D01*
X30497403Y-45064889D01*
X30525904Y-45020542D01*
X30624627Y-44921819D01*
X30685950Y-44888334D01*
X30712308Y-44885500D01*
X31068691Y-44885500D01*
X31135730Y-44905185D01*
G37*
%TD.AperFunction*%
%TA.AperFunction,Conductor*%
G36*
X48496231Y-42670185D02*
G01*
X48516873Y-42686819D01*
X49389873Y-43559819D01*
X49423358Y-43621142D01*
X49418374Y-43690834D01*
X49376502Y-43746767D01*
X49311038Y-43771184D01*
X49302192Y-43771500D01*
X45947808Y-43771500D01*
X45880769Y-43751815D01*
X45835014Y-43699011D01*
X45825070Y-43629853D01*
X45854095Y-43566297D01*
X45860127Y-43559819D01*
X46733127Y-42686819D01*
X46794450Y-42653334D01*
X46820808Y-42650500D01*
X48429192Y-42650500D01*
X48496231Y-42670185D01*
G37*
%TD.AperFunction*%
%TD*%
M02*
