%TF.GenerationSoftware,KiCad,Pcbnew,9.0.3*%
%TF.CreationDate,2025-12-18T19:10:42-03:00*%
%TF.ProjectId,PCB_LoRa+GPS,5043425f-4c6f-4526-912b-4750532e6b69,rev?*%
%TF.SameCoordinates,Original*%
%TF.FileFunction,Soldermask,Bot*%
%TF.FilePolarity,Negative*%
%FSLAX46Y46*%
G04 Gerber Fmt 4.6, Leading zero omitted, Abs format (unit mm)*
G04 Created by KiCad (PCBNEW 9.0.3) date 2025-12-18 19:10:42*
%MOMM*%
%LPD*%
G01*
G04 APERTURE LIST*
G04 APERTURE END LIST*
G36*
X69159034Y-70105764D02*
G01*
X69192125Y-70127875D01*
X69214236Y-70160966D01*
X69222000Y-70200000D01*
X69222000Y-72800000D01*
X69214236Y-72839034D01*
X69192125Y-72872125D01*
X69159034Y-72894236D01*
X69120000Y-72902000D01*
X65520000Y-72902000D01*
X65480966Y-72894236D01*
X65447875Y-72872125D01*
X65425764Y-72839034D01*
X65418000Y-72800000D01*
X65418000Y-70200000D01*
X65425764Y-70160966D01*
X65447875Y-70127875D01*
X65480966Y-70105764D01*
X65520000Y-70098000D01*
X69120000Y-70098000D01*
X69159034Y-70105764D01*
G37*
G36*
X84949034Y-70105764D02*
G01*
X84982125Y-70127875D01*
X85004236Y-70160966D01*
X85012000Y-70200000D01*
X85012000Y-72800000D01*
X85004236Y-72839034D01*
X84982125Y-72872125D01*
X84949034Y-72894236D01*
X84910000Y-72902000D01*
X81310000Y-72902000D01*
X81270966Y-72894236D01*
X81237875Y-72872125D01*
X81215764Y-72839034D01*
X81208000Y-72800000D01*
X81208000Y-70200000D01*
X81215764Y-70160966D01*
X81237875Y-70127875D01*
X81270966Y-70105764D01*
X81310000Y-70098000D01*
X84910000Y-70098000D01*
X84949034Y-70105764D01*
G37*
G36*
X71708685Y-70877989D02*
G01*
X71826408Y-70926751D01*
X71932356Y-70997543D01*
X72022457Y-71087644D01*
X72093249Y-71193592D01*
X72142011Y-71311315D01*
X72166870Y-71436289D01*
X72166870Y-71563711D01*
X72142011Y-71688685D01*
X72093249Y-71806408D01*
X72022457Y-71912356D01*
X71932356Y-72002457D01*
X71826408Y-72073249D01*
X71708685Y-72122011D01*
X71583711Y-72146870D01*
X71456289Y-72146870D01*
X71331315Y-72122011D01*
X71213592Y-72073249D01*
X71107644Y-72002457D01*
X71017543Y-71912356D01*
X70946751Y-71806408D01*
X70897989Y-71688685D01*
X70873130Y-71563711D01*
X70873130Y-71436289D01*
X70897989Y-71311315D01*
X70946751Y-71193592D01*
X71017543Y-71087644D01*
X71107644Y-70997543D01*
X71213592Y-70926751D01*
X71331315Y-70877989D01*
X71456289Y-70853130D01*
X71583711Y-70853130D01*
X71708685Y-70877989D01*
G37*
G36*
X79201342Y-71038060D02*
G01*
X79314381Y-71103323D01*
X79406677Y-71195619D01*
X79471940Y-71308658D01*
X79505722Y-71434737D01*
X79505722Y-71565263D01*
X79471940Y-71691342D01*
X79406677Y-71804381D01*
X79314381Y-71896677D01*
X79201342Y-71961940D01*
X79075263Y-71995722D01*
X78944737Y-71995722D01*
X78818658Y-71961940D01*
X78705619Y-71896677D01*
X78613323Y-71804381D01*
X78548060Y-71691342D01*
X78514278Y-71565263D01*
X78514278Y-71434737D01*
X78548060Y-71308658D01*
X78613323Y-71195619D01*
X78705619Y-71103323D01*
X78818658Y-71038060D01*
X78944737Y-71004278D01*
X79075263Y-71004278D01*
X79201342Y-71038060D01*
G37*
G36*
X52417600Y-56989600D02*
G01*
X51417600Y-56989600D01*
X51417600Y-55989600D01*
X52417600Y-55989600D01*
X52417600Y-56989600D01*
G37*
G36*
X52707403Y-53711418D02*
G01*
X52756066Y-53743934D01*
X52788582Y-53792597D01*
X52800000Y-53850000D01*
X52800000Y-55025000D01*
X52788582Y-55082403D01*
X52756066Y-55131066D01*
X52707403Y-55163582D01*
X52650000Y-55175000D01*
X52350000Y-55175000D01*
X52292597Y-55163582D01*
X52243934Y-55131066D01*
X52211418Y-55082403D01*
X52200000Y-55025000D01*
X52200000Y-53850000D01*
X52211418Y-53792597D01*
X52243934Y-53743934D01*
X52292597Y-53711418D01*
X52350000Y-53700000D01*
X52650000Y-53700000D01*
X52707403Y-53711418D01*
G37*
G36*
X100733315Y-52654093D02*
G01*
X100896742Y-52686601D01*
X101050687Y-52750367D01*
X101189234Y-52842941D01*
X101307059Y-52960766D01*
X101399633Y-53099313D01*
X101463399Y-53253258D01*
X101495907Y-53416685D01*
X101495907Y-53583315D01*
X101463399Y-53746742D01*
X101399633Y-53900687D01*
X101307059Y-54039234D01*
X101189234Y-54157059D01*
X101050687Y-54249633D01*
X100896742Y-54313399D01*
X100733315Y-54345907D01*
X100650000Y-54350000D01*
X100648522Y-54350000D01*
X100351478Y-54350000D01*
X100350000Y-54350000D01*
X100266685Y-54345907D01*
X100103258Y-54313399D01*
X99949313Y-54249633D01*
X99810766Y-54157059D01*
X99692941Y-54039234D01*
X99600367Y-53900687D01*
X99536601Y-53746742D01*
X99504093Y-53583315D01*
X99504093Y-53416685D01*
X99536601Y-53253258D01*
X99600367Y-53099313D01*
X99692941Y-52960766D01*
X99810766Y-52842941D01*
X99949313Y-52750367D01*
X100103258Y-52686601D01*
X100266685Y-52654093D01*
X100350000Y-52650000D01*
X100650000Y-52650000D01*
X100733315Y-52654093D01*
G37*
G36*
X51757403Y-51836418D02*
G01*
X51806066Y-51868934D01*
X51838582Y-51917597D01*
X51850000Y-51975000D01*
X51850000Y-53150000D01*
X51838582Y-53207403D01*
X51806066Y-53256066D01*
X51757403Y-53288582D01*
X51700000Y-53300000D01*
X51400000Y-53300000D01*
X51342597Y-53288582D01*
X51293934Y-53256066D01*
X51261418Y-53207403D01*
X51250000Y-53150000D01*
X51250000Y-51975000D01*
X51261418Y-51917597D01*
X51293934Y-51868934D01*
X51342597Y-51836418D01*
X51400000Y-51825000D01*
X51700000Y-51825000D01*
X51757403Y-51836418D01*
G37*
G36*
X53657403Y-51836418D02*
G01*
X53706066Y-51868934D01*
X53738582Y-51917597D01*
X53750000Y-51975000D01*
X53750000Y-53150000D01*
X53738582Y-53207403D01*
X53706066Y-53256066D01*
X53657403Y-53288582D01*
X53600000Y-53300000D01*
X53300000Y-53300000D01*
X53242597Y-53288582D01*
X53193934Y-53256066D01*
X53161418Y-53207403D01*
X53150000Y-53150000D01*
X53150000Y-51975000D01*
X53161418Y-51917597D01*
X53193934Y-51868934D01*
X53242597Y-51836418D01*
X53300000Y-51825000D01*
X53600000Y-51825000D01*
X53657403Y-51836418D01*
G37*
G36*
X28063737Y-52138850D02*
G01*
X28177208Y-52169254D01*
X28278943Y-52227991D01*
X28362009Y-52311057D01*
X28420746Y-52412792D01*
X28451150Y-52526263D01*
X28451150Y-52643737D01*
X28420746Y-52757208D01*
X28362009Y-52858943D01*
X28278943Y-52942009D01*
X28177208Y-53000746D01*
X28063737Y-53031150D01*
X28005000Y-53035000D01*
X28003029Y-53035000D01*
X27206971Y-53035000D01*
X27205000Y-53035000D01*
X27146263Y-53031150D01*
X27032792Y-53000746D01*
X26931057Y-52942009D01*
X26847991Y-52858943D01*
X26789254Y-52757208D01*
X26758850Y-52643737D01*
X26758850Y-52526263D01*
X26789254Y-52412792D01*
X26847991Y-52311057D01*
X26931057Y-52227991D01*
X27032792Y-52169254D01*
X27146263Y-52138850D01*
X27205000Y-52135000D01*
X28005000Y-52135000D01*
X28063737Y-52138850D01*
G37*
G36*
X31793737Y-52138850D02*
G01*
X31907208Y-52169254D01*
X32008943Y-52227991D01*
X32092009Y-52311057D01*
X32150746Y-52412792D01*
X32181150Y-52526263D01*
X32181150Y-52643737D01*
X32150746Y-52757208D01*
X32092009Y-52858943D01*
X32008943Y-52942009D01*
X31907208Y-53000746D01*
X31793737Y-53031150D01*
X31735000Y-53035000D01*
X31733029Y-53035000D01*
X30236971Y-53035000D01*
X30235000Y-53035000D01*
X30176263Y-53031150D01*
X30062792Y-53000746D01*
X29961057Y-52942009D01*
X29877991Y-52858943D01*
X29819254Y-52757208D01*
X29788850Y-52643737D01*
X29788850Y-52526263D01*
X29819254Y-52412792D01*
X29877991Y-52311057D01*
X29961057Y-52227991D01*
X30062792Y-52169254D01*
X30176263Y-52138850D01*
X30235000Y-52135000D01*
X31735000Y-52135000D01*
X31793737Y-52138850D01*
G37*
G36*
X101254850Y-50150964D02*
G01*
X101305040Y-50156787D01*
X101322189Y-50164359D01*
X101345671Y-50169030D01*
X101370810Y-50185827D01*
X101390696Y-50194608D01*
X101404277Y-50208189D01*
X101426777Y-50223223D01*
X101441810Y-50245722D01*
X101455391Y-50259303D01*
X101464170Y-50279186D01*
X101480970Y-50304329D01*
X101485641Y-50327812D01*
X101493212Y-50344959D01*
X101499033Y-50395139D01*
X101500000Y-50400000D01*
X101500000Y-51600000D01*
X101499032Y-51604863D01*
X101493212Y-51655040D01*
X101485641Y-51672185D01*
X101480970Y-51695671D01*
X101464169Y-51720815D01*
X101455391Y-51740696D01*
X101441812Y-51754274D01*
X101426777Y-51776777D01*
X101404274Y-51791812D01*
X101390696Y-51805391D01*
X101370815Y-51814169D01*
X101345671Y-51830970D01*
X101322185Y-51835641D01*
X101305040Y-51843212D01*
X101254861Y-51849032D01*
X101250000Y-51850000D01*
X99750000Y-51850000D01*
X99745138Y-51849032D01*
X99694959Y-51843212D01*
X99677812Y-51835641D01*
X99654329Y-51830970D01*
X99629186Y-51814170D01*
X99609303Y-51805391D01*
X99595722Y-51791810D01*
X99573223Y-51776777D01*
X99558189Y-51754277D01*
X99544608Y-51740696D01*
X99535827Y-51720810D01*
X99519030Y-51695671D01*
X99514359Y-51672189D01*
X99506787Y-51655040D01*
X99500964Y-51604849D01*
X99500000Y-51600000D01*
X99500000Y-50400000D01*
X99500964Y-50395150D01*
X99506787Y-50344959D01*
X99514359Y-50327808D01*
X99519030Y-50304329D01*
X99535826Y-50279191D01*
X99544608Y-50259303D01*
X99558191Y-50245719D01*
X99573223Y-50223223D01*
X99595719Y-50208191D01*
X99609303Y-50194608D01*
X99629191Y-50185826D01*
X99654329Y-50169030D01*
X99677808Y-50164359D01*
X99694959Y-50156787D01*
X99745151Y-50150964D01*
X99750000Y-50150000D01*
X101250000Y-50150000D01*
X101254850Y-50150964D01*
G37*
G36*
X30748939Y-50911642D02*
G01*
X30828067Y-50957326D01*
X30892674Y-51021933D01*
X30938358Y-51101061D01*
X30962006Y-51189316D01*
X30962006Y-51280684D01*
X30938358Y-51368939D01*
X30892674Y-51448067D01*
X30828067Y-51512674D01*
X30748939Y-51558358D01*
X30660684Y-51582006D01*
X30569316Y-51582006D01*
X30481061Y-51558358D01*
X30401933Y-51512674D01*
X30337326Y-51448067D01*
X30291642Y-51368939D01*
X30267994Y-51280684D01*
X30267994Y-51189316D01*
X30291642Y-51101061D01*
X30337326Y-51021933D01*
X30401933Y-50957326D01*
X30481061Y-50911642D01*
X30569316Y-50887994D01*
X30660684Y-50887994D01*
X30748939Y-50911642D01*
G37*
G36*
X32098939Y-50911642D02*
G01*
X32178067Y-50957326D01*
X32242674Y-51021933D01*
X32288358Y-51101061D01*
X32312006Y-51189316D01*
X32312006Y-51280684D01*
X32288358Y-51368939D01*
X32242674Y-51448067D01*
X32178067Y-51512674D01*
X32098939Y-51558358D01*
X32010684Y-51582006D01*
X31919316Y-51582006D01*
X31831061Y-51558358D01*
X31751933Y-51512674D01*
X31687326Y-51448067D01*
X31641642Y-51368939D01*
X31617994Y-51280684D01*
X31617994Y-51189316D01*
X31641642Y-51101061D01*
X31687326Y-51021933D01*
X31751933Y-50957326D01*
X31831061Y-50911642D01*
X31919316Y-50887994D01*
X32010684Y-50887994D01*
X32098939Y-50911642D01*
G37*
G36*
X51676662Y-50190276D02*
G01*
X51720459Y-50219541D01*
X51749724Y-50263338D01*
X51760000Y-50315000D01*
X51760000Y-50685000D01*
X51749724Y-50736662D01*
X51720459Y-50780459D01*
X51676662Y-50809724D01*
X51625000Y-50820000D01*
X51355000Y-50820000D01*
X51303338Y-50809724D01*
X51259541Y-50780459D01*
X51230276Y-50736662D01*
X51220000Y-50685000D01*
X51220000Y-50315000D01*
X51230276Y-50263338D01*
X51259541Y-50219541D01*
X51303338Y-50190276D01*
X51355000Y-50180000D01*
X51625000Y-50180000D01*
X51676662Y-50190276D01*
G37*
G36*
X52696662Y-50190276D02*
G01*
X52740459Y-50219541D01*
X52769724Y-50263338D01*
X52780000Y-50315000D01*
X52780000Y-50685000D01*
X52769724Y-50736662D01*
X52740459Y-50780459D01*
X52696662Y-50809724D01*
X52645000Y-50820000D01*
X52375000Y-50820000D01*
X52323338Y-50809724D01*
X52279541Y-50780459D01*
X52250276Y-50736662D01*
X52240000Y-50685000D01*
X52240000Y-50315000D01*
X52250276Y-50263338D01*
X52279541Y-50219541D01*
X52323338Y-50190276D01*
X52375000Y-50180000D01*
X52645000Y-50180000D01*
X52696662Y-50190276D01*
G37*
G36*
X53926662Y-50190276D02*
G01*
X53970459Y-50219541D01*
X53999724Y-50263338D01*
X54010000Y-50315000D01*
X54010000Y-50685000D01*
X53999724Y-50736662D01*
X53970459Y-50780459D01*
X53926662Y-50809724D01*
X53875000Y-50820000D01*
X53605000Y-50820000D01*
X53553338Y-50809724D01*
X53509541Y-50780459D01*
X53480276Y-50736662D01*
X53470000Y-50685000D01*
X53470000Y-50315000D01*
X53480276Y-50263338D01*
X53509541Y-50219541D01*
X53553338Y-50190276D01*
X53605000Y-50180000D01*
X53875000Y-50180000D01*
X53926662Y-50190276D01*
G37*
G36*
X54946662Y-50190276D02*
G01*
X54990459Y-50219541D01*
X55019724Y-50263338D01*
X55030000Y-50315000D01*
X55030000Y-50685000D01*
X55019724Y-50736662D01*
X54990459Y-50780459D01*
X54946662Y-50809724D01*
X54895000Y-50820000D01*
X54625000Y-50820000D01*
X54573338Y-50809724D01*
X54529541Y-50780459D01*
X54500276Y-50736662D01*
X54490000Y-50685000D01*
X54490000Y-50315000D01*
X54500276Y-50263338D01*
X54529541Y-50219541D01*
X54573338Y-50190276D01*
X54625000Y-50180000D01*
X54895000Y-50180000D01*
X54946662Y-50190276D01*
G37*
G36*
X30748939Y-50061642D02*
G01*
X30828067Y-50107326D01*
X30892674Y-50171933D01*
X30938358Y-50251061D01*
X30962006Y-50339316D01*
X30962006Y-50430684D01*
X30938358Y-50518939D01*
X30892674Y-50598067D01*
X30828067Y-50662674D01*
X30748939Y-50708358D01*
X30660684Y-50732006D01*
X30569316Y-50732006D01*
X30481061Y-50708358D01*
X30401933Y-50662674D01*
X30337326Y-50598067D01*
X30291642Y-50518939D01*
X30267994Y-50430684D01*
X30267994Y-50339316D01*
X30291642Y-50251061D01*
X30337326Y-50171933D01*
X30401933Y-50107326D01*
X30481061Y-50061642D01*
X30569316Y-50037994D01*
X30660684Y-50037994D01*
X30748939Y-50061642D01*
G37*
G36*
X32098939Y-50061642D02*
G01*
X32178067Y-50107326D01*
X32242674Y-50171933D01*
X32288358Y-50251061D01*
X32312006Y-50339316D01*
X32312006Y-50430684D01*
X32288358Y-50518939D01*
X32242674Y-50598067D01*
X32178067Y-50662674D01*
X32098939Y-50708358D01*
X32010684Y-50732006D01*
X31919316Y-50732006D01*
X31831061Y-50708358D01*
X31751933Y-50662674D01*
X31687326Y-50598067D01*
X31641642Y-50518939D01*
X31617994Y-50430684D01*
X31617994Y-50339316D01*
X31641642Y-50251061D01*
X31687326Y-50171933D01*
X31751933Y-50107326D01*
X31831061Y-50061642D01*
X31919316Y-50037994D01*
X32010684Y-50037994D01*
X32098939Y-50061642D01*
G37*
G36*
X30748939Y-49211642D02*
G01*
X30828067Y-49257326D01*
X30892674Y-49321933D01*
X30938358Y-49401061D01*
X30962006Y-49489316D01*
X30962006Y-49580684D01*
X30938358Y-49668939D01*
X30892674Y-49748067D01*
X30828067Y-49812674D01*
X30748939Y-49858358D01*
X30660684Y-49882006D01*
X30569316Y-49882006D01*
X30481061Y-49858358D01*
X30401933Y-49812674D01*
X30337326Y-49748067D01*
X30291642Y-49668939D01*
X30267994Y-49580684D01*
X30267994Y-49489316D01*
X30291642Y-49401061D01*
X30337326Y-49321933D01*
X30401933Y-49257326D01*
X30481061Y-49211642D01*
X30569316Y-49187994D01*
X30660684Y-49187994D01*
X30748939Y-49211642D01*
G37*
G36*
X32098939Y-49211642D02*
G01*
X32178067Y-49257326D01*
X32242674Y-49321933D01*
X32288358Y-49401061D01*
X32312006Y-49489316D01*
X32312006Y-49580684D01*
X32288358Y-49668939D01*
X32242674Y-49748067D01*
X32178067Y-49812674D01*
X32098939Y-49858358D01*
X32010684Y-49882006D01*
X31919316Y-49882006D01*
X31831061Y-49858358D01*
X31751933Y-49812674D01*
X31687326Y-49748067D01*
X31641642Y-49668939D01*
X31617994Y-49580684D01*
X31617994Y-49489316D01*
X31641642Y-49401061D01*
X31687326Y-49321933D01*
X31751933Y-49257326D01*
X31831061Y-49211642D01*
X31919316Y-49187994D01*
X32010684Y-49187994D01*
X32098939Y-49211642D01*
G37*
G36*
X30748939Y-48361642D02*
G01*
X30828067Y-48407326D01*
X30892674Y-48471933D01*
X30938358Y-48551061D01*
X30962006Y-48639316D01*
X30962006Y-48730684D01*
X30938358Y-48818939D01*
X30892674Y-48898067D01*
X30828067Y-48962674D01*
X30748939Y-49008358D01*
X30660684Y-49032006D01*
X30569316Y-49032006D01*
X30481061Y-49008358D01*
X30401933Y-48962674D01*
X30337326Y-48898067D01*
X30291642Y-48818939D01*
X30267994Y-48730684D01*
X30267994Y-48639316D01*
X30291642Y-48551061D01*
X30337326Y-48471933D01*
X30401933Y-48407326D01*
X30481061Y-48361642D01*
X30569316Y-48337994D01*
X30660684Y-48337994D01*
X30748939Y-48361642D01*
G37*
G36*
X32098939Y-48361642D02*
G01*
X32178067Y-48407326D01*
X32242674Y-48471933D01*
X32288358Y-48551061D01*
X32312006Y-48639316D01*
X32312006Y-48730684D01*
X32288358Y-48818939D01*
X32242674Y-48898067D01*
X32178067Y-48962674D01*
X32098939Y-49008358D01*
X32010684Y-49032006D01*
X31919316Y-49032006D01*
X31831061Y-49008358D01*
X31751933Y-48962674D01*
X31687326Y-48898067D01*
X31641642Y-48818939D01*
X31617994Y-48730684D01*
X31617994Y-48639316D01*
X31641642Y-48551061D01*
X31687326Y-48471933D01*
X31751933Y-48407326D01*
X31831061Y-48361642D01*
X31919316Y-48337994D01*
X32010684Y-48337994D01*
X32098939Y-48361642D01*
G37*
G36*
X30748939Y-47511642D02*
G01*
X30828067Y-47557326D01*
X30892674Y-47621933D01*
X30938358Y-47701061D01*
X30962006Y-47789316D01*
X30962006Y-47880684D01*
X30938358Y-47968939D01*
X30892674Y-48048067D01*
X30828067Y-48112674D01*
X30748939Y-48158358D01*
X30660684Y-48182006D01*
X30569316Y-48182006D01*
X30481061Y-48158358D01*
X30401933Y-48112674D01*
X30337326Y-48048067D01*
X30291642Y-47968939D01*
X30267994Y-47880684D01*
X30267994Y-47789316D01*
X30291642Y-47701061D01*
X30337326Y-47621933D01*
X30401933Y-47557326D01*
X30481061Y-47511642D01*
X30569316Y-47487994D01*
X30660684Y-47487994D01*
X30748939Y-47511642D01*
G37*
G36*
X32098939Y-47511642D02*
G01*
X32178067Y-47557326D01*
X32242674Y-47621933D01*
X32288358Y-47701061D01*
X32312006Y-47789316D01*
X32312006Y-47880684D01*
X32288358Y-47968939D01*
X32242674Y-48048067D01*
X32178067Y-48112674D01*
X32098939Y-48158358D01*
X32010684Y-48182006D01*
X31919316Y-48182006D01*
X31831061Y-48158358D01*
X31751933Y-48112674D01*
X31687326Y-48048067D01*
X31641642Y-47968939D01*
X31617994Y-47880684D01*
X31617994Y-47789316D01*
X31641642Y-47701061D01*
X31687326Y-47621933D01*
X31751933Y-47557326D01*
X31831061Y-47511642D01*
X31919316Y-47487994D01*
X32010684Y-47487994D01*
X32098939Y-47511642D01*
G37*
G36*
X30748939Y-46661642D02*
G01*
X30828067Y-46707326D01*
X30892674Y-46771933D01*
X30938358Y-46851061D01*
X30962006Y-46939316D01*
X30962006Y-47030684D01*
X30938358Y-47118939D01*
X30892674Y-47198067D01*
X30828067Y-47262674D01*
X30748939Y-47308358D01*
X30660684Y-47332006D01*
X30569316Y-47332006D01*
X30481061Y-47308358D01*
X30401933Y-47262674D01*
X30337326Y-47198067D01*
X30291642Y-47118939D01*
X30267994Y-47030684D01*
X30267994Y-46939316D01*
X30291642Y-46851061D01*
X30337326Y-46771933D01*
X30401933Y-46707326D01*
X30481061Y-46661642D01*
X30569316Y-46637994D01*
X30660684Y-46637994D01*
X30748939Y-46661642D01*
G37*
G36*
X32098939Y-46661642D02*
G01*
X32178067Y-46707326D01*
X32242674Y-46771933D01*
X32288358Y-46851061D01*
X32312006Y-46939316D01*
X32312006Y-47030684D01*
X32288358Y-47118939D01*
X32242674Y-47198067D01*
X32178067Y-47262674D01*
X32098939Y-47308358D01*
X32010684Y-47332006D01*
X31919316Y-47332006D01*
X31831061Y-47308358D01*
X31751933Y-47262674D01*
X31687326Y-47198067D01*
X31641642Y-47118939D01*
X31617994Y-47030684D01*
X31617994Y-46939316D01*
X31641642Y-46851061D01*
X31687326Y-46771933D01*
X31751933Y-46707326D01*
X31831061Y-46661642D01*
X31919316Y-46637994D01*
X32010684Y-46637994D01*
X32098939Y-46661642D01*
G37*
G36*
X30748939Y-45811642D02*
G01*
X30828067Y-45857326D01*
X30892674Y-45921933D01*
X30938358Y-46001061D01*
X30962006Y-46089316D01*
X30962006Y-46180684D01*
X30938358Y-46268939D01*
X30892674Y-46348067D01*
X30828067Y-46412674D01*
X30748939Y-46458358D01*
X30660684Y-46482006D01*
X30569316Y-46482006D01*
X30481061Y-46458358D01*
X30401933Y-46412674D01*
X30337326Y-46348067D01*
X30291642Y-46268939D01*
X30267994Y-46180684D01*
X30267994Y-46089316D01*
X30291642Y-46001061D01*
X30337326Y-45921933D01*
X30401933Y-45857326D01*
X30481061Y-45811642D01*
X30569316Y-45787994D01*
X30660684Y-45787994D01*
X30748939Y-45811642D01*
G37*
G36*
X32098939Y-45811642D02*
G01*
X32178067Y-45857326D01*
X32242674Y-45921933D01*
X32288358Y-46001061D01*
X32312006Y-46089316D01*
X32312006Y-46180684D01*
X32288358Y-46268939D01*
X32242674Y-46348067D01*
X32178067Y-46412674D01*
X32098939Y-46458358D01*
X32010684Y-46482006D01*
X31919316Y-46482006D01*
X31831061Y-46458358D01*
X31751933Y-46412674D01*
X31687326Y-46348067D01*
X31641642Y-46268939D01*
X31617994Y-46180684D01*
X31617994Y-46089316D01*
X31641642Y-46001061D01*
X31687326Y-45921933D01*
X31751933Y-45857326D01*
X31831061Y-45811642D01*
X31919316Y-45787994D01*
X32010684Y-45787994D01*
X32098939Y-45811642D01*
G37*
G36*
X30748939Y-44961642D02*
G01*
X30828067Y-45007326D01*
X30892674Y-45071933D01*
X30938358Y-45151061D01*
X30962006Y-45239316D01*
X30962006Y-45330684D01*
X30938358Y-45418939D01*
X30892674Y-45498067D01*
X30828067Y-45562674D01*
X30748939Y-45608358D01*
X30660684Y-45632006D01*
X30569316Y-45632006D01*
X30481061Y-45608358D01*
X30401933Y-45562674D01*
X30337326Y-45498067D01*
X30291642Y-45418939D01*
X30267994Y-45330684D01*
X30267994Y-45239316D01*
X30291642Y-45151061D01*
X30337326Y-45071933D01*
X30401933Y-45007326D01*
X30481061Y-44961642D01*
X30569316Y-44937994D01*
X30660684Y-44937994D01*
X30748939Y-44961642D01*
G37*
G36*
X32098939Y-44961642D02*
G01*
X32178067Y-45007326D01*
X32242674Y-45071933D01*
X32288358Y-45151061D01*
X32312006Y-45239316D01*
X32312006Y-45330684D01*
X32288358Y-45418939D01*
X32242674Y-45498067D01*
X32178067Y-45562674D01*
X32098939Y-45608358D01*
X32010684Y-45632006D01*
X31919316Y-45632006D01*
X31831061Y-45608358D01*
X31751933Y-45562674D01*
X31687326Y-45498067D01*
X31641642Y-45418939D01*
X31617994Y-45330684D01*
X31617994Y-45239316D01*
X31641642Y-45151061D01*
X31687326Y-45071933D01*
X31751933Y-45007326D01*
X31831061Y-44961642D01*
X31919316Y-44937994D01*
X32010684Y-44937994D01*
X32098939Y-44961642D01*
G37*
G36*
X28063737Y-43488850D02*
G01*
X28177208Y-43519254D01*
X28278943Y-43577991D01*
X28362009Y-43661057D01*
X28420746Y-43762792D01*
X28451150Y-43876263D01*
X28451150Y-43993737D01*
X28420746Y-44107208D01*
X28362009Y-44208943D01*
X28278943Y-44292009D01*
X28177208Y-44350746D01*
X28063737Y-44381150D01*
X28005000Y-44385000D01*
X28003029Y-44385000D01*
X27206971Y-44385000D01*
X27205000Y-44385000D01*
X27146263Y-44381150D01*
X27032792Y-44350746D01*
X26931057Y-44292009D01*
X26847991Y-44208943D01*
X26789254Y-44107208D01*
X26758850Y-43993737D01*
X26758850Y-43876263D01*
X26789254Y-43762792D01*
X26847991Y-43661057D01*
X26931057Y-43577991D01*
X27032792Y-43519254D01*
X27146263Y-43488850D01*
X27205000Y-43485000D01*
X28005000Y-43485000D01*
X28063737Y-43488850D01*
G37*
G36*
X31793737Y-43488850D02*
G01*
X31907208Y-43519254D01*
X32008943Y-43577991D01*
X32092009Y-43661057D01*
X32150746Y-43762792D01*
X32181150Y-43876263D01*
X32181150Y-43993737D01*
X32150746Y-44107208D01*
X32092009Y-44208943D01*
X32008943Y-44292009D01*
X31907208Y-44350746D01*
X31793737Y-44381150D01*
X31735000Y-44385000D01*
X31733029Y-44385000D01*
X30236971Y-44385000D01*
X30235000Y-44385000D01*
X30176263Y-44381150D01*
X30062792Y-44350746D01*
X29961057Y-44292009D01*
X29877991Y-44208943D01*
X29819254Y-44107208D01*
X29788850Y-43993737D01*
X29788850Y-43876263D01*
X29819254Y-43762792D01*
X29877991Y-43661057D01*
X29961057Y-43577991D01*
X30062792Y-43519254D01*
X30176263Y-43488850D01*
X30235000Y-43485000D01*
X31735000Y-43485000D01*
X31793737Y-43488850D01*
G37*
G36*
X85232228Y-38234448D02*
G01*
X85377117Y-38294463D01*
X85507515Y-38381592D01*
X85618408Y-38492485D01*
X85705537Y-38622883D01*
X85765552Y-38767772D01*
X85796148Y-38921586D01*
X85796148Y-39078414D01*
X85765552Y-39232228D01*
X85705537Y-39377117D01*
X85618408Y-39507515D01*
X85507515Y-39618408D01*
X85377117Y-39705537D01*
X85232228Y-39765552D01*
X85078414Y-39796148D01*
X84921586Y-39796148D01*
X84767772Y-39765552D01*
X84622883Y-39705537D01*
X84492485Y-39618408D01*
X84381592Y-39507515D01*
X84294463Y-39377117D01*
X84234448Y-39232228D01*
X84203852Y-39078414D01*
X84203852Y-38921586D01*
X84234448Y-38767772D01*
X84294463Y-38622883D01*
X84381592Y-38492485D01*
X84492485Y-38381592D01*
X84622883Y-38294463D01*
X84767772Y-38234448D01*
X84921586Y-38203852D01*
X85078414Y-38203852D01*
X85232228Y-38234448D01*
G37*
G36*
X87732228Y-38234448D02*
G01*
X87877117Y-38294463D01*
X88007515Y-38381592D01*
X88118408Y-38492485D01*
X88205537Y-38622883D01*
X88265552Y-38767772D01*
X88296148Y-38921586D01*
X88296148Y-39078414D01*
X88265552Y-39232228D01*
X88205537Y-39377117D01*
X88118408Y-39507515D01*
X88007515Y-39618408D01*
X87877117Y-39705537D01*
X87732228Y-39765552D01*
X87578414Y-39796148D01*
X87421586Y-39796148D01*
X87267772Y-39765552D01*
X87122883Y-39705537D01*
X86992485Y-39618408D01*
X86881592Y-39507515D01*
X86794463Y-39377117D01*
X86734448Y-39232228D01*
X86703852Y-39078414D01*
X86703852Y-38921586D01*
X86734448Y-38767772D01*
X86794463Y-38622883D01*
X86881592Y-38492485D01*
X86992485Y-38381592D01*
X87122883Y-38294463D01*
X87267772Y-38234448D01*
X87421586Y-38203852D01*
X87578414Y-38203852D01*
X87732228Y-38234448D01*
G37*
G36*
X90232228Y-38234448D02*
G01*
X90377117Y-38294463D01*
X90507515Y-38381592D01*
X90618408Y-38492485D01*
X90705537Y-38622883D01*
X90765552Y-38767772D01*
X90796148Y-38921586D01*
X90796148Y-39078414D01*
X90765552Y-39232228D01*
X90705537Y-39377117D01*
X90618408Y-39507515D01*
X90507515Y-39618408D01*
X90377117Y-39705537D01*
X90232228Y-39765552D01*
X90078414Y-39796148D01*
X89921586Y-39796148D01*
X89767772Y-39765552D01*
X89622883Y-39705537D01*
X89492485Y-39618408D01*
X89381592Y-39507515D01*
X89294463Y-39377117D01*
X89234448Y-39232228D01*
X89203852Y-39078414D01*
X89203852Y-38921586D01*
X89234448Y-38767772D01*
X89294463Y-38622883D01*
X89381592Y-38492485D01*
X89492485Y-38381592D01*
X89622883Y-38294463D01*
X89767772Y-38234448D01*
X89921586Y-38203852D01*
X90078414Y-38203852D01*
X90232228Y-38234448D01*
G37*
G36*
X85800000Y-36600000D02*
G01*
X84200000Y-36600000D01*
X84200000Y-35000000D01*
X85800000Y-35000000D01*
X85800000Y-36600000D01*
G37*
G36*
X87732228Y-35034448D02*
G01*
X87877117Y-35094463D01*
X88007515Y-35181592D01*
X88118408Y-35292485D01*
X88205537Y-35422883D01*
X88265552Y-35567772D01*
X88296148Y-35721586D01*
X88296148Y-35878414D01*
X88265552Y-36032228D01*
X88205537Y-36177117D01*
X88118408Y-36307515D01*
X88007515Y-36418408D01*
X87877117Y-36505537D01*
X87732228Y-36565552D01*
X87578414Y-36596148D01*
X87421586Y-36596148D01*
X87267772Y-36565552D01*
X87122883Y-36505537D01*
X86992485Y-36418408D01*
X86881592Y-36307515D01*
X86794463Y-36177117D01*
X86734448Y-36032228D01*
X86703852Y-35878414D01*
X86703852Y-35721586D01*
X86734448Y-35567772D01*
X86794463Y-35422883D01*
X86881592Y-35292485D01*
X86992485Y-35181592D01*
X87122883Y-35094463D01*
X87267772Y-35034448D01*
X87421586Y-35003852D01*
X87578414Y-35003852D01*
X87732228Y-35034448D01*
G37*
G36*
X90232228Y-35034448D02*
G01*
X90377117Y-35094463D01*
X90507515Y-35181592D01*
X90618408Y-35292485D01*
X90705537Y-35422883D01*
X90765552Y-35567772D01*
X90796148Y-35721586D01*
X90796148Y-35878414D01*
X90765552Y-36032228D01*
X90705537Y-36177117D01*
X90618408Y-36307515D01*
X90507515Y-36418408D01*
X90377117Y-36505537D01*
X90232228Y-36565552D01*
X90078414Y-36596148D01*
X89921586Y-36596148D01*
X89767772Y-36565552D01*
X89622883Y-36505537D01*
X89492485Y-36418408D01*
X89381592Y-36307515D01*
X89294463Y-36177117D01*
X89234448Y-36032228D01*
X89203852Y-35878414D01*
X89203852Y-35721586D01*
X89234448Y-35567772D01*
X89294463Y-35422883D01*
X89381592Y-35292485D01*
X89492485Y-35181592D01*
X89622883Y-35094463D01*
X89767772Y-35034448D01*
X89921586Y-35003852D01*
X90078414Y-35003852D01*
X90232228Y-35034448D01*
G37*
G36*
X71425000Y-36425000D02*
G01*
X70575000Y-36425000D01*
X70575000Y-35575000D01*
X71425000Y-35575000D01*
X71425000Y-36425000D01*
G37*
G36*
X68162640Y-35607351D02*
G01*
X68258724Y-35662825D01*
X68337175Y-35741276D01*
X68392649Y-35837360D01*
X68421364Y-35944526D01*
X68421364Y-36055474D01*
X68392649Y-36162640D01*
X68337175Y-36258724D01*
X68258724Y-36337175D01*
X68162640Y-36392649D01*
X68055474Y-36421364D01*
X67944526Y-36421364D01*
X67837360Y-36392649D01*
X67741276Y-36337175D01*
X67662825Y-36258724D01*
X67607351Y-36162640D01*
X67578636Y-36055474D01*
X67578636Y-35944526D01*
X67607351Y-35837360D01*
X67662825Y-35741276D01*
X67741276Y-35662825D01*
X67837360Y-35607351D01*
X67944526Y-35578636D01*
X68055474Y-35578636D01*
X68162640Y-35607351D01*
G37*
G36*
X69162640Y-35607351D02*
G01*
X69258724Y-35662825D01*
X69337175Y-35741276D01*
X69392649Y-35837360D01*
X69421364Y-35944526D01*
X69421364Y-36055474D01*
X69392649Y-36162640D01*
X69337175Y-36258724D01*
X69258724Y-36337175D01*
X69162640Y-36392649D01*
X69055474Y-36421364D01*
X68944526Y-36421364D01*
X68837360Y-36392649D01*
X68741276Y-36337175D01*
X68662825Y-36258724D01*
X68607351Y-36162640D01*
X68578636Y-36055474D01*
X68578636Y-35944526D01*
X68607351Y-35837360D01*
X68662825Y-35741276D01*
X68741276Y-35662825D01*
X68837360Y-35607351D01*
X68944526Y-35578636D01*
X69055474Y-35578636D01*
X69162640Y-35607351D01*
G37*
G36*
X70162640Y-35607351D02*
G01*
X70258724Y-35662825D01*
X70337175Y-35741276D01*
X70392649Y-35837360D01*
X70421364Y-35944526D01*
X70421364Y-36055474D01*
X70392649Y-36162640D01*
X70337175Y-36258724D01*
X70258724Y-36337175D01*
X70162640Y-36392649D01*
X70055474Y-36421364D01*
X69944526Y-36421364D01*
X69837360Y-36392649D01*
X69741276Y-36337175D01*
X69662825Y-36258724D01*
X69607351Y-36162640D01*
X69578636Y-36055474D01*
X69578636Y-35944526D01*
X69607351Y-35837360D01*
X69662825Y-35741276D01*
X69741276Y-35662825D01*
X69837360Y-35607351D01*
X69944526Y-35578636D01*
X70055474Y-35578636D01*
X70162640Y-35607351D01*
G37*
M02*
