%TF.GenerationSoftware,KiCad,Pcbnew,9.0.3*%
%TF.CreationDate,2025-12-18T19:10:42-03:00*%
%TF.ProjectId,PCB_LoRa+GPS,5043425f-4c6f-4526-912b-4750532e6b69,rev?*%
%TF.SameCoordinates,Original*%
%TF.FileFunction,Copper,L2,Inr*%
%TF.FilePolarity,Positive*%
%FSLAX46Y46*%
G04 Gerber Fmt 4.6, Leading zero omitted, Abs format (unit mm)*
G04 Created by KiCad (PCBNEW 9.0.3) date 2025-12-18 19:10:42*
%MOMM*%
%LPD*%
G01*
G04 APERTURE LIST*
G04 Aperture macros list*
%AMRoundRect*
0 Rectangle with rounded corners*
0 $1 Rounding radius*
0 $2 $3 $4 $5 $6 $7 $8 $9 X,Y pos of 4 corners*
0 Add a 4 corners polygon primitive as box body*
4,1,4,$2,$3,$4,$5,$6,$7,$8,$9,$2,$3,0*
0 Add four circle primitives for the rounded corners*
1,1,$1+$1,$2,$3*
1,1,$1+$1,$4,$5*
1,1,$1+$1,$6,$7*
1,1,$1+$1,$8,$9*
0 Add four rect primitives between the rounded corners*
20,1,$1+$1,$2,$3,$4,$5,0*
20,1,$1+$1,$4,$5,$6,$7,0*
20,1,$1+$1,$6,$7,$8,$9,0*
20,1,$1+$1,$8,$9,$2,$3,0*%
G04 Aperture macros list end*
%TA.AperFunction,ComponentPad*%
%ADD10R,0.850000X0.850000*%
%TD*%
%TA.AperFunction,ComponentPad*%
%ADD11C,0.850000*%
%TD*%
%TA.AperFunction,ComponentPad*%
%ADD12R,1.600000X1.600000*%
%TD*%
%TA.AperFunction,ComponentPad*%
%ADD13C,1.600000*%
%TD*%
%TA.AperFunction,ComponentPad*%
%ADD14C,0.700000*%
%TD*%
%TA.AperFunction,ComponentPad*%
%ADD15O,2.400000X0.900000*%
%TD*%
%TA.AperFunction,ComponentPad*%
%ADD16O,1.700000X0.900000*%
%TD*%
%TA.AperFunction,ComponentPad*%
%ADD17RoundRect,0.250000X-0.750000X0.600000X-0.750000X-0.600000X0.750000X-0.600000X0.750000X0.600000X0*%
%TD*%
%TA.AperFunction,ComponentPad*%
%ADD18O,2.000000X1.700000*%
%TD*%
%TA.AperFunction,ViaPad*%
%ADD19C,0.600000*%
%TD*%
%TA.AperFunction,ViaPad*%
%ADD20C,0.550000*%
%TD*%
G04 APERTURE END LIST*
D10*
%TO.N,3V3*%
%TO.C,AJ-SR04M1*%
X71000000Y-36000000D03*
D11*
%TO.N,Net-(AJ-SR04M1-GND)*%
X70000000Y-36000000D03*
%TO.N,TRIG_Sensor*%
X69000000Y-36000000D03*
%TO.N,ECHO_Sensor*%
X68000000Y-36000000D03*
%TD*%
D12*
%TO.N,+BATT*%
%TO.C,SW2*%
X85000000Y-35800000D03*
D13*
%TO.N,Net-(BT2-+)*%
X87500000Y-35800000D03*
%TO.N,N/C*%
X90000000Y-35800000D03*
X85000000Y-39000000D03*
X87500000Y-39000000D03*
X90000000Y-39000000D03*
%TD*%
D14*
%TO.N,GND*%
%TO.C,J2*%
X31965000Y-45285000D03*
%TO.N,VBUS*%
X31965000Y-46135000D03*
%TO.N,Net-(J2-CC1)*%
X31965000Y-46985000D03*
%TO.N,USB_D+*%
X31965000Y-47835000D03*
%TO.N,USB_D-*%
X31965000Y-48685000D03*
%TO.N,unconnected-(J2-SBU1-PadA8)*%
X31965000Y-49535000D03*
%TO.N,VBUS*%
X31965000Y-50385000D03*
%TO.N,GND*%
X31965000Y-51235000D03*
X30615000Y-51235000D03*
%TO.N,VBUS*%
X30615000Y-50385000D03*
%TO.N,Net-(J2-CC2)*%
X30615000Y-49535000D03*
%TO.N,USB_D+*%
X30615000Y-48685000D03*
%TO.N,USB_D-*%
X30615000Y-47835000D03*
%TO.N,unconnected-(J2-SBU2-PadB8)*%
X30615000Y-46985000D03*
%TO.N,VBUS*%
X30615000Y-46135000D03*
%TO.N,GND*%
X30615000Y-45285000D03*
D15*
%TO.N,unconnected-(J2-SHIELD-PadS1)_1*%
X30985000Y-43935000D03*
D16*
%TO.N,unconnected-(J2-SHIELD-PadS1)_3*%
X27605000Y-43935000D03*
D15*
%TO.N,unconnected-(J2-SHIELD-PadS1)_2*%
X30985000Y-52585000D03*
D16*
%TO.N,unconnected-(J2-SHIELD-PadS1)*%
X27605000Y-52585000D03*
%TD*%
D17*
%TO.N,Net-(BT2-+)*%
%TO.C,BT2*%
X100500000Y-51000000D03*
D18*
%TO.N,GND*%
X100500000Y-53500000D03*
%TD*%
D19*
%TO.N,3V3*%
X48000000Y-50000000D03*
X99250000Y-60750000D03*
X64000000Y-54000000D03*
X62750000Y-35500000D03*
X53000000Y-40000000D03*
X56286400Y-51511200D03*
X40000000Y-53739243D03*
X70000000Y-53000000D03*
%TO.N,TRIG_Sensor*%
X63627000Y-41300400D03*
%TO.N,+BATT*%
X36500000Y-40000000D03*
%TO.N,GND*%
X39500000Y-66000000D03*
X34848800Y-73888600D03*
X52374800Y-65303400D03*
X93500000Y-61500000D03*
X91084400Y-69367400D03*
X39500000Y-63000000D03*
X40000000Y-57000000D03*
X77292200Y-43103800D03*
X98298000Y-69291200D03*
X33248600Y-51917600D03*
X41000000Y-56500000D03*
X39500000Y-68000000D03*
X77165200Y-65989200D03*
X33500000Y-44500000D03*
X66344800Y-48361600D03*
X39500000Y-69000000D03*
X102692200Y-53365400D03*
X39500000Y-65000000D03*
X49000000Y-43750000D03*
X93500000Y-63500000D03*
X93500000Y-58500000D03*
X44932600Y-67538600D03*
X79400400Y-58674000D03*
X71450200Y-54914800D03*
X36525200Y-71704200D03*
X37500000Y-62000000D03*
X93500000Y-60500000D03*
X70307200Y-44373800D03*
X100863400Y-60655200D03*
X38500000Y-40500000D03*
X75500000Y-60500000D03*
X76250000Y-42250000D03*
X66548000Y-44551600D03*
X29540200Y-57200800D03*
X29006800Y-67183000D03*
X75000000Y-35000000D03*
X68340000Y-46340000D03*
X41808400Y-74117200D03*
X43000000Y-37000000D03*
X39500000Y-67000000D03*
X56870600Y-46990000D03*
X83110000Y-71500000D03*
X37500000Y-61000000D03*
X39500000Y-64000000D03*
X57886600Y-37134800D03*
X93500000Y-66500000D03*
X63042800Y-34213800D03*
X42000000Y-56500000D03*
X52679600Y-33883600D03*
X43000000Y-56500000D03*
X100787200Y-55575200D03*
X35966400Y-44881800D03*
X39500000Y-61000000D03*
X44246800Y-33883600D03*
X81102200Y-35509200D03*
X73787000Y-56819800D03*
X95500000Y-58500000D03*
X95500000Y-63500000D03*
X64236600Y-33807400D03*
X36830000Y-53695600D03*
X34500000Y-48477200D03*
X91719400Y-54940200D03*
X37500000Y-71000000D03*
X38000000Y-59000000D03*
X96418400Y-72110600D03*
X37058600Y-45974000D03*
X60248800Y-62230000D03*
X37500000Y-63000000D03*
X96799400Y-55092600D03*
X46304200Y-58699400D03*
X70383400Y-48361600D03*
X95500000Y-61500000D03*
X47000000Y-34250000D03*
X51028600Y-68554600D03*
X75844400Y-35814000D03*
X37500000Y-65000000D03*
X54025800Y-66725800D03*
X37000000Y-51000000D03*
X40081200Y-71780400D03*
X82448400Y-37541200D03*
X95500000Y-65500000D03*
X33299400Y-42138600D03*
X42000000Y-58500000D03*
X93500000Y-64500000D03*
X34721800Y-67259200D03*
X59791600Y-64770000D03*
X49530000Y-67640200D03*
X48945800Y-52070000D03*
X81940400Y-43078400D03*
X39500000Y-44000000D03*
X36804600Y-76530200D03*
X51485800Y-42519600D03*
X39500000Y-70000000D03*
X93500000Y-59500000D03*
X95500000Y-59500000D03*
X42087800Y-33832800D03*
X41000000Y-59000000D03*
X32080200Y-69570600D03*
X40000000Y-60000000D03*
X93500000Y-65500000D03*
X44323000Y-55092600D03*
X43000000Y-58500000D03*
X40030400Y-76454000D03*
X79273400Y-62407800D03*
X38531800Y-33883600D03*
X53822600Y-54965600D03*
X72364600Y-35433000D03*
X39000000Y-58000000D03*
X65811400Y-57454800D03*
X58623200Y-56388000D03*
X30708600Y-55956200D03*
X37500000Y-67000000D03*
X32486600Y-40665400D03*
X37500000Y-68000000D03*
X51409600Y-74345800D03*
X95500000Y-62500000D03*
X59766200Y-54000400D03*
X37500000Y-66000000D03*
X36703000Y-52120800D03*
X40132000Y-33832800D03*
X81940400Y-57048400D03*
X53000000Y-44000000D03*
X47853600Y-54508400D03*
X37500000Y-70000000D03*
X95500000Y-66500000D03*
X95500000Y-64500000D03*
X73000000Y-55000000D03*
X58902600Y-68097400D03*
X102285800Y-59334400D03*
X67741800Y-33858200D03*
X95500000Y-60500000D03*
X39500000Y-62000000D03*
X50647600Y-46786800D03*
X67208400Y-34544000D03*
X39500000Y-71000000D03*
X37500000Y-60000000D03*
X93500000Y-62500000D03*
X50266600Y-53187600D03*
X37871400Y-54787800D03*
X45567600Y-34925000D03*
X66500000Y-36500000D03*
X29250000Y-51250000D03*
X54660800Y-35331400D03*
X93243400Y-71805800D03*
X78994000Y-59690000D03*
X37500000Y-64000000D03*
X81000000Y-36990000D03*
X69773800Y-66014600D03*
X37500000Y-69000000D03*
%TO.N,5V*%
X48500000Y-41000000D03*
X37000000Y-44000000D03*
%TO.N,VBUS*%
X41500000Y-43000000D03*
X38500000Y-48500000D03*
%TO.N,Tx_GPS*%
X57750000Y-64750000D03*
X61750000Y-43590000D03*
%TO.N,Rx_GPS*%
X60572000Y-44928000D03*
X58500000Y-62000000D03*
%TO.N,Net-(Q1-S)*%
X55250000Y-53500000D03*
%TO.N,Net-(J2-CC2)*%
X30000000Y-42000000D03*
%TO.N,Net-(U3-SW)*%
X45228712Y-38728712D03*
X54006000Y-45811416D03*
%TO.N,Net-(Q2-E)*%
X57000000Y-48500000D03*
X57600000Y-39400000D03*
X48000000Y-47000000D03*
%TO.N,Net-(Q4-E)*%
X55000000Y-38500000D03*
X43500000Y-45000000D03*
%TO.N,Net-(U3-PG)*%
X50500000Y-34500000D03*
X47452750Y-37952750D03*
%TO.N,U0RX_uC*%
X63000000Y-55500000D03*
X58000000Y-34000000D03*
%TO.N,Net-(U6-TXD)*%
X44500000Y-45000000D03*
X56000000Y-36710000D03*
%TO.N,Net-(U6-RXD)*%
X46500000Y-45072000D03*
X69250000Y-61750000D03*
%TO.N,Reset_LoRa*%
X59750000Y-47750000D03*
X77000000Y-53000000D03*
X56000000Y-56000000D03*
%TO.N,RX{slash}TXdone_LoRa*%
X75000000Y-37000000D03*
X98000000Y-47000000D03*
%TO.N,SCK_LoRa*%
X62150000Y-46500000D03*
X76714500Y-47214500D03*
%TO.N,CADdetect_LoRa*%
X89000000Y-43000000D03*
X85000000Y-43000000D03*
%TO.N,MISO_LoRa*%
X76000000Y-45000000D03*
X66167000Y-51802283D03*
D20*
%TO.N,NSS_LoRa*%
X63667000Y-48590000D03*
D19*
X77000000Y-51000000D03*
%TO.N,AntOff_GPS*%
X51500000Y-70000000D03*
X71000000Y-60000000D03*
%TO.N,MOSI_LoRa*%
X80923000Y-47000000D03*
X72091999Y-39091999D03*
%TO.N,Wake_GPS*%
X67006153Y-40993847D03*
X63000000Y-60500000D03*
%TO.N,VBatt*%
X61000000Y-63500000D03*
X61000000Y-59000000D03*
X64000000Y-71500000D03*
%TO.N,Net-(Q1-D)*%
X52171600Y-57632600D03*
%TO.N,unconnected-(R26-Pad1)*%
X59750000Y-43500000D03*
%TD*%
%TA.AperFunction,Conductor*%
%TO.N,GND*%
G36*
X30928795Y-51209814D02*
G01*
X30971076Y-51237523D01*
X31156372Y-51422819D01*
X31189857Y-51484142D01*
X31184873Y-51553834D01*
X31143001Y-51609767D01*
X31077537Y-51634184D01*
X31068691Y-51634500D01*
X30712308Y-51634500D01*
X30682867Y-51625855D01*
X30652881Y-51619332D01*
X30647865Y-51615577D01*
X30645269Y-51614815D01*
X30624627Y-51598181D01*
X30525904Y-51499458D01*
X30492419Y-51438135D01*
X30495280Y-51398123D01*
X30501709Y-51404552D01*
X30575218Y-51435000D01*
X30654782Y-51435000D01*
X30728291Y-51404552D01*
X30784552Y-51348291D01*
X30815000Y-51274782D01*
X30815000Y-51212380D01*
X30859204Y-51203587D01*
X30928795Y-51209814D01*
G37*
%TD.AperFunction*%
%TA.AperFunction,Conductor*%
G36*
X31135730Y-44905185D02*
G01*
X31181485Y-44957989D01*
X31191429Y-45027147D01*
X31162404Y-45090703D01*
X31156372Y-45097181D01*
X30971076Y-45282476D01*
X30909753Y-45315961D01*
X30859204Y-45316412D01*
X30815000Y-45307619D01*
X30815000Y-45245218D01*
X30784552Y-45171709D01*
X30728291Y-45115448D01*
X30654782Y-45085000D01*
X30575218Y-45085000D01*
X30501709Y-45115448D01*
X30493177Y-45123979D01*
X30497403Y-45064889D01*
X30525904Y-45020542D01*
X30624627Y-44921819D01*
X30685950Y-44888334D01*
X30712308Y-44885500D01*
X31068691Y-44885500D01*
X31135730Y-44905185D01*
G37*
%TD.AperFunction*%
%TA.AperFunction,Conductor*%
G36*
X105442539Y-32520185D02*
G01*
X105488294Y-32572989D01*
X105499500Y-32624500D01*
X105499500Y-75498682D01*
X105479815Y-75565721D01*
X105463181Y-75586363D01*
X105403176Y-75646367D01*
X105184985Y-75912234D01*
X105184975Y-75912248D01*
X104993904Y-76198206D01*
X104993893Y-76198224D01*
X104831772Y-76501530D01*
X104831770Y-76501535D01*
X104700149Y-76819297D01*
X104682911Y-76876122D01*
X104644613Y-76934560D01*
X104580801Y-76963016D01*
X104511734Y-76952455D01*
X104459341Y-76906230D01*
X104442634Y-76864316D01*
X104399691Y-76648427D01*
X104399690Y-76648426D01*
X104399690Y-76648422D01*
X104299850Y-76319295D01*
X104168231Y-76001538D01*
X104164257Y-75994104D01*
X104006106Y-75698224D01*
X104006105Y-75698222D01*
X104006100Y-75698213D01*
X103815019Y-75412240D01*
X103596828Y-75146373D01*
X103596827Y-75146372D01*
X103596823Y-75146367D01*
X103353632Y-74903176D01*
X103087765Y-74684985D01*
X103087764Y-74684984D01*
X103087760Y-74684981D01*
X102801787Y-74493900D01*
X102801782Y-74493897D01*
X102801775Y-74493893D01*
X102498469Y-74331772D01*
X102498464Y-74331770D01*
X102180706Y-74200150D01*
X101851572Y-74100308D01*
X101514248Y-74033210D01*
X101514249Y-74033210D01*
X101256456Y-74007821D01*
X101171969Y-73999500D01*
X100828031Y-73999500D01*
X100749966Y-74007188D01*
X100485750Y-74033210D01*
X100148427Y-74100308D01*
X99819293Y-74200150D01*
X99501535Y-74331770D01*
X99501530Y-74331772D01*
X99198224Y-74493893D01*
X99198206Y-74493904D01*
X98912248Y-74684975D01*
X98912234Y-74684985D01*
X98646367Y-74903176D01*
X98403176Y-75146367D01*
X98184985Y-75412234D01*
X98184975Y-75412248D01*
X97993904Y-75698206D01*
X97993893Y-75698224D01*
X97831772Y-76001530D01*
X97831770Y-76001535D01*
X97700150Y-76319293D01*
X97600308Y-76648427D01*
X97533210Y-76985750D01*
X97499500Y-77328034D01*
X97499500Y-77671965D01*
X97533210Y-78014249D01*
X97600308Y-78351572D01*
X97700150Y-78680706D01*
X97831770Y-78998464D01*
X97831772Y-78998469D01*
X97993893Y-79301775D01*
X97993904Y-79301793D01*
X98184975Y-79587751D01*
X98184985Y-79587765D01*
X98403176Y-79853632D01*
X98646367Y-80096823D01*
X98646372Y-80096827D01*
X98646373Y-80096828D01*
X98912240Y-80315019D01*
X99198213Y-80506100D01*
X99198222Y-80506105D01*
X99198224Y-80506106D01*
X99501530Y-80668227D01*
X99501532Y-80668227D01*
X99501538Y-80668231D01*
X99819295Y-80799850D01*
X100148422Y-80899690D01*
X100485750Y-80966789D01*
X100828031Y-81000500D01*
X100828034Y-81000500D01*
X101171966Y-81000500D01*
X101171969Y-81000500D01*
X101514250Y-80966789D01*
X101851578Y-80899690D01*
X102180705Y-80799850D01*
X102498462Y-80668231D01*
X102801787Y-80506100D01*
X103087760Y-80315019D01*
X103353627Y-80096828D01*
X103596828Y-79853627D01*
X103815019Y-79587760D01*
X104006100Y-79301787D01*
X104168231Y-78998462D01*
X104299850Y-78680705D01*
X104317088Y-78623877D01*
X104355384Y-78565441D01*
X104419196Y-78536984D01*
X104488263Y-78547543D01*
X104540657Y-78593767D01*
X104557365Y-78635682D01*
X104600310Y-78851578D01*
X104632143Y-78956517D01*
X104700150Y-79180706D01*
X104831770Y-79498464D01*
X104831772Y-79498469D01*
X104993893Y-79801775D01*
X104993904Y-79801793D01*
X105184975Y-80087751D01*
X105184985Y-80087765D01*
X105284389Y-80208890D01*
X105403172Y-80353627D01*
X105463182Y-80413637D01*
X105496666Y-80474958D01*
X105499500Y-80501317D01*
X105499500Y-81375500D01*
X105479815Y-81442539D01*
X105427011Y-81488294D01*
X105375500Y-81499500D01*
X26624500Y-81499500D01*
X26557461Y-81479815D01*
X26511706Y-81427011D01*
X26500500Y-81375500D01*
X26500500Y-77328034D01*
X27499500Y-77328034D01*
X27499500Y-77671965D01*
X27533210Y-78014249D01*
X27600308Y-78351572D01*
X27700150Y-78680706D01*
X27831770Y-78998464D01*
X27831772Y-78998469D01*
X27993893Y-79301775D01*
X27993904Y-79301793D01*
X28184975Y-79587751D01*
X28184985Y-79587765D01*
X28403176Y-79853632D01*
X28646367Y-80096823D01*
X28646372Y-80096827D01*
X28646373Y-80096828D01*
X28912240Y-80315019D01*
X29198213Y-80506100D01*
X29198222Y-80506105D01*
X29198224Y-80506106D01*
X29501530Y-80668227D01*
X29501532Y-80668227D01*
X29501538Y-80668231D01*
X29819295Y-80799850D01*
X30148422Y-80899690D01*
X30485750Y-80966789D01*
X30828031Y-81000500D01*
X30828034Y-81000500D01*
X31171966Y-81000500D01*
X31171969Y-81000500D01*
X31514250Y-80966789D01*
X31851578Y-80899690D01*
X32180705Y-80799850D01*
X32498462Y-80668231D01*
X32801787Y-80506100D01*
X33087760Y-80315019D01*
X33353627Y-80096828D01*
X33596828Y-79853627D01*
X33815019Y-79587760D01*
X34006100Y-79301787D01*
X34168231Y-78998462D01*
X34299850Y-78680705D01*
X34399690Y-78351578D01*
X34466789Y-78014250D01*
X34500500Y-77671969D01*
X34500500Y-77328031D01*
X34466789Y-76985750D01*
X34399690Y-76648422D01*
X34299850Y-76319295D01*
X34168231Y-76001538D01*
X34164257Y-75994104D01*
X34006106Y-75698224D01*
X34006105Y-75698222D01*
X34006100Y-75698213D01*
X33815019Y-75412240D01*
X33596828Y-75146373D01*
X33596827Y-75146372D01*
X33596823Y-75146367D01*
X33550456Y-75100000D01*
X37575000Y-75100000D01*
X39475000Y-75100000D01*
X39475000Y-73010000D01*
X37575000Y-73010000D01*
X37575000Y-75100000D01*
X33550456Y-75100000D01*
X33353632Y-74903176D01*
X33087765Y-74684985D01*
X33087764Y-74684984D01*
X33087760Y-74684981D01*
X32801787Y-74493900D01*
X32801782Y-74493897D01*
X32801775Y-74493893D01*
X32498469Y-74331772D01*
X32498464Y-74331770D01*
X32180706Y-74200150D01*
X31851572Y-74100308D01*
X31514248Y-74033210D01*
X31514249Y-74033210D01*
X31256456Y-74007821D01*
X31171969Y-73999500D01*
X30828031Y-73999500D01*
X30749966Y-74007188D01*
X30485750Y-74033210D01*
X30148427Y-74100308D01*
X29819293Y-74200150D01*
X29501535Y-74331770D01*
X29501530Y-74331772D01*
X29198224Y-74493893D01*
X29198206Y-74493904D01*
X28912248Y-74684975D01*
X28912234Y-74684985D01*
X28646367Y-74903176D01*
X28403176Y-75146367D01*
X28184985Y-75412234D01*
X28184975Y-75412248D01*
X27993904Y-75698206D01*
X27993893Y-75698224D01*
X27831772Y-76001530D01*
X27831770Y-76001535D01*
X27700150Y-76319293D01*
X27600308Y-76648427D01*
X27533210Y-76985750D01*
X27499500Y-77328034D01*
X26500500Y-77328034D01*
X26500500Y-71421153D01*
X63199500Y-71421153D01*
X63199500Y-71578846D01*
X63230261Y-71733489D01*
X63230264Y-71733501D01*
X63290602Y-71879172D01*
X63290609Y-71879185D01*
X63378210Y-72010288D01*
X63378213Y-72010292D01*
X63489707Y-72121786D01*
X63489711Y-72121789D01*
X63620814Y-72209390D01*
X63620827Y-72209397D01*
X63720060Y-72250500D01*
X63766503Y-72269737D01*
X63908635Y-72298009D01*
X63921153Y-72300499D01*
X63921156Y-72300500D01*
X63921158Y-72300500D01*
X64078844Y-72300500D01*
X64078845Y-72300499D01*
X64233497Y-72269737D01*
X64379179Y-72209394D01*
X64510289Y-72121789D01*
X64621789Y-72010289D01*
X64709394Y-71879179D01*
X64769737Y-71733497D01*
X64800500Y-71578842D01*
X64800500Y-71421158D01*
X64800499Y-71421153D01*
X64800499Y-71421150D01*
X64798540Y-71411304D01*
X70619500Y-71411304D01*
X70619500Y-71588695D01*
X70654103Y-71762658D01*
X70654106Y-71762667D01*
X70721983Y-71926540D01*
X70721990Y-71926553D01*
X70820535Y-72074034D01*
X70820538Y-72074038D01*
X70945961Y-72199461D01*
X70945965Y-72199464D01*
X71093446Y-72298009D01*
X71093459Y-72298016D01*
X71216363Y-72348923D01*
X71257334Y-72365894D01*
X71257336Y-72365894D01*
X71257341Y-72365896D01*
X71431304Y-72400499D01*
X71431307Y-72400500D01*
X71431309Y-72400500D01*
X71608693Y-72400500D01*
X71608694Y-72400499D01*
X71666682Y-72388964D01*
X71782658Y-72365896D01*
X71782661Y-72365894D01*
X71782666Y-72365894D01*
X71946547Y-72298013D01*
X72094035Y-72199464D01*
X72219464Y-72074035D01*
X72318013Y-71926547D01*
X72385894Y-71762666D01*
X72391696Y-71733501D01*
X72420499Y-71588695D01*
X72420500Y-71588693D01*
X72420500Y-71573920D01*
X78259499Y-71573920D01*
X78288340Y-71718907D01*
X78288343Y-71718917D01*
X78344912Y-71855488D01*
X78344919Y-71855501D01*
X78427048Y-71978415D01*
X78427051Y-71978419D01*
X78531580Y-72082948D01*
X78531584Y-72082951D01*
X78654498Y-72165080D01*
X78654511Y-72165087D01*
X78761469Y-72209390D01*
X78791087Y-72221658D01*
X78791091Y-72221658D01*
X78791092Y-72221659D01*
X78936079Y-72250500D01*
X78936082Y-72250500D01*
X79083920Y-72250500D01*
X79181462Y-72231096D01*
X79228913Y-72221658D01*
X79365495Y-72165084D01*
X79488416Y-72082951D01*
X79592951Y-71978416D01*
X79675084Y-71855495D01*
X79731658Y-71718913D01*
X79757561Y-71588693D01*
X79760500Y-71573920D01*
X79760500Y-71426079D01*
X79731659Y-71281092D01*
X79731658Y-71281091D01*
X79731658Y-71281087D01*
X79713534Y-71237332D01*
X79675087Y-71144511D01*
X79675080Y-71144498D01*
X79592951Y-71021584D01*
X79592948Y-71021580D01*
X79488419Y-70917051D01*
X79488415Y-70917048D01*
X79365501Y-70834919D01*
X79365488Y-70834912D01*
X79228917Y-70778343D01*
X79228907Y-70778340D01*
X79083920Y-70749500D01*
X79083918Y-70749500D01*
X78936082Y-70749500D01*
X78936080Y-70749500D01*
X78791092Y-70778340D01*
X78791082Y-70778343D01*
X78654511Y-70834912D01*
X78654498Y-70834919D01*
X78531584Y-70917048D01*
X78531580Y-70917051D01*
X78427051Y-71021580D01*
X78427048Y-71021584D01*
X78344919Y-71144498D01*
X78344912Y-71144511D01*
X78288343Y-71281082D01*
X78288340Y-71281092D01*
X78259500Y-71426079D01*
X78259500Y-71426082D01*
X78259500Y-71573918D01*
X78259500Y-71573920D01*
X78259499Y-71573920D01*
X72420500Y-71573920D01*
X72420500Y-71411306D01*
X72420499Y-71411304D01*
X72385896Y-71237341D01*
X72385893Y-71237332D01*
X72318016Y-71073459D01*
X72318009Y-71073446D01*
X72219464Y-70925965D01*
X72219461Y-70925961D01*
X72094038Y-70800538D01*
X72094034Y-70800535D01*
X71946553Y-70701990D01*
X71946540Y-70701983D01*
X71782667Y-70634106D01*
X71782658Y-70634103D01*
X71611208Y-70600000D01*
X93575000Y-70600000D01*
X95475000Y-70600000D01*
X95475000Y-68510000D01*
X93575000Y-68510000D01*
X93575000Y-70600000D01*
X71611208Y-70600000D01*
X71608694Y-70599500D01*
X71608691Y-70599500D01*
X71431309Y-70599500D01*
X71431306Y-70599500D01*
X71257341Y-70634103D01*
X71257332Y-70634106D01*
X71093459Y-70701983D01*
X71093446Y-70701990D01*
X70945965Y-70800535D01*
X70945961Y-70800538D01*
X70820538Y-70925961D01*
X70820535Y-70925965D01*
X70721990Y-71073446D01*
X70721983Y-71073459D01*
X70654106Y-71237332D01*
X70654103Y-71237341D01*
X70619500Y-71411304D01*
X64798540Y-71411304D01*
X64769738Y-71266510D01*
X64769737Y-71266503D01*
X64719207Y-71144511D01*
X64709397Y-71120827D01*
X64709390Y-71120814D01*
X64621789Y-70989711D01*
X64621786Y-70989707D01*
X64510292Y-70878213D01*
X64510288Y-70878210D01*
X64379185Y-70790609D01*
X64379172Y-70790602D01*
X64233501Y-70730264D01*
X64233489Y-70730261D01*
X64078845Y-70699500D01*
X64078842Y-70699500D01*
X63921158Y-70699500D01*
X63921155Y-70699500D01*
X63766510Y-70730261D01*
X63766498Y-70730264D01*
X63620827Y-70790602D01*
X63620814Y-70790609D01*
X63489711Y-70878210D01*
X63489707Y-70878213D01*
X63378213Y-70989707D01*
X63378210Y-70989711D01*
X63290609Y-71120814D01*
X63290602Y-71120827D01*
X63230264Y-71266498D01*
X63230261Y-71266510D01*
X63199500Y-71421153D01*
X26500500Y-71421153D01*
X26500500Y-69921153D01*
X50699500Y-69921153D01*
X50699500Y-70078846D01*
X50730261Y-70233489D01*
X50730264Y-70233501D01*
X50790602Y-70379172D01*
X50790609Y-70379185D01*
X50878210Y-70510288D01*
X50878213Y-70510292D01*
X50989707Y-70621786D01*
X50989711Y-70621789D01*
X51120814Y-70709390D01*
X51120827Y-70709397D01*
X51217646Y-70749500D01*
X51266503Y-70769737D01*
X51421153Y-70800499D01*
X51421156Y-70800500D01*
X51421158Y-70800500D01*
X51578844Y-70800500D01*
X51578845Y-70800499D01*
X51733497Y-70769737D01*
X51879179Y-70709394D01*
X52010289Y-70621789D01*
X52121789Y-70510289D01*
X52209394Y-70379179D01*
X52269737Y-70233497D01*
X52300500Y-70078842D01*
X52300500Y-69921158D01*
X52300500Y-69921155D01*
X52300499Y-69921153D01*
X52269738Y-69766510D01*
X52269737Y-69766503D01*
X52269735Y-69766498D01*
X52209397Y-69620827D01*
X52209390Y-69620814D01*
X52121789Y-69489711D01*
X52121786Y-69489707D01*
X52010292Y-69378213D01*
X52010288Y-69378210D01*
X51879185Y-69290609D01*
X51879172Y-69290602D01*
X51733501Y-69230264D01*
X51733489Y-69230261D01*
X51578845Y-69199500D01*
X51578842Y-69199500D01*
X51421158Y-69199500D01*
X51421155Y-69199500D01*
X51266510Y-69230261D01*
X51266498Y-69230264D01*
X51120827Y-69290602D01*
X51120814Y-69290609D01*
X50989711Y-69378210D01*
X50989707Y-69378213D01*
X50878213Y-69489707D01*
X50878210Y-69489711D01*
X50790609Y-69620814D01*
X50790602Y-69620827D01*
X50730264Y-69766498D01*
X50730261Y-69766510D01*
X50699500Y-69921153D01*
X26500500Y-69921153D01*
X26500500Y-64671153D01*
X56949500Y-64671153D01*
X56949500Y-64828846D01*
X56980261Y-64983489D01*
X56980264Y-64983501D01*
X57040602Y-65129172D01*
X57040609Y-65129185D01*
X57128210Y-65260288D01*
X57128213Y-65260292D01*
X57239707Y-65371786D01*
X57239711Y-65371789D01*
X57370814Y-65459390D01*
X57370827Y-65459397D01*
X57516498Y-65519735D01*
X57516503Y-65519737D01*
X57671153Y-65550499D01*
X57671156Y-65550500D01*
X57671158Y-65550500D01*
X57828844Y-65550500D01*
X57828845Y-65550499D01*
X57983497Y-65519737D01*
X58129179Y-65459394D01*
X58260289Y-65371789D01*
X58371789Y-65260289D01*
X58459394Y-65129179D01*
X58519737Y-64983497D01*
X58550500Y-64828842D01*
X58550500Y-64671158D01*
X58550500Y-64671155D01*
X58550499Y-64671153D01*
X58519738Y-64516510D01*
X58519737Y-64516503D01*
X58519735Y-64516498D01*
X58459397Y-64370827D01*
X58459390Y-64370814D01*
X58371789Y-64239711D01*
X58371786Y-64239707D01*
X58260292Y-64128213D01*
X58260288Y-64128210D01*
X58129185Y-64040609D01*
X58129172Y-64040602D01*
X57983501Y-63980264D01*
X57983489Y-63980261D01*
X57828845Y-63949500D01*
X57828842Y-63949500D01*
X57671158Y-63949500D01*
X57671155Y-63949500D01*
X57516510Y-63980261D01*
X57516498Y-63980264D01*
X57370827Y-64040602D01*
X57370814Y-64040609D01*
X57239711Y-64128210D01*
X57239707Y-64128213D01*
X57128213Y-64239707D01*
X57128210Y-64239711D01*
X57040609Y-64370814D01*
X57040602Y-64370827D01*
X56980264Y-64516498D01*
X56980261Y-64516510D01*
X56949500Y-64671153D01*
X26500500Y-64671153D01*
X26500500Y-63421153D01*
X60199500Y-63421153D01*
X60199500Y-63578846D01*
X60230261Y-63733489D01*
X60230264Y-63733501D01*
X60290602Y-63879172D01*
X60290609Y-63879185D01*
X60378210Y-64010288D01*
X60378213Y-64010292D01*
X60489707Y-64121786D01*
X60489711Y-64121789D01*
X60620814Y-64209390D01*
X60620827Y-64209397D01*
X60694013Y-64239711D01*
X60766503Y-64269737D01*
X60921153Y-64300499D01*
X60921156Y-64300500D01*
X60921158Y-64300500D01*
X61078844Y-64300500D01*
X61078845Y-64300499D01*
X61233497Y-64269737D01*
X61379179Y-64209394D01*
X61510289Y-64121789D01*
X61621789Y-64010289D01*
X61709394Y-63879179D01*
X61769737Y-63733497D01*
X61800500Y-63578842D01*
X61800500Y-63421158D01*
X61800500Y-63421155D01*
X61800499Y-63421153D01*
X61769738Y-63266510D01*
X61769737Y-63266503D01*
X61769735Y-63266498D01*
X61709397Y-63120827D01*
X61709390Y-63120814D01*
X61621789Y-62989711D01*
X61621786Y-62989707D01*
X61510292Y-62878213D01*
X61510288Y-62878210D01*
X61379185Y-62790609D01*
X61379172Y-62790602D01*
X61233501Y-62730264D01*
X61233489Y-62730261D01*
X61078845Y-62699500D01*
X61078842Y-62699500D01*
X60921158Y-62699500D01*
X60921155Y-62699500D01*
X60766510Y-62730261D01*
X60766498Y-62730264D01*
X60620827Y-62790602D01*
X60620814Y-62790609D01*
X60489711Y-62878210D01*
X60489707Y-62878213D01*
X60378213Y-62989707D01*
X60378210Y-62989711D01*
X60290609Y-63120814D01*
X60290602Y-63120827D01*
X60230264Y-63266498D01*
X60230261Y-63266510D01*
X60199500Y-63421153D01*
X26500500Y-63421153D01*
X26500500Y-61921153D01*
X57699500Y-61921153D01*
X57699500Y-62078846D01*
X57730261Y-62233489D01*
X57730264Y-62233501D01*
X57790602Y-62379172D01*
X57790609Y-62379185D01*
X57878210Y-62510288D01*
X57878213Y-62510292D01*
X57989707Y-62621786D01*
X57989711Y-62621789D01*
X58120814Y-62709390D01*
X58120827Y-62709397D01*
X58266498Y-62769735D01*
X58266503Y-62769737D01*
X58421153Y-62800499D01*
X58421156Y-62800500D01*
X58421158Y-62800500D01*
X58578844Y-62800500D01*
X58578845Y-62800499D01*
X58733497Y-62769737D01*
X58879179Y-62709394D01*
X59010289Y-62621789D01*
X59121789Y-62510289D01*
X59209394Y-62379179D01*
X59269737Y-62233497D01*
X59300500Y-62078842D01*
X59300500Y-61921158D01*
X59300500Y-61921155D01*
X59300499Y-61921153D01*
X59269738Y-61766510D01*
X59269737Y-61766503D01*
X59230242Y-61671153D01*
X68449500Y-61671153D01*
X68449500Y-61828846D01*
X68480261Y-61983489D01*
X68480264Y-61983501D01*
X68540602Y-62129172D01*
X68540609Y-62129185D01*
X68628210Y-62260288D01*
X68628213Y-62260292D01*
X68739707Y-62371786D01*
X68739711Y-62371789D01*
X68870814Y-62459390D01*
X68870827Y-62459397D01*
X69016498Y-62519735D01*
X69016503Y-62519737D01*
X69171153Y-62550499D01*
X69171156Y-62550500D01*
X69171158Y-62550500D01*
X69328844Y-62550500D01*
X69328845Y-62550499D01*
X69483497Y-62519737D01*
X69629179Y-62459394D01*
X69760289Y-62371789D01*
X69871789Y-62260289D01*
X69959394Y-62129179D01*
X70019737Y-61983497D01*
X70050500Y-61828842D01*
X70050500Y-61671158D01*
X70050500Y-61671155D01*
X70050499Y-61671153D01*
X70019738Y-61516510D01*
X70019737Y-61516503D01*
X70019735Y-61516498D01*
X69959397Y-61370827D01*
X69959390Y-61370814D01*
X69871789Y-61239711D01*
X69871786Y-61239707D01*
X69760292Y-61128213D01*
X69760288Y-61128210D01*
X69629185Y-61040609D01*
X69629172Y-61040602D01*
X69483501Y-60980264D01*
X69483489Y-60980261D01*
X69328845Y-60949500D01*
X69328842Y-60949500D01*
X69171158Y-60949500D01*
X69171155Y-60949500D01*
X69016510Y-60980261D01*
X69016498Y-60980264D01*
X68870827Y-61040602D01*
X68870814Y-61040609D01*
X68739711Y-61128210D01*
X68739707Y-61128213D01*
X68628213Y-61239707D01*
X68628210Y-61239711D01*
X68540609Y-61370814D01*
X68540602Y-61370827D01*
X68480264Y-61516498D01*
X68480261Y-61516510D01*
X68449500Y-61671153D01*
X59230242Y-61671153D01*
X59229933Y-61670408D01*
X59209397Y-61620827D01*
X59209390Y-61620814D01*
X59121789Y-61489711D01*
X59121786Y-61489707D01*
X59010292Y-61378213D01*
X59010288Y-61378210D01*
X58879185Y-61290609D01*
X58879172Y-61290602D01*
X58733501Y-61230264D01*
X58733489Y-61230261D01*
X58578845Y-61199500D01*
X58578842Y-61199500D01*
X58421158Y-61199500D01*
X58421155Y-61199500D01*
X58266510Y-61230261D01*
X58266498Y-61230264D01*
X58120827Y-61290602D01*
X58120814Y-61290609D01*
X57989711Y-61378210D01*
X57989707Y-61378213D01*
X57878213Y-61489707D01*
X57878210Y-61489711D01*
X57790609Y-61620814D01*
X57790602Y-61620827D01*
X57730264Y-61766498D01*
X57730261Y-61766510D01*
X57699500Y-61921153D01*
X26500500Y-61921153D01*
X26500500Y-60421153D01*
X62199500Y-60421153D01*
X62199500Y-60578846D01*
X62230261Y-60733489D01*
X62230264Y-60733501D01*
X62290602Y-60879172D01*
X62290609Y-60879185D01*
X62378210Y-61010288D01*
X62378213Y-61010292D01*
X62489707Y-61121786D01*
X62489711Y-61121789D01*
X62620814Y-61209390D01*
X62620827Y-61209397D01*
X62766498Y-61269735D01*
X62766503Y-61269737D01*
X62921153Y-61300499D01*
X62921156Y-61300500D01*
X62921158Y-61300500D01*
X63078844Y-61300500D01*
X63078845Y-61300499D01*
X63233497Y-61269737D01*
X63379179Y-61209394D01*
X63510289Y-61121789D01*
X63621789Y-61010289D01*
X63709394Y-60879179D01*
X63769737Y-60733497D01*
X63800500Y-60578842D01*
X63800500Y-60421158D01*
X63800500Y-60421155D01*
X63800499Y-60421153D01*
X63769738Y-60266510D01*
X63769737Y-60266503D01*
X63769735Y-60266498D01*
X63709397Y-60120827D01*
X63709390Y-60120814D01*
X63621790Y-59989712D01*
X63621784Y-59989705D01*
X63553232Y-59921153D01*
X70199500Y-59921153D01*
X70199500Y-60078846D01*
X70230261Y-60233489D01*
X70230264Y-60233501D01*
X70290602Y-60379172D01*
X70290609Y-60379185D01*
X70378210Y-60510288D01*
X70378213Y-60510292D01*
X70489707Y-60621786D01*
X70489711Y-60621789D01*
X70620814Y-60709390D01*
X70620827Y-60709397D01*
X70766498Y-60769735D01*
X70766503Y-60769737D01*
X70921153Y-60800499D01*
X70921156Y-60800500D01*
X70921158Y-60800500D01*
X71078844Y-60800500D01*
X71078845Y-60800499D01*
X71233497Y-60769737D01*
X71379179Y-60709394D01*
X71436411Y-60671153D01*
X98449500Y-60671153D01*
X98449500Y-60828846D01*
X98480261Y-60983489D01*
X98480264Y-60983501D01*
X98540602Y-61129172D01*
X98540609Y-61129185D01*
X98628210Y-61260288D01*
X98628213Y-61260292D01*
X98739707Y-61371786D01*
X98739711Y-61371789D01*
X98870814Y-61459390D01*
X98870827Y-61459397D01*
X98944013Y-61489711D01*
X99016503Y-61519737D01*
X99171153Y-61550499D01*
X99171156Y-61550500D01*
X99171158Y-61550500D01*
X99328844Y-61550500D01*
X99328845Y-61550499D01*
X99483497Y-61519737D01*
X99629179Y-61459394D01*
X99760289Y-61371789D01*
X99871789Y-61260289D01*
X99959394Y-61129179D01*
X100019737Y-60983497D01*
X100050500Y-60828842D01*
X100050500Y-60671158D01*
X100050500Y-60671155D01*
X100050499Y-60671153D01*
X100019738Y-60516510D01*
X100019737Y-60516503D01*
X99980242Y-60421153D01*
X99959397Y-60370827D01*
X99959390Y-60370814D01*
X99871789Y-60239711D01*
X99871786Y-60239707D01*
X99760292Y-60128213D01*
X99760288Y-60128210D01*
X99629185Y-60040609D01*
X99629172Y-60040602D01*
X99483501Y-59980264D01*
X99483489Y-59980261D01*
X99328845Y-59949500D01*
X99328842Y-59949500D01*
X99171158Y-59949500D01*
X99171155Y-59949500D01*
X99016510Y-59980261D01*
X99016498Y-59980264D01*
X98870827Y-60040602D01*
X98870814Y-60040609D01*
X98739711Y-60128210D01*
X98739707Y-60128213D01*
X98628213Y-60239707D01*
X98628210Y-60239711D01*
X98540609Y-60370814D01*
X98540602Y-60370827D01*
X98480264Y-60516498D01*
X98480261Y-60516510D01*
X98449500Y-60671153D01*
X71436411Y-60671153D01*
X71510289Y-60621789D01*
X71510292Y-60621786D01*
X71554694Y-60577385D01*
X71621786Y-60510292D01*
X71621789Y-60510289D01*
X71709394Y-60379179D01*
X71712854Y-60370827D01*
X71723067Y-60346166D01*
X71769737Y-60233497D01*
X71800500Y-60078842D01*
X71800500Y-59921158D01*
X71800500Y-59921155D01*
X71800499Y-59921153D01*
X71774531Y-59790606D01*
X71769737Y-59766503D01*
X71769735Y-59766498D01*
X71709397Y-59620827D01*
X71709390Y-59620814D01*
X71621789Y-59489711D01*
X71621786Y-59489707D01*
X71510292Y-59378213D01*
X71510288Y-59378210D01*
X71379185Y-59290609D01*
X71379172Y-59290602D01*
X71233501Y-59230264D01*
X71233489Y-59230261D01*
X71078845Y-59199500D01*
X71078842Y-59199500D01*
X70921158Y-59199500D01*
X70921155Y-59199500D01*
X70766510Y-59230261D01*
X70766498Y-59230264D01*
X70620827Y-59290602D01*
X70620814Y-59290609D01*
X70489711Y-59378210D01*
X70489707Y-59378213D01*
X70378213Y-59489707D01*
X70378210Y-59489711D01*
X70290609Y-59620814D01*
X70290602Y-59620827D01*
X70230264Y-59766498D01*
X70230261Y-59766510D01*
X70199500Y-59921153D01*
X63553232Y-59921153D01*
X63510292Y-59878213D01*
X63510288Y-59878210D01*
X63379185Y-59790609D01*
X63379172Y-59790602D01*
X63233501Y-59730264D01*
X63233489Y-59730261D01*
X63078845Y-59699500D01*
X63078842Y-59699500D01*
X62921158Y-59699500D01*
X62921155Y-59699500D01*
X62766510Y-59730261D01*
X62766498Y-59730264D01*
X62620827Y-59790602D01*
X62620814Y-59790609D01*
X62489711Y-59878210D01*
X62489707Y-59878213D01*
X62378213Y-59989707D01*
X62378210Y-59989711D01*
X62290609Y-60120814D01*
X62290602Y-60120827D01*
X62230264Y-60266498D01*
X62230261Y-60266510D01*
X62199500Y-60421153D01*
X26500500Y-60421153D01*
X26500500Y-58921153D01*
X60199500Y-58921153D01*
X60199500Y-59078846D01*
X60230261Y-59233489D01*
X60230264Y-59233501D01*
X60290602Y-59379172D01*
X60290609Y-59379185D01*
X60378210Y-59510288D01*
X60378213Y-59510292D01*
X60489707Y-59621786D01*
X60489711Y-59621789D01*
X60620814Y-59709390D01*
X60620827Y-59709397D01*
X60758683Y-59766498D01*
X60766503Y-59769737D01*
X60921153Y-59800499D01*
X60921156Y-59800500D01*
X60921158Y-59800500D01*
X61078844Y-59800500D01*
X61078845Y-59800499D01*
X61233497Y-59769737D01*
X61379179Y-59709394D01*
X61510289Y-59621789D01*
X61621789Y-59510289D01*
X61709394Y-59379179D01*
X61769737Y-59233497D01*
X61800500Y-59078842D01*
X61800500Y-58921158D01*
X61800500Y-58921155D01*
X61800499Y-58921153D01*
X61769738Y-58766510D01*
X61769737Y-58766503D01*
X61769735Y-58766498D01*
X61709397Y-58620827D01*
X61709390Y-58620814D01*
X61621789Y-58489711D01*
X61621786Y-58489707D01*
X61510292Y-58378213D01*
X61510288Y-58378210D01*
X61379185Y-58290609D01*
X61379172Y-58290602D01*
X61233501Y-58230264D01*
X61233489Y-58230261D01*
X61078845Y-58199500D01*
X61078842Y-58199500D01*
X60921158Y-58199500D01*
X60921155Y-58199500D01*
X60766510Y-58230261D01*
X60766498Y-58230264D01*
X60620827Y-58290602D01*
X60620814Y-58290609D01*
X60489711Y-58378210D01*
X60489707Y-58378213D01*
X60378213Y-58489707D01*
X60378210Y-58489711D01*
X60290609Y-58620814D01*
X60290602Y-58620827D01*
X60230264Y-58766498D01*
X60230261Y-58766510D01*
X60199500Y-58921153D01*
X26500500Y-58921153D01*
X26500500Y-57553753D01*
X51371100Y-57553753D01*
X51371100Y-57711446D01*
X51401861Y-57866089D01*
X51401864Y-57866101D01*
X51462202Y-58011772D01*
X51462209Y-58011785D01*
X51549810Y-58142888D01*
X51549813Y-58142892D01*
X51661307Y-58254386D01*
X51661311Y-58254389D01*
X51792414Y-58341990D01*
X51792427Y-58341997D01*
X51938098Y-58402335D01*
X51938103Y-58402337D01*
X52092753Y-58433099D01*
X52092756Y-58433100D01*
X52092758Y-58433100D01*
X52250444Y-58433100D01*
X52250445Y-58433099D01*
X52405097Y-58402337D01*
X52550779Y-58341994D01*
X52681889Y-58254389D01*
X52793389Y-58142889D01*
X52880994Y-58011779D01*
X52941337Y-57866097D01*
X52972100Y-57711442D01*
X52972100Y-57553758D01*
X52972100Y-57553755D01*
X52972099Y-57553753D01*
X52941338Y-57399110D01*
X52941337Y-57399103D01*
X52941335Y-57399098D01*
X52880997Y-57253427D01*
X52880990Y-57253414D01*
X52793389Y-57122311D01*
X52793386Y-57122307D01*
X52681892Y-57010813D01*
X52681888Y-57010810D01*
X52550785Y-56923209D01*
X52550772Y-56923202D01*
X52405101Y-56862864D01*
X52405089Y-56862861D01*
X52250445Y-56832100D01*
X52250442Y-56832100D01*
X52092758Y-56832100D01*
X52092755Y-56832100D01*
X51938110Y-56862861D01*
X51938098Y-56862864D01*
X51792427Y-56923202D01*
X51792414Y-56923209D01*
X51661311Y-57010810D01*
X51661307Y-57010813D01*
X51549813Y-57122307D01*
X51549810Y-57122311D01*
X51462209Y-57253414D01*
X51462202Y-57253427D01*
X51401864Y-57399098D01*
X51401861Y-57399110D01*
X51371100Y-57553753D01*
X26500500Y-57553753D01*
X26500500Y-55921153D01*
X55199500Y-55921153D01*
X55199500Y-56078846D01*
X55230261Y-56233489D01*
X55230264Y-56233501D01*
X55290602Y-56379172D01*
X55290609Y-56379185D01*
X55378210Y-56510288D01*
X55378213Y-56510292D01*
X55489707Y-56621786D01*
X55489711Y-56621789D01*
X55620814Y-56709390D01*
X55620827Y-56709397D01*
X55766498Y-56769735D01*
X55766503Y-56769737D01*
X55921153Y-56800499D01*
X55921156Y-56800500D01*
X55921158Y-56800500D01*
X56078844Y-56800500D01*
X56078845Y-56800499D01*
X56233497Y-56769737D01*
X56379179Y-56709394D01*
X56510289Y-56621789D01*
X56621789Y-56510289D01*
X56709394Y-56379179D01*
X56769737Y-56233497D01*
X56800500Y-56078842D01*
X56800500Y-55921158D01*
X56800500Y-55921155D01*
X56800499Y-55921153D01*
X56769738Y-55766510D01*
X56769737Y-55766503D01*
X56756062Y-55733489D01*
X56709397Y-55620827D01*
X56709390Y-55620814D01*
X56621790Y-55489712D01*
X56621784Y-55489705D01*
X56553232Y-55421153D01*
X62199500Y-55421153D01*
X62199500Y-55578846D01*
X62230261Y-55733489D01*
X62230264Y-55733501D01*
X62290602Y-55879172D01*
X62290609Y-55879185D01*
X62378210Y-56010288D01*
X62378213Y-56010292D01*
X62489707Y-56121786D01*
X62489711Y-56121789D01*
X62620814Y-56209390D01*
X62620827Y-56209397D01*
X62766498Y-56269735D01*
X62766503Y-56269737D01*
X62921153Y-56300499D01*
X62921156Y-56300500D01*
X62921158Y-56300500D01*
X63078844Y-56300500D01*
X63078845Y-56300499D01*
X63233497Y-56269737D01*
X63379179Y-56209394D01*
X63510289Y-56121789D01*
X63621789Y-56010289D01*
X63709394Y-55879179D01*
X63769737Y-55733497D01*
X63800500Y-55578842D01*
X63800500Y-55421158D01*
X63800500Y-55421155D01*
X63800499Y-55421153D01*
X63774531Y-55290606D01*
X63769737Y-55266503D01*
X63769735Y-55266498D01*
X63709397Y-55120827D01*
X63709390Y-55120814D01*
X63621789Y-54989711D01*
X63621786Y-54989707D01*
X63584746Y-54952667D01*
X63551261Y-54891344D01*
X63556245Y-54821652D01*
X63598117Y-54765719D01*
X63663581Y-54741302D01*
X63719878Y-54750424D01*
X63766503Y-54769737D01*
X63921153Y-54800499D01*
X63921156Y-54800500D01*
X63921158Y-54800500D01*
X64078844Y-54800500D01*
X64078845Y-54800499D01*
X64233497Y-54769737D01*
X64379179Y-54709394D01*
X64510289Y-54621789D01*
X64621789Y-54510289D01*
X64709394Y-54379179D01*
X64769737Y-54233497D01*
X64800500Y-54078842D01*
X64800500Y-53921158D01*
X64800500Y-53921155D01*
X64800499Y-53921153D01*
X64779608Y-53816129D01*
X64769737Y-53766503D01*
X64746080Y-53709390D01*
X64709397Y-53620827D01*
X64709390Y-53620814D01*
X64621789Y-53489711D01*
X64621786Y-53489707D01*
X64510292Y-53378213D01*
X64510288Y-53378210D01*
X64379185Y-53290609D01*
X64379172Y-53290602D01*
X64233501Y-53230264D01*
X64233489Y-53230261D01*
X64078845Y-53199500D01*
X64078842Y-53199500D01*
X63921158Y-53199500D01*
X63921155Y-53199500D01*
X63766510Y-53230261D01*
X63766498Y-53230264D01*
X63620827Y-53290602D01*
X63620814Y-53290609D01*
X63489711Y-53378210D01*
X63489707Y-53378213D01*
X63378213Y-53489707D01*
X63378210Y-53489711D01*
X63290609Y-53620814D01*
X63290602Y-53620827D01*
X63230264Y-53766498D01*
X63230261Y-53766510D01*
X63199500Y-53921153D01*
X63199500Y-54078846D01*
X63230261Y-54233489D01*
X63230264Y-54233501D01*
X63290602Y-54379172D01*
X63290609Y-54379185D01*
X63378210Y-54510288D01*
X63378213Y-54510292D01*
X63415253Y-54547332D01*
X63448738Y-54608655D01*
X63443754Y-54678347D01*
X63401882Y-54734280D01*
X63336418Y-54758697D01*
X63280121Y-54749575D01*
X63233497Y-54730263D01*
X63233492Y-54730262D01*
X63233489Y-54730261D01*
X63078845Y-54699500D01*
X63078842Y-54699500D01*
X62921158Y-54699500D01*
X62921155Y-54699500D01*
X62766510Y-54730261D01*
X62766498Y-54730264D01*
X62620827Y-54790602D01*
X62620814Y-54790609D01*
X62489711Y-54878210D01*
X62489707Y-54878213D01*
X62378213Y-54989707D01*
X62378210Y-54989711D01*
X62290609Y-55120814D01*
X62290602Y-55120827D01*
X62230264Y-55266498D01*
X62230261Y-55266510D01*
X62199500Y-55421153D01*
X56553232Y-55421153D01*
X56510292Y-55378213D01*
X56510288Y-55378210D01*
X56379185Y-55290609D01*
X56379172Y-55290602D01*
X56233501Y-55230264D01*
X56233489Y-55230261D01*
X56078845Y-55199500D01*
X56078842Y-55199500D01*
X55921158Y-55199500D01*
X55921155Y-55199500D01*
X55766510Y-55230261D01*
X55766498Y-55230264D01*
X55620827Y-55290602D01*
X55620814Y-55290609D01*
X55489711Y-55378210D01*
X55489707Y-55378213D01*
X55378213Y-55489707D01*
X55378210Y-55489711D01*
X55290609Y-55620814D01*
X55290602Y-55620827D01*
X55230264Y-55766498D01*
X55230261Y-55766510D01*
X55199500Y-55921153D01*
X26500500Y-55921153D01*
X26500500Y-53660396D01*
X39199500Y-53660396D01*
X39199500Y-53818089D01*
X39230261Y-53972732D01*
X39230264Y-53972744D01*
X39290602Y-54118415D01*
X39290609Y-54118428D01*
X39378210Y-54249531D01*
X39378213Y-54249535D01*
X39489707Y-54361029D01*
X39489711Y-54361032D01*
X39620814Y-54448633D01*
X39620827Y-54448640D01*
X39766498Y-54508978D01*
X39766503Y-54508980D01*
X39870805Y-54529727D01*
X39921153Y-54539742D01*
X39921156Y-54539743D01*
X39921158Y-54539743D01*
X40078844Y-54539743D01*
X40078845Y-54539742D01*
X40233497Y-54508980D01*
X40379179Y-54448637D01*
X40510289Y-54361032D01*
X40621789Y-54249532D01*
X40709394Y-54118422D01*
X40769737Y-53972740D01*
X40800500Y-53818085D01*
X40800500Y-53660401D01*
X40800500Y-53660398D01*
X40800499Y-53660396D01*
X40769737Y-53505746D01*
X40763095Y-53489711D01*
X40751832Y-53462518D01*
X40734698Y-53421153D01*
X54449500Y-53421153D01*
X54449500Y-53578846D01*
X54480261Y-53733489D01*
X54480264Y-53733501D01*
X54540602Y-53879172D01*
X54540609Y-53879185D01*
X54628210Y-54010288D01*
X54628213Y-54010292D01*
X54739707Y-54121786D01*
X54739711Y-54121789D01*
X54870814Y-54209390D01*
X54870827Y-54209397D01*
X55016498Y-54269735D01*
X55016503Y-54269737D01*
X55171153Y-54300499D01*
X55171156Y-54300500D01*
X55171158Y-54300500D01*
X55328844Y-54300500D01*
X55328845Y-54300499D01*
X55483497Y-54269737D01*
X55629179Y-54209394D01*
X55760289Y-54121789D01*
X55871789Y-54010289D01*
X55959394Y-53879179D01*
X56019737Y-53733497D01*
X56050500Y-53578842D01*
X56050500Y-53421158D01*
X56050500Y-53421155D01*
X56050499Y-53421153D01*
X56041957Y-53378210D01*
X56019737Y-53266503D01*
X56006062Y-53233489D01*
X55959397Y-53120827D01*
X55959390Y-53120814D01*
X55871790Y-52989712D01*
X55871784Y-52989705D01*
X55803232Y-52921153D01*
X69199500Y-52921153D01*
X69199500Y-53078846D01*
X69230261Y-53233489D01*
X69230264Y-53233501D01*
X69290602Y-53379172D01*
X69290609Y-53379185D01*
X69378210Y-53510288D01*
X69378213Y-53510292D01*
X69489707Y-53621786D01*
X69489711Y-53621789D01*
X69620814Y-53709390D01*
X69620827Y-53709397D01*
X69718853Y-53750000D01*
X69766503Y-53769737D01*
X69921153Y-53800499D01*
X69921156Y-53800500D01*
X69921158Y-53800500D01*
X70078844Y-53800500D01*
X70078845Y-53800499D01*
X70233497Y-53769737D01*
X70379179Y-53709394D01*
X70510289Y-53621789D01*
X70621789Y-53510289D01*
X70709394Y-53379179D01*
X70769737Y-53233497D01*
X70800500Y-53078842D01*
X70800500Y-52921158D01*
X70800500Y-52921155D01*
X70800499Y-52921153D01*
X76199500Y-52921153D01*
X76199500Y-53078846D01*
X76230261Y-53233489D01*
X76230264Y-53233501D01*
X76290602Y-53379172D01*
X76290609Y-53379185D01*
X76378210Y-53510288D01*
X76378213Y-53510292D01*
X76489707Y-53621786D01*
X76489711Y-53621789D01*
X76620814Y-53709390D01*
X76620827Y-53709397D01*
X76718853Y-53750000D01*
X76766503Y-53769737D01*
X76921153Y-53800499D01*
X76921156Y-53800500D01*
X76921158Y-53800500D01*
X77078844Y-53800500D01*
X77078845Y-53800499D01*
X77233497Y-53769737D01*
X77379179Y-53709394D01*
X77510289Y-53621789D01*
X77621789Y-53510289D01*
X77709394Y-53379179D01*
X77769737Y-53233497D01*
X77800500Y-53078842D01*
X77800500Y-52921158D01*
X77800500Y-52921155D01*
X77800499Y-52921153D01*
X77791957Y-52878210D01*
X77769737Y-52766503D01*
X77769735Y-52766498D01*
X77709397Y-52620827D01*
X77709390Y-52620814D01*
X77621789Y-52489711D01*
X77621786Y-52489707D01*
X77510292Y-52378213D01*
X77510288Y-52378210D01*
X77379185Y-52290609D01*
X77379172Y-52290602D01*
X77233501Y-52230264D01*
X77233489Y-52230261D01*
X77078845Y-52199500D01*
X77078842Y-52199500D01*
X76921158Y-52199500D01*
X76921155Y-52199500D01*
X76766510Y-52230261D01*
X76766498Y-52230264D01*
X76620827Y-52290602D01*
X76620814Y-52290609D01*
X76489711Y-52378210D01*
X76489707Y-52378213D01*
X76378213Y-52489707D01*
X76378210Y-52489711D01*
X76290609Y-52620814D01*
X76290602Y-52620827D01*
X76230264Y-52766498D01*
X76230261Y-52766510D01*
X76199500Y-52921153D01*
X70800499Y-52921153D01*
X70791957Y-52878210D01*
X70769737Y-52766503D01*
X70769735Y-52766498D01*
X70709397Y-52620827D01*
X70709390Y-52620814D01*
X70621789Y-52489711D01*
X70621786Y-52489707D01*
X70510292Y-52378213D01*
X70510288Y-52378210D01*
X70379185Y-52290609D01*
X70379172Y-52290602D01*
X70233501Y-52230264D01*
X70233489Y-52230261D01*
X70078845Y-52199500D01*
X70078842Y-52199500D01*
X69921158Y-52199500D01*
X69921155Y-52199500D01*
X69766510Y-52230261D01*
X69766498Y-52230264D01*
X69620827Y-52290602D01*
X69620814Y-52290609D01*
X69489711Y-52378210D01*
X69489707Y-52378213D01*
X69378213Y-52489707D01*
X69378210Y-52489711D01*
X69290609Y-52620814D01*
X69290602Y-52620827D01*
X69230264Y-52766498D01*
X69230261Y-52766510D01*
X69199500Y-52921153D01*
X55803232Y-52921153D01*
X55760292Y-52878213D01*
X55760288Y-52878210D01*
X55629185Y-52790609D01*
X55629172Y-52790602D01*
X55483501Y-52730264D01*
X55483489Y-52730261D01*
X55328845Y-52699500D01*
X55328842Y-52699500D01*
X55171158Y-52699500D01*
X55171155Y-52699500D01*
X55016510Y-52730261D01*
X55016498Y-52730264D01*
X54870827Y-52790602D01*
X54870814Y-52790609D01*
X54739711Y-52878210D01*
X54739707Y-52878213D01*
X54628213Y-52989707D01*
X54628210Y-52989711D01*
X54540609Y-53120814D01*
X54540602Y-53120827D01*
X54480264Y-53266498D01*
X54480261Y-53266510D01*
X54449500Y-53421153D01*
X40734698Y-53421153D01*
X40709397Y-53360070D01*
X40709390Y-53360057D01*
X40621789Y-53228954D01*
X40621786Y-53228950D01*
X40510292Y-53117456D01*
X40510288Y-53117453D01*
X40379185Y-53029852D01*
X40379172Y-53029845D01*
X40233501Y-52969507D01*
X40233489Y-52969504D01*
X40078845Y-52938743D01*
X40078842Y-52938743D01*
X39921158Y-52938743D01*
X39921155Y-52938743D01*
X39766510Y-52969504D01*
X39766498Y-52969507D01*
X39620827Y-53029845D01*
X39620814Y-53029852D01*
X39489711Y-53117453D01*
X39489707Y-53117456D01*
X39378213Y-53228950D01*
X39378210Y-53228954D01*
X39290609Y-53360057D01*
X39290602Y-53360070D01*
X39230264Y-53505741D01*
X39230261Y-53505753D01*
X39199500Y-53660396D01*
X26500500Y-53660396D01*
X26500500Y-53489413D01*
X26520185Y-53422374D01*
X26572989Y-53376619D01*
X26642147Y-53366675D01*
X26693391Y-53386311D01*
X26754762Y-53427318D01*
X26754768Y-53427321D01*
X26754769Y-53427322D01*
X26927749Y-53498973D01*
X27097262Y-53532691D01*
X27111379Y-53535499D01*
X27111383Y-53535500D01*
X27111384Y-53535500D01*
X28098617Y-53535500D01*
X28098618Y-53535499D01*
X28282251Y-53498973D01*
X28455231Y-53427322D01*
X28610908Y-53323302D01*
X28743302Y-53190908D01*
X28847322Y-53035231D01*
X28918973Y-52862251D01*
X28955500Y-52678616D01*
X28955500Y-52491384D01*
X28918973Y-52307749D01*
X28847322Y-52134769D01*
X28847321Y-52134768D01*
X28847318Y-52134762D01*
X28743302Y-51979092D01*
X28743299Y-51979088D01*
X28610911Y-51846700D01*
X28610907Y-51846697D01*
X28455237Y-51742681D01*
X28455228Y-51742676D01*
X28282251Y-51671027D01*
X28282243Y-51671025D01*
X28098620Y-51634500D01*
X28098616Y-51634500D01*
X27111384Y-51634500D01*
X27111379Y-51634500D01*
X26927756Y-51671025D01*
X26927748Y-51671027D01*
X26754771Y-51742676D01*
X26754764Y-51742680D01*
X26693390Y-51783689D01*
X26626712Y-51804566D01*
X26559332Y-51786081D01*
X26512643Y-51734102D01*
X26500500Y-51680586D01*
X26500500Y-44839413D01*
X26520185Y-44772374D01*
X26572989Y-44726619D01*
X26642147Y-44716675D01*
X26693391Y-44736311D01*
X26754762Y-44777318D01*
X26754771Y-44777323D01*
X26793703Y-44793449D01*
X26927749Y-44848973D01*
X27100957Y-44883426D01*
X27111379Y-44885499D01*
X27111383Y-44885500D01*
X27111384Y-44885500D01*
X28098617Y-44885500D01*
X28098618Y-44885499D01*
X28282251Y-44848973D01*
X28455231Y-44777322D01*
X28610908Y-44673302D01*
X28743302Y-44540908D01*
X28847322Y-44385231D01*
X28918973Y-44212251D01*
X28955500Y-44028616D01*
X28955500Y-43841384D01*
X28918973Y-43657749D01*
X28858253Y-43511158D01*
X28847323Y-43484771D01*
X28847318Y-43484762D01*
X28743302Y-43329092D01*
X28743299Y-43329088D01*
X28610911Y-43196700D01*
X28610907Y-43196697D01*
X28455237Y-43092681D01*
X28455228Y-43092676D01*
X28282251Y-43021027D01*
X28282243Y-43021025D01*
X28098620Y-42984500D01*
X28098616Y-42984500D01*
X27111384Y-42984500D01*
X27111379Y-42984500D01*
X26927756Y-43021025D01*
X26927748Y-43021027D01*
X26754771Y-43092676D01*
X26754764Y-43092680D01*
X26693390Y-43133689D01*
X26626712Y-43154566D01*
X26559332Y-43136081D01*
X26512643Y-43084102D01*
X26500500Y-43030586D01*
X26500500Y-41921153D01*
X29199500Y-41921153D01*
X29199500Y-42078846D01*
X29230261Y-42233489D01*
X29230264Y-42233501D01*
X29290602Y-42379172D01*
X29290609Y-42379185D01*
X29378210Y-42510288D01*
X29378213Y-42510292D01*
X29489707Y-42621786D01*
X29489711Y-42621789D01*
X29620814Y-42709390D01*
X29620827Y-42709397D01*
X29709049Y-42745939D01*
X29766503Y-42769737D01*
X29814564Y-42779297D01*
X29904635Y-42797214D01*
X29966546Y-42829599D01*
X30001121Y-42890315D01*
X29997381Y-42960084D01*
X29956514Y-43016756D01*
X29927897Y-43033392D01*
X29784772Y-43092676D01*
X29784762Y-43092681D01*
X29629092Y-43196697D01*
X29629088Y-43196700D01*
X29496700Y-43329088D01*
X29496697Y-43329092D01*
X29392681Y-43484762D01*
X29392676Y-43484771D01*
X29321027Y-43657748D01*
X29321025Y-43657756D01*
X29284500Y-43841379D01*
X29284500Y-44028620D01*
X29321025Y-44212243D01*
X29321027Y-44212251D01*
X29392676Y-44385228D01*
X29392681Y-44385237D01*
X29496697Y-44540907D01*
X29496700Y-44540911D01*
X29629088Y-44673299D01*
X29629092Y-44673302D01*
X29789834Y-44780707D01*
X29789105Y-44781797D01*
X29834135Y-44826021D01*
X29849603Y-44894157D01*
X29840405Y-44933881D01*
X29797665Y-45037063D01*
X29797663Y-45037071D01*
X29765000Y-45201277D01*
X29765000Y-45368722D01*
X29797663Y-45532928D01*
X29797665Y-45532936D01*
X29851081Y-45661893D01*
X29858550Y-45731363D01*
X29851081Y-45756799D01*
X29797184Y-45886917D01*
X29797182Y-45886925D01*
X29764500Y-46051228D01*
X29764500Y-46218771D01*
X29797182Y-46383074D01*
X29797185Y-46383086D01*
X29850810Y-46512548D01*
X29858279Y-46582017D01*
X29850810Y-46607452D01*
X29797185Y-46736913D01*
X29797182Y-46736925D01*
X29764500Y-46901228D01*
X29764500Y-47068771D01*
X29797182Y-47233074D01*
X29797185Y-47233086D01*
X29850810Y-47362548D01*
X29858279Y-47432017D01*
X29850810Y-47457452D01*
X29797185Y-47586913D01*
X29797182Y-47586925D01*
X29764500Y-47751228D01*
X29764500Y-47918771D01*
X29797182Y-48083074D01*
X29797185Y-48083086D01*
X29850810Y-48212548D01*
X29858279Y-48282017D01*
X29850810Y-48307452D01*
X29797185Y-48436913D01*
X29797182Y-48436925D01*
X29764500Y-48601228D01*
X29764500Y-48768771D01*
X29797182Y-48933074D01*
X29797185Y-48933086D01*
X29850810Y-49062548D01*
X29858279Y-49132017D01*
X29850810Y-49157452D01*
X29797185Y-49286913D01*
X29797182Y-49286925D01*
X29764500Y-49451228D01*
X29764500Y-49618771D01*
X29797182Y-49783074D01*
X29797185Y-49783086D01*
X29850810Y-49912548D01*
X29858279Y-49982017D01*
X29850810Y-50007452D01*
X29797185Y-50136913D01*
X29797182Y-50136925D01*
X29764500Y-50301228D01*
X29764500Y-50468771D01*
X29797182Y-50633074D01*
X29797184Y-50633082D01*
X29851081Y-50763201D01*
X29858550Y-50832671D01*
X29851081Y-50858107D01*
X29797665Y-50987063D01*
X29797663Y-50987071D01*
X29765000Y-51151277D01*
X29765000Y-51318722D01*
X29797663Y-51482928D01*
X29797666Y-51482940D01*
X29840404Y-51586119D01*
X29847873Y-51655588D01*
X29816598Y-51718067D01*
X29789559Y-51738881D01*
X29789834Y-51739293D01*
X29629092Y-51846697D01*
X29629088Y-51846700D01*
X29496700Y-51979088D01*
X29496697Y-51979092D01*
X29392681Y-52134762D01*
X29392676Y-52134771D01*
X29321027Y-52307748D01*
X29321025Y-52307756D01*
X29284500Y-52491379D01*
X29284500Y-52678620D01*
X29321025Y-52862243D01*
X29321027Y-52862251D01*
X29392676Y-53035228D01*
X29392681Y-53035237D01*
X29496697Y-53190907D01*
X29496700Y-53190911D01*
X29629088Y-53323299D01*
X29629092Y-53323302D01*
X29784762Y-53427318D01*
X29784768Y-53427321D01*
X29784769Y-53427322D01*
X29957749Y-53498973D01*
X30127262Y-53532691D01*
X30141379Y-53535499D01*
X30141383Y-53535500D01*
X30141384Y-53535500D01*
X31828617Y-53535500D01*
X31828617Y-53535499D01*
X31839650Y-53533305D01*
X31842734Y-53532692D01*
X31842734Y-53532691D01*
X32012251Y-53498973D01*
X32185231Y-53427322D01*
X32340908Y-53323302D01*
X32473302Y-53190908D01*
X32577322Y-53035231D01*
X32648973Y-52862251D01*
X32685500Y-52678616D01*
X32685500Y-52491384D01*
X32648973Y-52307749D01*
X32577322Y-52134769D01*
X32577321Y-52134768D01*
X32577318Y-52134762D01*
X32473302Y-51979092D01*
X32473299Y-51979088D01*
X32340911Y-51846700D01*
X32340907Y-51846697D01*
X32185237Y-51742681D01*
X32185227Y-51742676D01*
X32095167Y-51705372D01*
X32054938Y-51678492D01*
X31965000Y-51588553D01*
X31964999Y-51588553D01*
X31950914Y-51602638D01*
X31889591Y-51636122D01*
X31839047Y-51636574D01*
X31828619Y-51634500D01*
X31828616Y-51634500D01*
X31511309Y-51634500D01*
X31444270Y-51614815D01*
X31398515Y-51562011D01*
X31388571Y-51492853D01*
X31417596Y-51429297D01*
X31423628Y-51422819D01*
X31608923Y-51237523D01*
X31670246Y-51204038D01*
X31720794Y-51203587D01*
X31765000Y-51212380D01*
X31765000Y-51274782D01*
X31795448Y-51348291D01*
X31851709Y-51404552D01*
X31925218Y-51435000D01*
X32004782Y-51435000D01*
X32078291Y-51404552D01*
X32134552Y-51348291D01*
X32165000Y-51274782D01*
X32165000Y-51212380D01*
X32209205Y-51203587D01*
X32278796Y-51209814D01*
X32321077Y-51237523D01*
X32719114Y-51635561D01*
X32782334Y-51482936D01*
X32782336Y-51482930D01*
X32792397Y-51432353D01*
X55485900Y-51432353D01*
X55485900Y-51590046D01*
X55516661Y-51744689D01*
X55516664Y-51744701D01*
X55577002Y-51890372D01*
X55577009Y-51890385D01*
X55664610Y-52021488D01*
X55664613Y-52021492D01*
X55776107Y-52132986D01*
X55776111Y-52132989D01*
X55907214Y-52220590D01*
X55907227Y-52220597D01*
X56052898Y-52280935D01*
X56052903Y-52280937D01*
X56207553Y-52311699D01*
X56207556Y-52311700D01*
X56207558Y-52311700D01*
X56365244Y-52311700D01*
X56365245Y-52311699D01*
X56519897Y-52280937D01*
X56665579Y-52220594D01*
X56796689Y-52132989D01*
X56908189Y-52021489D01*
X56995794Y-51890379D01*
X56999626Y-51881129D01*
X57013888Y-51846697D01*
X57056137Y-51744697D01*
X57060366Y-51723436D01*
X65366500Y-51723436D01*
X65366500Y-51881129D01*
X65397261Y-52035772D01*
X65397264Y-52035784D01*
X65457602Y-52181455D01*
X65457609Y-52181468D01*
X65545210Y-52312571D01*
X65545213Y-52312575D01*
X65656707Y-52424069D01*
X65656711Y-52424072D01*
X65787814Y-52511673D01*
X65787827Y-52511680D01*
X65933498Y-52572018D01*
X65933503Y-52572020D01*
X66088153Y-52602782D01*
X66088156Y-52602783D01*
X66088158Y-52602783D01*
X66245844Y-52602783D01*
X66245845Y-52602782D01*
X66400497Y-52572020D01*
X66546179Y-52511677D01*
X66677289Y-52424072D01*
X66788789Y-52312572D01*
X66876394Y-52181462D01*
X66936737Y-52035780D01*
X66967500Y-51881125D01*
X66967500Y-51723441D01*
X66967500Y-51723438D01*
X66967499Y-51723436D01*
X66961476Y-51693157D01*
X66936737Y-51568786D01*
X66882620Y-51438135D01*
X66876397Y-51423110D01*
X66876390Y-51423097D01*
X66788789Y-51291994D01*
X66788786Y-51291990D01*
X66677292Y-51180496D01*
X66677288Y-51180493D01*
X66546185Y-51092892D01*
X66546172Y-51092885D01*
X66400498Y-51032546D01*
X66400492Y-51032544D01*
X66245845Y-51001783D01*
X66245842Y-51001783D01*
X66088158Y-51001783D01*
X66088155Y-51001783D01*
X65933510Y-51032544D01*
X65933498Y-51032547D01*
X65787827Y-51092885D01*
X65787814Y-51092892D01*
X65656711Y-51180493D01*
X65656707Y-51180496D01*
X65545213Y-51291990D01*
X65545210Y-51291994D01*
X65457609Y-51423097D01*
X65457602Y-51423110D01*
X65397264Y-51568781D01*
X65397261Y-51568793D01*
X65366500Y-51723436D01*
X57060366Y-51723436D01*
X57074970Y-51650018D01*
X57086900Y-51590044D01*
X57086900Y-51432355D01*
X57086899Y-51432353D01*
X57076322Y-51379179D01*
X57056137Y-51277703D01*
X57037828Y-51233501D01*
X56995797Y-51132027D01*
X56995790Y-51132014D01*
X56908189Y-51000911D01*
X56908186Y-51000907D01*
X56828432Y-50921153D01*
X76199500Y-50921153D01*
X76199500Y-51078846D01*
X76230261Y-51233489D01*
X76230264Y-51233501D01*
X76290602Y-51379172D01*
X76290609Y-51379185D01*
X76378210Y-51510288D01*
X76378213Y-51510292D01*
X76489707Y-51621786D01*
X76489711Y-51621789D01*
X76620814Y-51709390D01*
X76620827Y-51709397D01*
X76766498Y-51769735D01*
X76766503Y-51769737D01*
X76921153Y-51800499D01*
X76921156Y-51800500D01*
X76921158Y-51800500D01*
X77078844Y-51800500D01*
X77078845Y-51800499D01*
X77233497Y-51769737D01*
X77379179Y-51709394D01*
X77510289Y-51621789D01*
X77621789Y-51510289D01*
X77709394Y-51379179D01*
X77769737Y-51233497D01*
X77800500Y-51078842D01*
X77800500Y-50921158D01*
X77800500Y-50921155D01*
X77800499Y-50921153D01*
X77787958Y-50858105D01*
X77769737Y-50766503D01*
X77714471Y-50633078D01*
X77709397Y-50620827D01*
X77709390Y-50620814D01*
X77621789Y-50489711D01*
X77621786Y-50489707D01*
X77510292Y-50378213D01*
X77510288Y-50378210D01*
X77468044Y-50349983D01*
X98999500Y-50349983D01*
X98999500Y-51650001D01*
X98999501Y-51650018D01*
X99010000Y-51752796D01*
X99010001Y-51752799D01*
X99041117Y-51846700D01*
X99065186Y-51919334D01*
X99157288Y-52068656D01*
X99281344Y-52192712D01*
X99424380Y-52280937D01*
X99436558Y-52288448D01*
X99483283Y-52340396D01*
X99494506Y-52409358D01*
X99466663Y-52473441D01*
X99459144Y-52481668D01*
X99320271Y-52620541D01*
X99195379Y-52792442D01*
X99098904Y-52981782D01*
X99033242Y-53183870D01*
X99033242Y-53183873D01*
X99022769Y-53250000D01*
X100066988Y-53250000D01*
X100034075Y-53307007D01*
X100000000Y-53434174D01*
X100000000Y-53565826D01*
X100034075Y-53692993D01*
X100066988Y-53750000D01*
X99022769Y-53750000D01*
X99033242Y-53816126D01*
X99033242Y-53816129D01*
X99098904Y-54018217D01*
X99195379Y-54207557D01*
X99320272Y-54379459D01*
X99320276Y-54379464D01*
X99470535Y-54529723D01*
X99470540Y-54529727D01*
X99642442Y-54654620D01*
X99831782Y-54751095D01*
X100033870Y-54816757D01*
X100243754Y-54850000D01*
X100250000Y-54850000D01*
X100250000Y-53933012D01*
X100307007Y-53965925D01*
X100434174Y-54000000D01*
X100565826Y-54000000D01*
X100692993Y-53965925D01*
X100750000Y-53933012D01*
X100750000Y-54850000D01*
X100756246Y-54850000D01*
X100966127Y-54816757D01*
X100966130Y-54816757D01*
X101168217Y-54751095D01*
X101357557Y-54654620D01*
X101529459Y-54529727D01*
X101529464Y-54529723D01*
X101679723Y-54379464D01*
X101679727Y-54379459D01*
X101804620Y-54207557D01*
X101901095Y-54018217D01*
X101966757Y-53816129D01*
X101966757Y-53816126D01*
X101977231Y-53750000D01*
X100933012Y-53750000D01*
X100965925Y-53692993D01*
X101000000Y-53565826D01*
X101000000Y-53434174D01*
X100965925Y-53307007D01*
X100933012Y-53250000D01*
X101977231Y-53250000D01*
X101966757Y-53183873D01*
X101966757Y-53183870D01*
X101901095Y-52981782D01*
X101804620Y-52792442D01*
X101679727Y-52620540D01*
X101679723Y-52620535D01*
X101540856Y-52481668D01*
X101507371Y-52420345D01*
X101512355Y-52350653D01*
X101554227Y-52294720D01*
X101563441Y-52288448D01*
X101569331Y-52284814D01*
X101569334Y-52284814D01*
X101718656Y-52192712D01*
X101842712Y-52068656D01*
X101934814Y-51919334D01*
X101989999Y-51752797D01*
X102000500Y-51650009D01*
X102000499Y-50349992D01*
X101989999Y-50247203D01*
X101934814Y-50080666D01*
X101842712Y-49931344D01*
X101718656Y-49807288D01*
X101569334Y-49715186D01*
X101402797Y-49660001D01*
X101402795Y-49660000D01*
X101300010Y-49649500D01*
X99699998Y-49649500D01*
X99699981Y-49649501D01*
X99597203Y-49660000D01*
X99597200Y-49660001D01*
X99430668Y-49715185D01*
X99430663Y-49715187D01*
X99281342Y-49807289D01*
X99157289Y-49931342D01*
X99065187Y-50080663D01*
X99065185Y-50080668D01*
X99037349Y-50164670D01*
X99010001Y-50247203D01*
X99010001Y-50247204D01*
X99010000Y-50247204D01*
X98999500Y-50349983D01*
X77468044Y-50349983D01*
X77379185Y-50290609D01*
X77379172Y-50290602D01*
X77233501Y-50230264D01*
X77233489Y-50230261D01*
X77078845Y-50199500D01*
X77078842Y-50199500D01*
X76921158Y-50199500D01*
X76921155Y-50199500D01*
X76766510Y-50230261D01*
X76766498Y-50230264D01*
X76620827Y-50290602D01*
X76620814Y-50290609D01*
X76489711Y-50378210D01*
X76489707Y-50378213D01*
X76378213Y-50489707D01*
X76378210Y-50489711D01*
X76290609Y-50620814D01*
X76290602Y-50620827D01*
X76230264Y-50766498D01*
X76230261Y-50766510D01*
X76199500Y-50921153D01*
X56828432Y-50921153D01*
X56796692Y-50889413D01*
X56796688Y-50889410D01*
X56665585Y-50801809D01*
X56665572Y-50801802D01*
X56519901Y-50741464D01*
X56519889Y-50741461D01*
X56365245Y-50710700D01*
X56365242Y-50710700D01*
X56207558Y-50710700D01*
X56207555Y-50710700D01*
X56052910Y-50741461D01*
X56052898Y-50741464D01*
X55907227Y-50801802D01*
X55907214Y-50801809D01*
X55776111Y-50889410D01*
X55776107Y-50889413D01*
X55664613Y-51000907D01*
X55664610Y-51000911D01*
X55577009Y-51132014D01*
X55577002Y-51132027D01*
X55516664Y-51277698D01*
X55516661Y-51277710D01*
X55485900Y-51432353D01*
X32792397Y-51432353D01*
X32798420Y-51402074D01*
X32798420Y-51402073D01*
X32814999Y-51318722D01*
X32815000Y-51318720D01*
X32815000Y-51151279D01*
X32814999Y-51151277D01*
X32782336Y-50987071D01*
X32782334Y-50987063D01*
X32728918Y-50858105D01*
X32721449Y-50788636D01*
X32728913Y-50763211D01*
X32782816Y-50633082D01*
X32815500Y-50468767D01*
X32815500Y-50301233D01*
X32782816Y-50136918D01*
X32729188Y-50007451D01*
X32725909Y-49976947D01*
X32720460Y-49946746D01*
X32722009Y-49940675D01*
X32721720Y-49937984D01*
X32726662Y-49921153D01*
X47199500Y-49921153D01*
X47199500Y-50078846D01*
X47230261Y-50233489D01*
X47230264Y-50233501D01*
X47290602Y-50379172D01*
X47290609Y-50379185D01*
X47378210Y-50510288D01*
X47378213Y-50510292D01*
X47489707Y-50621786D01*
X47489711Y-50621789D01*
X47620814Y-50709390D01*
X47620827Y-50709397D01*
X47758683Y-50766498D01*
X47766503Y-50769737D01*
X47921153Y-50800499D01*
X47921156Y-50800500D01*
X47921158Y-50800500D01*
X48078844Y-50800500D01*
X48078845Y-50800499D01*
X48233497Y-50769737D01*
X48379179Y-50709394D01*
X48510289Y-50621789D01*
X48621789Y-50510289D01*
X48709394Y-50379179D01*
X48769737Y-50233497D01*
X48800500Y-50078842D01*
X48800500Y-49921158D01*
X48800500Y-49921155D01*
X48800499Y-49921153D01*
X48777850Y-49807289D01*
X48769737Y-49766503D01*
X48769735Y-49766498D01*
X48709397Y-49620827D01*
X48709390Y-49620814D01*
X48621789Y-49489711D01*
X48621786Y-49489707D01*
X48510292Y-49378213D01*
X48510288Y-49378210D01*
X48379185Y-49290609D01*
X48379172Y-49290602D01*
X48233501Y-49230264D01*
X48233489Y-49230261D01*
X48078845Y-49199500D01*
X48078842Y-49199500D01*
X47921158Y-49199500D01*
X47921155Y-49199500D01*
X47766510Y-49230261D01*
X47766498Y-49230264D01*
X47620827Y-49290602D01*
X47620814Y-49290609D01*
X47489711Y-49378210D01*
X47489707Y-49378213D01*
X47378213Y-49489707D01*
X47378210Y-49489711D01*
X47290609Y-49620814D01*
X47290602Y-49620827D01*
X47230264Y-49766498D01*
X47230261Y-49766510D01*
X47199500Y-49921153D01*
X32726662Y-49921153D01*
X32729189Y-49912548D01*
X32730481Y-49909427D01*
X32782816Y-49783082D01*
X32815500Y-49618767D01*
X32815500Y-49451233D01*
X32782816Y-49286918D01*
X32729188Y-49157451D01*
X32721720Y-49087984D01*
X32729189Y-49062547D01*
X32750834Y-49010292D01*
X32782816Y-48933082D01*
X32815500Y-48768767D01*
X32815500Y-48601233D01*
X32782816Y-48436918D01*
X32776286Y-48421153D01*
X37699500Y-48421153D01*
X37699500Y-48578846D01*
X37730261Y-48733489D01*
X37730264Y-48733501D01*
X37790602Y-48879172D01*
X37790609Y-48879185D01*
X37878210Y-49010288D01*
X37878213Y-49010292D01*
X37989707Y-49121786D01*
X37989711Y-49121789D01*
X38120814Y-49209390D01*
X38120827Y-49209397D01*
X38266498Y-49269735D01*
X38266503Y-49269737D01*
X38421153Y-49300499D01*
X38421156Y-49300500D01*
X38421158Y-49300500D01*
X38578844Y-49300500D01*
X38578845Y-49300499D01*
X38733497Y-49269737D01*
X38879179Y-49209394D01*
X39010289Y-49121789D01*
X39121789Y-49010289D01*
X39209394Y-48879179D01*
X39269737Y-48733497D01*
X39300500Y-48578842D01*
X39300500Y-48421158D01*
X39300500Y-48421155D01*
X39300499Y-48421153D01*
X56199500Y-48421153D01*
X56199500Y-48578846D01*
X56230261Y-48733489D01*
X56230264Y-48733501D01*
X56290602Y-48879172D01*
X56290609Y-48879185D01*
X56378210Y-49010288D01*
X56378213Y-49010292D01*
X56489707Y-49121786D01*
X56489711Y-49121789D01*
X56620814Y-49209390D01*
X56620827Y-49209397D01*
X56766498Y-49269735D01*
X56766503Y-49269737D01*
X56921153Y-49300499D01*
X56921156Y-49300500D01*
X56921158Y-49300500D01*
X57078844Y-49300500D01*
X57078845Y-49300499D01*
X57233497Y-49269737D01*
X57379179Y-49209394D01*
X57510289Y-49121789D01*
X57621789Y-49010289D01*
X57709394Y-48879179D01*
X57769737Y-48733497D01*
X57800500Y-48578842D01*
X57800500Y-48421158D01*
X57800500Y-48421155D01*
X57800499Y-48421153D01*
X57789090Y-48363795D01*
X57769737Y-48266503D01*
X57757062Y-48235902D01*
X57709397Y-48120827D01*
X57709390Y-48120814D01*
X57621789Y-47989711D01*
X57621786Y-47989707D01*
X57510292Y-47878213D01*
X57510288Y-47878210D01*
X57379185Y-47790609D01*
X57379173Y-47790602D01*
X57352674Y-47779627D01*
X57233501Y-47730264D01*
X57233489Y-47730261D01*
X57078845Y-47699500D01*
X57078842Y-47699500D01*
X56921158Y-47699500D01*
X56921155Y-47699500D01*
X56766510Y-47730261D01*
X56766498Y-47730264D01*
X56620827Y-47790602D01*
X56620814Y-47790609D01*
X56489711Y-47878210D01*
X56489707Y-47878213D01*
X56378213Y-47989707D01*
X56378210Y-47989711D01*
X56290609Y-48120814D01*
X56290602Y-48120827D01*
X56230264Y-48266498D01*
X56230261Y-48266510D01*
X56199500Y-48421153D01*
X39300499Y-48421153D01*
X39289090Y-48363795D01*
X39269737Y-48266503D01*
X39257062Y-48235902D01*
X39209397Y-48120827D01*
X39209390Y-48120814D01*
X39121789Y-47989711D01*
X39121786Y-47989707D01*
X39010292Y-47878213D01*
X39010288Y-47878210D01*
X38879185Y-47790609D01*
X38879172Y-47790602D01*
X38733501Y-47730264D01*
X38733489Y-47730261D01*
X38578845Y-47699500D01*
X38578842Y-47699500D01*
X38421158Y-47699500D01*
X38421155Y-47699500D01*
X38266510Y-47730261D01*
X38266498Y-47730264D01*
X38120827Y-47790602D01*
X38120814Y-47790609D01*
X37989711Y-47878210D01*
X37989707Y-47878213D01*
X37878213Y-47989707D01*
X37878210Y-47989711D01*
X37790609Y-48120814D01*
X37790602Y-48120827D01*
X37730264Y-48266498D01*
X37730261Y-48266510D01*
X37699500Y-48421153D01*
X32776286Y-48421153D01*
X32728775Y-48306454D01*
X32728395Y-48305489D01*
X32725346Y-48271709D01*
X32721720Y-48237984D01*
X32722165Y-48236468D01*
X32722114Y-48235902D01*
X32722610Y-48234950D01*
X32729189Y-48212547D01*
X32763719Y-48129185D01*
X32782816Y-48083082D01*
X32815500Y-47918767D01*
X32815500Y-47751233D01*
X32782816Y-47586918D01*
X32729188Y-47457451D01*
X32721720Y-47387984D01*
X32729189Y-47362547D01*
X32754890Y-47300500D01*
X32782816Y-47233082D01*
X32815500Y-47068767D01*
X32815500Y-46921153D01*
X47199500Y-46921153D01*
X47199500Y-47078846D01*
X47230261Y-47233489D01*
X47230264Y-47233501D01*
X47290602Y-47379172D01*
X47290609Y-47379185D01*
X47378210Y-47510288D01*
X47378213Y-47510292D01*
X47489707Y-47621786D01*
X47489711Y-47621789D01*
X47620814Y-47709390D01*
X47620827Y-47709397D01*
X47721830Y-47751233D01*
X47766503Y-47769737D01*
X47921153Y-47800499D01*
X47921156Y-47800500D01*
X47921158Y-47800500D01*
X48078844Y-47800500D01*
X48078845Y-47800499D01*
X48233497Y-47769737D01*
X48379179Y-47709394D01*
X48436411Y-47671153D01*
X58949500Y-47671153D01*
X58949500Y-47828846D01*
X58980261Y-47983489D01*
X58980264Y-47983501D01*
X59040602Y-48129172D01*
X59040609Y-48129185D01*
X59128210Y-48260288D01*
X59128213Y-48260292D01*
X59239707Y-48371786D01*
X59239711Y-48371789D01*
X59370814Y-48459390D01*
X59370827Y-48459397D01*
X59501735Y-48513620D01*
X59516503Y-48519737D01*
X59671153Y-48550499D01*
X59671156Y-48550500D01*
X59671158Y-48550500D01*
X59828844Y-48550500D01*
X59828845Y-48550499D01*
X59983497Y-48519737D01*
X59998277Y-48513615D01*
X62891500Y-48513615D01*
X62891500Y-48666384D01*
X62921300Y-48816197D01*
X62921302Y-48816205D01*
X62979759Y-48957334D01*
X62979764Y-48957343D01*
X63064629Y-49084351D01*
X63064632Y-49084355D01*
X63172644Y-49192367D01*
X63172648Y-49192370D01*
X63299656Y-49277235D01*
X63299662Y-49277238D01*
X63299663Y-49277239D01*
X63440795Y-49335698D01*
X63590615Y-49365499D01*
X63590619Y-49365500D01*
X63590620Y-49365500D01*
X63743381Y-49365500D01*
X63743382Y-49365499D01*
X63893205Y-49335698D01*
X64034337Y-49277239D01*
X64161352Y-49192370D01*
X64269370Y-49084352D01*
X64354239Y-48957337D01*
X64412698Y-48816205D01*
X64442500Y-48666380D01*
X64442500Y-48513620D01*
X64412698Y-48363795D01*
X64359723Y-48235902D01*
X64354240Y-48222665D01*
X64354235Y-48222656D01*
X64269370Y-48095648D01*
X64269367Y-48095644D01*
X64161355Y-47987632D01*
X64161351Y-47987629D01*
X64034343Y-47902764D01*
X64034334Y-47902759D01*
X63893205Y-47844302D01*
X63893197Y-47844300D01*
X63743384Y-47814500D01*
X63743380Y-47814500D01*
X63590620Y-47814500D01*
X63590615Y-47814500D01*
X63440802Y-47844300D01*
X63440794Y-47844302D01*
X63299665Y-47902759D01*
X63299656Y-47902764D01*
X63172648Y-47987629D01*
X63172644Y-47987632D01*
X63064632Y-48095644D01*
X63064629Y-48095648D01*
X62979764Y-48222656D01*
X62979759Y-48222665D01*
X62921302Y-48363794D01*
X62921300Y-48363802D01*
X62891500Y-48513615D01*
X59998277Y-48513615D01*
X60129179Y-48459394D01*
X60162824Y-48436913D01*
X60211445Y-48404426D01*
X60230991Y-48391364D01*
X60260289Y-48371789D01*
X60371789Y-48260289D01*
X60459394Y-48129179D01*
X60462854Y-48120827D01*
X60506688Y-48015000D01*
X60519737Y-47983497D01*
X60550500Y-47828842D01*
X60550500Y-47671158D01*
X60550500Y-47671155D01*
X60550499Y-47671153D01*
X60540679Y-47621786D01*
X60519737Y-47516503D01*
X60495278Y-47457453D01*
X60459397Y-47370827D01*
X60459390Y-47370814D01*
X60371789Y-47239711D01*
X60371786Y-47239707D01*
X60260292Y-47128213D01*
X60260288Y-47128210D01*
X60129185Y-47040609D01*
X60129172Y-47040602D01*
X59983501Y-46980264D01*
X59983489Y-46980261D01*
X59828845Y-46949500D01*
X59828842Y-46949500D01*
X59671158Y-46949500D01*
X59671155Y-46949500D01*
X59516510Y-46980261D01*
X59516498Y-46980264D01*
X59370827Y-47040602D01*
X59370814Y-47040609D01*
X59239711Y-47128210D01*
X59239707Y-47128213D01*
X59128213Y-47239707D01*
X59128210Y-47239711D01*
X59040609Y-47370814D01*
X59040602Y-47370827D01*
X58980264Y-47516498D01*
X58980261Y-47516510D01*
X58949500Y-47671153D01*
X48436411Y-47671153D01*
X48510289Y-47621789D01*
X48621789Y-47510289D01*
X48709394Y-47379179D01*
X48712854Y-47370827D01*
X48744948Y-47293344D01*
X48769737Y-47233497D01*
X48800500Y-47078842D01*
X48800500Y-46921158D01*
X48800500Y-46921155D01*
X48800499Y-46921153D01*
X48769738Y-46766510D01*
X48769737Y-46766503D01*
X48769735Y-46766498D01*
X48709397Y-46620827D01*
X48709390Y-46620814D01*
X48621789Y-46489711D01*
X48621786Y-46489707D01*
X48510292Y-46378213D01*
X48510288Y-46378210D01*
X48379185Y-46290609D01*
X48379172Y-46290602D01*
X48233501Y-46230264D01*
X48233489Y-46230261D01*
X48078845Y-46199500D01*
X48078842Y-46199500D01*
X47921158Y-46199500D01*
X47921155Y-46199500D01*
X47766510Y-46230261D01*
X47766498Y-46230264D01*
X47620827Y-46290602D01*
X47620814Y-46290609D01*
X47489711Y-46378210D01*
X47489707Y-46378213D01*
X47378213Y-46489707D01*
X47378210Y-46489711D01*
X47290609Y-46620814D01*
X47290602Y-46620827D01*
X47230264Y-46766498D01*
X47230261Y-46766510D01*
X47199500Y-46921153D01*
X32815500Y-46921153D01*
X32815500Y-46901233D01*
X32782816Y-46736918D01*
X32729188Y-46607451D01*
X32721720Y-46537984D01*
X32729189Y-46512547D01*
X32732270Y-46505109D01*
X32782816Y-46383082D01*
X32815500Y-46218767D01*
X32815500Y-46051233D01*
X32782816Y-45886918D01*
X32728917Y-45756797D01*
X32721449Y-45687330D01*
X32728918Y-45661892D01*
X32782335Y-45532932D01*
X32782336Y-45532928D01*
X32814999Y-45368722D01*
X32815000Y-45368720D01*
X32815000Y-45201279D01*
X32814999Y-45201277D01*
X32782336Y-45037071D01*
X32782334Y-45037063D01*
X32734322Y-44921153D01*
X42699500Y-44921153D01*
X42699500Y-45078846D01*
X42730261Y-45233489D01*
X42730264Y-45233501D01*
X42790602Y-45379172D01*
X42790609Y-45379185D01*
X42878210Y-45510288D01*
X42878213Y-45510292D01*
X42989707Y-45621786D01*
X42989711Y-45621789D01*
X43120814Y-45709390D01*
X43120827Y-45709397D01*
X43266498Y-45769735D01*
X43266503Y-45769737D01*
X43421153Y-45800499D01*
X43421156Y-45800500D01*
X43421158Y-45800500D01*
X43578844Y-45800500D01*
X43578845Y-45800499D01*
X43733497Y-45769737D01*
X43879179Y-45709394D01*
X43931110Y-45674694D01*
X43997785Y-45653816D01*
X44065165Y-45672300D01*
X44068863Y-45674676D01*
X44120821Y-45709394D01*
X44120823Y-45709395D01*
X44120825Y-45709396D01*
X44266498Y-45769735D01*
X44266503Y-45769737D01*
X44421153Y-45800499D01*
X44421156Y-45800500D01*
X44421158Y-45800500D01*
X44578844Y-45800500D01*
X44578845Y-45800499D01*
X44733497Y-45769737D01*
X44879179Y-45709394D01*
X45010289Y-45621789D01*
X45121789Y-45510289D01*
X45209394Y-45379179D01*
X45269737Y-45233497D01*
X45300500Y-45078842D01*
X45300500Y-44993153D01*
X45699500Y-44993153D01*
X45699500Y-45150846D01*
X45730261Y-45305489D01*
X45730264Y-45305501D01*
X45790602Y-45451172D01*
X45790609Y-45451185D01*
X45878210Y-45582288D01*
X45878213Y-45582292D01*
X45989707Y-45693786D01*
X45989711Y-45693789D01*
X46120814Y-45781390D01*
X46120827Y-45781397D01*
X46266498Y-45841735D01*
X46266503Y-45841737D01*
X46421153Y-45872499D01*
X46421156Y-45872500D01*
X46421158Y-45872500D01*
X46578844Y-45872500D01*
X46578845Y-45872499D01*
X46733497Y-45841737D01*
X46879179Y-45781394D01*
X46952251Y-45732569D01*
X53205500Y-45732569D01*
X53205500Y-45890262D01*
X53236261Y-46044905D01*
X53236264Y-46044917D01*
X53296602Y-46190588D01*
X53296609Y-46190601D01*
X53384210Y-46321704D01*
X53384213Y-46321708D01*
X53495707Y-46433202D01*
X53495711Y-46433205D01*
X53626814Y-46520806D01*
X53626827Y-46520813D01*
X53766933Y-46578846D01*
X53772503Y-46581153D01*
X53904716Y-46607452D01*
X53927153Y-46611915D01*
X53927156Y-46611916D01*
X53927158Y-46611916D01*
X54084844Y-46611916D01*
X54084845Y-46611915D01*
X54239497Y-46581153D01*
X54385179Y-46520810D01*
X54516289Y-46433205D01*
X54528341Y-46421153D01*
X61349500Y-46421153D01*
X61349500Y-46578846D01*
X61380261Y-46733489D01*
X61380264Y-46733501D01*
X61440602Y-46879172D01*
X61440609Y-46879185D01*
X61528210Y-47010288D01*
X61528213Y-47010292D01*
X61639707Y-47121786D01*
X61639711Y-47121789D01*
X61770814Y-47209390D01*
X61770827Y-47209397D01*
X61844013Y-47239711D01*
X61916503Y-47269737D01*
X62035173Y-47293342D01*
X62071153Y-47300499D01*
X62071156Y-47300500D01*
X62071158Y-47300500D01*
X62228844Y-47300500D01*
X62228845Y-47300499D01*
X62383497Y-47269737D01*
X62529179Y-47209394D01*
X62639540Y-47135653D01*
X75914000Y-47135653D01*
X75914000Y-47293346D01*
X75944761Y-47447989D01*
X75944764Y-47448001D01*
X76005102Y-47593672D01*
X76005109Y-47593685D01*
X76092710Y-47724788D01*
X76092713Y-47724792D01*
X76204207Y-47836286D01*
X76204211Y-47836289D01*
X76335314Y-47923890D01*
X76335327Y-47923897D01*
X76479197Y-47983489D01*
X76481003Y-47984237D01*
X76635653Y-48014999D01*
X76635656Y-48015000D01*
X76635658Y-48015000D01*
X76793344Y-48015000D01*
X76793345Y-48014999D01*
X76947997Y-47984237D01*
X77093679Y-47923894D01*
X77224789Y-47836289D01*
X77336289Y-47724789D01*
X77423894Y-47593679D01*
X77426695Y-47586918D01*
X77480320Y-47457453D01*
X77484237Y-47447997D01*
X77515000Y-47293342D01*
X77515000Y-47135658D01*
X77515000Y-47135655D01*
X77514999Y-47135653D01*
X77503699Y-47078844D01*
X77484237Y-46981003D01*
X77459446Y-46921153D01*
X80122500Y-46921153D01*
X80122500Y-47078846D01*
X80153261Y-47233489D01*
X80153264Y-47233501D01*
X80213602Y-47379172D01*
X80213609Y-47379185D01*
X80301210Y-47510288D01*
X80301213Y-47510292D01*
X80412707Y-47621786D01*
X80412711Y-47621789D01*
X80543814Y-47709390D01*
X80543827Y-47709397D01*
X80644830Y-47751233D01*
X80689503Y-47769737D01*
X80844153Y-47800499D01*
X80844156Y-47800500D01*
X80844158Y-47800500D01*
X81001844Y-47800500D01*
X81001845Y-47800499D01*
X81156497Y-47769737D01*
X81302179Y-47709394D01*
X81433289Y-47621789D01*
X81544789Y-47510289D01*
X81632394Y-47379179D01*
X81635854Y-47370827D01*
X81667948Y-47293344D01*
X81692737Y-47233497D01*
X81723500Y-47078842D01*
X81723500Y-46921158D01*
X81723500Y-46921155D01*
X81723499Y-46921153D01*
X97199500Y-46921153D01*
X97199500Y-47078846D01*
X97230261Y-47233489D01*
X97230264Y-47233501D01*
X97290602Y-47379172D01*
X97290609Y-47379185D01*
X97378210Y-47510288D01*
X97378213Y-47510292D01*
X97489707Y-47621786D01*
X97489711Y-47621789D01*
X97620814Y-47709390D01*
X97620827Y-47709397D01*
X97721830Y-47751233D01*
X97766503Y-47769737D01*
X97921153Y-47800499D01*
X97921156Y-47800500D01*
X97921158Y-47800500D01*
X98078844Y-47800500D01*
X98078845Y-47800499D01*
X98233497Y-47769737D01*
X98379179Y-47709394D01*
X98510289Y-47621789D01*
X98621789Y-47510289D01*
X98709394Y-47379179D01*
X98712854Y-47370827D01*
X98744948Y-47293344D01*
X98769737Y-47233497D01*
X98800500Y-47078842D01*
X98800500Y-46921158D01*
X98800500Y-46921155D01*
X98800499Y-46921153D01*
X98769738Y-46766510D01*
X98769737Y-46766503D01*
X98769735Y-46766498D01*
X98709397Y-46620827D01*
X98709390Y-46620814D01*
X98621789Y-46489711D01*
X98621786Y-46489707D01*
X98510292Y-46378213D01*
X98510288Y-46378210D01*
X98379185Y-46290609D01*
X98379172Y-46290602D01*
X98233501Y-46230264D01*
X98233489Y-46230261D01*
X98078845Y-46199500D01*
X98078842Y-46199500D01*
X97921158Y-46199500D01*
X97921155Y-46199500D01*
X97766510Y-46230261D01*
X97766498Y-46230264D01*
X97620827Y-46290602D01*
X97620814Y-46290609D01*
X97489711Y-46378210D01*
X97489707Y-46378213D01*
X97378213Y-46489707D01*
X97378210Y-46489711D01*
X97290609Y-46620814D01*
X97290602Y-46620827D01*
X97230264Y-46766498D01*
X97230261Y-46766510D01*
X97199500Y-46921153D01*
X81723499Y-46921153D01*
X81692738Y-46766510D01*
X81692737Y-46766503D01*
X81692735Y-46766498D01*
X81632397Y-46620827D01*
X81632390Y-46620814D01*
X81544789Y-46489711D01*
X81544786Y-46489707D01*
X81433292Y-46378213D01*
X81433288Y-46378210D01*
X81302185Y-46290609D01*
X81302172Y-46290602D01*
X81156501Y-46230264D01*
X81156489Y-46230261D01*
X81001845Y-46199500D01*
X81001842Y-46199500D01*
X80844158Y-46199500D01*
X80844155Y-46199500D01*
X80689510Y-46230261D01*
X80689498Y-46230264D01*
X80543827Y-46290602D01*
X80543814Y-46290609D01*
X80412711Y-46378210D01*
X80412707Y-46378213D01*
X80301213Y-46489707D01*
X80301210Y-46489711D01*
X80213609Y-46620814D01*
X80213602Y-46620827D01*
X80153264Y-46766498D01*
X80153261Y-46766510D01*
X80122500Y-46921153D01*
X77459446Y-46921153D01*
X77437511Y-46868197D01*
X77423895Y-46835323D01*
X77423890Y-46835314D01*
X77336289Y-46704211D01*
X77336286Y-46704207D01*
X77224792Y-46592713D01*
X77224788Y-46592710D01*
X77093685Y-46505109D01*
X77093672Y-46505102D01*
X76948001Y-46444764D01*
X76947989Y-46444761D01*
X76793345Y-46414000D01*
X76793342Y-46414000D01*
X76635658Y-46414000D01*
X76635655Y-46414000D01*
X76481010Y-46444761D01*
X76480998Y-46444764D01*
X76335327Y-46505102D01*
X76335314Y-46505109D01*
X76204211Y-46592710D01*
X76204207Y-46592713D01*
X76092713Y-46704207D01*
X76092710Y-46704211D01*
X76005109Y-46835314D01*
X76005102Y-46835327D01*
X75944764Y-46980998D01*
X75944761Y-46981010D01*
X75914000Y-47135653D01*
X62639540Y-47135653D01*
X62660289Y-47121789D01*
X62660292Y-47121786D01*
X62740194Y-47041885D01*
X62771786Y-47010292D01*
X62771789Y-47010289D01*
X62859394Y-46879179D01*
X62919737Y-46733497D01*
X62950500Y-46578842D01*
X62950500Y-46421158D01*
X62950500Y-46421155D01*
X62950499Y-46421153D01*
X62942926Y-46383082D01*
X62919737Y-46266503D01*
X62919735Y-46266498D01*
X62859397Y-46120827D01*
X62859390Y-46120814D01*
X62771789Y-45989711D01*
X62771786Y-45989707D01*
X62660292Y-45878213D01*
X62660288Y-45878210D01*
X62529185Y-45790609D01*
X62529172Y-45790602D01*
X62383501Y-45730264D01*
X62383489Y-45730261D01*
X62228845Y-45699500D01*
X62228842Y-45699500D01*
X62071158Y-45699500D01*
X62071155Y-45699500D01*
X61916510Y-45730261D01*
X61916498Y-45730264D01*
X61770827Y-45790602D01*
X61770814Y-45790609D01*
X61639711Y-45878210D01*
X61639707Y-45878213D01*
X61528213Y-45989707D01*
X61528210Y-45989711D01*
X61440609Y-46120814D01*
X61440602Y-46120827D01*
X61380264Y-46266498D01*
X61380261Y-46266510D01*
X61349500Y-46421153D01*
X54528341Y-46421153D01*
X54566420Y-46383074D01*
X54622110Y-46327385D01*
X54627786Y-46321708D01*
X54627789Y-46321705D01*
X54715394Y-46190595D01*
X54775737Y-46044913D01*
X54806500Y-45890258D01*
X54806500Y-45732574D01*
X54806500Y-45732571D01*
X54806499Y-45732569D01*
X54806259Y-45731363D01*
X54775737Y-45577919D01*
X54732848Y-45474374D01*
X54715397Y-45432243D01*
X54715390Y-45432230D01*
X54627789Y-45301127D01*
X54627786Y-45301123D01*
X54516292Y-45189629D01*
X54516288Y-45189626D01*
X54385185Y-45102025D01*
X54385172Y-45102018D01*
X54239501Y-45041680D01*
X54239489Y-45041677D01*
X54084845Y-45010916D01*
X54084842Y-45010916D01*
X53927158Y-45010916D01*
X53927155Y-45010916D01*
X53772510Y-45041677D01*
X53772498Y-45041680D01*
X53626827Y-45102018D01*
X53626814Y-45102025D01*
X53495711Y-45189626D01*
X53495707Y-45189629D01*
X53384213Y-45301123D01*
X53384210Y-45301127D01*
X53296609Y-45432230D01*
X53296602Y-45432243D01*
X53236264Y-45577914D01*
X53236261Y-45577926D01*
X53205500Y-45732569D01*
X46952251Y-45732569D01*
X47010289Y-45693789D01*
X47031778Y-45672300D01*
X47065278Y-45638801D01*
X47121786Y-45582292D01*
X47121789Y-45582289D01*
X47209394Y-45451179D01*
X47217238Y-45432243D01*
X47239220Y-45379172D01*
X47269737Y-45305497D01*
X47300500Y-45150842D01*
X47300500Y-44993158D01*
X47300500Y-44993155D01*
X47300499Y-44993153D01*
X47286178Y-44921158D01*
X47269737Y-44838503D01*
X47264567Y-44826021D01*
X47209397Y-44692827D01*
X47209390Y-44692814D01*
X47121789Y-44561711D01*
X47121786Y-44561707D01*
X47010292Y-44450213D01*
X47010288Y-44450210D01*
X46879185Y-44362609D01*
X46879172Y-44362602D01*
X46733501Y-44302264D01*
X46733489Y-44302261D01*
X46578845Y-44271500D01*
X46578842Y-44271500D01*
X46421158Y-44271500D01*
X46421155Y-44271500D01*
X46266510Y-44302261D01*
X46266498Y-44302264D01*
X46120827Y-44362602D01*
X46120814Y-44362609D01*
X45989711Y-44450210D01*
X45989707Y-44450213D01*
X45878213Y-44561707D01*
X45878210Y-44561711D01*
X45790609Y-44692814D01*
X45790602Y-44692827D01*
X45730264Y-44838498D01*
X45730261Y-44838510D01*
X45699500Y-44993153D01*
X45300500Y-44993153D01*
X45300500Y-44921158D01*
X45300500Y-44921155D01*
X45300499Y-44921153D01*
X45293196Y-44884437D01*
X45269737Y-44766503D01*
X45239217Y-44692821D01*
X45209397Y-44620827D01*
X45209390Y-44620814D01*
X45121789Y-44489711D01*
X45121786Y-44489707D01*
X45010292Y-44378213D01*
X45010288Y-44378210D01*
X44879185Y-44290609D01*
X44879172Y-44290602D01*
X44733501Y-44230264D01*
X44733489Y-44230261D01*
X44578845Y-44199500D01*
X44578842Y-44199500D01*
X44421158Y-44199500D01*
X44421155Y-44199500D01*
X44266510Y-44230261D01*
X44266498Y-44230264D01*
X44120827Y-44290602D01*
X44120814Y-44290609D01*
X44068891Y-44325304D01*
X44002214Y-44346182D01*
X43934833Y-44327698D01*
X43931109Y-44325304D01*
X43879185Y-44290609D01*
X43879172Y-44290602D01*
X43733501Y-44230264D01*
X43733489Y-44230261D01*
X43578845Y-44199500D01*
X43578842Y-44199500D01*
X43421158Y-44199500D01*
X43421155Y-44199500D01*
X43266510Y-44230261D01*
X43266498Y-44230264D01*
X43120827Y-44290602D01*
X43120814Y-44290609D01*
X42989711Y-44378210D01*
X42989707Y-44378213D01*
X42878213Y-44489707D01*
X42878210Y-44489711D01*
X42790609Y-44620814D01*
X42790602Y-44620827D01*
X42730264Y-44766498D01*
X42730261Y-44766510D01*
X42699500Y-44921153D01*
X32734322Y-44921153D01*
X32719114Y-44884437D01*
X32321076Y-45282476D01*
X32259753Y-45315961D01*
X32209204Y-45316412D01*
X32165000Y-45307619D01*
X32165000Y-45245218D01*
X32134552Y-45171709D01*
X32078291Y-45115448D01*
X32004782Y-45085000D01*
X31925218Y-45085000D01*
X31851709Y-45115448D01*
X31795448Y-45171709D01*
X31765000Y-45245218D01*
X31765000Y-45307618D01*
X31720794Y-45316412D01*
X31651202Y-45310185D01*
X31608922Y-45282476D01*
X31423628Y-45097181D01*
X31390143Y-45035858D01*
X31395127Y-44966166D01*
X31436999Y-44910233D01*
X31502463Y-44885816D01*
X31511309Y-44885500D01*
X31828616Y-44885500D01*
X31839042Y-44883426D01*
X31908632Y-44889652D01*
X31950916Y-44917362D01*
X31964999Y-44931445D01*
X32054938Y-44841506D01*
X32095160Y-44814630D01*
X32185231Y-44777322D01*
X32340908Y-44673302D01*
X32473302Y-44540908D01*
X32577322Y-44385231D01*
X32648973Y-44212251D01*
X32685500Y-44028616D01*
X32685500Y-43921153D01*
X36199500Y-43921153D01*
X36199500Y-44078846D01*
X36230261Y-44233489D01*
X36230264Y-44233501D01*
X36290602Y-44379172D01*
X36290609Y-44379185D01*
X36378210Y-44510288D01*
X36378213Y-44510292D01*
X36489707Y-44621786D01*
X36489711Y-44621789D01*
X36620814Y-44709390D01*
X36620827Y-44709397D01*
X36758683Y-44766498D01*
X36766503Y-44769737D01*
X36921153Y-44800499D01*
X36921156Y-44800500D01*
X36921158Y-44800500D01*
X37078844Y-44800500D01*
X37078845Y-44800499D01*
X37089179Y-44798443D01*
X37114287Y-44793450D01*
X37114292Y-44793449D01*
X37199800Y-44776439D01*
X37233497Y-44769737D01*
X37379179Y-44709394D01*
X37510289Y-44621789D01*
X37621789Y-44510289D01*
X37709394Y-44379179D01*
X37716258Y-44362609D01*
X37741984Y-44300499D01*
X37769737Y-44233497D01*
X37800500Y-44078842D01*
X37800500Y-43921158D01*
X37800500Y-43921155D01*
X37800499Y-43921153D01*
X37784632Y-43841384D01*
X37769737Y-43766503D01*
X37746080Y-43709390D01*
X37709397Y-43620827D01*
X37709390Y-43620814D01*
X37621789Y-43489711D01*
X37621786Y-43489707D01*
X37510292Y-43378213D01*
X37510288Y-43378210D01*
X37379185Y-43290609D01*
X37379172Y-43290602D01*
X37233501Y-43230264D01*
X37233489Y-43230261D01*
X37078845Y-43199500D01*
X37078842Y-43199500D01*
X36921158Y-43199500D01*
X36921155Y-43199500D01*
X36766510Y-43230261D01*
X36766498Y-43230264D01*
X36620827Y-43290602D01*
X36620814Y-43290609D01*
X36489711Y-43378210D01*
X36489707Y-43378213D01*
X36378213Y-43489707D01*
X36378210Y-43489711D01*
X36290609Y-43620814D01*
X36290602Y-43620827D01*
X36230264Y-43766498D01*
X36230261Y-43766510D01*
X36199500Y-43921153D01*
X32685500Y-43921153D01*
X32685500Y-43841384D01*
X32648973Y-43657749D01*
X32588253Y-43511158D01*
X32577323Y-43484771D01*
X32577318Y-43484762D01*
X32473302Y-43329092D01*
X32473299Y-43329088D01*
X32340911Y-43196700D01*
X32340907Y-43196697D01*
X32185237Y-43092681D01*
X32185228Y-43092676D01*
X32033013Y-43029627D01*
X32033011Y-43029626D01*
X32012255Y-43021028D01*
X32012243Y-43021025D01*
X31828620Y-42984500D01*
X31828616Y-42984500D01*
X30338404Y-42984500D01*
X30271365Y-42964815D01*
X30233532Y-42921153D01*
X40699500Y-42921153D01*
X40699500Y-43078846D01*
X40730261Y-43233489D01*
X40730264Y-43233501D01*
X40790602Y-43379172D01*
X40790609Y-43379185D01*
X40878210Y-43510288D01*
X40878213Y-43510292D01*
X40989707Y-43621786D01*
X40989711Y-43621789D01*
X41120814Y-43709390D01*
X41120827Y-43709397D01*
X41258683Y-43766498D01*
X41266503Y-43769737D01*
X41421153Y-43800499D01*
X41421156Y-43800500D01*
X41421158Y-43800500D01*
X41578844Y-43800500D01*
X41578845Y-43800499D01*
X41733497Y-43769737D01*
X41879179Y-43709394D01*
X42010289Y-43621789D01*
X42121789Y-43510289D01*
X42181348Y-43421153D01*
X58949500Y-43421153D01*
X58949500Y-43578846D01*
X58980261Y-43733489D01*
X58980264Y-43733501D01*
X59040602Y-43879172D01*
X59040609Y-43879185D01*
X59128210Y-44010288D01*
X59128213Y-44010292D01*
X59239707Y-44121786D01*
X59239711Y-44121789D01*
X59370814Y-44209390D01*
X59370827Y-44209397D01*
X59516498Y-44269735D01*
X59516503Y-44269737D01*
X59665578Y-44299390D01*
X59671153Y-44300499D01*
X59671156Y-44300500D01*
X59796541Y-44300500D01*
X59863580Y-44320185D01*
X59909335Y-44372989D01*
X59919279Y-44442147D01*
X59899643Y-44493391D01*
X59862609Y-44548815D01*
X59862602Y-44548827D01*
X59802264Y-44694498D01*
X59802261Y-44694510D01*
X59771500Y-44849153D01*
X59771500Y-45006846D01*
X59802261Y-45161489D01*
X59802264Y-45161501D01*
X59862602Y-45307172D01*
X59862609Y-45307185D01*
X59950210Y-45438288D01*
X59950213Y-45438292D01*
X60061707Y-45549786D01*
X60061711Y-45549789D01*
X60192814Y-45637390D01*
X60192827Y-45637397D01*
X60338498Y-45697735D01*
X60338503Y-45697737D01*
X60493153Y-45728499D01*
X60493156Y-45728500D01*
X60493158Y-45728500D01*
X60650844Y-45728500D01*
X60650845Y-45728499D01*
X60805497Y-45697737D01*
X60951179Y-45637394D01*
X61082289Y-45549789D01*
X61193789Y-45438289D01*
X61281394Y-45307179D01*
X61283903Y-45301123D01*
X61325259Y-45201279D01*
X61341737Y-45161497D01*
X61372500Y-45006842D01*
X61372500Y-44921153D01*
X75199500Y-44921153D01*
X75199500Y-45078846D01*
X75230261Y-45233489D01*
X75230264Y-45233501D01*
X75290602Y-45379172D01*
X75290609Y-45379185D01*
X75378210Y-45510288D01*
X75378213Y-45510292D01*
X75489707Y-45621786D01*
X75489711Y-45621789D01*
X75620814Y-45709390D01*
X75620827Y-45709397D01*
X75766498Y-45769735D01*
X75766503Y-45769737D01*
X75921153Y-45800499D01*
X75921156Y-45800500D01*
X75921158Y-45800500D01*
X76078844Y-45800500D01*
X76078845Y-45800499D01*
X76233497Y-45769737D01*
X76379179Y-45709394D01*
X76510289Y-45621789D01*
X76621789Y-45510289D01*
X76709394Y-45379179D01*
X76769737Y-45233497D01*
X76800500Y-45078842D01*
X76800500Y-44921158D01*
X76800500Y-44921155D01*
X76800499Y-44921153D01*
X76793196Y-44884437D01*
X76769737Y-44766503D01*
X76739217Y-44692821D01*
X76709397Y-44620827D01*
X76709390Y-44620814D01*
X76621789Y-44489711D01*
X76621786Y-44489707D01*
X76510292Y-44378213D01*
X76510288Y-44378210D01*
X76379185Y-44290609D01*
X76379172Y-44290602D01*
X76233501Y-44230264D01*
X76233489Y-44230261D01*
X76078845Y-44199500D01*
X76078842Y-44199500D01*
X75921158Y-44199500D01*
X75921155Y-44199500D01*
X75766510Y-44230261D01*
X75766498Y-44230264D01*
X75620827Y-44290602D01*
X75620814Y-44290609D01*
X75489711Y-44378210D01*
X75489707Y-44378213D01*
X75378213Y-44489707D01*
X75378210Y-44489711D01*
X75290609Y-44620814D01*
X75290602Y-44620827D01*
X75230264Y-44766498D01*
X75230261Y-44766510D01*
X75199500Y-44921153D01*
X61372500Y-44921153D01*
X61372500Y-44849158D01*
X61372500Y-44849155D01*
X61372499Y-44849153D01*
X61358210Y-44777318D01*
X61341737Y-44694503D01*
X61311217Y-44620821D01*
X61281397Y-44548827D01*
X61281390Y-44548814D01*
X61243834Y-44492608D01*
X61222956Y-44425931D01*
X61241440Y-44358551D01*
X61293419Y-44311860D01*
X61362389Y-44300684D01*
X61394388Y-44309156D01*
X61439153Y-44327698D01*
X61516503Y-44359737D01*
X61671153Y-44390499D01*
X61671156Y-44390500D01*
X61671158Y-44390500D01*
X61828844Y-44390500D01*
X61828845Y-44390499D01*
X61983497Y-44359737D01*
X62122253Y-44302263D01*
X62129172Y-44299397D01*
X62129172Y-44299396D01*
X62129179Y-44299394D01*
X62260289Y-44211789D01*
X62371789Y-44100289D01*
X62459394Y-43969179D01*
X62519737Y-43823497D01*
X62550500Y-43668842D01*
X62550500Y-43511158D01*
X62550500Y-43511155D01*
X62550499Y-43511153D01*
X62532597Y-43421153D01*
X62519737Y-43356503D01*
X62508383Y-43329092D01*
X62459397Y-43210827D01*
X62459390Y-43210814D01*
X62371789Y-43079711D01*
X62371786Y-43079707D01*
X62260292Y-42968213D01*
X62260288Y-42968210D01*
X62189863Y-42921153D01*
X84199500Y-42921153D01*
X84199500Y-43078846D01*
X84230261Y-43233489D01*
X84230264Y-43233501D01*
X84290602Y-43379172D01*
X84290609Y-43379185D01*
X84378210Y-43510288D01*
X84378213Y-43510292D01*
X84489707Y-43621786D01*
X84489711Y-43621789D01*
X84620814Y-43709390D01*
X84620827Y-43709397D01*
X84758683Y-43766498D01*
X84766503Y-43769737D01*
X84921153Y-43800499D01*
X84921156Y-43800500D01*
X84921158Y-43800500D01*
X85078844Y-43800500D01*
X85078845Y-43800499D01*
X85233497Y-43769737D01*
X85379179Y-43709394D01*
X85510289Y-43621789D01*
X85621789Y-43510289D01*
X85709394Y-43379179D01*
X85769737Y-43233497D01*
X85800500Y-43078842D01*
X85800500Y-42921158D01*
X85800500Y-42921155D01*
X85800499Y-42921153D01*
X88199500Y-42921153D01*
X88199500Y-43078846D01*
X88230261Y-43233489D01*
X88230264Y-43233501D01*
X88290602Y-43379172D01*
X88290609Y-43379185D01*
X88378210Y-43510288D01*
X88378213Y-43510292D01*
X88489707Y-43621786D01*
X88489711Y-43621789D01*
X88620814Y-43709390D01*
X88620827Y-43709397D01*
X88758683Y-43766498D01*
X88766503Y-43769737D01*
X88921153Y-43800499D01*
X88921156Y-43800500D01*
X88921158Y-43800500D01*
X89078844Y-43800500D01*
X89078845Y-43800499D01*
X89233497Y-43769737D01*
X89379179Y-43709394D01*
X89510289Y-43621789D01*
X89621789Y-43510289D01*
X89709394Y-43379179D01*
X89769737Y-43233497D01*
X89800500Y-43078842D01*
X89800500Y-42921158D01*
X89800500Y-42921155D01*
X89800499Y-42921153D01*
X89784924Y-42842853D01*
X89769737Y-42766503D01*
X89761219Y-42745939D01*
X89709397Y-42620827D01*
X89709390Y-42620814D01*
X89621789Y-42489711D01*
X89621786Y-42489707D01*
X89510292Y-42378213D01*
X89510288Y-42378210D01*
X89379185Y-42290609D01*
X89379172Y-42290602D01*
X89233501Y-42230264D01*
X89233489Y-42230261D01*
X89078845Y-42199500D01*
X89078842Y-42199500D01*
X88921158Y-42199500D01*
X88921155Y-42199500D01*
X88766510Y-42230261D01*
X88766498Y-42230264D01*
X88620827Y-42290602D01*
X88620814Y-42290609D01*
X88489711Y-42378210D01*
X88489707Y-42378213D01*
X88378213Y-42489707D01*
X88378210Y-42489711D01*
X88290609Y-42620814D01*
X88290602Y-42620827D01*
X88230264Y-42766498D01*
X88230261Y-42766510D01*
X88199500Y-42921153D01*
X85800499Y-42921153D01*
X85784924Y-42842853D01*
X85769737Y-42766503D01*
X85761219Y-42745939D01*
X85709397Y-42620827D01*
X85709390Y-42620814D01*
X85621789Y-42489711D01*
X85621786Y-42489707D01*
X85510292Y-42378213D01*
X85510288Y-42378210D01*
X85379185Y-42290609D01*
X85379172Y-42290602D01*
X85233501Y-42230264D01*
X85233489Y-42230261D01*
X85078845Y-42199500D01*
X85078842Y-42199500D01*
X84921158Y-42199500D01*
X84921155Y-42199500D01*
X84766510Y-42230261D01*
X84766498Y-42230264D01*
X84620827Y-42290602D01*
X84620814Y-42290609D01*
X84489711Y-42378210D01*
X84489707Y-42378213D01*
X84378213Y-42489707D01*
X84378210Y-42489711D01*
X84290609Y-42620814D01*
X84290602Y-42620827D01*
X84230264Y-42766498D01*
X84230261Y-42766510D01*
X84199500Y-42921153D01*
X62189863Y-42921153D01*
X62129185Y-42880609D01*
X62129172Y-42880602D01*
X61983501Y-42820264D01*
X61983489Y-42820261D01*
X61828845Y-42789500D01*
X61828842Y-42789500D01*
X61671158Y-42789500D01*
X61671155Y-42789500D01*
X61516510Y-42820261D01*
X61516498Y-42820264D01*
X61370827Y-42880602D01*
X61370814Y-42880609D01*
X61239711Y-42968210D01*
X61239707Y-42968213D01*
X61128213Y-43079707D01*
X61128210Y-43079711D01*
X61040609Y-43210814D01*
X61040602Y-43210827D01*
X60980264Y-43356498D01*
X60980261Y-43356510D01*
X60949500Y-43511153D01*
X60949500Y-43668846D01*
X60980261Y-43823489D01*
X60980264Y-43823501D01*
X61040602Y-43969172D01*
X61040609Y-43969185D01*
X61078165Y-44025391D01*
X61099043Y-44092069D01*
X61080558Y-44159449D01*
X61028580Y-44206139D01*
X60959610Y-44217315D01*
X60927611Y-44208843D01*
X60805501Y-44158264D01*
X60805489Y-44158261D01*
X60650845Y-44127500D01*
X60650842Y-44127500D01*
X60525459Y-44127500D01*
X60458420Y-44107815D01*
X60412665Y-44055011D01*
X60402721Y-43985853D01*
X60422357Y-43934609D01*
X60431344Y-43921158D01*
X60459394Y-43879179D01*
X60519737Y-43733497D01*
X60550500Y-43578842D01*
X60550500Y-43421158D01*
X60550500Y-43421155D01*
X60550499Y-43421153D01*
X60539849Y-43367611D01*
X60519737Y-43266503D01*
X60506062Y-43233489D01*
X60459397Y-43120827D01*
X60459390Y-43120814D01*
X60371789Y-42989711D01*
X60371786Y-42989707D01*
X60260292Y-42878213D01*
X60260288Y-42878210D01*
X60129185Y-42790609D01*
X60129172Y-42790602D01*
X59983501Y-42730264D01*
X59983489Y-42730261D01*
X59828845Y-42699500D01*
X59828842Y-42699500D01*
X59671158Y-42699500D01*
X59671155Y-42699500D01*
X59516510Y-42730261D01*
X59516498Y-42730264D01*
X59370827Y-42790602D01*
X59370814Y-42790609D01*
X59239711Y-42878210D01*
X59239707Y-42878213D01*
X59128213Y-42989707D01*
X59128210Y-42989711D01*
X59040609Y-43120814D01*
X59040602Y-43120827D01*
X58980264Y-43266498D01*
X58980261Y-43266510D01*
X58949500Y-43421153D01*
X42181348Y-43421153D01*
X42209394Y-43379179D01*
X42269737Y-43233497D01*
X42300500Y-43078842D01*
X42300500Y-42921158D01*
X42300500Y-42921155D01*
X42300499Y-42921153D01*
X42284924Y-42842853D01*
X42269737Y-42766503D01*
X42261219Y-42745939D01*
X42209397Y-42620827D01*
X42209390Y-42620814D01*
X42121789Y-42489711D01*
X42121786Y-42489707D01*
X42010292Y-42378213D01*
X42010288Y-42378210D01*
X41879185Y-42290609D01*
X41879172Y-42290602D01*
X41733501Y-42230264D01*
X41733489Y-42230261D01*
X41578845Y-42199500D01*
X41578842Y-42199500D01*
X41421158Y-42199500D01*
X41421155Y-42199500D01*
X41266510Y-42230261D01*
X41266498Y-42230264D01*
X41120827Y-42290602D01*
X41120814Y-42290609D01*
X40989711Y-42378210D01*
X40989707Y-42378213D01*
X40878213Y-42489707D01*
X40878210Y-42489711D01*
X40790609Y-42620814D01*
X40790602Y-42620827D01*
X40730264Y-42766498D01*
X40730261Y-42766510D01*
X40699500Y-42921153D01*
X30233532Y-42921153D01*
X30225610Y-42912011D01*
X30215666Y-42842853D01*
X30244691Y-42779297D01*
X30290952Y-42745939D01*
X30379172Y-42709397D01*
X30379172Y-42709396D01*
X30379179Y-42709394D01*
X30510289Y-42621789D01*
X30621789Y-42510289D01*
X30709394Y-42379179D01*
X30769737Y-42233497D01*
X30800500Y-42078842D01*
X30800500Y-41921158D01*
X30800500Y-41921155D01*
X30800499Y-41921153D01*
X30776499Y-41800499D01*
X30769737Y-41766503D01*
X30746080Y-41709390D01*
X30709397Y-41620827D01*
X30709390Y-41620814D01*
X30621789Y-41489711D01*
X30621786Y-41489707D01*
X30510292Y-41378213D01*
X30510288Y-41378210D01*
X30379185Y-41290609D01*
X30379172Y-41290602D01*
X30233501Y-41230264D01*
X30233489Y-41230261D01*
X30078845Y-41199500D01*
X30078842Y-41199500D01*
X29921158Y-41199500D01*
X29921155Y-41199500D01*
X29766510Y-41230261D01*
X29766498Y-41230264D01*
X29620827Y-41290602D01*
X29620814Y-41290609D01*
X29489711Y-41378210D01*
X29489707Y-41378213D01*
X29378213Y-41489707D01*
X29378210Y-41489711D01*
X29290609Y-41620814D01*
X29290602Y-41620827D01*
X29230264Y-41766498D01*
X29230261Y-41766510D01*
X29199500Y-41921153D01*
X26500500Y-41921153D01*
X26500500Y-40921153D01*
X47699500Y-40921153D01*
X47699500Y-41078846D01*
X47730261Y-41233489D01*
X47730264Y-41233501D01*
X47790602Y-41379172D01*
X47790609Y-41379185D01*
X47878210Y-41510288D01*
X47878213Y-41510292D01*
X47989707Y-41621786D01*
X47989711Y-41621789D01*
X48120814Y-41709390D01*
X48120827Y-41709397D01*
X48258683Y-41766498D01*
X48266503Y-41769737D01*
X48390220Y-41794346D01*
X48421153Y-41800499D01*
X48421156Y-41800500D01*
X48421158Y-41800500D01*
X48578844Y-41800500D01*
X48578845Y-41800499D01*
X48733497Y-41769737D01*
X48879179Y-41709394D01*
X49010289Y-41621789D01*
X49121789Y-41510289D01*
X49209394Y-41379179D01*
X49269737Y-41233497D01*
X49272112Y-41221553D01*
X62826500Y-41221553D01*
X62826500Y-41379246D01*
X62857261Y-41533889D01*
X62857264Y-41533901D01*
X62917602Y-41679572D01*
X62917609Y-41679585D01*
X63005210Y-41810688D01*
X63005213Y-41810692D01*
X63116707Y-41922186D01*
X63116711Y-41922189D01*
X63247814Y-42009790D01*
X63247827Y-42009797D01*
X63393498Y-42070135D01*
X63393503Y-42070137D01*
X63548153Y-42100899D01*
X63548156Y-42100900D01*
X63548158Y-42100900D01*
X63705844Y-42100900D01*
X63705845Y-42100899D01*
X63860497Y-42070137D01*
X64006179Y-42009794D01*
X64137289Y-41922189D01*
X64248789Y-41810689D01*
X64336394Y-41679579D01*
X64396737Y-41533897D01*
X64427500Y-41379242D01*
X64427500Y-41221558D01*
X64427500Y-41221555D01*
X64427499Y-41221553D01*
X64421476Y-41191274D01*
X64396737Y-41066903D01*
X64396735Y-41066898D01*
X64350952Y-40956365D01*
X64336395Y-40921224D01*
X64336394Y-40921221D01*
X64336392Y-40921218D01*
X64336390Y-40921214D01*
X64332238Y-40915000D01*
X66205653Y-40915000D01*
X66205653Y-41072693D01*
X66236414Y-41227336D01*
X66236417Y-41227348D01*
X66296755Y-41373019D01*
X66296762Y-41373032D01*
X66384363Y-41504135D01*
X66384366Y-41504139D01*
X66495860Y-41615633D01*
X66495864Y-41615636D01*
X66626967Y-41703237D01*
X66626980Y-41703244D01*
X66772651Y-41763582D01*
X66772656Y-41763584D01*
X66927306Y-41794346D01*
X66927309Y-41794347D01*
X66927311Y-41794347D01*
X67084997Y-41794347D01*
X67084998Y-41794346D01*
X67239650Y-41763584D01*
X67385332Y-41703241D01*
X67516442Y-41615636D01*
X67627942Y-41504136D01*
X67715547Y-41373026D01*
X67775890Y-41227344D01*
X67806653Y-41072689D01*
X67806653Y-40915005D01*
X67806653Y-40915002D01*
X67806652Y-40915000D01*
X67777757Y-40769737D01*
X67775890Y-40760350D01*
X67754785Y-40709397D01*
X67715550Y-40614674D01*
X67715543Y-40614661D01*
X67627942Y-40483558D01*
X67627939Y-40483554D01*
X67516445Y-40372060D01*
X67516441Y-40372057D01*
X67385338Y-40284456D01*
X67385325Y-40284449D01*
X67239654Y-40224111D01*
X67239642Y-40224108D01*
X67084998Y-40193347D01*
X67084995Y-40193347D01*
X66927311Y-40193347D01*
X66927308Y-40193347D01*
X66772663Y-40224108D01*
X66772651Y-40224111D01*
X66626980Y-40284449D01*
X66626967Y-40284456D01*
X66495864Y-40372057D01*
X66495860Y-40372060D01*
X66384366Y-40483554D01*
X66384363Y-40483558D01*
X66296762Y-40614661D01*
X66296755Y-40614674D01*
X66236417Y-40760345D01*
X66236414Y-40760357D01*
X66205653Y-40915000D01*
X64332238Y-40915000D01*
X64248789Y-40790111D01*
X64248786Y-40790107D01*
X64137292Y-40678613D01*
X64137288Y-40678610D01*
X64006185Y-40591009D01*
X64006172Y-40591002D01*
X63860501Y-40530664D01*
X63860489Y-40530661D01*
X63705845Y-40499900D01*
X63705842Y-40499900D01*
X63548158Y-40499900D01*
X63548155Y-40499900D01*
X63393510Y-40530661D01*
X63393498Y-40530664D01*
X63247827Y-40591002D01*
X63247814Y-40591009D01*
X63116711Y-40678610D01*
X63116707Y-40678613D01*
X63005213Y-40790107D01*
X63005210Y-40790111D01*
X62917609Y-40921214D01*
X62917602Y-40921227D01*
X62857264Y-41066898D01*
X62857261Y-41066910D01*
X62826500Y-41221553D01*
X49272112Y-41221553D01*
X49274437Y-41209864D01*
X49278136Y-41191275D01*
X49278136Y-41191274D01*
X49300500Y-41078844D01*
X49300500Y-40921155D01*
X49300499Y-40921153D01*
X49269738Y-40766510D01*
X49269737Y-40766503D01*
X49233332Y-40678613D01*
X49209397Y-40620827D01*
X49209390Y-40620814D01*
X49121789Y-40489711D01*
X49121786Y-40489707D01*
X49010292Y-40378213D01*
X49010288Y-40378210D01*
X48879185Y-40290609D01*
X48879172Y-40290602D01*
X48733501Y-40230264D01*
X48733489Y-40230261D01*
X48578845Y-40199500D01*
X48578842Y-40199500D01*
X48421158Y-40199500D01*
X48421155Y-40199500D01*
X48266510Y-40230261D01*
X48266498Y-40230264D01*
X48120827Y-40290602D01*
X48120814Y-40290609D01*
X47989711Y-40378210D01*
X47989707Y-40378213D01*
X47878213Y-40489707D01*
X47878210Y-40489711D01*
X47790609Y-40620814D01*
X47790602Y-40620827D01*
X47730264Y-40766498D01*
X47730261Y-40766510D01*
X47699500Y-40921153D01*
X26500500Y-40921153D01*
X26500500Y-36828031D01*
X27499500Y-36828031D01*
X27499500Y-36859852D01*
X27499500Y-37171969D01*
X27506531Y-37243356D01*
X27533210Y-37514249D01*
X27600308Y-37851572D01*
X27700150Y-38180706D01*
X27762791Y-38331935D01*
X27820067Y-38470212D01*
X27831770Y-38498464D01*
X27831772Y-38498469D01*
X27993893Y-38801775D01*
X27993904Y-38801793D01*
X28184975Y-39087751D01*
X28184985Y-39087765D01*
X28403176Y-39353632D01*
X28646367Y-39596823D01*
X28646372Y-39596827D01*
X28646373Y-39596828D01*
X28912240Y-39815019D01*
X29198213Y-40006100D01*
X29198222Y-40006105D01*
X29198224Y-40006106D01*
X29501530Y-40168227D01*
X29501532Y-40168227D01*
X29501538Y-40168231D01*
X29819295Y-40299850D01*
X30148422Y-40399690D01*
X30485750Y-40466789D01*
X30828031Y-40500500D01*
X30828034Y-40500500D01*
X31171966Y-40500500D01*
X31171969Y-40500500D01*
X31514250Y-40466789D01*
X31851578Y-40399690D01*
X32180705Y-40299850D01*
X32498462Y-40168231D01*
X32801787Y-40006100D01*
X32928919Y-39921153D01*
X35699500Y-39921153D01*
X35699500Y-40078846D01*
X35730261Y-40233489D01*
X35730264Y-40233501D01*
X35790602Y-40379172D01*
X35790609Y-40379185D01*
X35878210Y-40510288D01*
X35878213Y-40510292D01*
X35989707Y-40621786D01*
X35989711Y-40621789D01*
X36120814Y-40709390D01*
X36120827Y-40709397D01*
X36258683Y-40766498D01*
X36266503Y-40769737D01*
X36421153Y-40800499D01*
X36421156Y-40800500D01*
X36421158Y-40800500D01*
X36578844Y-40800500D01*
X36578845Y-40800499D01*
X36589179Y-40798443D01*
X36614287Y-40793450D01*
X36614292Y-40793449D01*
X36699800Y-40776439D01*
X36733497Y-40769737D01*
X36879179Y-40709394D01*
X37010289Y-40621789D01*
X37121789Y-40510289D01*
X37209394Y-40379179D01*
X37269737Y-40233497D01*
X37300500Y-40078842D01*
X37300500Y-39921158D01*
X37300500Y-39921155D01*
X37300499Y-39921153D01*
X52199500Y-39921153D01*
X52199500Y-40078846D01*
X52230261Y-40233489D01*
X52230264Y-40233501D01*
X52290602Y-40379172D01*
X52290609Y-40379185D01*
X52378210Y-40510288D01*
X52378213Y-40510292D01*
X52489707Y-40621786D01*
X52489711Y-40621789D01*
X52620814Y-40709390D01*
X52620827Y-40709397D01*
X52758683Y-40766498D01*
X52766503Y-40769737D01*
X52921153Y-40800499D01*
X52921156Y-40800500D01*
X52921158Y-40800500D01*
X53078844Y-40800500D01*
X53078845Y-40800499D01*
X53233497Y-40769737D01*
X53379179Y-40709394D01*
X53510289Y-40621789D01*
X53621789Y-40510289D01*
X53709394Y-40379179D01*
X53769737Y-40233497D01*
X53800500Y-40078842D01*
X53800500Y-39921158D01*
X53800500Y-39921155D01*
X53800499Y-39921153D01*
X53788680Y-39861734D01*
X53769737Y-39766503D01*
X53734575Y-39681613D01*
X53709397Y-39620827D01*
X53709390Y-39620814D01*
X53621789Y-39489711D01*
X53621786Y-39489707D01*
X53510292Y-39378213D01*
X53510288Y-39378210D01*
X53424897Y-39321153D01*
X56799500Y-39321153D01*
X56799500Y-39478846D01*
X56830261Y-39633489D01*
X56830264Y-39633501D01*
X56890602Y-39779172D01*
X56890609Y-39779185D01*
X56978210Y-39910288D01*
X56978213Y-39910292D01*
X57089707Y-40021786D01*
X57089711Y-40021789D01*
X57220814Y-40109390D01*
X57220827Y-40109397D01*
X57362862Y-40168229D01*
X57366503Y-40169737D01*
X57485198Y-40193347D01*
X57521153Y-40200499D01*
X57521156Y-40200500D01*
X57521158Y-40200500D01*
X57678844Y-40200500D01*
X57678845Y-40200499D01*
X57833497Y-40169737D01*
X57979179Y-40109394D01*
X58110289Y-40021789D01*
X58221789Y-39910289D01*
X58309394Y-39779179D01*
X58369737Y-39633497D01*
X58400500Y-39478842D01*
X58400500Y-39321158D01*
X58400500Y-39321155D01*
X58400499Y-39321153D01*
X58384158Y-39239001D01*
X58369737Y-39166503D01*
X58345462Y-39107897D01*
X58323352Y-39054517D01*
X58309395Y-39020824D01*
X58309394Y-39020821D01*
X58309392Y-39020818D01*
X58309390Y-39020814D01*
X58304270Y-39013152D01*
X71291499Y-39013152D01*
X71291499Y-39170845D01*
X71322260Y-39325488D01*
X71322263Y-39325500D01*
X71382601Y-39471171D01*
X71382608Y-39471184D01*
X71470209Y-39602287D01*
X71470212Y-39602291D01*
X71581706Y-39713785D01*
X71581710Y-39713788D01*
X71712813Y-39801389D01*
X71712826Y-39801396D01*
X71858497Y-39861734D01*
X71858502Y-39861736D01*
X72013152Y-39892498D01*
X72013155Y-39892499D01*
X72013157Y-39892499D01*
X72170843Y-39892499D01*
X72170844Y-39892498D01*
X72325496Y-39861736D01*
X72471178Y-39801393D01*
X72602288Y-39713788D01*
X72713788Y-39602288D01*
X72801393Y-39471178D01*
X72803967Y-39464965D01*
X72850084Y-39353627D01*
X72861736Y-39325496D01*
X72892499Y-39170841D01*
X72892499Y-39013157D01*
X72892499Y-39013154D01*
X72873366Y-38916968D01*
X72873366Y-38916967D01*
X72869523Y-38897648D01*
X83699500Y-38897648D01*
X83699500Y-39102351D01*
X83731522Y-39304534D01*
X83794781Y-39499223D01*
X83887715Y-39681613D01*
X84008028Y-39847213D01*
X84152786Y-39991971D01*
X84272359Y-40078844D01*
X84318390Y-40112287D01*
X84428178Y-40168227D01*
X84500776Y-40205218D01*
X84500778Y-40205218D01*
X84500781Y-40205220D01*
X84587784Y-40233489D01*
X84695465Y-40268477D01*
X84796308Y-40284449D01*
X84897648Y-40300500D01*
X84897649Y-40300500D01*
X85102351Y-40300500D01*
X85102352Y-40300500D01*
X85304534Y-40268477D01*
X85499219Y-40205220D01*
X85681610Y-40112287D01*
X85827757Y-40006106D01*
X85847213Y-39991971D01*
X85847215Y-39991968D01*
X85847219Y-39991966D01*
X85991966Y-39847219D01*
X85991968Y-39847215D01*
X85991971Y-39847213D01*
X86050613Y-39766498D01*
X86112287Y-39681610D01*
X86139515Y-39628171D01*
X86187490Y-39577376D01*
X86255311Y-39560581D01*
X86321446Y-39583118D01*
X86360485Y-39628172D01*
X86387715Y-39681613D01*
X86508028Y-39847213D01*
X86652786Y-39991971D01*
X86772359Y-40078844D01*
X86818390Y-40112287D01*
X86928178Y-40168227D01*
X87000776Y-40205218D01*
X87000778Y-40205218D01*
X87000781Y-40205220D01*
X87087784Y-40233489D01*
X87195465Y-40268477D01*
X87296308Y-40284449D01*
X87397648Y-40300500D01*
X87397649Y-40300500D01*
X87602351Y-40300500D01*
X87602352Y-40300500D01*
X87804534Y-40268477D01*
X87999219Y-40205220D01*
X88181610Y-40112287D01*
X88327757Y-40006106D01*
X88347213Y-39991971D01*
X88347215Y-39991968D01*
X88347219Y-39991966D01*
X88491966Y-39847219D01*
X88491968Y-39847215D01*
X88491971Y-39847213D01*
X88550613Y-39766498D01*
X88612287Y-39681610D01*
X88639515Y-39628171D01*
X88687490Y-39577376D01*
X88755311Y-39560581D01*
X88821446Y-39583118D01*
X88860485Y-39628172D01*
X88887715Y-39681613D01*
X89008028Y-39847213D01*
X89152786Y-39991971D01*
X89272359Y-40078844D01*
X89318390Y-40112287D01*
X89428178Y-40168227D01*
X89500776Y-40205218D01*
X89500778Y-40205218D01*
X89500781Y-40205220D01*
X89587784Y-40233489D01*
X89695465Y-40268477D01*
X89796308Y-40284449D01*
X89897648Y-40300500D01*
X89897649Y-40300500D01*
X90102351Y-40300500D01*
X90102352Y-40300500D01*
X90304534Y-40268477D01*
X90499219Y-40205220D01*
X90681610Y-40112287D01*
X90827757Y-40006106D01*
X90847213Y-39991971D01*
X90847215Y-39991968D01*
X90847219Y-39991966D01*
X90991966Y-39847219D01*
X90991968Y-39847215D01*
X90991971Y-39847213D01*
X91050613Y-39766498D01*
X91112287Y-39681610D01*
X91205220Y-39499219D01*
X91268477Y-39304534D01*
X91300500Y-39102352D01*
X91300500Y-38897648D01*
X91272757Y-38722487D01*
X91268477Y-38695465D01*
X91230584Y-38578844D01*
X91205220Y-38500781D01*
X91205218Y-38500778D01*
X91205218Y-38500776D01*
X91162470Y-38416880D01*
X91112287Y-38318390D01*
X91092750Y-38291499D01*
X90991971Y-38152786D01*
X90847213Y-38008028D01*
X90681613Y-37887715D01*
X90681612Y-37887714D01*
X90681610Y-37887713D01*
X90610691Y-37851578D01*
X90499223Y-37794781D01*
X90304534Y-37731522D01*
X90129995Y-37703878D01*
X90102352Y-37699500D01*
X89897648Y-37699500D01*
X89873329Y-37703351D01*
X89695465Y-37731522D01*
X89500776Y-37794781D01*
X89318386Y-37887715D01*
X89152786Y-38008028D01*
X89008028Y-38152786D01*
X88887713Y-38318388D01*
X88860484Y-38371828D01*
X88812510Y-38422623D01*
X88744688Y-38439418D01*
X88678554Y-38416880D01*
X88639516Y-38371828D01*
X88612286Y-38318388D01*
X88491971Y-38152786D01*
X88347213Y-38008028D01*
X88181613Y-37887715D01*
X88181612Y-37887714D01*
X88181610Y-37887713D01*
X88110691Y-37851578D01*
X87999223Y-37794781D01*
X87804534Y-37731522D01*
X87629995Y-37703878D01*
X87602352Y-37699500D01*
X87397648Y-37699500D01*
X87373329Y-37703351D01*
X87195465Y-37731522D01*
X87000776Y-37794781D01*
X86818386Y-37887715D01*
X86652786Y-38008028D01*
X86508028Y-38152786D01*
X86387713Y-38318388D01*
X86360484Y-38371828D01*
X86312510Y-38422623D01*
X86244688Y-38439418D01*
X86178554Y-38416880D01*
X86139516Y-38371828D01*
X86112286Y-38318388D01*
X85991971Y-38152786D01*
X85847213Y-38008028D01*
X85681613Y-37887715D01*
X85681612Y-37887714D01*
X85681610Y-37887713D01*
X85610691Y-37851578D01*
X85499223Y-37794781D01*
X85304534Y-37731522D01*
X85129995Y-37703878D01*
X85102352Y-37699500D01*
X84897648Y-37699500D01*
X84873329Y-37703351D01*
X84695465Y-37731522D01*
X84500776Y-37794781D01*
X84318386Y-37887715D01*
X84152786Y-38008028D01*
X84008028Y-38152786D01*
X83887715Y-38318386D01*
X83794781Y-38500776D01*
X83731522Y-38695465D01*
X83699500Y-38897648D01*
X72869523Y-38897648D01*
X72865849Y-38879179D01*
X72861736Y-38858502D01*
X72861734Y-38858497D01*
X72801396Y-38712826D01*
X72801389Y-38712813D01*
X72713788Y-38581710D01*
X72713785Y-38581706D01*
X72602291Y-38470212D01*
X72602287Y-38470209D01*
X72471184Y-38382608D01*
X72471171Y-38382601D01*
X72325500Y-38322263D01*
X72325488Y-38322260D01*
X72170844Y-38291499D01*
X72170841Y-38291499D01*
X72013157Y-38291499D01*
X72013154Y-38291499D01*
X71858509Y-38322260D01*
X71858497Y-38322263D01*
X71712826Y-38382601D01*
X71712813Y-38382608D01*
X71581710Y-38470209D01*
X71581706Y-38470212D01*
X71470212Y-38581706D01*
X71470209Y-38581710D01*
X71382608Y-38712813D01*
X71382601Y-38712826D01*
X71322263Y-38858497D01*
X71322260Y-38858509D01*
X71291499Y-39013152D01*
X58304270Y-39013152D01*
X58221789Y-38889711D01*
X58221786Y-38889707D01*
X58110292Y-38778213D01*
X58110288Y-38778210D01*
X57979185Y-38690609D01*
X57979172Y-38690602D01*
X57833501Y-38630264D01*
X57833489Y-38630261D01*
X57678845Y-38599500D01*
X57678842Y-38599500D01*
X57521158Y-38599500D01*
X57521155Y-38599500D01*
X57366510Y-38630261D01*
X57366498Y-38630264D01*
X57220827Y-38690602D01*
X57220814Y-38690609D01*
X57089711Y-38778210D01*
X57089707Y-38778213D01*
X56978213Y-38889707D01*
X56978210Y-38889711D01*
X56890609Y-39020814D01*
X56890602Y-39020827D01*
X56830264Y-39166498D01*
X56830261Y-39166510D01*
X56799500Y-39321153D01*
X53424897Y-39321153D01*
X53379185Y-39290609D01*
X53379172Y-39290602D01*
X53233501Y-39230264D01*
X53233489Y-39230261D01*
X53078845Y-39199500D01*
X53078842Y-39199500D01*
X52921158Y-39199500D01*
X52921155Y-39199500D01*
X52766510Y-39230261D01*
X52766498Y-39230264D01*
X52620827Y-39290602D01*
X52620814Y-39290609D01*
X52489711Y-39378210D01*
X52489707Y-39378213D01*
X52378213Y-39489707D01*
X52378210Y-39489711D01*
X52290609Y-39620814D01*
X52290602Y-39620827D01*
X52230264Y-39766498D01*
X52230261Y-39766510D01*
X52199500Y-39921153D01*
X37300499Y-39921153D01*
X37288680Y-39861734D01*
X37269737Y-39766503D01*
X37234575Y-39681613D01*
X37209397Y-39620827D01*
X37209390Y-39620814D01*
X37121789Y-39489711D01*
X37121786Y-39489707D01*
X37010292Y-39378213D01*
X37010288Y-39378210D01*
X36879185Y-39290609D01*
X36879172Y-39290602D01*
X36733501Y-39230264D01*
X36733489Y-39230261D01*
X36578845Y-39199500D01*
X36578842Y-39199500D01*
X36421158Y-39199500D01*
X36421155Y-39199500D01*
X36266510Y-39230261D01*
X36266498Y-39230264D01*
X36120827Y-39290602D01*
X36120814Y-39290609D01*
X35989711Y-39378210D01*
X35989707Y-39378213D01*
X35878213Y-39489707D01*
X35878210Y-39489711D01*
X35790609Y-39620814D01*
X35790602Y-39620827D01*
X35730264Y-39766498D01*
X35730261Y-39766510D01*
X35699500Y-39921153D01*
X32928919Y-39921153D01*
X33087760Y-39815019D01*
X33353627Y-39596828D01*
X33596828Y-39353627D01*
X33815019Y-39087760D01*
X34006100Y-38801787D01*
X34068150Y-38685698D01*
X34087304Y-38649865D01*
X44428212Y-38649865D01*
X44428212Y-38807558D01*
X44458973Y-38962201D01*
X44458976Y-38962213D01*
X44519314Y-39107884D01*
X44519321Y-39107897D01*
X44606922Y-39239000D01*
X44606925Y-39239004D01*
X44718419Y-39350498D01*
X44718423Y-39350501D01*
X44849526Y-39438102D01*
X44849539Y-39438109D01*
X44995210Y-39498447D01*
X44995215Y-39498449D01*
X45149865Y-39529211D01*
X45149868Y-39529212D01*
X45149870Y-39529212D01*
X45307556Y-39529212D01*
X45307557Y-39529211D01*
X45462209Y-39498449D01*
X45607891Y-39438106D01*
X45739001Y-39350501D01*
X45850501Y-39239001D01*
X45938106Y-39107891D01*
X45946445Y-39087760D01*
X45977348Y-39013152D01*
X45998449Y-38962209D01*
X46029212Y-38807554D01*
X46029212Y-38649870D01*
X46029212Y-38649867D01*
X46029211Y-38649865D01*
X46025312Y-38630263D01*
X45998449Y-38495215D01*
X45998447Y-38495210D01*
X45938109Y-38349539D01*
X45938102Y-38349526D01*
X45850501Y-38218423D01*
X45850498Y-38218419D01*
X45739004Y-38106925D01*
X45739000Y-38106922D01*
X45607897Y-38019321D01*
X45607884Y-38019314D01*
X45518708Y-37982377D01*
X45462213Y-37958976D01*
X45462201Y-37958973D01*
X45307557Y-37928212D01*
X45307554Y-37928212D01*
X45149870Y-37928212D01*
X45149867Y-37928212D01*
X44995222Y-37958973D01*
X44995210Y-37958976D01*
X44849539Y-38019314D01*
X44849526Y-38019321D01*
X44718423Y-38106922D01*
X44718419Y-38106925D01*
X44606925Y-38218419D01*
X44606922Y-38218423D01*
X44519321Y-38349526D01*
X44519314Y-38349539D01*
X44458976Y-38495210D01*
X44458973Y-38495222D01*
X44428212Y-38649865D01*
X34087304Y-38649865D01*
X34121802Y-38585325D01*
X34168227Y-38498469D01*
X34168231Y-38498462D01*
X34299850Y-38180705D01*
X34392918Y-37873903D01*
X46652250Y-37873903D01*
X46652250Y-38031596D01*
X46683011Y-38186239D01*
X46683014Y-38186251D01*
X46743352Y-38331922D01*
X46743359Y-38331935D01*
X46830960Y-38463038D01*
X46830963Y-38463042D01*
X46942457Y-38574536D01*
X46942461Y-38574539D01*
X47073564Y-38662140D01*
X47073577Y-38662147D01*
X47195929Y-38712826D01*
X47219253Y-38722487D01*
X47373903Y-38753249D01*
X47373906Y-38753250D01*
X47373908Y-38753250D01*
X47531594Y-38753250D01*
X47531595Y-38753249D01*
X47686247Y-38722487D01*
X47831929Y-38662144D01*
X47963039Y-38574539D01*
X48074539Y-38463039D01*
X48102526Y-38421153D01*
X54199500Y-38421153D01*
X54199500Y-38578846D01*
X54230261Y-38733489D01*
X54230264Y-38733501D01*
X54290602Y-38879172D01*
X54290609Y-38879185D01*
X54378210Y-39010288D01*
X54378213Y-39010292D01*
X54489707Y-39121786D01*
X54489711Y-39121789D01*
X54620814Y-39209390D01*
X54620827Y-39209397D01*
X54692306Y-39239004D01*
X54766503Y-39269737D01*
X54921153Y-39300499D01*
X54921156Y-39300500D01*
X54921158Y-39300500D01*
X55078844Y-39300500D01*
X55078845Y-39300499D01*
X55233497Y-39269737D01*
X55379179Y-39209394D01*
X55510289Y-39121789D01*
X55621789Y-39010289D01*
X55709394Y-38879179D01*
X55769737Y-38733497D01*
X55800500Y-38578842D01*
X55800500Y-38421158D01*
X55800500Y-38421155D01*
X55800499Y-38421153D01*
X55792830Y-38382601D01*
X55769737Y-38266503D01*
X55748383Y-38214950D01*
X55709397Y-38120827D01*
X55709390Y-38120814D01*
X55621789Y-37989711D01*
X55621786Y-37989707D01*
X55510292Y-37878213D01*
X55510288Y-37878210D01*
X55379185Y-37790609D01*
X55379172Y-37790602D01*
X55233501Y-37730264D01*
X55233489Y-37730261D01*
X55078845Y-37699500D01*
X55078842Y-37699500D01*
X54921158Y-37699500D01*
X54921155Y-37699500D01*
X54766510Y-37730261D01*
X54766498Y-37730264D01*
X54620827Y-37790602D01*
X54620814Y-37790609D01*
X54489711Y-37878210D01*
X54489707Y-37878213D01*
X54378213Y-37989707D01*
X54378210Y-37989711D01*
X54290609Y-38120814D01*
X54290602Y-38120827D01*
X54230264Y-38266498D01*
X54230261Y-38266510D01*
X54199500Y-38421153D01*
X48102526Y-38421153D01*
X48108162Y-38412718D01*
X48152626Y-38346175D01*
X48162141Y-38331933D01*
X48162144Y-38331929D01*
X48222487Y-38186247D01*
X48253250Y-38031592D01*
X48253250Y-37873908D01*
X48253250Y-37873903D01*
X48231191Y-37763011D01*
X48222487Y-37719253D01*
X48208364Y-37685156D01*
X48162147Y-37573577D01*
X48162140Y-37573564D01*
X48074539Y-37442461D01*
X48074536Y-37442457D01*
X47963042Y-37330963D01*
X47963038Y-37330960D01*
X47831935Y-37243359D01*
X47831922Y-37243352D01*
X47686251Y-37183014D01*
X47686239Y-37183011D01*
X47531595Y-37152250D01*
X47531592Y-37152250D01*
X47373908Y-37152250D01*
X47373905Y-37152250D01*
X47219260Y-37183011D01*
X47219248Y-37183014D01*
X47073577Y-37243352D01*
X47073564Y-37243359D01*
X46942461Y-37330960D01*
X46942457Y-37330963D01*
X46830963Y-37442457D01*
X46830960Y-37442461D01*
X46743359Y-37573564D01*
X46743352Y-37573577D01*
X46683014Y-37719248D01*
X46683011Y-37719260D01*
X46652250Y-37873903D01*
X34392918Y-37873903D01*
X34399690Y-37851578D01*
X34466789Y-37514250D01*
X34500500Y-37171969D01*
X34500500Y-36828031D01*
X34481110Y-36631153D01*
X55199500Y-36631153D01*
X55199500Y-36788846D01*
X55230261Y-36943489D01*
X55230264Y-36943501D01*
X55290602Y-37089172D01*
X55290609Y-37089185D01*
X55378210Y-37220288D01*
X55378213Y-37220292D01*
X55489707Y-37331786D01*
X55489711Y-37331789D01*
X55620814Y-37419390D01*
X55620827Y-37419397D01*
X55766498Y-37479735D01*
X55766503Y-37479737D01*
X55920092Y-37510288D01*
X55921153Y-37510499D01*
X55921156Y-37510500D01*
X55921158Y-37510500D01*
X56078844Y-37510500D01*
X56078845Y-37510499D01*
X56233497Y-37479737D01*
X56346166Y-37433067D01*
X56379172Y-37419397D01*
X56379172Y-37419396D01*
X56379179Y-37419394D01*
X56510289Y-37331789D01*
X56621789Y-37220289D01*
X56709394Y-37089179D01*
X56769737Y-36943497D01*
X56800500Y-36788842D01*
X56800500Y-36631158D01*
X56800500Y-36631155D01*
X56800499Y-36631153D01*
X56792308Y-36589975D01*
X56769737Y-36476503D01*
X56731056Y-36383118D01*
X56709397Y-36330827D01*
X56709390Y-36330814D01*
X56621789Y-36199711D01*
X56621786Y-36199707D01*
X56510292Y-36088213D01*
X56510288Y-36088210D01*
X56379185Y-36000609D01*
X56379172Y-36000602D01*
X56233501Y-35940264D01*
X56233489Y-35940261D01*
X56078845Y-35909500D01*
X56078842Y-35909500D01*
X55921158Y-35909500D01*
X55921155Y-35909500D01*
X55766510Y-35940261D01*
X55766498Y-35940264D01*
X55620827Y-36000602D01*
X55620814Y-36000609D01*
X55489711Y-36088210D01*
X55489707Y-36088213D01*
X55378213Y-36199707D01*
X55378210Y-36199711D01*
X55290609Y-36330814D01*
X55290602Y-36330827D01*
X55230264Y-36476498D01*
X55230261Y-36476510D01*
X55199500Y-36631153D01*
X34481110Y-36631153D01*
X34466789Y-36485750D01*
X34399690Y-36148422D01*
X34299850Y-35819295D01*
X34168231Y-35501538D01*
X34164985Y-35495466D01*
X34125264Y-35421153D01*
X61949500Y-35421153D01*
X61949500Y-35578846D01*
X61980261Y-35733489D01*
X61980264Y-35733501D01*
X62040602Y-35879172D01*
X62040609Y-35879185D01*
X62128210Y-36010288D01*
X62128213Y-36010292D01*
X62239707Y-36121786D01*
X62239711Y-36121789D01*
X62370814Y-36209390D01*
X62370827Y-36209397D01*
X62516498Y-36269735D01*
X62516503Y-36269737D01*
X62664718Y-36299219D01*
X62671153Y-36300499D01*
X62671156Y-36300500D01*
X62671158Y-36300500D01*
X62828844Y-36300500D01*
X62828845Y-36300499D01*
X62983497Y-36269737D01*
X63129179Y-36209394D01*
X63260289Y-36121789D01*
X63290922Y-36091156D01*
X67074499Y-36091156D01*
X67110065Y-36269952D01*
X67110068Y-36269962D01*
X67179831Y-36438387D01*
X67179833Y-36438391D01*
X67281113Y-36589967D01*
X67281119Y-36589975D01*
X67410024Y-36718880D01*
X67410032Y-36718886D01*
X67561608Y-36820166D01*
X67561612Y-36820168D01*
X67730037Y-36889931D01*
X67730042Y-36889933D01*
X67730046Y-36889933D01*
X67730047Y-36889934D01*
X67908843Y-36925500D01*
X67908846Y-36925500D01*
X68091156Y-36925500D01*
X68211445Y-36901572D01*
X68269958Y-36889933D01*
X68438389Y-36820167D01*
X68438394Y-36820163D01*
X68441541Y-36818482D01*
X68443386Y-36818097D01*
X68444018Y-36817836D01*
X68444067Y-36817955D01*
X68509943Y-36804236D01*
X68558459Y-36818482D01*
X68561615Y-36820169D01*
X68730037Y-36889931D01*
X68730042Y-36889933D01*
X68730046Y-36889933D01*
X68730047Y-36889934D01*
X68908843Y-36925500D01*
X68908846Y-36925500D01*
X69091156Y-36925500D01*
X69211445Y-36901572D01*
X69269958Y-36889933D01*
X69438389Y-36820167D01*
X69438394Y-36820163D01*
X69441541Y-36818482D01*
X69443386Y-36818097D01*
X69444018Y-36817836D01*
X69444067Y-36817955D01*
X69509943Y-36804236D01*
X69558459Y-36818482D01*
X69561615Y-36820169D01*
X69730037Y-36889931D01*
X69730042Y-36889933D01*
X69730046Y-36889933D01*
X69730047Y-36889934D01*
X69908843Y-36925500D01*
X69908846Y-36925500D01*
X70091156Y-36925500D01*
X70269953Y-36889934D01*
X70269953Y-36889933D01*
X70269958Y-36889933D01*
X70281442Y-36885175D01*
X70350909Y-36877703D01*
X70372226Y-36883549D01*
X70467517Y-36919091D01*
X70527127Y-36925500D01*
X71472872Y-36925499D01*
X71513301Y-36921153D01*
X74199500Y-36921153D01*
X74199500Y-37078846D01*
X74230261Y-37233489D01*
X74230264Y-37233501D01*
X74290602Y-37379172D01*
X74290609Y-37379185D01*
X74378210Y-37510288D01*
X74378213Y-37510292D01*
X74489707Y-37621786D01*
X74489711Y-37621789D01*
X74620814Y-37709390D01*
X74620827Y-37709397D01*
X74766498Y-37769735D01*
X74766503Y-37769737D01*
X74892402Y-37794780D01*
X74921153Y-37800499D01*
X74921156Y-37800500D01*
X74921158Y-37800500D01*
X75078844Y-37800500D01*
X75078845Y-37800499D01*
X75233497Y-37769737D01*
X75379179Y-37709394D01*
X75510289Y-37621789D01*
X75621789Y-37510289D01*
X75709394Y-37379179D01*
X75769737Y-37233497D01*
X75800500Y-37078842D01*
X75800500Y-36921158D01*
X75800500Y-36921155D01*
X75800499Y-36921153D01*
X75794289Y-36889933D01*
X75769737Y-36766503D01*
X75750014Y-36718886D01*
X75709397Y-36620827D01*
X75709390Y-36620814D01*
X75621789Y-36489711D01*
X75621786Y-36489707D01*
X75510292Y-36378213D01*
X75510288Y-36378210D01*
X75379185Y-36290609D01*
X75379172Y-36290602D01*
X75233501Y-36230264D01*
X75233489Y-36230261D01*
X75078845Y-36199500D01*
X75078842Y-36199500D01*
X74921158Y-36199500D01*
X74921155Y-36199500D01*
X74766510Y-36230261D01*
X74766498Y-36230264D01*
X74620827Y-36290602D01*
X74620814Y-36290609D01*
X74489711Y-36378210D01*
X74489707Y-36378213D01*
X74378213Y-36489707D01*
X74378210Y-36489711D01*
X74290609Y-36620814D01*
X74290602Y-36620827D01*
X74230264Y-36766498D01*
X74230261Y-36766510D01*
X74199500Y-36921153D01*
X71513301Y-36921153D01*
X71532483Y-36919091D01*
X71667331Y-36868796D01*
X71782546Y-36782546D01*
X71868796Y-36667331D01*
X71919091Y-36532483D01*
X71925500Y-36472873D01*
X71925499Y-35527128D01*
X71919091Y-35467517D01*
X71908305Y-35438599D01*
X71868797Y-35332671D01*
X71868793Y-35332664D01*
X71782547Y-35217455D01*
X71782544Y-35217452D01*
X71667335Y-35131206D01*
X71667328Y-35131202D01*
X71532482Y-35080908D01*
X71532483Y-35080908D01*
X71472883Y-35074501D01*
X71472881Y-35074500D01*
X71472873Y-35074500D01*
X71472864Y-35074500D01*
X70527129Y-35074500D01*
X70527123Y-35074501D01*
X70467516Y-35080908D01*
X70372233Y-35116447D01*
X70302541Y-35121431D01*
X70281448Y-35114826D01*
X70269962Y-35110068D01*
X70269952Y-35110065D01*
X70091156Y-35074500D01*
X70091154Y-35074500D01*
X69908846Y-35074500D01*
X69908844Y-35074500D01*
X69730047Y-35110065D01*
X69730041Y-35110067D01*
X69561605Y-35179835D01*
X69558444Y-35181525D01*
X69556600Y-35181908D01*
X69555984Y-35182164D01*
X69555935Y-35182047D01*
X69490040Y-35195761D01*
X69441556Y-35181525D01*
X69438394Y-35179835D01*
X69269958Y-35110067D01*
X69269952Y-35110065D01*
X69091156Y-35074500D01*
X69091154Y-35074500D01*
X68908846Y-35074500D01*
X68908844Y-35074500D01*
X68730047Y-35110065D01*
X68730041Y-35110067D01*
X68561605Y-35179835D01*
X68558444Y-35181525D01*
X68556600Y-35181908D01*
X68555984Y-35182164D01*
X68555935Y-35182047D01*
X68490040Y-35195761D01*
X68441556Y-35181525D01*
X68438394Y-35179835D01*
X68269958Y-35110067D01*
X68269952Y-35110065D01*
X68091156Y-35074500D01*
X68091154Y-35074500D01*
X67908846Y-35074500D01*
X67908844Y-35074500D01*
X67730047Y-35110065D01*
X67730037Y-35110068D01*
X67561612Y-35179831D01*
X67561608Y-35179833D01*
X67410032Y-35281113D01*
X67410024Y-35281119D01*
X67281119Y-35410024D01*
X67281113Y-35410032D01*
X67179833Y-35561608D01*
X67179831Y-35561612D01*
X67110068Y-35730037D01*
X67110065Y-35730047D01*
X67074500Y-35908843D01*
X67074500Y-35908846D01*
X67074500Y-36091154D01*
X67074500Y-36091156D01*
X67074499Y-36091156D01*
X63290922Y-36091156D01*
X63371789Y-36010289D01*
X63459394Y-35879179D01*
X63519737Y-35733497D01*
X63550500Y-35578842D01*
X63550500Y-35421158D01*
X63550500Y-35421155D01*
X63550499Y-35421153D01*
X63533256Y-35334467D01*
X63519737Y-35266503D01*
X63508518Y-35239418D01*
X63459397Y-35120827D01*
X63459390Y-35120814D01*
X63390489Y-35017697D01*
X63371789Y-34989711D01*
X63371786Y-34989707D01*
X63334214Y-34952135D01*
X83699500Y-34952135D01*
X83699500Y-36647870D01*
X83699501Y-36647876D01*
X83705908Y-36707483D01*
X83756202Y-36842328D01*
X83756206Y-36842335D01*
X83842452Y-36957544D01*
X83842455Y-36957547D01*
X83957664Y-37043793D01*
X83957671Y-37043797D01*
X84092517Y-37094091D01*
X84092516Y-37094091D01*
X84099444Y-37094835D01*
X84152127Y-37100500D01*
X85847872Y-37100499D01*
X85907483Y-37094091D01*
X86042331Y-37043796D01*
X86157546Y-36957546D01*
X86243796Y-36842331D01*
X86294091Y-36707483D01*
X86295394Y-36701968D01*
X86329963Y-36641250D01*
X86391872Y-36608860D01*
X86461464Y-36615083D01*
X86503387Y-36644975D01*
X86504589Y-36643774D01*
X86652786Y-36791971D01*
X86787619Y-36889931D01*
X86818390Y-36912287D01*
X86907212Y-36957544D01*
X87000776Y-37005218D01*
X87000778Y-37005218D01*
X87000781Y-37005220D01*
X87105137Y-37039127D01*
X87195465Y-37068477D01*
X87260932Y-37078846D01*
X87397648Y-37100500D01*
X87397649Y-37100500D01*
X87602351Y-37100500D01*
X87602352Y-37100500D01*
X87804534Y-37068477D01*
X87999219Y-37005220D01*
X88181610Y-36912287D01*
X88277901Y-36842328D01*
X88347213Y-36791971D01*
X88347215Y-36791968D01*
X88347219Y-36791966D01*
X88491966Y-36647219D01*
X88491968Y-36647215D01*
X88491971Y-36647213D01*
X88575326Y-36532483D01*
X88612287Y-36481610D01*
X88639515Y-36428171D01*
X88687490Y-36377376D01*
X88755311Y-36360581D01*
X88821446Y-36383118D01*
X88860484Y-36428171D01*
X88885114Y-36476510D01*
X88887715Y-36481613D01*
X89008028Y-36647213D01*
X89152786Y-36791971D01*
X89287619Y-36889931D01*
X89318390Y-36912287D01*
X89407212Y-36957544D01*
X89500776Y-37005218D01*
X89500778Y-37005218D01*
X89500781Y-37005220D01*
X89605137Y-37039127D01*
X89695465Y-37068477D01*
X89760932Y-37078846D01*
X89897648Y-37100500D01*
X89897649Y-37100500D01*
X90102351Y-37100500D01*
X90102352Y-37100500D01*
X90304534Y-37068477D01*
X90499219Y-37005220D01*
X90681610Y-36912287D01*
X90777901Y-36842328D01*
X90797580Y-36828031D01*
X97499500Y-36828031D01*
X97499500Y-36859852D01*
X97499500Y-37171969D01*
X97506531Y-37243356D01*
X97533210Y-37514249D01*
X97600308Y-37851572D01*
X97700150Y-38180706D01*
X97762791Y-38331935D01*
X97820067Y-38470212D01*
X97831770Y-38498464D01*
X97831772Y-38498469D01*
X97993893Y-38801775D01*
X97993904Y-38801793D01*
X98184975Y-39087751D01*
X98184985Y-39087765D01*
X98403176Y-39353632D01*
X98646367Y-39596823D01*
X98646372Y-39596827D01*
X98646373Y-39596828D01*
X98912240Y-39815019D01*
X99198213Y-40006100D01*
X99198222Y-40006105D01*
X99198224Y-40006106D01*
X99501530Y-40168227D01*
X99501532Y-40168227D01*
X99501538Y-40168231D01*
X99819295Y-40299850D01*
X100148422Y-40399690D01*
X100485750Y-40466789D01*
X100828031Y-40500500D01*
X100828034Y-40500500D01*
X101171966Y-40500500D01*
X101171969Y-40500500D01*
X101514250Y-40466789D01*
X101851578Y-40399690D01*
X102180705Y-40299850D01*
X102498462Y-40168231D01*
X102801787Y-40006100D01*
X103087760Y-39815019D01*
X103353627Y-39596828D01*
X103596828Y-39353627D01*
X103815019Y-39087760D01*
X104006100Y-38801787D01*
X104168231Y-38498462D01*
X104299850Y-38180705D01*
X104399690Y-37851578D01*
X104466789Y-37514250D01*
X104500500Y-37171969D01*
X104500500Y-36828031D01*
X104466789Y-36485750D01*
X104409850Y-36199500D01*
X104399691Y-36148427D01*
X104399690Y-36148426D01*
X104399690Y-36148422D01*
X104299850Y-35819295D01*
X104168231Y-35501538D01*
X104164985Y-35495466D01*
X104006106Y-35198224D01*
X104006105Y-35198222D01*
X104006100Y-35198213D01*
X103815019Y-34912240D01*
X103596828Y-34646373D01*
X103596827Y-34646372D01*
X103596823Y-34646367D01*
X103353632Y-34403176D01*
X103087765Y-34184985D01*
X103087764Y-34184984D01*
X103087760Y-34184981D01*
X102801787Y-33993900D01*
X102801782Y-33993897D01*
X102801775Y-33993893D01*
X102498469Y-33831772D01*
X102498464Y-33831770D01*
X102180706Y-33700150D01*
X101851572Y-33600308D01*
X101514248Y-33533210D01*
X101514249Y-33533210D01*
X101256456Y-33507821D01*
X101171969Y-33499500D01*
X100828031Y-33499500D01*
X100749966Y-33507188D01*
X100485750Y-33533210D01*
X100148427Y-33600308D01*
X99819293Y-33700150D01*
X99501535Y-33831770D01*
X99501530Y-33831772D01*
X99198224Y-33993893D01*
X99198206Y-33993904D01*
X98912248Y-34184975D01*
X98912234Y-34184985D01*
X98646367Y-34403176D01*
X98403176Y-34646367D01*
X98184985Y-34912234D01*
X98184975Y-34912248D01*
X97993904Y-35198206D01*
X97993893Y-35198224D01*
X97831772Y-35501530D01*
X97831770Y-35501535D01*
X97700150Y-35819293D01*
X97600308Y-36148427D01*
X97533210Y-36485750D01*
X97508435Y-36737306D01*
X97499500Y-36828031D01*
X90797580Y-36828031D01*
X90847213Y-36791971D01*
X90847215Y-36791968D01*
X90847219Y-36791966D01*
X90991966Y-36647219D01*
X90991968Y-36647215D01*
X90991971Y-36647213D01*
X91075326Y-36532483D01*
X91112287Y-36481610D01*
X91205220Y-36299219D01*
X91268477Y-36104534D01*
X91300500Y-35902352D01*
X91300500Y-35697648D01*
X91278620Y-35559506D01*
X91268477Y-35495465D01*
X91216165Y-35334467D01*
X91205220Y-35300781D01*
X91205218Y-35300778D01*
X91205218Y-35300776D01*
X91158654Y-35209390D01*
X91112287Y-35118390D01*
X91080400Y-35074501D01*
X90991971Y-34952786D01*
X90847213Y-34808028D01*
X90681613Y-34687715D01*
X90681612Y-34687714D01*
X90681610Y-34687713D01*
X90600464Y-34646367D01*
X90499223Y-34594781D01*
X90304534Y-34531522D01*
X90129995Y-34503878D01*
X90102352Y-34499500D01*
X89897648Y-34499500D01*
X89873329Y-34503351D01*
X89695465Y-34531522D01*
X89500776Y-34594781D01*
X89318386Y-34687715D01*
X89152786Y-34808028D01*
X89008028Y-34952786D01*
X88887713Y-35118388D01*
X88860484Y-35171828D01*
X88812510Y-35222623D01*
X88744688Y-35239418D01*
X88678554Y-35216880D01*
X88639516Y-35171828D01*
X88612286Y-35118388D01*
X88491971Y-34952786D01*
X88347213Y-34808028D01*
X88181613Y-34687715D01*
X88181612Y-34687714D01*
X88181610Y-34687713D01*
X88100464Y-34646367D01*
X87999223Y-34594781D01*
X87804534Y-34531522D01*
X87629995Y-34503878D01*
X87602352Y-34499500D01*
X87397648Y-34499500D01*
X87373329Y-34503351D01*
X87195465Y-34531522D01*
X87000776Y-34594781D01*
X86818386Y-34687715D01*
X86652786Y-34808028D01*
X86652782Y-34808032D01*
X86504589Y-34956226D01*
X86503152Y-34954789D01*
X86451746Y-34988280D01*
X86381877Y-34988714D01*
X86322866Y-34951306D01*
X86295394Y-34898034D01*
X86294091Y-34892521D01*
X86294091Y-34892517D01*
X86294089Y-34892511D01*
X86243797Y-34757671D01*
X86243793Y-34757664D01*
X86157547Y-34642455D01*
X86157544Y-34642452D01*
X86042335Y-34556206D01*
X86042328Y-34556202D01*
X85907482Y-34505908D01*
X85907483Y-34505908D01*
X85847883Y-34499501D01*
X85847881Y-34499500D01*
X85847873Y-34499500D01*
X85847864Y-34499500D01*
X84152129Y-34499500D01*
X84152123Y-34499501D01*
X84092516Y-34505908D01*
X83957671Y-34556202D01*
X83957664Y-34556206D01*
X83842455Y-34642452D01*
X83842452Y-34642455D01*
X83756206Y-34757664D01*
X83756202Y-34757671D01*
X83705908Y-34892517D01*
X83699501Y-34952116D01*
X83699500Y-34952135D01*
X63334214Y-34952135D01*
X63260292Y-34878213D01*
X63260288Y-34878210D01*
X63129185Y-34790609D01*
X63129172Y-34790602D01*
X62983501Y-34730264D01*
X62983489Y-34730261D01*
X62828845Y-34699500D01*
X62828842Y-34699500D01*
X62671158Y-34699500D01*
X62671155Y-34699500D01*
X62516510Y-34730261D01*
X62516498Y-34730264D01*
X62370827Y-34790602D01*
X62370814Y-34790609D01*
X62239711Y-34878210D01*
X62239707Y-34878213D01*
X62128213Y-34989707D01*
X62128210Y-34989711D01*
X62040609Y-35120814D01*
X62040602Y-35120827D01*
X61980264Y-35266498D01*
X61980261Y-35266510D01*
X61949500Y-35421153D01*
X34125264Y-35421153D01*
X34006106Y-35198224D01*
X34006105Y-35198222D01*
X34006100Y-35198213D01*
X33815019Y-34912240D01*
X33596828Y-34646373D01*
X33596827Y-34646372D01*
X33596823Y-34646367D01*
X33371609Y-34421153D01*
X49699500Y-34421153D01*
X49699500Y-34578846D01*
X49730261Y-34733489D01*
X49730264Y-34733501D01*
X49790602Y-34879172D01*
X49790609Y-34879185D01*
X49878210Y-35010288D01*
X49878213Y-35010292D01*
X49989707Y-35121786D01*
X49989711Y-35121789D01*
X50120814Y-35209390D01*
X50120827Y-35209397D01*
X50258683Y-35266498D01*
X50266503Y-35269737D01*
X50421153Y-35300499D01*
X50421156Y-35300500D01*
X50421158Y-35300500D01*
X50578844Y-35300500D01*
X50578845Y-35300499D01*
X50589179Y-35298443D01*
X50614287Y-35293450D01*
X50614292Y-35293449D01*
X50699800Y-35276439D01*
X50733497Y-35269737D01*
X50879179Y-35209394D01*
X51010289Y-35121789D01*
X51121789Y-35010289D01*
X51209394Y-34879179D01*
X51269737Y-34733497D01*
X51300500Y-34578842D01*
X51300500Y-34421158D01*
X51300500Y-34421155D01*
X51300499Y-34421153D01*
X51269738Y-34266510D01*
X51269737Y-34266503D01*
X51256062Y-34233489D01*
X51209397Y-34120827D01*
X51209390Y-34120814D01*
X51121790Y-33989712D01*
X51121784Y-33989705D01*
X51053232Y-33921153D01*
X57199500Y-33921153D01*
X57199500Y-34078846D01*
X57230261Y-34233489D01*
X57230264Y-34233501D01*
X57290602Y-34379172D01*
X57290609Y-34379185D01*
X57378210Y-34510288D01*
X57378213Y-34510292D01*
X57489707Y-34621786D01*
X57489711Y-34621789D01*
X57620814Y-34709390D01*
X57620827Y-34709397D01*
X57766498Y-34769735D01*
X57766503Y-34769737D01*
X57921153Y-34800499D01*
X57921156Y-34800500D01*
X57921158Y-34800500D01*
X58078844Y-34800500D01*
X58078845Y-34800499D01*
X58233497Y-34769737D01*
X58379179Y-34709394D01*
X58510289Y-34621789D01*
X58621789Y-34510289D01*
X58709394Y-34379179D01*
X58769737Y-34233497D01*
X58800500Y-34078842D01*
X58800500Y-33921158D01*
X58800500Y-33921155D01*
X58800499Y-33921153D01*
X58782720Y-33831772D01*
X58769737Y-33766503D01*
X58769735Y-33766498D01*
X58709397Y-33620827D01*
X58709390Y-33620814D01*
X58621789Y-33489711D01*
X58621786Y-33489707D01*
X58510292Y-33378213D01*
X58510288Y-33378210D01*
X58379185Y-33290609D01*
X58379172Y-33290602D01*
X58233501Y-33230264D01*
X58233489Y-33230261D01*
X58078845Y-33199500D01*
X58078842Y-33199500D01*
X57921158Y-33199500D01*
X57921155Y-33199500D01*
X57766510Y-33230261D01*
X57766498Y-33230264D01*
X57620827Y-33290602D01*
X57620814Y-33290609D01*
X57489711Y-33378210D01*
X57489707Y-33378213D01*
X57378213Y-33489707D01*
X57378210Y-33489711D01*
X57290609Y-33620814D01*
X57290602Y-33620827D01*
X57230264Y-33766498D01*
X57230261Y-33766510D01*
X57199500Y-33921153D01*
X51053232Y-33921153D01*
X51010292Y-33878213D01*
X51010288Y-33878210D01*
X50879185Y-33790609D01*
X50879172Y-33790602D01*
X50733501Y-33730264D01*
X50733489Y-33730261D01*
X50578845Y-33699500D01*
X50578842Y-33699500D01*
X50421158Y-33699500D01*
X50421155Y-33699500D01*
X50266510Y-33730261D01*
X50266498Y-33730264D01*
X50120827Y-33790602D01*
X50120814Y-33790609D01*
X49989711Y-33878210D01*
X49989707Y-33878213D01*
X49878213Y-33989707D01*
X49878210Y-33989711D01*
X49790609Y-34120814D01*
X49790602Y-34120827D01*
X49730264Y-34266498D01*
X49730261Y-34266510D01*
X49699500Y-34421153D01*
X33371609Y-34421153D01*
X33353632Y-34403176D01*
X33087765Y-34184985D01*
X33087764Y-34184984D01*
X33087760Y-34184981D01*
X32801787Y-33993900D01*
X32801782Y-33993897D01*
X32801775Y-33993893D01*
X32498469Y-33831772D01*
X32498464Y-33831770D01*
X32180706Y-33700150D01*
X31851572Y-33600308D01*
X31514248Y-33533210D01*
X31514249Y-33533210D01*
X31256456Y-33507821D01*
X31171969Y-33499500D01*
X30828031Y-33499500D01*
X30749966Y-33507188D01*
X30485750Y-33533210D01*
X30148427Y-33600308D01*
X29819293Y-33700150D01*
X29501535Y-33831770D01*
X29501530Y-33831772D01*
X29198224Y-33993893D01*
X29198206Y-33993904D01*
X28912248Y-34184975D01*
X28912234Y-34184985D01*
X28646367Y-34403176D01*
X28403176Y-34646367D01*
X28184985Y-34912234D01*
X28184975Y-34912248D01*
X27993904Y-35198206D01*
X27993893Y-35198224D01*
X27831772Y-35501530D01*
X27831770Y-35501535D01*
X27700150Y-35819293D01*
X27600308Y-36148427D01*
X27533210Y-36485750D01*
X27508435Y-36737306D01*
X27499500Y-36828031D01*
X26500500Y-36828031D01*
X26500500Y-32624500D01*
X26520185Y-32557461D01*
X26572989Y-32511706D01*
X26624500Y-32500500D01*
X105375500Y-32500500D01*
X105442539Y-32520185D01*
G37*
%TD.AperFunction*%
%TD*%
M02*
