%TF.GenerationSoftware,KiCad,Pcbnew,9.0.3*%
%TF.CreationDate,2025-12-18T19:10:42-03:00*%
%TF.ProjectId,PCB_LoRa+GPS,5043425f-4c6f-4526-912b-4750532e6b69,rev?*%
%TF.SameCoordinates,Original*%
%TF.FileFunction,Paste,Top*%
%TF.FilePolarity,Positive*%
%FSLAX46Y46*%
G04 Gerber Fmt 4.6, Leading zero omitted, Abs format (unit mm)*
G04 Created by KiCad (PCBNEW 9.0.3) date 2025-12-18 19:10:42*
%MOMM*%
%LPD*%
G01*
G04 APERTURE LIST*
G04 Aperture macros list*
%AMRoundRect*
0 Rectangle with rounded corners*
0 $1 Rounding radius*
0 $2 $3 $4 $5 $6 $7 $8 $9 X,Y pos of 4 corners*
0 Add a 4 corners polygon primitive as box body*
4,1,4,$2,$3,$4,$5,$6,$7,$8,$9,$2,$3,0*
0 Add four circle primitives for the rounded corners*
1,1,$1+$1,$2,$3*
1,1,$1+$1,$4,$5*
1,1,$1+$1,$6,$7*
1,1,$1+$1,$8,$9*
0 Add four rect primitives between the rounded corners*
20,1,$1+$1,$2,$3,$4,$5,0*
20,1,$1+$1,$4,$5,$6,$7,0*
20,1,$1+$1,$6,$7,$8,$9,0*
20,1,$1+$1,$8,$9,$2,$3,0*%
G04 Aperture macros list end*
%ADD10RoundRect,0.140000X0.170000X-0.140000X0.170000X0.140000X-0.170000X0.140000X-0.170000X-0.140000X0*%
%ADD11RoundRect,0.250000X0.475000X-0.250000X0.475000X0.250000X-0.475000X0.250000X-0.475000X-0.250000X0*%
%ADD12RoundRect,0.135000X-0.135000X-0.185000X0.135000X-0.185000X0.135000X0.185000X-0.135000X0.185000X0*%
%ADD13RoundRect,0.218750X0.256250X-0.218750X0.256250X0.218750X-0.256250X0.218750X-0.256250X-0.218750X0*%
%ADD14RoundRect,0.150000X-0.587500X-0.150000X0.587500X-0.150000X0.587500X0.150000X-0.587500X0.150000X0*%
%ADD15RoundRect,0.135000X-0.185000X0.135000X-0.185000X-0.135000X0.185000X-0.135000X0.185000X0.135000X0*%
%ADD16RoundRect,0.135000X0.135000X0.185000X-0.135000X0.185000X-0.135000X-0.185000X0.135000X-0.185000X0*%
%ADD17RoundRect,0.135000X0.185000X-0.135000X0.185000X0.135000X-0.185000X0.135000X-0.185000X-0.135000X0*%
%ADD18RoundRect,0.225000X-0.225000X-0.250000X0.225000X-0.250000X0.225000X0.250000X-0.225000X0.250000X0*%
%ADD19RoundRect,0.250000X0.285000X0.285000X-0.285000X0.285000X-0.285000X-0.285000X0.285000X-0.285000X0*%
%ADD20RoundRect,0.062500X0.337500X0.062500X-0.337500X0.062500X-0.337500X-0.062500X0.337500X-0.062500X0*%
%ADD21RoundRect,0.062500X0.062500X0.337500X-0.062500X0.337500X-0.062500X-0.337500X0.062500X-0.337500X0*%
%ADD22RoundRect,0.140000X-0.140000X-0.170000X0.140000X-0.170000X0.140000X0.170000X-0.140000X0.170000X0*%
%ADD23RoundRect,0.250000X-0.250000X0.275000X-0.250000X-0.275000X0.250000X-0.275000X0.250000X0.275000X0*%
%ADD24RoundRect,0.250000X-0.275000X0.850000X-0.275000X-0.850000X0.275000X-0.850000X0.275000X0.850000X0*%
%ADD25R,0.900000X1.000000*%
%ADD26RoundRect,0.250000X-0.900000X1.000000X-0.900000X-1.000000X0.900000X-1.000000X0.900000X1.000000X0*%
%ADD27RoundRect,0.250000X-0.275000X-0.275000X0.275000X-0.275000X0.275000X0.275000X-0.275000X0.275000X0*%
%ADD28RoundRect,0.062500X-0.350000X-0.062500X0.350000X-0.062500X0.350000X0.062500X-0.350000X0.062500X0*%
%ADD29RoundRect,0.062500X-0.062500X-0.350000X0.062500X-0.350000X0.062500X0.350000X-0.062500X0.350000X0*%
%ADD30RoundRect,0.218750X-0.218750X-0.256250X0.218750X-0.256250X0.218750X0.256250X-0.218750X0.256250X0*%
%ADD31RoundRect,0.150000X0.150000X-0.587500X0.150000X0.587500X-0.150000X0.587500X-0.150000X-0.587500X0*%
%ADD32RoundRect,0.225000X-0.250000X0.225000X-0.250000X-0.225000X0.250000X-0.225000X0.250000X0.225000X0*%
%ADD33RoundRect,0.225000X0.225000X0.250000X-0.225000X0.250000X-0.225000X-0.250000X0.225000X-0.250000X0*%
%ADD34RoundRect,0.140000X0.140000X0.170000X-0.140000X0.170000X-0.140000X-0.170000X0.140000X-0.170000X0*%
%ADD35RoundRect,0.218750X-0.218750X-0.381250X0.218750X-0.381250X0.218750X0.381250X-0.218750X0.381250X0*%
%ADD36RoundRect,0.317500X-1.157500X-0.317500X1.157500X-0.317500X1.157500X0.317500X-1.157500X0.317500X0*%
%ADD37RoundRect,0.218750X-0.381250X0.218750X-0.381250X-0.218750X0.381250X-0.218750X0.381250X0.218750X0*%
%ADD38RoundRect,0.087500X-0.250000X-0.087500X0.250000X-0.087500X0.250000X0.087500X-0.250000X0.087500X0*%
%ADD39RoundRect,0.225000X0.017678X-0.335876X0.335876X-0.017678X-0.017678X0.335876X-0.335876X0.017678X0*%
%ADD40R,1.181000X0.787400*%
%ADD41RoundRect,0.160000X-0.160000X-0.160000X0.160000X-0.160000X0.160000X0.160000X-0.160000X0.160000X0*%
%ADD42RoundRect,0.062500X-0.375000X-0.062500X0.375000X-0.062500X0.375000X0.062500X-0.375000X0.062500X0*%
%ADD43RoundRect,0.062500X-0.062500X-0.375000X0.062500X-0.375000X0.062500X0.375000X-0.062500X0.375000X0*%
%ADD44RoundRect,0.093750X-0.156250X-0.093750X0.156250X-0.093750X0.156250X0.093750X-0.156250X0.093750X0*%
%ADD45RoundRect,0.075000X-0.250000X-0.075000X0.250000X-0.075000X0.250000X0.075000X-0.250000X0.075000X0*%
%ADD46RoundRect,0.150000X-0.150000X0.587500X-0.150000X-0.587500X0.150000X-0.587500X0.150000X0.587500X0*%
%ADD47RoundRect,0.140000X-0.170000X0.140000X-0.170000X-0.140000X0.170000X-0.140000X0.170000X0.140000X0*%
G04 APERTURE END LIST*
D10*
%TO.C,C6*%
X68500000Y-39000000D03*
X68500000Y-38040000D03*
%TD*%
D11*
%TO.C,C7*%
X52750000Y-37150000D03*
X52750000Y-35250000D03*
%TD*%
D12*
%TO.C,R21*%
X57150000Y-35560000D03*
X58170000Y-35560000D03*
%TD*%
D13*
%TO.C,D2*%
X38500000Y-44575000D03*
X38500000Y-43000000D03*
%TD*%
D14*
%TO.C,Q4*%
X60250000Y-38740000D03*
X60250000Y-40640000D03*
X62125000Y-39690000D03*
%TD*%
D15*
%TO.C,R9*%
X39935000Y-34980000D03*
X39935000Y-36000000D03*
%TD*%
D16*
%TO.C,R12*%
X32000000Y-42000000D03*
X30980000Y-42000000D03*
%TD*%
D17*
%TO.C,R14*%
X49500000Y-46500000D03*
X49500000Y-45480000D03*
%TD*%
%TO.C,R20*%
X73500000Y-36520000D03*
X73500000Y-35500000D03*
%TD*%
D11*
%TO.C,C16*%
X55473600Y-48270200D03*
X55473600Y-46370200D03*
%TD*%
D18*
%TO.C,C1*%
X99225000Y-59250000D03*
X100775000Y-59250000D03*
%TD*%
D15*
%TO.C,R13*%
X57750000Y-41980000D03*
X57750000Y-43000000D03*
%TD*%
D17*
%TO.C,R2*%
X66000000Y-35510000D03*
X66000000Y-34490000D03*
%TD*%
D12*
%TO.C,R17*%
X59940000Y-35560000D03*
X60960000Y-35560000D03*
%TD*%
D19*
%TO.C,U1*%
X70320000Y-48320000D03*
X70320000Y-47000000D03*
X70320000Y-45680000D03*
X70320000Y-44360000D03*
X69000000Y-48320000D03*
X69000000Y-47000000D03*
X69000000Y-45680000D03*
X69000000Y-44360000D03*
X67680000Y-48320000D03*
X67680000Y-47000000D03*
X67680000Y-45680000D03*
X67680000Y-44360000D03*
X66360000Y-48320000D03*
X66360000Y-47000000D03*
X66360000Y-45680000D03*
X66360000Y-44360000D03*
D20*
X71790000Y-49090000D03*
X71790000Y-48590000D03*
X71790000Y-48090000D03*
X71790000Y-47590000D03*
X71790000Y-47090000D03*
X71790000Y-46590000D03*
X71790000Y-46090000D03*
X71790000Y-45590000D03*
X71790000Y-45090000D03*
X71790000Y-44590000D03*
X71790000Y-44090000D03*
X71790000Y-43590000D03*
D21*
X71090000Y-42890000D03*
X70590000Y-42890000D03*
X70090000Y-42890000D03*
X69590000Y-42890000D03*
X69090000Y-42890000D03*
X68590000Y-42890000D03*
X68090000Y-42890000D03*
X67590000Y-42890000D03*
X67090000Y-42890000D03*
X66590000Y-42890000D03*
X66090000Y-42890000D03*
X65590000Y-42890000D03*
D20*
X64890000Y-43590000D03*
X64890000Y-44090000D03*
X64890000Y-44590000D03*
X64890000Y-45090000D03*
X64890000Y-45590000D03*
X64890000Y-46090000D03*
X64890000Y-46590000D03*
X64890000Y-47090000D03*
X64890000Y-47590000D03*
X64890000Y-48090000D03*
X64890000Y-48590000D03*
X64890000Y-49090000D03*
D21*
X65590000Y-49790000D03*
X66090000Y-49790000D03*
X66590000Y-49790000D03*
X67090000Y-49790000D03*
X67590000Y-49790000D03*
X68090000Y-49790000D03*
X68590000Y-49790000D03*
X69090000Y-49790000D03*
X69590000Y-49790000D03*
X70090000Y-49790000D03*
X70590000Y-49790000D03*
X71090000Y-49790000D03*
%TD*%
D22*
%TO.C,C8*%
X31040000Y-57500000D03*
X32000000Y-57500000D03*
%TD*%
D23*
%TO.C,J4*%
X38525000Y-72475000D03*
D24*
X40000000Y-74000000D03*
X37050000Y-74000000D03*
%TD*%
D25*
%TO.C,SW1*%
X71900000Y-64400000D03*
X76000000Y-64400000D03*
X71900000Y-66000000D03*
X76000000Y-66000000D03*
%TD*%
D15*
%TO.C,R6*%
X45500000Y-39990000D03*
X45500000Y-41010000D03*
%TD*%
D26*
%TO.C,CR1*%
X32000000Y-62850000D03*
X32000000Y-67150000D03*
%TD*%
D27*
%TO.C,U6*%
X43850000Y-47850000D03*
X43850000Y-49150000D03*
X45150000Y-47850000D03*
X45150000Y-49150000D03*
D28*
X42562500Y-47250000D03*
X42562500Y-47750000D03*
X42562500Y-48250000D03*
X42562500Y-48750000D03*
X42562500Y-49250000D03*
X42562500Y-49750000D03*
D29*
X43250000Y-50437500D03*
X43750000Y-50437500D03*
X44250000Y-50437500D03*
X44750000Y-50437500D03*
X45250000Y-50437500D03*
X45750000Y-50437500D03*
D28*
X46437500Y-49750000D03*
X46437500Y-49250000D03*
X46437500Y-48750000D03*
X46437500Y-48250000D03*
X46437500Y-47750000D03*
X46437500Y-47250000D03*
D29*
X45750000Y-46562500D03*
X45250000Y-46562500D03*
X44750000Y-46562500D03*
X44250000Y-46562500D03*
X43750000Y-46562500D03*
X43250000Y-46562500D03*
%TD*%
D30*
%TO.C,D1*%
X43712500Y-43000000D03*
X45287500Y-43000000D03*
%TD*%
D17*
%TO.C,R18*%
X63000000Y-38000000D03*
X63000000Y-36980000D03*
%TD*%
D31*
%TO.C,Q3*%
X77050000Y-36937500D03*
X78950000Y-36937500D03*
X78000000Y-35062500D03*
%TD*%
D10*
%TO.C,C2*%
X67000000Y-39000000D03*
X67000000Y-38040000D03*
%TD*%
D12*
%TO.C,R24*%
X77980000Y-61000000D03*
X79000000Y-61000000D03*
%TD*%
D18*
%TO.C,C5*%
X48450000Y-42500000D03*
X50000000Y-42500000D03*
%TD*%
D15*
%TO.C,R7*%
X37820000Y-34980000D03*
X37820000Y-36000000D03*
%TD*%
D32*
%TO.C,C14*%
X74000000Y-51975000D03*
X74000000Y-53525000D03*
%TD*%
D33*
%TO.C,C20*%
X58550000Y-54000000D03*
X57000000Y-54000000D03*
%TD*%
D34*
%TO.C,C12*%
X39000000Y-52244621D03*
X38040000Y-52244621D03*
%TD*%
%TO.C,C13*%
X39000000Y-50750000D03*
X38040000Y-50750000D03*
%TD*%
D18*
%TO.C,C17*%
X57450000Y-66000000D03*
X59000000Y-66000000D03*
%TD*%
D12*
%TO.C,R15*%
X49500000Y-48000000D03*
X50520000Y-48000000D03*
%TD*%
D17*
%TO.C,R10*%
X42050000Y-36000000D03*
X42050000Y-34980000D03*
%TD*%
D35*
%TO.C,L1*%
X52375000Y-50000000D03*
X54500000Y-50000000D03*
%TD*%
D22*
%TO.C,C4*%
X73040000Y-61000000D03*
X74000000Y-61000000D03*
%TD*%
D16*
%TO.C,R4*%
X51000000Y-39000000D03*
X49980000Y-39000000D03*
%TD*%
D36*
%TO.C,U2*%
X79450000Y-43000000D03*
X79450000Y-45000000D03*
X79450000Y-47000000D03*
X79450000Y-49000000D03*
X79450000Y-51000000D03*
X79450000Y-53000000D03*
X79450000Y-55000000D03*
X79450000Y-57000000D03*
X94500000Y-57000000D03*
X94500000Y-55000000D03*
X94500000Y-53000000D03*
X94500000Y-51000000D03*
X94500000Y-49000000D03*
X94500000Y-47000000D03*
X94500000Y-45000000D03*
X94500000Y-43000000D03*
%TD*%
D15*
%TO.C,R8*%
X44165000Y-34980000D03*
X44165000Y-36000000D03*
%TD*%
D23*
%TO.C,J1*%
X94525000Y-67975000D03*
D24*
X96000000Y-69500000D03*
X93050000Y-69500000D03*
%TD*%
D17*
%TO.C,R25*%
X49500000Y-70010000D03*
X49500000Y-68990000D03*
%TD*%
%TO.C,R1*%
X81000000Y-38010000D03*
X81000000Y-36990000D03*
%TD*%
D34*
%TO.C,C10*%
X39000000Y-53739243D03*
X38040000Y-53739243D03*
%TD*%
D18*
%TO.C,C18*%
X57450000Y-63460000D03*
X59000000Y-63460000D03*
%TD*%
D37*
%TO.C,L2*%
X58166000Y-50016900D03*
X58166000Y-52141900D03*
%TD*%
D38*
%TO.C,U3*%
X47075000Y-35500000D03*
X47075000Y-36000000D03*
X47075000Y-36500000D03*
X48500000Y-36500000D03*
X48500000Y-36000000D03*
X48500000Y-35500000D03*
%TD*%
D10*
%TO.C,C3*%
X65500000Y-39000000D03*
X65500000Y-38040000D03*
%TD*%
D15*
%TO.C,R22*%
X68000000Y-57000000D03*
X68000000Y-58020000D03*
%TD*%
D12*
%TO.C,R5*%
X49990000Y-40500000D03*
X51010000Y-40500000D03*
%TD*%
D39*
%TO.C,C19*%
X73951992Y-44548008D03*
X75048008Y-43451992D03*
%TD*%
D30*
%TO.C,D3*%
X53000000Y-52000000D03*
X54575000Y-52000000D03*
%TD*%
D40*
%TO.C,U5*%
X54000000Y-65300001D03*
X54000000Y-64200001D03*
X54000000Y-63100001D03*
X54000000Y-62000000D03*
X54000000Y-60900000D03*
X54000000Y-59800000D03*
X54000000Y-58699999D03*
X54000000Y-57600002D03*
X54000000Y-56500001D03*
X44563798Y-56499999D03*
X44563798Y-57599999D03*
X44563798Y-58699999D03*
X44563798Y-59800000D03*
X44563798Y-60900000D03*
X44563798Y-62000000D03*
X44563798Y-63100001D03*
X44563798Y-64199998D03*
X44563798Y-65299999D03*
%TD*%
D41*
%TO.C,U4*%
X40600000Y-39350000D03*
X40600000Y-40150000D03*
X41400000Y-39350000D03*
X41400000Y-40150000D03*
D42*
X39562500Y-39000000D03*
X39562500Y-39500000D03*
X39562500Y-40000000D03*
X39562500Y-40500000D03*
D43*
X40250000Y-41187500D03*
X40750000Y-41187500D03*
X41250000Y-41187500D03*
X41750000Y-41187500D03*
D42*
X42437500Y-40500000D03*
X42437500Y-40000000D03*
X42437500Y-39500000D03*
X42437500Y-39000000D03*
D43*
X41750000Y-38312500D03*
X41250000Y-38312500D03*
X40750000Y-38312500D03*
X40250000Y-38312500D03*
%TD*%
D44*
%TO.C,U7*%
X35500000Y-48000000D03*
D45*
X35425000Y-48537500D03*
D44*
X35500000Y-49075000D03*
X37200000Y-49075000D03*
D45*
X37275000Y-48537500D03*
D44*
X37200000Y-48000000D03*
%TD*%
D16*
%TO.C,R23*%
X51010000Y-52000000D03*
X49990000Y-52000000D03*
%TD*%
D17*
%TO.C,R19*%
X64250000Y-35510000D03*
X64250000Y-34490000D03*
%TD*%
D46*
%TO.C,Q2*%
X61950000Y-50125000D03*
X60050000Y-50125000D03*
X61000000Y-52000000D03*
%TD*%
D10*
%TO.C,C11*%
X70000000Y-39000000D03*
X70000000Y-38040000D03*
%TD*%
D16*
%TO.C,R16*%
X46020000Y-52000000D03*
X45000000Y-52000000D03*
%TD*%
D12*
%TO.C,R11*%
X34980000Y-46000000D03*
X36000000Y-46000000D03*
%TD*%
D47*
%TO.C,C9*%
X80314800Y-34521200D03*
X80314800Y-35481200D03*
%TD*%
D32*
%TO.C,C15*%
X72210000Y-51975000D03*
X72210000Y-53525000D03*
%TD*%
D16*
%TO.C,R3*%
X64500000Y-53000000D03*
X63480000Y-53000000D03*
%TD*%
M02*
